<svg xmlns="http://www.w3.org/2000/svg" width="960" height="600" viewBox="0 0 960 600">
  <rect width="960" height="600" fill="#0d1117" rx="8" />
  <text x="480" y="24" font-family="system-ui, -apple-system, sans-serif" font-size="13" fill="#8b949e" text-anchor="middle" font-weight="500">Repo Relationship Graph &#x2014; Pairwise Topic &amp; Language Similarity</text>
  <line x1="50" y1="550" x2="910" y2="550" stroke="#484f58" stroke-width="0.5" opacity="0.5" />
  <text x="50" y="570" font-family="system-ui, -apple-system, sans-serif" font-size="9" fill="#8b949e" opacity="0.6">Updated daily by GitHub Actions</text>
  <text x="50" y="588" font-family="system-ui, -apple-system, sans-serif" font-size="9" fill="#8b949e" opacity="0.6">networkx spring_layout · Jaccard similarity &gt; 0.15</text>
  <text x="910" y="570" font-family="system-ui, -apple-system, sans-serif" font-size="9" fill="#8b949e" text-anchor="end" opacity="0.6">55 repos · 214 edges</text>
  <line x1="392.4" y1="260.1" x2="379.8" y2="231.8" stroke="#6e7681" stroke-width="1.1" opacity="0.33" />
  <line x1="392.4" y1="260.1" x2="384.4" y2="286.1" stroke="#6e7681" stroke-width="1.0" opacity="0.22" />
  <line x1="392.4" y1="260.1" x2="381.9" y2="223.3" stroke="#6e7681" stroke-width="1.3" opacity="0.41" />
  <line x1="392.4" y1="260.1" x2="346.5" y2="270.9" stroke="#6e7681" stroke-width="1.0" opacity="0.24" />
  <line x1="392.4" y1="260.1" x2="356.4" y2="299.3" stroke="#6e7681" stroke-width="0.9" opacity="0.19" />
  <line x1="392.4" y1="260.1" x2="393.2" y2="294.0" stroke="#6e7681" stroke-width="0.9" opacity="0.18" />
  <line x1="392.4" y1="260.1" x2="416.7" y2="290.2" stroke="#6e7681" stroke-width="0.9" opacity="0.18" />
  <line x1="392.4" y1="260.1" x2="417.8" y2="268.3" stroke="#6e7681" stroke-width="1.4" opacity="0.47" />
  <line x1="392.4" y1="260.1" x2="450.5" y2="313.3" stroke="#6e7681" stroke-width="0.9" opacity="0.18" />
  <line x1="379.8" y1="231.8" x2="381.9" y2="223.3" stroke="#6e7681" stroke-width="0.9" opacity="0.18" />
  <line x1="379.8" y1="231.8" x2="417.8" y2="268.3" stroke="#6e7681" stroke-width="0.9" opacity="0.20" />
  <line x1="301.7" y1="291.5" x2="346.5" y2="270.9" stroke="#6e7681" stroke-width="1.2" opacity="0.38" />
  <line x1="301.7" y1="291.5" x2="356.4" y2="299.3" stroke="#6e7681" stroke-width="1.2" opacity="0.34" />
  <line x1="301.7" y1="291.5" x2="393.2" y2="294.0" stroke="#6e7681" stroke-width="0.9" opacity="0.18" />
  <line x1="301.7" y1="291.5" x2="278.5" y2="309.3" stroke="#6e7681" stroke-width="1.0" opacity="0.25" />
  <line x1="301.7" y1="291.5" x2="351.8" y2="319.2" stroke="#6e7681" stroke-width="0.9" opacity="0.20" />
  <line x1="301.7" y1="291.5" x2="313.0" y2="323.4" stroke="#6e7681" stroke-width="1.0" opacity="0.22" />
  <line x1="360.7" y1="254.1" x2="381.9" y2="223.3" stroke="#6e7681" stroke-width="0.9" opacity="0.18" />
  <line x1="360.7" y1="254.1" x2="346.5" y2="270.9" stroke="#6e7681" stroke-width="1.0" opacity="0.25" />
  <line x1="360.7" y1="254.1" x2="393.2" y2="294.0" stroke="#6e7681" stroke-width="1.0" opacity="0.22" />
  <line x1="360.7" y1="254.1" x2="408.5" y2="296.9" stroke="#6e7681" stroke-width="0.9" opacity="0.20" />
  <line x1="384.4" y1="286.1" x2="346.5" y2="270.9" stroke="#6e7681" stroke-width="0.9" opacity="0.21" />
  <line x1="384.4" y1="286.1" x2="356.4" y2="299.3" stroke="#6e7681" stroke-width="1.1" opacity="0.30" />
  <line x1="384.4" y1="286.1" x2="393.2" y2="294.0" stroke="#6e7681" stroke-width="1.0" opacity="0.24" />
  <line x1="384.4" y1="286.1" x2="408.5" y2="296.9" stroke="#6e7681" stroke-width="1.0" opacity="0.22" />
  <line x1="384.4" y1="286.1" x2="416.7" y2="290.2" stroke="#6e7681" stroke-width="1.0" opacity="0.24" />
  <line x1="384.4" y1="286.1" x2="439.2" y2="289.1" stroke="#6e7681" stroke-width="1.0" opacity="0.22" />
  <line x1="384.4" y1="286.1" x2="417.8" y2="268.3" stroke="#6e7681" stroke-width="1.0" opacity="0.22" />
  <line x1="384.4" y1="286.1" x2="338.6" y2="309.8" stroke="#6e7681" stroke-width="0.9" opacity="0.19" />
  <line x1="384.4" y1="286.1" x2="393.6" y2="321.4" stroke="#6e7681" stroke-width="0.9" opacity="0.21" />
  <line x1="384.4" y1="286.1" x2="414.3" y2="319.7" stroke="#6e7681" stroke-width="1.0" opacity="0.24" />
  <line x1="384.4" y1="286.1" x2="450.5" y2="313.3" stroke="#6e7681" stroke-width="0.9" opacity="0.17" />
  <line x1="346.5" y1="270.9" x2="356.4" y2="299.3" stroke="#6e7681" stroke-width="0.9" opacity="0.19" />
  <line x1="346.5" y1="270.9" x2="393.2" y2="294.0" stroke="#6e7681" stroke-width="0.9" opacity="0.18" />
  <line x1="346.5" y1="270.9" x2="416.7" y2="290.2" stroke="#6e7681" stroke-width="0.9" opacity="0.18" />
  <line x1="346.5" y1="270.9" x2="417.8" y2="268.3" stroke="#6e7681" stroke-width="1.0" opacity="0.24" />
  <line x1="356.4" y1="299.3" x2="393.2" y2="294.0" stroke="#6e7681" stroke-width="1.1" opacity="0.29" />
  <line x1="356.4" y1="299.3" x2="278.5" y2="309.3" stroke="#6e7681" stroke-width="1.2" opacity="0.34" />
  <line x1="356.4" y1="299.3" x2="408.5" y2="296.9" stroke="#6e7681" stroke-width="0.9" opacity="0.20" />
  <line x1="356.4" y1="299.3" x2="416.7" y2="290.2" stroke="#6e7681" stroke-width="1.0" opacity="0.22" />
  <line x1="356.4" y1="299.3" x2="439.2" y2="289.1" stroke="#6e7681" stroke-width="0.9" opacity="0.20" />
  <line x1="356.4" y1="299.3" x2="417.8" y2="268.3" stroke="#6e7681" stroke-width="0.9" opacity="0.19" />
  <line x1="356.4" y1="299.3" x2="351.8" y2="319.2" stroke="#6e7681" stroke-width="1.2" opacity="0.37" />
  <line x1="356.4" y1="299.3" x2="313.0" y2="323.4" stroke="#6e7681" stroke-width="1.2" opacity="0.37" />
  <line x1="356.4" y1="299.3" x2="338.6" y2="309.8" stroke="#6e7681" stroke-width="1.1" opacity="0.29" />
  <line x1="356.4" y1="299.3" x2="381.5" y2="316.1" stroke="#6e7681" stroke-width="1.0" opacity="0.22" />
  <line x1="356.4" y1="299.3" x2="393.6" y2="321.4" stroke="#6e7681" stroke-width="1.2" opacity="0.34" />
  <line x1="356.4" y1="299.3" x2="372.5" y2="326.1" stroke="#6e7681" stroke-width="1.0" opacity="0.24" />
  <line x1="356.4" y1="299.3" x2="414.3" y2="319.7" stroke="#6e7681" stroke-width="1.1" opacity="0.29" />
  <line x1="356.4" y1="299.3" x2="348.2" y2="327.6" stroke="#6e7681" stroke-width="1.0" opacity="0.22" />
  <line x1="393.2" y1="294.0" x2="480.7" y2="296.4" stroke="#6e7681" stroke-width="0.9" opacity="0.21" />
  <line x1="393.2" y1="294.0" x2="408.5" y2="296.9" stroke="#6e7681" stroke-width="1.1" opacity="0.28" />
  <line x1="393.2" y1="294.0" x2="416.7" y2="290.2" stroke="#6e7681" stroke-width="1.1" opacity="0.31" />
  <line x1="393.2" y1="294.0" x2="439.2" y2="289.1" stroke="#6e7681" stroke-width="1.1" opacity="0.28" />
  <line x1="393.2" y1="294.0" x2="417.8" y2="268.3" stroke="#6e7681" stroke-width="0.9" opacity="0.18" />
  <line x1="393.2" y1="294.0" x2="351.8" y2="319.2" stroke="#6e7681" stroke-width="0.9" opacity="0.17" />
  <line x1="393.2" y1="294.0" x2="442.2" y2="328.2" stroke="#6e7681" stroke-width="0.9" opacity="0.17" />
  <line x1="393.2" y1="294.0" x2="453.9" y2="320.7" stroke="#6e7681" stroke-width="0.9" opacity="0.20" />
  <line x1="393.2" y1="294.0" x2="393.6" y2="321.4" stroke="#6e7681" stroke-width="0.9" opacity="0.17" />
  <line x1="393.2" y1="294.0" x2="372.5" y2="326.1" stroke="#6e7681" stroke-width="0.9" opacity="0.17" />
  <line x1="393.2" y1="294.0" x2="414.3" y2="319.7" stroke="#6e7681" stroke-width="1.1" opacity="0.33" />
  <line x1="393.2" y1="294.0" x2="450.5" y2="313.3" stroke="#6e7681" stroke-width="1.0" opacity="0.24" />
  <line x1="278.5" y1="309.3" x2="351.8" y2="319.2" stroke="#6e7681" stroke-width="1.0" opacity="0.25" />
  <line x1="278.5" y1="309.3" x2="313.0" y2="323.4" stroke="#6e7681" stroke-width="1.1" opacity="0.29" />
  <line x1="278.5" y1="309.3" x2="348.2" y2="327.6" stroke="#6e7681" stroke-width="0.9" opacity="0.17" />
  <line x1="340.1" y1="345.1" x2="351.8" y2="319.2" stroke="#6e7681" stroke-width="0.9" opacity="0.18" />
  <line x1="340.1" y1="345.1" x2="313.0" y2="323.4" stroke="#6e7681" stroke-width="0.9" opacity="0.18" />
  <line x1="340.1" y1="345.1" x2="393.6" y2="321.4" stroke="#6e7681" stroke-width="0.9" opacity="0.17" />
  <line x1="340.1" y1="345.1" x2="372.5" y2="326.1" stroke="#6e7681" stroke-width="1.3" opacity="0.42" />
  <line x1="340.1" y1="345.1" x2="414.3" y2="319.7" stroke="#6e7681" stroke-width="0.9" opacity="0.19" />
  <line x1="340.1" y1="345.1" x2="348.2" y2="327.6" stroke="#6e7681" stroke-width="0.9" opacity="0.21" />
  <line x1="480.7" y1="296.4" x2="453.9" y2="320.7" stroke="#6e7681" stroke-width="0.9" opacity="0.18" />
  <line x1="480.7" y1="296.4" x2="414.3" y2="319.7" stroke="#6e7681" stroke-width="1.1" opacity="0.30" />
  <line x1="480.7" y1="296.4" x2="450.5" y2="313.3" stroke="#6e7681" stroke-width="1.0" opacity="0.22" />
  <line x1="408.5" y1="296.9" x2="416.7" y2="290.2" stroke="#6e7681" stroke-width="1.1" opacity="0.28" />
  <line x1="408.5" y1="296.9" x2="439.2" y2="289.1" stroke="#6e7681" stroke-width="1.0" opacity="0.24" />
  <line x1="408.5" y1="296.9" x2="381.5" y2="316.1" stroke="#6e7681" stroke-width="0.9" opacity="0.19" />
  <line x1="408.5" y1="296.9" x2="407.4" y2="333.6" stroke="#6e7681" stroke-width="0.9" opacity="0.18" />
  <line x1="408.5" y1="296.9" x2="453.9" y2="320.7" stroke="#6e7681" stroke-width="0.9" opacity="0.17" />
  <line x1="408.5" y1="296.9" x2="414.3" y2="319.7" stroke="#6e7681" stroke-width="0.9" opacity="0.17" />
  <line x1="408.5" y1="296.9" x2="450.5" y2="313.3" stroke="#6e7681" stroke-width="0.9" opacity="0.20" />
  <line x1="416.7" y1="290.2" x2="439.2" y2="289.1" stroke="#6e7681" stroke-width="1.1" opacity="0.28" />
  <line x1="416.7" y1="290.2" x2="417.8" y2="268.3" stroke="#6e7681" stroke-width="0.9" opacity="0.18" />
  <line x1="416.7" y1="290.2" x2="442.2" y2="328.2" stroke="#6e7681" stroke-width="0.9" opacity="0.17" />
  <line x1="416.7" y1="290.2" x2="453.9" y2="320.7" stroke="#6e7681" stroke-width="0.9" opacity="0.20" />
  <line x1="416.7" y1="290.2" x2="393.6" y2="321.4" stroke="#6e7681" stroke-width="0.9" opacity="0.17" />
  <line x1="416.7" y1="290.2" x2="414.3" y2="319.7" stroke="#6e7681" stroke-width="0.9" opacity="0.20" />
  <line x1="416.7" y1="290.2" x2="450.5" y2="313.3" stroke="#6e7681" stroke-width="1.0" opacity="0.24" />
  <line x1="439.2" y1="289.1" x2="453.9" y2="320.7" stroke="#6e7681" stroke-width="0.9" opacity="0.17" />
  <line x1="439.2" y1="289.1" x2="414.3" y2="319.7" stroke="#6e7681" stroke-width="0.9" opacity="0.17" />
  <line x1="439.2" y1="289.1" x2="450.5" y2="313.3" stroke="#6e7681" stroke-width="0.9" opacity="0.20" />
  <line x1="417.8" y1="268.3" x2="518.0" y2="275.4" stroke="#6e7681" stroke-width="1.0" opacity="0.22" />
  <line x1="417.8" y1="268.3" x2="450.5" y2="313.3" stroke="#6e7681" stroke-width="0.9" opacity="0.18" />
  <line x1="534.9" y1="384.4" x2="477.9" y2="355.8" stroke="#6e7681" stroke-width="1.3" opacity="0.44" />
  <line x1="534.9" y1="384.4" x2="553.3" y2="367.4" stroke="#6e7681" stroke-width="0.9" opacity="0.18" />
  <line x1="477.9" y1="355.8" x2="501.9" y2="331.3" stroke="#6e7681" stroke-width="1.1" opacity="0.31" />
  <line x1="477.9" y1="355.8" x2="442.2" y2="328.2" stroke="#6e7681" stroke-width="0.9" opacity="0.20" />
  <line x1="477.9" y1="355.8" x2="453.9" y2="320.7" stroke="#6e7681" stroke-width="1.0" opacity="0.24" />
  <line x1="477.9" y1="355.8" x2="393.6" y2="321.4" stroke="#6e7681" stroke-width="0.9" opacity="0.20" />
  <line x1="477.9" y1="355.8" x2="414.3" y2="319.7" stroke="#6e7681" stroke-width="1.0" opacity="0.24" />
  <line x1="477.9" y1="355.8" x2="432.6" y2="341.8" stroke="#6e7681" stroke-width="0.9" opacity="0.18" />
  <line x1="477.9" y1="355.8" x2="456.1" y2="429.0" stroke="#6e7681" stroke-width="0.9" opacity="0.17" />
  <line x1="477.9" y1="355.8" x2="503.6" y2="338.5" stroke="#6e7681" stroke-width="1.1" opacity="0.31" />
  <line x1="477.9" y1="355.8" x2="553.3" y2="367.4" stroke="#6e7681" stroke-width="1.1" opacity="0.30" />
  <line x1="477.9" y1="355.8" x2="450.5" y2="313.3" stroke="#6e7681" stroke-width="1.1" opacity="0.31" />
  <line x1="377.5" y1="59.2" x2="346.1" y2="63.5" stroke="#6e7681" stroke-width="1.6" opacity="0.60" />
  <line x1="143.8" y1="344.2" x2="313.0" y2="323.4" stroke="#6e7681" stroke-width="0.9" opacity="0.18" />
  <line x1="143.8" y1="344.2" x2="50.0" y2="356.2" stroke="#6e7681" stroke-width="1.1" opacity="0.28" />
  <line x1="377.9" y1="338.8" x2="351.8" y2="319.2" stroke="#6e7681" stroke-width="0.9" opacity="0.17" />
  <line x1="377.9" y1="338.8" x2="313.0" y2="323.4" stroke="#6e7681" stroke-width="0.9" opacity="0.18" />
  <line x1="377.9" y1="338.8" x2="381.5" y2="316.1" stroke="#6e7681" stroke-width="1.0" opacity="0.22" />
  <line x1="377.9" y1="338.8" x2="393.6" y2="321.4" stroke="#6e7681" stroke-width="1.1" opacity="0.28" />
  <line x1="377.9" y1="338.8" x2="372.5" y2="326.1" stroke="#6e7681" stroke-width="1.1" opacity="0.32" />
  <line x1="377.9" y1="338.8" x2="414.3" y2="319.7" stroke="#6e7681" stroke-width="0.9" opacity="0.20" />
  <line x1="377.9" y1="338.8" x2="348.2" y2="327.6" stroke="#6e7681" stroke-width="1.0" opacity="0.22" />
  <line x1="377.9" y1="338.8" x2="468.3" y2="311.8" stroke="#6e7681" stroke-width="1.0" opacity="0.22" />
  <line x1="351.8" y1="319.2" x2="313.0" y2="323.4" stroke="#6e7681" stroke-width="1.3" opacity="0.42" />
  <line x1="351.8" y1="319.2" x2="317.8" y2="337.9" stroke="#6e7681" stroke-width="0.9" opacity="0.18" />
  <line x1="351.8" y1="319.2" x2="338.6" y2="309.8" stroke="#6e7681" stroke-width="1.1" opacity="0.31" />
  <line x1="351.8" y1="319.2" x2="381.5" y2="316.1" stroke="#6e7681" stroke-width="1.1" opacity="0.32" />
  <line x1="351.8" y1="319.2" x2="407.4" y2="333.6" stroke="#6e7681" stroke-width="1.0" opacity="0.23" />
  <line x1="351.8" y1="319.2" x2="393.6" y2="321.4" stroke="#6e7681" stroke-width="1.2" opacity="0.39" />
  <line x1="351.8" y1="319.2" x2="372.5" y2="326.1" stroke="#6e7681" stroke-width="1.0" opacity="0.26" />
  <line x1="351.8" y1="319.2" x2="414.3" y2="319.7" stroke="#6e7681" stroke-width="1.2" opacity="0.34" />
  <line x1="351.8" y1="319.2" x2="432.6" y2="341.8" stroke="#6e7681" stroke-width="0.9" opacity="0.19" />
  <line x1="351.8" y1="319.2" x2="348.2" y2="327.6" stroke="#6e7681" stroke-width="1.0" opacity="0.25" />
  <line x1="351.8" y1="319.2" x2="450.5" y2="313.3" stroke="#6e7681" stroke-width="0.9" opacity="0.17" />
  <line x1="313.0" y1="323.4" x2="317.8" y2="337.9" stroke="#6e7681" stroke-width="1.1" opacity="0.33" />
  <line x1="313.0" y1="323.4" x2="338.6" y2="309.8" stroke="#6e7681" stroke-width="0.9" opacity="0.21" />
  <line x1="313.0" y1="323.4" x2="381.5" y2="316.1" stroke="#6e7681" stroke-width="0.9" opacity="0.18" />
  <line x1="313.0" y1="323.4" x2="393.6" y2="321.4" stroke="#6e7681" stroke-width="1.3" opacity="0.41" />
  <line x1="313.0" y1="323.4" x2="372.5" y2="326.1" stroke="#6e7681" stroke-width="1.0" opacity="0.22" />
  <line x1="313.0" y1="323.4" x2="414.3" y2="319.7" stroke="#6e7681" stroke-width="1.1" opacity="0.31" />
  <line x1="313.0" y1="323.4" x2="348.2" y2="327.6" stroke="#6e7681" stroke-width="1.7" opacity="0.66" />
  <line x1="485.3" y1="325.3" x2="501.9" y2="331.3" stroke="#6e7681" stroke-width="1.5" opacity="0.55" />
  <line x1="485.3" y1="325.3" x2="442.2" y2="328.2" stroke="#6e7681" stroke-width="0.9" opacity="0.18" />
  <line x1="485.3" y1="325.3" x2="453.9" y2="320.7" stroke="#6e7681" stroke-width="1.1" opacity="0.28" />
  <line x1="485.3" y1="325.3" x2="393.6" y2="321.4" stroke="#6e7681" stroke-width="0.9" opacity="0.18" />
  <line x1="485.3" y1="325.3" x2="414.3" y2="319.7" stroke="#6e7681" stroke-width="1.1" opacity="0.28" />
  <line x1="485.3" y1="325.3" x2="513.0" y2="320.6" stroke="#6e7681" stroke-width="1.5" opacity="0.55" />
  <line x1="485.3" y1="325.3" x2="468.3" y2="311.8" stroke="#6e7681" stroke-width="1.2" opacity="0.37" />
  <line x1="485.3" y1="325.3" x2="503.6" y2="338.5" stroke="#6e7681" stroke-width="1.5" opacity="0.55" />
  <line x1="485.3" y1="325.3" x2="450.5" y2="313.3" stroke="#6e7681" stroke-width="1.5" opacity="0.55" />
  <line x1="501.9" y1="331.3" x2="453.9" y2="320.7" stroke="#6e7681" stroke-width="1.0" opacity="0.22" />
  <line x1="501.9" y1="331.3" x2="414.3" y2="319.7" stroke="#6e7681" stroke-width="1.0" opacity="0.22" />
  <line x1="501.9" y1="331.3" x2="513.0" y2="320.6" stroke="#6e7681" stroke-width="1.2" opacity="0.37" />
  <line x1="501.9" y1="331.3" x2="468.3" y2="311.8" stroke="#6e7681" stroke-width="1.1" opacity="0.28" />
  <line x1="501.9" y1="331.3" x2="503.6" y2="338.5" stroke="#6e7681" stroke-width="1.2" opacity="0.37" />
  <line x1="501.9" y1="331.3" x2="450.5" y2="313.3" stroke="#6e7681" stroke-width="1.2" opacity="0.37" />
  <line x1="317.8" y1="337.9" x2="393.6" y2="321.4" stroke="#6e7681" stroke-width="0.9" opacity="0.18" />
  <line x1="317.8" y1="337.9" x2="372.5" y2="326.1" stroke="#6e7681" stroke-width="0.9" opacity="0.18" />
  <line x1="317.8" y1="337.9" x2="414.3" y2="319.7" stroke="#6e7681" stroke-width="1.0" opacity="0.22" />
  <line x1="317.8" y1="337.9" x2="348.2" y2="327.6" stroke="#6e7681" stroke-width="1.3" opacity="0.41" />
  <line x1="338.6" y1="309.8" x2="381.5" y2="316.1" stroke="#6e7681" stroke-width="1.1" opacity="0.31" />
  <line x1="338.6" y1="309.8" x2="393.6" y2="321.4" stroke="#6e7681" stroke-width="1.4" opacity="0.47" />
  <line x1="338.6" y1="309.8" x2="372.5" y2="326.1" stroke="#6e7681" stroke-width="0.9" opacity="0.19" />
  <line x1="338.6" y1="309.8" x2="414.3" y2="319.7" stroke="#6e7681" stroke-width="1.0" opacity="0.22" />
  <line x1="381.5" y1="316.1" x2="407.4" y2="333.6" stroke="#6e7681" stroke-width="1.1" opacity="0.29" />
  <line x1="381.5" y1="316.1" x2="442.2" y2="328.2" stroke="#6e7681" stroke-width="0.9" opacity="0.17" />
  <line x1="381.5" y1="316.1" x2="453.9" y2="320.7" stroke="#6e7681" stroke-width="0.9" opacity="0.20" />
  <line x1="381.5" y1="316.1" x2="393.6" y2="321.4" stroke="#6e7681" stroke-width="1.3" opacity="0.40" />
  <line x1="381.5" y1="316.1" x2="372.5" y2="326.1" stroke="#6e7681" stroke-width="1.0" opacity="0.24" />
  <line x1="381.5" y1="316.1" x2="414.3" y2="319.7" stroke="#6e7681" stroke-width="0.9" opacity="0.20" />
  <line x1="381.5" y1="316.1" x2="450.5" y2="313.3" stroke="#6e7681" stroke-width="1.0" opacity="0.24" />
  <line x1="407.4" y1="333.6" x2="453.9" y2="320.7" stroke="#6e7681" stroke-width="0.9" opacity="0.18" />
  <line x1="407.4" y1="333.6" x2="372.5" y2="326.1" stroke="#6e7681" stroke-width="1.0" opacity="0.23" />
  <line x1="407.4" y1="333.6" x2="414.3" y2="319.7" stroke="#6e7681" stroke-width="0.9" opacity="0.18" />
  <line x1="407.4" y1="333.6" x2="432.6" y2="341.8" stroke="#6e7681" stroke-width="1.0" opacity="0.24" />
  <line x1="407.4" y1="333.6" x2="450.5" y2="313.3" stroke="#6e7681" stroke-width="1.0" opacity="0.22" />
  <line x1="442.2" y1="328.2" x2="453.9" y2="320.7" stroke="#6e7681" stroke-width="1.1" opacity="0.28" />
  <line x1="442.2" y1="328.2" x2="393.6" y2="321.4" stroke="#6e7681" stroke-width="1.0" opacity="0.22" />
  <line x1="442.2" y1="328.2" x2="414.3" y2="319.7" stroke="#6e7681" stroke-width="1.1" opacity="0.28" />
  <line x1="442.2" y1="328.2" x2="432.6" y2="341.8" stroke="#6e7681" stroke-width="0.9" opacity="0.20" />
  <line x1="442.2" y1="328.2" x2="450.5" y2="313.3" stroke="#6e7681" stroke-width="1.2" opacity="0.37" />
  <line x1="453.9" y1="320.7" x2="393.6" y2="321.4" stroke="#6e7681" stroke-width="1.1" opacity="0.28" />
  <line x1="453.9" y1="320.7" x2="414.3" y2="319.7" stroke="#6e7681" stroke-width="1.2" opacity="0.37" />
  <line x1="453.9" y1="320.7" x2="513.0" y2="320.6" stroke="#6e7681" stroke-width="1.0" opacity="0.22" />
  <line x1="453.9" y1="320.7" x2="432.6" y2="341.8" stroke="#6e7681" stroke-width="1.0" opacity="0.24" />
  <line x1="453.9" y1="320.7" x2="468.3" y2="311.8" stroke="#6e7681" stroke-width="0.9" opacity="0.18" />
  <line x1="453.9" y1="320.7" x2="503.6" y2="338.5" stroke="#6e7681" stroke-width="1.0" opacity="0.22" />
  <line x1="453.9" y1="320.7" x2="450.5" y2="313.3" stroke="#6e7681" stroke-width="1.5" opacity="0.55" />
  <line x1="393.6" y1="321.4" x2="372.5" y2="326.1" stroke="#6e7681" stroke-width="1.1" opacity="0.29" />
  <line x1="393.6" y1="321.4" x2="414.3" y2="319.7" stroke="#6e7681" stroke-width="1.4" opacity="0.47" />
  <line x1="393.6" y1="321.4" x2="432.6" y2="341.8" stroke="#6e7681" stroke-width="0.9" opacity="0.20" />
  <line x1="393.6" y1="321.4" x2="348.2" y2="327.6" stroke="#6e7681" stroke-width="1.1" opacity="0.31" />
  <line x1="393.6" y1="321.4" x2="468.3" y2="311.8" stroke="#6e7681" stroke-width="1.1" opacity="0.31" />
  <line x1="393.6" y1="321.4" x2="450.5" y2="313.3" stroke="#6e7681" stroke-width="1.2" opacity="0.37" />
  <line x1="372.5" y1="326.1" x2="414.3" y2="319.7" stroke="#6e7681" stroke-width="1.2" opacity="0.34" />
  <line x1="372.5" y1="326.1" x2="348.2" y2="327.6" stroke="#6e7681" stroke-width="1.0" opacity="0.25" />
  <line x1="372.5" y1="326.1" x2="468.3" y2="311.8" stroke="#6e7681" stroke-width="1.0" opacity="0.25" />
  <line x1="372.5" y1="326.1" x2="450.5" y2="313.3" stroke="#6e7681" stroke-width="0.9" opacity="0.17" />
  <line x1="414.3" y1="319.7" x2="513.0" y2="320.6" stroke="#6e7681" stroke-width="1.0" opacity="0.22" />
  <line x1="414.3" y1="319.7" x2="432.6" y2="341.8" stroke="#6e7681" stroke-width="1.0" opacity="0.24" />
  <line x1="414.3" y1="319.7" x2="348.2" y2="327.6" stroke="#6e7681" stroke-width="1.3" opacity="0.44" />
  <line x1="414.3" y1="319.7" x2="468.3" y2="311.8" stroke="#6e7681" stroke-width="1.3" opacity="0.44" />
  <line x1="414.3" y1="319.7" x2="503.6" y2="338.5" stroke="#6e7681" stroke-width="1.0" opacity="0.22" />
  <line x1="414.3" y1="319.7" x2="450.5" y2="313.3" stroke="#6e7681" stroke-width="1.5" opacity="0.55" />
  <line x1="817.4" y1="101.3" x2="841.3" y2="117.7" stroke="#6e7681" stroke-width="1.0" opacity="0.22" />
  <line x1="592.9" y1="307.1" x2="450.5" y2="313.3" stroke="#6e7681" stroke-width="1.0" opacity="0.22" />
  <line x1="513.0" y1="320.6" x2="468.3" y2="311.8" stroke="#6e7681" stroke-width="1.1" opacity="0.28" />
  <line x1="513.0" y1="320.6" x2="503.6" y2="338.5" stroke="#6e7681" stroke-width="1.2" opacity="0.37" />
  <line x1="513.0" y1="320.6" x2="450.5" y2="313.3" stroke="#6e7681" stroke-width="1.2" opacity="0.37" />
  <line x1="434.6" y1="451.8" x2="426.8" y2="462.7" stroke="#6e7681" stroke-width="1.5" opacity="0.55" />
  <line x1="434.6" y1="451.8" x2="456.1" y2="429.0" stroke="#6e7681" stroke-width="1.3" opacity="0.41" />
  <line x1="426.8" y1="462.7" x2="456.1" y2="429.0" stroke="#6e7681" stroke-width="1.0" opacity="0.24" />
  <line x1="432.6" y1="341.8" x2="450.5" y2="313.3" stroke="#6e7681" stroke-width="1.1" opacity="0.31" />
  <line x1="348.2" y1="327.6" x2="468.3" y2="311.8" stroke="#6e7681" stroke-width="1.0" opacity="0.22" />
  <line x1="468.3" y1="311.8" x2="518.0" y2="275.4" stroke="#6e7681" stroke-width="1.2" opacity="0.37" />
  <line x1="468.3" y1="311.8" x2="575.4" y2="271.5" stroke="#6e7681" stroke-width="0.9" opacity="0.18" />
  <line x1="468.3" y1="311.8" x2="503.6" y2="338.5" stroke="#6e7681" stroke-width="1.1" opacity="0.28" />
  <line x1="468.3" y1="311.8" x2="450.5" y2="313.3" stroke="#6e7681" stroke-width="1.1" opacity="0.28" />
  <line x1="518.0" y1="275.4" x2="575.4" y2="271.5" stroke="#6e7681" stroke-width="1.1" opacity="0.28" />
  <line x1="503.6" y1="338.5" x2="553.3" y2="367.4" stroke="#6e7681" stroke-width="1.1" opacity="0.31" />
  <line x1="503.6" y1="338.5" x2="450.5" y2="313.3" stroke="#6e7681" stroke-width="1.2" opacity="0.37" />
  <circle cx="392.4" cy="260.1" r="12.6" fill="#3498db" opacity="0.12" />
  <circle cx="392.4" cy="260.1" r="8.6" fill="#3498db" opacity="0.88" />
  <circle cx="379.8" cy="231.8" r="15.3" fill="#3498db" opacity="0.12" />
  <circle cx="379.8" cy="231.8" r="11.3" fill="#3498db" opacity="0.88" />
  <circle cx="301.7" cy="291.5" r="20" fill="#3498db" opacity="0.12" />
  <circle cx="301.7" cy="291.5" r="16" fill="#3498db" opacity="0.88" />
  <circle cx="360.7" cy="254.1" r="20" fill="#7f8c8d" opacity="0.12" />
  <circle cx="360.7" cy="254.1" r="16" fill="#7f8c8d" opacity="0.88" />
  <circle cx="384.4" cy="286.1" r="19.8" fill="#7f8c8d" opacity="0.12" />
  <circle cx="384.4" cy="286.1" r="15.8" fill="#7f8c8d" opacity="0.88" />
  <circle cx="381.9" cy="223.3" r="13.5" fill="#7f8c8d" opacity="0.12" />
  <circle cx="381.9" cy="223.3" r="9.5" fill="#7f8c8d" opacity="0.88" />
  <circle cx="346.5" cy="270.9" r="18.9" fill="#3498db" opacity="0.12" />
  <circle cx="346.5" cy="270.9" r="14.9" fill="#3498db" opacity="0.88" />
  <circle cx="356.4" cy="299.3" r="20" fill="#7f8c8d" opacity="0.12" />
  <circle cx="356.4" cy="299.3" r="16" fill="#7f8c8d" opacity="0.88" />
  <circle cx="393.2" cy="294.0" r="16.2" fill="#e67e22" opacity="0.12" />
  <circle cx="393.2" cy="294.0" r="12.2" fill="#e67e22" opacity="0.88" />
  <circle cx="278.5" cy="309.3" r="20" fill="#e74c3c" opacity="0.12" />
  <circle cx="278.5" cy="309.3" r="16" fill="#e74c3c" opacity="0.88" />
  <circle cx="340.1" cy="345.1" r="20" fill="#9b59b6" opacity="0.12" />
  <circle cx="340.1" cy="345.1" r="16" fill="#9b59b6" opacity="0.88" />
  <circle cx="480.7" cy="296.4" r="17.1" fill="#e67e22" opacity="0.12" />
  <circle cx="480.7" cy="296.4" r="13.1" fill="#e67e22" opacity="0.88" />
  <circle cx="408.5" cy="296.9" r="18.0" fill="#3498db" opacity="0.12" />
  <circle cx="408.5" cy="296.9" r="14.0" fill="#3498db" opacity="0.88" />
  <circle cx="416.7" cy="290.2" r="16.2" fill="#3498db" opacity="0.12" />
  <circle cx="416.7" cy="290.2" r="12.2" fill="#3498db" opacity="0.88" />
  <circle cx="439.2" cy="289.1" r="18.0" fill="#3498db" opacity="0.12" />
  <circle cx="439.2" cy="289.1" r="14.0" fill="#3498db" opacity="0.88" />
  <circle cx="417.8" cy="268.3" r="12.6" fill="#2ecc71" opacity="0.12" />
  <circle cx="417.8" cy="268.3" r="8.6" fill="#2ecc71" opacity="0.88" />
  <circle cx="534.9" cy="384.4" r="14.4" fill="#e74c3c" opacity="0.12" />
  <circle cx="534.9" cy="384.4" r="10.4" fill="#e74c3c" opacity="0.88" />
  <circle cx="910.0" cy="422.5" r="16.2" fill="#3498db" opacity="0.12" />
  <circle cx="910.0" cy="422.5" r="12.2" fill="#3498db" opacity="0.88" />
  <circle cx="477.9" cy="355.8" r="14.4" fill="#e74c3c" opacity="0.12" />
  <circle cx="477.9" cy="355.8" r="10.4" fill="#e74c3c" opacity="0.88" />
  <circle cx="377.5" cy="59.2" r="16.2" fill="#3498db" opacity="0.12" />
  <circle cx="377.5" cy="59.2" r="12.2" fill="#3498db" opacity="0.88" />
  <circle cx="346.1" cy="63.5" r="15.3" fill="#3498db" opacity="0.12" />
  <circle cx="346.1" cy="63.5" r="11.3" fill="#3498db" opacity="0.88" />
  <circle cx="143.8" cy="344.2" r="9.9" fill="#3498db" opacity="0.12" />
  <circle cx="143.8" cy="344.2" r="5.9" fill="#3498db" opacity="0.88" />
  <circle cx="377.9" cy="338.8" r="16.2" fill="#9b59b6" opacity="0.12" />
  <circle cx="377.9" cy="338.8" r="12.2" fill="#9b59b6" opacity="0.88" />
  <circle cx="351.8" cy="319.2" r="19.8" fill="#9b59b6" opacity="0.12" />
  <circle cx="351.8" cy="319.2" r="15.8" fill="#9b59b6" opacity="0.88" />
  <circle cx="313.0" cy="323.4" r="12.6" fill="#9b59b6" opacity="0.12" />
  <circle cx="313.0" cy="323.4" r="8.6" fill="#9b59b6" opacity="0.88" />
  <circle cx="485.3" cy="325.3" r="9" fill="#2ecc71" opacity="0.12" />
  <circle cx="485.3" cy="325.3" r="5" fill="#2ecc71" opacity="0.88" />
  <circle cx="501.9" cy="331.3" r="9.9" fill="#7f8c8d" opacity="0.12" />
  <circle cx="501.9" cy="331.3" r="5.9" fill="#7f8c8d" opacity="0.88" />
  <circle cx="317.8" cy="337.9" r="15.3" fill="#e67e22" opacity="0.12" />
  <circle cx="317.8" cy="337.9" r="11.3" fill="#e67e22" opacity="0.88" />
  <circle cx="338.6" cy="309.8" r="20" fill="#2ecc71" opacity="0.12" />
  <circle cx="338.6" cy="309.8" r="16" fill="#2ecc71" opacity="0.88" />
  <circle cx="50.0" cy="356.2" r="10.8" fill="#9b59b6" opacity="0.12" />
  <circle cx="50.0" cy="356.2" r="6.8" fill="#9b59b6" opacity="0.88" />
  <circle cx="263.1" cy="50.0" r="9" fill="#7f8c8d" opacity="0.12" />
  <circle cx="263.1" cy="50.0" r="5" fill="#7f8c8d" opacity="0.88" />
  <circle cx="381.5" cy="316.1" r="16.2" fill="#3498db" opacity="0.12" />
  <circle cx="381.5" cy="316.1" r="12.2" fill="#3498db" opacity="0.88" />
  <circle cx="407.4" cy="333.6" r="17.1" fill="#7f8c8d" opacity="0.12" />
  <circle cx="407.4" cy="333.6" r="13.1" fill="#7f8c8d" opacity="0.88" />
  <circle cx="442.2" cy="328.2" r="13.5" fill="#7f8c8d" opacity="0.12" />
  <circle cx="442.2" cy="328.2" r="9.5" fill="#7f8c8d" opacity="0.88" />
  <circle cx="277.7" cy="500.0" r="9" fill="#7f8c8d" opacity="0.12" />
  <circle cx="277.7" cy="500.0" r="5" fill="#7f8c8d" opacity="0.88" />
  <circle cx="453.9" cy="320.7" r="11.7" fill="#7f8c8d" opacity="0.12" />
  <circle cx="453.9" cy="320.7" r="7.7" fill="#7f8c8d" opacity="0.88" />
  <circle cx="393.6" cy="321.4" r="13.5" fill="#7f8c8d" opacity="0.12" />
  <circle cx="393.6" cy="321.4" r="9.5" fill="#7f8c8d" opacity="0.88" />
  <circle cx="372.5" cy="326.1" r="19.8" fill="#2ecc71" opacity="0.12" />
  <circle cx="372.5" cy="326.1" r="15.8" fill="#2ecc71" opacity="0.88" />
  <circle cx="414.3" cy="319.7" r="11.7" fill="#7f8c8d" opacity="0.12" />
  <circle cx="414.3" cy="319.7" r="7.7" fill="#7f8c8d" opacity="0.88" />
  <circle cx="817.4" cy="101.3" r="11.7" fill="#7f8c8d" opacity="0.12" />
  <circle cx="817.4" cy="101.3" r="7.7" fill="#7f8c8d" opacity="0.88" />
  <circle cx="592.9" cy="307.1" r="11.7" fill="#3498db" opacity="0.12" />
  <circle cx="592.9" cy="307.1" r="7.7" fill="#3498db" opacity="0.88" />
  <circle cx="513.0" cy="320.6" r="9.9" fill="#7f8c8d" opacity="0.12" />
  <circle cx="513.0" cy="320.6" r="5.9" fill="#7f8c8d" opacity="0.88" />
  <circle cx="434.6" cy="451.8" r="10.8" fill="#e67e22" opacity="0.12" />
  <circle cx="434.6" cy="451.8" r="6.8" fill="#e67e22" opacity="0.88" />
  <circle cx="426.8" cy="462.7" r="10.8" fill="#e67e22" opacity="0.12" />
  <circle cx="426.8" cy="462.7" r="6.8" fill="#e67e22" opacity="0.88" />
  <circle cx="432.6" cy="341.8" r="14.4" fill="#7f8c8d" opacity="0.12" />
  <circle cx="432.6" cy="341.8" r="10.4" fill="#7f8c8d" opacity="0.88" />
  <circle cx="456.1" cy="429.0" r="15.3" fill="#e67e22" opacity="0.12" />
  <circle cx="456.1" cy="429.0" r="11.3" fill="#e67e22" opacity="0.88" />
  <circle cx="841.3" cy="117.7" r="9.9" fill="#7f8c8d" opacity="0.12" />
  <circle cx="841.3" cy="117.7" r="5.9" fill="#7f8c8d" opacity="0.88" />
  <circle cx="348.2" cy="327.6" r="10.8" fill="#7f8c8d" opacity="0.12" />
  <circle cx="348.2" cy="327.6" r="6.8" fill="#7f8c8d" opacity="0.88" />
  <circle cx="468.3" cy="311.8" r="10.8" fill="#7f8c8d" opacity="0.12" />
  <circle cx="468.3" cy="311.8" r="6.8" fill="#7f8c8d" opacity="0.88" />
  <circle cx="518.0" cy="275.4" r="9" fill="#2ecc71" opacity="0.12" />
  <circle cx="518.0" cy="275.4" r="5" fill="#2ecc71" opacity="0.88" />
  <circle cx="575.4" cy="271.5" r="11.7" fill="#2ecc71" opacity="0.12" />
  <circle cx="575.4" cy="271.5" r="7.7" fill="#2ecc71" opacity="0.88" />
  <circle cx="503.6" cy="338.5" r="9.9" fill="#e74c3c" opacity="0.12" />
  <circle cx="503.6" cy="338.5" r="5.9" fill="#e74c3c" opacity="0.88" />
  <circle cx="553.3" cy="367.4" r="14.4" fill="#e74c3c" opacity="0.12" />
  <circle cx="553.3" cy="367.4" r="10.4" fill="#e74c3c" opacity="0.88" />
  <circle cx="450.5" cy="313.3" r="9.9" fill="#7f8c8d" opacity="0.12" />
  <circle cx="450.5" cy="313.3" r="5.9" fill="#7f8c8d" opacity="0.88" />
  <circle cx="85.0" cy="83.1" r="9" fill="#7f8c8d" opacity="0.12" />
  <circle cx="85.0" cy="83.1" r="5" fill="#7f8c8d" opacity="0.88" />
  <rect x="403.0" y="182.1" width="16.4" height="15" fill="#0d1117" opacity="0.75" rx="2" />
  <text x="404.0" y="193.1" font-family="system-ui, -apple-system, sans-serif" font-size="12" fill="#e6edf3" text-anchor="start">pp</text>
  <rect x="393.1" y="166.9" width="117.2" height="15" fill="#0d1117" opacity="0.75" rx="2" />
  <text x="394.1" y="177.9" font-family="system-ui, -apple-system, sans-serif" font-size="12" fill="#e6edf3" text-anchor="start">tinyland-cleanup</text>
  <rect x="319.7" y="232.2" width="117.2" height="15" fill="#0d1117" opacity="0.75" rx="2" />
  <text x="320.7" y="243.2" font-family="system-ui, -apple-system, sans-serif" font-size="12" fill="#e6edf3" text-anchor="start">GloriousFlywheel</text>
  <rect x="378.7" y="261.7" width="74.0" height="15" fill="#0d1117" opacity="0.75" rx="2" />
  <text x="379.7" y="272.7" font-family="system-ui, -apple-system, sans-serif" font-size="12" fill="#e6edf3" text-anchor="start">tummycrypt</text>
  <rect x="402.2" y="269.4" width="124.4" height="15" fill="#0d1117" opacity="0.75" rx="2" />
  <text x="403.2" y="280.4" font-family="system-ui, -apple-system, sans-serif" font-size="12" fill="#e6edf3" text-anchor="start">tinyland-huskycat</text>
  <rect x="393.4" y="151.8" width="88.4" height="15" fill="#0d1117" opacity="0.75" rx="2" />
  <text x="394.4" y="162.8" font-family="system-ui, -apple-system, sans-serif" font-size="12" fill="#e6edf3" text-anchor="start">waifu-mirror</text>
  <rect x="363.4" y="385.4" width="102.8" height="15" fill="#0d1117" opacity="0.75" rx="2" />
  <text x="364.4" y="396.4" font-family="system-ui, -apple-system, sans-serif" font-size="12" fill="#e6edf3" text-anchor="start">tinyland-infra</text>
  <rect x="374.4" y="372.8" width="52.4" height="15" fill="#0d1117" opacity="0.75" rx="2" />
  <text x="375.4" y="383.8" font-family="system-ui, -apple-system, sans-serif" font-size="12" fill="#e6edf3" text-anchor="start">LA-Mesh</text>
  <rect x="407.4" y="197.0" width="45.2" height="15" fill="#0d1117" opacity="0.75" rx="2" />
  <text x="408.4" y="208.0" font-family="system-ui, -apple-system, sans-serif" font-size="12" fill="#e6edf3" text-anchor="start">XoxdWM</text>
  <rect x="296.5" y="314.4" width="131.6" height="15" fill="#0d1117" opacity="0.75" rx="2" />
  <text x="297.5" y="325.4" font-family="system-ui, -apple-system, sans-serif" font-size="12" fill="#e6edf3" text-anchor="start">pixelwise-research</text>
  <rect x="358.1" y="430.3" width="95.6" height="15" fill="#0d1117" opacity="0.75" rx="2" />
  <text x="359.1" y="441.3" font-family="system-ui, -apple-system, sans-serif" font-size="12" fill="#e6edf3" text-anchor="start">GIS_Shortcuts</text>
  <rect x="495.8" y="304.4" width="110.0" height="15" fill="#0d1117" opacity="0.75" rx="2" />
  <text x="496.8" y="315.4" font-family="system-ui, -apple-system, sans-serif" font-size="12" fill="#e6edf3" text-anchor="start">hiberpower-ntfs</text>
  <rect x="424.5" y="223.2" width="138.8" height="15" fill="#0d1117" opacity="0.75" rx="2" />
  <text x="425.5" y="234.2" font-family="system-ui, -apple-system, sans-serif" font-size="12" fill="#e6edf3" text-anchor="start">Ansible-DAG-Harness</text>
  <rect x="430.9" y="309.3" width="66.8" height="15" fill="#0d1117" opacity="0.75" rx="2" />
  <text x="431.9" y="320.3" font-family="system-ui, -apple-system, sans-serif" font-size="12" fill="#e6edf3" text-anchor="start">betterkvm</text>
  <rect x="455.2" y="195.6" width="95.6" height="15" fill="#0d1117" opacity="0.75" rx="2" />
  <text x="456.2" y="206.6" font-family="system-ui, -apple-system, sans-serif" font-size="12" fill="#e6edf3" text-anchor="start">DarwinNicUtil</text>
  <rect x="428.4" y="179.5" width="59.6" height="15" fill="#0d1117" opacity="0.75" rx="2" />
  <text x="429.4" y="190.5" font-family="system-ui, -apple-system, sans-serif" font-size="12" fill="#e6edf3" text-anchor="start">gnucashr</text>
  <rect x="547.3" y="426.5" width="66.8" height="15" fill="#0d1117" opacity="0.75" rx="2" />
  <text x="548.3" y="437.5" font-family="system-ui, -apple-system, sans-serif" font-size="12" fill="#e6edf3" text-anchor="start">quickchpl</text>
  <rect x="764.2" y="415.7" width="131.6" height="15" fill="#0d1117" opacity="0.75" rx="2" />
  <text x="894.8" y="426.7" font-family="system-ui, -apple-system, sans-serif" font-size="12" fill="#e6edf3" text-anchor="end">tinyscale-mikrotik</text>
  <rect x="490.3" y="409.6" width="59.6" height="15" fill="#0d1117" opacity="0.75" rx="2" />
  <text x="491.3" y="420.6" font-family="system-ui, -apple-system, sans-serif" font-size="12" fill="#e6edf3" text-anchor="start">aoc-2025</text>
  <rect x="391.7" y="46.1" width="66.8" height="15" fill="#0d1117" opacity="0.75" rx="2" />
  <text x="392.7" y="57.1" font-family="system-ui, -apple-system, sans-serif" font-size="12" fill="#e6edf3" text-anchor="start">searchies</text>
  <rect x="359.4" y="63.1" width="59.6" height="15" fill="#0d1117" opacity="0.75" rx="2" />
  <text x="360.4" y="74.1" font-family="system-ui, -apple-system, sans-serif" font-size="12" fill="#e6edf3" text-anchor="start">ts-caddy</text>
  <rect x="151.7" y="334.9" width="66.8" height="15" fill="#0d1117" opacity="0.75" rx="2" />
  <text x="152.7" y="345.9" font-family="system-ui, -apple-system, sans-serif" font-size="12" fill="#e6edf3" text-anchor="start">HCI-notes</text>
  <rect x="392.1" y="417.5" width="88.4" height="15" fill="#0d1117" opacity="0.75" rx="2" />
  <text x="393.1" y="428.5" font-family="system-ui, -apple-system, sans-serif" font-size="12" fill="#e6edf3" text-anchor="start">FastPhotoAPI</text>
  <rect x="369.6" y="244.7" width="81.2" height="15" fill="#0d1117" opacity="0.75" rx="2" />
  <text x="370.6" y="255.7" font-family="system-ui, -apple-system, sans-serif" font-size="12" fill="#e6edf3" text-anchor="start">timberbuddy</text>
  <rect x="323.6" y="400.5" width="81.2" height="15" fill="#0d1117" opacity="0.75" rx="2" />
  <text x="324.6" y="411.5" font-family="system-ui, -apple-system, sans-serif" font-size="12" fill="#e6edf3" text-anchor="start">tetrahedron</text>
  <rect x="492.3" y="339.3" width="95.6" height="15" fill="#0d1117" opacity="0.75" rx="2" />
  <text x="493.3" y="350.3" font-family="system-ui, -apple-system, sans-serif" font-size="12" fill="#e6edf3" text-anchor="start">AccuWixReport</text>
  <rect x="509.8" y="397.9" width="95.6" height="15" fill="#0d1117" opacity="0.75" rx="2" />
  <text x="510.8" y="408.9" font-family="system-ui, -apple-system, sans-serif" font-size="12" fill="#e6edf3" text-anchor="start">Jess-AOC-2023</text>
  <rect x="331.1" y="345.1" width="81.2" height="15" fill="#0d1117" opacity="0.75" rx="2" />
  <text x="332.1" y="356.1" font-family="system-ui, -apple-system, sans-serif" font-size="12" fill="#e6edf3" text-anchor="start">TurkeyProbe</text>
  <rect x="356.6" y="276.0" width="153.2" height="15" fill="#0d1117" opacity="0.75" rx="2" />
  <text x="357.6" y="287.0" font-family="system-ui, -apple-system, sans-serif" font-size="12" fill="#e6edf3" text-anchor="start">MerlinAI-Interpreters</text>
  <rect x="58.8" y="351.9" width="110.0" height="15" fill="#0d1117" opacity="0.75" rx="2" />
  <text x="59.8" y="362.9" font-family="system-ui, -apple-system, sans-serif" font-size="12" fill="#e6edf3" text-anchor="start">IntroTypeScript</text>
  <rect x="270.1" y="43.2" width="110.0" height="15" fill="#0d1117" opacity="0.75" rx="2" />
  <text x="271.1" y="54.2" font-family="system-ui, -apple-system, sans-serif" font-size="12" fill="#e6edf3" text-anchor="start">IG-3DP-Profiles</text>
  <rect x="395.7" y="304.3" width="66.8" height="15" fill="#0d1117" opacity="0.75" rx="2" />
  <text x="396.7" y="315.3" font-family="system-ui, -apple-system, sans-serif" font-size="12" fill="#e6edf3" text-anchor="start">DLA-Flask</text>
  <rect x="422.5" y="401.4" width="38.0" height="15" fill="#0d1117" opacity="0.75" rx="2" />
  <text x="423.5" y="412.4" font-family="system-ui, -apple-system, sans-serif" font-size="12" fill="#e6edf3" text-anchor="start">USBoN</text>
  <rect x="453.7" y="322.3" width="203.6" height="15" fill="#0d1117" opacity="0.75" rx="2" />
  <text x="454.7" y="333.3" font-family="system-ui, -apple-system, sans-serif" font-size="12" fill="#e6edf3" text-anchor="start">chrome-remote-desktop-budgie</text>
  <rect x="284.7" y="493.2" width="124.4" height="15" fill="#0d1117" opacity="0.75" rx="2" />
  <text x="285.7" y="504.2" font-family="system-ui, -apple-system, sans-serif" font-size="12" fill="#e6edf3" text-anchor="start">OminousBeepingApp</text>
  <rect x="463.6" y="354.7" width="138.8" height="15" fill="#0d1117" opacity="0.75" rx="2" />
  <text x="464.6" y="365.7" font-family="system-ui, -apple-system, sans-serif" font-size="12" fill="#e6edf3" text-anchor="start">mo-image-identifier</text>
  <rect x="405.1" y="212.6" width="196.4" height="15" fill="#0d1117" opacity="0.75" rx="2" />
  <text x="406.1" y="223.6" font-family="system-ui, -apple-system, sans-serif" font-size="12" fill="#e6edf3" text-anchor="start">squirrel-leaflet-annotation</text>
  <rect x="390.3" y="358.9" width="74.0" height="15" fill="#0d1117" opacity="0.75" rx="2" />
  <text x="391.3" y="369.9" font-family="system-ui, -apple-system, sans-serif" font-size="12" fill="#e6edf3" text-anchor="start">Shiny-Apps</text>
  <rect x="424.0" y="287.3" width="138.8" height="15" fill="#0d1117" opacity="0.75" rx="2" />
  <text x="425.0" y="298.3" font-family="system-ui, -apple-system, sans-serif" font-size="12" fill="#e6edf3" text-anchor="start">bbox-jest-puppeteer</text>
  <rect x="719.3" y="94.5" width="88.4" height="15" fill="#0d1117" opacity="0.75" rx="2" />
  <text x="806.7" y="105.5" font-family="system-ui, -apple-system, sans-serif" font-size="12" fill="#e6edf3" text-anchor="end">DoverDisplay</text>
  <rect x="602.6" y="273.3" width="81.2" height="15" fill="#0d1117" opacity="0.75" rx="2" />
  <text x="603.6" y="284.3" font-family="system-ui, -apple-system, sans-serif" font-size="12" fill="#e6edf3" text-anchor="start">LeafletSync</text>
  <rect x="520.9" y="366.9" width="167.6" height="15" fill="#0d1117" opacity="0.75" rx="2" />
  <text x="521.9" y="377.9" font-family="system-ui, -apple-system, sans-serif" font-size="12" fill="#e6edf3" text-anchor="start">misc-roi-distance-notes</text>
  <rect x="443.4" y="455.9" width="138.8" height="15" fill="#0d1117" opacity="0.75" rx="2" />
  <text x="444.4" y="466.9" font-family="system-ui, -apple-system, sans-serif" font-size="12" fill="#e6edf3" text-anchor="start">Arduino_Coil_Winder</text>
  <rect x="435.6" y="470.6" width="30.8" height="15" fill="#0d1117" opacity="0.75" rx="2" />
  <text x="436.6" y="481.6" font-family="system-ui, -apple-system, sans-serif" font-size="12" fill="#e6edf3" text-anchor="start">momo</text>
  <rect x="445.0" y="337.7" width="38.0" height="15" fill="#0d1117" opacity="0.75" rx="2" />
  <text x="446.0" y="348.7" font-family="system-ui, -apple-system, sans-serif" font-size="12" fill="#e6edf3" text-anchor="start">clipi</text>
  <rect x="469.4" y="441.1" width="110.0" height="15" fill="#0d1117" opacity="0.75" rx="2" />
  <text x="470.4" y="452.1" font-family="system-ui, -apple-system, sans-serif" font-size="12" fill="#e6edf3" text-anchor="start">AeroTaz5_hotfix</text>
  <rect x="723.4" y="110.9" width="110.0" height="15" fill="#0d1117" opacity="0.75" rx="2" />
  <text x="832.4" y="121.9" font-family="system-ui, -apple-system, sans-serif" font-size="12" fill="#e6edf3" text-anchor="end">Funmat-HT-Notes</text>
  <rect x="357.0" y="328.1" width="81.2" height="15" fill="#0d1117" opacity="0.75" rx="2" />
  <text x="358.0" y="339.1" font-family="system-ui, -apple-system, sans-serif" font-size="12" fill="#e6edf3" text-anchor="start">static-site</text>
  <rect x="477.1" y="254.8" width="95.6" height="15" fill="#0d1117" opacity="0.75" rx="2" />
  <text x="478.1" y="265.8" font-family="system-ui, -apple-system, sans-serif" font-size="12" fill="#e6edf3" text-anchor="start">Flask-Manager</text>
  <rect x="525.0" y="178.6" width="110.0" height="15" fill="#0d1117" opacity="0.75" rx="2" />
  <text x="526.0" y="189.6" font-family="system-ui, -apple-system, sans-serif" font-size="12" fill="#e6edf3" text-anchor="start">FieldProcessing</text>
  <rect x="585.1" y="195.6" width="81.2" height="15" fill="#0d1117" opacity="0.75" rx="2" />
  <text x="586.1" y="206.6" font-family="system-ui, -apple-system, sans-serif" font-size="12" fill="#e6edf3" text-anchor="start">rJDKmanager</text>
  <rect x="511.5" y="383.9" width="59.6" height="15" fill="#0d1117" opacity="0.75" rx="2" />
  <text x="512.5" y="394.9" font-family="system-ui, -apple-system, sans-serif" font-size="12" fill="#e6edf3" text-anchor="start">tagnotes</text>
  <rect x="565.7" y="412.0" width="81.2" height="15" fill="#0d1117" opacity="0.75" rx="2" />
  <text x="566.7" y="423.0" font-family="system-ui, -apple-system, sans-serif" font-size="12" fill="#e6edf3" text-anchor="start">ChapelTests</text>
  <rect x="458.4" y="237.8" width="88.4" height="15" fill="#0d1117" opacity="0.75" rx="2" />
  <text x="459.4" y="248.8" font-family="system-ui, -apple-system, sans-serif" font-size="12" fill="#e6edf3" text-anchor="start">Xfinity-WiFi</text>
  <rect x="92.0" y="76.3" width="66.8" height="15" fill="#0d1117" opacity="0.75" rx="2" />
  <text x="93.0" y="87.3" font-family="system-ui, -apple-system, sans-serif" font-size="12" fill="#e6edf3" text-anchor="start">home-wiki</text>
  <rect x="793" y="36" width="155" height="120" rx="6" fill="#161b22" stroke="#30363d" stroke-width="1" opacity="0.95" />
  <circle cx="810" cy="52" r="5" fill="#e74c3c" opacity="0.88" />
  <text x="820" y="56" font-family="system-ui, -apple-system, sans-serif" font-size="10" fill="#e6edf3">Languages &amp; Compilers</text>
  <circle cx="810" cy="69" r="5" fill="#3498db" opacity="0.88" />
  <text x="820" y="73" font-family="system-ui, -apple-system, sans-serif" font-size="10" fill="#e6edf3">Infrastructure &amp; DevOps</text>
  <circle cx="810" cy="86" r="5" fill="#e67e22" opacity="0.88" />
  <text x="820" y="90" font-family="system-ui, -apple-system, sans-serif" font-size="10" fill="#e6edf3">Hardware &amp; Maker</text>
  <circle cx="810" cy="103" r="5" fill="#2ecc71" opacity="0.88" />
  <text x="820" y="107" font-family="system-ui, -apple-system, sans-serif" font-size="10" fill="#e6edf3">ML &amp; Data</text>
  <circle cx="810" cy="120" r="5" fill="#9b59b6" opacity="0.88" />
  <text x="820" y="124" font-family="system-ui, -apple-system, sans-serif" font-size="10" fill="#e6edf3">Web &amp; Apps</text>
  <circle cx="810" cy="137" r="5" fill="#7f8c8d" opacity="0.88" />
  <text x="820" y="141" font-family="system-ui, -apple-system, sans-serif" font-size="10" fill="#e6edf3">Other</text>
  <text x="870" y="150" font-family="system-ui, -apple-system, sans-serif" font-size="8" fill="#8b949e" text-anchor="middle">55 repos · 214 edges</text>
</svg>