<svg xmlns="http://www.w3.org/2000/svg" width="960" height="600" viewBox="0 0 960 600">
  <rect width="960" height="600" fill="#ffffff" rx="8" />
  <text x="480" y="24" font-family="system-ui, -apple-system, sans-serif" font-size="13" fill="#656d76" text-anchor="middle" font-weight="500">Repo Relationship Graph &#x2014; Pairwise Topic &amp; Language Similarity</text>
  <line x1="50" y1="550" x2="910" y2="550" stroke="#d0d7de" stroke-width="0.5" opacity="0.5" />
  <text x="50" y="570" font-family="system-ui, -apple-system, sans-serif" font-size="9" fill="#656d76" opacity="0.6">Updated daily by GitHub Actions</text>
  <text x="50" y="588" font-family="system-ui, -apple-system, sans-serif" font-size="9" fill="#656d76" opacity="0.6">networkx spring_layout · Jaccard similarity &gt; 0.15</text>
  <text x="910" y="570" font-family="system-ui, -apple-system, sans-serif" font-size="9" fill="#656d76" text-anchor="end" opacity="0.6">57 repos · 238 edges</text>
  <line x1="419.9" y1="281.4" x2="341.4" y2="294.1" stroke="#bcc3cd" stroke-width="1.1" opacity="0.28" />
  <line x1="419.9" y1="281.4" x2="418.1" y2="309.9" stroke="#bcc3cd" stroke-width="1.0" opacity="0.22" />
  <line x1="419.9" y1="281.4" x2="425.4" y2="301.0" stroke="#bcc3cd" stroke-width="1.0" opacity="0.25" />
  <line x1="419.9" y1="281.4" x2="485.7" y2="302.4" stroke="#bcc3cd" stroke-width="0.9" opacity="0.21" />
  <line x1="419.9" y1="281.4" x2="476.2" y2="285.1" stroke="#bcc3cd" stroke-width="0.9" opacity="0.20" />
  <line x1="419.9" y1="281.4" x2="458.8" y2="290.6" stroke="#bcc3cd" stroke-width="1.0" opacity="0.24" />
  <line x1="419.9" y1="281.4" x2="387.7" y2="274.3" stroke="#bcc3cd" stroke-width="2.0" opacity="0.80" />
  <line x1="419.9" y1="281.4" x2="475.2" y2="255.3" stroke="#bcc3cd" stroke-width="1.0" opacity="0.22" />
  <line x1="419.9" y1="281.4" x2="481.2" y2="275.2" stroke="#bcc3cd" stroke-width="0.9" opacity="0.17" />
  <line x1="419.9" y1="281.4" x2="463.6" y2="279.0" stroke="#bcc3cd" stroke-width="0.9" opacity="0.20" />
  <line x1="419.9" y1="281.4" x2="453.9" y2="270.1" stroke="#bcc3cd" stroke-width="0.9" opacity="0.17" />
  <line x1="419.9" y1="281.4" x2="429.3" y2="266.8" stroke="#bcc3cd" stroke-width="1.5" opacity="0.55" />
  <line x1="419.9" y1="281.4" x2="501.6" y2="259.7" stroke="#bcc3cd" stroke-width="1.0" opacity="0.22" />
  <line x1="341.4" y1="294.1" x2="387.7" y2="274.3" stroke="#bcc3cd" stroke-width="1.1" opacity="0.31" />
  <line x1="418.1" y1="309.9" x2="485.7" y2="302.4" stroke="#bcc3cd" stroke-width="0.9" opacity="0.18" />
  <line x1="418.1" y1="309.9" x2="476.2" y2="285.1" stroke="#bcc3cd" stroke-width="1.0" opacity="0.23" />
  <line x1="418.1" y1="309.9" x2="458.8" y2="290.6" stroke="#bcc3cd" stroke-width="0.9" opacity="0.20" />
  <line x1="418.1" y1="309.9" x2="463.6" y2="279.0" stroke="#bcc3cd" stroke-width="0.9" opacity="0.18" />
  <line x1="595.3" y1="355.2" x2="602.7" y2="373.4" stroke="#bcc3cd" stroke-width="1.5" opacity="0.55" />
  <line x1="595.3" y1="355.2" x2="541.6" y2="320.2" stroke="#bcc3cd" stroke-width="1.0" opacity="0.22" />
  <line x1="595.3" y1="355.2" x2="636.2" y2="388.1" stroke="#bcc3cd" stroke-width="1.2" opacity="0.37" />
  <line x1="595.3" y1="355.2" x2="533.2" y2="288.4" stroke="#bcc3cd" stroke-width="0.9" opacity="0.18" />
  <line x1="425.4" y1="301.0" x2="470.6" y2="325.4" stroke="#bcc3cd" stroke-width="1.2" opacity="0.38" />
  <line x1="425.4" y1="301.0" x2="485.7" y2="302.4" stroke="#bcc3cd" stroke-width="0.9" opacity="0.19" />
  <line x1="425.4" y1="301.0" x2="476.2" y2="285.1" stroke="#bcc3cd" stroke-width="0.9" opacity="0.18" />
  <line x1="425.4" y1="301.0" x2="458.8" y2="290.6" stroke="#bcc3cd" stroke-width="0.9" opacity="0.21" />
  <line x1="425.4" y1="301.0" x2="387.7" y2="274.3" stroke="#bcc3cd" stroke-width="0.9" opacity="0.17" />
  <line x1="425.4" y1="301.0" x2="463.6" y2="279.0" stroke="#bcc3cd" stroke-width="0.9" opacity="0.18" />
  <line x1="425.4" y1="301.0" x2="429.3" y2="266.8" stroke="#bcc3cd" stroke-width="1.0" opacity="0.24" />
  <line x1="470.6" y1="325.4" x2="485.7" y2="302.4" stroke="#bcc3cd" stroke-width="1.2" opacity="0.34" />
  <line x1="470.6" y1="325.4" x2="476.2" y2="285.1" stroke="#bcc3cd" stroke-width="0.9" opacity="0.18" />
  <line x1="470.6" y1="325.4" x2="508.4" y2="336.4" stroke="#bcc3cd" stroke-width="1.0" opacity="0.25" />
  <line x1="470.6" y1="325.4" x2="527.0" y2="303.5" stroke="#bcc3cd" stroke-width="0.9" opacity="0.20" />
  <line x1="470.6" y1="325.4" x2="541.6" y2="320.2" stroke="#bcc3cd" stroke-width="1.0" opacity="0.22" />
  <line x1="485.7" y1="302.4" x2="476.2" y2="285.1" stroke="#bcc3cd" stroke-width="1.1" opacity="0.29" />
  <line x1="485.7" y1="302.4" x2="508.4" y2="336.4" stroke="#bcc3cd" stroke-width="1.2" opacity="0.34" />
  <line x1="485.7" y1="302.4" x2="458.8" y2="290.6" stroke="#bcc3cd" stroke-width="1.1" opacity="0.30" />
  <line x1="485.7" y1="302.4" x2="481.2" y2="275.2" stroke="#bcc3cd" stroke-width="0.9" opacity="0.20" />
  <line x1="485.7" y1="302.4" x2="463.6" y2="279.0" stroke="#bcc3cd" stroke-width="1.0" opacity="0.22" />
  <line x1="485.7" y1="302.4" x2="453.9" y2="270.1" stroke="#bcc3cd" stroke-width="0.9" opacity="0.20" />
  <line x1="485.7" y1="302.4" x2="429.3" y2="266.8" stroke="#bcc3cd" stroke-width="0.9" opacity="0.19" />
  <line x1="485.7" y1="302.4" x2="527.0" y2="303.5" stroke="#bcc3cd" stroke-width="1.2" opacity="0.37" />
  <line x1="485.7" y1="302.4" x2="541.6" y2="320.2" stroke="#bcc3cd" stroke-width="1.2" opacity="0.37" />
  <line x1="485.7" y1="302.4" x2="509.9" y2="311.6" stroke="#bcc3cd" stroke-width="1.1" opacity="0.29" />
  <line x1="485.7" y1="302.4" x2="519.4" y2="290.6" stroke="#bcc3cd" stroke-width="1.0" opacity="0.22" />
  <line x1="485.7" y1="302.4" x2="533.2" y2="288.4" stroke="#bcc3cd" stroke-width="1.2" opacity="0.34" />
  <line x1="485.7" y1="302.4" x2="544.4" y2="293.6" stroke="#bcc3cd" stroke-width="1.0" opacity="0.24" />
  <line x1="485.7" y1="302.4" x2="520.9" y2="275.9" stroke="#bcc3cd" stroke-width="1.1" opacity="0.29" />
  <line x1="485.7" y1="302.4" x2="546.9" y2="304.5" stroke="#bcc3cd" stroke-width="1.0" opacity="0.22" />
  <line x1="476.2" y1="285.1" x2="458.8" y2="290.6" stroke="#bcc3cd" stroke-width="1.0" opacity="0.24" />
  <line x1="476.2" y1="285.1" x2="475.2" y2="255.3" stroke="#bcc3cd" stroke-width="1.0" opacity="0.24" />
  <line x1="476.2" y1="285.1" x2="462.1" y2="246.9" stroke="#bcc3cd" stroke-width="0.9" opacity="0.21" />
  <line x1="476.2" y1="285.1" x2="481.2" y2="275.2" stroke="#bcc3cd" stroke-width="1.1" opacity="0.28" />
  <line x1="476.2" y1="285.1" x2="463.6" y2="279.0" stroke="#bcc3cd" stroke-width="1.1" opacity="0.31" />
  <line x1="476.2" y1="285.1" x2="453.9" y2="270.1" stroke="#bcc3cd" stroke-width="1.1" opacity="0.28" />
  <line x1="476.2" y1="285.1" x2="429.3" y2="266.8" stroke="#bcc3cd" stroke-width="0.9" opacity="0.18" />
  <line x1="476.2" y1="285.1" x2="527.0" y2="303.5" stroke="#bcc3cd" stroke-width="0.9" opacity="0.17" />
  <line x1="476.2" y1="285.1" x2="536.8" y2="262.6" stroke="#bcc3cd" stroke-width="0.9" opacity="0.17" />
  <line x1="476.2" y1="285.1" x2="516.2" y2="259.5" stroke="#bcc3cd" stroke-width="0.9" opacity="0.20" />
  <line x1="476.2" y1="285.1" x2="533.2" y2="288.4" stroke="#bcc3cd" stroke-width="0.9" opacity="0.17" />
  <line x1="476.2" y1="285.1" x2="544.4" y2="293.6" stroke="#bcc3cd" stroke-width="0.9" opacity="0.17" />
  <line x1="476.2" y1="285.1" x2="520.9" y2="275.9" stroke="#bcc3cd" stroke-width="1.1" opacity="0.33" />
  <line x1="476.2" y1="285.1" x2="501.6" y2="259.7" stroke="#bcc3cd" stroke-width="1.0" opacity="0.24" />
  <line x1="508.4" y1="336.4" x2="527.0" y2="303.5" stroke="#bcc3cd" stroke-width="1.0" opacity="0.25" />
  <line x1="508.4" y1="336.4" x2="541.6" y2="320.2" stroke="#bcc3cd" stroke-width="1.1" opacity="0.29" />
  <line x1="508.4" y1="336.4" x2="546.9" y2="304.5" stroke="#bcc3cd" stroke-width="0.9" opacity="0.17" />
  <line x1="458.8" y1="290.6" x2="475.2" y2="255.3" stroke="#bcc3cd" stroke-width="0.9" opacity="0.17" />
  <line x1="458.8" y1="290.6" x2="481.2" y2="275.2" stroke="#bcc3cd" stroke-width="1.0" opacity="0.22" />
  <line x1="458.8" y1="290.6" x2="463.6" y2="279.0" stroke="#bcc3cd" stroke-width="1.0" opacity="0.24" />
  <line x1="458.8" y1="290.6" x2="453.9" y2="270.1" stroke="#bcc3cd" stroke-width="1.0" opacity="0.22" />
  <line x1="458.8" y1="290.6" x2="429.3" y2="266.8" stroke="#bcc3cd" stroke-width="1.0" opacity="0.22" />
  <line x1="458.8" y1="290.6" x2="509.9" y2="311.6" stroke="#bcc3cd" stroke-width="0.9" opacity="0.19" />
  <line x1="458.8" y1="290.6" x2="533.2" y2="288.4" stroke="#bcc3cd" stroke-width="0.9" opacity="0.21" />
  <line x1="458.8" y1="290.6" x2="520.9" y2="275.9" stroke="#bcc3cd" stroke-width="1.0" opacity="0.24" />
  <line x1="458.8" y1="290.6" x2="501.6" y2="259.7" stroke="#bcc3cd" stroke-width="0.9" opacity="0.17" />
  <line x1="582.7" y1="306.2" x2="527.0" y2="303.5" stroke="#bcc3cd" stroke-width="0.9" opacity="0.18" />
  <line x1="582.7" y1="306.2" x2="541.6" y2="320.2" stroke="#bcc3cd" stroke-width="0.9" opacity="0.18" />
  <line x1="582.7" y1="306.2" x2="533.2" y2="288.4" stroke="#bcc3cd" stroke-width="0.9" opacity="0.17" />
  <line x1="582.7" y1="306.2" x2="544.4" y2="293.6" stroke="#bcc3cd" stroke-width="1.3" opacity="0.42" />
  <line x1="582.7" y1="306.2" x2="520.9" y2="275.9" stroke="#bcc3cd" stroke-width="0.9" opacity="0.19" />
  <line x1="582.7" y1="306.2" x2="546.9" y2="304.5" stroke="#bcc3cd" stroke-width="0.9" opacity="0.21" />
  <line x1="387.7" y1="274.3" x2="475.2" y2="255.3" stroke="#bcc3cd" stroke-width="1.1" opacity="0.28" />
  <line x1="387.7" y1="274.3" x2="429.3" y2="266.8" stroke="#bcc3cd" stroke-width="1.2" opacity="0.37" />
  <line x1="475.2" y1="255.3" x2="481.2" y2="275.2" stroke="#bcc3cd" stroke-width="0.9" opacity="0.20" />
  <line x1="475.2" y1="255.3" x2="463.6" y2="279.0" stroke="#bcc3cd" stroke-width="1.0" opacity="0.24" />
  <line x1="475.2" y1="255.3" x2="453.9" y2="270.1" stroke="#bcc3cd" stroke-width="0.9" opacity="0.20" />
  <line x1="475.2" y1="255.3" x2="429.3" y2="266.8" stroke="#bcc3cd" stroke-width="0.9" opacity="0.18" />
  <line x1="475.2" y1="255.3" x2="509.8" y2="244.6" stroke="#bcc3cd" stroke-width="1.5" opacity="0.55" />
  <line x1="475.2" y1="255.3" x2="523.7" y2="236.5" stroke="#bcc3cd" stroke-width="1.2" opacity="0.37" />
  <line x1="475.2" y1="255.3" x2="516.2" y2="259.5" stroke="#bcc3cd" stroke-width="1.0" opacity="0.22" />
  <line x1="475.2" y1="255.3" x2="520.9" y2="275.9" stroke="#bcc3cd" stroke-width="1.0" opacity="0.22" />
  <line x1="475.2" y1="255.3" x2="501.3" y2="234.1" stroke="#bcc3cd" stroke-width="1.2" opacity="0.37" />
  <line x1="475.2" y1="255.3" x2="523.6" y2="251.2" stroke="#bcc3cd" stroke-width="1.1" opacity="0.28" />
  <line x1="475.2" y1="255.3" x2="536.3" y2="233.3" stroke="#bcc3cd" stroke-width="1.2" opacity="0.37" />
  <line x1="475.2" y1="255.3" x2="501.6" y2="259.7" stroke="#bcc3cd" stroke-width="1.2" opacity="0.37" />
  <line x1="462.1" y1="246.9" x2="516.2" y2="259.5" stroke="#bcc3cd" stroke-width="0.9" opacity="0.18" />
  <line x1="462.1" y1="246.9" x2="520.9" y2="275.9" stroke="#bcc3cd" stroke-width="1.1" opacity="0.30" />
  <line x1="462.1" y1="246.9" x2="501.6" y2="259.7" stroke="#bcc3cd" stroke-width="1.0" opacity="0.22" />
  <line x1="481.2" y1="275.2" x2="463.6" y2="279.0" stroke="#bcc3cd" stroke-width="1.1" opacity="0.28" />
  <line x1="481.2" y1="275.2" x2="453.9" y2="270.1" stroke="#bcc3cd" stroke-width="1.0" opacity="0.24" />
  <line x1="481.2" y1="275.2" x2="519.4" y2="290.6" stroke="#bcc3cd" stroke-width="0.9" opacity="0.19" />
  <line x1="481.2" y1="275.2" x2="551.2" y2="276.4" stroke="#bcc3cd" stroke-width="0.9" opacity="0.18" />
  <line x1="481.2" y1="275.2" x2="516.2" y2="259.5" stroke="#bcc3cd" stroke-width="0.9" opacity="0.17" />
  <line x1="481.2" y1="275.2" x2="520.9" y2="275.9" stroke="#bcc3cd" stroke-width="0.9" opacity="0.17" />
  <line x1="481.2" y1="275.2" x2="501.6" y2="259.7" stroke="#bcc3cd" stroke-width="0.9" opacity="0.20" />
  <line x1="463.6" y1="279.0" x2="453.9" y2="270.1" stroke="#bcc3cd" stroke-width="1.1" opacity="0.28" />
  <line x1="463.6" y1="279.0" x2="429.3" y2="266.8" stroke="#bcc3cd" stroke-width="0.9" opacity="0.18" />
  <line x1="463.6" y1="279.0" x2="536.8" y2="262.6" stroke="#bcc3cd" stroke-width="0.9" opacity="0.17" />
  <line x1="463.6" y1="279.0" x2="516.2" y2="259.5" stroke="#bcc3cd" stroke-width="0.9" opacity="0.20" />
  <line x1="463.6" y1="279.0" x2="533.2" y2="288.4" stroke="#bcc3cd" stroke-width="0.9" opacity="0.17" />
  <line x1="463.6" y1="279.0" x2="520.9" y2="275.9" stroke="#bcc3cd" stroke-width="0.9" opacity="0.20" />
  <line x1="463.6" y1="279.0" x2="501.6" y2="259.7" stroke="#bcc3cd" stroke-width="1.0" opacity="0.24" />
  <line x1="453.9" y1="270.1" x2="516.2" y2="259.5" stroke="#bcc3cd" stroke-width="0.9" opacity="0.17" />
  <line x1="453.9" y1="270.1" x2="520.9" y2="275.9" stroke="#bcc3cd" stroke-width="0.9" opacity="0.17" />
  <line x1="453.9" y1="270.1" x2="501.6" y2="259.7" stroke="#bcc3cd" stroke-width="0.9" opacity="0.20" />
  <line x1="429.3" y1="266.8" x2="466.8" y2="217.3" stroke="#bcc3cd" stroke-width="1.0" opacity="0.22" />
  <line x1="429.3" y1="266.8" x2="501.6" y2="259.7" stroke="#bcc3cd" stroke-width="0.9" opacity="0.18" />
  <line x1="629.4" y1="208.3" x2="583.4" y2="240.3" stroke="#bcc3cd" stroke-width="1.3" opacity="0.44" />
  <line x1="629.4" y1="208.3" x2="586.3" y2="202.9" stroke="#bcc3cd" stroke-width="0.9" opacity="0.18" />
  <line x1="583.4" y1="240.3" x2="523.7" y2="236.5" stroke="#bcc3cd" stroke-width="1.1" opacity="0.31" />
  <line x1="583.4" y1="240.3" x2="536.8" y2="262.6" stroke="#bcc3cd" stroke-width="0.9" opacity="0.20" />
  <line x1="583.4" y1="240.3" x2="516.2" y2="259.5" stroke="#bcc3cd" stroke-width="1.0" opacity="0.24" />
  <line x1="583.4" y1="240.3" x2="533.2" y2="288.4" stroke="#bcc3cd" stroke-width="0.9" opacity="0.20" />
  <line x1="583.4" y1="240.3" x2="520.9" y2="275.9" stroke="#bcc3cd" stroke-width="1.0" opacity="0.24" />
  <line x1="583.4" y1="240.3" x2="564.2" y2="264.4" stroke="#bcc3cd" stroke-width="0.9" opacity="0.18" />
  <line x1="583.4" y1="240.3" x2="743.8" y2="234.1" stroke="#bcc3cd" stroke-width="0.9" opacity="0.17" />
  <line x1="583.4" y1="240.3" x2="536.3" y2="233.3" stroke="#bcc3cd" stroke-width="1.1" opacity="0.31" />
  <line x1="583.4" y1="240.3" x2="586.3" y2="202.9" stroke="#bcc3cd" stroke-width="1.1" opacity="0.30" />
  <line x1="583.4" y1="240.3" x2="501.6" y2="259.7" stroke="#bcc3cd" stroke-width="1.1" opacity="0.31" />
  <line x1="227.0" y1="495.2" x2="252.3" y2="500.0" stroke="#bcc3cd" stroke-width="1.6" opacity="0.60" />
  <line x1="602.7" y1="373.4" x2="541.6" y2="320.2" stroke="#bcc3cd" stroke-width="0.9" opacity="0.18" />
  <line x1="602.7" y1="373.4" x2="636.2" y2="388.1" stroke="#bcc3cd" stroke-width="1.1" opacity="0.28" />
  <line x1="570.8" y1="289.6" x2="527.0" y2="303.5" stroke="#bcc3cd" stroke-width="0.9" opacity="0.17" />
  <line x1="570.8" y1="289.6" x2="541.6" y2="320.2" stroke="#bcc3cd" stroke-width="0.9" opacity="0.18" />
  <line x1="570.8" y1="289.6" x2="519.4" y2="290.6" stroke="#bcc3cd" stroke-width="1.0" opacity="0.22" />
  <line x1="570.8" y1="289.6" x2="533.2" y2="288.4" stroke="#bcc3cd" stroke-width="1.1" opacity="0.28" />
  <line x1="570.8" y1="289.6" x2="544.4" y2="293.6" stroke="#bcc3cd" stroke-width="1.1" opacity="0.32" />
  <line x1="570.8" y1="289.6" x2="520.9" y2="275.9" stroke="#bcc3cd" stroke-width="0.9" opacity="0.20" />
  <line x1="570.8" y1="289.6" x2="546.9" y2="304.5" stroke="#bcc3cd" stroke-width="1.0" opacity="0.22" />
  <line x1="570.8" y1="289.6" x2="523.6" y2="251.2" stroke="#bcc3cd" stroke-width="1.0" opacity="0.22" />
  <line x1="527.0" y1="303.5" x2="541.6" y2="320.2" stroke="#bcc3cd" stroke-width="1.3" opacity="0.42" />
  <line x1="527.0" y1="303.5" x2="568.6" y2="317.0" stroke="#bcc3cd" stroke-width="0.9" opacity="0.18" />
  <line x1="527.0" y1="303.5" x2="509.9" y2="311.6" stroke="#bcc3cd" stroke-width="1.1" opacity="0.31" />
  <line x1="527.0" y1="303.5" x2="519.4" y2="290.6" stroke="#bcc3cd" stroke-width="1.1" opacity="0.32" />
  <line x1="527.0" y1="303.5" x2="551.2" y2="276.4" stroke="#bcc3cd" stroke-width="1.0" opacity="0.23" />
  <line x1="527.0" y1="303.5" x2="533.2" y2="288.4" stroke="#bcc3cd" stroke-width="1.2" opacity="0.39" />
  <line x1="527.0" y1="303.5" x2="544.4" y2="293.6" stroke="#bcc3cd" stroke-width="1.0" opacity="0.26" />
  <line x1="527.0" y1="303.5" x2="520.9" y2="275.9" stroke="#bcc3cd" stroke-width="1.2" opacity="0.34" />
  <line x1="527.0" y1="303.5" x2="564.2" y2="264.4" stroke="#bcc3cd" stroke-width="0.9" opacity="0.19" />
  <line x1="527.0" y1="303.5" x2="546.9" y2="304.5" stroke="#bcc3cd" stroke-width="1.0" opacity="0.25" />
  <line x1="527.0" y1="303.5" x2="501.6" y2="259.7" stroke="#bcc3cd" stroke-width="0.9" opacity="0.17" />
  <line x1="541.6" y1="320.2" x2="568.6" y2="317.0" stroke="#bcc3cd" stroke-width="1.1" opacity="0.33" />
  <line x1="541.6" y1="320.2" x2="509.9" y2="311.6" stroke="#bcc3cd" stroke-width="0.9" opacity="0.21" />
  <line x1="541.6" y1="320.2" x2="519.4" y2="290.6" stroke="#bcc3cd" stroke-width="0.9" opacity="0.18" />
  <line x1="541.6" y1="320.2" x2="533.2" y2="288.4" stroke="#bcc3cd" stroke-width="1.3" opacity="0.41" />
  <line x1="541.6" y1="320.2" x2="544.4" y2="293.6" stroke="#bcc3cd" stroke-width="1.0" opacity="0.22" />
  <line x1="541.6" y1="320.2" x2="520.9" y2="275.9" stroke="#bcc3cd" stroke-width="1.1" opacity="0.31" />
  <line x1="541.6" y1="320.2" x2="546.9" y2="304.5" stroke="#bcc3cd" stroke-width="1.7" opacity="0.66" />
  <line x1="509.8" y1="244.6" x2="523.7" y2="236.5" stroke="#bcc3cd" stroke-width="1.5" opacity="0.55" />
  <line x1="509.8" y1="244.6" x2="536.8" y2="262.6" stroke="#bcc3cd" stroke-width="0.9" opacity="0.18" />
  <line x1="509.8" y1="244.6" x2="516.2" y2="259.5" stroke="#bcc3cd" stroke-width="1.1" opacity="0.28" />
  <line x1="509.8" y1="244.6" x2="533.2" y2="288.4" stroke="#bcc3cd" stroke-width="0.9" opacity="0.18" />
  <line x1="509.8" y1="244.6" x2="520.9" y2="275.9" stroke="#bcc3cd" stroke-width="1.1" opacity="0.28" />
  <line x1="509.8" y1="244.6" x2="501.3" y2="234.1" stroke="#bcc3cd" stroke-width="1.5" opacity="0.55" />
  <line x1="509.8" y1="244.6" x2="523.6" y2="251.2" stroke="#bcc3cd" stroke-width="1.2" opacity="0.37" />
  <line x1="509.8" y1="244.6" x2="536.3" y2="233.3" stroke="#bcc3cd" stroke-width="1.5" opacity="0.55" />
  <line x1="509.8" y1="244.6" x2="501.6" y2="259.7" stroke="#bcc3cd" stroke-width="1.5" opacity="0.55" />
  <line x1="523.7" y1="236.5" x2="516.2" y2="259.5" stroke="#bcc3cd" stroke-width="1.0" opacity="0.22" />
  <line x1="523.7" y1="236.5" x2="520.9" y2="275.9" stroke="#bcc3cd" stroke-width="1.0" opacity="0.22" />
  <line x1="523.7" y1="236.5" x2="501.3" y2="234.1" stroke="#bcc3cd" stroke-width="1.2" opacity="0.37" />
  <line x1="523.7" y1="236.5" x2="523.6" y2="251.2" stroke="#bcc3cd" stroke-width="1.1" opacity="0.28" />
  <line x1="523.7" y1="236.5" x2="536.3" y2="233.3" stroke="#bcc3cd" stroke-width="1.2" opacity="0.37" />
  <line x1="523.7" y1="236.5" x2="501.6" y2="259.7" stroke="#bcc3cd" stroke-width="1.2" opacity="0.37" />
  <line x1="568.6" y1="317.0" x2="533.2" y2="288.4" stroke="#bcc3cd" stroke-width="0.9" opacity="0.18" />
  <line x1="568.6" y1="317.0" x2="544.4" y2="293.6" stroke="#bcc3cd" stroke-width="0.9" opacity="0.18" />
  <line x1="568.6" y1="317.0" x2="520.9" y2="275.9" stroke="#bcc3cd" stroke-width="1.0" opacity="0.22" />
  <line x1="568.6" y1="317.0" x2="546.9" y2="304.5" stroke="#bcc3cd" stroke-width="1.3" opacity="0.41" />
  <line x1="509.9" y1="311.6" x2="519.4" y2="290.6" stroke="#bcc3cd" stroke-width="1.1" opacity="0.31" />
  <line x1="509.9" y1="311.6" x2="533.2" y2="288.4" stroke="#bcc3cd" stroke-width="1.4" opacity="0.47" />
  <line x1="509.9" y1="311.6" x2="544.4" y2="293.6" stroke="#bcc3cd" stroke-width="0.9" opacity="0.19" />
  <line x1="509.9" y1="311.6" x2="520.9" y2="275.9" stroke="#bcc3cd" stroke-width="1.0" opacity="0.22" />
  <line x1="519.4" y1="290.6" x2="551.2" y2="276.4" stroke="#bcc3cd" stroke-width="1.1" opacity="0.29" />
  <line x1="519.4" y1="290.6" x2="536.8" y2="262.6" stroke="#bcc3cd" stroke-width="0.9" opacity="0.17" />
  <line x1="519.4" y1="290.6" x2="516.2" y2="259.5" stroke="#bcc3cd" stroke-width="0.9" opacity="0.20" />
  <line x1="519.4" y1="290.6" x2="533.2" y2="288.4" stroke="#bcc3cd" stroke-width="1.3" opacity="0.40" />
  <line x1="519.4" y1="290.6" x2="544.4" y2="293.6" stroke="#bcc3cd" stroke-width="1.0" opacity="0.24" />
  <line x1="519.4" y1="290.6" x2="520.9" y2="275.9" stroke="#bcc3cd" stroke-width="0.9" opacity="0.20" />
  <line x1="519.4" y1="290.6" x2="501.6" y2="259.7" stroke="#bcc3cd" stroke-width="1.0" opacity="0.24" />
  <line x1="551.2" y1="276.4" x2="516.2" y2="259.5" stroke="#bcc3cd" stroke-width="0.9" opacity="0.18" />
  <line x1="551.2" y1="276.4" x2="544.4" y2="293.6" stroke="#bcc3cd" stroke-width="1.0" opacity="0.23" />
  <line x1="551.2" y1="276.4" x2="520.9" y2="275.9" stroke="#bcc3cd" stroke-width="0.9" opacity="0.18" />
  <line x1="551.2" y1="276.4" x2="564.2" y2="264.4" stroke="#bcc3cd" stroke-width="1.0" opacity="0.24" />
  <line x1="551.2" y1="276.4" x2="501.6" y2="259.7" stroke="#bcc3cd" stroke-width="1.0" opacity="0.22" />
  <line x1="536.8" y1="262.6" x2="516.2" y2="259.5" stroke="#bcc3cd" stroke-width="1.1" opacity="0.28" />
  <line x1="536.8" y1="262.6" x2="533.2" y2="288.4" stroke="#bcc3cd" stroke-width="1.0" opacity="0.22" />
  <line x1="536.8" y1="262.6" x2="520.9" y2="275.9" stroke="#bcc3cd" stroke-width="1.1" opacity="0.28" />
  <line x1="536.8" y1="262.6" x2="564.2" y2="264.4" stroke="#bcc3cd" stroke-width="0.9" opacity="0.20" />
  <line x1="536.8" y1="262.6" x2="501.6" y2="259.7" stroke="#bcc3cd" stroke-width="1.2" opacity="0.37" />
  <line x1="516.2" y1="259.5" x2="533.2" y2="288.4" stroke="#bcc3cd" stroke-width="1.1" opacity="0.28" />
  <line x1="516.2" y1="259.5" x2="520.9" y2="275.9" stroke="#bcc3cd" stroke-width="1.2" opacity="0.37" />
  <line x1="516.2" y1="259.5" x2="501.3" y2="234.1" stroke="#bcc3cd" stroke-width="1.0" opacity="0.22" />
  <line x1="516.2" y1="259.5" x2="564.2" y2="264.4" stroke="#bcc3cd" stroke-width="1.0" opacity="0.24" />
  <line x1="516.2" y1="259.5" x2="523.6" y2="251.2" stroke="#bcc3cd" stroke-width="0.9" opacity="0.18" />
  <line x1="516.2" y1="259.5" x2="536.3" y2="233.3" stroke="#bcc3cd" stroke-width="1.0" opacity="0.22" />
  <line x1="516.2" y1="259.5" x2="501.6" y2="259.7" stroke="#bcc3cd" stroke-width="1.5" opacity="0.55" />
  <line x1="533.2" y1="288.4" x2="544.4" y2="293.6" stroke="#bcc3cd" stroke-width="1.1" opacity="0.29" />
  <line x1="533.2" y1="288.4" x2="520.9" y2="275.9" stroke="#bcc3cd" stroke-width="1.4" opacity="0.47" />
  <line x1="533.2" y1="288.4" x2="564.2" y2="264.4" stroke="#bcc3cd" stroke-width="0.9" opacity="0.20" />
  <line x1="533.2" y1="288.4" x2="546.9" y2="304.5" stroke="#bcc3cd" stroke-width="1.1" opacity="0.31" />
  <line x1="533.2" y1="288.4" x2="523.6" y2="251.2" stroke="#bcc3cd" stroke-width="1.1" opacity="0.31" />
  <line x1="533.2" y1="288.4" x2="501.6" y2="259.7" stroke="#bcc3cd" stroke-width="1.2" opacity="0.37" />
  <line x1="544.4" y1="293.6" x2="520.9" y2="275.9" stroke="#bcc3cd" stroke-width="1.2" opacity="0.34" />
  <line x1="544.4" y1="293.6" x2="546.9" y2="304.5" stroke="#bcc3cd" stroke-width="1.0" opacity="0.25" />
  <line x1="544.4" y1="293.6" x2="523.6" y2="251.2" stroke="#bcc3cd" stroke-width="1.0" opacity="0.25" />
  <line x1="544.4" y1="293.6" x2="501.6" y2="259.7" stroke="#bcc3cd" stroke-width="0.9" opacity="0.17" />
  <line x1="520.9" y1="275.9" x2="501.3" y2="234.1" stroke="#bcc3cd" stroke-width="1.0" opacity="0.22" />
  <line x1="520.9" y1="275.9" x2="564.2" y2="264.4" stroke="#bcc3cd" stroke-width="1.0" opacity="0.24" />
  <line x1="520.9" y1="275.9" x2="546.9" y2="304.5" stroke="#bcc3cd" stroke-width="1.3" opacity="0.44" />
  <line x1="520.9" y1="275.9" x2="523.6" y2="251.2" stroke="#bcc3cd" stroke-width="1.3" opacity="0.44" />
  <line x1="520.9" y1="275.9" x2="536.3" y2="233.3" stroke="#bcc3cd" stroke-width="1.0" opacity="0.22" />
  <line x1="520.9" y1="275.9" x2="501.6" y2="259.7" stroke="#bcc3cd" stroke-width="1.5" opacity="0.55" />
  <line x1="751.0" y1="50.0" x2="777.6" y2="65.9" stroke="#bcc3cd" stroke-width="1.0" opacity="0.22" />
  <line x1="427.0" y1="207.7" x2="501.6" y2="259.7" stroke="#bcc3cd" stroke-width="1.0" opacity="0.22" />
  <line x1="501.3" y1="234.1" x2="523.6" y2="251.2" stroke="#bcc3cd" stroke-width="1.1" opacity="0.28" />
  <line x1="501.3" y1="234.1" x2="536.3" y2="233.3" stroke="#bcc3cd" stroke-width="1.2" opacity="0.37" />
  <line x1="501.3" y1="234.1" x2="501.6" y2="259.7" stroke="#bcc3cd" stroke-width="1.2" opacity="0.37" />
  <line x1="807.3" y1="229.9" x2="811.8" y2="247.0" stroke="#bcc3cd" stroke-width="1.5" opacity="0.55" />
  <line x1="807.3" y1="229.9" x2="743.8" y2="234.1" stroke="#bcc3cd" stroke-width="1.3" opacity="0.41" />
  <line x1="811.8" y1="247.0" x2="743.8" y2="234.1" stroke="#bcc3cd" stroke-width="1.0" opacity="0.24" />
  <line x1="564.2" y1="264.4" x2="501.6" y2="259.7" stroke="#bcc3cd" stroke-width="1.1" opacity="0.31" />
  <line x1="546.9" y1="304.5" x2="523.6" y2="251.2" stroke="#bcc3cd" stroke-width="1.0" opacity="0.22" />
  <line x1="523.6" y1="251.2" x2="466.8" y2="217.3" stroke="#bcc3cd" stroke-width="1.2" opacity="0.37" />
  <line x1="523.6" y1="251.2" x2="493.6" y2="189.5" stroke="#bcc3cd" stroke-width="0.9" opacity="0.18" />
  <line x1="523.6" y1="251.2" x2="536.3" y2="233.3" stroke="#bcc3cd" stroke-width="1.1" opacity="0.28" />
  <line x1="523.6" y1="251.2" x2="501.6" y2="259.7" stroke="#bcc3cd" stroke-width="1.1" opacity="0.28" />
  <line x1="466.8" y1="217.3" x2="493.6" y2="189.5" stroke="#bcc3cd" stroke-width="1.1" opacity="0.28" />
  <line x1="536.3" y1="233.3" x2="586.3" y2="202.9" stroke="#bcc3cd" stroke-width="1.1" opacity="0.31" />
  <line x1="536.3" y1="233.3" x2="501.6" y2="259.7" stroke="#bcc3cd" stroke-width="1.2" opacity="0.37" />
  <circle cx="419.9" cy="281.4" r="7.7" fill="#3498db" opacity="0.88" />
  <circle cx="341.4" cy="294.1" r="9.5" fill="#7f8c8d" opacity="0.88" />
  <circle cx="418.1" cy="309.9" r="16" fill="#e74c3c" opacity="0.88" />
  <circle cx="595.3" cy="355.2" r="5" fill="#7f8c8d" opacity="0.88" />
  <circle cx="425.4" cy="301.0" r="14.9" fill="#3498db" opacity="0.88" />
  <circle cx="470.6" cy="325.4" r="16" fill="#3498db" opacity="0.88" />
  <circle cx="485.7" cy="302.4" r="16" fill="#7f8c8d" opacity="0.88" />
  <circle cx="476.2" cy="285.1" r="12.2" fill="#e67e22" opacity="0.88" />
  <circle cx="508.4" cy="336.4" r="16" fill="#e74c3c" opacity="0.88" />
  <circle cx="458.8" cy="290.6" r="15.8" fill="#7f8c8d" opacity="0.88" />
  <circle cx="582.7" cy="306.2" r="16" fill="#9b59b6" opacity="0.88" />
  <circle cx="387.7" cy="274.3" r="6.8" fill="#3498db" opacity="0.88" />
  <circle cx="475.2" cy="255.3" r="5.9" fill="#3498db" opacity="0.88" />
  <circle cx="462.1" cy="246.9" r="13.1" fill="#e67e22" opacity="0.88" />
  <circle cx="481.2" cy="275.2" r="14.0" fill="#3498db" opacity="0.88" />
  <circle cx="463.6" cy="279.0" r="12.2" fill="#3498db" opacity="0.88" />
  <circle cx="453.9" cy="270.1" r="14.0" fill="#3498db" opacity="0.88" />
  <circle cx="429.3" cy="266.8" r="8.6" fill="#2ecc71" opacity="0.88" />
  <circle cx="629.4" cy="208.3" r="10.4" fill="#e74c3c" opacity="0.88" />
  <circle cx="910.0" cy="124.5" r="12.2" fill="#3498db" opacity="0.88" />
  <circle cx="583.4" cy="240.3" r="10.4" fill="#e74c3c" opacity="0.88" />
  <circle cx="227.0" cy="495.2" r="12.2" fill="#3498db" opacity="0.88" />
  <circle cx="252.3" cy="500.0" r="11.3" fill="#3498db" opacity="0.88" />
  <circle cx="602.7" cy="373.4" r="5.9" fill="#3498db" opacity="0.88" />
  <circle cx="570.8" cy="289.6" r="12.2" fill="#9b59b6" opacity="0.88" />
  <circle cx="527.0" cy="303.5" r="15.8" fill="#9b59b6" opacity="0.88" />
  <circle cx="541.6" cy="320.2" r="8.6" fill="#9b59b6" opacity="0.88" />
  <circle cx="509.8" cy="244.6" r="5" fill="#2ecc71" opacity="0.88" />
  <circle cx="523.7" cy="236.5" r="5.9" fill="#7f8c8d" opacity="0.88" />
  <circle cx="568.6" cy="317.0" r="11.3" fill="#e67e22" opacity="0.88" />
  <circle cx="509.9" cy="311.6" r="16" fill="#2ecc71" opacity="0.88" />
  <circle cx="636.2" cy="388.1" r="6.8" fill="#9b59b6" opacity="0.88" />
  <circle cx="103.5" cy="397.7" r="5" fill="#7f8c8d" opacity="0.88" />
  <circle cx="519.4" cy="290.6" r="12.2" fill="#3498db" opacity="0.88" />
  <circle cx="551.2" cy="276.4" r="13.1" fill="#7f8c8d" opacity="0.88" />
  <circle cx="536.8" cy="262.6" r="9.5" fill="#7f8c8d" opacity="0.88" />
  <circle cx="50.0" cy="322.8" r="5" fill="#7f8c8d" opacity="0.88" />
  <circle cx="516.2" cy="259.5" r="7.7" fill="#7f8c8d" opacity="0.88" />
  <circle cx="533.2" cy="288.4" r="9.5" fill="#7f8c8d" opacity="0.88" />
  <circle cx="544.4" cy="293.6" r="15.8" fill="#2ecc71" opacity="0.88" />
  <circle cx="520.9" cy="275.9" r="7.7" fill="#7f8c8d" opacity="0.88" />
  <circle cx="751.0" cy="50.0" r="7.7" fill="#7f8c8d" opacity="0.88" />
  <circle cx="427.0" cy="207.7" r="7.7" fill="#3498db" opacity="0.88" />
  <circle cx="501.3" cy="234.1" r="5.9" fill="#7f8c8d" opacity="0.88" />
  <circle cx="807.3" cy="229.9" r="6.8" fill="#e67e22" opacity="0.88" />
  <circle cx="811.8" cy="247.0" r="6.8" fill="#e67e22" opacity="0.88" />
  <circle cx="564.2" cy="264.4" r="10.4" fill="#7f8c8d" opacity="0.88" />
  <circle cx="743.8" cy="234.1" r="11.3" fill="#e67e22" opacity="0.88" />
  <circle cx="777.6" cy="65.9" r="5.9" fill="#7f8c8d" opacity="0.88" />
  <circle cx="546.9" cy="304.5" r="6.8" fill="#7f8c8d" opacity="0.88" />
  <circle cx="523.6" cy="251.2" r="6.8" fill="#7f8c8d" opacity="0.88" />
  <circle cx="466.8" cy="217.3" r="5" fill="#2ecc71" opacity="0.88" />
  <circle cx="493.6" cy="189.5" r="7.7" fill="#2ecc71" opacity="0.88" />
  <circle cx="536.3" cy="233.3" r="5.9" fill="#e74c3c" opacity="0.88" />
  <circle cx="586.3" cy="202.9" r="10.4" fill="#e74c3c" opacity="0.88" />
  <circle cx="501.6" cy="259.7" r="5.9" fill="#7f8c8d" opacity="0.88" />
  <circle cx="836.2" cy="491.2" r="5" fill="#7f8c8d" opacity="0.88" />
  <rect x="429.6" y="279.8" width="16.4" height="15" fill="#ffffff" opacity="0.75" rx="2" />
  <text x="430.6" y="290.8" font-family="system-ui, -apple-system, sans-serif" font-size="12" fill="#1f2328" text-anchor="start">pp</text>
  <rect x="352.9" y="294.9" width="88.4" height="15" fill="#ffffff" opacity="0.75" rx="2" />
  <text x="353.9" y="305.9" font-family="system-ui, -apple-system, sans-serif" font-size="12" fill="#1f2328" text-anchor="start">waifu-mirror</text>
  <rect x="436.1" y="397.9" width="95.6" height="15" fill="#ffffff" opacity="0.75" rx="2" />
  <text x="437.1" y="408.9" font-family="system-ui, -apple-system, sans-serif" font-size="12" fill="#1f2328" text-anchor="start">RemoteJuggler</text>
  <rect x="602.3" y="384.1" width="124.4" height="15" fill="#ffffff" opacity="0.75" rx="2" />
  <text x="603.3" y="395.1" font-family="system-ui, -apple-system, sans-serif" font-size="12" fill="#1f2328" text-anchor="start">tinyland-calendar</text>
  <rect x="442.3" y="173.6" width="102.8" height="15" fill="#ffffff" opacity="0.75" rx="2" />
  <text x="443.3" y="184.6" font-family="system-ui, -apple-system, sans-serif" font-size="12" fill="#1f2328" text-anchor="start">tinyland-infra</text>
  <rect x="488.6" y="272.7" width="117.2" height="15" fill="#ffffff" opacity="0.75" rx="2" />
  <text x="489.6" y="283.7" font-family="system-ui, -apple-system, sans-serif" font-size="12" fill="#1f2328" text-anchor="start">GloriousFlywheel</text>
  <rect x="503.7" y="413.7" width="52.4" height="15" fill="#ffffff" opacity="0.75" rx="2" />
  <text x="504.7" y="424.7" font-family="system-ui, -apple-system, sans-serif" font-size="12" fill="#1f2328" text-anchor="start">LA-Mesh</text>
  <rect x="490.4" y="292.1" width="45.2" height="15" fill="#ffffff" opacity="0.75" rx="2" />
  <text x="491.4" y="303.1" font-family="system-ui, -apple-system, sans-serif" font-size="12" fill="#1f2328" text-anchor="start">XoxdWM</text>
  <rect x="526.4" y="370.4" width="131.6" height="15" fill="#ffffff" opacity="0.75" rx="2" />
  <text x="527.4" y="381.4" font-family="system-ui, -apple-system, sans-serif" font-size="12" fill="#1f2328" text-anchor="start">pixelwise-research</text>
  <rect x="476.6" y="347.6" width="124.4" height="15" fill="#ffffff" opacity="0.75" rx="2" />
  <text x="477.6" y="358.6" font-family="system-ui, -apple-system, sans-serif" font-size="12" fill="#1f2328" text-anchor="start">tinyland-huskycat</text>
  <rect x="600.7" y="345.9" width="95.6" height="15" fill="#ffffff" opacity="0.75" rx="2" />
  <text x="601.7" y="356.9" font-family="system-ui, -apple-system, sans-serif" font-size="12" fill="#1f2328" text-anchor="start">GIS_Shortcuts</text>
  <rect x="396.5" y="204.4" width="117.2" height="15" fill="#ffffff" opacity="0.75" rx="2" />
  <text x="397.5" y="215.4" font-family="system-ui, -apple-system, sans-serif" font-size="12" fill="#1f2328" text-anchor="start">tinyland-cleanup</text>
  <rect x="483.1" y="158.1" width="95.6" height="15" fill="#ffffff" opacity="0.75" rx="2" />
  <text x="484.1" y="169.1" font-family="system-ui, -apple-system, sans-serif" font-size="12" fill="#1f2328" text-anchor="start">tinyland-kdbx</text>
  <rect x="477.2" y="341.7" width="110.0" height="15" fill="#ffffff" opacity="0.75" rx="2" />
  <text x="478.2" y="352.7" font-family="system-ui, -apple-system, sans-serif" font-size="12" fill="#1f2328" text-anchor="start">hiberpower-ntfs</text>
  <rect x="497.2" y="223.5" width="138.8" height="15" fill="#ffffff" opacity="0.75" rx="2" />
  <text x="498.2" y="234.5" font-family="system-ui, -apple-system, sans-serif" font-size="12" fill="#1f2328" text-anchor="start">Ansible-DAG-Harness</text>
  <rect x="477.8" y="187.4" width="66.8" height="15" fill="#ffffff" opacity="0.75" rx="2" />
  <text x="478.8" y="198.4" font-family="system-ui, -apple-system, sans-serif" font-size="12" fill="#1f2328" text-anchor="start">betterkvm</text>
  <rect x="469.9" y="363.9" width="95.6" height="15" fill="#ffffff" opacity="0.75" rx="2" />
  <text x="470.9" y="374.9" font-family="system-ui, -apple-system, sans-serif" font-size="12" fill="#1f2328" text-anchor="start">DarwinNicUtil</text>
  <rect x="439.9" y="242.0" width="59.6" height="15" fill="#ffffff" opacity="0.75" rx="2" />
  <text x="440.9" y="253.0" font-family="system-ui, -apple-system, sans-serif" font-size="12" fill="#1f2328" text-anchor="start">gnucashr</text>
  <rect x="641.8" y="168.1" width="66.8" height="15" fill="#ffffff" opacity="0.75" rx="2" />
  <text x="642.8" y="179.1" font-family="system-ui, -apple-system, sans-serif" font-size="12" fill="#1f2328" text-anchor="start">quickchpl</text>
  <rect x="764.2" y="117.7" width="131.6" height="15" fill="#ffffff" opacity="0.75" rx="2" />
  <text x="894.8" y="128.7" font-family="system-ui, -apple-system, sans-serif" font-size="12" fill="#1f2328" text-anchor="end">tinyscale-mikrotik</text>
  <rect x="595.8" y="208.6" width="59.6" height="15" fill="#ffffff" opacity="0.75" rx="2" />
  <text x="596.8" y="219.6" font-family="system-ui, -apple-system, sans-serif" font-size="12" fill="#1f2328" text-anchor="start">aoc-2025</text>
  <rect x="241.2" y="482.3" width="66.8" height="15" fill="#ffffff" opacity="0.75" rx="2" />
  <text x="242.2" y="493.3" font-family="system-ui, -apple-system, sans-serif" font-size="12" fill="#1f2328" text-anchor="start">searchies</text>
  <rect x="265.6" y="499.3" width="59.6" height="15" fill="#ffffff" opacity="0.75" rx="2" />
  <text x="266.6" y="510.3" font-family="system-ui, -apple-system, sans-serif" font-size="12" fill="#1f2328" text-anchor="start">ts-caddy</text>
  <rect x="610.6" y="442.1" width="66.8" height="15" fill="#ffffff" opacity="0.75" rx="2" />
  <text x="611.6" y="453.1" font-family="system-ui, -apple-system, sans-serif" font-size="12" fill="#1f2328" text-anchor="start">HCI-notes</text>
  <rect x="585.0" y="362.2" width="88.4" height="15" fill="#ffffff" opacity="0.75" rx="2" />
  <text x="586.0" y="373.2" font-family="system-ui, -apple-system, sans-serif" font-size="12" fill="#1f2328" text-anchor="start">FastPhotoAPI</text>
  <rect x="544.8" y="230.3" width="81.2" height="15" fill="#ffffff" opacity="0.75" rx="2" />
  <text x="545.8" y="241.3" font-family="system-ui, -apple-system, sans-serif" font-size="12" fill="#1f2328" text-anchor="start">timberbuddy</text>
  <rect x="552.2" y="425.1" width="81.2" height="15" fill="#ffffff" opacity="0.75" rx="2" />
  <text x="553.2" y="436.1" font-family="system-ui, -apple-system, sans-serif" font-size="12" fill="#1f2328" text-anchor="start">tetrahedron</text>
  <rect x="516.8" y="266.0" width="95.6" height="15" fill="#ffffff" opacity="0.75" rx="2" />
  <text x="517.8" y="277.0" font-family="system-ui, -apple-system, sans-serif" font-size="12" fill="#1f2328" text-anchor="start">AccuWixReport</text>
  <rect x="531.6" y="217.6" width="95.6" height="15" fill="#ffffff" opacity="0.75" rx="2" />
  <text x="532.6" y="228.6" font-family="system-ui, -apple-system, sans-serif" font-size="12" fill="#1f2328" text-anchor="start">Jess-AOC-2023</text>
  <rect x="581.9" y="181.0" width="81.2" height="15" fill="#ffffff" opacity="0.75" rx="2" />
  <text x="582.9" y="192.0" font-family="system-ui, -apple-system, sans-serif" font-size="12" fill="#1f2328" text-anchor="start">TurkeyProbe</text>
  <rect x="527.9" y="274.1" width="153.2" height="15" fill="#ffffff" opacity="0.75" rx="2" />
  <text x="528.9" y="285.1" font-family="system-ui, -apple-system, sans-serif" font-size="12" fill="#1f2328" text-anchor="start">MerlinAI-Interpreters</text>
  <rect x="645.0" y="456.6" width="110.0" height="15" fill="#ffffff" opacity="0.75" rx="2" />
  <text x="646.0" y="467.6" font-family="system-ui, -apple-system, sans-serif" font-size="12" fill="#1f2328" text-anchor="start">IntroTypeScript</text>
  <rect x="110.5" y="390.9" width="110.0" height="15" fill="#ffffff" opacity="0.75" rx="2" />
  <text x="111.5" y="401.9" font-family="system-ui, -apple-system, sans-serif" font-size="12" fill="#1f2328" text-anchor="start">IG-3DP-Profiles</text>
  <rect x="533.6" y="148.2" width="66.8" height="15" fill="#ffffff" opacity="0.75" rx="2" />
  <text x="534.6" y="159.2" font-family="system-ui, -apple-system, sans-serif" font-size="12" fill="#1f2328" text-anchor="start">DLA-Flask</text>
  <rect x="566.3" y="285.6" width="38.0" height="15" fill="#ffffff" opacity="0.75" rx="2" />
  <text x="567.3" y="296.6" font-family="system-ui, -apple-system, sans-serif" font-size="12" fill="#1f2328" text-anchor="start">USBoN</text>
  <rect x="548.3" y="237.1" width="203.6" height="15" fill="#ffffff" opacity="0.75" rx="2" />
  <text x="549.3" y="248.1" font-family="system-ui, -apple-system, sans-serif" font-size="12" fill="#1f2328" text-anchor="start">chrome-remote-desktop-budgie</text>
  <rect x="57.0" y="316.0" width="124.4" height="15" fill="#ffffff" opacity="0.75" rx="2" />
  <text x="58.0" y="327.0" font-family="system-ui, -apple-system, sans-serif" font-size="12" fill="#1f2328" text-anchor="start">OminousBeepingApp</text>
  <rect x="525.9" y="305.0" width="138.8" height="15" fill="#ffffff" opacity="0.75" rx="2" />
  <text x="526.9" y="316.0" font-family="system-ui, -apple-system, sans-serif" font-size="12" fill="#1f2328" text-anchor="start">mo-image-identifier</text>
  <rect x="544.7" y="297.3" width="196.4" height="15" fill="#ffffff" opacity="0.75" rx="2" />
  <text x="545.7" y="308.3" font-family="system-ui, -apple-system, sans-serif" font-size="12" fill="#1f2328" text-anchor="start">squirrel-leaflet-annotation</text>
  <rect x="562.2" y="170.3" width="74.0" height="15" fill="#ffffff" opacity="0.75" rx="2" />
  <text x="563.2" y="181.3" font-family="system-ui, -apple-system, sans-serif" font-size="12" fill="#1f2328" text-anchor="start">Shiny-Apps</text>
  <rect x="530.6" y="116.8" width="138.8" height="15" fill="#ffffff" opacity="0.75" rx="2" />
  <text x="531.6" y="127.8" font-family="system-ui, -apple-system, sans-serif" font-size="12" fill="#1f2328" text-anchor="start">bbox-jest-puppeteer</text>
  <rect x="760.7" y="43.2" width="88.4" height="15" fill="#ffffff" opacity="0.75" rx="2" />
  <text x="761.7" y="54.2" font-family="system-ui, -apple-system, sans-serif" font-size="12" fill="#1f2328" text-anchor="start">DoverDisplay</text>
  <rect x="436.7" y="116.8" width="81.2" height="15" fill="#ffffff" opacity="0.75" rx="2" />
  <text x="437.7" y="127.8" font-family="system-ui, -apple-system, sans-serif" font-size="12" fill="#1f2328" text-anchor="start">LeafletSync</text>
  <rect x="509.2" y="333.5" width="167.6" height="15" fill="#ffffff" opacity="0.75" rx="2" />
  <text x="510.2" y="344.5" font-family="system-ui, -apple-system, sans-serif" font-size="12" fill="#1f2328" text-anchor="start">misc-roi-distance-notes</text>
  <rect x="659.7" y="218.7" width="138.8" height="15" fill="#ffffff" opacity="0.75" rx="2" />
  <text x="797.5" y="229.7" font-family="system-ui, -apple-system, sans-serif" font-size="12" fill="#1f2328" text-anchor="end">Arduino_Coil_Winder</text>
  <rect x="772.2" y="247.5" width="30.8" height="15" fill="#ffffff" opacity="0.75" rx="2" />
  <text x="802.0" y="258.5" font-family="system-ui, -apple-system, sans-serif" font-size="12" fill="#1f2328" text-anchor="end">momo</text>
  <rect x="576.6" y="316.5" width="38.0" height="15" fill="#ffffff" opacity="0.75" rx="2" />
  <text x="577.6" y="327.5" font-family="system-ui, -apple-system, sans-serif" font-size="12" fill="#1f2328" text-anchor="start">clipi</text>
  <rect x="757.1" y="233.4" width="110.0" height="15" fill="#ffffff" opacity="0.75" rx="2" />
  <text x="758.1" y="244.4" font-family="system-ui, -apple-system, sans-serif" font-size="12" fill="#1f2328" text-anchor="start">AeroTaz5_hotfix</text>
  <rect x="785.5" y="59.1" width="110.0" height="15" fill="#ffffff" opacity="0.75" rx="2" />
  <text x="786.5" y="70.1" font-family="system-ui, -apple-system, sans-serif" font-size="12" fill="#1f2328" text-anchor="start">Funmat-HT-Notes</text>
  <rect x="555.7" y="198.0" width="81.2" height="15" fill="#ffffff" opacity="0.75" rx="2" />
  <text x="556.7" y="209.0" font-family="system-ui, -apple-system, sans-serif" font-size="12" fill="#1f2328" text-anchor="start">static-site</text>
  <rect x="532.4" y="254.1" width="95.6" height="15" fill="#ffffff" opacity="0.75" rx="2" />
  <text x="533.4" y="265.1" font-family="system-ui, -apple-system, sans-serif" font-size="12" fill="#1f2328" text-anchor="start">Flask-Manager</text>
  <rect x="473.8" y="133.8" width="110.0" height="15" fill="#ffffff" opacity="0.75" rx="2" />
  <text x="474.8" y="144.8" font-family="system-ui, -apple-system, sans-serif" font-size="12" fill="#1f2328" text-anchor="start">FieldProcessing</text>
  <rect x="503.3" y="102.4" width="81.2" height="15" fill="#ffffff" opacity="0.75" rx="2" />
  <text x="504.3" y="113.4" font-family="system-ui, -apple-system, sans-serif" font-size="12" fill="#1f2328" text-anchor="start">rJDKmanager</text>
  <rect x="544.2" y="400.6" width="59.6" height="15" fill="#ffffff" opacity="0.75" rx="2" />
  <text x="545.2" y="411.6" font-family="system-ui, -apple-system, sans-serif" font-size="12" fill="#1f2328" text-anchor="start">tagnotes</text>
  <rect x="598.7" y="153.4" width="81.2" height="15" fill="#ffffff" opacity="0.75" rx="2" />
  <text x="599.7" y="164.4" font-family="system-ui, -apple-system, sans-serif" font-size="12" fill="#1f2328" text-anchor="start">ChapelTests</text>
  <rect x="509.5" y="383.6" width="88.4" height="15" fill="#ffffff" opacity="0.75" rx="2" />
  <text x="510.5" y="394.6" font-family="system-ui, -apple-system, sans-serif" font-size="12" fill="#1f2328" text-anchor="start">Xfinity-WiFi</text>
  <rect x="762.4" y="484.4" width="66.8" height="15" fill="#ffffff" opacity="0.75" rx="2" />
  <text x="828.2" y="495.4" font-family="system-ui, -apple-system, sans-serif" font-size="12" fill="#1f2328" text-anchor="end">home-wiki</text>
  <rect x="793" y="36" width="155" height="120" rx="6" fill="#f6f8fa" stroke="#d0d7de" stroke-width="1" opacity="0.95" />
  <circle cx="810" cy="52" r="5" fill="#e74c3c" opacity="0.88" />
  <text x="820" y="56" font-family="system-ui, -apple-system, sans-serif" font-size="10" fill="#1f2328">Languages &amp; Compilers</text>
  <circle cx="810" cy="69" r="5" fill="#3498db" opacity="0.88" />
  <text x="820" y="73" font-family="system-ui, -apple-system, sans-serif" font-size="10" fill="#1f2328">Infrastructure &amp; DevOps</text>
  <circle cx="810" cy="86" r="5" fill="#e67e22" opacity="0.88" />
  <text x="820" y="90" font-family="system-ui, -apple-system, sans-serif" font-size="10" fill="#1f2328">Hardware &amp; Maker</text>
  <circle cx="810" cy="103" r="5" fill="#2ecc71" opacity="0.88" />
  <text x="820" y="107" font-family="system-ui, -apple-system, sans-serif" font-size="10" fill="#1f2328">ML &amp; Data</text>
  <circle cx="810" cy="120" r="5" fill="#9b59b6" opacity="0.88" />
  <text x="820" y="124" font-family="system-ui, -apple-system, sans-serif" font-size="10" fill="#1f2328">Web &amp; Apps</text>
  <circle cx="810" cy="137" r="5" fill="#7f8c8d" opacity="0.88" />
  <text x="820" y="141" font-family="system-ui, -apple-system, sans-serif" font-size="10" fill="#1f2328">Other</text>
  <text x="870" y="150" font-family="system-ui, -apple-system, sans-serif" font-size="8" fill="#656d76" text-anchor="middle">57 repos · 238 edges</text>
</svg>