<svg xmlns="http://www.w3.org/2000/svg" width="960" height="600" viewBox="0 0 960 600">
  <rect width="960" height="600" fill="#ffffff" rx="8" />
  <text x="480" y="24" font-family="system-ui, -apple-system, sans-serif" font-size="13" fill="#656d76" text-anchor="middle" font-weight="500">Repo Relationship Graph &#x2014; Pairwise Topic &amp; Language Similarity</text>
  <line x1="50" y1="550" x2="910" y2="550" stroke="#d0d7de" stroke-width="0.5" opacity="0.5" />
  <text x="50" y="570" font-family="system-ui, -apple-system, sans-serif" font-size="9" fill="#656d76" opacity="0.6">Updated daily by GitHub Actions</text>
  <text x="50" y="588" font-family="system-ui, -apple-system, sans-serif" font-size="9" fill="#656d76" opacity="0.6">networkx spring_layout · Jaccard similarity &gt; 0.15</text>
  <text x="910" y="570" font-family="system-ui, -apple-system, sans-serif" font-size="9" fill="#656d76" text-anchor="end" opacity="0.6">58 repos · 249 edges</text>
  <line x1="653.3" y1="131.4" x2="589.2" y2="129.5" stroke="#bcc3cd" stroke-width="0.9" opacity="0.18" />
  <line x1="653.3" y1="131.4" x2="625.4" y2="121.1" stroke="#bcc3cd" stroke-width="0.9" opacity="0.18" />
  <line x1="653.3" y1="131.4" x2="665.8" y2="111.6" stroke="#bcc3cd" stroke-width="0.9" opacity="0.21" />
  <line x1="653.3" y1="131.4" x2="676.9" y2="136.3" stroke="#bcc3cd" stroke-width="1.0" opacity="0.26" />
  <line x1="653.3" y1="131.4" x2="630.4" y2="112.3" stroke="#bcc3cd" stroke-width="0.9" opacity="0.17" />
  <line x1="653.3" y1="131.4" x2="617.0" y2="100.1" stroke="#bcc3cd" stroke-width="1.0" opacity="0.22" />
  <line x1="653.3" y1="131.4" x2="669.9" y2="122.4" stroke="#bcc3cd" stroke-width="1.0" opacity="0.24" />
  <line x1="653.3" y1="131.4" x2="613.2" y2="138.6" stroke="#bcc3cd" stroke-width="0.9" opacity="0.21" />
  <line x1="653.3" y1="131.4" x2="666.1" y2="149.2" stroke="#bcc3cd" stroke-width="1.1" opacity="0.30" />
  <line x1="653.3" y1="131.4" x2="686.7" y2="125.6" stroke="#bcc3cd" stroke-width="1.0" opacity="0.22" />
  <line x1="653.3" y1="131.4" x2="680.3" y2="111.2" stroke="#bcc3cd" stroke-width="1.0" opacity="0.22" />
  <line x1="653.3" y1="131.4" x2="682.2" y2="163.4" stroke="#bcc3cd" stroke-width="0.9" opacity="0.19" />
  <line x1="653.3" y1="131.4" x2="720.7" y2="150.0" stroke="#bcc3cd" stroke-width="0.9" opacity="0.21" />
  <line x1="653.3" y1="131.4" x2="724.4" y2="139.7" stroke="#bcc3cd" stroke-width="1.0" opacity="0.24" />
  <line x1="653.3" y1="131.4" x2="732.3" y2="120.6" stroke="#bcc3cd" stroke-width="0.9" opacity="0.17" />
  <line x1="589.2" y1="129.5" x2="625.4" y2="121.1" stroke="#bcc3cd" stroke-width="0.9" opacity="0.17" />
  <line x1="589.2" y1="129.5" x2="665.8" y2="111.6" stroke="#bcc3cd" stroke-width="0.9" opacity="0.19" />
  <line x1="589.2" y1="129.5" x2="676.9" y2="136.3" stroke="#bcc3cd" stroke-width="1.0" opacity="0.23" />
  <line x1="589.2" y1="129.5" x2="630.4" y2="112.3" stroke="#bcc3cd" stroke-width="0.9" opacity="0.20" />
  <line x1="589.2" y1="129.5" x2="617.0" y2="100.1" stroke="#bcc3cd" stroke-width="0.9" opacity="0.19" />
  <line x1="589.2" y1="129.5" x2="613.2" y2="138.6" stroke="#bcc3cd" stroke-width="0.9" opacity="0.19" />
  <line x1="589.2" y1="129.5" x2="666.1" y2="149.2" stroke="#bcc3cd" stroke-width="0.9" opacity="0.17" />
  <line x1="589.2" y1="129.5" x2="486.0" y2="146.4" stroke="#bcc3cd" stroke-width="1.0" opacity="0.22" />
  <line x1="541.3" y1="67.6" x2="617.0" y2="100.1" stroke="#bcc3cd" stroke-width="1.0" opacity="0.22" />
  <line x1="541.3" y1="67.6" x2="596.5" y2="94.4" stroke="#bcc3cd" stroke-width="0.9" opacity="0.17" />
  <line x1="625.4" y1="121.1" x2="665.8" y2="111.6" stroke="#bcc3cd" stroke-width="1.0" opacity="0.25" />
  <line x1="625.4" y1="121.1" x2="676.9" y2="136.3" stroke="#bcc3cd" stroke-width="1.1" opacity="0.31" />
  <line x1="625.4" y1="121.1" x2="630.4" y2="112.3" stroke="#bcc3cd" stroke-width="0.9" opacity="0.20" />
  <line x1="625.4" y1="121.1" x2="669.9" y2="122.4" stroke="#bcc3cd" stroke-width="1.0" opacity="0.22" />
  <line x1="625.4" y1="121.1" x2="596.5" y2="94.4" stroke="#bcc3cd" stroke-width="1.1" opacity="0.29" />
  <line x1="625.4" y1="121.1" x2="613.2" y2="138.6" stroke="#bcc3cd" stroke-width="1.0" opacity="0.25" />
  <line x1="625.4" y1="121.1" x2="666.1" y2="149.2" stroke="#bcc3cd" stroke-width="0.9" opacity="0.17" />
  <line x1="625.4" y1="121.1" x2="686.7" y2="125.6" stroke="#bcc3cd" stroke-width="0.9" opacity="0.20" />
  <line x1="625.4" y1="121.1" x2="680.3" y2="111.2" stroke="#bcc3cd" stroke-width="0.9" opacity="0.20" />
  <line x1="665.8" y1="111.6" x2="676.9" y2="136.3" stroke="#bcc3cd" stroke-width="1.4" opacity="0.47" />
  <line x1="665.8" y1="111.6" x2="630.4" y2="112.3" stroke="#bcc3cd" stroke-width="1.0" opacity="0.23" />
  <line x1="665.8" y1="111.6" x2="724.5" y2="97.8" stroke="#bcc3cd" stroke-width="0.9" opacity="0.17" />
  <line x1="665.8" y1="111.6" x2="669.9" y2="122.4" stroke="#bcc3cd" stroke-width="1.0" opacity="0.26" />
  <line x1="665.8" y1="111.6" x2="596.5" y2="94.4" stroke="#bcc3cd" stroke-width="0.9" opacity="0.18" />
  <line x1="665.8" y1="111.6" x2="666.1" y2="149.2" stroke="#bcc3cd" stroke-width="1.0" opacity="0.25" />
  <line x1="665.8" y1="111.6" x2="686.7" y2="125.6" stroke="#bcc3cd" stroke-width="1.0" opacity="0.23" />
  <line x1="665.8" y1="111.6" x2="680.3" y2="111.2" stroke="#bcc3cd" stroke-width="1.0" opacity="0.23" />
  <line x1="665.8" y1="111.6" x2="705.7" y2="99.0" stroke="#bcc3cd" stroke-width="0.9" opacity="0.21" />
  <line x1="665.8" y1="111.6" x2="724.4" y2="139.7" stroke="#bcc3cd" stroke-width="1.0" opacity="0.25" />
  <line x1="665.8" y1="111.6" x2="759.9" y2="101.8" stroke="#bcc3cd" stroke-width="0.9" opacity="0.18" />
  <line x1="665.8" y1="111.6" x2="732.3" y2="120.6" stroke="#bcc3cd" stroke-width="0.9" opacity="0.18" />
  <line x1="633.8" y1="168.8" x2="676.9" y2="136.3" stroke="#bcc3cd" stroke-width="1.0" opacity="0.25" />
  <line x1="633.8" y1="168.8" x2="613.2" y2="138.6" stroke="#bcc3cd" stroke-width="1.2" opacity="0.38" />
  <line x1="633.8" y1="168.8" x2="666.1" y2="149.2" stroke="#bcc3cd" stroke-width="1.2" opacity="0.34" />
  <line x1="633.8" y1="168.8" x2="657.7" y2="183.5" stroke="#bcc3cd" stroke-width="1.0" opacity="0.25" />
  <line x1="633.8" y1="168.8" x2="703.6" y2="164.8" stroke="#bcc3cd" stroke-width="0.9" opacity="0.20" />
  <line x1="633.8" y1="168.8" x2="687.8" y2="181.0" stroke="#bcc3cd" stroke-width="1.0" opacity="0.22" />
  <line x1="676.9" y1="136.3" x2="630.4" y2="112.3" stroke="#bcc3cd" stroke-width="1.1" opacity="0.28" />
  <line x1="676.9" y1="136.3" x2="724.5" y2="97.8" stroke="#bcc3cd" stroke-width="1.0" opacity="0.22" />
  <line x1="676.9" y1="136.3" x2="617.0" y2="100.1" stroke="#bcc3cd" stroke-width="0.9" opacity="0.20" />
  <line x1="676.9" y1="136.3" x2="669.9" y2="122.4" stroke="#bcc3cd" stroke-width="1.2" opacity="0.34" />
  <line x1="676.9" y1="136.3" x2="596.5" y2="94.4" stroke="#bcc3cd" stroke-width="1.0" opacity="0.24" />
  <line x1="676.9" y1="136.3" x2="613.2" y2="138.6" stroke="#bcc3cd" stroke-width="0.9" opacity="0.19" />
  <line x1="676.9" y1="136.3" x2="666.1" y2="149.2" stroke="#bcc3cd" stroke-width="1.2" opacity="0.39" />
  <line x1="676.9" y1="136.3" x2="657.7" y2="183.5" stroke="#bcc3cd" stroke-width="0.9" opacity="0.19" />
  <line x1="676.9" y1="136.3" x2="686.7" y2="125.6" stroke="#bcc3cd" stroke-width="1.2" opacity="0.39" />
  <line x1="676.9" y1="136.3" x2="680.3" y2="111.2" stroke="#bcc3cd" stroke-width="1.1" opacity="0.29" />
  <line x1="676.9" y1="136.3" x2="705.7" y2="99.0" stroke="#bcc3cd" stroke-width="0.9" opacity="0.17" />
  <line x1="676.9" y1="136.3" x2="703.6" y2="164.8" stroke="#bcc3cd" stroke-width="1.2" opacity="0.34" />
  <line x1="676.9" y1="136.3" x2="687.8" y2="181.0" stroke="#bcc3cd" stroke-width="0.9" opacity="0.20" />
  <line x1="676.9" y1="136.3" x2="682.2" y2="163.4" stroke="#bcc3cd" stroke-width="1.0" opacity="0.24" />
  <line x1="676.9" y1="136.3" x2="708.5" y2="151.3" stroke="#bcc3cd" stroke-width="1.2" opacity="0.34" />
  <line x1="676.9" y1="136.3" x2="746.4" y2="149.2" stroke="#bcc3cd" stroke-width="1.0" opacity="0.22" />
  <line x1="676.9" y1="136.3" x2="720.0" y2="117.9" stroke="#bcc3cd" stroke-width="0.9" opacity="0.18" />
  <line x1="676.9" y1="136.3" x2="742.4" y2="122.6" stroke="#bcc3cd" stroke-width="1.0" opacity="0.22" />
  <line x1="676.9" y1="136.3" x2="720.7" y2="150.0" stroke="#bcc3cd" stroke-width="1.1" opacity="0.30" />
  <line x1="676.9" y1="136.3" x2="731.1" y2="164.7" stroke="#bcc3cd" stroke-width="1.0" opacity="0.26" />
  <line x1="676.9" y1="136.3" x2="724.4" y2="139.7" stroke="#bcc3cd" stroke-width="1.2" opacity="0.37" />
  <line x1="676.9" y1="136.3" x2="750.8" y2="134.7" stroke="#bcc3cd" stroke-width="0.9" opacity="0.17" />
  <line x1="676.9" y1="136.3" x2="719.6" y2="172.9" stroke="#bcc3cd" stroke-width="1.0" opacity="0.24" />
  <line x1="676.9" y1="136.3" x2="732.3" y2="120.6" stroke="#bcc3cd" stroke-width="1.1" opacity="0.28" />
  <line x1="630.4" y1="112.3" x2="669.9" y2="122.4" stroke="#bcc3cd" stroke-width="0.9" opacity="0.20" />
  <line x1="630.4" y1="112.3" x2="613.2" y2="138.6" stroke="#bcc3cd" stroke-width="1.0" opacity="0.23" />
  <line x1="630.4" y1="112.3" x2="686.7" y2="125.6" stroke="#bcc3cd" stroke-width="1.0" opacity="0.24" />
  <line x1="630.4" y1="112.3" x2="680.3" y2="111.2" stroke="#bcc3cd" stroke-width="0.9" opacity="0.18" />
  <line x1="724.5" y1="97.8" x2="742.4" y2="122.6" stroke="#bcc3cd" stroke-width="0.9" opacity="0.18" />
  <line x1="724.5" y1="97.8" x2="724.4" y2="139.7" stroke="#bcc3cd" stroke-width="1.1" opacity="0.30" />
  <line x1="724.5" y1="97.8" x2="732.3" y2="120.6" stroke="#bcc3cd" stroke-width="1.0" opacity="0.22" />
  <line x1="617.0" y1="100.1" x2="571.4" y2="52.9" stroke="#bcc3cd" stroke-width="1.1" opacity="0.33" />
  <line x1="617.0" y1="100.1" x2="669.9" y2="122.4" stroke="#bcc3cd" stroke-width="0.9" opacity="0.18" />
  <line x1="617.0" y1="100.1" x2="596.5" y2="94.4" stroke="#bcc3cd" stroke-width="0.9" opacity="0.18" />
  <line x1="617.0" y1="100.1" x2="613.2" y2="138.6" stroke="#bcc3cd" stroke-width="1.0" opacity="0.24" />
  <line x1="617.0" y1="100.1" x2="666.1" y2="149.2" stroke="#bcc3cd" stroke-width="0.9" opacity="0.19" />
  <line x1="617.0" y1="100.1" x2="732.3" y2="120.6" stroke="#bcc3cd" stroke-width="0.9" opacity="0.18" />
  <line x1="669.9" y1="122.4" x2="613.2" y2="138.6" stroke="#bcc3cd" stroke-width="0.9" opacity="0.18" />
  <line x1="669.9" y1="122.4" x2="666.1" y2="149.2" stroke="#bcc3cd" stroke-width="1.0" opacity="0.22" />
  <line x1="669.9" y1="122.4" x2="686.7" y2="125.6" stroke="#bcc3cd" stroke-width="1.1" opacity="0.28" />
  <line x1="669.9" y1="122.4" x2="680.3" y2="111.2" stroke="#bcc3cd" stroke-width="1.1" opacity="0.28" />
  <line x1="669.9" y1="122.4" x2="720.0" y2="117.9" stroke="#bcc3cd" stroke-width="0.9" opacity="0.17" />
  <line x1="669.9" y1="122.4" x2="742.4" y2="122.6" stroke="#bcc3cd" stroke-width="0.9" opacity="0.20" />
  <line x1="669.9" y1="122.4" x2="720.7" y2="150.0" stroke="#bcc3cd" stroke-width="0.9" opacity="0.17" />
  <line x1="669.9" y1="122.4" x2="724.4" y2="139.7" stroke="#bcc3cd" stroke-width="0.9" opacity="0.20" />
  <line x1="669.9" y1="122.4" x2="732.3" y2="120.6" stroke="#bcc3cd" stroke-width="1.0" opacity="0.24" />
  <line x1="613.2" y1="138.6" x2="666.1" y2="149.2" stroke="#bcc3cd" stroke-width="0.9" opacity="0.19" />
  <line x1="666.1" y1="149.2" x2="657.7" y2="183.5" stroke="#bcc3cd" stroke-width="1.2" opacity="0.34" />
  <line x1="666.1" y1="149.2" x2="686.7" y2="125.6" stroke="#bcc3cd" stroke-width="0.9" opacity="0.20" />
  <line x1="666.1" y1="149.2" x2="680.3" y2="111.2" stroke="#bcc3cd" stroke-width="0.9" opacity="0.20" />
  <line x1="666.1" y1="149.2" x2="703.6" y2="164.8" stroke="#bcc3cd" stroke-width="1.2" opacity="0.37" />
  <line x1="666.1" y1="149.2" x2="687.8" y2="181.0" stroke="#bcc3cd" stroke-width="1.2" opacity="0.37" />
  <line x1="666.1" y1="149.2" x2="682.2" y2="163.4" stroke="#bcc3cd" stroke-width="1.1" opacity="0.29" />
  <line x1="666.1" y1="149.2" x2="708.5" y2="151.3" stroke="#bcc3cd" stroke-width="1.0" opacity="0.22" />
  <line x1="666.1" y1="149.2" x2="720.7" y2="150.0" stroke="#bcc3cd" stroke-width="1.2" opacity="0.34" />
  <line x1="666.1" y1="149.2" x2="731.1" y2="164.7" stroke="#bcc3cd" stroke-width="1.0" opacity="0.24" />
  <line x1="666.1" y1="149.2" x2="724.4" y2="139.7" stroke="#bcc3cd" stroke-width="1.1" opacity="0.29" />
  <line x1="666.1" y1="149.2" x2="719.6" y2="172.9" stroke="#bcc3cd" stroke-width="1.0" opacity="0.22" />
  <line x1="657.7" y1="183.5" x2="703.6" y2="164.8" stroke="#bcc3cd" stroke-width="1.0" opacity="0.25" />
  <line x1="657.7" y1="183.5" x2="687.8" y2="181.0" stroke="#bcc3cd" stroke-width="1.1" opacity="0.29" />
  <line x1="657.7" y1="183.5" x2="719.6" y2="172.9" stroke="#bcc3cd" stroke-width="0.9" opacity="0.17" />
  <line x1="724.9" y1="192.8" x2="703.6" y2="164.8" stroke="#bcc3cd" stroke-width="0.9" opacity="0.18" />
  <line x1="724.9" y1="192.8" x2="687.8" y2="181.0" stroke="#bcc3cd" stroke-width="0.9" opacity="0.18" />
  <line x1="724.9" y1="192.8" x2="720.7" y2="150.0" stroke="#bcc3cd" stroke-width="0.9" opacity="0.17" />
  <line x1="724.9" y1="192.8" x2="731.1" y2="164.7" stroke="#bcc3cd" stroke-width="1.3" opacity="0.42" />
  <line x1="724.9" y1="192.8" x2="724.4" y2="139.7" stroke="#bcc3cd" stroke-width="0.9" opacity="0.19" />
  <line x1="724.9" y1="192.8" x2="719.6" y2="172.9" stroke="#bcc3cd" stroke-width="0.9" opacity="0.21" />
  <line x1="686.7" y1="125.6" x2="680.3" y2="111.2" stroke="#bcc3cd" stroke-width="1.0" opacity="0.24" />
  <line x1="686.7" y1="125.6" x2="708.5" y2="151.3" stroke="#bcc3cd" stroke-width="0.9" opacity="0.19" />
  <line x1="686.7" y1="125.6" x2="746.4" y2="149.2" stroke="#bcc3cd" stroke-width="0.9" opacity="0.18" />
  <line x1="686.7" y1="125.6" x2="742.4" y2="122.6" stroke="#bcc3cd" stroke-width="0.9" opacity="0.17" />
  <line x1="686.7" y1="125.6" x2="724.4" y2="139.7" stroke="#bcc3cd" stroke-width="0.9" opacity="0.17" />
  <line x1="686.7" y1="125.6" x2="732.3" y2="120.6" stroke="#bcc3cd" stroke-width="0.9" opacity="0.20" />
  <line x1="680.3" y1="111.2" x2="742.4" y2="122.6" stroke="#bcc3cd" stroke-width="0.9" opacity="0.17" />
  <line x1="680.3" y1="111.2" x2="724.4" y2="139.7" stroke="#bcc3cd" stroke-width="0.9" opacity="0.17" />
  <line x1="680.3" y1="111.2" x2="732.3" y2="120.6" stroke="#bcc3cd" stroke-width="0.9" opacity="0.20" />
  <line x1="719.2" y1="50.0" x2="705.7" y2="99.0" stroke="#bcc3cd" stroke-width="1.3" opacity="0.44" />
  <line x1="719.2" y1="50.0" x2="755.7" y2="60.6" stroke="#bcc3cd" stroke-width="0.9" opacity="0.18" />
  <line x1="705.7" y1="99.0" x2="776.6" y2="108.6" stroke="#bcc3cd" stroke-width="1.1" opacity="0.31" />
  <line x1="705.7" y1="99.0" x2="720.0" y2="117.9" stroke="#bcc3cd" stroke-width="0.9" opacity="0.20" />
  <line x1="705.7" y1="99.0" x2="742.4" y2="122.6" stroke="#bcc3cd" stroke-width="1.0" opacity="0.24" />
  <line x1="705.7" y1="99.0" x2="720.7" y2="150.0" stroke="#bcc3cd" stroke-width="0.9" opacity="0.20" />
  <line x1="705.7" y1="99.0" x2="724.4" y2="139.7" stroke="#bcc3cd" stroke-width="1.0" opacity="0.24" />
  <line x1="705.7" y1="99.0" x2="750.8" y2="134.7" stroke="#bcc3cd" stroke-width="0.9" opacity="0.18" />
  <line x1="705.7" y1="99.0" x2="530.9" y2="137.2" stroke="#bcc3cd" stroke-width="0.9" opacity="0.17" />
  <line x1="705.7" y1="99.0" x2="759.9" y2="101.8" stroke="#bcc3cd" stroke-width="1.1" opacity="0.31" />
  <line x1="705.7" y1="99.0" x2="755.7" y2="60.6" stroke="#bcc3cd" stroke-width="1.1" opacity="0.30" />
  <line x1="705.7" y1="99.0" x2="732.3" y2="120.6" stroke="#bcc3cd" stroke-width="1.1" opacity="0.31" />
  <line x1="328.6" y1="473.3" x2="356.2" y2="472.4" stroke="#bcc3cd" stroke-width="1.6" opacity="0.60" />
  <line x1="581.9" y1="249.7" x2="687.8" y2="181.0" stroke="#bcc3cd" stroke-width="0.9" opacity="0.18" />
  <line x1="581.9" y1="249.7" x2="501.4" y2="282.5" stroke="#bcc3cd" stroke-width="1.1" opacity="0.28" />
  <line x1="757.7" y1="173.3" x2="703.6" y2="164.8" stroke="#bcc3cd" stroke-width="0.9" opacity="0.17" />
  <line x1="757.7" y1="173.3" x2="687.8" y2="181.0" stroke="#bcc3cd" stroke-width="0.9" opacity="0.18" />
  <line x1="757.7" y1="173.3" x2="708.5" y2="151.3" stroke="#bcc3cd" stroke-width="1.0" opacity="0.22" />
  <line x1="757.7" y1="173.3" x2="720.7" y2="150.0" stroke="#bcc3cd" stroke-width="1.1" opacity="0.28" />
  <line x1="757.7" y1="173.3" x2="731.1" y2="164.7" stroke="#bcc3cd" stroke-width="1.1" opacity="0.32" />
  <line x1="757.7" y1="173.3" x2="724.4" y2="139.7" stroke="#bcc3cd" stroke-width="0.9" opacity="0.20" />
  <line x1="757.7" y1="173.3" x2="719.6" y2="172.9" stroke="#bcc3cd" stroke-width="1.0" opacity="0.22" />
  <line x1="757.7" y1="173.3" x2="791.2" y2="142.7" stroke="#bcc3cd" stroke-width="1.0" opacity="0.22" />
  <line x1="703.6" y1="164.8" x2="687.8" y2="181.0" stroke="#bcc3cd" stroke-width="1.3" opacity="0.42" />
  <line x1="703.6" y1="164.8" x2="740.6" y2="188.4" stroke="#bcc3cd" stroke-width="0.9" opacity="0.18" />
  <line x1="703.6" y1="164.8" x2="682.2" y2="163.4" stroke="#bcc3cd" stroke-width="1.1" opacity="0.31" />
  <line x1="703.6" y1="164.8" x2="708.5" y2="151.3" stroke="#bcc3cd" stroke-width="1.1" opacity="0.32" />
  <line x1="703.6" y1="164.8" x2="746.4" y2="149.2" stroke="#bcc3cd" stroke-width="1.0" opacity="0.23" />
  <line x1="703.6" y1="164.8" x2="720.7" y2="150.0" stroke="#bcc3cd" stroke-width="1.2" opacity="0.39" />
  <line x1="703.6" y1="164.8" x2="731.1" y2="164.7" stroke="#bcc3cd" stroke-width="1.0" opacity="0.26" />
  <line x1="703.6" y1="164.8" x2="724.4" y2="139.7" stroke="#bcc3cd" stroke-width="1.2" opacity="0.34" />
  <line x1="703.6" y1="164.8" x2="750.8" y2="134.7" stroke="#bcc3cd" stroke-width="0.9" opacity="0.19" />
  <line x1="703.6" y1="164.8" x2="719.6" y2="172.9" stroke="#bcc3cd" stroke-width="1.0" opacity="0.25" />
  <line x1="703.6" y1="164.8" x2="732.3" y2="120.6" stroke="#bcc3cd" stroke-width="0.9" opacity="0.17" />
  <line x1="687.8" y1="181.0" x2="740.6" y2="188.4" stroke="#bcc3cd" stroke-width="1.1" opacity="0.33" />
  <line x1="687.8" y1="181.0" x2="682.2" y2="163.4" stroke="#bcc3cd" stroke-width="0.9" opacity="0.21" />
  <line x1="687.8" y1="181.0" x2="708.5" y2="151.3" stroke="#bcc3cd" stroke-width="0.9" opacity="0.18" />
  <line x1="687.8" y1="181.0" x2="720.7" y2="150.0" stroke="#bcc3cd" stroke-width="1.3" opacity="0.41" />
  <line x1="687.8" y1="181.0" x2="731.1" y2="164.7" stroke="#bcc3cd" stroke-width="1.0" opacity="0.22" />
  <line x1="687.8" y1="181.0" x2="724.4" y2="139.7" stroke="#bcc3cd" stroke-width="1.1" opacity="0.31" />
  <line x1="687.8" y1="181.0" x2="719.6" y2="172.9" stroke="#bcc3cd" stroke-width="1.7" opacity="0.66" />
  <line x1="775.6" y1="121.8" x2="776.6" y2="108.6" stroke="#bcc3cd" stroke-width="1.5" opacity="0.55" />
  <line x1="775.6" y1="121.8" x2="720.0" y2="117.9" stroke="#bcc3cd" stroke-width="0.9" opacity="0.18" />
  <line x1="775.6" y1="121.8" x2="742.4" y2="122.6" stroke="#bcc3cd" stroke-width="1.1" opacity="0.28" />
  <line x1="775.6" y1="121.8" x2="720.7" y2="150.0" stroke="#bcc3cd" stroke-width="0.9" opacity="0.18" />
  <line x1="775.6" y1="121.8" x2="724.4" y2="139.7" stroke="#bcc3cd" stroke-width="1.1" opacity="0.28" />
  <line x1="775.6" y1="121.8" x2="795.6" y2="116.9" stroke="#bcc3cd" stroke-width="1.5" opacity="0.55" />
  <line x1="775.6" y1="121.8" x2="791.2" y2="142.7" stroke="#bcc3cd" stroke-width="1.2" opacity="0.37" />
  <line x1="775.6" y1="121.8" x2="759.9" y2="101.8" stroke="#bcc3cd" stroke-width="1.5" opacity="0.55" />
  <line x1="775.6" y1="121.8" x2="732.3" y2="120.6" stroke="#bcc3cd" stroke-width="1.5" opacity="0.55" />
  <line x1="776.6" y1="108.6" x2="742.4" y2="122.6" stroke="#bcc3cd" stroke-width="1.0" opacity="0.22" />
  <line x1="776.6" y1="108.6" x2="724.4" y2="139.7" stroke="#bcc3cd" stroke-width="1.0" opacity="0.22" />
  <line x1="776.6" y1="108.6" x2="795.6" y2="116.9" stroke="#bcc3cd" stroke-width="1.2" opacity="0.37" />
  <line x1="776.6" y1="108.6" x2="791.2" y2="142.7" stroke="#bcc3cd" stroke-width="1.1" opacity="0.28" />
  <line x1="776.6" y1="108.6" x2="759.9" y2="101.8" stroke="#bcc3cd" stroke-width="1.2" opacity="0.37" />
  <line x1="776.6" y1="108.6" x2="732.3" y2="120.6" stroke="#bcc3cd" stroke-width="1.2" opacity="0.37" />
  <line x1="740.6" y1="188.4" x2="720.7" y2="150.0" stroke="#bcc3cd" stroke-width="0.9" opacity="0.18" />
  <line x1="740.6" y1="188.4" x2="731.1" y2="164.7" stroke="#bcc3cd" stroke-width="0.9" opacity="0.18" />
  <line x1="740.6" y1="188.4" x2="724.4" y2="139.7" stroke="#bcc3cd" stroke-width="1.0" opacity="0.22" />
  <line x1="740.6" y1="188.4" x2="719.6" y2="172.9" stroke="#bcc3cd" stroke-width="1.3" opacity="0.41" />
  <line x1="682.2" y1="163.4" x2="708.5" y2="151.3" stroke="#bcc3cd" stroke-width="1.1" opacity="0.31" />
  <line x1="682.2" y1="163.4" x2="720.7" y2="150.0" stroke="#bcc3cd" stroke-width="1.4" opacity="0.47" />
  <line x1="682.2" y1="163.4" x2="731.1" y2="164.7" stroke="#bcc3cd" stroke-width="0.9" opacity="0.19" />
  <line x1="682.2" y1="163.4" x2="724.4" y2="139.7" stroke="#bcc3cd" stroke-width="1.0" opacity="0.22" />
  <line x1="708.5" y1="151.3" x2="746.4" y2="149.2" stroke="#bcc3cd" stroke-width="1.1" opacity="0.29" />
  <line x1="708.5" y1="151.3" x2="720.0" y2="117.9" stroke="#bcc3cd" stroke-width="0.9" opacity="0.17" />
  <line x1="708.5" y1="151.3" x2="742.4" y2="122.6" stroke="#bcc3cd" stroke-width="0.9" opacity="0.20" />
  <line x1="708.5" y1="151.3" x2="720.7" y2="150.0" stroke="#bcc3cd" stroke-width="1.3" opacity="0.40" />
  <line x1="708.5" y1="151.3" x2="731.1" y2="164.7" stroke="#bcc3cd" stroke-width="1.0" opacity="0.24" />
  <line x1="708.5" y1="151.3" x2="724.4" y2="139.7" stroke="#bcc3cd" stroke-width="0.9" opacity="0.20" />
  <line x1="708.5" y1="151.3" x2="732.3" y2="120.6" stroke="#bcc3cd" stroke-width="1.0" opacity="0.24" />
  <line x1="746.4" y1="149.2" x2="742.4" y2="122.6" stroke="#bcc3cd" stroke-width="0.9" opacity="0.18" />
  <line x1="746.4" y1="149.2" x2="731.1" y2="164.7" stroke="#bcc3cd" stroke-width="1.0" opacity="0.23" />
  <line x1="746.4" y1="149.2" x2="724.4" y2="139.7" stroke="#bcc3cd" stroke-width="0.9" opacity="0.18" />
  <line x1="746.4" y1="149.2" x2="750.8" y2="134.7" stroke="#bcc3cd" stroke-width="1.0" opacity="0.24" />
  <line x1="746.4" y1="149.2" x2="732.3" y2="120.6" stroke="#bcc3cd" stroke-width="1.0" opacity="0.22" />
  <line x1="720.0" y1="117.9" x2="742.4" y2="122.6" stroke="#bcc3cd" stroke-width="1.1" opacity="0.28" />
  <line x1="720.0" y1="117.9" x2="720.7" y2="150.0" stroke="#bcc3cd" stroke-width="1.0" opacity="0.22" />
  <line x1="720.0" y1="117.9" x2="724.4" y2="139.7" stroke="#bcc3cd" stroke-width="1.1" opacity="0.28" />
  <line x1="720.0" y1="117.9" x2="750.8" y2="134.7" stroke="#bcc3cd" stroke-width="0.9" opacity="0.20" />
  <line x1="720.0" y1="117.9" x2="732.3" y2="120.6" stroke="#bcc3cd" stroke-width="1.2" opacity="0.37" />
  <line x1="742.4" y1="122.6" x2="720.7" y2="150.0" stroke="#bcc3cd" stroke-width="1.1" opacity="0.28" />
  <line x1="742.4" y1="122.6" x2="724.4" y2="139.7" stroke="#bcc3cd" stroke-width="1.2" opacity="0.37" />
  <line x1="742.4" y1="122.6" x2="795.6" y2="116.9" stroke="#bcc3cd" stroke-width="1.0" opacity="0.22" />
  <line x1="742.4" y1="122.6" x2="750.8" y2="134.7" stroke="#bcc3cd" stroke-width="1.0" opacity="0.24" />
  <line x1="742.4" y1="122.6" x2="791.2" y2="142.7" stroke="#bcc3cd" stroke-width="0.9" opacity="0.18" />
  <line x1="742.4" y1="122.6" x2="759.9" y2="101.8" stroke="#bcc3cd" stroke-width="1.0" opacity="0.22" />
  <line x1="742.4" y1="122.6" x2="732.3" y2="120.6" stroke="#bcc3cd" stroke-width="1.5" opacity="0.55" />
  <line x1="720.7" y1="150.0" x2="731.1" y2="164.7" stroke="#bcc3cd" stroke-width="1.1" opacity="0.29" />
  <line x1="720.7" y1="150.0" x2="724.4" y2="139.7" stroke="#bcc3cd" stroke-width="1.4" opacity="0.47" />
  <line x1="720.7" y1="150.0" x2="750.8" y2="134.7" stroke="#bcc3cd" stroke-width="0.9" opacity="0.20" />
  <line x1="720.7" y1="150.0" x2="719.6" y2="172.9" stroke="#bcc3cd" stroke-width="1.1" opacity="0.31" />
  <line x1="720.7" y1="150.0" x2="791.2" y2="142.7" stroke="#bcc3cd" stroke-width="1.1" opacity="0.31" />
  <line x1="720.7" y1="150.0" x2="732.3" y2="120.6" stroke="#bcc3cd" stroke-width="1.2" opacity="0.37" />
  <line x1="731.1" y1="164.7" x2="724.4" y2="139.7" stroke="#bcc3cd" stroke-width="1.2" opacity="0.34" />
  <line x1="731.1" y1="164.7" x2="719.6" y2="172.9" stroke="#bcc3cd" stroke-width="1.0" opacity="0.25" />
  <line x1="731.1" y1="164.7" x2="791.2" y2="142.7" stroke="#bcc3cd" stroke-width="1.0" opacity="0.25" />
  <line x1="731.1" y1="164.7" x2="732.3" y2="120.6" stroke="#bcc3cd" stroke-width="0.9" opacity="0.17" />
  <line x1="724.4" y1="139.7" x2="795.6" y2="116.9" stroke="#bcc3cd" stroke-width="1.0" opacity="0.22" />
  <line x1="724.4" y1="139.7" x2="750.8" y2="134.7" stroke="#bcc3cd" stroke-width="1.0" opacity="0.24" />
  <line x1="724.4" y1="139.7" x2="719.6" y2="172.9" stroke="#bcc3cd" stroke-width="1.3" opacity="0.44" />
  <line x1="724.4" y1="139.7" x2="791.2" y2="142.7" stroke="#bcc3cd" stroke-width="1.3" opacity="0.44" />
  <line x1="724.4" y1="139.7" x2="759.9" y2="101.8" stroke="#bcc3cd" stroke-width="1.0" opacity="0.22" />
  <line x1="724.4" y1="139.7" x2="732.3" y2="120.6" stroke="#bcc3cd" stroke-width="1.5" opacity="0.55" />
  <line x1="114.9" y1="74.0" x2="83.9" y2="88.2" stroke="#bcc3cd" stroke-width="1.0" opacity="0.22" />
  <line x1="828.3" y1="75.7" x2="732.3" y2="120.6" stroke="#bcc3cd" stroke-width="1.0" opacity="0.22" />
  <line x1="795.6" y1="116.9" x2="791.2" y2="142.7" stroke="#bcc3cd" stroke-width="1.1" opacity="0.28" />
  <line x1="795.6" y1="116.9" x2="759.9" y2="101.8" stroke="#bcc3cd" stroke-width="1.2" opacity="0.37" />
  <line x1="795.6" y1="116.9" x2="732.3" y2="120.6" stroke="#bcc3cd" stroke-width="1.2" opacity="0.37" />
  <line x1="463.6" y1="166.2" x2="486.0" y2="146.4" stroke="#bcc3cd" stroke-width="1.5" opacity="0.55" />
  <line x1="463.6" y1="166.2" x2="530.9" y2="137.2" stroke="#bcc3cd" stroke-width="1.3" opacity="0.41" />
  <line x1="486.0" y1="146.4" x2="530.9" y2="137.2" stroke="#bcc3cd" stroke-width="1.0" opacity="0.24" />
  <line x1="750.8" y1="134.7" x2="732.3" y2="120.6" stroke="#bcc3cd" stroke-width="1.1" opacity="0.31" />
  <line x1="719.6" y1="172.9" x2="791.2" y2="142.7" stroke="#bcc3cd" stroke-width="1.0" opacity="0.22" />
  <line x1="791.2" y1="142.7" x2="877.7" y2="153.4" stroke="#bcc3cd" stroke-width="1.2" opacity="0.37" />
  <line x1="791.2" y1="142.7" x2="910.0" y2="154.7" stroke="#bcc3cd" stroke-width="0.9" opacity="0.18" />
  <line x1="791.2" y1="142.7" x2="759.9" y2="101.8" stroke="#bcc3cd" stroke-width="1.1" opacity="0.28" />
  <line x1="791.2" y1="142.7" x2="732.3" y2="120.6" stroke="#bcc3cd" stroke-width="1.1" opacity="0.28" />
  <line x1="877.7" y1="153.4" x2="910.0" y2="154.7" stroke="#bcc3cd" stroke-width="1.1" opacity="0.28" />
  <line x1="759.9" y1="101.8" x2="755.7" y2="60.6" stroke="#bcc3cd" stroke-width="1.1" opacity="0.31" />
  <line x1="759.9" y1="101.8" x2="732.3" y2="120.6" stroke="#bcc3cd" stroke-width="1.2" opacity="0.37" />
  <circle cx="653.3" cy="131.4" r="15.8" fill="#7f8c8d" opacity="0.88" />
  <circle cx="589.2" cy="129.5" r="16" fill="#2ecc71" opacity="0.88" />
  <circle cx="541.3" cy="67.6" r="15.8" fill="#3498db" opacity="0.88" />
  <circle cx="625.4" cy="121.1" r="16" fill="#3498db" opacity="0.88" />
  <circle cx="665.8" cy="111.6" r="14.9" fill="#e67e22" opacity="0.88" />
  <circle cx="633.8" cy="168.8" r="16" fill="#3498db" opacity="0.88" />
  <circle cx="676.9" cy="136.3" r="11.3" fill="#3498db" opacity="0.88" />
  <circle cx="630.4" cy="112.3" r="16" fill="#3498db" opacity="0.88" />
  <circle cx="724.5" cy="97.8" r="13.1" fill="#e67e22" opacity="0.88" />
  <circle cx="617.0" cy="100.1" r="8.6" fill="#3498db" opacity="0.88" />
  <circle cx="571.4" cy="52.9" r="11.3" fill="#3498db" opacity="0.88" />
  <circle cx="669.9" cy="122.4" r="12.2" fill="#3498db" opacity="0.88" />
  <circle cx="596.5" cy="94.4" r="12.2" fill="#3498db" opacity="0.88" />
  <circle cx="613.2" cy="138.6" r="14.9" fill="#3498db" opacity="0.88" />
  <circle cx="666.1" cy="149.2" r="16" fill="#9b59b6" opacity="0.88" />
  <circle cx="657.7" cy="183.5" r="16" fill="#e74c3c" opacity="0.88" />
  <circle cx="724.9" cy="192.8" r="16" fill="#9b59b6" opacity="0.88" />
  <circle cx="686.7" cy="125.6" r="14.0" fill="#3498db" opacity="0.88" />
  <circle cx="680.3" cy="111.2" r="14.0" fill="#3498db" opacity="0.88" />
  <circle cx="719.2" cy="50.0" r="10.4" fill="#e74c3c" opacity="0.88" />
  <circle cx="50.0" cy="237.7" r="12.2" fill="#3498db" opacity="0.88" />
  <circle cx="705.7" cy="99.0" r="10.4" fill="#e74c3c" opacity="0.88" />
  <circle cx="328.6" cy="473.3" r="12.2" fill="#3498db" opacity="0.88" />
  <circle cx="356.2" cy="472.4" r="11.3" fill="#3498db" opacity="0.88" />
  <circle cx="581.9" cy="249.7" r="5.9" fill="#3498db" opacity="0.88" />
  <circle cx="757.7" cy="173.3" r="12.2" fill="#9b59b6" opacity="0.88" />
  <circle cx="703.6" cy="164.8" r="15.8" fill="#9b59b6" opacity="0.88" />
  <circle cx="687.8" cy="181.0" r="8.6" fill="#9b59b6" opacity="0.88" />
  <circle cx="775.6" cy="121.8" r="5" fill="#2ecc71" opacity="0.88" />
  <circle cx="776.6" cy="108.6" r="5.9" fill="#e74c3c" opacity="0.88" />
  <circle cx="740.6" cy="188.4" r="11.3" fill="#e67e22" opacity="0.88" />
  <circle cx="682.2" cy="163.4" r="16" fill="#2ecc71" opacity="0.88" />
  <circle cx="501.4" cy="282.5" r="6.8" fill="#9b59b6" opacity="0.88" />
  <circle cx="173.6" cy="409.0" r="5" fill="#7f8c8d" opacity="0.88" />
  <circle cx="708.5" cy="151.3" r="12.2" fill="#3498db" opacity="0.88" />
  <circle cx="746.4" cy="149.2" r="13.1" fill="#9b59b6" opacity="0.88" />
  <circle cx="720.0" cy="117.9" r="9.5" fill="#7f8c8d" opacity="0.88" />
  <circle cx="790.3" cy="468.9" r="5" fill="#7f8c8d" opacity="0.88" />
  <circle cx="742.4" cy="122.6" r="7.7" fill="#7f8c8d" opacity="0.88" />
  <circle cx="720.7" cy="150.0" r="9.5" fill="#9b59b6" opacity="0.88" />
  <circle cx="731.1" cy="164.7" r="15.8" fill="#2ecc71" opacity="0.88" />
  <circle cx="724.4" cy="139.7" r="7.7" fill="#9b59b6" opacity="0.88" />
  <circle cx="114.9" cy="74.0" r="7.7" fill="#e67e22" opacity="0.88" />
  <circle cx="828.3" cy="75.7" r="7.7" fill="#3498db" opacity="0.88" />
  <circle cx="795.6" cy="116.9" r="5.9" fill="#7f8c8d" opacity="0.88" />
  <circle cx="463.6" cy="166.2" r="6.8" fill="#e67e22" opacity="0.88" />
  <circle cx="486.0" cy="146.4" r="6.8" fill="#e67e22" opacity="0.88" />
  <circle cx="750.8" cy="134.7" r="10.4" fill="#7f8c8d" opacity="0.88" />
  <circle cx="530.9" cy="137.2" r="11.3" fill="#e67e22" opacity="0.88" />
  <circle cx="83.9" cy="88.2" r="5.9" fill="#e67e22" opacity="0.88" />
  <circle cx="719.6" cy="172.9" r="6.8" fill="#9b59b6" opacity="0.88" />
  <circle cx="791.2" cy="142.7" r="6.8" fill="#7f8c8d" opacity="0.88" />
  <circle cx="877.7" cy="153.4" r="5" fill="#2ecc71" opacity="0.88" />
  <circle cx="910.0" cy="154.7" r="7.7" fill="#2ecc71" opacity="0.88" />
  <circle cx="759.9" cy="101.8" r="5.9" fill="#e74c3c" opacity="0.88" />
  <circle cx="755.7" cy="60.6" r="10.4" fill="#e74c3c" opacity="0.88" />
  <circle cx="732.3" cy="120.6" r="5.9" fill="#7f8c8d" opacity="0.88" />
  <circle cx="637.1" cy="500.0" r="5" fill="#7f8c8d" opacity="0.88" />
  <rect x="671.1" y="201.7" width="124.4" height="15" fill="#ffffff" opacity="0.75" rx="2" />
  <text x="672.1" y="212.7" font-family="system-ui, -apple-system, sans-serif" font-size="12" fill="#1f2328" text-anchor="start">tinyland-huskycat</text>
  <rect x="607.2" y="112.5" width="59.6" height="15" fill="#ffffff" opacity="0.75" rx="2" />
  <text x="608.2" y="123.5" font-family="system-ui, -apple-system, sans-serif" font-size="12" fill="#1f2328" text-anchor="start">gnucashr</text>
  <rect x="559.1" y="50.7" width="88.4" height="15" fill="#ffffff" opacity="0.75" rx="2" />
  <text x="560.1" y="61.7" font-family="system-ui, -apple-system, sans-serif" font-size="12" fill="#1f2328" text-anchor="start">waifu-mirror</text>
  <rect x="643.4" y="103.8" width="81.2" height="15" fill="#ffffff" opacity="0.75" rx="2" />
  <text x="644.4" y="114.8" font-family="system-ui, -apple-system, sans-serif" font-size="12" fill="#1f2328" text-anchor="start">tailnet-acl</text>
  <rect x="682.7" y="23.3" width="45.2" height="15" fill="#ffffff" opacity="0.75" rx="2" />
  <text x="683.7" y="34.3" font-family="system-ui, -apple-system, sans-serif" font-size="12" fill="#1f2328" text-anchor="start">XoxdWM</text>
  <rect x="651.8" y="125.8" width="117.2" height="15" fill="#ffffff" opacity="0.75" rx="2" />
  <text x="652.8" y="136.8" font-family="system-ui, -apple-system, sans-serif" font-size="12" fill="#1f2328" text-anchor="start">GloriousFlywheel</text>
  <rect x="690.2" y="77.1" width="203.6" height="15" fill="#ffffff" opacity="0.75" rx="2" />
  <text x="691.2" y="88.1" font-family="system-ui, -apple-system, sans-serif" font-size="12" fill="#1f2328" text-anchor="start">winrm-molecule-forkbomb-demo</text>
  <rect x="648.4" y="187.4" width="74.0" height="15" fill="#ffffff" opacity="0.75" rx="2" />
  <text x="649.4" y="198.4" font-family="system-ui, -apple-system, sans-serif" font-size="12" fill="#1f2328" text-anchor="start">tummycrypt</text>
  <rect x="739.6" y="-2.3" width="110.0" height="15" fill="#ffffff" opacity="0.75" rx="2" />
  <text x="740.6" y="8.7" font-family="system-ui, -apple-system, sans-serif" font-size="12" fill="#1f2328" text-anchor="start">hiberpower-ntfs</text>
  <rect x="627.6" y="95.4" width="16.4" height="15" fill="#ffffff" opacity="0.75" rx="2" />
  <text x="628.6" y="106.4" font-family="system-ui, -apple-system, sans-serif" font-size="12" fill="#1f2328" text-anchor="start">pp</text>
  <rect x="584.7" y="9.7" width="117.2" height="15" fill="#ffffff" opacity="0.75" rx="2" />
  <text x="585.7" y="20.7" font-family="system-ui, -apple-system, sans-serif" font-size="12" fill="#1f2328" text-anchor="start">tinyland-cleanup</text>
  <rect x="684.1" y="38.3" width="66.8" height="15" fill="#ffffff" opacity="0.75" rx="2" />
  <text x="685.1" y="49.3" font-family="system-ui, -apple-system, sans-serif" font-size="12" fill="#1f2328" text-anchor="start">betterkvm</text>
  <rect x="610.7" y="155.9" width="131.6" height="15" fill="#ffffff" opacity="0.75" rx="2" />
  <text x="611.7" y="166.9" font-family="system-ui, -apple-system, sans-serif" font-size="12" fill="#1f2328" text-anchor="start">aperture-bootstrap</text>
  <rect x="630.1" y="141.5" width="102.8" height="15" fill="#ffffff" opacity="0.75" rx="2" />
  <text x="631.1" y="152.5" font-family="system-ui, -apple-system, sans-serif" font-size="12" fill="#1f2328" text-anchor="start">tinyland-infra</text>
  <rect x="684.1" y="47.8" width="52.4" height="15" fill="#ffffff" opacity="0.75" rx="2" />
  <text x="685.1" y="58.8" font-family="system-ui, -apple-system, sans-serif" font-size="12" fill="#1f2328" text-anchor="start">LA-Mesh</text>
  <rect x="675.7" y="299.6" width="131.6" height="15" fill="#ffffff" opacity="0.75" rx="2" />
  <text x="676.7" y="310.6" font-family="system-ui, -apple-system, sans-serif" font-size="12" fill="#1f2328" text-anchor="start">pixelwise-research</text>
  <rect x="742.9" y="217.5" width="95.6" height="15" fill="#ffffff" opacity="0.75" rx="2" />
  <text x="743.9" y="228.5" font-family="system-ui, -apple-system, sans-serif" font-size="12" fill="#1f2328" text-anchor="start">GIS_Shortcuts</text>
  <rect x="702.7" y="90.7" width="138.8" height="15" fill="#ffffff" opacity="0.75" rx="2" />
  <text x="703.7" y="101.7" font-family="system-ui, -apple-system, sans-serif" font-size="12" fill="#1f2328" text-anchor="start">Ansible-DAG-Harness</text>
  <rect x="696.3" y="-43.4" width="95.6" height="15" fill="#ffffff" opacity="0.75" rx="2" />
  <text x="697.3" y="-32.4" font-family="system-ui, -apple-system, sans-serif" font-size="12" fill="#1f2328" text-anchor="start">DarwinNicUtil</text>
  <rect x="731.6" y="-56.4" width="66.8" height="15" fill="#ffffff" opacity="0.75" rx="2" />
  <text x="732.6" y="-45.4" font-family="system-ui, -apple-system, sans-serif" font-size="12" fill="#1f2328" text-anchor="start">quickchpl</text>
  <rect x="64.2" y="230.9" width="131.6" height="15" fill="#ffffff" opacity="0.75" rx="2" />
  <text x="65.2" y="241.9" font-family="system-ui, -apple-system, sans-serif" font-size="12" fill="#1f2328" text-anchor="start">tinyscale-mikrotik</text>
  <rect x="718.1" y="172.5" width="59.6" height="15" fill="#ffffff" opacity="0.75" rx="2" />
  <text x="719.1" y="183.5" font-family="system-ui, -apple-system, sans-serif" font-size="12" fill="#1f2328" text-anchor="start">aoc-2025</text>
  <rect x="342.8" y="474.6" width="66.8" height="15" fill="#ffffff" opacity="0.75" rx="2" />
  <text x="343.8" y="485.6" font-family="system-ui, -apple-system, sans-serif" font-size="12" fill="#1f2328" text-anchor="start">searchies</text>
  <rect x="369.5" y="457.6" width="59.6" height="15" fill="#ffffff" opacity="0.75" rx="2" />
  <text x="370.5" y="468.6" font-family="system-ui, -apple-system, sans-serif" font-size="12" fill="#1f2328" text-anchor="start">ts-caddy</text>
  <rect x="589.8" y="242.9" width="66.8" height="15" fill="#ffffff" opacity="0.75" rx="2" />
  <text x="590.8" y="253.9" font-family="system-ui, -apple-system, sans-serif" font-size="12" fill="#1f2328" text-anchor="start">HCI-notes</text>
  <rect x="771.9" y="54.9" width="88.4" height="15" fill="#ffffff" opacity="0.75" rx="2" />
  <text x="772.9" y="65.9" font-family="system-ui, -apple-system, sans-serif" font-size="12" fill="#1f2328" text-anchor="start">FastPhotoAPI</text>
  <rect x="721.4" y="206.1" width="81.2" height="15" fill="#ffffff" opacity="0.75" rx="2" />
  <text x="722.4" y="217.1" font-family="system-ui, -apple-system, sans-serif" font-size="12" fill="#1f2328" text-anchor="start">timberbuddy</text>
  <rect x="698.4" y="287.3" width="81.2" height="15" fill="#ffffff" opacity="0.75" rx="2" />
  <text x="699.4" y="298.3" font-family="system-ui, -apple-system, sans-serif" font-size="12" fill="#1f2328" text-anchor="start">tetrahedron</text>
  <rect x="782.6" y="174.0" width="95.6" height="15" fill="#ffffff" opacity="0.75" rx="2" />
  <text x="783.6" y="185.0" font-family="system-ui, -apple-system, sans-serif" font-size="12" fill="#1f2328" text-anchor="start">AccuWixReport</text>
  <rect x="784.5" y="127.5" width="95.6" height="15" fill="#ffffff" opacity="0.75" rx="2" />
  <text x="785.5" y="138.5" font-family="system-ui, -apple-system, sans-serif" font-size="12" fill="#1f2328" text-anchor="start">Jess-AOC-2023</text>
  <rect x="753.9" y="314.3" width="81.2" height="15" fill="#ffffff" opacity="0.75" rx="2" />
  <text x="754.9" y="325.3" font-family="system-ui, -apple-system, sans-serif" font-size="12" fill="#1f2328" text-anchor="start">TurkeyProbe</text>
  <rect x="700.2" y="-12.1" width="153.2" height="15" fill="#ffffff" opacity="0.75" rx="2" />
  <text x="701.2" y="-1.1" font-family="system-ui, -apple-system, sans-serif" font-size="12" fill="#1f2328" text-anchor="start">MerlinAI-Interpreters</text>
  <rect x="510.2" y="275.7" width="110.0" height="15" fill="#ffffff" opacity="0.75" rx="2" />
  <text x="511.2" y="286.7" font-family="system-ui, -apple-system, sans-serif" font-size="12" fill="#1f2328" text-anchor="start">IntroTypeScript</text>
  <rect x="180.6" y="402.2" width="110.0" height="15" fill="#ffffff" opacity="0.75" rx="2" />
  <text x="181.6" y="413.2" font-family="system-ui, -apple-system, sans-serif" font-size="12" fill="#1f2328" text-anchor="start">IG-3DP-Profiles</text>
  <rect x="722.7" y="118.4" width="66.8" height="15" fill="#ffffff" opacity="0.75" rx="2" />
  <text x="723.7" y="129.4" font-family="system-ui, -apple-system, sans-serif" font-size="12" fill="#1f2328" text-anchor="start">DLA-Flask</text>
  <rect x="761.5" y="82.7" width="38.0" height="15" fill="#ffffff" opacity="0.75" rx="2" />
  <text x="762.5" y="93.7" font-family="system-ui, -apple-system, sans-serif" font-size="12" fill="#1f2328" text-anchor="start">USBoN</text>
  <rect x="731.5" y="242.3" width="203.6" height="15" fill="#ffffff" opacity="0.75" rx="2" />
  <text x="732.5" y="253.3" font-family="system-ui, -apple-system, sans-serif" font-size="12" fill="#1f2328" text-anchor="start">chrome-remote-desktop-budgie</text>
  <rect x="658.9" y="462.1" width="124.4" height="15" fill="#ffffff" opacity="0.75" rx="2" />
  <text x="782.3" y="473.1" font-family="system-ui, -apple-system, sans-serif" font-size="12" fill="#1f2328" text-anchor="end">OminousBeepingApp</text>
  <rect x="752.1" y="229.6" width="138.8" height="15" fill="#ffffff" opacity="0.75" rx="2" />
  <text x="753.1" y="240.6" font-family="system-ui, -apple-system, sans-serif" font-size="12" fill="#1f2328" text-anchor="start">mo-image-identifier</text>
  <rect x="732.2" y="9.5" width="196.4" height="15" fill="#ffffff" opacity="0.75" rx="2" />
  <text x="733.2" y="20.5" font-family="system-ui, -apple-system, sans-serif" font-size="12" fill="#1f2328" text-anchor="start">squirrel-leaflet-annotation</text>
  <rect x="748.9" y="165.0" width="74.0" height="15" fill="#ffffff" opacity="0.75" rx="2" />
  <text x="749.9" y="176.0" font-family="system-ui, -apple-system, sans-serif" font-size="12" fill="#1f2328" text-anchor="start">Shiny-Apps</text>
  <rect x="734.1" y="273.3" width="138.8" height="15" fill="#ffffff" opacity="0.75" rx="2" />
  <text x="735.1" y="284.3" font-family="system-ui, -apple-system, sans-serif" font-size="12" fill="#1f2328" text-anchor="start">bbox-jest-puppeteer</text>
  <rect x="124.6" y="67.2" width="88.4" height="15" fill="#ffffff" opacity="0.75" rx="2" />
  <text x="125.6" y="78.2" font-family="system-ui, -apple-system, sans-serif" font-size="12" fill="#1f2328" text-anchor="start">DoverDisplay</text>
  <rect x="737.4" y="23.7" width="81.2" height="15" fill="#ffffff" opacity="0.75" rx="2" />
  <text x="817.6" y="34.7" font-family="system-ui, -apple-system, sans-serif" font-size="12" fill="#1f2328" text-anchor="end">LeafletSync</text>
  <rect x="620.1" y="65.7" width="167.6" height="15" fill="#ffffff" opacity="0.75" rx="2" />
  <text x="786.7" y="76.7" font-family="system-ui, -apple-system, sans-serif" font-size="12" fill="#1f2328" text-anchor="end">misc-roi-distance-notes</text>
  <rect x="472.4" y="186.7" width="138.8" height="15" fill="#ffffff" opacity="0.75" rx="2" />
  <text x="473.4" y="197.7" font-family="system-ui, -apple-system, sans-serif" font-size="12" fill="#1f2328" text-anchor="start">Arduino_Coil_Winder</text>
  <rect x="494.8" y="139.6" width="30.8" height="15" fill="#ffffff" opacity="0.75" rx="2" />
  <text x="495.8" y="150.6" font-family="system-ui, -apple-system, sans-serif" font-size="12" fill="#1f2328" text-anchor="start">momo</text>
  <rect x="763.2" y="137.7" width="38.0" height="15" fill="#ffffff" opacity="0.75" rx="2" />
  <text x="764.2" y="148.7" font-family="system-ui, -apple-system, sans-serif" font-size="12" fill="#1f2328" text-anchor="start">clipi</text>
  <rect x="544.2" y="170.5" width="110.0" height="15" fill="#ffffff" opacity="0.75" rx="2" />
  <text x="545.2" y="181.5" font-family="system-ui, -apple-system, sans-serif" font-size="12" fill="#1f2328" text-anchor="start">AeroTaz5_hotfix</text>
  <rect x="91.8" y="81.4" width="110.0" height="15" fill="#ffffff" opacity="0.75" rx="2" />
  <text x="92.8" y="92.4" font-family="system-ui, -apple-system, sans-serif" font-size="12" fill="#1f2328" text-anchor="start">Funmat-HT-Notes</text>
  <rect x="728.4" y="191.0" width="81.2" height="15" fill="#ffffff" opacity="0.75" rx="2" />
  <text x="729.4" y="202.0" font-family="system-ui, -apple-system, sans-serif" font-size="12" fill="#1f2328" text-anchor="start">static-site</text>
  <rect x="686.8" y="256.3" width="95.6" height="15" fill="#ffffff" opacity="0.75" rx="2" />
  <text x="781.4" y="267.3" font-family="system-ui, -apple-system, sans-serif" font-size="12" fill="#1f2328" text-anchor="end">Flask-Manager</text>
  <rect x="760.7" y="154.7" width="110.0" height="15" fill="#ffffff" opacity="0.75" rx="2" />
  <text x="869.7" y="165.7" font-family="system-ui, -apple-system, sans-serif" font-size="12" fill="#1f2328" text-anchor="end">FieldProcessing</text>
  <rect x="819.1" y="189.3" width="81.2" height="15" fill="#ffffff" opacity="0.75" rx="2" />
  <text x="899.3" y="200.3" font-family="system-ui, -apple-system, sans-serif" font-size="12" fill="#1f2328" text-anchor="end">rJDKmanager</text>
  <rect x="767.8" y="40.7" width="59.6" height="15" fill="#ffffff" opacity="0.75" rx="2" />
  <text x="768.8" y="51.7" font-family="system-ui, -apple-system, sans-serif" font-size="12" fill="#1f2328" text-anchor="start">tagnotes</text>
  <rect x="768.1" y="-29.1" width="81.2" height="15" fill="#ffffff" opacity="0.75" rx="2" />
  <text x="769.1" y="-18.1" font-family="system-ui, -apple-system, sans-serif" font-size="12" fill="#1f2328" text-anchor="start">ChapelTests</text>
  <rect x="740.2" y="101.4" width="88.4" height="15" fill="#ffffff" opacity="0.75" rx="2" />
  <text x="741.2" y="112.4" font-family="system-ui, -apple-system, sans-serif" font-size="12" fill="#1f2328" text-anchor="start">Xfinity-WiFi</text>
  <rect x="644.1" y="493.2" width="66.8" height="15" fill="#ffffff" opacity="0.75" rx="2" />
  <text x="645.1" y="504.2" font-family="system-ui, -apple-system, sans-serif" font-size="12" fill="#1f2328" text-anchor="start">home-wiki</text>
  <rect x="793" y="36" width="155" height="120" rx="6" fill="#f6f8fa" stroke="#d0d7de" stroke-width="1" opacity="0.95" />
  <circle cx="810" cy="52" r="5" fill="#e74c3c" opacity="0.88" />
  <text x="820" y="56" font-family="system-ui, -apple-system, sans-serif" font-size="10" fill="#1f2328">Languages &amp; Compilers</text>
  <circle cx="810" cy="69" r="5" fill="#3498db" opacity="0.88" />
  <text x="820" y="73" font-family="system-ui, -apple-system, sans-serif" font-size="10" fill="#1f2328">Infrastructure &amp; DevOps</text>
  <circle cx="810" cy="86" r="5" fill="#e67e22" opacity="0.88" />
  <text x="820" y="90" font-family="system-ui, -apple-system, sans-serif" font-size="10" fill="#1f2328">Hardware &amp; Maker</text>
  <circle cx="810" cy="103" r="5" fill="#2ecc71" opacity="0.88" />
  <text x="820" y="107" font-family="system-ui, -apple-system, sans-serif" font-size="10" fill="#1f2328">ML &amp; Data</text>
  <circle cx="810" cy="120" r="5" fill="#9b59b6" opacity="0.88" />
  <text x="820" y="124" font-family="system-ui, -apple-system, sans-serif" font-size="10" fill="#1f2328">Web &amp; Apps</text>
  <circle cx="810" cy="137" r="5" fill="#7f8c8d" opacity="0.88" />
  <text x="820" y="141" font-family="system-ui, -apple-system, sans-serif" font-size="10" fill="#1f2328">Other</text>
  <text x="870" y="150" font-family="system-ui, -apple-system, sans-serif" font-size="8" fill="#656d76" text-anchor="middle">58 repos · 249 edges</text>
</svg>