<svg xmlns="http://www.w3.org/2000/svg" width="960" height="600" viewBox="0 0 960 600">
  <rect width="960" height="600" fill="#0d1117" rx="8" />
  <text x="480" y="24" font-family="system-ui, -apple-system, sans-serif" font-size="13" fill="#8b949e" text-anchor="middle" font-weight="500">Repo Relationship Graph &#x2014; Pairwise Topic &amp; Language Similarity</text>
  <line x1="50" y1="550" x2="910" y2="550" stroke="#484f58" stroke-width="0.5" opacity="0.5" />
  <text x="50" y="570" font-family="system-ui, -apple-system, sans-serif" font-size="9" fill="#8b949e" opacity="0.6">Updated daily by GitHub Actions</text>
  <text x="50" y="588" font-family="system-ui, -apple-system, sans-serif" font-size="9" fill="#8b949e" opacity="0.6">networkx spring_layout · Jaccard similarity &gt; 0.15</text>
  <text x="910" y="570" font-family="system-ui, -apple-system, sans-serif" font-size="9" fill="#8b949e" text-anchor="end" opacity="0.6">54 repos · 207 edges</text>
  <line x1="517.5" y1="324.1" x2="476.3" y2="308.2" stroke="#6e7681" stroke-width="1.0" opacity="0.24" />
  <line x1="517.5" y1="324.1" x2="481.3" y2="332.0" stroke="#6e7681" stroke-width="1.1" opacity="0.28" />
  <line x1="517.5" y1="324.1" x2="524.6" y2="311.7" stroke="#6e7681" stroke-width="1.1" opacity="0.31" />
  <line x1="517.5" y1="324.1" x2="501.9" y2="336.9" stroke="#6e7681" stroke-width="1.1" opacity="0.31" />
  <line x1="517.5" y1="324.1" x2="502.8" y2="325.0" stroke="#6e7681" stroke-width="1.2" opacity="0.37" />
  <line x1="517.5" y1="324.1" x2="488.8" y2="320.4" stroke="#6e7681" stroke-width="1.1" opacity="0.31" />
  <line x1="517.5" y1="324.1" x2="450.0" y2="316.5" stroke="#6e7681" stroke-width="1.0" opacity="0.26" />
  <line x1="517.5" y1="324.1" x2="489.1" y2="299.3" stroke="#6e7681" stroke-width="1.0" opacity="0.22" />
  <line x1="517.5" y1="324.1" x2="600.2" y2="310.1" stroke="#6e7681" stroke-width="0.9" opacity="0.18" />
  <line x1="517.5" y1="324.1" x2="571.0" y2="337.8" stroke="#6e7681" stroke-width="0.9" opacity="0.20" />
  <line x1="517.5" y1="324.1" x2="556.7" y2="332.3" stroke="#6e7681" stroke-width="1.0" opacity="0.24" />
  <line x1="517.5" y1="324.1" x2="527.0" y2="353.6" stroke="#6e7681" stroke-width="0.9" opacity="0.20" />
  <line x1="517.5" y1="324.1" x2="537.4" y2="346.8" stroke="#6e7681" stroke-width="1.0" opacity="0.24" />
  <line x1="517.5" y1="324.1" x2="573.5" y2="349.5" stroke="#6e7681" stroke-width="0.9" opacity="0.18" />
  <line x1="517.5" y1="324.1" x2="546.9" y2="332.8" stroke="#6e7681" stroke-width="1.1" opacity="0.31" />
  <line x1="476.3" y1="308.2" x2="481.3" y2="332.0" stroke="#6e7681" stroke-width="1.0" opacity="0.24" />
  <line x1="476.3" y1="308.2" x2="458.0" y2="291.9" stroke="#6e7681" stroke-width="2.0" opacity="0.80" />
  <line x1="476.3" y1="308.2" x2="524.6" y2="311.7" stroke="#6e7681" stroke-width="1.0" opacity="0.22" />
  <line x1="476.3" y1="308.2" x2="501.9" y2="336.9" stroke="#6e7681" stroke-width="0.9" opacity="0.17" />
  <line x1="476.3" y1="308.2" x2="502.8" y2="325.0" stroke="#6e7681" stroke-width="0.9" opacity="0.20" />
  <line x1="476.3" y1="308.2" x2="488.8" y2="320.4" stroke="#6e7681" stroke-width="0.9" opacity="0.17" />
  <line x1="476.3" y1="308.2" x2="450.0" y2="316.5" stroke="#6e7681" stroke-width="1.0" opacity="0.23" />
  <line x1="476.3" y1="308.2" x2="489.1" y2="299.3" stroke="#6e7681" stroke-width="1.5" opacity="0.55" />
  <line x1="476.3" y1="308.2" x2="546.9" y2="332.8" stroke="#6e7681" stroke-width="1.0" opacity="0.22" />
  <line x1="501.2" y1="425.3" x2="491.8" y2="411.8" stroke="#6e7681" stroke-width="1.0" opacity="0.26" />
  <line x1="501.2" y1="425.3" x2="525.5" y2="379.8" stroke="#6e7681" stroke-width="0.9" opacity="0.20" />
  <line x1="501.2" y1="425.3" x2="492.0" y2="386.0" stroke="#6e7681" stroke-width="1.0" opacity="0.22" />
  <line x1="481.3" y1="332.0" x2="524.6" y2="311.7" stroke="#6e7681" stroke-width="0.9" opacity="0.17" />
  <line x1="481.3" y1="332.0" x2="501.9" y2="336.9" stroke="#6e7681" stroke-width="1.0" opacity="0.22" />
  <line x1="481.3" y1="332.0" x2="502.8" y2="325.0" stroke="#6e7681" stroke-width="1.0" opacity="0.24" />
  <line x1="481.3" y1="332.0" x2="488.8" y2="320.4" stroke="#6e7681" stroke-width="1.0" opacity="0.22" />
  <line x1="481.3" y1="332.0" x2="450.0" y2="316.5" stroke="#6e7681" stroke-width="0.9" opacity="0.20" />
  <line x1="481.3" y1="332.0" x2="489.1" y2="299.3" stroke="#6e7681" stroke-width="1.0" opacity="0.22" />
  <line x1="481.3" y1="332.0" x2="488.8" y2="368.2" stroke="#6e7681" stroke-width="0.9" opacity="0.19" />
  <line x1="481.3" y1="332.0" x2="527.0" y2="353.6" stroke="#6e7681" stroke-width="0.9" opacity="0.21" />
  <line x1="481.3" y1="332.0" x2="537.4" y2="346.8" stroke="#6e7681" stroke-width="1.0" opacity="0.24" />
  <line x1="481.3" y1="332.0" x2="546.9" y2="332.8" stroke="#6e7681" stroke-width="0.9" opacity="0.17" />
  <line x1="521.1" y1="392.3" x2="525.5" y2="379.8" stroke="#6e7681" stroke-width="0.9" opacity="0.18" />
  <line x1="521.1" y1="392.3" x2="492.0" y2="386.0" stroke="#6e7681" stroke-width="0.9" opacity="0.18" />
  <line x1="521.1" y1="392.3" x2="527.0" y2="353.6" stroke="#6e7681" stroke-width="0.9" opacity="0.17" />
  <line x1="521.1" y1="392.3" x2="525.8" y2="368.6" stroke="#6e7681" stroke-width="1.3" opacity="0.42" />
  <line x1="521.1" y1="392.3" x2="537.4" y2="346.8" stroke="#6e7681" stroke-width="0.9" opacity="0.19" />
  <line x1="521.1" y1="392.3" x2="510.8" y2="375.2" stroke="#6e7681" stroke-width="0.9" opacity="0.21" />
  <line x1="458.0" y1="291.9" x2="524.6" y2="311.7" stroke="#6e7681" stroke-width="1.1" opacity="0.28" />
  <line x1="458.0" y1="291.9" x2="450.0" y2="316.5" stroke="#6e7681" stroke-width="0.9" opacity="0.17" />
  <line x1="458.0" y1="291.9" x2="489.1" y2="299.3" stroke="#6e7681" stroke-width="1.2" opacity="0.37" />
  <line x1="524.6" y1="311.7" x2="501.9" y2="336.9" stroke="#6e7681" stroke-width="0.9" opacity="0.20" />
  <line x1="524.6" y1="311.7" x2="502.8" y2="325.0" stroke="#6e7681" stroke-width="1.0" opacity="0.24" />
  <line x1="524.6" y1="311.7" x2="488.8" y2="320.4" stroke="#6e7681" stroke-width="0.9" opacity="0.20" />
  <line x1="524.6" y1="311.7" x2="489.1" y2="299.3" stroke="#6e7681" stroke-width="0.9" opacity="0.18" />
  <line x1="524.6" y1="311.7" x2="556.5" y2="320.1" stroke="#6e7681" stroke-width="1.5" opacity="0.55" />
  <line x1="524.6" y1="311.7" x2="573.5" y2="317.5" stroke="#6e7681" stroke-width="1.2" opacity="0.37" />
  <line x1="524.6" y1="311.7" x2="556.7" y2="332.3" stroke="#6e7681" stroke-width="1.0" opacity="0.22" />
  <line x1="524.6" y1="311.7" x2="537.4" y2="346.8" stroke="#6e7681" stroke-width="1.0" opacity="0.22" />
  <line x1="524.6" y1="311.7" x2="554.8" y2="308.9" stroke="#6e7681" stroke-width="1.2" opacity="0.37" />
  <line x1="524.6" y1="311.7" x2="531.6" y2="323.6" stroke="#6e7681" stroke-width="1.1" opacity="0.28" />
  <line x1="524.6" y1="311.7" x2="575.7" y2="308.7" stroke="#6e7681" stroke-width="1.2" opacity="0.37" />
  <line x1="524.6" y1="311.7" x2="546.9" y2="332.8" stroke="#6e7681" stroke-width="1.2" opacity="0.37" />
  <line x1="604.9" y1="352.9" x2="556.7" y2="332.3" stroke="#6e7681" stroke-width="0.9" opacity="0.18" />
  <line x1="604.9" y1="352.9" x2="537.4" y2="346.8" stroke="#6e7681" stroke-width="1.1" opacity="0.30" />
  <line x1="604.9" y1="352.9" x2="546.9" y2="332.8" stroke="#6e7681" stroke-width="1.0" opacity="0.22" />
  <line x1="501.9" y1="336.9" x2="502.8" y2="325.0" stroke="#6e7681" stroke-width="1.1" opacity="0.28" />
  <line x1="501.9" y1="336.9" x2="488.8" y2="320.4" stroke="#6e7681" stroke-width="1.0" opacity="0.24" />
  <line x1="501.9" y1="336.9" x2="450.0" y2="316.5" stroke="#6e7681" stroke-width="0.9" opacity="0.17" />
  <line x1="501.9" y1="336.9" x2="534.3" y2="362.2" stroke="#6e7681" stroke-width="0.9" opacity="0.19" />
  <line x1="501.9" y1="336.9" x2="561.7" y2="364.2" stroke="#6e7681" stroke-width="0.9" opacity="0.18" />
  <line x1="501.9" y1="336.9" x2="556.7" y2="332.3" stroke="#6e7681" stroke-width="0.9" opacity="0.17" />
  <line x1="501.9" y1="336.9" x2="537.4" y2="346.8" stroke="#6e7681" stroke-width="0.9" opacity="0.17" />
  <line x1="501.9" y1="336.9" x2="546.9" y2="332.8" stroke="#6e7681" stroke-width="0.9" opacity="0.20" />
  <line x1="502.8" y1="325.0" x2="488.8" y2="320.4" stroke="#6e7681" stroke-width="1.1" opacity="0.28" />
  <line x1="502.8" y1="325.0" x2="450.0" y2="316.5" stroke="#6e7681" stroke-width="0.9" opacity="0.18" />
  <line x1="502.8" y1="325.0" x2="489.1" y2="299.3" stroke="#6e7681" stroke-width="0.9" opacity="0.18" />
  <line x1="502.8" y1="325.0" x2="571.0" y2="337.8" stroke="#6e7681" stroke-width="0.9" opacity="0.17" />
  <line x1="502.8" y1="325.0" x2="556.7" y2="332.3" stroke="#6e7681" stroke-width="0.9" opacity="0.20" />
  <line x1="502.8" y1="325.0" x2="527.0" y2="353.6" stroke="#6e7681" stroke-width="0.9" opacity="0.17" />
  <line x1="502.8" y1="325.0" x2="537.4" y2="346.8" stroke="#6e7681" stroke-width="0.9" opacity="0.20" />
  <line x1="502.8" y1="325.0" x2="546.9" y2="332.8" stroke="#6e7681" stroke-width="1.0" opacity="0.24" />
  <line x1="488.8" y1="320.4" x2="450.0" y2="316.5" stroke="#6e7681" stroke-width="0.9" opacity="0.17" />
  <line x1="488.8" y1="320.4" x2="556.7" y2="332.3" stroke="#6e7681" stroke-width="0.9" opacity="0.17" />
  <line x1="488.8" y1="320.4" x2="537.4" y2="346.8" stroke="#6e7681" stroke-width="0.9" opacity="0.17" />
  <line x1="488.8" y1="320.4" x2="546.9" y2="332.8" stroke="#6e7681" stroke-width="0.9" opacity="0.20" />
  <line x1="491.8" y1="411.8" x2="525.5" y2="379.8" stroke="#6e7681" stroke-width="1.0" opacity="0.26" />
  <line x1="491.8" y1="411.8" x2="492.0" y2="386.0" stroke="#6e7681" stroke-width="1.1" opacity="0.31" />
  <line x1="491.8" y1="411.8" x2="510.8" y2="375.2" stroke="#6e7681" stroke-width="0.9" opacity="0.18" />
  <line x1="489.1" y1="299.3" x2="512.4" y2="279.7" stroke="#6e7681" stroke-width="1.0" opacity="0.22" />
  <line x1="489.1" y1="299.3" x2="546.9" y2="332.8" stroke="#6e7681" stroke-width="0.9" opacity="0.18" />
  <line x1="665.3" y1="295.2" x2="600.2" y2="310.1" stroke="#6e7681" stroke-width="1.3" opacity="0.44" />
  <line x1="665.3" y1="295.2" x2="634.6" y2="288.6" stroke="#6e7681" stroke-width="0.9" opacity="0.18" />
  <line x1="600.2" y1="310.1" x2="573.5" y2="317.5" stroke="#6e7681" stroke-width="1.1" opacity="0.31" />
  <line x1="600.2" y1="310.1" x2="571.0" y2="337.8" stroke="#6e7681" stroke-width="0.9" opacity="0.20" />
  <line x1="600.2" y1="310.1" x2="556.7" y2="332.3" stroke="#6e7681" stroke-width="1.0" opacity="0.24" />
  <line x1="600.2" y1="310.1" x2="527.0" y2="353.6" stroke="#6e7681" stroke-width="0.9" opacity="0.20" />
  <line x1="600.2" y1="310.1" x2="537.4" y2="346.8" stroke="#6e7681" stroke-width="1.0" opacity="0.24" />
  <line x1="600.2" y1="310.1" x2="573.5" y2="349.5" stroke="#6e7681" stroke-width="0.9" opacity="0.18" />
  <line x1="600.2" y1="310.1" x2="671.7" y2="231.2" stroke="#6e7681" stroke-width="0.9" opacity="0.17" />
  <line x1="600.2" y1="310.1" x2="575.7" y2="308.7" stroke="#6e7681" stroke-width="1.1" opacity="0.31" />
  <line x1="600.2" y1="310.1" x2="634.6" y2="288.6" stroke="#6e7681" stroke-width="1.1" opacity="0.30" />
  <line x1="600.2" y1="310.1" x2="546.9" y2="332.8" stroke="#6e7681" stroke-width="1.1" opacity="0.31" />
  <line x1="541.6" y1="50.0" x2="559.1" y2="60.2" stroke="#6e7681" stroke-width="1.6" opacity="0.60" />
  <line x1="368.2" y1="408.9" x2="492.0" y2="386.0" stroke="#6e7681" stroke-width="0.9" opacity="0.18" />
  <line x1="368.2" y1="408.9" x2="291.4" y2="407.7" stroke="#6e7681" stroke-width="1.1" opacity="0.28" />
  <line x1="498.6" y1="361.6" x2="525.5" y2="379.8" stroke="#6e7681" stroke-width="0.9" opacity="0.17" />
  <line x1="498.6" y1="361.6" x2="492.0" y2="386.0" stroke="#6e7681" stroke-width="0.9" opacity="0.18" />
  <line x1="498.6" y1="361.6" x2="534.3" y2="362.2" stroke="#6e7681" stroke-width="1.0" opacity="0.22" />
  <line x1="498.6" y1="361.6" x2="527.0" y2="353.6" stroke="#6e7681" stroke-width="1.1" opacity="0.28" />
  <line x1="498.6" y1="361.6" x2="525.8" y2="368.6" stroke="#6e7681" stroke-width="1.1" opacity="0.32" />
  <line x1="498.6" y1="361.6" x2="537.4" y2="346.8" stroke="#6e7681" stroke-width="0.9" opacity="0.20" />
  <line x1="498.6" y1="361.6" x2="510.8" y2="375.2" stroke="#6e7681" stroke-width="1.0" opacity="0.22" />
  <line x1="498.6" y1="361.6" x2="531.6" y2="323.6" stroke="#6e7681" stroke-width="1.0" opacity="0.22" />
  <line x1="525.5" y1="379.8" x2="492.0" y2="386.0" stroke="#6e7681" stroke-width="1.3" opacity="0.42" />
  <line x1="525.5" y1="379.8" x2="539.2" y2="389.8" stroke="#6e7681" stroke-width="0.9" opacity="0.18" />
  <line x1="525.5" y1="379.8" x2="488.8" y2="368.2" stroke="#6e7681" stroke-width="1.1" opacity="0.31" />
  <line x1="525.5" y1="379.8" x2="534.3" y2="362.2" stroke="#6e7681" stroke-width="1.1" opacity="0.32" />
  <line x1="525.5" y1="379.8" x2="561.7" y2="364.2" stroke="#6e7681" stroke-width="1.0" opacity="0.23" />
  <line x1="525.5" y1="379.8" x2="527.0" y2="353.6" stroke="#6e7681" stroke-width="1.2" opacity="0.39" />
  <line x1="525.5" y1="379.8" x2="525.8" y2="368.6" stroke="#6e7681" stroke-width="1.0" opacity="0.26" />
  <line x1="525.5" y1="379.8" x2="537.4" y2="346.8" stroke="#6e7681" stroke-width="1.2" opacity="0.34" />
  <line x1="525.5" y1="379.8" x2="573.5" y2="349.5" stroke="#6e7681" stroke-width="0.9" opacity="0.19" />
  <line x1="525.5" y1="379.8" x2="510.8" y2="375.2" stroke="#6e7681" stroke-width="1.0" opacity="0.25" />
  <line x1="525.5" y1="379.8" x2="546.9" y2="332.8" stroke="#6e7681" stroke-width="0.9" opacity="0.17" />
  <line x1="492.0" y1="386.0" x2="539.2" y2="389.8" stroke="#6e7681" stroke-width="1.1" opacity="0.33" />
  <line x1="492.0" y1="386.0" x2="488.8" y2="368.2" stroke="#6e7681" stroke-width="0.9" opacity="0.21" />
  <line x1="492.0" y1="386.0" x2="534.3" y2="362.2" stroke="#6e7681" stroke-width="0.9" opacity="0.18" />
  <line x1="492.0" y1="386.0" x2="527.0" y2="353.6" stroke="#6e7681" stroke-width="1.3" opacity="0.41" />
  <line x1="492.0" y1="386.0" x2="525.8" y2="368.6" stroke="#6e7681" stroke-width="1.0" opacity="0.22" />
  <line x1="492.0" y1="386.0" x2="537.4" y2="346.8" stroke="#6e7681" stroke-width="1.1" opacity="0.31" />
  <line x1="492.0" y1="386.0" x2="510.8" y2="375.2" stroke="#6e7681" stroke-width="1.7" opacity="0.66" />
  <line x1="556.5" y1="320.1" x2="573.5" y2="317.5" stroke="#6e7681" stroke-width="1.5" opacity="0.55" />
  <line x1="556.5" y1="320.1" x2="571.0" y2="337.8" stroke="#6e7681" stroke-width="0.9" opacity="0.18" />
  <line x1="556.5" y1="320.1" x2="556.7" y2="332.3" stroke="#6e7681" stroke-width="1.1" opacity="0.28" />
  <line x1="556.5" y1="320.1" x2="527.0" y2="353.6" stroke="#6e7681" stroke-width="0.9" opacity="0.18" />
  <line x1="556.5" y1="320.1" x2="537.4" y2="346.8" stroke="#6e7681" stroke-width="1.1" opacity="0.28" />
  <line x1="556.5" y1="320.1" x2="554.8" y2="308.9" stroke="#6e7681" stroke-width="1.5" opacity="0.55" />
  <line x1="556.5" y1="320.1" x2="531.6" y2="323.6" stroke="#6e7681" stroke-width="1.2" opacity="0.37" />
  <line x1="556.5" y1="320.1" x2="575.7" y2="308.7" stroke="#6e7681" stroke-width="1.5" opacity="0.55" />
  <line x1="556.5" y1="320.1" x2="546.9" y2="332.8" stroke="#6e7681" stroke-width="1.5" opacity="0.55" />
  <line x1="573.5" y1="317.5" x2="556.7" y2="332.3" stroke="#6e7681" stroke-width="1.0" opacity="0.22" />
  <line x1="573.5" y1="317.5" x2="537.4" y2="346.8" stroke="#6e7681" stroke-width="1.0" opacity="0.22" />
  <line x1="573.5" y1="317.5" x2="554.8" y2="308.9" stroke="#6e7681" stroke-width="1.2" opacity="0.37" />
  <line x1="573.5" y1="317.5" x2="531.6" y2="323.6" stroke="#6e7681" stroke-width="1.1" opacity="0.28" />
  <line x1="573.5" y1="317.5" x2="575.7" y2="308.7" stroke="#6e7681" stroke-width="1.2" opacity="0.37" />
  <line x1="573.5" y1="317.5" x2="546.9" y2="332.8" stroke="#6e7681" stroke-width="1.2" opacity="0.37" />
  <line x1="539.2" y1="389.8" x2="527.0" y2="353.6" stroke="#6e7681" stroke-width="0.9" opacity="0.18" />
  <line x1="539.2" y1="389.8" x2="525.8" y2="368.6" stroke="#6e7681" stroke-width="0.9" opacity="0.18" />
  <line x1="539.2" y1="389.8" x2="537.4" y2="346.8" stroke="#6e7681" stroke-width="1.0" opacity="0.22" />
  <line x1="539.2" y1="389.8" x2="510.8" y2="375.2" stroke="#6e7681" stroke-width="1.3" opacity="0.41" />
  <line x1="488.8" y1="368.2" x2="534.3" y2="362.2" stroke="#6e7681" stroke-width="1.1" opacity="0.31" />
  <line x1="488.8" y1="368.2" x2="527.0" y2="353.6" stroke="#6e7681" stroke-width="1.4" opacity="0.47" />
  <line x1="488.8" y1="368.2" x2="525.8" y2="368.6" stroke="#6e7681" stroke-width="0.9" opacity="0.19" />
  <line x1="488.8" y1="368.2" x2="537.4" y2="346.8" stroke="#6e7681" stroke-width="1.0" opacity="0.22" />
  <line x1="534.3" y1="362.2" x2="561.7" y2="364.2" stroke="#6e7681" stroke-width="1.1" opacity="0.29" />
  <line x1="534.3" y1="362.2" x2="571.0" y2="337.8" stroke="#6e7681" stroke-width="0.9" opacity="0.17" />
  <line x1="534.3" y1="362.2" x2="556.7" y2="332.3" stroke="#6e7681" stroke-width="0.9" opacity="0.20" />
  <line x1="534.3" y1="362.2" x2="527.0" y2="353.6" stroke="#6e7681" stroke-width="1.3" opacity="0.40" />
  <line x1="534.3" y1="362.2" x2="525.8" y2="368.6" stroke="#6e7681" stroke-width="1.0" opacity="0.24" />
  <line x1="534.3" y1="362.2" x2="537.4" y2="346.8" stroke="#6e7681" stroke-width="0.9" opacity="0.20" />
  <line x1="534.3" y1="362.2" x2="546.9" y2="332.8" stroke="#6e7681" stroke-width="1.0" opacity="0.24" />
  <line x1="561.7" y1="364.2" x2="556.7" y2="332.3" stroke="#6e7681" stroke-width="0.9" opacity="0.18" />
  <line x1="561.7" y1="364.2" x2="525.8" y2="368.6" stroke="#6e7681" stroke-width="1.0" opacity="0.23" />
  <line x1="561.7" y1="364.2" x2="537.4" y2="346.8" stroke="#6e7681" stroke-width="0.9" opacity="0.18" />
  <line x1="561.7" y1="364.2" x2="573.5" y2="349.5" stroke="#6e7681" stroke-width="1.0" opacity="0.24" />
  <line x1="561.7" y1="364.2" x2="546.9" y2="332.8" stroke="#6e7681" stroke-width="1.0" opacity="0.22" />
  <line x1="571.0" y1="337.8" x2="556.7" y2="332.3" stroke="#6e7681" stroke-width="1.1" opacity="0.28" />
  <line x1="571.0" y1="337.8" x2="527.0" y2="353.6" stroke="#6e7681" stroke-width="1.0" opacity="0.22" />
  <line x1="571.0" y1="337.8" x2="537.4" y2="346.8" stroke="#6e7681" stroke-width="1.1" opacity="0.28" />
  <line x1="571.0" y1="337.8" x2="573.5" y2="349.5" stroke="#6e7681" stroke-width="0.9" opacity="0.20" />
  <line x1="571.0" y1="337.8" x2="546.9" y2="332.8" stroke="#6e7681" stroke-width="1.2" opacity="0.37" />
  <line x1="556.7" y1="332.3" x2="527.0" y2="353.6" stroke="#6e7681" stroke-width="1.1" opacity="0.28" />
  <line x1="556.7" y1="332.3" x2="537.4" y2="346.8" stroke="#6e7681" stroke-width="1.2" opacity="0.37" />
  <line x1="556.7" y1="332.3" x2="554.8" y2="308.9" stroke="#6e7681" stroke-width="1.0" opacity="0.22" />
  <line x1="556.7" y1="332.3" x2="573.5" y2="349.5" stroke="#6e7681" stroke-width="1.0" opacity="0.24" />
  <line x1="556.7" y1="332.3" x2="531.6" y2="323.6" stroke="#6e7681" stroke-width="0.9" opacity="0.18" />
  <line x1="556.7" y1="332.3" x2="575.7" y2="308.7" stroke="#6e7681" stroke-width="1.0" opacity="0.22" />
  <line x1="556.7" y1="332.3" x2="546.9" y2="332.8" stroke="#6e7681" stroke-width="1.5" opacity="0.55" />
  <line x1="527.0" y1="353.6" x2="525.8" y2="368.6" stroke="#6e7681" stroke-width="1.1" opacity="0.29" />
  <line x1="527.0" y1="353.6" x2="537.4" y2="346.8" stroke="#6e7681" stroke-width="1.4" opacity="0.47" />
  <line x1="527.0" y1="353.6" x2="573.5" y2="349.5" stroke="#6e7681" stroke-width="0.9" opacity="0.20" />
  <line x1="527.0" y1="353.6" x2="510.8" y2="375.2" stroke="#6e7681" stroke-width="1.1" opacity="0.31" />
  <line x1="527.0" y1="353.6" x2="531.6" y2="323.6" stroke="#6e7681" stroke-width="1.1" opacity="0.31" />
  <line x1="527.0" y1="353.6" x2="546.9" y2="332.8" stroke="#6e7681" stroke-width="1.2" opacity="0.37" />
  <line x1="525.8" y1="368.6" x2="537.4" y2="346.8" stroke="#6e7681" stroke-width="1.2" opacity="0.34" />
  <line x1="525.8" y1="368.6" x2="510.8" y2="375.2" stroke="#6e7681" stroke-width="1.0" opacity="0.25" />
  <line x1="525.8" y1="368.6" x2="531.6" y2="323.6" stroke="#6e7681" stroke-width="1.0" opacity="0.25" />
  <line x1="525.8" y1="368.6" x2="546.9" y2="332.8" stroke="#6e7681" stroke-width="0.9" opacity="0.17" />
  <line x1="537.4" y1="346.8" x2="554.8" y2="308.9" stroke="#6e7681" stroke-width="1.0" opacity="0.22" />
  <line x1="537.4" y1="346.8" x2="573.5" y2="349.5" stroke="#6e7681" stroke-width="1.0" opacity="0.24" />
  <line x1="537.4" y1="346.8" x2="510.8" y2="375.2" stroke="#6e7681" stroke-width="1.3" opacity="0.44" />
  <line x1="537.4" y1="346.8" x2="531.6" y2="323.6" stroke="#6e7681" stroke-width="1.3" opacity="0.44" />
  <line x1="537.4" y1="346.8" x2="575.7" y2="308.7" stroke="#6e7681" stroke-width="1.0" opacity="0.22" />
  <line x1="537.4" y1="346.8" x2="546.9" y2="332.8" stroke="#6e7681" stroke-width="1.5" opacity="0.55" />
  <line x1="249.3" y1="111.9" x2="218.7" y2="122.7" stroke="#6e7681" stroke-width="1.0" opacity="0.22" />
  <line x1="653.0" y1="345.9" x2="546.9" y2="332.8" stroke="#6e7681" stroke-width="1.0" opacity="0.22" />
  <line x1="554.8" y1="308.9" x2="531.6" y2="323.6" stroke="#6e7681" stroke-width="1.1" opacity="0.28" />
  <line x1="554.8" y1="308.9" x2="575.7" y2="308.7" stroke="#6e7681" stroke-width="1.2" opacity="0.37" />
  <line x1="554.8" y1="308.9" x2="546.9" y2="332.8" stroke="#6e7681" stroke-width="1.2" opacity="0.37" />
  <line x1="701.5" y1="201.9" x2="687.6" y2="188.7" stroke="#6e7681" stroke-width="1.5" opacity="0.55" />
  <line x1="701.5" y1="201.9" x2="671.7" y2="231.2" stroke="#6e7681" stroke-width="1.3" opacity="0.41" />
  <line x1="687.6" y1="188.7" x2="671.7" y2="231.2" stroke="#6e7681" stroke-width="1.0" opacity="0.24" />
  <line x1="573.5" y1="349.5" x2="546.9" y2="332.8" stroke="#6e7681" stroke-width="1.1" opacity="0.31" />
  <line x1="510.8" y1="375.2" x2="531.6" y2="323.6" stroke="#6e7681" stroke-width="1.0" opacity="0.22" />
  <line x1="531.6" y1="323.6" x2="512.4" y2="279.7" stroke="#6e7681" stroke-width="1.2" opacity="0.37" />
  <line x1="531.6" y1="323.6" x2="519.2" y2="262.4" stroke="#6e7681" stroke-width="0.9" opacity="0.18" />
  <line x1="531.6" y1="323.6" x2="575.7" y2="308.7" stroke="#6e7681" stroke-width="1.1" opacity="0.28" />
  <line x1="531.6" y1="323.6" x2="546.9" y2="332.8" stroke="#6e7681" stroke-width="1.1" opacity="0.28" />
  <line x1="512.4" y1="279.7" x2="519.2" y2="262.4" stroke="#6e7681" stroke-width="1.1" opacity="0.28" />
  <line x1="575.7" y1="308.7" x2="634.6" y2="288.6" stroke="#6e7681" stroke-width="1.1" opacity="0.31" />
  <line x1="575.7" y1="308.7" x2="546.9" y2="332.8" stroke="#6e7681" stroke-width="1.2" opacity="0.37" />
  <circle cx="517.5" cy="324.1" r="14.4" fill="#e67e22" opacity="0.12" />
  <circle cx="517.5" cy="324.1" r="10.4" fill="#e67e22" opacity="0.88" />
  <circle cx="476.3" cy="308.2" r="11.7" fill="#3498db" opacity="0.12" />
  <circle cx="476.3" cy="308.2" r="7.7" fill="#3498db" opacity="0.88" />
  <circle cx="501.2" cy="425.3" r="20" fill="#3498db" opacity="0.12" />
  <circle cx="501.2" cy="425.3" r="16" fill="#3498db" opacity="0.88" />
  <circle cx="481.3" cy="332.0" r="19.8" fill="#7f8c8d" opacity="0.12" />
  <circle cx="481.3" cy="332.0" r="15.8" fill="#7f8c8d" opacity="0.88" />
  <circle cx="521.1" cy="392.3" r="20" fill="#9b59b6" opacity="0.12" />
  <circle cx="521.1" cy="392.3" r="16" fill="#9b59b6" opacity="0.88" />
  <circle cx="458.0" cy="291.9" r="10.8" fill="#3498db" opacity="0.12" />
  <circle cx="458.0" cy="291.9" r="6.8" fill="#3498db" opacity="0.88" />
  <circle cx="524.6" cy="311.7" r="9.9" fill="#3498db" opacity="0.12" />
  <circle cx="524.6" cy="311.7" r="5.9" fill="#3498db" opacity="0.88" />
  <circle cx="604.9" cy="352.9" r="17.1" fill="#e67e22" opacity="0.12" />
  <circle cx="604.9" cy="352.9" r="13.1" fill="#e67e22" opacity="0.88" />
  <circle cx="501.9" cy="336.9" r="18.0" fill="#3498db" opacity="0.12" />
  <circle cx="501.9" cy="336.9" r="14.0" fill="#3498db" opacity="0.88" />
  <circle cx="502.8" cy="325.0" r="16.2" fill="#3498db" opacity="0.12" />
  <circle cx="502.8" cy="325.0" r="12.2" fill="#3498db" opacity="0.88" />
  <circle cx="488.8" cy="320.4" r="18.0" fill="#3498db" opacity="0.12" />
  <circle cx="488.8" cy="320.4" r="14.0" fill="#3498db" opacity="0.88" />
  <circle cx="450.0" cy="316.5" r="20" fill="#e74c3c" opacity="0.12" />
  <circle cx="450.0" cy="316.5" r="16" fill="#e74c3c" opacity="0.88" />
  <circle cx="491.8" cy="411.8" r="20" fill="#e74c3c" opacity="0.12" />
  <circle cx="491.8" cy="411.8" r="16" fill="#e74c3c" opacity="0.88" />
  <circle cx="489.1" cy="299.3" r="12.6" fill="#2ecc71" opacity="0.12" />
  <circle cx="489.1" cy="299.3" r="8.6" fill="#2ecc71" opacity="0.88" />
  <circle cx="665.3" cy="295.2" r="14.4" fill="#e74c3c" opacity="0.12" />
  <circle cx="665.3" cy="295.2" r="10.4" fill="#e74c3c" opacity="0.88" />
  <circle cx="800.5" cy="119.5" r="16.2" fill="#3498db" opacity="0.12" />
  <circle cx="800.5" cy="119.5" r="12.2" fill="#3498db" opacity="0.88" />
  <circle cx="600.2" cy="310.1" r="14.4" fill="#e74c3c" opacity="0.12" />
  <circle cx="600.2" cy="310.1" r="10.4" fill="#e74c3c" opacity="0.88" />
  <circle cx="910.0" cy="368.0" r="9" fill="#3498db" opacity="0.12" />
  <circle cx="910.0" cy="368.0" r="5" fill="#3498db" opacity="0.88" />
  <circle cx="541.6" cy="50.0" r="16.2" fill="#3498db" opacity="0.12" />
  <circle cx="541.6" cy="50.0" r="12.2" fill="#3498db" opacity="0.88" />
  <circle cx="559.1" cy="60.2" r="15.3" fill="#3498db" opacity="0.12" />
  <circle cx="559.1" cy="60.2" r="11.3" fill="#3498db" opacity="0.88" />
  <circle cx="368.2" cy="408.9" r="9.9" fill="#3498db" opacity="0.12" />
  <circle cx="368.2" cy="408.9" r="5.9" fill="#3498db" opacity="0.88" />
  <circle cx="498.6" cy="361.6" r="16.2" fill="#9b59b6" opacity="0.12" />
  <circle cx="498.6" cy="361.6" r="12.2" fill="#9b59b6" opacity="0.88" />
  <circle cx="525.5" cy="379.8" r="19.8" fill="#9b59b6" opacity="0.12" />
  <circle cx="525.5" cy="379.8" r="15.8" fill="#9b59b6" opacity="0.88" />
  <circle cx="492.0" cy="386.0" r="12.6" fill="#9b59b6" opacity="0.12" />
  <circle cx="492.0" cy="386.0" r="8.6" fill="#9b59b6" opacity="0.88" />
  <circle cx="556.5" cy="320.1" r="9" fill="#2ecc71" opacity="0.12" />
  <circle cx="556.5" cy="320.1" r="5" fill="#2ecc71" opacity="0.88" />
  <circle cx="573.5" cy="317.5" r="9.9" fill="#7f8c8d" opacity="0.12" />
  <circle cx="573.5" cy="317.5" r="5.9" fill="#7f8c8d" opacity="0.88" />
  <circle cx="539.2" cy="389.8" r="15.3" fill="#e67e22" opacity="0.12" />
  <circle cx="539.2" cy="389.8" r="11.3" fill="#e67e22" opacity="0.88" />
  <circle cx="488.8" cy="368.2" r="20" fill="#2ecc71" opacity="0.12" />
  <circle cx="488.8" cy="368.2" r="16" fill="#2ecc71" opacity="0.88" />
  <circle cx="291.4" cy="407.7" r="10.8" fill="#9b59b6" opacity="0.12" />
  <circle cx="291.4" cy="407.7" r="6.8" fill="#9b59b6" opacity="0.88" />
  <circle cx="50.0" cy="215.2" r="9" fill="#7f8c8d" opacity="0.12" />
  <circle cx="50.0" cy="215.2" r="5" fill="#7f8c8d" opacity="0.88" />
  <circle cx="534.3" cy="362.2" r="16.2" fill="#3498db" opacity="0.12" />
  <circle cx="534.3" cy="362.2" r="12.2" fill="#3498db" opacity="0.88" />
  <circle cx="561.7" cy="364.2" r="17.1" fill="#7f8c8d" opacity="0.12" />
  <circle cx="561.7" cy="364.2" r="13.1" fill="#7f8c8d" opacity="0.88" />
  <circle cx="571.0" cy="337.8" r="13.5" fill="#7f8c8d" opacity="0.12" />
  <circle cx="571.0" cy="337.8" r="9.5" fill="#7f8c8d" opacity="0.88" />
  <circle cx="113.2" cy="430.4" r="9" fill="#7f8c8d" opacity="0.12" />
  <circle cx="113.2" cy="430.4" r="5" fill="#7f8c8d" opacity="0.88" />
  <circle cx="556.7" cy="332.3" r="11.7" fill="#7f8c8d" opacity="0.12" />
  <circle cx="556.7" cy="332.3" r="7.7" fill="#7f8c8d" opacity="0.88" />
  <circle cx="527.0" cy="353.6" r="13.5" fill="#7f8c8d" opacity="0.12" />
  <circle cx="527.0" cy="353.6" r="9.5" fill="#7f8c8d" opacity="0.88" />
  <circle cx="525.8" cy="368.6" r="19.8" fill="#2ecc71" opacity="0.12" />
  <circle cx="525.8" cy="368.6" r="15.8" fill="#2ecc71" opacity="0.88" />
  <circle cx="537.4" cy="346.8" r="11.7" fill="#7f8c8d" opacity="0.12" />
  <circle cx="537.4" cy="346.8" r="7.7" fill="#7f8c8d" opacity="0.88" />
  <circle cx="249.3" cy="111.9" r="11.7" fill="#7f8c8d" opacity="0.12" />
  <circle cx="249.3" cy="111.9" r="7.7" fill="#7f8c8d" opacity="0.88" />
  <circle cx="653.0" cy="345.9" r="11.7" fill="#3498db" opacity="0.12" />
  <circle cx="653.0" cy="345.9" r="7.7" fill="#3498db" opacity="0.88" />
  <circle cx="554.8" cy="308.9" r="9.9" fill="#7f8c8d" opacity="0.12" />
  <circle cx="554.8" cy="308.9" r="5.9" fill="#7f8c8d" opacity="0.88" />
  <circle cx="701.5" cy="201.9" r="10.8" fill="#e67e22" opacity="0.12" />
  <circle cx="701.5" cy="201.9" r="6.8" fill="#e67e22" opacity="0.88" />
  <circle cx="687.6" cy="188.7" r="10.8" fill="#e67e22" opacity="0.12" />
  <circle cx="687.6" cy="188.7" r="6.8" fill="#e67e22" opacity="0.88" />
  <circle cx="573.5" cy="349.5" r="14.4" fill="#7f8c8d" opacity="0.12" />
  <circle cx="573.5" cy="349.5" r="10.4" fill="#7f8c8d" opacity="0.88" />
  <circle cx="671.7" cy="231.2" r="15.3" fill="#e67e22" opacity="0.12" />
  <circle cx="671.7" cy="231.2" r="11.3" fill="#e67e22" opacity="0.88" />
  <circle cx="218.7" cy="122.7" r="9.9" fill="#7f8c8d" opacity="0.12" />
  <circle cx="218.7" cy="122.7" r="5.9" fill="#7f8c8d" opacity="0.88" />
  <circle cx="510.8" cy="375.2" r="10.8" fill="#7f8c8d" opacity="0.12" />
  <circle cx="510.8" cy="375.2" r="6.8" fill="#7f8c8d" opacity="0.88" />
  <circle cx="531.6" cy="323.6" r="10.8" fill="#7f8c8d" opacity="0.12" />
  <circle cx="531.6" cy="323.6" r="6.8" fill="#7f8c8d" opacity="0.88" />
  <circle cx="512.4" cy="279.7" r="9" fill="#2ecc71" opacity="0.12" />
  <circle cx="512.4" cy="279.7" r="5" fill="#2ecc71" opacity="0.88" />
  <circle cx="519.2" cy="262.4" r="11.7" fill="#2ecc71" opacity="0.12" />
  <circle cx="519.2" cy="262.4" r="7.7" fill="#2ecc71" opacity="0.88" />
  <circle cx="575.7" cy="308.7" r="9.9" fill="#e74c3c" opacity="0.12" />
  <circle cx="575.7" cy="308.7" r="5.9" fill="#e74c3c" opacity="0.88" />
  <circle cx="634.6" cy="288.6" r="14.4" fill="#e74c3c" opacity="0.12" />
  <circle cx="634.6" cy="288.6" r="10.4" fill="#e74c3c" opacity="0.88" />
  <circle cx="546.9" cy="332.8" r="9.9" fill="#7f8c8d" opacity="0.12" />
  <circle cx="546.9" cy="332.8" r="5.9" fill="#7f8c8d" opacity="0.88" />
  <circle cx="251.2" cy="500.0" r="9" fill="#7f8c8d" opacity="0.12" />
  <circle cx="251.2" cy="500.0" r="5" fill="#7f8c8d" opacity="0.88" />
  <rect x="529.9" y="386.2" width="45.2" height="15" fill="#0d1117" opacity="0.75" rx="2" />
  <text x="530.9" y="397.2" font-family="system-ui, -apple-system, sans-serif" font-size="12" fill="#e6edf3" text-anchor="start">XoxdWM</text>
  <rect x="486.0" y="267.3" width="16.4" height="15" fill="#0d1117" opacity="0.75" rx="2" />
  <text x="487.0" y="278.3" font-family="system-ui, -apple-system, sans-serif" font-size="12" fill="#e6edf3" text-anchor="start">pp</text>
  <rect x="519.2" y="519.4" width="117.2" height="15" fill="#0d1117" opacity="0.75" rx="2" />
  <text x="520.2" y="530.4" font-family="system-ui, -apple-system, sans-serif" font-size="12" fill="#e6edf3" text-anchor="start">GloriousFlywheel</text>
  <rect x="499.1" y="320.3" width="124.4" height="15" fill="#0d1117" opacity="0.75" rx="2" />
  <text x="500.1" y="331.3" font-family="system-ui, -apple-system, sans-serif" font-size="12" fill="#e6edf3" text-anchor="start">tinyland-huskycat</text>
  <rect x="539.1" y="347.5" width="95.6" height="15" fill="#0d1117" opacity="0.75" rx="2" />
  <text x="540.1" y="358.5" font-family="system-ui, -apple-system, sans-serif" font-size="12" fill="#e6edf3" text-anchor="start">GIS_Shortcuts</text>
  <rect x="466.8" y="181.0" width="117.2" height="15" fill="#0d1117" opacity="0.75" rx="2" />
  <text x="467.8" y="192.0" font-family="system-ui, -apple-system, sans-serif" font-size="12" fill="#e6edf3" text-anchor="start">tinyland-cleanup</text>
  <rect x="532.5" y="419.8" width="95.6" height="15" fill="#0d1117" opacity="0.75" rx="2" />
  <text x="533.5" y="430.8" font-family="system-ui, -apple-system, sans-serif" font-size="12" fill="#e6edf3" text-anchor="start">tinyland-kdbx</text>
  <rect x="620.0" y="291.3" width="110.0" height="15" fill="#0d1117" opacity="0.75" rx="2" />
  <text x="621.0" y="302.3" font-family="system-ui, -apple-system, sans-serif" font-size="12" fill="#e6edf3" text-anchor="start">hiberpower-ntfs</text>
  <rect x="517.9" y="321.7" width="138.8" height="15" fill="#0d1117" opacity="0.75" rx="2" />
  <text x="518.9" y="332.7" font-family="system-ui, -apple-system, sans-serif" font-size="12" fill="#e6edf3" text-anchor="start">Ansible-DAG-Harness</text>
  <rect x="517.0" y="240.5" width="66.8" height="15" fill="#0d1117" opacity="0.75" rx="2" />
  <text x="518.0" y="251.5" font-family="system-ui, -apple-system, sans-serif" font-size="12" fill="#e6edf3" text-anchor="start">betterkvm</text>
  <rect x="504.8" y="298.9" width="95.6" height="15" fill="#0d1117" opacity="0.75" rx="2" />
  <text x="505.8" y="309.9" font-family="system-ui, -apple-system, sans-serif" font-size="12" fill="#e6edf3" text-anchor="start">DarwinNicUtil</text>
  <rect x="468.0" y="282.7" width="95.6" height="15" fill="#0d1117" opacity="0.75" rx="2" />
  <text x="469.0" y="293.7" font-family="system-ui, -apple-system, sans-serif" font-size="12" fill="#e6edf3" text-anchor="start">RemoteJuggler</text>
  <rect x="509.8" y="487.8" width="131.6" height="15" fill="#0d1117" opacity="0.75" rx="2" />
  <text x="510.8" y="498.8" font-family="system-ui, -apple-system, sans-serif" font-size="12" fill="#e6edf3" text-anchor="start">pixelwise-research</text>
  <rect x="499.7" y="211.1" width="59.6" height="15" fill="#0d1117" opacity="0.75" rx="2" />
  <text x="500.7" y="222.1" font-family="system-ui, -apple-system, sans-serif" font-size="12" fill="#e6edf3" text-anchor="start">gnucashr</text>
  <rect x="677.7" y="310.3" width="66.8" height="15" fill="#0d1117" opacity="0.75" rx="2" />
  <text x="678.7" y="321.3" font-family="system-ui, -apple-system, sans-serif" font-size="12" fill="#e6edf3" text-anchor="start">quickchpl</text>
  <rect x="654.7" y="112.7" width="131.6" height="15" fill="#0d1117" opacity="0.75" rx="2" />
  <text x="785.3" y="123.7" font-family="system-ui, -apple-system, sans-serif" font-size="12" fill="#e6edf3" text-anchor="end">tinyscale-mikrotik</text>
  <rect x="612.6" y="246.2" width="59.6" height="15" fill="#0d1117" opacity="0.75" rx="2" />
  <text x="613.6" y="257.2" font-family="system-ui, -apple-system, sans-serif" font-size="12" fill="#e6edf3" text-anchor="start">aoc-2025</text>
  <rect x="829.0" y="361.2" width="74.0" height="15" fill="#0d1117" opacity="0.75" rx="2" />
  <text x="902.0" y="372.2" font-family="system-ui, -apple-system, sans-serif" font-size="12" fill="#e6edf3" text-anchor="end">tinywaffle</text>
  <rect x="555.8" y="39.8" width="66.8" height="15" fill="#0d1117" opacity="0.75" rx="2" />
  <text x="556.8" y="50.8" font-family="system-ui, -apple-system, sans-serif" font-size="12" fill="#e6edf3" text-anchor="start">searchies</text>
  <rect x="572.4" y="56.8" width="59.6" height="15" fill="#0d1117" opacity="0.75" rx="2" />
  <text x="573.4" y="67.8" font-family="system-ui, -apple-system, sans-serif" font-size="12" fill="#e6edf3" text-anchor="start">ts-caddy</text>
  <rect x="376.1" y="410.0" width="66.8" height="15" fill="#0d1117" opacity="0.75" rx="2" />
  <text x="377.1" y="421.0" font-family="system-ui, -apple-system, sans-serif" font-size="12" fill="#e6edf3" text-anchor="start">HCI-notes</text>
  <rect x="512.8" y="249.1" width="88.4" height="15" fill="#0d1117" opacity="0.75" rx="2" />
  <text x="513.8" y="260.1" font-family="system-ui, -apple-system, sans-serif" font-size="12" fill="#e6edf3" text-anchor="start">FastPhotoAPI</text>
  <rect x="543.3" y="476.6" width="81.2" height="15" fill="#0d1117" opacity="0.75" rx="2" />
  <text x="544.3" y="487.6" font-family="system-ui, -apple-system, sans-serif" font-size="12" fill="#e6edf3" text-anchor="start">timberbuddy</text>
  <rect x="502.6" y="431.3" width="81.2" height="15" fill="#0d1117" opacity="0.75" rx="2" />
  <text x="503.6" y="442.3" font-family="system-ui, -apple-system, sans-serif" font-size="12" fill="#e6edf3" text-anchor="start">tetrahedron</text>
  <rect x="563.5" y="311.0" width="95.6" height="15" fill="#0d1117" opacity="0.75" rx="2" />
  <text x="564.5" y="322.0" font-family="system-ui, -apple-system, sans-serif" font-size="12" fill="#e6edf3" text-anchor="start">AccuWixReport</text>
  <rect x="581.4" y="212.3" width="95.6" height="15" fill="#0d1117" opacity="0.75" rx="2" />
  <text x="582.4" y="223.3" font-family="system-ui, -apple-system, sans-serif" font-size="12" fill="#e6edf3" text-anchor="start">Jess-AOC-2023</text>
  <rect x="552.5" y="413.2" width="81.2" height="15" fill="#0d1117" opacity="0.75" rx="2" />
  <text x="553.5" y="424.2" font-family="system-ui, -apple-system, sans-serif" font-size="12" fill="#e6edf3" text-anchor="start">TurkeyProbe</text>
  <rect x="506.8" y="504.8" width="153.2" height="15" fill="#0d1117" opacity="0.75" rx="2" />
  <text x="507.8" y="515.8" font-family="system-ui, -apple-system, sans-serif" font-size="12" fill="#e6edf3" text-anchor="start">MerlinAI-Interpreters</text>
  <rect x="300.2" y="393.0" width="110.0" height="15" fill="#0d1117" opacity="0.75" rx="2" />
  <text x="301.2" y="404.0" font-family="system-ui, -apple-system, sans-serif" font-size="12" fill="#e6edf3" text-anchor="start">IntroTypeScript</text>
  <rect x="57.0" y="208.4" width="110.0" height="15" fill="#0d1117" opacity="0.75" rx="2" />
  <text x="58.0" y="219.4" font-family="system-ui, -apple-system, sans-serif" font-size="12" fill="#e6edf3" text-anchor="start">IG-3DP-Profiles</text>
  <rect x="548.5" y="373.2" width="66.8" height="15" fill="#0d1117" opacity="0.75" rx="2" />
  <text x="549.5" y="384.2" font-family="system-ui, -apple-system, sans-serif" font-size="12" fill="#e6edf3" text-anchor="start">DLA-Flask</text>
  <rect x="576.8" y="286.6" width="38.0" height="15" fill="#0d1117" opacity="0.75" rx="2" />
  <text x="577.8" y="297.6" font-family="system-ui, -apple-system, sans-serif" font-size="12" fill="#e6edf3" text-anchor="start">USBoN</text>
  <rect x="582.5" y="434.0" width="203.6" height="15" fill="#0d1117" opacity="0.75" rx="2" />
  <text x="583.5" y="445.0" font-family="system-ui, -apple-system, sans-serif" font-size="12" fill="#e6edf3" text-anchor="start">chrome-remote-desktop-budgie</text>
  <rect x="120.2" y="423.6" width="124.4" height="15" fill="#0d1117" opacity="0.75" rx="2" />
  <text x="121.2" y="434.6" font-family="system-ui, -apple-system, sans-serif" font-size="12" fill="#e6edf3" text-anchor="start">OminousBeepingApp</text>
  <rect x="566.4" y="353.2" width="138.8" height="15" fill="#0d1117" opacity="0.75" rx="2" />
  <text x="567.4" y="364.2" font-family="system-ui, -apple-system, sans-serif" font-size="12" fill="#e6edf3" text-anchor="start">mo-image-identifier</text>
  <rect x="538.5" y="367.7" width="196.4" height="15" fill="#0d1117" opacity="0.75" rx="2" />
  <text x="539.5" y="378.7" font-family="system-ui, -apple-system, sans-serif" font-size="12" fill="#e6edf3" text-anchor="start">squirrel-leaflet-annotation</text>
  <rect x="543.6" y="446.8" width="74.0" height="15" fill="#0d1117" opacity="0.75" rx="2" />
  <text x="544.6" y="457.8" font-family="system-ui, -apple-system, sans-serif" font-size="12" fill="#e6edf3" text-anchor="start">Shiny-Apps</text>
  <rect x="547.1" y="166.3" width="138.8" height="15" fill="#0d1117" opacity="0.75" rx="2" />
  <text x="548.1" y="177.3" font-family="system-ui, -apple-system, sans-serif" font-size="12" fill="#e6edf3" text-anchor="start">bbox-jest-puppeteer</text>
  <rect x="259.0" y="102.0" width="88.4" height="15" fill="#0d1117" opacity="0.75" rx="2" />
  <text x="260.0" y="113.0" font-family="system-ui, -apple-system, sans-serif" font-size="12" fill="#e6edf3" text-anchor="start">DoverDisplay</text>
  <rect x="662.7" y="325.7" width="81.2" height="15" fill="#0d1117" opacity="0.75" rx="2" />
  <text x="663.7" y="336.7" font-family="system-ui, -apple-system, sans-serif" font-size="12" fill="#e6edf3" text-anchor="start">LeafletSync</text>
  <rect x="562.7" y="401.7" width="167.6" height="15" fill="#0d1117" opacity="0.75" rx="2" />
  <text x="563.7" y="412.7" font-family="system-ui, -apple-system, sans-serif" font-size="12" fill="#e6edf3" text-anchor="start">misc-roi-distance-notes</text>
  <rect x="710.3" y="197.0" width="138.8" height="15" fill="#0d1117" opacity="0.75" rx="2" />
  <text x="711.3" y="208.0" font-family="system-ui, -apple-system, sans-serif" font-size="12" fill="#e6edf3" text-anchor="start">Arduino_Coil_Winder</text>
  <rect x="696.4" y="180.0" width="30.8" height="15" fill="#0d1117" opacity="0.75" rx="2" />
  <text x="697.4" y="191.0" font-family="system-ui, -apple-system, sans-serif" font-size="12" fill="#e6edf3" text-anchor="start">momo</text>
  <rect x="585.9" y="384.7" width="38.0" height="15" fill="#0d1117" opacity="0.75" rx="2" />
  <text x="586.9" y="395.7" font-family="system-ui, -apple-system, sans-serif" font-size="12" fill="#e6edf3" text-anchor="start">clipi</text>
  <rect x="685.0" y="214.1" width="110.0" height="15" fill="#0d1117" opacity="0.75" rx="2" />
  <text x="686.0" y="225.1" font-family="system-ui, -apple-system, sans-serif" font-size="12" fill="#e6edf3" text-anchor="start">AeroTaz5_hotfix</text>
  <rect x="226.6" y="119.0" width="110.0" height="15" fill="#0d1117" opacity="0.75" rx="2" />
  <text x="227.6" y="130.0" font-family="system-ui, -apple-system, sans-serif" font-size="12" fill="#e6edf3" text-anchor="start">Funmat-HT-Notes</text>
  <rect x="519.6" y="336.2" width="81.2" height="15" fill="#0d1117" opacity="0.75" rx="2" />
  <text x="520.6" y="347.2" font-family="system-ui, -apple-system, sans-serif" font-size="12" fill="#e6edf3" text-anchor="start">static-site</text>
  <rect x="540.4" y="226.6" width="95.6" height="15" fill="#0d1117" opacity="0.75" rx="2" />
  <text x="541.4" y="237.6" font-family="system-ui, -apple-system, sans-serif" font-size="12" fill="#e6edf3" text-anchor="start">Flask-Manager</text>
  <rect x="519.4" y="259.3" width="110.0" height="15" fill="#0d1117" opacity="0.75" rx="2" />
  <text x="520.4" y="270.3" font-family="system-ui, -apple-system, sans-serif" font-size="12" fill="#e6edf3" text-anchor="start">FieldProcessing</text>
  <rect x="528.9" y="194.1" width="81.2" height="15" fill="#0d1117" opacity="0.75" rx="2" />
  <text x="529.9" y="205.1" font-family="system-ui, -apple-system, sans-serif" font-size="12" fill="#e6edf3" text-anchor="start">rJDKmanager</text>
  <rect x="583.6" y="276.3" width="59.6" height="15" fill="#0d1117" opacity="0.75" rx="2" />
  <text x="584.6" y="287.3" font-family="system-ui, -apple-system, sans-serif" font-size="12" fill="#e6edf3" text-anchor="start">tagnotes</text>
  <rect x="647.0" y="229.2" width="81.2" height="15" fill="#0d1117" opacity="0.75" rx="2" />
  <text x="648.0" y="240.2" font-family="system-ui, -apple-system, sans-serif" font-size="12" fill="#e6edf3" text-anchor="start">ChapelTests</text>
  <rect x="554.8" y="463.8" width="88.4" height="15" fill="#0d1117" opacity="0.75" rx="2" />
  <text x="555.8" y="474.8" font-family="system-ui, -apple-system, sans-serif" font-size="12" fill="#e6edf3" text-anchor="start">Xfinity-WiFi</text>
  <rect x="258.2" y="493.2" width="66.8" height="15" fill="#0d1117" opacity="0.75" rx="2" />
  <text x="259.2" y="504.2" font-family="system-ui, -apple-system, sans-serif" font-size="12" fill="#e6edf3" text-anchor="start">home-wiki</text>
  <rect x="793" y="36" width="155" height="120" rx="6" fill="#161b22" stroke="#30363d" stroke-width="1" opacity="0.95" />
  <circle cx="810" cy="52" r="5" fill="#e74c3c" opacity="0.88" />
  <text x="820" y="56" font-family="system-ui, -apple-system, sans-serif" font-size="10" fill="#e6edf3">Languages &amp; Compilers</text>
  <circle cx="810" cy="69" r="5" fill="#3498db" opacity="0.88" />
  <text x="820" y="73" font-family="system-ui, -apple-system, sans-serif" font-size="10" fill="#e6edf3">Infrastructure &amp; DevOps</text>
  <circle cx="810" cy="86" r="5" fill="#e67e22" opacity="0.88" />
  <text x="820" y="90" font-family="system-ui, -apple-system, sans-serif" font-size="10" fill="#e6edf3">Hardware &amp; Maker</text>
  <circle cx="810" cy="103" r="5" fill="#2ecc71" opacity="0.88" />
  <text x="820" y="107" font-family="system-ui, -apple-system, sans-serif" font-size="10" fill="#e6edf3">ML &amp; Data</text>
  <circle cx="810" cy="120" r="5" fill="#9b59b6" opacity="0.88" />
  <text x="820" y="124" font-family="system-ui, -apple-system, sans-serif" font-size="10" fill="#e6edf3">Web &amp; Apps</text>
  <circle cx="810" cy="137" r="5" fill="#7f8c8d" opacity="0.88" />
  <text x="820" y="141" font-family="system-ui, -apple-system, sans-serif" font-size="10" fill="#e6edf3">Other</text>
  <text x="870" y="150" font-family="system-ui, -apple-system, sans-serif" font-size="8" fill="#8b949e" text-anchor="middle">54 repos · 207 edges</text>
</svg>