<svg xmlns="http://www.w3.org/2000/svg" width="900" height="540" viewBox="0 0 900 540">
  <rect width="900" height="540" fill="#ffffff" rx="8" />
  <text x="450" y="24" font-family="system-ui, -apple-system, sans-serif" font-size="13" fill="#656d76" text-anchor="middle" font-weight="500">Repo Relationship Graph &#x2014; Pairwise Topic &amp; Language Similarity</text>
  <line x1="50" y1="490" x2="850" y2="490" stroke="#d0d7de" stroke-width="0.5" opacity="0.5" />
  <text x="50" y="510" font-family="serif, Georgia, Times" font-size="10" fill="#656d76" font-style="italic" opacity="0.7">Focal Length = ImageDimension / 2 · tan(FoV / 2)</text>
  <text x="50" y="528" font-family="serif, Georgia, Times" font-size="10" fill="#656d76" font-style="italic" opacity="0.7">Distance = ActualDimension · FocalLength / ROIDimension</text>
  <text x="850" y="510" font-family="system-ui, -apple-system, sans-serif" font-size="9" fill="#656d76" text-anchor="end" opacity="0.6">Updated daily by GitHub Actions</text>
  <text x="850" y="528" font-family="system-ui, -apple-system, sans-serif" font-size="9" fill="#656d76" text-anchor="end" opacity="0.6">networkx spring_layout · Jaccard similarity &gt; 0.15</text>
  <line x1="438.1" y1="274.6" x2="446.4" y2="294.9" stroke="#bcc3cd" stroke-width="1.0" opacity="0.24" />
  <line x1="438.1" y1="274.6" x2="418.6" y2="261.3" stroke="#bcc3cd" stroke-width="2.0" opacity="0.80" />
  <line x1="438.1" y1="274.6" x2="483.4" y2="275.5" stroke="#bcc3cd" stroke-width="1.0" opacity="0.22" />
  <line x1="438.1" y1="274.6" x2="478.9" y2="286.6" stroke="#bcc3cd" stroke-width="1.0" opacity="0.24" />
  <line x1="438.1" y1="274.6" x2="466.2" y2="298.2" stroke="#bcc3cd" stroke-width="0.9" opacity="0.17" />
  <line x1="438.1" y1="274.6" x2="465.3" y2="287.8" stroke="#bcc3cd" stroke-width="0.9" opacity="0.20" />
  <line x1="438.1" y1="274.6" x2="451.6" y2="284.6" stroke="#bcc3cd" stroke-width="0.9" opacity="0.17" />
  <line x1="438.1" y1="274.6" x2="415.0" y2="282.8" stroke="#bcc3cd" stroke-width="1.0" opacity="0.23" />
  <line x1="438.1" y1="274.6" x2="448.7" y2="266.3" stroke="#bcc3cd" stroke-width="1.5" opacity="0.55" />
  <line x1="438.1" y1="274.6" x2="507.4" y2="292.8" stroke="#bcc3cd" stroke-width="1.0" opacity="0.22" />
  <line x1="479.2" y1="374.6" x2="468.4" y2="363.3" stroke="#bcc3cd" stroke-width="1.0" opacity="0.26" />
  <line x1="479.2" y1="374.6" x2="494.8" y2="334.2" stroke="#bcc3cd" stroke-width="0.9" opacity="0.20" />
  <line x1="479.2" y1="374.6" x2="465.0" y2="341.1" stroke="#bcc3cd" stroke-width="1.0" opacity="0.22" />
  <line x1="446.4" y1="294.9" x2="483.4" y2="275.5" stroke="#bcc3cd" stroke-width="0.9" opacity="0.17" />
  <line x1="446.4" y1="294.9" x2="478.9" y2="286.6" stroke="#bcc3cd" stroke-width="1.1" opacity="0.28" />
  <line x1="446.4" y1="294.9" x2="466.2" y2="298.2" stroke="#bcc3cd" stroke-width="1.0" opacity="0.22" />
  <line x1="446.4" y1="294.9" x2="465.3" y2="287.8" stroke="#bcc3cd" stroke-width="1.0" opacity="0.24" />
  <line x1="446.4" y1="294.9" x2="451.6" y2="284.6" stroke="#bcc3cd" stroke-width="1.0" opacity="0.22" />
  <line x1="446.4" y1="294.9" x2="415.0" y2="282.8" stroke="#bcc3cd" stroke-width="0.9" opacity="0.20" />
  <line x1="446.4" y1="294.9" x2="448.7" y2="266.3" stroke="#bcc3cd" stroke-width="1.0" opacity="0.22" />
  <line x1="446.4" y1="294.9" x2="459.0" y2="325.9" stroke="#bcc3cd" stroke-width="0.9" opacity="0.19" />
  <line x1="446.4" y1="294.9" x2="492.2" y2="311.6" stroke="#bcc3cd" stroke-width="0.9" opacity="0.21" />
  <line x1="446.4" y1="294.9" x2="500.7" y2="305.2" stroke="#bcc3cd" stroke-width="1.0" opacity="0.24" />
  <line x1="446.4" y1="294.9" x2="507.4" y2="292.8" stroke="#bcc3cd" stroke-width="0.9" opacity="0.17" />
  <line x1="492.5" y1="345.2" x2="494.8" y2="334.2" stroke="#bcc3cd" stroke-width="0.9" opacity="0.18" />
  <line x1="492.5" y1="345.2" x2="465.0" y2="341.1" stroke="#bcc3cd" stroke-width="0.9" opacity="0.18" />
  <line x1="492.5" y1="345.2" x2="492.2" y2="311.6" stroke="#bcc3cd" stroke-width="0.9" opacity="0.17" />
  <line x1="492.5" y1="345.2" x2="493.1" y2="324.6" stroke="#bcc3cd" stroke-width="1.3" opacity="0.42" />
  <line x1="492.5" y1="345.2" x2="500.7" y2="305.2" stroke="#bcc3cd" stroke-width="0.9" opacity="0.19" />
  <line x1="492.5" y1="345.2" x2="480.4" y2="330.9" stroke="#bcc3cd" stroke-width="0.9" opacity="0.21" />
  <line x1="418.6" y1="261.3" x2="483.4" y2="275.5" stroke="#bcc3cd" stroke-width="1.1" opacity="0.28" />
  <line x1="418.6" y1="261.3" x2="415.0" y2="282.8" stroke="#bcc3cd" stroke-width="0.9" opacity="0.17" />
  <line x1="418.6" y1="261.3" x2="448.7" y2="266.3" stroke="#bcc3cd" stroke-width="1.2" opacity="0.37" />
  <line x1="483.4" y1="275.5" x2="478.9" y2="286.6" stroke="#bcc3cd" stroke-width="1.1" opacity="0.31" />
  <line x1="483.4" y1="275.5" x2="466.2" y2="298.2" stroke="#bcc3cd" stroke-width="0.9" opacity="0.20" />
  <line x1="483.4" y1="275.5" x2="465.3" y2="287.8" stroke="#bcc3cd" stroke-width="1.0" opacity="0.24" />
  <line x1="483.4" y1="275.5" x2="451.6" y2="284.6" stroke="#bcc3cd" stroke-width="0.9" opacity="0.20" />
  <line x1="483.4" y1="275.5" x2="448.7" y2="266.3" stroke="#bcc3cd" stroke-width="0.9" opacity="0.18" />
  <line x1="483.4" y1="275.5" x2="514.1" y2="281.2" stroke="#bcc3cd" stroke-width="1.5" opacity="0.55" />
  <line x1="483.4" y1="275.5" x2="529.6" y2="278.4" stroke="#bcc3cd" stroke-width="1.2" opacity="0.37" />
  <line x1="483.4" y1="275.5" x2="516.5" y2="291.9" stroke="#bcc3cd" stroke-width="1.0" opacity="0.22" />
  <line x1="483.4" y1="275.5" x2="500.7" y2="305.2" stroke="#bcc3cd" stroke-width="1.0" opacity="0.22" />
  <line x1="483.4" y1="275.5" x2="511.2" y2="271.6" stroke="#bcc3cd" stroke-width="1.2" opacity="0.37" />
  <line x1="483.4" y1="275.5" x2="491.7" y2="285.4" stroke="#bcc3cd" stroke-width="1.1" opacity="0.28" />
  <line x1="483.4" y1="275.5" x2="531.0" y2="270.9" stroke="#bcc3cd" stroke-width="1.2" opacity="0.37" />
  <line x1="483.4" y1="275.5" x2="507.4" y2="292.8" stroke="#bcc3cd" stroke-width="1.2" opacity="0.37" />
  <line x1="478.9" y1="286.6" x2="466.2" y2="298.2" stroke="#bcc3cd" stroke-width="1.1" opacity="0.31" />
  <line x1="478.9" y1="286.6" x2="465.3" y2="287.8" stroke="#bcc3cd" stroke-width="1.2" opacity="0.37" />
  <line x1="478.9" y1="286.6" x2="451.6" y2="284.6" stroke="#bcc3cd" stroke-width="1.1" opacity="0.31" />
  <line x1="478.9" y1="286.6" x2="415.0" y2="282.8" stroke="#bcc3cd" stroke-width="1.0" opacity="0.26" />
  <line x1="478.9" y1="286.6" x2="448.7" y2="266.3" stroke="#bcc3cd" stroke-width="1.0" opacity="0.22" />
  <line x1="478.9" y1="286.6" x2="555.2" y2="271.9" stroke="#bcc3cd" stroke-width="0.9" opacity="0.18" />
  <line x1="478.9" y1="286.6" x2="530.4" y2="296.1" stroke="#bcc3cd" stroke-width="0.9" opacity="0.20" />
  <line x1="478.9" y1="286.6" x2="516.5" y2="291.9" stroke="#bcc3cd" stroke-width="1.0" opacity="0.24" />
  <line x1="478.9" y1="286.6" x2="492.2" y2="311.6" stroke="#bcc3cd" stroke-width="0.9" opacity="0.20" />
  <line x1="478.9" y1="286.6" x2="500.7" y2="305.2" stroke="#bcc3cd" stroke-width="1.0" opacity="0.24" />
  <line x1="478.9" y1="286.6" x2="534.6" y2="306.2" stroke="#bcc3cd" stroke-width="0.9" opacity="0.18" />
  <line x1="478.9" y1="286.6" x2="507.4" y2="292.8" stroke="#bcc3cd" stroke-width="1.1" opacity="0.31" />
  <line x1="564.1" y1="307.7" x2="516.5" y2="291.9" stroke="#bcc3cd" stroke-width="0.9" opacity="0.18" />
  <line x1="564.1" y1="307.7" x2="500.7" y2="305.2" stroke="#bcc3cd" stroke-width="1.1" opacity="0.30" />
  <line x1="564.1" y1="307.7" x2="507.4" y2="292.8" stroke="#bcc3cd" stroke-width="1.0" opacity="0.22" />
  <line x1="466.2" y1="298.2" x2="465.3" y2="287.8" stroke="#bcc3cd" stroke-width="1.1" opacity="0.28" />
  <line x1="466.2" y1="298.2" x2="451.6" y2="284.6" stroke="#bcc3cd" stroke-width="1.0" opacity="0.24" />
  <line x1="466.2" y1="298.2" x2="415.0" y2="282.8" stroke="#bcc3cd" stroke-width="0.9" opacity="0.17" />
  <line x1="466.2" y1="298.2" x2="500.0" y2="318.6" stroke="#bcc3cd" stroke-width="0.9" opacity="0.19" />
  <line x1="466.2" y1="298.2" x2="525.7" y2="319.2" stroke="#bcc3cd" stroke-width="0.9" opacity="0.18" />
  <line x1="466.2" y1="298.2" x2="516.5" y2="291.9" stroke="#bcc3cd" stroke-width="0.9" opacity="0.17" />
  <line x1="466.2" y1="298.2" x2="500.7" y2="305.2" stroke="#bcc3cd" stroke-width="0.9" opacity="0.17" />
  <line x1="466.2" y1="298.2" x2="507.4" y2="292.8" stroke="#bcc3cd" stroke-width="0.9" opacity="0.20" />
  <line x1="465.3" y1="287.8" x2="451.6" y2="284.6" stroke="#bcc3cd" stroke-width="1.1" opacity="0.28" />
  <line x1="465.3" y1="287.8" x2="415.0" y2="282.8" stroke="#bcc3cd" stroke-width="0.9" opacity="0.18" />
  <line x1="465.3" y1="287.8" x2="448.7" y2="266.3" stroke="#bcc3cd" stroke-width="0.9" opacity="0.18" />
  <line x1="465.3" y1="287.8" x2="530.4" y2="296.1" stroke="#bcc3cd" stroke-width="0.9" opacity="0.17" />
  <line x1="465.3" y1="287.8" x2="516.5" y2="291.9" stroke="#bcc3cd" stroke-width="0.9" opacity="0.20" />
  <line x1="465.3" y1="287.8" x2="492.2" y2="311.6" stroke="#bcc3cd" stroke-width="0.9" opacity="0.17" />
  <line x1="465.3" y1="287.8" x2="500.7" y2="305.2" stroke="#bcc3cd" stroke-width="0.9" opacity="0.20" />
  <line x1="465.3" y1="287.8" x2="507.4" y2="292.8" stroke="#bcc3cd" stroke-width="1.0" opacity="0.24" />
  <line x1="451.6" y1="284.6" x2="415.0" y2="282.8" stroke="#bcc3cd" stroke-width="0.9" opacity="0.17" />
  <line x1="451.6" y1="284.6" x2="516.5" y2="291.9" stroke="#bcc3cd" stroke-width="0.9" opacity="0.17" />
  <line x1="451.6" y1="284.6" x2="500.7" y2="305.2" stroke="#bcc3cd" stroke-width="0.9" opacity="0.17" />
  <line x1="451.6" y1="284.6" x2="507.4" y2="292.8" stroke="#bcc3cd" stroke-width="0.9" opacity="0.20" />
  <line x1="468.4" y1="363.3" x2="494.8" y2="334.2" stroke="#bcc3cd" stroke-width="1.0" opacity="0.26" />
  <line x1="468.4" y1="363.3" x2="465.0" y2="341.1" stroke="#bcc3cd" stroke-width="1.1" opacity="0.31" />
  <line x1="468.4" y1="363.3" x2="480.4" y2="330.9" stroke="#bcc3cd" stroke-width="0.9" opacity="0.18" />
  <line x1="448.7" y1="266.3" x2="466.9" y2="248.3" stroke="#bcc3cd" stroke-width="1.0" opacity="0.22" />
  <line x1="448.7" y1="266.3" x2="507.4" y2="292.8" stroke="#bcc3cd" stroke-width="0.9" opacity="0.18" />
  <line x1="613.0" y1="256.4" x2="555.2" y2="271.9" stroke="#bcc3cd" stroke-width="1.3" opacity="0.44" />
  <line x1="613.0" y1="256.4" x2="583.0" y2="251.4" stroke="#bcc3cd" stroke-width="0.9" opacity="0.18" />
  <line x1="555.2" y1="271.9" x2="529.6" y2="278.4" stroke="#bcc3cd" stroke-width="1.1" opacity="0.31" />
  <line x1="555.2" y1="271.9" x2="530.4" y2="296.1" stroke="#bcc3cd" stroke-width="0.9" opacity="0.20" />
  <line x1="555.2" y1="271.9" x2="516.5" y2="291.9" stroke="#bcc3cd" stroke-width="1.0" opacity="0.24" />
  <line x1="555.2" y1="271.9" x2="492.2" y2="311.6" stroke="#bcc3cd" stroke-width="0.9" opacity="0.20" />
  <line x1="555.2" y1="271.9" x2="500.7" y2="305.2" stroke="#bcc3cd" stroke-width="1.0" opacity="0.24" />
  <line x1="555.2" y1="271.9" x2="534.6" y2="306.2" stroke="#bcc3cd" stroke-width="0.9" opacity="0.18" />
  <line x1="555.2" y1="271.9" x2="621.3" y2="203.6" stroke="#bcc3cd" stroke-width="0.9" opacity="0.17" />
  <line x1="555.2" y1="271.9" x2="531.0" y2="270.9" stroke="#bcc3cd" stroke-width="1.1" opacity="0.31" />
  <line x1="555.2" y1="271.9" x2="583.0" y2="251.4" stroke="#bcc3cd" stroke-width="1.1" opacity="0.30" />
  <line x1="555.2" y1="271.9" x2="507.4" y2="292.8" stroke="#bcc3cd" stroke-width="1.1" opacity="0.31" />
  <line x1="523.5" y1="50.0" x2="541.7" y2="57.9" stroke="#bcc3cd" stroke-width="1.6" opacity="0.60" />
  <line x1="355.7" y1="366.5" x2="465.0" y2="341.1" stroke="#bcc3cd" stroke-width="0.9" opacity="0.18" />
  <line x1="355.7" y1="366.5" x2="286.2" y2="368.0" stroke="#bcc3cd" stroke-width="1.1" opacity="0.28" />
  <line x1="466.5" y1="319.6" x2="494.8" y2="334.2" stroke="#bcc3cd" stroke-width="0.9" opacity="0.17" />
  <line x1="466.5" y1="319.6" x2="465.0" y2="341.1" stroke="#bcc3cd" stroke-width="0.9" opacity="0.18" />
  <line x1="466.5" y1="319.6" x2="500.0" y2="318.6" stroke="#bcc3cd" stroke-width="1.0" opacity="0.22" />
  <line x1="466.5" y1="319.6" x2="492.2" y2="311.6" stroke="#bcc3cd" stroke-width="1.1" opacity="0.28" />
  <line x1="466.5" y1="319.6" x2="493.1" y2="324.6" stroke="#bcc3cd" stroke-width="1.1" opacity="0.32" />
  <line x1="466.5" y1="319.6" x2="500.7" y2="305.2" stroke="#bcc3cd" stroke-width="0.9" opacity="0.20" />
  <line x1="466.5" y1="319.6" x2="480.4" y2="330.9" stroke="#bcc3cd" stroke-width="1.0" opacity="0.22" />
  <line x1="466.5" y1="319.6" x2="491.7" y2="285.4" stroke="#bcc3cd" stroke-width="1.0" opacity="0.22" />
  <line x1="494.8" y1="334.2" x2="465.0" y2="341.1" stroke="#bcc3cd" stroke-width="1.3" opacity="0.42" />
  <line x1="494.8" y1="334.2" x2="509.1" y2="342.2" stroke="#bcc3cd" stroke-width="0.9" opacity="0.18" />
  <line x1="494.8" y1="334.2" x2="459.0" y2="325.9" stroke="#bcc3cd" stroke-width="1.1" opacity="0.31" />
  <line x1="494.8" y1="334.2" x2="500.0" y2="318.6" stroke="#bcc3cd" stroke-width="1.1" opacity="0.32" />
  <line x1="494.8" y1="334.2" x2="525.7" y2="319.2" stroke="#bcc3cd" stroke-width="1.0" opacity="0.23" />
  <line x1="494.8" y1="334.2" x2="492.2" y2="311.6" stroke="#bcc3cd" stroke-width="1.2" opacity="0.39" />
  <line x1="494.8" y1="334.2" x2="493.1" y2="324.6" stroke="#bcc3cd" stroke-width="1.0" opacity="0.26" />
  <line x1="494.8" y1="334.2" x2="500.7" y2="305.2" stroke="#bcc3cd" stroke-width="1.2" opacity="0.34" />
  <line x1="494.8" y1="334.2" x2="534.6" y2="306.2" stroke="#bcc3cd" stroke-width="0.9" opacity="0.19" />
  <line x1="494.8" y1="334.2" x2="480.4" y2="330.9" stroke="#bcc3cd" stroke-width="1.0" opacity="0.25" />
  <line x1="494.8" y1="334.2" x2="507.4" y2="292.8" stroke="#bcc3cd" stroke-width="0.9" opacity="0.17" />
  <line x1="465.0" y1="341.1" x2="509.1" y2="342.2" stroke="#bcc3cd" stroke-width="1.1" opacity="0.33" />
  <line x1="465.0" y1="341.1" x2="459.0" y2="325.9" stroke="#bcc3cd" stroke-width="0.9" opacity="0.21" />
  <line x1="465.0" y1="341.1" x2="500.0" y2="318.6" stroke="#bcc3cd" stroke-width="0.9" opacity="0.18" />
  <line x1="465.0" y1="341.1" x2="492.2" y2="311.6" stroke="#bcc3cd" stroke-width="1.3" opacity="0.41" />
  <line x1="465.0" y1="341.1" x2="493.1" y2="324.6" stroke="#bcc3cd" stroke-width="1.0" opacity="0.22" />
  <line x1="465.0" y1="341.1" x2="500.7" y2="305.2" stroke="#bcc3cd" stroke-width="1.1" opacity="0.31" />
  <line x1="465.0" y1="341.1" x2="480.4" y2="330.9" stroke="#bcc3cd" stroke-width="1.7" opacity="0.66" />
  <line x1="514.1" y1="281.2" x2="529.6" y2="278.4" stroke="#bcc3cd" stroke-width="1.5" opacity="0.55" />
  <line x1="514.1" y1="281.2" x2="530.4" y2="296.1" stroke="#bcc3cd" stroke-width="0.9" opacity="0.18" />
  <line x1="514.1" y1="281.2" x2="516.5" y2="291.9" stroke="#bcc3cd" stroke-width="1.1" opacity="0.28" />
  <line x1="514.1" y1="281.2" x2="492.2" y2="311.6" stroke="#bcc3cd" stroke-width="0.9" opacity="0.18" />
  <line x1="514.1" y1="281.2" x2="500.7" y2="305.2" stroke="#bcc3cd" stroke-width="1.1" opacity="0.28" />
  <line x1="514.1" y1="281.2" x2="511.2" y2="271.6" stroke="#bcc3cd" stroke-width="1.5" opacity="0.55" />
  <line x1="514.1" y1="281.2" x2="491.7" y2="285.4" stroke="#bcc3cd" stroke-width="1.2" opacity="0.37" />
  <line x1="514.1" y1="281.2" x2="531.0" y2="270.9" stroke="#bcc3cd" stroke-width="1.5" opacity="0.55" />
  <line x1="514.1" y1="281.2" x2="507.4" y2="292.8" stroke="#bcc3cd" stroke-width="1.5" opacity="0.55" />
  <line x1="529.6" y1="278.4" x2="516.5" y2="291.9" stroke="#bcc3cd" stroke-width="1.0" opacity="0.22" />
  <line x1="529.6" y1="278.4" x2="500.7" y2="305.2" stroke="#bcc3cd" stroke-width="1.0" opacity="0.22" />
  <line x1="529.6" y1="278.4" x2="511.2" y2="271.6" stroke="#bcc3cd" stroke-width="1.2" opacity="0.37" />
  <line x1="529.6" y1="278.4" x2="491.7" y2="285.4" stroke="#bcc3cd" stroke-width="1.1" opacity="0.28" />
  <line x1="529.6" y1="278.4" x2="531.0" y2="270.9" stroke="#bcc3cd" stroke-width="1.2" opacity="0.37" />
  <line x1="529.6" y1="278.4" x2="507.4" y2="292.8" stroke="#bcc3cd" stroke-width="1.2" opacity="0.37" />
  <line x1="509.1" y1="342.2" x2="492.2" y2="311.6" stroke="#bcc3cd" stroke-width="0.9" opacity="0.18" />
  <line x1="509.1" y1="342.2" x2="493.1" y2="324.6" stroke="#bcc3cd" stroke-width="0.9" opacity="0.18" />
  <line x1="509.1" y1="342.2" x2="500.7" y2="305.2" stroke="#bcc3cd" stroke-width="1.0" opacity="0.22" />
  <line x1="509.1" y1="342.2" x2="480.4" y2="330.9" stroke="#bcc3cd" stroke-width="1.3" opacity="0.41" />
  <line x1="459.0" y1="325.9" x2="500.0" y2="318.6" stroke="#bcc3cd" stroke-width="1.1" opacity="0.31" />
  <line x1="459.0" y1="325.9" x2="492.2" y2="311.6" stroke="#bcc3cd" stroke-width="1.4" opacity="0.47" />
  <line x1="459.0" y1="325.9" x2="493.1" y2="324.6" stroke="#bcc3cd" stroke-width="0.9" opacity="0.19" />
  <line x1="459.0" y1="325.9" x2="500.7" y2="305.2" stroke="#bcc3cd" stroke-width="1.0" opacity="0.22" />
  <line x1="500.0" y1="318.6" x2="525.7" y2="319.2" stroke="#bcc3cd" stroke-width="1.1" opacity="0.29" />
  <line x1="500.0" y1="318.6" x2="530.4" y2="296.1" stroke="#bcc3cd" stroke-width="0.9" opacity="0.17" />
  <line x1="500.0" y1="318.6" x2="516.5" y2="291.9" stroke="#bcc3cd" stroke-width="0.9" opacity="0.20" />
  <line x1="500.0" y1="318.6" x2="492.2" y2="311.6" stroke="#bcc3cd" stroke-width="1.3" opacity="0.40" />
  <line x1="500.0" y1="318.6" x2="493.1" y2="324.6" stroke="#bcc3cd" stroke-width="1.0" opacity="0.24" />
  <line x1="500.0" y1="318.6" x2="500.7" y2="305.2" stroke="#bcc3cd" stroke-width="0.9" opacity="0.20" />
  <line x1="500.0" y1="318.6" x2="507.4" y2="292.8" stroke="#bcc3cd" stroke-width="1.0" opacity="0.24" />
  <line x1="525.7" y1="319.2" x2="516.5" y2="291.9" stroke="#bcc3cd" stroke-width="0.9" opacity="0.18" />
  <line x1="525.7" y1="319.2" x2="493.1" y2="324.6" stroke="#bcc3cd" stroke-width="1.0" opacity="0.23" />
  <line x1="525.7" y1="319.2" x2="500.7" y2="305.2" stroke="#bcc3cd" stroke-width="0.9" opacity="0.18" />
  <line x1="525.7" y1="319.2" x2="534.6" y2="306.2" stroke="#bcc3cd" stroke-width="1.0" opacity="0.24" />
  <line x1="525.7" y1="319.2" x2="507.4" y2="292.8" stroke="#bcc3cd" stroke-width="1.0" opacity="0.22" />
  <line x1="530.4" y1="296.1" x2="516.5" y2="291.9" stroke="#bcc3cd" stroke-width="1.1" opacity="0.28" />
  <line x1="530.4" y1="296.1" x2="492.2" y2="311.6" stroke="#bcc3cd" stroke-width="1.0" opacity="0.22" />
  <line x1="530.4" y1="296.1" x2="500.7" y2="305.2" stroke="#bcc3cd" stroke-width="1.1" opacity="0.28" />
  <line x1="530.4" y1="296.1" x2="534.6" y2="306.2" stroke="#bcc3cd" stroke-width="0.9" opacity="0.20" />
  <line x1="530.4" y1="296.1" x2="507.4" y2="292.8" stroke="#bcc3cd" stroke-width="1.2" opacity="0.37" />
  <line x1="516.5" y1="291.9" x2="492.2" y2="311.6" stroke="#bcc3cd" stroke-width="1.1" opacity="0.28" />
  <line x1="516.5" y1="291.9" x2="500.7" y2="305.2" stroke="#bcc3cd" stroke-width="1.2" opacity="0.37" />
  <line x1="516.5" y1="291.9" x2="511.2" y2="271.6" stroke="#bcc3cd" stroke-width="1.0" opacity="0.22" />
  <line x1="516.5" y1="291.9" x2="534.6" y2="306.2" stroke="#bcc3cd" stroke-width="1.0" opacity="0.24" />
  <line x1="516.5" y1="291.9" x2="491.7" y2="285.4" stroke="#bcc3cd" stroke-width="0.9" opacity="0.18" />
  <line x1="516.5" y1="291.9" x2="531.0" y2="270.9" stroke="#bcc3cd" stroke-width="1.0" opacity="0.22" />
  <line x1="516.5" y1="291.9" x2="507.4" y2="292.8" stroke="#bcc3cd" stroke-width="1.5" opacity="0.55" />
  <line x1="492.2" y1="311.6" x2="493.1" y2="324.6" stroke="#bcc3cd" stroke-width="1.1" opacity="0.29" />
  <line x1="492.2" y1="311.6" x2="500.7" y2="305.2" stroke="#bcc3cd" stroke-width="1.4" opacity="0.47" />
  <line x1="492.2" y1="311.6" x2="534.6" y2="306.2" stroke="#bcc3cd" stroke-width="0.9" opacity="0.20" />
  <line x1="492.2" y1="311.6" x2="480.4" y2="330.9" stroke="#bcc3cd" stroke-width="1.1" opacity="0.31" />
  <line x1="492.2" y1="311.6" x2="491.7" y2="285.4" stroke="#bcc3cd" stroke-width="1.1" opacity="0.31" />
  <line x1="492.2" y1="311.6" x2="507.4" y2="292.8" stroke="#bcc3cd" stroke-width="1.2" opacity="0.37" />
  <line x1="493.1" y1="324.6" x2="500.7" y2="305.2" stroke="#bcc3cd" stroke-width="1.2" opacity="0.34" />
  <line x1="493.1" y1="324.6" x2="480.4" y2="330.9" stroke="#bcc3cd" stroke-width="1.0" opacity="0.25" />
  <line x1="493.1" y1="324.6" x2="491.7" y2="285.4" stroke="#bcc3cd" stroke-width="1.0" opacity="0.25" />
  <line x1="493.1" y1="324.6" x2="507.4" y2="292.8" stroke="#bcc3cd" stroke-width="0.9" opacity="0.17" />
  <line x1="500.7" y1="305.2" x2="511.2" y2="271.6" stroke="#bcc3cd" stroke-width="1.0" opacity="0.22" />
  <line x1="500.7" y1="305.2" x2="534.6" y2="306.2" stroke="#bcc3cd" stroke-width="1.0" opacity="0.24" />
  <line x1="500.7" y1="305.2" x2="480.4" y2="330.9" stroke="#bcc3cd" stroke-width="1.3" opacity="0.44" />
  <line x1="500.7" y1="305.2" x2="491.7" y2="285.4" stroke="#bcc3cd" stroke-width="1.3" opacity="0.44" />
  <line x1="500.7" y1="305.2" x2="531.0" y2="270.9" stroke="#bcc3cd" stroke-width="1.0" opacity="0.22" />
  <line x1="500.7" y1="305.2" x2="507.4" y2="292.8" stroke="#bcc3cd" stroke-width="1.5" opacity="0.55" />
  <line x1="243.0" y1="101.5" x2="214.8" y2="111.1" stroke="#bcc3cd" stroke-width="1.0" opacity="0.22" />
  <line x1="607.6" y1="299.6" x2="507.4" y2="292.8" stroke="#bcc3cd" stroke-width="1.0" opacity="0.22" />
  <line x1="511.2" y1="271.6" x2="491.7" y2="285.4" stroke="#bcc3cd" stroke-width="1.1" opacity="0.28" />
  <line x1="511.2" y1="271.6" x2="531.0" y2="270.9" stroke="#bcc3cd" stroke-width="1.2" opacity="0.37" />
  <line x1="511.2" y1="271.6" x2="507.4" y2="292.8" stroke="#bcc3cd" stroke-width="1.2" opacity="0.37" />
  <line x1="649.7" y1="178.6" x2="636.6" y2="167.0" stroke="#bcc3cd" stroke-width="1.5" opacity="0.55" />
  <line x1="649.7" y1="178.6" x2="621.3" y2="203.6" stroke="#bcc3cd" stroke-width="1.3" opacity="0.41" />
  <line x1="636.6" y1="167.0" x2="621.3" y2="203.6" stroke="#bcc3cd" stroke-width="1.0" opacity="0.24" />
  <line x1="534.6" y1="306.2" x2="507.4" y2="292.8" stroke="#bcc3cd" stroke-width="1.1" opacity="0.31" />
  <line x1="480.4" y1="330.9" x2="491.7" y2="285.4" stroke="#bcc3cd" stroke-width="1.0" opacity="0.22" />
  <line x1="491.7" y1="285.4" x2="466.9" y2="248.3" stroke="#bcc3cd" stroke-width="1.2" opacity="0.37" />
  <line x1="491.7" y1="285.4" x2="469.5" y2="233.0" stroke="#bcc3cd" stroke-width="0.9" opacity="0.18" />
  <line x1="491.7" y1="285.4" x2="531.0" y2="270.9" stroke="#bcc3cd" stroke-width="1.1" opacity="0.28" />
  <line x1="491.7" y1="285.4" x2="507.4" y2="292.8" stroke="#bcc3cd" stroke-width="1.1" opacity="0.28" />
  <line x1="466.9" y1="248.3" x2="469.5" y2="233.0" stroke="#bcc3cd" stroke-width="1.1" opacity="0.28" />
  <line x1="531.0" y1="270.9" x2="583.0" y2="251.4" stroke="#bcc3cd" stroke-width="1.1" opacity="0.31" />
  <line x1="531.0" y1="270.9" x2="507.4" y2="292.8" stroke="#bcc3cd" stroke-width="1.2" opacity="0.37" />
  <circle cx="438.1" cy="274.6" r="6.7" fill="#3498db" opacity="0.88" />
  <circle cx="479.2" cy="374.6" r="14" fill="#3498db" opacity="0.88" />
  <circle cx="446.4" cy="294.9" r="14" fill="#7f8c8d" opacity="0.88" />
  <circle cx="492.5" cy="345.2" r="14" fill="#9b59b6" opacity="0.88" />
  <circle cx="418.6" cy="261.3" r="5.8" fill="#3498db" opacity="0.88" />
  <circle cx="483.4" cy="275.5" r="4.9" fill="#3498db" opacity="0.88" />
  <circle cx="478.9" cy="286.6" r="9.4" fill="#e67e22" opacity="0.88" />
  <circle cx="564.1" cy="307.7" r="12.1" fill="#e67e22" opacity="0.88" />
  <circle cx="466.2" cy="298.2" r="13.0" fill="#3498db" opacity="0.88" />
  <circle cx="465.3" cy="287.8" r="11.2" fill="#3498db" opacity="0.88" />
  <circle cx="451.6" cy="284.6" r="13.0" fill="#3498db" opacity="0.88" />
  <circle cx="415.0" cy="282.8" r="14" fill="#e74c3c" opacity="0.88" />
  <circle cx="468.4" cy="363.3" r="14" fill="#e74c3c" opacity="0.88" />
  <circle cx="448.7" cy="266.3" r="7.6" fill="#2ecc71" opacity="0.88" />
  <circle cx="613.0" cy="256.4" r="9.4" fill="#e74c3c" opacity="0.88" />
  <circle cx="765.1" cy="115.7" r="11.2" fill="#3498db" opacity="0.88" />
  <circle cx="555.2" cy="271.9" r="9.4" fill="#e74c3c" opacity="0.88" />
  <circle cx="850.0" cy="329.6" r="4" fill="#3498db" opacity="0.88" />
  <circle cx="523.5" cy="50.0" r="11.2" fill="#3498db" opacity="0.88" />
  <circle cx="541.7" cy="57.9" r="10.3" fill="#3498db" opacity="0.88" />
  <circle cx="355.7" cy="366.5" r="4.9" fill="#3498db" opacity="0.88" />
  <circle cx="466.5" cy="319.6" r="11.2" fill="#9b59b6" opacity="0.88" />
  <circle cx="494.8" cy="334.2" r="14" fill="#9b59b6" opacity="0.88" />
  <circle cx="465.0" cy="341.1" r="7.6" fill="#9b59b6" opacity="0.88" />
  <circle cx="514.1" cy="281.2" r="4" fill="#2ecc71" opacity="0.88" />
  <circle cx="529.6" cy="278.4" r="4.9" fill="#7f8c8d" opacity="0.88" />
  <circle cx="509.1" cy="342.2" r="10.3" fill="#e67e22" opacity="0.88" />
  <circle cx="459.0" cy="325.9" r="14" fill="#2ecc71" opacity="0.88" />
  <circle cx="286.2" cy="368.0" r="5.8" fill="#9b59b6" opacity="0.88" />
  <circle cx="50.0" cy="197.1" r="4" fill="#7f8c8d" opacity="0.88" />
  <circle cx="500.0" cy="318.6" r="11.2" fill="#3498db" opacity="0.88" />
  <circle cx="525.7" cy="319.2" r="12.1" fill="#7f8c8d" opacity="0.88" />
  <circle cx="530.4" cy="296.1" r="8.5" fill="#7f8c8d" opacity="0.88" />
  <circle cx="119.4" cy="383.0" r="4" fill="#7f8c8d" opacity="0.88" />
  <circle cx="516.5" cy="291.9" r="6.7" fill="#7f8c8d" opacity="0.88" />
  <circle cx="492.2" cy="311.6" r="8.5" fill="#7f8c8d" opacity="0.88" />
  <circle cx="493.1" cy="324.6" r="14" fill="#2ecc71" opacity="0.88" />
  <circle cx="500.7" cy="305.2" r="6.7" fill="#7f8c8d" opacity="0.88" />
  <circle cx="243.0" cy="101.5" r="6.7" fill="#7f8c8d" opacity="0.88" />
  <circle cx="607.6" cy="299.6" r="6.7" fill="#3498db" opacity="0.88" />
  <circle cx="511.2" cy="271.6" r="4.9" fill="#7f8c8d" opacity="0.88" />
  <circle cx="649.7" cy="178.6" r="5.8" fill="#e67e22" opacity="0.88" />
  <circle cx="636.6" cy="167.0" r="5.8" fill="#e67e22" opacity="0.88" />
  <circle cx="534.6" cy="306.2" r="9.4" fill="#7f8c8d" opacity="0.88" />
  <circle cx="621.3" cy="203.6" r="10.3" fill="#e67e22" opacity="0.88" />
  <circle cx="214.8" cy="111.1" r="4.9" fill="#7f8c8d" opacity="0.88" />
  <circle cx="480.4" cy="330.9" r="5.8" fill="#7f8c8d" opacity="0.88" />
  <circle cx="491.7" cy="285.4" r="5.8" fill="#7f8c8d" opacity="0.88" />
  <circle cx="466.9" cy="248.3" r="4" fill="#2ecc71" opacity="0.88" />
  <circle cx="469.5" cy="233.0" r="6.7" fill="#2ecc71" opacity="0.88" />
  <circle cx="531.0" cy="270.9" r="4.9" fill="#e74c3c" opacity="0.88" />
  <circle cx="583.0" cy="251.4" r="9.4" fill="#e74c3c" opacity="0.88" />
  <circle cx="507.4" cy="292.8" r="4.9" fill="#7f8c8d" opacity="0.88" />
  <circle cx="245.9" cy="440.0" r="4" fill="#7f8c8d" opacity="0.88" />
  <rect x="446.8" y="259.6" width="15.2" height="14" fill="#ffffff" opacity="0.75" rx="2" />
  <text x="447.8" y="269.6" font-family="system-ui, -apple-system, sans-serif" font-size="11" fill="#1f2328" text-anchor="start">pp</text>
  <rect x="495.2" y="463.7" width="107.6" height="14" fill="#ffffff" opacity="0.75" rx="2" />
  <text x="496.2" y="473.7" font-family="system-ui, -apple-system, sans-serif" font-size="11" fill="#1f2328" text-anchor="start">GloriousFlywheel</text>
  <rect x="462.4" y="198.1" width="114.2" height="14" fill="#ffffff" opacity="0.75" rx="2" />
  <text x="463.4" y="208.1" font-family="system-ui, -apple-system, sans-serif" font-size="11" fill="#1f2328" text-anchor="start">tinyland-huskycat</text>
  <rect x="508.5" y="269.8" width="87.8" height="14" fill="#ffffff" opacity="0.75" rx="2" />
  <text x="509.5" y="279.8" font-family="system-ui, -apple-system, sans-serif" font-size="11" fill="#1f2328" text-anchor="start">GIS_Shortcuts</text>
  <rect x="426.4" y="355.4" width="107.6" height="14" fill="#ffffff" opacity="0.75" rx="2" />
  <text x="427.4" y="365.4" font-family="system-ui, -apple-system, sans-serif" font-size="11" fill="#1f2328" text-anchor="start">tinyland-cleanup</text>
  <rect x="490.3" y="156.3" width="87.8" height="14" fill="#ffffff" opacity="0.75" rx="2" />
  <text x="491.3" y="166.3" font-family="system-ui, -apple-system, sans-serif" font-size="11" fill="#1f2328" text-anchor="start">tinyland-kdbx</text>
  <rect x="490.3" y="256.7" width="41.6" height="14" fill="#ffffff" opacity="0.75" rx="2" />
  <text x="491.3" y="266.7" font-family="system-ui, -apple-system, sans-serif" font-size="11" fill="#1f2328" text-anchor="start">XoxdWM</text>
  <rect x="578.2" y="326.1" width="101.0" height="14" fill="#ffffff" opacity="0.75" rx="2" />
  <text x="579.2" y="336.1" font-family="system-ui, -apple-system, sans-serif" font-size="11" fill="#1f2328" text-anchor="start">hiberpower-ntfs</text>
  <rect x="481.2" y="439.2" width="127.4" height="14" fill="#ffffff" opacity="0.75" rx="2" />
  <text x="482.2" y="449.2" font-family="system-ui, -apple-system, sans-serif" font-size="11" fill="#1f2328" text-anchor="start">Ansible-DAG-Harness</text>
  <rect x="478.5" y="212.4" width="61.4" height="14" fill="#ffffff" opacity="0.75" rx="2" />
  <text x="479.5" y="222.4" font-family="system-ui, -apple-system, sans-serif" font-size="11" fill="#1f2328" text-anchor="start">betterkvm</text>
  <rect x="466.6" y="323.9" width="87.8" height="14" fill="#ffffff" opacity="0.75" rx="2" />
  <text x="467.6" y="333.9" font-family="system-ui, -apple-system, sans-serif" font-size="11" fill="#1f2328" text-anchor="start">DarwinNicUtil</text>
  <rect x="431.0" y="285.3" width="87.8" height="14" fill="#ffffff" opacity="0.75" rx="2" />
  <text x="432.0" y="295.3" font-family="system-ui, -apple-system, sans-serif" font-size="11" fill="#1f2328" text-anchor="start">RemoteJuggler</text>
  <rect x="484.4" y="374.3" width="120.8" height="14" fill="#ffffff" opacity="0.75" rx="2" />
  <text x="485.4" y="384.3" font-family="system-ui, -apple-system, sans-serif" font-size="11" fill="#1f2328" text-anchor="start">pixelwise-research</text>
  <rect x="458.3" y="226.5" width="54.8" height="14" fill="#ffffff" opacity="0.75" rx="2" />
  <text x="459.3" y="236.5" font-family="system-ui, -apple-system, sans-serif" font-size="11" fill="#1f2328" text-anchor="start">gnucashr</text>
  <rect x="624.4" y="249.9" width="61.4" height="14" fill="#ffffff" opacity="0.75" rx="2" />
  <text x="625.4" y="259.9" font-family="system-ui, -apple-system, sans-serif" font-size="11" fill="#1f2328" text-anchor="start">quickchpl</text>
  <rect x="631.1" y="109.6" width="120.8" height="14" fill="#ffffff" opacity="0.75" rx="2" />
  <text x="750.9" y="119.6" font-family="system-ui, -apple-system, sans-serif" font-size="11" fill="#1f2328" text-anchor="end">tinyscale-mikrotik</text>
  <rect x="566.6" y="204.5" width="54.8" height="14" fill="#ffffff" opacity="0.75" rx="2" />
  <text x="567.6" y="214.5" font-family="system-ui, -apple-system, sans-serif" font-size="11" fill="#1f2328" text-anchor="start">aoc-2025</text>
  <rect x="776.0" y="323.4" width="68.0" height="14" fill="#ffffff" opacity="0.75" rx="2" />
  <text x="843.0" y="333.4" font-family="system-ui, -apple-system, sans-serif" font-size="11" fill="#1f2328" text-anchor="end">tinywaffle</text>
  <rect x="536.7" y="39.8" width="61.4" height="14" fill="#ffffff" opacity="0.75" rx="2" />
  <text x="537.7" y="49.8" font-family="system-ui, -apple-system, sans-serif" font-size="11" fill="#1f2328" text-anchor="start">searchies</text>
  <rect x="554.0" y="55.8" width="54.8" height="14" fill="#ffffff" opacity="0.75" rx="2" />
  <text x="555.0" y="65.8" font-family="system-ui, -apple-system, sans-serif" font-size="11" fill="#1f2328" text-anchor="start">ts-caddy</text>
  <rect x="362.6" y="353.1" width="61.4" height="14" fill="#ffffff" opacity="0.75" rx="2" />
  <text x="363.6" y="363.1" font-family="system-ui, -apple-system, sans-serif" font-size="11" fill="#1f2328" text-anchor="start">HCI-notes</text>
  <rect x="479.7" y="239.3" width="81.2" height="14" fill="#ffffff" opacity="0.75" rx="2" />
  <text x="480.7" y="249.3" font-family="system-ui, -apple-system, sans-serif" font-size="11" fill="#1f2328" text-anchor="start">FastPhotoAPI</text>
  <rect x="510.8" y="368.4" width="74.6" height="14" fill="#ffffff" opacity="0.75" rx="2" />
  <text x="511.8" y="378.4" font-family="system-ui, -apple-system, sans-serif" font-size="11" fill="#1f2328" text-anchor="start">timberbuddy</text>
  <rect x="474.6" y="397.7" width="74.6" height="14" fill="#ffffff" opacity="0.75" rx="2" />
  <text x="475.6" y="407.7" font-family="system-ui, -apple-system, sans-serif" font-size="11" fill="#1f2328" text-anchor="start">tetrahedron</text>
  <rect x="520.1" y="294.0" width="87.8" height="14" fill="#ffffff" opacity="0.75" rx="2" />
  <text x="521.1" y="304.0" font-family="system-ui, -apple-system, sans-serif" font-size="11" fill="#1f2328" text-anchor="start">AccuWixReport</text>
  <rect x="536.5" y="244.9" width="87.8" height="14" fill="#ffffff" opacity="0.75" rx="2" />
  <text x="537.5" y="254.9" font-family="system-ui, -apple-system, sans-serif" font-size="11" fill="#1f2328" text-anchor="start">Jess-AOC-2023</text>
  <rect x="521.4" y="230.6" width="74.6" height="14" fill="#ffffff" opacity="0.75" rx="2" />
  <text x="522.4" y="240.6" font-family="system-ui, -apple-system, sans-serif" font-size="11" fill="#1f2328" text-anchor="start">TurkeyProbe</text>
  <rect x="475.0" y="385.6" width="140.6" height="14" fill="#ffffff" opacity="0.75" rx="2" />
  <text x="476.0" y="395.6" font-family="system-ui, -apple-system, sans-serif" font-size="11" fill="#1f2328" text-anchor="start">MerlinAI-Interpreters</text>
  <rect x="294.0" y="369.1" width="101.0" height="14" fill="#ffffff" opacity="0.75" rx="2" />
  <text x="295.0" y="379.1" font-family="system-ui, -apple-system, sans-serif" font-size="11" fill="#1f2328" text-anchor="start">IntroTypeScript</text>
  <rect x="56.0" y="191.0" width="101.0" height="14" fill="#ffffff" opacity="0.75" rx="2" />
  <text x="57.0" y="201.0" font-family="system-ui, -apple-system, sans-serif" font-size="11" fill="#1f2328" text-anchor="start">IG-3DP-Profiles</text>
  <rect x="513.2" y="330.6" width="61.4" height="14" fill="#ffffff" opacity="0.75" rx="2" />
  <text x="514.2" y="340.6" font-family="system-ui, -apple-system, sans-serif" font-size="11" fill="#1f2328" text-anchor="start">DLA-Flask</text>
  <rect x="539.8" y="357.5" width="35.0" height="14" fill="#ffffff" opacity="0.75" rx="2" />
  <text x="540.8" y="367.5" font-family="system-ui, -apple-system, sans-serif" font-size="11" fill="#1f2328" text-anchor="start">USBoN</text>
  <rect x="540.9" y="288.8" width="186.8" height="14" fill="#ffffff" opacity="0.75" rx="2" />
  <text x="541.9" y="298.8" font-family="system-ui, -apple-system, sans-serif" font-size="11" fill="#1f2328" text-anchor="start">chrome-remote-desktop-budgie</text>
  <rect x="125.4" y="376.9" width="114.2" height="14" fill="#ffffff" opacity="0.75" rx="2" />
  <text x="126.4" y="386.9" font-family="system-ui, -apple-system, sans-serif" font-size="11" fill="#1f2328" text-anchor="start">OminousBeepingApp</text>
  <rect x="525.2" y="170.2" width="127.4" height="14" fill="#ffffff" opacity="0.75" rx="2" />
  <text x="526.2" y="180.2" font-family="system-ui, -apple-system, sans-serif" font-size="11" fill="#1f2328" text-anchor="start">mo-image-identifier</text>
  <rect x="502.7" y="452.5" width="180.2" height="14" fill="#ffffff" opacity="0.75" rx="2" />
  <text x="503.7" y="462.5" font-family="system-ui, -apple-system, sans-serif" font-size="11" fill="#1f2328" text-anchor="start">squirrel-leaflet-annotation</text>
  <rect x="509.1" y="426.5" width="68.0" height="14" fill="#ffffff" opacity="0.75" rx="2" />
  <text x="510.1" y="436.5" font-family="system-ui, -apple-system, sans-serif" font-size="11" fill="#1f2328" text-anchor="start">Shiny-Apps</text>
  <rect x="509.4" y="299.7" width="127.4" height="14" fill="#ffffff" opacity="0.75" rx="2" />
  <text x="510.4" y="309.7" font-family="system-ui, -apple-system, sans-serif" font-size="11" fill="#1f2328" text-anchor="start">bbox-jest-puppeteer</text>
  <rect x="251.7" y="92.2" width="81.2" height="14" fill="#ffffff" opacity="0.75" rx="2" />
  <text x="252.7" y="102.2" font-family="system-ui, -apple-system, sans-serif" font-size="11" fill="#1f2328" text-anchor="start">DoverDisplay</text>
  <rect x="616.3" y="339.8" width="74.6" height="14" fill="#ffffff" opacity="0.75" rx="2" />
  <text x="617.3" y="349.8" font-family="system-ui, -apple-system, sans-serif" font-size="11" fill="#1f2328" text-anchor="start">LeafletSync</text>
  <rect x="518.1" y="274.8" width="153.8" height="14" fill="#ffffff" opacity="0.75" rx="2" />
  <text x="519.1" y="284.8" font-family="system-ui, -apple-system, sans-serif" font-size="11" fill="#1f2328" text-anchor="start">misc-roi-distance-notes</text>
  <rect x="657.5" y="144.2" width="127.4" height="14" fill="#ffffff" opacity="0.75" rx="2" />
  <text x="658.5" y="154.2" font-family="system-ui, -apple-system, sans-serif" font-size="11" fill="#1f2328" text-anchor="start">Arduino_Coil_Winder</text>
  <rect x="644.4" y="130.2" width="28.4" height="14" fill="#ffffff" opacity="0.75" rx="2" />
  <text x="645.4" y="140.2" font-family="system-ui, -apple-system, sans-serif" font-size="11" fill="#1f2328" text-anchor="start">momo</text>
  <rect x="546.0" y="214.6" width="35.0" height="14" fill="#ffffff" opacity="0.75" rx="2" />
  <text x="547.0" y="224.6" font-family="system-ui, -apple-system, sans-serif" font-size="11" fill="#1f2328" text-anchor="start">clipi</text>
  <rect x="633.6" y="158.3" width="101.0" height="14" fill="#ffffff" opacity="0.75" rx="2" />
  <text x="634.6" y="168.3" font-family="system-ui, -apple-system, sans-serif" font-size="11" fill="#1f2328" text-anchor="start">AeroTaz5_hotfix</text>
  <rect x="221.7" y="108.2" width="101.0" height="14" fill="#ffffff" opacity="0.75" rx="2" />
  <text x="222.7" y="118.2" font-family="system-ui, -apple-system, sans-serif" font-size="11" fill="#1f2328" text-anchor="start">Funmat-HT-Notes</text>
  <rect x="488.2" y="410.5" width="74.6" height="14" fill="#ffffff" opacity="0.75" rx="2" />
  <text x="489.2" y="420.5" font-family="system-ui, -apple-system, sans-serif" font-size="11" fill="#1f2328" text-anchor="start">static-site</text>
  <rect x="499.5" y="315.7" width="87.8" height="14" fill="#ffffff" opacity="0.75" rx="2" />
  <text x="500.5" y="325.7" font-family="system-ui, -apple-system, sans-serif" font-size="11" fill="#1f2328" text-anchor="start">Flask-Manager</text>
  <rect x="472.9" y="186.2" width="101.0" height="14" fill="#ffffff" opacity="0.75" rx="2" />
  <text x="473.9" y="196.2" font-family="system-ui, -apple-system, sans-serif" font-size="11" fill="#1f2328" text-anchor="start">FieldProcessing</text>
  <rect x="478.2" y="142.3" width="74.6" height="14" fill="#ffffff" opacity="0.75" rx="2" />
  <text x="479.2" y="152.3" font-family="system-ui, -apple-system, sans-serif" font-size="11" fill="#1f2328" text-anchor="start">rJDKmanager</text>
  <rect x="537.9" y="258.8" width="54.8" height="14" fill="#ffffff" opacity="0.75" rx="2" />
  <text x="538.9" y="268.8" font-family="system-ui, -apple-system, sans-serif" font-size="11" fill="#1f2328" text-anchor="start">tagnotes</text>
  <rect x="594.4" y="191.2" width="74.6" height="14" fill="#ffffff" opacity="0.75" rx="2" />
  <text x="595.4" y="201.2" font-family="system-ui, -apple-system, sans-serif" font-size="11" fill="#1f2328" text-anchor="start">ChapelTests</text>
  <rect x="514.3" y="341.5" width="81.2" height="14" fill="#ffffff" opacity="0.75" rx="2" />
  <text x="515.3" y="351.5" font-family="system-ui, -apple-system, sans-serif" font-size="11" fill="#1f2328" text-anchor="start">Xfinity-WiFi</text>
  <rect x="251.9" y="433.9" width="61.4" height="14" fill="#ffffff" opacity="0.75" rx="2" />
  <text x="252.9" y="443.9" font-family="system-ui, -apple-system, sans-serif" font-size="11" fill="#1f2328" text-anchor="start">home-wiki</text>
  <rect x="733" y="36" width="155" height="120" rx="6" fill="#f6f8fa" stroke="#d0d7de" stroke-width="1" opacity="0.95" />
  <circle cx="750" cy="52" r="5" fill="#e74c3c" opacity="0.88" />
  <text x="760" y="56" font-family="system-ui, -apple-system, sans-serif" font-size="10" fill="#1f2328">Languages &amp; Compilers</text>
  <circle cx="750" cy="69" r="5" fill="#3498db" opacity="0.88" />
  <text x="760" y="73" font-family="system-ui, -apple-system, sans-serif" font-size="10" fill="#1f2328">Infrastructure &amp; DevOps</text>
  <circle cx="750" cy="86" r="5" fill="#e67e22" opacity="0.88" />
  <text x="760" y="90" font-family="system-ui, -apple-system, sans-serif" font-size="10" fill="#1f2328">Hardware &amp; Maker</text>
  <circle cx="750" cy="103" r="5" fill="#2ecc71" opacity="0.88" />
  <text x="760" y="107" font-family="system-ui, -apple-system, sans-serif" font-size="10" fill="#1f2328">ML &amp; Data</text>
  <circle cx="750" cy="120" r="5" fill="#9b59b6" opacity="0.88" />
  <text x="760" y="124" font-family="system-ui, -apple-system, sans-serif" font-size="10" fill="#1f2328">Web &amp; Apps</text>
  <circle cx="750" cy="137" r="5" fill="#7f8c8d" opacity="0.88" />
  <text x="760" y="141" font-family="system-ui, -apple-system, sans-serif" font-size="10" fill="#1f2328">Other</text>
  <text x="810" y="150" font-family="system-ui, -apple-system, sans-serif" font-size="8" fill="#656d76" text-anchor="middle">54 repos · 207 edges</text>
</svg>