<svg xmlns="http://www.w3.org/2000/svg" width="960" height="600" viewBox="0 0 960 600">
  <rect width="960" height="600" fill="#ffffff" rx="8" />
  <text x="480" y="24" font-family="system-ui, -apple-system, sans-serif" font-size="13" fill="#656d76" text-anchor="middle" font-weight="500">Repo Relationship Graph &#x2014; Pairwise Topic &amp; Language Similarity</text>
  <line x1="50" y1="550" x2="910" y2="550" stroke="#d0d7de" stroke-width="0.5" opacity="0.5" />
  <text x="50" y="570" font-family="system-ui, -apple-system, sans-serif" font-size="9" fill="#656d76" opacity="0.6">Updated daily by GitHub Actions</text>
  <text x="50" y="588" font-family="system-ui, -apple-system, sans-serif" font-size="9" fill="#656d76" opacity="0.6">networkx spring_layout · Jaccard similarity &gt; 0.15</text>
  <text x="910" y="570" font-family="system-ui, -apple-system, sans-serif" font-size="9" fill="#656d76" text-anchor="end" opacity="0.6">55 repos · 227 edges</text>
  <line x1="639.1" y1="316.2" x2="686.0" y2="316.0" stroke="#bcc3cd" stroke-width="1.1" opacity="0.29" />
  <line x1="639.1" y1="316.2" x2="548.2" y2="320.9" stroke="#bcc3cd" stroke-width="1.2" opacity="0.34" />
  <line x1="639.1" y1="316.2" x2="713.5" y2="293.1" stroke="#bcc3cd" stroke-width="0.9" opacity="0.21" />
  <line x1="639.1" y1="316.2" x2="572.5" y2="308.4" stroke="#bcc3cd" stroke-width="1.2" opacity="0.34" />
  <line x1="639.1" y1="316.2" x2="677.6" y2="306.0" stroke="#bcc3cd" stroke-width="1.1" opacity="0.30" />
  <line x1="639.1" y1="316.2" x2="695.4" y2="321.0" stroke="#bcc3cd" stroke-width="0.9" opacity="0.20" />
  <line x1="639.1" y1="316.2" x2="714.8" y2="313.9" stroke="#bcc3cd" stroke-width="1.0" opacity="0.22" />
  <line x1="639.1" y1="316.2" x2="710.7" y2="305.3" stroke="#bcc3cd" stroke-width="0.9" opacity="0.20" />
  <line x1="639.1" y1="316.2" x2="674.1" y2="286.4" stroke="#bcc3cd" stroke-width="0.9" opacity="0.19" />
  <line x1="639.1" y1="316.2" x2="739.5" y2="294.1" stroke="#bcc3cd" stroke-width="0.9" opacity="0.19" />
  <line x1="639.1" y1="316.2" x2="626.3" y2="335.6" stroke="#bcc3cd" stroke-width="1.2" opacity="0.37" />
  <line x1="639.1" y1="316.2" x2="580.0" y2="336.4" stroke="#bcc3cd" stroke-width="1.2" opacity="0.37" />
  <line x1="639.1" y1="316.2" x2="616.0" y2="325.0" stroke="#bcc3cd" stroke-width="1.1" opacity="0.29" />
  <line x1="639.1" y1="316.2" x2="659.6" y2="344.8" stroke="#bcc3cd" stroke-width="1.0" opacity="0.22" />
  <line x1="639.1" y1="316.2" x2="668.5" y2="338.2" stroke="#bcc3cd" stroke-width="1.2" opacity="0.34" />
  <line x1="639.1" y1="316.2" x2="640.1" y2="342.2" stroke="#bcc3cd" stroke-width="1.0" opacity="0.24" />
  <line x1="639.1" y1="316.2" x2="692.7" y2="337.4" stroke="#bcc3cd" stroke-width="1.1" opacity="0.29" />
  <line x1="639.1" y1="316.2" x2="611.9" y2="339.9" stroke="#bcc3cd" stroke-width="1.0" opacity="0.22" />
  <line x1="686.0" y1="316.0" x2="713.5" y2="293.1" stroke="#bcc3cd" stroke-width="0.9" opacity="0.20" />
  <line x1="686.0" y1="316.0" x2="572.5" y2="308.4" stroke="#bcc3cd" stroke-width="0.9" opacity="0.18" />
  <line x1="686.0" y1="316.0" x2="677.6" y2="306.0" stroke="#bcc3cd" stroke-width="1.0" opacity="0.24" />
  <line x1="686.0" y1="316.0" x2="757.0" y2="318.1" stroke="#bcc3cd" stroke-width="1.0" opacity="0.24" />
  <line x1="686.0" y1="316.0" x2="786.4" y2="319.6" stroke="#bcc3cd" stroke-width="0.9" opacity="0.21" />
  <line x1="686.0" y1="316.0" x2="695.4" y2="321.0" stroke="#bcc3cd" stroke-width="1.1" opacity="0.28" />
  <line x1="686.0" y1="316.0" x2="714.8" y2="313.9" stroke="#bcc3cd" stroke-width="1.1" opacity="0.31" />
  <line x1="686.0" y1="316.0" x2="710.7" y2="305.3" stroke="#bcc3cd" stroke-width="1.1" opacity="0.28" />
  <line x1="686.0" y1="316.0" x2="674.1" y2="286.4" stroke="#bcc3cd" stroke-width="1.0" opacity="0.24" />
  <line x1="686.0" y1="316.0" x2="739.5" y2="294.1" stroke="#bcc3cd" stroke-width="0.9" opacity="0.18" />
  <line x1="686.0" y1="316.0" x2="626.3" y2="335.6" stroke="#bcc3cd" stroke-width="0.9" opacity="0.17" />
  <line x1="686.0" y1="316.0" x2="725.6" y2="351.8" stroke="#bcc3cd" stroke-width="0.9" opacity="0.17" />
  <line x1="686.0" y1="316.0" x2="737.5" y2="341.6" stroke="#bcc3cd" stroke-width="0.9" opacity="0.20" />
  <line x1="686.0" y1="316.0" x2="668.5" y2="338.2" stroke="#bcc3cd" stroke-width="0.9" opacity="0.17" />
  <line x1="686.0" y1="316.0" x2="640.1" y2="342.2" stroke="#bcc3cd" stroke-width="0.9" opacity="0.17" />
  <line x1="686.0" y1="316.0" x2="692.7" y2="337.4" stroke="#bcc3cd" stroke-width="1.1" opacity="0.33" />
  <line x1="686.0" y1="316.0" x2="732.1" y2="336.6" stroke="#bcc3cd" stroke-width="1.0" opacity="0.24" />
  <line x1="548.2" y1="320.9" x2="572.5" y2="308.4" stroke="#bcc3cd" stroke-width="1.0" opacity="0.25" />
  <line x1="548.2" y1="320.9" x2="626.3" y2="335.6" stroke="#bcc3cd" stroke-width="1.0" opacity="0.25" />
  <line x1="548.2" y1="320.9" x2="580.0" y2="336.4" stroke="#bcc3cd" stroke-width="1.1" opacity="0.29" />
  <line x1="548.2" y1="320.9" x2="611.9" y2="339.9" stroke="#bcc3cd" stroke-width="0.9" opacity="0.17" />
  <line x1="713.5" y1="293.1" x2="677.6" y2="306.0" stroke="#bcc3cd" stroke-width="1.0" opacity="0.24" />
  <line x1="713.5" y1="293.1" x2="740.9" y2="277.0" stroke="#bcc3cd" stroke-width="2.0" opacity="0.80" />
  <line x1="713.5" y1="293.1" x2="757.0" y2="318.1" stroke="#bcc3cd" stroke-width="1.0" opacity="0.22" />
  <line x1="713.5" y1="293.1" x2="695.4" y2="321.0" stroke="#bcc3cd" stroke-width="0.9" opacity="0.17" />
  <line x1="713.5" y1="293.1" x2="714.8" y2="313.9" stroke="#bcc3cd" stroke-width="0.9" opacity="0.20" />
  <line x1="713.5" y1="293.1" x2="710.7" y2="305.3" stroke="#bcc3cd" stroke-width="0.9" opacity="0.17" />
  <line x1="713.5" y1="293.1" x2="674.1" y2="286.4" stroke="#bcc3cd" stroke-width="1.0" opacity="0.23" />
  <line x1="713.5" y1="293.1" x2="739.5" y2="294.1" stroke="#bcc3cd" stroke-width="1.5" opacity="0.55" />
  <line x1="713.5" y1="293.1" x2="732.1" y2="336.6" stroke="#bcc3cd" stroke-width="1.0" opacity="0.22" />
  <line x1="572.5" y1="308.4" x2="626.3" y2="335.6" stroke="#bcc3cd" stroke-width="0.9" opacity="0.20" />
  <line x1="572.5" y1="308.4" x2="580.0" y2="336.4" stroke="#bcc3cd" stroke-width="1.0" opacity="0.22" />
  <line x1="677.6" y1="306.0" x2="757.0" y2="318.1" stroke="#bcc3cd" stroke-width="0.9" opacity="0.17" />
  <line x1="677.6" y1="306.0" x2="695.4" y2="321.0" stroke="#bcc3cd" stroke-width="1.0" opacity="0.22" />
  <line x1="677.6" y1="306.0" x2="714.8" y2="313.9" stroke="#bcc3cd" stroke-width="1.0" opacity="0.24" />
  <line x1="677.6" y1="306.0" x2="710.7" y2="305.3" stroke="#bcc3cd" stroke-width="1.0" opacity="0.22" />
  <line x1="677.6" y1="306.0" x2="674.1" y2="286.4" stroke="#bcc3cd" stroke-width="0.9" opacity="0.20" />
  <line x1="677.6" y1="306.0" x2="739.5" y2="294.1" stroke="#bcc3cd" stroke-width="1.0" opacity="0.22" />
  <line x1="677.6" y1="306.0" x2="616.0" y2="325.0" stroke="#bcc3cd" stroke-width="0.9" opacity="0.19" />
  <line x1="677.6" y1="306.0" x2="668.5" y2="338.2" stroke="#bcc3cd" stroke-width="0.9" opacity="0.21" />
  <line x1="677.6" y1="306.0" x2="692.7" y2="337.4" stroke="#bcc3cd" stroke-width="1.0" opacity="0.24" />
  <line x1="677.6" y1="306.0" x2="732.1" y2="336.6" stroke="#bcc3cd" stroke-width="0.9" opacity="0.17" />
  <line x1="598.5" y1="359.5" x2="626.3" y2="335.6" stroke="#bcc3cd" stroke-width="0.9" opacity="0.18" />
  <line x1="598.5" y1="359.5" x2="580.0" y2="336.4" stroke="#bcc3cd" stroke-width="0.9" opacity="0.18" />
  <line x1="598.5" y1="359.5" x2="668.5" y2="338.2" stroke="#bcc3cd" stroke-width="0.9" opacity="0.17" />
  <line x1="598.5" y1="359.5" x2="640.1" y2="342.2" stroke="#bcc3cd" stroke-width="1.3" opacity="0.42" />
  <line x1="598.5" y1="359.5" x2="692.7" y2="337.4" stroke="#bcc3cd" stroke-width="0.9" opacity="0.19" />
  <line x1="598.5" y1="359.5" x2="611.9" y2="339.9" stroke="#bcc3cd" stroke-width="0.9" opacity="0.21" />
  <line x1="740.9" y1="277.0" x2="757.0" y2="318.1" stroke="#bcc3cd" stroke-width="1.1" opacity="0.28" />
  <line x1="740.9" y1="277.0" x2="674.1" y2="286.4" stroke="#bcc3cd" stroke-width="0.9" opacity="0.17" />
  <line x1="740.9" y1="277.0" x2="739.5" y2="294.1" stroke="#bcc3cd" stroke-width="1.2" opacity="0.37" />
  <line x1="757.0" y1="318.1" x2="695.4" y2="321.0" stroke="#bcc3cd" stroke-width="0.9" opacity="0.20" />
  <line x1="757.0" y1="318.1" x2="714.8" y2="313.9" stroke="#bcc3cd" stroke-width="1.0" opacity="0.24" />
  <line x1="757.0" y1="318.1" x2="710.7" y2="305.3" stroke="#bcc3cd" stroke-width="0.9" opacity="0.20" />
  <line x1="757.0" y1="318.1" x2="739.5" y2="294.1" stroke="#bcc3cd" stroke-width="0.9" opacity="0.18" />
  <line x1="757.0" y1="318.1" x2="769.0" y2="336.4" stroke="#bcc3cd" stroke-width="1.5" opacity="0.55" />
  <line x1="757.0" y1="318.1" x2="778.3" y2="345.7" stroke="#bcc3cd" stroke-width="1.2" opacity="0.37" />
  <line x1="757.0" y1="318.1" x2="737.5" y2="341.6" stroke="#bcc3cd" stroke-width="1.0" opacity="0.22" />
  <line x1="757.0" y1="318.1" x2="692.7" y2="337.4" stroke="#bcc3cd" stroke-width="1.0" opacity="0.22" />
  <line x1="757.0" y1="318.1" x2="796.7" y2="333.3" stroke="#bcc3cd" stroke-width="1.2" opacity="0.37" />
  <line x1="757.0" y1="318.1" x2="736.4" y2="324.1" stroke="#bcc3cd" stroke-width="1.1" opacity="0.28" />
  <line x1="757.0" y1="318.1" x2="797.2" y2="347.2" stroke="#bcc3cd" stroke-width="1.2" opacity="0.37" />
  <line x1="757.0" y1="318.1" x2="732.1" y2="336.6" stroke="#bcc3cd" stroke-width="1.2" opacity="0.37" />
  <line x1="786.4" y1="319.6" x2="737.5" y2="341.6" stroke="#bcc3cd" stroke-width="0.9" opacity="0.18" />
  <line x1="786.4" y1="319.6" x2="692.7" y2="337.4" stroke="#bcc3cd" stroke-width="1.1" opacity="0.30" />
  <line x1="786.4" y1="319.6" x2="732.1" y2="336.6" stroke="#bcc3cd" stroke-width="1.0" opacity="0.22" />
  <line x1="695.4" y1="321.0" x2="714.8" y2="313.9" stroke="#bcc3cd" stroke-width="1.1" opacity="0.28" />
  <line x1="695.4" y1="321.0" x2="710.7" y2="305.3" stroke="#bcc3cd" stroke-width="1.0" opacity="0.24" />
  <line x1="695.4" y1="321.0" x2="674.1" y2="286.4" stroke="#bcc3cd" stroke-width="0.9" opacity="0.17" />
  <line x1="695.4" y1="321.0" x2="659.6" y2="344.8" stroke="#bcc3cd" stroke-width="0.9" opacity="0.19" />
  <line x1="695.4" y1="321.0" x2="677.7" y2="358.1" stroke="#bcc3cd" stroke-width="0.9" opacity="0.18" />
  <line x1="695.4" y1="321.0" x2="737.5" y2="341.6" stroke="#bcc3cd" stroke-width="0.9" opacity="0.17" />
  <line x1="695.4" y1="321.0" x2="692.7" y2="337.4" stroke="#bcc3cd" stroke-width="0.9" opacity="0.17" />
  <line x1="695.4" y1="321.0" x2="732.1" y2="336.6" stroke="#bcc3cd" stroke-width="0.9" opacity="0.20" />
  <line x1="714.8" y1="313.9" x2="710.7" y2="305.3" stroke="#bcc3cd" stroke-width="1.1" opacity="0.28" />
  <line x1="714.8" y1="313.9" x2="674.1" y2="286.4" stroke="#bcc3cd" stroke-width="0.9" opacity="0.18" />
  <line x1="714.8" y1="313.9" x2="739.5" y2="294.1" stroke="#bcc3cd" stroke-width="0.9" opacity="0.18" />
  <line x1="714.8" y1="313.9" x2="725.6" y2="351.8" stroke="#bcc3cd" stroke-width="0.9" opacity="0.17" />
  <line x1="714.8" y1="313.9" x2="737.5" y2="341.6" stroke="#bcc3cd" stroke-width="0.9" opacity="0.20" />
  <line x1="714.8" y1="313.9" x2="668.5" y2="338.2" stroke="#bcc3cd" stroke-width="0.9" opacity="0.17" />
  <line x1="714.8" y1="313.9" x2="692.7" y2="337.4" stroke="#bcc3cd" stroke-width="0.9" opacity="0.20" />
  <line x1="714.8" y1="313.9" x2="732.1" y2="336.6" stroke="#bcc3cd" stroke-width="1.0" opacity="0.24" />
  <line x1="710.7" y1="305.3" x2="674.1" y2="286.4" stroke="#bcc3cd" stroke-width="0.9" opacity="0.17" />
  <line x1="710.7" y1="305.3" x2="737.5" y2="341.6" stroke="#bcc3cd" stroke-width="0.9" opacity="0.17" />
  <line x1="710.7" y1="305.3" x2="692.7" y2="337.4" stroke="#bcc3cd" stroke-width="0.9" opacity="0.17" />
  <line x1="710.7" y1="305.3" x2="732.1" y2="336.6" stroke="#bcc3cd" stroke-width="0.9" opacity="0.20" />
  <line x1="739.5" y1="294.1" x2="808.3" y2="286.8" stroke="#bcc3cd" stroke-width="1.0" opacity="0.22" />
  <line x1="739.5" y1="294.1" x2="732.1" y2="336.6" stroke="#bcc3cd" stroke-width="0.9" opacity="0.18" />
  <line x1="860.3" y1="386.8" x2="768.0" y2="372.4" stroke="#bcc3cd" stroke-width="1.3" opacity="0.44" />
  <line x1="860.3" y1="386.8" x2="864.5" y2="372.5" stroke="#bcc3cd" stroke-width="0.9" opacity="0.18" />
  <line x1="768.0" y1="372.4" x2="778.3" y2="345.7" stroke="#bcc3cd" stroke-width="1.1" opacity="0.31" />
  <line x1="768.0" y1="372.4" x2="725.6" y2="351.8" stroke="#bcc3cd" stroke-width="0.9" opacity="0.20" />
  <line x1="768.0" y1="372.4" x2="737.5" y2="341.6" stroke="#bcc3cd" stroke-width="1.0" opacity="0.24" />
  <line x1="768.0" y1="372.4" x2="668.5" y2="338.2" stroke="#bcc3cd" stroke-width="0.9" opacity="0.20" />
  <line x1="768.0" y1="372.4" x2="692.7" y2="337.4" stroke="#bcc3cd" stroke-width="1.0" opacity="0.24" />
  <line x1="768.0" y1="372.4" x2="707.0" y2="363.5" stroke="#bcc3cd" stroke-width="0.9" opacity="0.18" />
  <line x1="768.0" y1="372.4" x2="705.0" y2="449.2" stroke="#bcc3cd" stroke-width="0.9" opacity="0.17" />
  <line x1="768.0" y1="372.4" x2="797.2" y2="347.2" stroke="#bcc3cd" stroke-width="1.1" opacity="0.31" />
  <line x1="768.0" y1="372.4" x2="864.5" y2="372.5" stroke="#bcc3cd" stroke-width="1.1" opacity="0.30" />
  <line x1="768.0" y1="372.4" x2="732.1" y2="336.6" stroke="#bcc3cd" stroke-width="1.1" opacity="0.31" />
  <line x1="233.0" y1="107.3" x2="197.6" y2="105.9" stroke="#bcc3cd" stroke-width="1.6" opacity="0.60" />
  <line x1="392.9" y1="345.2" x2="580.0" y2="336.4" stroke="#bcc3cd" stroke-width="0.9" opacity="0.18" />
  <line x1="392.9" y1="345.2" x2="288.2" y2="350.0" stroke="#bcc3cd" stroke-width="1.1" opacity="0.28" />
  <line x1="637.7" y1="355.1" x2="626.3" y2="335.6" stroke="#bcc3cd" stroke-width="0.9" opacity="0.17" />
  <line x1="637.7" y1="355.1" x2="580.0" y2="336.4" stroke="#bcc3cd" stroke-width="0.9" opacity="0.18" />
  <line x1="637.7" y1="355.1" x2="659.6" y2="344.8" stroke="#bcc3cd" stroke-width="1.0" opacity="0.22" />
  <line x1="637.7" y1="355.1" x2="668.5" y2="338.2" stroke="#bcc3cd" stroke-width="1.1" opacity="0.28" />
  <line x1="637.7" y1="355.1" x2="640.1" y2="342.2" stroke="#bcc3cd" stroke-width="1.1" opacity="0.32" />
  <line x1="637.7" y1="355.1" x2="692.7" y2="337.4" stroke="#bcc3cd" stroke-width="0.9" opacity="0.20" />
  <line x1="637.7" y1="355.1" x2="611.9" y2="339.9" stroke="#bcc3cd" stroke-width="1.0" opacity="0.22" />
  <line x1="637.7" y1="355.1" x2="736.4" y2="324.1" stroke="#bcc3cd" stroke-width="1.0" opacity="0.22" />
  <line x1="626.3" y1="335.6" x2="580.0" y2="336.4" stroke="#bcc3cd" stroke-width="1.3" opacity="0.42" />
  <line x1="626.3" y1="335.6" x2="578.9" y2="350.4" stroke="#bcc3cd" stroke-width="0.9" opacity="0.18" />
  <line x1="626.3" y1="335.6" x2="616.0" y2="325.0" stroke="#bcc3cd" stroke-width="1.1" opacity="0.31" />
  <line x1="626.3" y1="335.6" x2="659.6" y2="344.8" stroke="#bcc3cd" stroke-width="1.1" opacity="0.32" />
  <line x1="626.3" y1="335.6" x2="677.7" y2="358.1" stroke="#bcc3cd" stroke-width="1.0" opacity="0.23" />
  <line x1="626.3" y1="335.6" x2="668.5" y2="338.2" stroke="#bcc3cd" stroke-width="1.2" opacity="0.39" />
  <line x1="626.3" y1="335.6" x2="640.1" y2="342.2" stroke="#bcc3cd" stroke-width="1.0" opacity="0.26" />
  <line x1="626.3" y1="335.6" x2="692.7" y2="337.4" stroke="#bcc3cd" stroke-width="1.2" opacity="0.34" />
  <line x1="626.3" y1="335.6" x2="707.0" y2="363.5" stroke="#bcc3cd" stroke-width="0.9" opacity="0.19" />
  <line x1="626.3" y1="335.6" x2="611.9" y2="339.9" stroke="#bcc3cd" stroke-width="1.0" opacity="0.25" />
  <line x1="626.3" y1="335.6" x2="732.1" y2="336.6" stroke="#bcc3cd" stroke-width="0.9" opacity="0.17" />
  <line x1="580.0" y1="336.4" x2="578.9" y2="350.4" stroke="#bcc3cd" stroke-width="1.1" opacity="0.33" />
  <line x1="580.0" y1="336.4" x2="616.0" y2="325.0" stroke="#bcc3cd" stroke-width="0.9" opacity="0.21" />
  <line x1="580.0" y1="336.4" x2="659.6" y2="344.8" stroke="#bcc3cd" stroke-width="0.9" opacity="0.18" />
  <line x1="580.0" y1="336.4" x2="668.5" y2="338.2" stroke="#bcc3cd" stroke-width="1.3" opacity="0.41" />
  <line x1="580.0" y1="336.4" x2="640.1" y2="342.2" stroke="#bcc3cd" stroke-width="1.0" opacity="0.22" />
  <line x1="580.0" y1="336.4" x2="692.7" y2="337.4" stroke="#bcc3cd" stroke-width="1.1" opacity="0.31" />
  <line x1="580.0" y1="336.4" x2="611.9" y2="339.9" stroke="#bcc3cd" stroke-width="1.7" opacity="0.66" />
  <line x1="769.0" y1="336.4" x2="778.3" y2="345.7" stroke="#bcc3cd" stroke-width="1.5" opacity="0.55" />
  <line x1="769.0" y1="336.4" x2="725.6" y2="351.8" stroke="#bcc3cd" stroke-width="0.9" opacity="0.18" />
  <line x1="769.0" y1="336.4" x2="737.5" y2="341.6" stroke="#bcc3cd" stroke-width="1.1" opacity="0.28" />
  <line x1="769.0" y1="336.4" x2="668.5" y2="338.2" stroke="#bcc3cd" stroke-width="0.9" opacity="0.18" />
  <line x1="769.0" y1="336.4" x2="692.7" y2="337.4" stroke="#bcc3cd" stroke-width="1.1" opacity="0.28" />
  <line x1="769.0" y1="336.4" x2="796.7" y2="333.3" stroke="#bcc3cd" stroke-width="1.5" opacity="0.55" />
  <line x1="769.0" y1="336.4" x2="736.4" y2="324.1" stroke="#bcc3cd" stroke-width="1.2" opacity="0.37" />
  <line x1="769.0" y1="336.4" x2="797.2" y2="347.2" stroke="#bcc3cd" stroke-width="1.5" opacity="0.55" />
  <line x1="769.0" y1="336.4" x2="732.1" y2="336.6" stroke="#bcc3cd" stroke-width="1.5" opacity="0.55" />
  <line x1="778.3" y1="345.7" x2="737.5" y2="341.6" stroke="#bcc3cd" stroke-width="1.0" opacity="0.22" />
  <line x1="778.3" y1="345.7" x2="692.7" y2="337.4" stroke="#bcc3cd" stroke-width="1.0" opacity="0.22" />
  <line x1="778.3" y1="345.7" x2="796.7" y2="333.3" stroke="#bcc3cd" stroke-width="1.2" opacity="0.37" />
  <line x1="778.3" y1="345.7" x2="736.4" y2="324.1" stroke="#bcc3cd" stroke-width="1.1" opacity="0.28" />
  <line x1="778.3" y1="345.7" x2="797.2" y2="347.2" stroke="#bcc3cd" stroke-width="1.2" opacity="0.37" />
  <line x1="778.3" y1="345.7" x2="732.1" y2="336.6" stroke="#bcc3cd" stroke-width="1.2" opacity="0.37" />
  <line x1="578.9" y1="350.4" x2="668.5" y2="338.2" stroke="#bcc3cd" stroke-width="0.9" opacity="0.18" />
  <line x1="578.9" y1="350.4" x2="640.1" y2="342.2" stroke="#bcc3cd" stroke-width="0.9" opacity="0.18" />
  <line x1="578.9" y1="350.4" x2="692.7" y2="337.4" stroke="#bcc3cd" stroke-width="1.0" opacity="0.22" />
  <line x1="578.9" y1="350.4" x2="611.9" y2="339.9" stroke="#bcc3cd" stroke-width="1.3" opacity="0.41" />
  <line x1="616.0" y1="325.0" x2="659.6" y2="344.8" stroke="#bcc3cd" stroke-width="1.1" opacity="0.31" />
  <line x1="616.0" y1="325.0" x2="668.5" y2="338.2" stroke="#bcc3cd" stroke-width="1.4" opacity="0.47" />
  <line x1="616.0" y1="325.0" x2="640.1" y2="342.2" stroke="#bcc3cd" stroke-width="0.9" opacity="0.19" />
  <line x1="616.0" y1="325.0" x2="692.7" y2="337.4" stroke="#bcc3cd" stroke-width="1.0" opacity="0.22" />
  <line x1="659.6" y1="344.8" x2="677.7" y2="358.1" stroke="#bcc3cd" stroke-width="1.1" opacity="0.29" />
  <line x1="659.6" y1="344.8" x2="725.6" y2="351.8" stroke="#bcc3cd" stroke-width="0.9" opacity="0.17" />
  <line x1="659.6" y1="344.8" x2="737.5" y2="341.6" stroke="#bcc3cd" stroke-width="0.9" opacity="0.20" />
  <line x1="659.6" y1="344.8" x2="668.5" y2="338.2" stroke="#bcc3cd" stroke-width="1.3" opacity="0.40" />
  <line x1="659.6" y1="344.8" x2="640.1" y2="342.2" stroke="#bcc3cd" stroke-width="1.0" opacity="0.24" />
  <line x1="659.6" y1="344.8" x2="692.7" y2="337.4" stroke="#bcc3cd" stroke-width="0.9" opacity="0.20" />
  <line x1="659.6" y1="344.8" x2="732.1" y2="336.6" stroke="#bcc3cd" stroke-width="1.0" opacity="0.24" />
  <line x1="677.7" y1="358.1" x2="737.5" y2="341.6" stroke="#bcc3cd" stroke-width="0.9" opacity="0.18" />
  <line x1="677.7" y1="358.1" x2="640.1" y2="342.2" stroke="#bcc3cd" stroke-width="1.0" opacity="0.23" />
  <line x1="677.7" y1="358.1" x2="692.7" y2="337.4" stroke="#bcc3cd" stroke-width="0.9" opacity="0.18" />
  <line x1="677.7" y1="358.1" x2="707.0" y2="363.5" stroke="#bcc3cd" stroke-width="1.0" opacity="0.24" />
  <line x1="677.7" y1="358.1" x2="732.1" y2="336.6" stroke="#bcc3cd" stroke-width="1.0" opacity="0.22" />
  <line x1="725.6" y1="351.8" x2="737.5" y2="341.6" stroke="#bcc3cd" stroke-width="1.1" opacity="0.28" />
  <line x1="725.6" y1="351.8" x2="668.5" y2="338.2" stroke="#bcc3cd" stroke-width="1.0" opacity="0.22" />
  <line x1="725.6" y1="351.8" x2="692.7" y2="337.4" stroke="#bcc3cd" stroke-width="1.1" opacity="0.28" />
  <line x1="725.6" y1="351.8" x2="707.0" y2="363.5" stroke="#bcc3cd" stroke-width="0.9" opacity="0.20" />
  <line x1="725.6" y1="351.8" x2="732.1" y2="336.6" stroke="#bcc3cd" stroke-width="1.2" opacity="0.37" />
  <line x1="737.5" y1="341.6" x2="668.5" y2="338.2" stroke="#bcc3cd" stroke-width="1.1" opacity="0.28" />
  <line x1="737.5" y1="341.6" x2="692.7" y2="337.4" stroke="#bcc3cd" stroke-width="1.2" opacity="0.37" />
  <line x1="737.5" y1="341.6" x2="796.7" y2="333.3" stroke="#bcc3cd" stroke-width="1.0" opacity="0.22" />
  <line x1="737.5" y1="341.6" x2="707.0" y2="363.5" stroke="#bcc3cd" stroke-width="1.0" opacity="0.24" />
  <line x1="737.5" y1="341.6" x2="736.4" y2="324.1" stroke="#bcc3cd" stroke-width="0.9" opacity="0.18" />
  <line x1="737.5" y1="341.6" x2="797.2" y2="347.2" stroke="#bcc3cd" stroke-width="1.0" opacity="0.22" />
  <line x1="737.5" y1="341.6" x2="732.1" y2="336.6" stroke="#bcc3cd" stroke-width="1.5" opacity="0.55" />
  <line x1="668.5" y1="338.2" x2="640.1" y2="342.2" stroke="#bcc3cd" stroke-width="1.1" opacity="0.29" />
  <line x1="668.5" y1="338.2" x2="692.7" y2="337.4" stroke="#bcc3cd" stroke-width="1.4" opacity="0.47" />
  <line x1="668.5" y1="338.2" x2="707.0" y2="363.5" stroke="#bcc3cd" stroke-width="0.9" opacity="0.20" />
  <line x1="668.5" y1="338.2" x2="611.9" y2="339.9" stroke="#bcc3cd" stroke-width="1.1" opacity="0.31" />
  <line x1="668.5" y1="338.2" x2="736.4" y2="324.1" stroke="#bcc3cd" stroke-width="1.1" opacity="0.31" />
  <line x1="668.5" y1="338.2" x2="732.1" y2="336.6" stroke="#bcc3cd" stroke-width="1.2" opacity="0.37" />
  <line x1="640.1" y1="342.2" x2="692.7" y2="337.4" stroke="#bcc3cd" stroke-width="1.2" opacity="0.34" />
  <line x1="640.1" y1="342.2" x2="611.9" y2="339.9" stroke="#bcc3cd" stroke-width="1.0" opacity="0.25" />
  <line x1="640.1" y1="342.2" x2="736.4" y2="324.1" stroke="#bcc3cd" stroke-width="1.0" opacity="0.25" />
  <line x1="640.1" y1="342.2" x2="732.1" y2="336.6" stroke="#bcc3cd" stroke-width="0.9" opacity="0.17" />
  <line x1="692.7" y1="337.4" x2="796.7" y2="333.3" stroke="#bcc3cd" stroke-width="1.0" opacity="0.22" />
  <line x1="692.7" y1="337.4" x2="707.0" y2="363.5" stroke="#bcc3cd" stroke-width="1.0" opacity="0.24" />
  <line x1="692.7" y1="337.4" x2="611.9" y2="339.9" stroke="#bcc3cd" stroke-width="1.3" opacity="0.44" />
  <line x1="692.7" y1="337.4" x2="736.4" y2="324.1" stroke="#bcc3cd" stroke-width="1.3" opacity="0.44" />
  <line x1="692.7" y1="337.4" x2="797.2" y2="347.2" stroke="#bcc3cd" stroke-width="1.0" opacity="0.22" />
  <line x1="692.7" y1="337.4" x2="732.1" y2="336.6" stroke="#bcc3cd" stroke-width="1.5" opacity="0.55" />
  <line x1="900.8" y1="92.4" x2="910.0" y2="112.1" stroke="#bcc3cd" stroke-width="1.0" opacity="0.22" />
  <line x1="813.2" y1="385.3" x2="732.1" y2="336.6" stroke="#bcc3cd" stroke-width="1.0" opacity="0.22" />
  <line x1="796.7" y1="333.3" x2="736.4" y2="324.1" stroke="#bcc3cd" stroke-width="1.1" opacity="0.28" />
  <line x1="796.7" y1="333.3" x2="797.2" y2="347.2" stroke="#bcc3cd" stroke-width="1.2" opacity="0.37" />
  <line x1="796.7" y1="333.3" x2="732.1" y2="336.6" stroke="#bcc3cd" stroke-width="1.2" opacity="0.37" />
  <line x1="651.1" y1="471.5" x2="667.3" y2="484.5" stroke="#bcc3cd" stroke-width="1.5" opacity="0.55" />
  <line x1="651.1" y1="471.5" x2="705.0" y2="449.2" stroke="#bcc3cd" stroke-width="1.3" opacity="0.41" />
  <line x1="667.3" y1="484.5" x2="705.0" y2="449.2" stroke="#bcc3cd" stroke-width="1.0" opacity="0.24" />
  <line x1="707.0" y1="363.5" x2="732.1" y2="336.6" stroke="#bcc3cd" stroke-width="1.1" opacity="0.31" />
  <line x1="611.9" y1="339.9" x2="736.4" y2="324.1" stroke="#bcc3cd" stroke-width="1.0" opacity="0.22" />
  <line x1="736.4" y1="324.1" x2="808.3" y2="286.8" stroke="#bcc3cd" stroke-width="1.2" opacity="0.37" />
  <line x1="736.4" y1="324.1" x2="793.8" y2="264.0" stroke="#bcc3cd" stroke-width="0.9" opacity="0.18" />
  <line x1="736.4" y1="324.1" x2="797.2" y2="347.2" stroke="#bcc3cd" stroke-width="1.1" opacity="0.28" />
  <line x1="736.4" y1="324.1" x2="732.1" y2="336.6" stroke="#bcc3cd" stroke-width="1.1" opacity="0.28" />
  <line x1="808.3" y1="286.8" x2="793.8" y2="264.0" stroke="#bcc3cd" stroke-width="1.1" opacity="0.28" />
  <line x1="797.2" y1="347.2" x2="864.5" y2="372.5" stroke="#bcc3cd" stroke-width="1.1" opacity="0.31" />
  <line x1="797.2" y1="347.2" x2="732.1" y2="336.6" stroke="#bcc3cd" stroke-width="1.2" opacity="0.37" />
  <circle cx="639.1" cy="316.2" r="16" fill="#7f8c8d" opacity="0.88" />
  <circle cx="686.0" cy="316.0" r="12.2" fill="#e67e22" opacity="0.88" />
  <circle cx="548.2" cy="320.9" r="16" fill="#e74c3c" opacity="0.88" />
  <circle cx="713.5" cy="293.1" r="7.7" fill="#3498db" opacity="0.88" />
  <circle cx="572.5" cy="308.4" r="16" fill="#3498db" opacity="0.88" />
  <circle cx="677.6" cy="306.0" r="15.8" fill="#7f8c8d" opacity="0.88" />
  <circle cx="598.5" cy="359.5" r="16" fill="#9b59b6" opacity="0.88" />
  <circle cx="740.9" cy="277.0" r="6.8" fill="#3498db" opacity="0.88" />
  <circle cx="757.0" cy="318.1" r="5.9" fill="#3498db" opacity="0.88" />
  <circle cx="786.4" cy="319.6" r="13.1" fill="#e67e22" opacity="0.88" />
  <circle cx="695.4" cy="321.0" r="14.0" fill="#3498db" opacity="0.88" />
  <circle cx="714.8" cy="313.9" r="12.2" fill="#3498db" opacity="0.88" />
  <circle cx="710.7" cy="305.3" r="14.0" fill="#3498db" opacity="0.88" />
  <circle cx="674.1" cy="286.4" r="16" fill="#e74c3c" opacity="0.88" />
  <circle cx="739.5" cy="294.1" r="8.6" fill="#2ecc71" opacity="0.88" />
  <circle cx="860.3" cy="386.8" r="10.4" fill="#e74c3c" opacity="0.88" />
  <circle cx="50.0" cy="439.1" r="12.2" fill="#3498db" opacity="0.88" />
  <circle cx="768.0" cy="372.4" r="10.4" fill="#e74c3c" opacity="0.88" />
  <circle cx="330.7" cy="59.9" r="5" fill="#3498db" opacity="0.88" />
  <circle cx="233.0" cy="107.3" r="12.2" fill="#3498db" opacity="0.88" />
  <circle cx="197.6" cy="105.9" r="11.3" fill="#3498db" opacity="0.88" />
  <circle cx="392.9" cy="345.2" r="5.9" fill="#3498db" opacity="0.88" />
  <circle cx="637.7" cy="355.1" r="12.2" fill="#9b59b6" opacity="0.88" />
  <circle cx="626.3" cy="335.6" r="15.8" fill="#9b59b6" opacity="0.88" />
  <circle cx="580.0" cy="336.4" r="8.6" fill="#9b59b6" opacity="0.88" />
  <circle cx="769.0" cy="336.4" r="5" fill="#2ecc71" opacity="0.88" />
  <circle cx="778.3" cy="345.7" r="5.9" fill="#7f8c8d" opacity="0.88" />
  <circle cx="578.9" cy="350.4" r="11.3" fill="#e67e22" opacity="0.88" />
  <circle cx="616.0" cy="325.0" r="16" fill="#2ecc71" opacity="0.88" />
  <circle cx="288.2" cy="350.0" r="6.8" fill="#9b59b6" opacity="0.88" />
  <circle cx="500.8" cy="50.0" r="5" fill="#7f8c8d" opacity="0.88" />
  <circle cx="659.6" cy="344.8" r="12.2" fill="#3498db" opacity="0.88" />
  <circle cx="677.7" cy="358.1" r="13.1" fill="#7f8c8d" opacity="0.88" />
  <circle cx="725.6" cy="351.8" r="9.5" fill="#7f8c8d" opacity="0.88" />
  <circle cx="231.6" cy="500.0" r="5" fill="#7f8c8d" opacity="0.88" />
  <circle cx="737.5" cy="341.6" r="7.7" fill="#7f8c8d" opacity="0.88" />
  <circle cx="668.5" cy="338.2" r="9.5" fill="#7f8c8d" opacity="0.88" />
  <circle cx="640.1" cy="342.2" r="15.8" fill="#2ecc71" opacity="0.88" />
  <circle cx="692.7" cy="337.4" r="7.7" fill="#7f8c8d" opacity="0.88" />
  <circle cx="900.8" cy="92.4" r="7.7" fill="#7f8c8d" opacity="0.88" />
  <circle cx="813.2" cy="385.3" r="7.7" fill="#3498db" opacity="0.88" />
  <circle cx="796.7" cy="333.3" r="5.9" fill="#7f8c8d" opacity="0.88" />
  <circle cx="651.1" cy="471.5" r="6.8" fill="#e67e22" opacity="0.88" />
  <circle cx="667.3" cy="484.5" r="6.8" fill="#e67e22" opacity="0.88" />
  <circle cx="707.0" cy="363.5" r="10.4" fill="#7f8c8d" opacity="0.88" />
  <circle cx="705.0" cy="449.2" r="11.3" fill="#e67e22" opacity="0.88" />
  <circle cx="910.0" cy="112.1" r="5.9" fill="#7f8c8d" opacity="0.88" />
  <circle cx="611.9" cy="339.9" r="6.8" fill="#7f8c8d" opacity="0.88" />
  <circle cx="736.4" cy="324.1" r="6.8" fill="#7f8c8d" opacity="0.88" />
  <circle cx="808.3" cy="286.8" r="5" fill="#2ecc71" opacity="0.88" />
  <circle cx="793.8" cy="264.0" r="7.7" fill="#2ecc71" opacity="0.88" />
  <circle cx="797.2" cy="347.2" r="5.9" fill="#e74c3c" opacity="0.88" />
  <circle cx="864.5" cy="372.5" r="10.4" fill="#e74c3c" opacity="0.88" />
  <circle cx="732.1" cy="336.6" r="5.9" fill="#7f8c8d" opacity="0.88" />
  <circle cx="78.0" cy="129.6" r="5" fill="#7f8c8d" opacity="0.88" />
  <rect x="657.1" y="327.4" width="52.4" height="15" fill="#ffffff" opacity="0.75" rx="2" />
  <text x="658.1" y="338.4" font-family="system-ui, -apple-system, sans-serif" font-size="12" fill="#1f2328" text-anchor="start">LA-Mesh</text>
  <rect x="700.2" y="255.2" width="45.2" height="15" fill="#ffffff" opacity="0.75" rx="2" />
  <text x="701.2" y="266.2" font-family="system-ui, -apple-system, sans-serif" font-size="12" fill="#1f2328" text-anchor="start">XoxdWM</text>
  <rect x="566.2" y="257.6" width="131.6" height="15" fill="#ffffff" opacity="0.75" rx="2" />
  <text x="567.2" y="268.6" font-family="system-ui, -apple-system, sans-serif" font-size="12" fill="#1f2328" text-anchor="start">pixelwise-research</text>
  <rect x="723.2" y="359.7" width="16.4" height="15" fill="#ffffff" opacity="0.75" rx="2" />
  <text x="724.2" y="370.7" font-family="system-ui, -apple-system, sans-serif" font-size="12" fill="#1f2328" text-anchor="start">pp</text>
  <rect x="590.5" y="240.2" width="117.2" height="15" fill="#ffffff" opacity="0.75" rx="2" />
  <text x="591.5" y="251.2" font-family="system-ui, -apple-system, sans-serif" font-size="12" fill="#1f2328" text-anchor="start">GloriousFlywheel</text>
  <rect x="695.4" y="204.4" width="124.4" height="15" fill="#ffffff" opacity="0.75" rx="2" />
  <text x="696.4" y="215.4" font-family="system-ui, -apple-system, sans-serif" font-size="12" fill="#1f2328" text-anchor="start">tinyland-huskycat</text>
  <rect x="616.5" y="446.4" width="95.6" height="15" fill="#ffffff" opacity="0.75" rx="2" />
  <text x="617.5" y="457.4" font-family="system-ui, -apple-system, sans-serif" font-size="12" fill="#1f2328" text-anchor="start">GIS_Shortcuts</text>
  <rect x="749.7" y="172.8" width="117.2" height="15" fill="#ffffff" opacity="0.75" rx="2" />
  <text x="750.7" y="183.8" font-family="system-ui, -apple-system, sans-serif" font-size="12" fill="#1f2328" text-anchor="start">tinyland-cleanup</text>
  <rect x="764.9" y="354.6" width="95.6" height="15" fill="#ffffff" opacity="0.75" rx="2" />
  <text x="765.9" y="365.6" font-family="system-ui, -apple-system, sans-serif" font-size="12" fill="#1f2328" text-anchor="start">tinyland-kdbx</text>
  <rect x="801.5" y="331.3" width="110.0" height="15" fill="#ffffff" opacity="0.75" rx="2" />
  <text x="802.5" y="342.3" font-family="system-ui, -apple-system, sans-serif" font-size="12" fill="#1f2328" text-anchor="start">hiberpower-ntfs</text>
  <rect x="711.4" y="294.2" width="138.8" height="15" fill="#ffffff" opacity="0.75" rx="2" />
  <text x="712.4" y="305.2" font-family="system-ui, -apple-system, sans-serif" font-size="12" fill="#1f2328" text-anchor="start">Ansible-DAG-Harness</text>
  <rect x="729.0" y="312.9" width="66.8" height="15" fill="#ffffff" opacity="0.75" rx="2" />
  <text x="730.0" y="323.9" font-family="system-ui, -apple-system, sans-serif" font-size="12" fill="#1f2328" text-anchor="start">betterkvm</text>
  <rect x="726.7" y="247.2" width="95.6" height="15" fill="#ffffff" opacity="0.75" rx="2" />
  <text x="727.7" y="258.2" font-family="system-ui, -apple-system, sans-serif" font-size="12" fill="#1f2328" text-anchor="start">DarwinNicUtil</text>
  <rect x="692.1" y="158.2" width="95.6" height="15" fill="#ffffff" opacity="0.75" rx="2" />
  <text x="693.1" y="169.2" font-family="system-ui, -apple-system, sans-serif" font-size="12" fill="#1f2328" text-anchor="start">RemoteJuggler</text>
  <rect x="750.1" y="233.1" width="59.6" height="15" fill="#ffffff" opacity="0.75" rx="2" />
  <text x="751.1" y="244.1" font-family="system-ui, -apple-system, sans-serif" font-size="12" fill="#1f2328" text-anchor="start">gnucashr</text>
  <rect x="781.1" y="474.3" width="66.8" height="15" fill="#ffffff" opacity="0.75" rx="2" />
  <text x="846.9" y="485.3" font-family="system-ui, -apple-system, sans-serif" font-size="12" fill="#1f2328" text-anchor="end">quickchpl</text>
  <rect x="64.2" y="432.3" width="131.6" height="15" fill="#ffffff" opacity="0.75" rx="2" />
  <text x="65.2" y="443.3" font-family="system-ui, -apple-system, sans-serif" font-size="12" fill="#1f2328" text-anchor="start">tinyscale-mikrotik</text>
  <rect x="780.4" y="280.5" width="59.6" height="15" fill="#ffffff" opacity="0.75" rx="2" />
  <text x="781.4" y="291.5" font-family="system-ui, -apple-system, sans-serif" font-size="12" fill="#1f2328" text-anchor="start">aoc-2025</text>
  <rect x="337.7" y="53.1" width="74.0" height="15" fill="#ffffff" opacity="0.75" rx="2" />
  <text x="338.7" y="64.1" font-family="system-ui, -apple-system, sans-serif" font-size="12" fill="#1f2328" text-anchor="start">tinywaffle</text>
  <rect x="247.2" y="108.3" width="66.8" height="15" fill="#ffffff" opacity="0.75" rx="2" />
  <text x="248.2" y="119.3" font-family="system-ui, -apple-system, sans-serif" font-size="12" fill="#1f2328" text-anchor="start">searchies</text>
  <rect x="210.9" y="91.3" width="59.6" height="15" fill="#ffffff" opacity="0.75" rx="2" />
  <text x="211.9" y="102.3" font-family="system-ui, -apple-system, sans-serif" font-size="12" fill="#1f2328" text-anchor="start">ts-caddy</text>
  <rect x="400.8" y="332.3" width="66.8" height="15" fill="#ffffff" opacity="0.75" rx="2" />
  <text x="401.8" y="343.3" font-family="system-ui, -apple-system, sans-serif" font-size="12" fill="#1f2328" text-anchor="start">HCI-notes</text>
  <rect x="651.9" y="390.2" width="88.4" height="15" fill="#ffffff" opacity="0.75" rx="2" />
  <text x="652.9" y="401.2" font-family="system-ui, -apple-system, sans-serif" font-size="12" fill="#1f2328" text-anchor="start">FastPhotoAPI</text>
  <rect x="644.1" y="315.1" width="81.2" height="15" fill="#ffffff" opacity="0.75" rx="2" />
  <text x="645.1" y="326.1" font-family="system-ui, -apple-system, sans-serif" font-size="12" fill="#1f2328" text-anchor="start">timberbuddy</text>
  <rect x="590.6" y="345.4" width="81.2" height="15" fill="#ffffff" opacity="0.75" rx="2" />
  <text x="591.6" y="356.4" font-family="system-ui, -apple-system, sans-serif" font-size="12" fill="#1f2328" text-anchor="start">tetrahedron</text>
  <rect x="776.0" y="381.5" width="95.6" height="15" fill="#ffffff" opacity="0.75" rx="2" />
  <text x="777.0" y="392.5" font-family="system-ui, -apple-system, sans-serif" font-size="12" fill="#1f2328" text-anchor="start">AccuWixReport</text>
  <rect x="786.2" y="358.3" width="95.6" height="15" fill="#ffffff" opacity="0.75" rx="2" />
  <text x="787.2" y="369.3" font-family="system-ui, -apple-system, sans-serif" font-size="12" fill="#1f2328" text-anchor="start">Jess-AOC-2023</text>
  <rect x="592.2" y="298.3" width="81.2" height="15" fill="#ffffff" opacity="0.75" rx="2" />
  <text x="593.2" y="309.3" font-family="system-ui, -apple-system, sans-serif" font-size="12" fill="#1f2328" text-anchor="start">TurkeyProbe</text>
  <rect x="634.0" y="432.1" width="153.2" height="15" fill="#ffffff" opacity="0.75" rx="2" />
  <text x="635.0" y="443.1" font-family="system-ui, -apple-system, sans-serif" font-size="12" fill="#1f2328" text-anchor="start">MerlinAI-Interpreters</text>
  <rect x="297.0" y="349.3" width="110.0" height="15" fill="#ffffff" opacity="0.75" rx="2" />
  <text x="298.0" y="360.3" font-family="system-ui, -apple-system, sans-serif" font-size="12" fill="#1f2328" text-anchor="start">IntroTypeScript</text>
  <rect x="507.8" y="43.2" width="110.0" height="15" fill="#ffffff" opacity="0.75" rx="2" />
  <text x="508.8" y="54.2" font-family="system-ui, -apple-system, sans-serif" font-size="12" fill="#1f2328" text-anchor="start">IG-3DP-Profiles</text>
  <rect x="673.8" y="266.2" width="66.8" height="15" fill="#ffffff" opacity="0.75" rx="2" />
  <text x="674.8" y="277.2" font-family="system-ui, -apple-system, sans-serif" font-size="12" fill="#1f2328" text-anchor="start">DLA-Flask</text>
  <rect x="692.8" y="405.1" width="38.0" height="15" fill="#ffffff" opacity="0.75" rx="2" />
  <text x="693.8" y="416.1" font-family="system-ui, -apple-system, sans-serif" font-size="12" fill="#1f2328" text-anchor="start">USBoN</text>
  <rect x="737.1" y="411.2" width="203.6" height="15" fill="#ffffff" opacity="0.75" rx="2" />
  <text x="738.1" y="422.2" font-family="system-ui, -apple-system, sans-serif" font-size="12" fill="#1f2328" text-anchor="start">chrome-remote-desktop-budgie</text>
  <rect x="238.6" y="493.2" width="124.4" height="15" fill="#ffffff" opacity="0.75" rx="2" />
  <text x="239.6" y="504.2" font-family="system-ui, -apple-system, sans-serif" font-size="12" fill="#1f2328" text-anchor="start">OminousBeepingApp</text>
  <rect x="747.2" y="263.5" width="138.8" height="15" fill="#ffffff" opacity="0.75" rx="2" />
  <text x="748.2" y="274.5" font-family="system-ui, -apple-system, sans-serif" font-size="12" fill="#1f2328" text-anchor="start">mo-image-identifier</text>
  <rect x="680.0" y="423.8" width="196.4" height="15" fill="#ffffff" opacity="0.75" rx="2" />
  <text x="681.0" y="434.8" font-family="system-ui, -apple-system, sans-serif" font-size="12" fill="#1f2328" text-anchor="start">squirrel-leaflet-annotation</text>
  <rect x="657.9" y="225.0" width="74.0" height="15" fill="#ffffff" opacity="0.75" rx="2" />
  <text x="658.9" y="236.0" font-family="system-ui, -apple-system, sans-serif" font-size="12" fill="#1f2328" text-anchor="start">Shiny-Apps</text>
  <rect x="702.4" y="298.1" width="138.8" height="15" fill="#ffffff" opacity="0.75" rx="2" />
  <text x="703.4" y="309.1" font-family="system-ui, -apple-system, sans-serif" font-size="12" fill="#1f2328" text-anchor="start">bbox-jest-puppeteer</text>
  <rect x="802.7" y="85.6" width="88.4" height="15" fill="#ffffff" opacity="0.75" rx="2" />
  <text x="890.1" y="96.6" font-family="system-ui, -apple-system, sans-serif" font-size="12" fill="#1f2328" text-anchor="end">DoverDisplay</text>
  <rect x="722.3" y="462.5" width="81.2" height="15" fill="#ffffff" opacity="0.75" rx="2" />
  <text x="802.5" y="473.5" font-family="system-ui, -apple-system, sans-serif" font-size="12" fill="#1f2328" text-anchor="end">LeafletSync</text>
  <rect x="621.2" y="375.3" width="167.6" height="15" fill="#ffffff" opacity="0.75" rx="2" />
  <text x="787.8" y="386.3" font-family="system-ui, -apple-system, sans-serif" font-size="12" fill="#1f2328" text-anchor="end">misc-roi-distance-notes</text>
  <rect x="659.9" y="506.2" width="138.8" height="15" fill="#ffffff" opacity="0.75" rx="2" />
  <text x="660.9" y="517.2" font-family="system-ui, -apple-system, sans-serif" font-size="12" fill="#1f2328" text-anchor="start">Arduino_Coil_Winder</text>
  <rect x="676.1" y="518.6" width="30.8" height="15" fill="#ffffff" opacity="0.75" rx="2" />
  <text x="677.1" y="529.6" font-family="system-ui, -apple-system, sans-serif" font-size="12" fill="#1f2328" text-anchor="start">momo</text>
  <rect x="719.4" y="283.2" width="38.0" height="15" fill="#ffffff" opacity="0.75" rx="2" />
  <text x="720.4" y="294.2" font-family="system-ui, -apple-system, sans-serif" font-size="12" fill="#1f2328" text-anchor="start">clipi</text>
  <rect x="718.3" y="489.2" width="110.0" height="15" fill="#ffffff" opacity="0.75" rx="2" />
  <text x="719.3" y="500.2" font-family="system-ui, -apple-system, sans-serif" font-size="12" fill="#1f2328" text-anchor="start">AeroTaz5_hotfix</text>
  <rect x="792.1" y="105.3" width="110.0" height="15" fill="#ffffff" opacity="0.75" rx="2" />
  <text x="901.1" y="116.3" font-family="system-ui, -apple-system, sans-serif" font-size="12" fill="#1f2328" text-anchor="end">Funmat-HT-Notes</text>
  <rect x="620.7" y="360.8" width="81.2" height="15" fill="#ffffff" opacity="0.75" rx="2" />
  <text x="621.7" y="371.8" font-family="system-ui, -apple-system, sans-serif" font-size="12" fill="#1f2328" text-anchor="start">static-site</text>
  <rect x="745.2" y="216.1" width="95.6" height="15" fill="#ffffff" opacity="0.75" rx="2" />
  <text x="746.2" y="227.1" font-family="system-ui, -apple-system, sans-serif" font-size="12" fill="#1f2328" text-anchor="start">Flask-Manager</text>
  <rect x="691.3" y="342.2" width="110.0" height="15" fill="#ffffff" opacity="0.75" rx="2" />
  <text x="800.3" y="353.2" font-family="system-ui, -apple-system, sans-serif" font-size="12" fill="#1f2328" text-anchor="end">FieldProcessing</text>
  <rect x="702.9" y="189.8" width="81.2" height="15" fill="#ffffff" opacity="0.75" rx="2" />
  <text x="783.1" y="200.8" font-family="system-ui, -apple-system, sans-serif" font-size="12" fill="#1f2328" text-anchor="end">rJDKmanager</text>
  <rect x="729.7" y="325.2" width="59.6" height="15" fill="#ffffff" opacity="0.75" rx="2" />
  <text x="788.3" y="336.2" font-family="system-ui, -apple-system, sans-serif" font-size="12" fill="#1f2328" text-anchor="end">tagnotes</text>
  <rect x="770.9" y="445.5" width="81.2" height="15" fill="#ffffff" opacity="0.75" rx="2" />
  <text x="851.1" y="456.5" font-family="system-ui, -apple-system, sans-serif" font-size="12" fill="#1f2328" text-anchor="end">ChapelTests</text>
  <rect x="740.0" y="394.2" width="88.4" height="15" fill="#ffffff" opacity="0.75" rx="2" />
  <text x="741.0" y="405.2" font-family="system-ui, -apple-system, sans-serif" font-size="12" fill="#1f2328" text-anchor="start">Xfinity-WiFi</text>
  <rect x="85.0" y="122.8" width="66.8" height="15" fill="#ffffff" opacity="0.75" rx="2" />
  <text x="86.0" y="133.8" font-family="system-ui, -apple-system, sans-serif" font-size="12" fill="#1f2328" text-anchor="start">home-wiki</text>
  <rect x="793" y="36" width="155" height="120" rx="6" fill="#f6f8fa" stroke="#d0d7de" stroke-width="1" opacity="0.95" />
  <circle cx="810" cy="52" r="5" fill="#e74c3c" opacity="0.88" />
  <text x="820" y="56" font-family="system-ui, -apple-system, sans-serif" font-size="10" fill="#1f2328">Languages &amp; Compilers</text>
  <circle cx="810" cy="69" r="5" fill="#3498db" opacity="0.88" />
  <text x="820" y="73" font-family="system-ui, -apple-system, sans-serif" font-size="10" fill="#1f2328">Infrastructure &amp; DevOps</text>
  <circle cx="810" cy="86" r="5" fill="#e67e22" opacity="0.88" />
  <text x="820" y="90" font-family="system-ui, -apple-system, sans-serif" font-size="10" fill="#1f2328">Hardware &amp; Maker</text>
  <circle cx="810" cy="103" r="5" fill="#2ecc71" opacity="0.88" />
  <text x="820" y="107" font-family="system-ui, -apple-system, sans-serif" font-size="10" fill="#1f2328">ML &amp; Data</text>
  <circle cx="810" cy="120" r="5" fill="#9b59b6" opacity="0.88" />
  <text x="820" y="124" font-family="system-ui, -apple-system, sans-serif" font-size="10" fill="#1f2328">Web &amp; Apps</text>
  <circle cx="810" cy="137" r="5" fill="#7f8c8d" opacity="0.88" />
  <text x="820" y="141" font-family="system-ui, -apple-system, sans-serif" font-size="10" fill="#1f2328">Other</text>
  <text x="870" y="150" font-family="system-ui, -apple-system, sans-serif" font-size="8" fill="#656d76" text-anchor="middle">55 repos · 227 edges</text>
</svg>