<svg xmlns="http://www.w3.org/2000/svg" width="960" height="600" viewBox="0 0 960 600">
  <rect width="960" height="600" fill="#0d1117" rx="8" />
  <text x="480" y="24" font-family="system-ui, -apple-system, sans-serif" font-size="13" fill="#8b949e" text-anchor="middle" font-weight="500">Repo Relationship Graph &#x2014; Pairwise Topic &amp; Language Similarity</text>
  <line x1="50" y1="550" x2="910" y2="550" stroke="#484f58" stroke-width="0.5" opacity="0.5" />
  <text x="50" y="570" font-family="system-ui, -apple-system, sans-serif" font-size="9" fill="#8b949e" opacity="0.6">Updated daily by GitHub Actions</text>
  <text x="50" y="588" font-family="system-ui, -apple-system, sans-serif" font-size="9" fill="#8b949e" opacity="0.6">networkx spring_layout · Jaccard similarity &gt; 0.15</text>
  <text x="910" y="570" font-family="system-ui, -apple-system, sans-serif" font-size="9" fill="#8b949e" text-anchor="end" opacity="0.6">56 repos · 223 edges</text>
  <line x1="327.8" y1="372.0" x2="277.4" y2="354.7" stroke="#6e7681" stroke-width="1.1" opacity="0.33" />
  <line x1="327.8" y1="372.0" x2="335.1" y2="388.7" stroke="#6e7681" stroke-width="1.4" opacity="0.47" />
  <line x1="327.8" y1="372.0" x2="379.0" y2="380.0" stroke="#6e7681" stroke-width="1.0" opacity="0.22" />
  <line x1="327.8" y1="372.0" x2="262.1" y2="363.8" stroke="#6e7681" stroke-width="1.3" opacity="0.41" />
  <line x1="327.8" y1="372.0" x2="353.5" y2="362.1" stroke="#6e7681" stroke-width="1.0" opacity="0.24" />
  <line x1="327.8" y1="372.0" x2="405.9" y2="373.9" stroke="#6e7681" stroke-width="0.9" opacity="0.19" />
  <line x1="327.8" y1="372.0" x2="388.4" y2="389.7" stroke="#6e7681" stroke-width="0.9" opacity="0.18" />
  <line x1="327.8" y1="372.0" x2="376.7" y2="394.7" stroke="#6e7681" stroke-width="0.9" opacity="0.18" />
  <line x1="327.8" y1="372.0" x2="411.2" y2="412.0" stroke="#6e7681" stroke-width="0.9" opacity="0.18" />
  <line x1="277.4" y1="354.7" x2="335.1" y2="388.7" stroke="#6e7681" stroke-width="0.9" opacity="0.20" />
  <line x1="277.4" y1="354.7" x2="262.1" y2="363.8" stroke="#6e7681" stroke-width="0.9" opacity="0.18" />
  <line x1="335.1" y1="388.7" x2="379.0" y2="380.0" stroke="#6e7681" stroke-width="1.0" opacity="0.22" />
  <line x1="335.1" y1="388.7" x2="353.5" y2="362.1" stroke="#6e7681" stroke-width="1.0" opacity="0.24" />
  <line x1="335.1" y1="388.7" x2="405.9" y2="373.9" stroke="#6e7681" stroke-width="0.9" opacity="0.19" />
  <line x1="335.1" y1="388.7" x2="388.4" y2="389.7" stroke="#6e7681" stroke-width="0.9" opacity="0.18" />
  <line x1="335.1" y1="388.7" x2="376.7" y2="394.7" stroke="#6e7681" stroke-width="0.9" opacity="0.18" />
  <line x1="335.1" y1="388.7" x2="332.4" y2="435.8" stroke="#6e7681" stroke-width="1.0" opacity="0.22" />
  <line x1="335.1" y1="388.7" x2="411.2" y2="412.0" stroke="#6e7681" stroke-width="0.9" opacity="0.18" />
  <line x1="353.3" y1="385.0" x2="311.7" y2="378.7" stroke="#6e7681" stroke-width="0.9" opacity="0.19" />
  <line x1="353.3" y1="385.0" x2="379.0" y2="380.0" stroke="#6e7681" stroke-width="0.9" opacity="0.21" />
  <line x1="353.3" y1="385.0" x2="353.5" y2="362.1" stroke="#6e7681" stroke-width="1.0" opacity="0.22" />
  <line x1="353.3" y1="385.0" x2="405.9" y2="373.9" stroke="#6e7681" stroke-width="0.9" opacity="0.19" />
  <line x1="353.3" y1="385.0" x2="388.4" y2="389.7" stroke="#6e7681" stroke-width="1.0" opacity="0.26" />
  <line x1="353.3" y1="385.0" x2="384.6" y2="400.8" stroke="#6e7681" stroke-width="1.0" opacity="0.23" />
  <line x1="353.3" y1="385.0" x2="376.7" y2="394.7" stroke="#6e7681" stroke-width="1.0" opacity="0.26" />
  <line x1="353.3" y1="385.0" x2="367.9" y2="406.6" stroke="#6e7681" stroke-width="1.0" opacity="0.23" />
  <line x1="353.3" y1="385.0" x2="411.2" y2="412.0" stroke="#6e7681" stroke-width="0.9" opacity="0.18" />
  <line x1="404.9" y1="347.6" x2="353.5" y2="362.1" stroke="#6e7681" stroke-width="1.2" opacity="0.38" />
  <line x1="404.9" y1="347.6" x2="405.9" y2="373.9" stroke="#6e7681" stroke-width="1.2" opacity="0.34" />
  <line x1="404.9" y1="347.6" x2="388.4" y2="389.7" stroke="#6e7681" stroke-width="0.9" opacity="0.18" />
  <line x1="404.9" y1="347.6" x2="442.6" y2="342.5" stroke="#6e7681" stroke-width="1.0" opacity="0.25" />
  <line x1="404.9" y1="347.6" x2="444.9" y2="377.6" stroke="#6e7681" stroke-width="0.9" opacity="0.20" />
  <line x1="404.9" y1="347.6" x2="461.0" y2="362.6" stroke="#6e7681" stroke-width="1.0" opacity="0.22" />
  <line x1="311.7" y1="378.7" x2="262.1" y2="363.8" stroke="#6e7681" stroke-width="0.9" opacity="0.18" />
  <line x1="311.7" y1="378.7" x2="353.5" y2="362.1" stroke="#6e7681" stroke-width="1.0" opacity="0.25" />
  <line x1="311.7" y1="378.7" x2="388.4" y2="389.7" stroke="#6e7681" stroke-width="1.0" opacity="0.22" />
  <line x1="311.7" y1="378.7" x2="384.6" y2="400.8" stroke="#6e7681" stroke-width="0.9" opacity="0.20" />
  <line x1="379.0" y1="380.0" x2="353.5" y2="362.1" stroke="#6e7681" stroke-width="0.9" opacity="0.21" />
  <line x1="379.0" y1="380.0" x2="405.9" y2="373.9" stroke="#6e7681" stroke-width="1.1" opacity="0.30" />
  <line x1="379.0" y1="380.0" x2="388.4" y2="389.7" stroke="#6e7681" stroke-width="1.0" opacity="0.24" />
  <line x1="379.0" y1="380.0" x2="384.6" y2="400.8" stroke="#6e7681" stroke-width="1.0" opacity="0.22" />
  <line x1="379.0" y1="380.0" x2="376.7" y2="394.7" stroke="#6e7681" stroke-width="1.0" opacity="0.24" />
  <line x1="379.0" y1="380.0" x2="367.9" y2="406.6" stroke="#6e7681" stroke-width="1.0" opacity="0.22" />
  <line x1="379.0" y1="380.0" x2="431.4" y2="368.6" stroke="#6e7681" stroke-width="0.9" opacity="0.19" />
  <line x1="379.0" y1="380.0" x2="440.1" y2="396.6" stroke="#6e7681" stroke-width="0.9" opacity="0.21" />
  <line x1="379.0" y1="380.0" x2="432.1" y2="405.4" stroke="#6e7681" stroke-width="1.0" opacity="0.24" />
  <line x1="379.0" y1="380.0" x2="411.2" y2="412.0" stroke="#6e7681" stroke-width="0.9" opacity="0.17" />
  <line x1="353.5" y1="362.1" x2="405.9" y2="373.9" stroke="#6e7681" stroke-width="0.9" opacity="0.19" />
  <line x1="353.5" y1="362.1" x2="388.4" y2="389.7" stroke="#6e7681" stroke-width="0.9" opacity="0.18" />
  <line x1="353.5" y1="362.1" x2="376.7" y2="394.7" stroke="#6e7681" stroke-width="0.9" opacity="0.18" />
  <line x1="405.9" y1="373.9" x2="388.4" y2="389.7" stroke="#6e7681" stroke-width="1.1" opacity="0.29" />
  <line x1="405.9" y1="373.9" x2="442.6" y2="342.5" stroke="#6e7681" stroke-width="1.2" opacity="0.34" />
  <line x1="405.9" y1="373.9" x2="384.6" y2="400.8" stroke="#6e7681" stroke-width="0.9" opacity="0.20" />
  <line x1="405.9" y1="373.9" x2="376.7" y2="394.7" stroke="#6e7681" stroke-width="1.0" opacity="0.22" />
  <line x1="405.9" y1="373.9" x2="367.9" y2="406.6" stroke="#6e7681" stroke-width="0.9" opacity="0.20" />
  <line x1="405.9" y1="373.9" x2="444.9" y2="377.6" stroke="#6e7681" stroke-width="1.2" opacity="0.37" />
  <line x1="405.9" y1="373.9" x2="461.0" y2="362.6" stroke="#6e7681" stroke-width="1.2" opacity="0.37" />
  <line x1="405.9" y1="373.9" x2="431.4" y2="368.6" stroke="#6e7681" stroke-width="1.1" opacity="0.29" />
  <line x1="405.9" y1="373.9" x2="432.0" y2="389.6" stroke="#6e7681" stroke-width="1.0" opacity="0.22" />
  <line x1="405.9" y1="373.9" x2="440.1" y2="396.6" stroke="#6e7681" stroke-width="1.2" opacity="0.34" />
  <line x1="405.9" y1="373.9" x2="453.1" y2="389.2" stroke="#6e7681" stroke-width="1.0" opacity="0.24" />
  <line x1="405.9" y1="373.9" x2="432.1" y2="405.4" stroke="#6e7681" stroke-width="1.1" opacity="0.29" />
  <line x1="405.9" y1="373.9" x2="461.3" y2="379.4" stroke="#6e7681" stroke-width="1.0" opacity="0.22" />
  <line x1="388.4" y1="389.7" x2="379.6" y2="431.8" stroke="#6e7681" stroke-width="0.9" opacity="0.21" />
  <line x1="388.4" y1="389.7" x2="384.6" y2="400.8" stroke="#6e7681" stroke-width="1.1" opacity="0.28" />
  <line x1="388.4" y1="389.7" x2="376.7" y2="394.7" stroke="#6e7681" stroke-width="1.1" opacity="0.31" />
  <line x1="388.4" y1="389.7" x2="367.9" y2="406.6" stroke="#6e7681" stroke-width="1.1" opacity="0.28" />
  <line x1="388.4" y1="389.7" x2="444.9" y2="377.6" stroke="#6e7681" stroke-width="0.9" opacity="0.17" />
  <line x1="388.4" y1="389.7" x2="439.5" y2="421.4" stroke="#6e7681" stroke-width="0.9" opacity="0.17" />
  <line x1="388.4" y1="389.7" x2="423.0" y2="423.3" stroke="#6e7681" stroke-width="0.9" opacity="0.20" />
  <line x1="388.4" y1="389.7" x2="440.1" y2="396.6" stroke="#6e7681" stroke-width="0.9" opacity="0.17" />
  <line x1="388.4" y1="389.7" x2="453.1" y2="389.2" stroke="#6e7681" stroke-width="0.9" opacity="0.17" />
  <line x1="388.4" y1="389.7" x2="432.1" y2="405.4" stroke="#6e7681" stroke-width="1.1" opacity="0.33" />
  <line x1="388.4" y1="389.7" x2="411.2" y2="412.0" stroke="#6e7681" stroke-width="1.0" opacity="0.24" />
  <line x1="442.6" y1="342.5" x2="444.9" y2="377.6" stroke="#6e7681" stroke-width="1.0" opacity="0.25" />
  <line x1="442.6" y1="342.5" x2="461.0" y2="362.6" stroke="#6e7681" stroke-width="1.1" opacity="0.29" />
  <line x1="442.6" y1="342.5" x2="461.3" y2="379.4" stroke="#6e7681" stroke-width="0.9" opacity="0.17" />
  <line x1="494.3" y1="382.7" x2="444.9" y2="377.6" stroke="#6e7681" stroke-width="0.9" opacity="0.18" />
  <line x1="494.3" y1="382.7" x2="461.0" y2="362.6" stroke="#6e7681" stroke-width="0.9" opacity="0.18" />
  <line x1="494.3" y1="382.7" x2="440.1" y2="396.6" stroke="#6e7681" stroke-width="0.9" opacity="0.17" />
  <line x1="494.3" y1="382.7" x2="453.1" y2="389.2" stroke="#6e7681" stroke-width="1.3" opacity="0.42" />
  <line x1="494.3" y1="382.7" x2="432.1" y2="405.4" stroke="#6e7681" stroke-width="0.9" opacity="0.19" />
  <line x1="494.3" y1="382.7" x2="461.3" y2="379.4" stroke="#6e7681" stroke-width="0.9" opacity="0.21" />
  <line x1="379.6" y1="431.8" x2="423.0" y2="423.3" stroke="#6e7681" stroke-width="0.9" opacity="0.18" />
  <line x1="379.6" y1="431.8" x2="432.1" y2="405.4" stroke="#6e7681" stroke-width="1.1" opacity="0.30" />
  <line x1="379.6" y1="431.8" x2="411.2" y2="412.0" stroke="#6e7681" stroke-width="1.0" opacity="0.22" />
  <line x1="384.6" y1="400.8" x2="376.7" y2="394.7" stroke="#6e7681" stroke-width="1.1" opacity="0.28" />
  <line x1="384.6" y1="400.8" x2="367.9" y2="406.6" stroke="#6e7681" stroke-width="1.0" opacity="0.24" />
  <line x1="384.6" y1="400.8" x2="432.0" y2="389.6" stroke="#6e7681" stroke-width="0.9" opacity="0.19" />
  <line x1="384.6" y1="400.8" x2="456.1" y2="408.1" stroke="#6e7681" stroke-width="0.9" opacity="0.18" />
  <line x1="384.6" y1="400.8" x2="423.0" y2="423.3" stroke="#6e7681" stroke-width="0.9" opacity="0.17" />
  <line x1="384.6" y1="400.8" x2="432.1" y2="405.4" stroke="#6e7681" stroke-width="0.9" opacity="0.17" />
  <line x1="384.6" y1="400.8" x2="411.2" y2="412.0" stroke="#6e7681" stroke-width="0.9" opacity="0.20" />
  <line x1="376.7" y1="394.7" x2="367.9" y2="406.6" stroke="#6e7681" stroke-width="1.1" opacity="0.28" />
  <line x1="376.7" y1="394.7" x2="439.5" y2="421.4" stroke="#6e7681" stroke-width="0.9" opacity="0.17" />
  <line x1="376.7" y1="394.7" x2="423.0" y2="423.3" stroke="#6e7681" stroke-width="0.9" opacity="0.20" />
  <line x1="376.7" y1="394.7" x2="440.1" y2="396.6" stroke="#6e7681" stroke-width="0.9" opacity="0.17" />
  <line x1="376.7" y1="394.7" x2="432.1" y2="405.4" stroke="#6e7681" stroke-width="0.9" opacity="0.20" />
  <line x1="376.7" y1="394.7" x2="411.2" y2="412.0" stroke="#6e7681" stroke-width="1.0" opacity="0.24" />
  <line x1="367.9" y1="406.6" x2="423.0" y2="423.3" stroke="#6e7681" stroke-width="0.9" opacity="0.17" />
  <line x1="367.9" y1="406.6" x2="432.1" y2="405.4" stroke="#6e7681" stroke-width="0.9" opacity="0.17" />
  <line x1="367.9" y1="406.6" x2="411.2" y2="412.0" stroke="#6e7681" stroke-width="0.9" opacity="0.20" />
  <line x1="518.8" y1="483.8" x2="481.7" y2="447.9" stroke="#6e7681" stroke-width="1.3" opacity="0.44" />
  <line x1="518.8" y1="483.8" x2="484.7" y2="484.5" stroke="#6e7681" stroke-width="0.9" opacity="0.18" />
  <line x1="481.7" y1="447.9" x2="432.5" y2="447.3" stroke="#6e7681" stroke-width="1.1" opacity="0.31" />
  <line x1="481.7" y1="447.9" x2="439.5" y2="421.4" stroke="#6e7681" stroke-width="0.9" opacity="0.20" />
  <line x1="481.7" y1="447.9" x2="423.0" y2="423.3" stroke="#6e7681" stroke-width="1.0" opacity="0.24" />
  <line x1="481.7" y1="447.9" x2="440.1" y2="396.6" stroke="#6e7681" stroke-width="0.9" opacity="0.20" />
  <line x1="481.7" y1="447.9" x2="432.1" y2="405.4" stroke="#6e7681" stroke-width="1.0" opacity="0.24" />
  <line x1="481.7" y1="447.9" x2="466.9" y2="421.1" stroke="#6e7681" stroke-width="0.9" opacity="0.18" />
  <line x1="481.7" y1="447.9" x2="620.3" y2="483.7" stroke="#6e7681" stroke-width="0.9" opacity="0.17" />
  <line x1="481.7" y1="447.9" x2="445.4" y2="450.1" stroke="#6e7681" stroke-width="1.1" opacity="0.31" />
  <line x1="481.7" y1="447.9" x2="484.7" y2="484.5" stroke="#6e7681" stroke-width="1.1" opacity="0.30" />
  <line x1="481.7" y1="447.9" x2="411.2" y2="412.0" stroke="#6e7681" stroke-width="1.1" opacity="0.31" />
  <line x1="50.0" y1="305.9" x2="57.1" y2="321.3" stroke="#6e7681" stroke-width="1.6" opacity="0.60" />
  <line x1="536.0" y1="296.5" x2="461.0" y2="362.6" stroke="#6e7681" stroke-width="0.9" opacity="0.18" />
  <line x1="536.0" y1="296.5" x2="578.2" y2="259.5" stroke="#6e7681" stroke-width="1.1" opacity="0.28" />
  <line x1="474.6" y1="396.8" x2="444.9" y2="377.6" stroke="#6e7681" stroke-width="0.9" opacity="0.17" />
  <line x1="474.6" y1="396.8" x2="461.0" y2="362.6" stroke="#6e7681" stroke-width="0.9" opacity="0.18" />
  <line x1="474.6" y1="396.8" x2="432.0" y2="389.6" stroke="#6e7681" stroke-width="1.0" opacity="0.22" />
  <line x1="474.6" y1="396.8" x2="440.1" y2="396.6" stroke="#6e7681" stroke-width="1.1" opacity="0.28" />
  <line x1="474.6" y1="396.8" x2="453.1" y2="389.2" stroke="#6e7681" stroke-width="1.1" opacity="0.32" />
  <line x1="474.6" y1="396.8" x2="432.1" y2="405.4" stroke="#6e7681" stroke-width="0.9" opacity="0.20" />
  <line x1="474.6" y1="396.8" x2="461.3" y2="379.4" stroke="#6e7681" stroke-width="1.0" opacity="0.22" />
  <line x1="474.6" y1="396.8" x2="407.1" y2="425.1" stroke="#6e7681" stroke-width="1.0" opacity="0.22" />
  <line x1="444.9" y1="377.6" x2="461.0" y2="362.6" stroke="#6e7681" stroke-width="1.3" opacity="0.42" />
  <line x1="444.9" y1="377.6" x2="486.6" y2="370.2" stroke="#6e7681" stroke-width="0.9" opacity="0.18" />
  <line x1="444.9" y1="377.6" x2="431.4" y2="368.6" stroke="#6e7681" stroke-width="1.1" opacity="0.31" />
  <line x1="444.9" y1="377.6" x2="432.0" y2="389.6" stroke="#6e7681" stroke-width="1.1" opacity="0.32" />
  <line x1="444.9" y1="377.6" x2="456.1" y2="408.1" stroke="#6e7681" stroke-width="1.0" opacity="0.23" />
  <line x1="444.9" y1="377.6" x2="440.1" y2="396.6" stroke="#6e7681" stroke-width="1.2" opacity="0.39" />
  <line x1="444.9" y1="377.6" x2="453.1" y2="389.2" stroke="#6e7681" stroke-width="1.0" opacity="0.26" />
  <line x1="444.9" y1="377.6" x2="432.1" y2="405.4" stroke="#6e7681" stroke-width="1.2" opacity="0.34" />
  <line x1="444.9" y1="377.6" x2="466.9" y2="421.1" stroke="#6e7681" stroke-width="0.9" opacity="0.19" />
  <line x1="444.9" y1="377.6" x2="461.3" y2="379.4" stroke="#6e7681" stroke-width="1.0" opacity="0.25" />
  <line x1="444.9" y1="377.6" x2="411.2" y2="412.0" stroke="#6e7681" stroke-width="0.9" opacity="0.17" />
  <line x1="461.0" y1="362.6" x2="486.6" y2="370.2" stroke="#6e7681" stroke-width="1.1" opacity="0.33" />
  <line x1="461.0" y1="362.6" x2="431.4" y2="368.6" stroke="#6e7681" stroke-width="0.9" opacity="0.21" />
  <line x1="461.0" y1="362.6" x2="432.0" y2="389.6" stroke="#6e7681" stroke-width="0.9" opacity="0.18" />
  <line x1="461.0" y1="362.6" x2="440.1" y2="396.6" stroke="#6e7681" stroke-width="1.3" opacity="0.41" />
  <line x1="461.0" y1="362.6" x2="453.1" y2="389.2" stroke="#6e7681" stroke-width="1.0" opacity="0.22" />
  <line x1="461.0" y1="362.6" x2="432.1" y2="405.4" stroke="#6e7681" stroke-width="1.1" opacity="0.31" />
  <line x1="461.0" y1="362.6" x2="461.3" y2="379.4" stroke="#6e7681" stroke-width="1.7" opacity="0.66" />
  <line x1="426.3" y1="437.4" x2="432.5" y2="447.3" stroke="#6e7681" stroke-width="1.5" opacity="0.55" />
  <line x1="426.3" y1="437.4" x2="439.5" y2="421.4" stroke="#6e7681" stroke-width="0.9" opacity="0.18" />
  <line x1="426.3" y1="437.4" x2="423.0" y2="423.3" stroke="#6e7681" stroke-width="1.1" opacity="0.28" />
  <line x1="426.3" y1="437.4" x2="440.1" y2="396.6" stroke="#6e7681" stroke-width="0.9" opacity="0.18" />
  <line x1="426.3" y1="437.4" x2="432.1" y2="405.4" stroke="#6e7681" stroke-width="1.1" opacity="0.28" />
  <line x1="426.3" y1="437.4" x2="411.7" y2="448.1" stroke="#6e7681" stroke-width="1.5" opacity="0.55" />
  <line x1="426.3" y1="437.4" x2="407.1" y2="425.1" stroke="#6e7681" stroke-width="1.2" opacity="0.37" />
  <line x1="426.3" y1="437.4" x2="445.4" y2="450.1" stroke="#6e7681" stroke-width="1.5" opacity="0.55" />
  <line x1="426.3" y1="437.4" x2="411.2" y2="412.0" stroke="#6e7681" stroke-width="1.5" opacity="0.55" />
  <line x1="432.5" y1="447.3" x2="423.0" y2="423.3" stroke="#6e7681" stroke-width="1.0" opacity="0.22" />
  <line x1="432.5" y1="447.3" x2="432.1" y2="405.4" stroke="#6e7681" stroke-width="1.0" opacity="0.22" />
  <line x1="432.5" y1="447.3" x2="411.7" y2="448.1" stroke="#6e7681" stroke-width="1.2" opacity="0.37" />
  <line x1="432.5" y1="447.3" x2="407.1" y2="425.1" stroke="#6e7681" stroke-width="1.1" opacity="0.28" />
  <line x1="432.5" y1="447.3" x2="445.4" y2="450.1" stroke="#6e7681" stroke-width="1.2" opacity="0.37" />
  <line x1="432.5" y1="447.3" x2="411.2" y2="412.0" stroke="#6e7681" stroke-width="1.2" opacity="0.37" />
  <line x1="486.6" y1="370.2" x2="440.1" y2="396.6" stroke="#6e7681" stroke-width="0.9" opacity="0.18" />
  <line x1="486.6" y1="370.2" x2="453.1" y2="389.2" stroke="#6e7681" stroke-width="0.9" opacity="0.18" />
  <line x1="486.6" y1="370.2" x2="432.1" y2="405.4" stroke="#6e7681" stroke-width="1.0" opacity="0.22" />
  <line x1="486.6" y1="370.2" x2="461.3" y2="379.4" stroke="#6e7681" stroke-width="1.3" opacity="0.41" />
  <line x1="431.4" y1="368.6" x2="432.0" y2="389.6" stroke="#6e7681" stroke-width="1.1" opacity="0.31" />
  <line x1="431.4" y1="368.6" x2="440.1" y2="396.6" stroke="#6e7681" stroke-width="1.4" opacity="0.47" />
  <line x1="431.4" y1="368.6" x2="453.1" y2="389.2" stroke="#6e7681" stroke-width="0.9" opacity="0.19" />
  <line x1="431.4" y1="368.6" x2="432.1" y2="405.4" stroke="#6e7681" stroke-width="1.0" opacity="0.22" />
  <line x1="432.0" y1="389.6" x2="456.1" y2="408.1" stroke="#6e7681" stroke-width="1.1" opacity="0.29" />
  <line x1="432.0" y1="389.6" x2="439.5" y2="421.4" stroke="#6e7681" stroke-width="0.9" opacity="0.17" />
  <line x1="432.0" y1="389.6" x2="423.0" y2="423.3" stroke="#6e7681" stroke-width="0.9" opacity="0.20" />
  <line x1="432.0" y1="389.6" x2="440.1" y2="396.6" stroke="#6e7681" stroke-width="1.3" opacity="0.40" />
  <line x1="432.0" y1="389.6" x2="453.1" y2="389.2" stroke="#6e7681" stroke-width="1.0" opacity="0.24" />
  <line x1="432.0" y1="389.6" x2="432.1" y2="405.4" stroke="#6e7681" stroke-width="0.9" opacity="0.20" />
  <line x1="432.0" y1="389.6" x2="411.2" y2="412.0" stroke="#6e7681" stroke-width="1.0" opacity="0.24" />
  <line x1="456.1" y1="408.1" x2="423.0" y2="423.3" stroke="#6e7681" stroke-width="0.9" opacity="0.18" />
  <line x1="456.1" y1="408.1" x2="453.1" y2="389.2" stroke="#6e7681" stroke-width="1.0" opacity="0.23" />
  <line x1="456.1" y1="408.1" x2="432.1" y2="405.4" stroke="#6e7681" stroke-width="0.9" opacity="0.18" />
  <line x1="456.1" y1="408.1" x2="466.9" y2="421.1" stroke="#6e7681" stroke-width="1.0" opacity="0.24" />
  <line x1="456.1" y1="408.1" x2="411.2" y2="412.0" stroke="#6e7681" stroke-width="1.0" opacity="0.22" />
  <line x1="439.5" y1="421.4" x2="423.0" y2="423.3" stroke="#6e7681" stroke-width="1.1" opacity="0.28" />
  <line x1="439.5" y1="421.4" x2="440.1" y2="396.6" stroke="#6e7681" stroke-width="1.0" opacity="0.22" />
  <line x1="439.5" y1="421.4" x2="432.1" y2="405.4" stroke="#6e7681" stroke-width="1.1" opacity="0.28" />
  <line x1="439.5" y1="421.4" x2="466.9" y2="421.1" stroke="#6e7681" stroke-width="0.9" opacity="0.20" />
  <line x1="439.5" y1="421.4" x2="411.2" y2="412.0" stroke="#6e7681" stroke-width="1.2" opacity="0.37" />
  <line x1="423.0" y1="423.3" x2="440.1" y2="396.6" stroke="#6e7681" stroke-width="1.1" opacity="0.28" />
  <line x1="423.0" y1="423.3" x2="432.1" y2="405.4" stroke="#6e7681" stroke-width="1.2" opacity="0.37" />
  <line x1="423.0" y1="423.3" x2="411.7" y2="448.1" stroke="#6e7681" stroke-width="1.0" opacity="0.22" />
  <line x1="423.0" y1="423.3" x2="466.9" y2="421.1" stroke="#6e7681" stroke-width="1.0" opacity="0.24" />
  <line x1="423.0" y1="423.3" x2="407.1" y2="425.1" stroke="#6e7681" stroke-width="0.9" opacity="0.18" />
  <line x1="423.0" y1="423.3" x2="445.4" y2="450.1" stroke="#6e7681" stroke-width="1.0" opacity="0.22" />
  <line x1="423.0" y1="423.3" x2="411.2" y2="412.0" stroke="#6e7681" stroke-width="1.5" opacity="0.55" />
  <line x1="440.1" y1="396.6" x2="453.1" y2="389.2" stroke="#6e7681" stroke-width="1.1" opacity="0.29" />
  <line x1="440.1" y1="396.6" x2="432.1" y2="405.4" stroke="#6e7681" stroke-width="1.4" opacity="0.47" />
  <line x1="440.1" y1="396.6" x2="466.9" y2="421.1" stroke="#6e7681" stroke-width="0.9" opacity="0.20" />
  <line x1="440.1" y1="396.6" x2="461.3" y2="379.4" stroke="#6e7681" stroke-width="1.1" opacity="0.31" />
  <line x1="440.1" y1="396.6" x2="407.1" y2="425.1" stroke="#6e7681" stroke-width="1.1" opacity="0.31" />
  <line x1="440.1" y1="396.6" x2="411.2" y2="412.0" stroke="#6e7681" stroke-width="1.2" opacity="0.37" />
  <line x1="453.1" y1="389.2" x2="432.1" y2="405.4" stroke="#6e7681" stroke-width="1.2" opacity="0.34" />
  <line x1="453.1" y1="389.2" x2="461.3" y2="379.4" stroke="#6e7681" stroke-width="1.0" opacity="0.25" />
  <line x1="453.1" y1="389.2" x2="407.1" y2="425.1" stroke="#6e7681" stroke-width="1.0" opacity="0.25" />
  <line x1="453.1" y1="389.2" x2="411.2" y2="412.0" stroke="#6e7681" stroke-width="0.9" opacity="0.17" />
  <line x1="432.1" y1="405.4" x2="411.7" y2="448.1" stroke="#6e7681" stroke-width="1.0" opacity="0.22" />
  <line x1="432.1" y1="405.4" x2="466.9" y2="421.1" stroke="#6e7681" stroke-width="1.0" opacity="0.24" />
  <line x1="432.1" y1="405.4" x2="461.3" y2="379.4" stroke="#6e7681" stroke-width="1.3" opacity="0.44" />
  <line x1="432.1" y1="405.4" x2="407.1" y2="425.1" stroke="#6e7681" stroke-width="1.3" opacity="0.44" />
  <line x1="432.1" y1="405.4" x2="445.4" y2="450.1" stroke="#6e7681" stroke-width="1.0" opacity="0.22" />
  <line x1="432.1" y1="405.4" x2="411.2" y2="412.0" stroke="#6e7681" stroke-width="1.5" opacity="0.55" />
  <line x1="903.6" y1="341.8" x2="910.0" y2="319.8" stroke="#6e7681" stroke-width="1.0" opacity="0.22" />
  <line x1="367.7" y1="345.1" x2="411.2" y2="412.0" stroke="#6e7681" stroke-width="1.0" opacity="0.22" />
  <line x1="411.7" y1="448.1" x2="407.1" y2="425.1" stroke="#6e7681" stroke-width="1.1" opacity="0.28" />
  <line x1="411.7" y1="448.1" x2="445.4" y2="450.1" stroke="#6e7681" stroke-width="1.2" opacity="0.37" />
  <line x1="411.7" y1="448.1" x2="411.2" y2="412.0" stroke="#6e7681" stroke-width="1.2" opacity="0.37" />
  <line x1="673.1" y1="500.0" x2="690.1" y2="485.0" stroke="#6e7681" stroke-width="1.5" opacity="0.55" />
  <line x1="673.1" y1="500.0" x2="620.3" y2="483.7" stroke="#6e7681" stroke-width="1.3" opacity="0.41" />
  <line x1="690.1" y1="485.0" x2="620.3" y2="483.7" stroke="#6e7681" stroke-width="1.0" opacity="0.24" />
  <line x1="466.9" y1="421.1" x2="411.2" y2="412.0" stroke="#6e7681" stroke-width="1.1" opacity="0.31" />
  <line x1="461.3" y1="379.4" x2="407.1" y2="425.1" stroke="#6e7681" stroke-width="1.0" opacity="0.22" />
  <line x1="407.1" y1="425.1" x2="332.4" y2="435.8" stroke="#6e7681" stroke-width="1.2" opacity="0.37" />
  <line x1="407.1" y1="425.1" x2="310.7" y2="449.7" stroke="#6e7681" stroke-width="0.9" opacity="0.18" />
  <line x1="407.1" y1="425.1" x2="445.4" y2="450.1" stroke="#6e7681" stroke-width="1.1" opacity="0.28" />
  <line x1="407.1" y1="425.1" x2="411.2" y2="412.0" stroke="#6e7681" stroke-width="1.1" opacity="0.28" />
  <line x1="332.4" y1="435.8" x2="310.7" y2="449.7" stroke="#6e7681" stroke-width="1.1" opacity="0.28" />
  <line x1="445.4" y1="450.1" x2="484.7" y2="484.5" stroke="#6e7681" stroke-width="1.1" opacity="0.31" />
  <line x1="445.4" y1="450.1" x2="411.2" y2="412.0" stroke="#6e7681" stroke-width="1.2" opacity="0.37" />
  <circle cx="327.8" cy="372.0" r="12.6" fill="#3498db" opacity="0.12" />
  <circle cx="327.8" cy="372.0" r="8.6" fill="#3498db" opacity="0.88" />
  <circle cx="277.4" cy="354.7" r="15.3" fill="#3498db" opacity="0.12" />
  <circle cx="277.4" cy="354.7" r="11.3" fill="#3498db" opacity="0.88" />
  <circle cx="335.1" cy="388.7" r="12.6" fill="#2ecc71" opacity="0.12" />
  <circle cx="335.1" cy="388.7" r="8.6" fill="#2ecc71" opacity="0.88" />
  <circle cx="353.3" cy="385.0" r="18.9" fill="#7f8c8d" opacity="0.12" />
  <circle cx="353.3" cy="385.0" r="14.9" fill="#7f8c8d" opacity="0.88" />
  <circle cx="404.9" cy="347.6" r="20" fill="#3498db" opacity="0.12" />
  <circle cx="404.9" cy="347.6" r="16" fill="#3498db" opacity="0.88" />
  <circle cx="311.7" cy="378.7" r="20" fill="#7f8c8d" opacity="0.12" />
  <circle cx="311.7" cy="378.7" r="16" fill="#7f8c8d" opacity="0.88" />
  <circle cx="379.0" cy="380.0" r="19.8" fill="#7f8c8d" opacity="0.12" />
  <circle cx="379.0" cy="380.0" r="15.8" fill="#7f8c8d" opacity="0.88" />
  <circle cx="262.1" cy="363.8" r="13.5" fill="#7f8c8d" opacity="0.12" />
  <circle cx="262.1" cy="363.8" r="9.5" fill="#7f8c8d" opacity="0.88" />
  <circle cx="353.5" cy="362.1" r="18.9" fill="#3498db" opacity="0.12" />
  <circle cx="353.5" cy="362.1" r="14.9" fill="#3498db" opacity="0.88" />
  <circle cx="405.9" cy="373.9" r="20" fill="#7f8c8d" opacity="0.12" />
  <circle cx="405.9" cy="373.9" r="16" fill="#7f8c8d" opacity="0.88" />
  <circle cx="388.4" cy="389.7" r="16.2" fill="#e67e22" opacity="0.12" />
  <circle cx="388.4" cy="389.7" r="12.2" fill="#e67e22" opacity="0.88" />
  <circle cx="442.6" cy="342.5" r="20" fill="#e74c3c" opacity="0.12" />
  <circle cx="442.6" cy="342.5" r="16" fill="#e74c3c" opacity="0.88" />
  <circle cx="494.3" cy="382.7" r="20" fill="#9b59b6" opacity="0.12" />
  <circle cx="494.3" cy="382.7" r="16" fill="#9b59b6" opacity="0.88" />
  <circle cx="379.6" cy="431.8" r="17.1" fill="#e67e22" opacity="0.12" />
  <circle cx="379.6" cy="431.8" r="13.1" fill="#e67e22" opacity="0.88" />
  <circle cx="384.6" cy="400.8" r="18.0" fill="#3498db" opacity="0.12" />
  <circle cx="384.6" cy="400.8" r="14.0" fill="#3498db" opacity="0.88" />
  <circle cx="376.7" cy="394.7" r="16.2" fill="#3498db" opacity="0.12" />
  <circle cx="376.7" cy="394.7" r="12.2" fill="#3498db" opacity="0.88" />
  <circle cx="367.9" cy="406.6" r="18.0" fill="#3498db" opacity="0.12" />
  <circle cx="367.9" cy="406.6" r="14.0" fill="#3498db" opacity="0.88" />
  <circle cx="518.8" cy="483.8" r="14.4" fill="#e74c3c" opacity="0.12" />
  <circle cx="518.8" cy="483.8" r="10.4" fill="#e74c3c" opacity="0.88" />
  <circle cx="495.1" cy="50.0" r="16.2" fill="#3498db" opacity="0.12" />
  <circle cx="495.1" cy="50.0" r="12.2" fill="#3498db" opacity="0.88" />
  <circle cx="481.7" cy="447.9" r="14.4" fill="#e74c3c" opacity="0.12" />
  <circle cx="481.7" cy="447.9" r="10.4" fill="#e74c3c" opacity="0.88" />
  <circle cx="50.0" cy="305.9" r="16.2" fill="#3498db" opacity="0.12" />
  <circle cx="50.0" cy="305.9" r="12.2" fill="#3498db" opacity="0.88" />
  <circle cx="57.1" cy="321.3" r="15.3" fill="#3498db" opacity="0.12" />
  <circle cx="57.1" cy="321.3" r="11.3" fill="#3498db" opacity="0.88" />
  <circle cx="536.0" cy="296.5" r="9.9" fill="#3498db" opacity="0.12" />
  <circle cx="536.0" cy="296.5" r="5.9" fill="#3498db" opacity="0.88" />
  <circle cx="474.6" cy="396.8" r="16.2" fill="#9b59b6" opacity="0.12" />
  <circle cx="474.6" cy="396.8" r="12.2" fill="#9b59b6" opacity="0.88" />
  <circle cx="444.9" cy="377.6" r="19.8" fill="#9b59b6" opacity="0.12" />
  <circle cx="444.9" cy="377.6" r="15.8" fill="#9b59b6" opacity="0.88" />
  <circle cx="461.0" cy="362.6" r="12.6" fill="#9b59b6" opacity="0.12" />
  <circle cx="461.0" cy="362.6" r="8.6" fill="#9b59b6" opacity="0.88" />
  <circle cx="426.3" cy="437.4" r="9" fill="#2ecc71" opacity="0.12" />
  <circle cx="426.3" cy="437.4" r="5" fill="#2ecc71" opacity="0.88" />
  <circle cx="432.5" cy="447.3" r="9.9" fill="#7f8c8d" opacity="0.12" />
  <circle cx="432.5" cy="447.3" r="5.9" fill="#7f8c8d" opacity="0.88" />
  <circle cx="486.6" cy="370.2" r="15.3" fill="#e67e22" opacity="0.12" />
  <circle cx="486.6" cy="370.2" r="11.3" fill="#e67e22" opacity="0.88" />
  <circle cx="431.4" cy="368.6" r="20" fill="#2ecc71" opacity="0.12" />
  <circle cx="431.4" cy="368.6" r="16" fill="#2ecc71" opacity="0.88" />
  <circle cx="578.2" cy="259.5" r="10.8" fill="#9b59b6" opacity="0.12" />
  <circle cx="578.2" cy="259.5" r="6.8" fill="#9b59b6" opacity="0.88" />
  <circle cx="834.4" cy="167.2" r="9" fill="#7f8c8d" opacity="0.12" />
  <circle cx="834.4" cy="167.2" r="5" fill="#7f8c8d" opacity="0.88" />
  <circle cx="432.0" cy="389.6" r="16.2" fill="#3498db" opacity="0.12" />
  <circle cx="432.0" cy="389.6" r="12.2" fill="#3498db" opacity="0.88" />
  <circle cx="456.1" cy="408.1" r="17.1" fill="#7f8c8d" opacity="0.12" />
  <circle cx="456.1" cy="408.1" r="13.1" fill="#7f8c8d" opacity="0.88" />
  <circle cx="439.5" cy="421.4" r="13.5" fill="#7f8c8d" opacity="0.12" />
  <circle cx="439.5" cy="421.4" r="9.5" fill="#7f8c8d" opacity="0.88" />
  <circle cx="727.5" cy="97.4" r="9" fill="#7f8c8d" opacity="0.12" />
  <circle cx="727.5" cy="97.4" r="5" fill="#7f8c8d" opacity="0.88" />
  <circle cx="423.0" cy="423.3" r="11.7" fill="#7f8c8d" opacity="0.12" />
  <circle cx="423.0" cy="423.3" r="7.7" fill="#7f8c8d" opacity="0.88" />
  <circle cx="440.1" cy="396.6" r="13.5" fill="#7f8c8d" opacity="0.12" />
  <circle cx="440.1" cy="396.6" r="9.5" fill="#7f8c8d" opacity="0.88" />
  <circle cx="453.1" cy="389.2" r="19.8" fill="#2ecc71" opacity="0.12" />
  <circle cx="453.1" cy="389.2" r="15.8" fill="#2ecc71" opacity="0.88" />
  <circle cx="432.1" cy="405.4" r="11.7" fill="#7f8c8d" opacity="0.12" />
  <circle cx="432.1" cy="405.4" r="7.7" fill="#7f8c8d" opacity="0.88" />
  <circle cx="903.6" cy="341.8" r="11.7" fill="#7f8c8d" opacity="0.12" />
  <circle cx="903.6" cy="341.8" r="7.7" fill="#7f8c8d" opacity="0.88" />
  <circle cx="367.7" cy="345.1" r="11.7" fill="#3498db" opacity="0.12" />
  <circle cx="367.7" cy="345.1" r="7.7" fill="#3498db" opacity="0.88" />
  <circle cx="411.7" cy="448.1" r="9.9" fill="#7f8c8d" opacity="0.12" />
  <circle cx="411.7" cy="448.1" r="5.9" fill="#7f8c8d" opacity="0.88" />
  <circle cx="673.1" cy="500.0" r="10.8" fill="#e67e22" opacity="0.12" />
  <circle cx="673.1" cy="500.0" r="6.8" fill="#e67e22" opacity="0.88" />
  <circle cx="690.1" cy="485.0" r="10.8" fill="#e67e22" opacity="0.12" />
  <circle cx="690.1" cy="485.0" r="6.8" fill="#e67e22" opacity="0.88" />
  <circle cx="466.9" cy="421.1" r="14.4" fill="#7f8c8d" opacity="0.12" />
  <circle cx="466.9" cy="421.1" r="10.4" fill="#7f8c8d" opacity="0.88" />
  <circle cx="620.3" cy="483.7" r="15.3" fill="#e67e22" opacity="0.12" />
  <circle cx="620.3" cy="483.7" r="11.3" fill="#e67e22" opacity="0.88" />
  <circle cx="910.0" cy="319.8" r="9.9" fill="#7f8c8d" opacity="0.12" />
  <circle cx="910.0" cy="319.8" r="5.9" fill="#7f8c8d" opacity="0.88" />
  <circle cx="461.3" cy="379.4" r="10.8" fill="#7f8c8d" opacity="0.12" />
  <circle cx="461.3" cy="379.4" r="6.8" fill="#7f8c8d" opacity="0.88" />
  <circle cx="407.1" cy="425.1" r="10.8" fill="#7f8c8d" opacity="0.12" />
  <circle cx="407.1" cy="425.1" r="6.8" fill="#7f8c8d" opacity="0.88" />
  <circle cx="332.4" cy="435.8" r="9" fill="#2ecc71" opacity="0.12" />
  <circle cx="332.4" cy="435.8" r="5" fill="#2ecc71" opacity="0.88" />
  <circle cx="310.7" cy="449.7" r="11.7" fill="#2ecc71" opacity="0.12" />
  <circle cx="310.7" cy="449.7" r="7.7" fill="#2ecc71" opacity="0.88" />
  <circle cx="445.4" cy="450.1" r="9.9" fill="#e74c3c" opacity="0.12" />
  <circle cx="445.4" cy="450.1" r="5.9" fill="#e74c3c" opacity="0.88" />
  <circle cx="484.7" cy="484.5" r="14.4" fill="#e74c3c" opacity="0.12" />
  <circle cx="484.7" cy="484.5" r="10.4" fill="#e74c3c" opacity="0.88" />
  <circle cx="411.2" cy="412.0" r="9.9" fill="#7f8c8d" opacity="0.12" />
  <circle cx="411.2" cy="412.0" r="5.9" fill="#7f8c8d" opacity="0.88" />
  <circle cx="354.7" cy="60.9" r="9" fill="#7f8c8d" opacity="0.12" />
  <circle cx="354.7" cy="60.9" r="5" fill="#7f8c8d" opacity="0.88" />
  <rect x="338.4" y="375.4" width="16.4" height="15" fill="#0d1117" opacity="0.75" rx="2" />
  <text x="339.4" y="386.4" font-family="system-ui, -apple-system, sans-serif" font-size="12" fill="#e6edf3" text-anchor="start">pp</text>
  <rect x="290.7" y="345.1" width="117.2" height="15" fill="#0d1117" opacity="0.75" rx="2" />
  <text x="291.7" y="356.1" font-family="system-ui, -apple-system, sans-serif" font-size="12" fill="#e6edf3" text-anchor="start">tinyland-cleanup</text>
  <rect x="345.7" y="430.8" width="59.6" height="15" fill="#0d1117" opacity="0.75" rx="2" />
  <text x="346.7" y="441.8" font-family="system-ui, -apple-system, sans-serif" font-size="12" fill="#e6edf3" text-anchor="start">gnucashr</text>
  <rect x="370.2" y="405.4" width="81.2" height="15" fill="#0d1117" opacity="0.75" rx="2" />
  <text x="371.2" y="416.4" font-family="system-ui, -apple-system, sans-serif" font-size="12" fill="#e6edf3" text-anchor="start">tailnet-acl</text>
  <rect x="422.9" y="503.8" width="117.2" height="15" fill="#0d1117" opacity="0.75" rx="2" />
  <text x="423.9" y="514.8" font-family="system-ui, -apple-system, sans-serif" font-size="12" fill="#e6edf3" text-anchor="start">GloriousFlywheel</text>
  <rect x="329.7" y="390.4" width="74.0" height="15" fill="#0d1117" opacity="0.75" rx="2" />
  <text x="330.7" y="401.4" font-family="system-ui, -apple-system, sans-serif" font-size="12" fill="#e6edf3" text-anchor="start">tummycrypt</text>
  <rect x="396.8" y="309.1" width="124.4" height="15" fill="#0d1117" opacity="0.75" rx="2" />
  <text x="397.8" y="320.1" font-family="system-ui, -apple-system, sans-serif" font-size="12" fill="#e6edf3" text-anchor="start">tinyland-huskycat</text>
  <rect x="273.6" y="360.3" width="88.4" height="15" fill="#0d1117" opacity="0.75" rx="2" />
  <text x="274.6" y="371.3" font-family="system-ui, -apple-system, sans-serif" font-size="12" fill="#e6edf3" text-anchor="start">waifu-mirror</text>
  <rect x="370.4" y="230.3" width="102.8" height="15" fill="#0d1117" opacity="0.75" rx="2" />
  <text x="371.4" y="241.3" font-family="system-ui, -apple-system, sans-serif" font-size="12" fill="#e6edf3" text-anchor="start">tinyland-infra</text>
  <rect x="423.9" y="478.7" width="52.4" height="15" fill="#0d1117" opacity="0.75" rx="2" />
  <text x="424.9" y="489.7" font-family="system-ui, -apple-system, sans-serif" font-size="12" fill="#e6edf3" text-anchor="start">LA-Mesh</text>
  <rect x="402.6" y="288.3" width="45.2" height="15" fill="#0d1117" opacity="0.75" rx="2" />
  <text x="403.6" y="299.3" font-family="system-ui, -apple-system, sans-serif" font-size="12" fill="#e6edf3" text-anchor="start">XoxdWM</text>
  <rect x="460.6" y="244.9" width="131.6" height="15" fill="#0d1117" opacity="0.75" rx="2" />
  <text x="461.6" y="255.9" font-family="system-ui, -apple-system, sans-serif" font-size="12" fill="#e6edf3" text-anchor="start">pixelwise-research</text>
  <rect x="512.3" y="364.1" width="95.6" height="15" fill="#0d1117" opacity="0.75" rx="2" />
  <text x="513.3" y="375.1" font-family="system-ui, -apple-system, sans-serif" font-size="12" fill="#e6edf3" text-anchor="start">GIS_Shortcuts</text>
  <rect x="394.7" y="359.2" width="110.0" height="15" fill="#0d1117" opacity="0.75" rx="2" />
  <text x="395.7" y="370.2" font-family="system-ui, -apple-system, sans-serif" font-size="12" fill="#e6edf3" text-anchor="start">hiberpower-ntfs</text>
  <rect x="400.6" y="305.3" width="138.8" height="15" fill="#0d1117" opacity="0.75" rx="2" />
  <text x="401.6" y="316.3" font-family="system-ui, -apple-system, sans-serif" font-size="12" fill="#e6edf3" text-anchor="start">Ansible-DAG-Harness</text>
  <rect x="390.9" y="419.4" width="66.8" height="15" fill="#0d1117" opacity="0.75" rx="2" />
  <text x="391.9" y="430.4" font-family="system-ui, -apple-system, sans-serif" font-size="12" fill="#e6edf3" text-anchor="start">betterkvm</text>
  <rect x="383.9" y="327.9" width="95.6" height="15" fill="#0d1117" opacity="0.75" rx="2" />
  <text x="384.9" y="338.9" font-family="system-ui, -apple-system, sans-serif" font-size="12" fill="#e6edf3" text-anchor="start">DarwinNicUtil</text>
  <rect x="531.2" y="560.4" width="66.8" height="15" fill="#0d1117" opacity="0.75" rx="2" />
  <text x="532.2" y="571.4" font-family="system-ui, -apple-system, sans-serif" font-size="12" fill="#e6edf3" text-anchor="start">quickchpl</text>
  <rect x="509.3" y="43.2" width="131.6" height="15" fill="#0d1117" opacity="0.75" rx="2" />
  <text x="510.3" y="54.2" font-family="system-ui, -apple-system, sans-serif" font-size="12" fill="#e6edf3" text-anchor="start">tinyscale-mikrotik</text>
  <rect x="494.1" y="480.4" width="59.6" height="15" fill="#0d1117" opacity="0.75" rx="2" />
  <text x="495.1" y="491.4" font-family="system-ui, -apple-system, sans-serif" font-size="12" fill="#e6edf3" text-anchor="start">aoc-2025</text>
  <rect x="64.2" y="299.1" width="66.8" height="15" fill="#0d1117" opacity="0.75" rx="2" />
  <text x="65.2" y="310.1" font-family="system-ui, -apple-system, sans-serif" font-size="12" fill="#e6edf3" text-anchor="start">searchies</text>
  <rect x="70.4" y="314.5" width="59.6" height="15" fill="#0d1117" opacity="0.75" rx="2" />
  <text x="71.4" y="325.5" font-family="system-ui, -apple-system, sans-serif" font-size="12" fill="#e6edf3" text-anchor="start">ts-caddy</text>
  <rect x="543.9" y="232.7" width="66.8" height="15" fill="#0d1117" opacity="0.75" rx="2" />
  <text x="544.9" y="243.7" font-family="system-ui, -apple-system, sans-serif" font-size="12" fill="#e6edf3" text-anchor="start">HCI-notes</text>
  <rect x="488.8" y="321.2" width="88.4" height="15" fill="#0d1117" opacity="0.75" rx="2" />
  <text x="489.8" y="332.2" font-family="system-ui, -apple-system, sans-serif" font-size="12" fill="#e6edf3" text-anchor="start">FastPhotoAPI</text>
  <rect x="462.7" y="436.2" width="81.2" height="15" fill="#0d1117" opacity="0.75" rx="2" />
  <text x="463.7" y="447.2" font-family="system-ui, -apple-system, sans-serif" font-size="12" fill="#e6edf3" text-anchor="start">timberbuddy</text>
  <rect x="471.6" y="407.7" width="81.2" height="15" fill="#0d1117" opacity="0.75" rx="2" />
  <text x="472.6" y="418.7" font-family="system-ui, -apple-system, sans-serif" font-size="12" fill="#e6edf3" text-anchor="start">tetrahedron</text>
  <rect x="433.3" y="534.6" width="95.6" height="15" fill="#0d1117" opacity="0.75" rx="2" />
  <text x="434.3" y="545.6" font-family="system-ui, -apple-system, sans-serif" font-size="12" fill="#e6edf3" text-anchor="start">AccuWixReport</text>
  <rect x="440.4" y="472.2" width="95.6" height="15" fill="#0d1117" opacity="0.75" rx="2" />
  <text x="441.4" y="483.2" font-family="system-ui, -apple-system, sans-serif" font-size="12" fill="#e6edf3" text-anchor="start">Jess-AOC-2023</text>
  <rect x="499.9" y="333.1" width="81.2" height="15" fill="#0d1117" opacity="0.75" rx="2" />
  <text x="500.9" y="344.1" font-family="system-ui, -apple-system, sans-serif" font-size="12" fill="#e6edf3" text-anchor="start">TurkeyProbe</text>
  <rect x="449.4" y="260.1" width="153.2" height="15" fill="#0d1117" opacity="0.75" rx="2" />
  <text x="450.4" y="271.1" font-family="system-ui, -apple-system, sans-serif" font-size="12" fill="#e6edf3" text-anchor="start">MerlinAI-Interpreters</text>
  <rect x="587.0" y="218.0" width="110.0" height="15" fill="#0d1117" opacity="0.75" rx="2" />
  <text x="588.0" y="229.0" font-family="system-ui, -apple-system, sans-serif" font-size="12" fill="#e6edf3" text-anchor="start">IntroTypeScript</text>
  <rect x="717.4" y="160.4" width="110.0" height="15" fill="#0d1117" opacity="0.75" rx="2" />
  <text x="826.4" y="171.4" font-family="system-ui, -apple-system, sans-serif" font-size="12" fill="#e6edf3" text-anchor="end">IG-3DP-Profiles</text>
  <rect x="446.2" y="366.1" width="66.8" height="15" fill="#0d1117" opacity="0.75" rx="2" />
  <text x="447.2" y="377.1" font-family="system-ui, -apple-system, sans-serif" font-size="12" fill="#e6edf3" text-anchor="start">DLA-Flask</text>
  <rect x="471.2" y="443.1" width="38.0" height="15" fill="#0d1117" opacity="0.75" rx="2" />
  <text x="472.2" y="454.1" font-family="system-ui, -apple-system, sans-serif" font-size="12" fill="#e6edf3" text-anchor="start">USBoN</text>
  <rect x="451.0" y="290.2" width="203.6" height="15" fill="#0d1117" opacity="0.75" rx="2" />
  <text x="452.0" y="301.2" font-family="system-ui, -apple-system, sans-serif" font-size="12" fill="#e6edf3" text-anchor="start">chrome-remote-desktop-budgie</text>
  <rect x="734.5" y="90.6" width="124.4" height="15" fill="#0d1117" opacity="0.75" rx="2" />
  <text x="735.5" y="101.6" font-family="system-ui, -apple-system, sans-serif" font-size="12" fill="#e6edf3" text-anchor="start">OminousBeepingApp</text>
  <rect x="432.7" y="497.4" width="138.8" height="15" fill="#0d1117" opacity="0.75" rx="2" />
  <text x="433.7" y="508.4" font-family="system-ui, -apple-system, sans-serif" font-size="12" fill="#e6edf3" text-anchor="start">mo-image-identifier</text>
  <rect x="451.6" y="401.8" width="196.4" height="15" fill="#0d1117" opacity="0.75" rx="2" />
  <text x="452.6" y="412.8" font-family="system-ui, -apple-system, sans-serif" font-size="12" fill="#e6edf3" text-anchor="start">squirrel-leaflet-annotation</text>
  <rect x="470.9" y="374.4" width="74.0" height="15" fill="#0d1117" opacity="0.75" rx="2" />
  <text x="471.9" y="385.4" font-family="system-ui, -apple-system, sans-serif" font-size="12" fill="#e6edf3" text-anchor="start">Shiny-Apps</text>
  <rect x="441.8" y="273.2" width="138.8" height="15" fill="#0d1117" opacity="0.75" rx="2" />
  <text x="442.8" y="284.2" font-family="system-ui, -apple-system, sans-serif" font-size="12" fill="#e6edf3" text-anchor="start">bbox-jest-puppeteer</text>
  <rect x="805.5" y="335.0" width="88.4" height="15" fill="#0d1117" opacity="0.75" rx="2" />
  <text x="892.9" y="346.0" font-family="system-ui, -apple-system, sans-serif" font-size="12" fill="#e6edf3" text-anchor="end">DoverDisplay</text>
  <rect x="377.4" y="243.1" width="81.2" height="15" fill="#0d1117" opacity="0.75" rx="2" />
  <text x="378.4" y="254.1" font-family="system-ui, -apple-system, sans-serif" font-size="12" fill="#e6edf3" text-anchor="start">LeafletSync</text>
  <rect x="419.6" y="548.4" width="167.6" height="15" fill="#0d1117" opacity="0.75" rx="2" />
  <text x="420.6" y="559.4" font-family="system-ui, -apple-system, sans-serif" font-size="12" fill="#e6edf3" text-anchor="start">misc-roi-distance-notes</text>
  <rect x="681.9" y="498.1" width="138.8" height="15" fill="#0d1117" opacity="0.75" rx="2" />
  <text x="682.9" y="509.1" font-family="system-ui, -apple-system, sans-serif" font-size="12" fill="#e6edf3" text-anchor="start">Arduino_Coil_Winder</text>
  <rect x="698.9" y="483.6" width="30.8" height="15" fill="#0d1117" opacity="0.75" rx="2" />
  <text x="699.9" y="494.6" font-family="system-ui, -apple-system, sans-serif" font-size="12" fill="#e6edf3" text-anchor="start">momo</text>
  <rect x="479.3" y="424.7" width="38.0" height="15" fill="#0d1117" opacity="0.75" rx="2" />
  <text x="480.3" y="435.7" font-family="system-ui, -apple-system, sans-serif" font-size="12" fill="#e6edf3" text-anchor="start">clipi</text>
  <rect x="633.6" y="466.6" width="110.0" height="15" fill="#0d1117" opacity="0.75" rx="2" />
  <text x="634.6" y="477.6" font-family="system-ui, -apple-system, sans-serif" font-size="12" fill="#e6edf3" text-anchor="start">AeroTaz5_hotfix</text>
  <rect x="792.1" y="313.0" width="110.0" height="15" fill="#0d1117" opacity="0.75" rx="2" />
  <text x="901.1" y="324.0" font-family="system-ui, -apple-system, sans-serif" font-size="12" fill="#e6edf3" text-anchor="end">Funmat-HT-Notes</text>
  <rect x="470.1" y="350.1" width="81.2" height="15" fill="#0d1117" opacity="0.75" rx="2" />
  <text x="471.1" y="361.1" font-family="system-ui, -apple-system, sans-serif" font-size="12" fill="#e6edf3" text-anchor="start">static-site</text>
  <rect x="415.9" y="391.4" width="95.6" height="15" fill="#0d1117" opacity="0.75" rx="2" />
  <text x="416.9" y="402.4" font-family="system-ui, -apple-system, sans-serif" font-size="12" fill="#e6edf3" text-anchor="start">Flask-Manager</text>
  <rect x="339.4" y="445.5" width="110.0" height="15" fill="#0d1117" opacity="0.75" rx="2" />
  <text x="340.4" y="456.5" font-family="system-ui, -apple-system, sans-serif" font-size="12" fill="#e6edf3" text-anchor="start">FieldProcessing</text>
  <rect x="320.4" y="479.7" width="81.2" height="15" fill="#0d1117" opacity="0.75" rx="2" />
  <text x="321.4" y="490.7" font-family="system-ui, -apple-system, sans-serif" font-size="12" fill="#e6edf3" text-anchor="start">rJDKmanager</text>
  <rect x="453.3" y="517.6" width="59.6" height="15" fill="#0d1117" opacity="0.75" rx="2" />
  <text x="454.3" y="528.6" font-family="system-ui, -apple-system, sans-serif" font-size="12" fill="#e6edf3" text-anchor="start">tagnotes</text>
  <rect x="497.1" y="577.4" width="81.2" height="15" fill="#0d1117" opacity="0.75" rx="2" />
  <text x="498.1" y="588.4" font-family="system-ui, -apple-system, sans-serif" font-size="12" fill="#e6edf3" text-anchor="start">ChapelTests</text>
  <rect x="419.1" y="462.5" width="88.4" height="15" fill="#0d1117" opacity="0.75" rx="2" />
  <text x="420.1" y="473.5" font-family="system-ui, -apple-system, sans-serif" font-size="12" fill="#e6edf3" text-anchor="start">Xfinity-WiFi</text>
  <rect x="361.7" y="54.1" width="66.8" height="15" fill="#0d1117" opacity="0.75" rx="2" />
  <text x="362.7" y="65.1" font-family="system-ui, -apple-system, sans-serif" font-size="12" fill="#e6edf3" text-anchor="start">home-wiki</text>
  <rect x="793" y="36" width="155" height="120" rx="6" fill="#161b22" stroke="#30363d" stroke-width="1" opacity="0.95" />
  <circle cx="810" cy="52" r="5" fill="#e74c3c" opacity="0.88" />
  <text x="820" y="56" font-family="system-ui, -apple-system, sans-serif" font-size="10" fill="#e6edf3">Languages &amp; Compilers</text>
  <circle cx="810" cy="69" r="5" fill="#3498db" opacity="0.88" />
  <text x="820" y="73" font-family="system-ui, -apple-system, sans-serif" font-size="10" fill="#e6edf3">Infrastructure &amp; DevOps</text>
  <circle cx="810" cy="86" r="5" fill="#e67e22" opacity="0.88" />
  <text x="820" y="90" font-family="system-ui, -apple-system, sans-serif" font-size="10" fill="#e6edf3">Hardware &amp; Maker</text>
  <circle cx="810" cy="103" r="5" fill="#2ecc71" opacity="0.88" />
  <text x="820" y="107" font-family="system-ui, -apple-system, sans-serif" font-size="10" fill="#e6edf3">ML &amp; Data</text>
  <circle cx="810" cy="120" r="5" fill="#9b59b6" opacity="0.88" />
  <text x="820" y="124" font-family="system-ui, -apple-system, sans-serif" font-size="10" fill="#e6edf3">Web &amp; Apps</text>
  <circle cx="810" cy="137" r="5" fill="#7f8c8d" opacity="0.88" />
  <text x="820" y="141" font-family="system-ui, -apple-system, sans-serif" font-size="10" fill="#e6edf3">Other</text>
  <text x="870" y="150" font-family="system-ui, -apple-system, sans-serif" font-size="8" fill="#8b949e" text-anchor="middle">56 repos · 223 edges</text>
</svg>