<svg xmlns="http://www.w3.org/2000/svg" width="960" height="600" viewBox="0 0 960 600">
  <rect width="960" height="600" fill="#ffffff" rx="8" />
  <text x="480" y="24" font-family="system-ui, -apple-system, sans-serif" font-size="13" fill="#656d76" text-anchor="middle" font-weight="500">Repo Relationship Graph &#x2014; Pairwise Topic &amp; Language Similarity</text>
  <line x1="50" y1="550" x2="910" y2="550" stroke="#d0d7de" stroke-width="0.5" opacity="0.5" />
  <text x="50" y="570" font-family="system-ui, -apple-system, sans-serif" font-size="9" fill="#656d76" opacity="0.6">Updated daily by GitHub Actions</text>
  <text x="50" y="588" font-family="system-ui, -apple-system, sans-serif" font-size="9" fill="#656d76" opacity="0.6">networkx spring_layout · Jaccard similarity &gt; 0.15</text>
  <text x="910" y="570" font-family="system-ui, -apple-system, sans-serif" font-size="9" fill="#656d76" text-anchor="end" opacity="0.6">57 repos · 226 edges</text>
  <line x1="443.3" y1="260.7" x2="390.0" y2="254.1" stroke="#bcc3cd" stroke-width="1.0" opacity="0.22" />
  <line x1="443.3" y1="260.7" x2="413.7" y2="241.6" stroke="#bcc3cd" stroke-width="1.0" opacity="0.22" />
  <line x1="443.3" y1="260.7" x2="410.6" y2="262.7" stroke="#bcc3cd" stroke-width="0.9" opacity="0.21" />
  <line x1="443.3" y1="260.7" x2="415.6" y2="277.9" stroke="#bcc3cd" stroke-width="0.9" opacity="0.21" />
  <line x1="443.3" y1="260.7" x2="472.7" y2="276.0" stroke="#bcc3cd" stroke-width="1.1" opacity="0.30" />
  <line x1="443.3" y1="260.7" x2="465.4" y2="259.4" stroke="#bcc3cd" stroke-width="1.0" opacity="0.24" />
  <line x1="443.3" y1="260.7" x2="452.3" y2="264.7" stroke="#bcc3cd" stroke-width="1.0" opacity="0.22" />
  <line x1="443.3" y1="260.7" x2="455.5" y2="250.7" stroke="#bcc3cd" stroke-width="1.0" opacity="0.24" />
  <line x1="443.3" y1="260.7" x2="448.1" y2="242.8" stroke="#bcc3cd" stroke-width="1.0" opacity="0.22" />
  <line x1="443.3" y1="260.7" x2="495.6" y2="286.2" stroke="#bcc3cd" stroke-width="0.9" opacity="0.19" />
  <line x1="443.3" y1="260.7" x2="519.6" y2="262.3" stroke="#bcc3cd" stroke-width="0.9" opacity="0.21" />
  <line x1="443.3" y1="260.7" x2="518.2" y2="253.7" stroke="#bcc3cd" stroke-width="1.0" opacity="0.24" />
  <line x1="443.3" y1="260.7" x2="495.6" y2="237.6" stroke="#bcc3cd" stroke-width="0.9" opacity="0.17" />
  <line x1="461.0" y1="299.8" x2="415.6" y2="277.9" stroke="#bcc3cd" stroke-width="1.2" opacity="0.38" />
  <line x1="461.0" y1="299.8" x2="472.7" y2="276.0" stroke="#bcc3cd" stroke-width="1.2" opacity="0.34" />
  <line x1="461.0" y1="299.8" x2="465.4" y2="259.4" stroke="#bcc3cd" stroke-width="0.9" opacity="0.18" />
  <line x1="461.0" y1="299.8" x2="498.4" y2="310.3" stroke="#bcc3cd" stroke-width="1.0" opacity="0.25" />
  <line x1="461.0" y1="299.8" x2="513.9" y2="280.6" stroke="#bcc3cd" stroke-width="0.9" opacity="0.20" />
  <line x1="461.0" y1="299.8" x2="533.4" y2="293.5" stroke="#bcc3cd" stroke-width="1.0" opacity="0.22" />
  <line x1="336.2" y1="272.6" x2="390.0" y2="254.1" stroke="#bcc3cd" stroke-width="0.9" opacity="0.18" />
  <line x1="336.2" y1="272.6" x2="410.6" y2="262.7" stroke="#bcc3cd" stroke-width="1.2" opacity="0.34" />
  <line x1="336.2" y1="272.6" x2="322.0" y2="258.7" stroke="#bcc3cd" stroke-width="0.9" opacity="0.17" />
  <line x1="332.9" y1="238.2" x2="390.0" y2="254.1" stroke="#bcc3cd" stroke-width="1.1" opacity="0.33" />
  <line x1="332.9" y1="238.2" x2="413.7" y2="241.6" stroke="#bcc3cd" stroke-width="0.9" opacity="0.20" />
  <line x1="332.9" y1="238.2" x2="322.0" y2="258.7" stroke="#bcc3cd" stroke-width="0.9" opacity="0.18" />
  <line x1="390.0" y1="254.1" x2="413.7" y2="241.6" stroke="#bcc3cd" stroke-width="1.4" opacity="0.47" />
  <line x1="390.0" y1="254.1" x2="322.0" y2="258.7" stroke="#bcc3cd" stroke-width="1.3" opacity="0.41" />
  <line x1="390.0" y1="254.1" x2="415.6" y2="277.9" stroke="#bcc3cd" stroke-width="1.0" opacity="0.24" />
  <line x1="390.0" y1="254.1" x2="472.7" y2="276.0" stroke="#bcc3cd" stroke-width="0.9" opacity="0.19" />
  <line x1="390.0" y1="254.1" x2="465.4" y2="259.4" stroke="#bcc3cd" stroke-width="0.9" opacity="0.18" />
  <line x1="390.0" y1="254.1" x2="455.5" y2="250.7" stroke="#bcc3cd" stroke-width="0.9" opacity="0.18" />
  <line x1="390.0" y1="254.1" x2="495.6" y2="237.6" stroke="#bcc3cd" stroke-width="0.9" opacity="0.18" />
  <line x1="413.7" y1="241.6" x2="415.6" y2="277.9" stroke="#bcc3cd" stroke-width="1.0" opacity="0.24" />
  <line x1="413.7" y1="241.6" x2="472.7" y2="276.0" stroke="#bcc3cd" stroke-width="0.9" opacity="0.19" />
  <line x1="413.7" y1="241.6" x2="465.4" y2="259.4" stroke="#bcc3cd" stroke-width="0.9" opacity="0.18" />
  <line x1="413.7" y1="241.6" x2="455.5" y2="250.7" stroke="#bcc3cd" stroke-width="0.9" opacity="0.18" />
  <line x1="413.7" y1="241.6" x2="454.2" y2="199.5" stroke="#bcc3cd" stroke-width="1.0" opacity="0.22" />
  <line x1="413.7" y1="241.6" x2="495.6" y2="237.6" stroke="#bcc3cd" stroke-width="0.9" opacity="0.18" />
  <line x1="410.6" y1="262.7" x2="379.7" y2="275.4" stroke="#bcc3cd" stroke-width="0.9" opacity="0.19" />
  <line x1="410.6" y1="262.7" x2="415.6" y2="277.9" stroke="#bcc3cd" stroke-width="1.0" opacity="0.22" />
  <line x1="410.6" y1="262.7" x2="472.7" y2="276.0" stroke="#bcc3cd" stroke-width="0.9" opacity="0.19" />
  <line x1="410.6" y1="262.7" x2="465.4" y2="259.4" stroke="#bcc3cd" stroke-width="1.0" opacity="0.26" />
  <line x1="410.6" y1="262.7" x2="452.3" y2="264.7" stroke="#bcc3cd" stroke-width="1.0" opacity="0.23" />
  <line x1="410.6" y1="262.7" x2="455.5" y2="250.7" stroke="#bcc3cd" stroke-width="1.0" opacity="0.26" />
  <line x1="410.6" y1="262.7" x2="448.1" y2="242.8" stroke="#bcc3cd" stroke-width="1.0" opacity="0.23" />
  <line x1="410.6" y1="262.7" x2="495.6" y2="237.6" stroke="#bcc3cd" stroke-width="0.9" opacity="0.18" />
  <line x1="379.7" y1="275.4" x2="322.0" y2="258.7" stroke="#bcc3cd" stroke-width="0.9" opacity="0.18" />
  <line x1="379.7" y1="275.4" x2="415.6" y2="277.9" stroke="#bcc3cd" stroke-width="1.0" opacity="0.25" />
  <line x1="379.7" y1="275.4" x2="465.4" y2="259.4" stroke="#bcc3cd" stroke-width="1.0" opacity="0.22" />
  <line x1="379.7" y1="275.4" x2="452.3" y2="264.7" stroke="#bcc3cd" stroke-width="0.9" opacity="0.20" />
  <line x1="415.6" y1="277.9" x2="472.7" y2="276.0" stroke="#bcc3cd" stroke-width="0.9" opacity="0.19" />
  <line x1="415.6" y1="277.9" x2="465.4" y2="259.4" stroke="#bcc3cd" stroke-width="0.9" opacity="0.18" />
  <line x1="415.6" y1="277.9" x2="455.5" y2="250.7" stroke="#bcc3cd" stroke-width="0.9" opacity="0.18" />
  <line x1="472.7" y1="276.0" x2="465.4" y2="259.4" stroke="#bcc3cd" stroke-width="1.1" opacity="0.29" />
  <line x1="472.7" y1="276.0" x2="498.4" y2="310.3" stroke="#bcc3cd" stroke-width="1.2" opacity="0.34" />
  <line x1="472.7" y1="276.0" x2="452.3" y2="264.7" stroke="#bcc3cd" stroke-width="0.9" opacity="0.20" />
  <line x1="472.7" y1="276.0" x2="455.5" y2="250.7" stroke="#bcc3cd" stroke-width="1.0" opacity="0.22" />
  <line x1="472.7" y1="276.0" x2="448.1" y2="242.8" stroke="#bcc3cd" stroke-width="0.9" opacity="0.20" />
  <line x1="472.7" y1="276.0" x2="513.9" y2="280.6" stroke="#bcc3cd" stroke-width="1.2" opacity="0.37" />
  <line x1="472.7" y1="276.0" x2="533.4" y2="293.5" stroke="#bcc3cd" stroke-width="1.2" opacity="0.37" />
  <line x1="472.7" y1="276.0" x2="495.6" y2="286.2" stroke="#bcc3cd" stroke-width="1.1" opacity="0.29" />
  <line x1="472.7" y1="276.0" x2="504.6" y2="269.3" stroke="#bcc3cd" stroke-width="1.0" opacity="0.22" />
  <line x1="472.7" y1="276.0" x2="519.6" y2="262.3" stroke="#bcc3cd" stroke-width="1.2" opacity="0.34" />
  <line x1="472.7" y1="276.0" x2="528.7" y2="270.4" stroke="#bcc3cd" stroke-width="1.0" opacity="0.24" />
  <line x1="472.7" y1="276.0" x2="518.2" y2="253.7" stroke="#bcc3cd" stroke-width="1.1" opacity="0.29" />
  <line x1="472.7" y1="276.0" x2="536.0" y2="279.9" stroke="#bcc3cd" stroke-width="1.0" opacity="0.22" />
  <line x1="465.4" y1="259.4" x2="541.9" y2="233.3" stroke="#bcc3cd" stroke-width="0.9" opacity="0.21" />
  <line x1="465.4" y1="259.4" x2="452.3" y2="264.7" stroke="#bcc3cd" stroke-width="1.1" opacity="0.28" />
  <line x1="465.4" y1="259.4" x2="455.5" y2="250.7" stroke="#bcc3cd" stroke-width="1.1" opacity="0.31" />
  <line x1="465.4" y1="259.4" x2="448.1" y2="242.8" stroke="#bcc3cd" stroke-width="1.1" opacity="0.28" />
  <line x1="465.4" y1="259.4" x2="513.9" y2="280.6" stroke="#bcc3cd" stroke-width="0.9" opacity="0.17" />
  <line x1="465.4" y1="259.4" x2="528.7" y2="242.6" stroke="#bcc3cd" stroke-width="0.9" opacity="0.17" />
  <line x1="465.4" y1="259.4" x2="513.2" y2="238.1" stroke="#bcc3cd" stroke-width="0.9" opacity="0.20" />
  <line x1="465.4" y1="259.4" x2="519.6" y2="262.3" stroke="#bcc3cd" stroke-width="0.9" opacity="0.17" />
  <line x1="465.4" y1="259.4" x2="528.7" y2="270.4" stroke="#bcc3cd" stroke-width="0.9" opacity="0.17" />
  <line x1="465.4" y1="259.4" x2="518.2" y2="253.7" stroke="#bcc3cd" stroke-width="1.1" opacity="0.33" />
  <line x1="465.4" y1="259.4" x2="495.6" y2="237.6" stroke="#bcc3cd" stroke-width="1.0" opacity="0.24" />
  <line x1="498.4" y1="310.3" x2="513.9" y2="280.6" stroke="#bcc3cd" stroke-width="1.0" opacity="0.25" />
  <line x1="498.4" y1="310.3" x2="533.4" y2="293.5" stroke="#bcc3cd" stroke-width="1.1" opacity="0.29" />
  <line x1="498.4" y1="310.3" x2="536.0" y2="279.9" stroke="#bcc3cd" stroke-width="0.9" opacity="0.17" />
  <line x1="569.1" y1="283.8" x2="513.9" y2="280.6" stroke="#bcc3cd" stroke-width="0.9" opacity="0.18" />
  <line x1="569.1" y1="283.8" x2="533.4" y2="293.5" stroke="#bcc3cd" stroke-width="0.9" opacity="0.18" />
  <line x1="569.1" y1="283.8" x2="519.6" y2="262.3" stroke="#bcc3cd" stroke-width="0.9" opacity="0.17" />
  <line x1="569.1" y1="283.8" x2="528.7" y2="270.4" stroke="#bcc3cd" stroke-width="1.3" opacity="0.42" />
  <line x1="569.1" y1="283.8" x2="518.2" y2="253.7" stroke="#bcc3cd" stroke-width="0.9" opacity="0.19" />
  <line x1="569.1" y1="283.8" x2="536.0" y2="279.9" stroke="#bcc3cd" stroke-width="0.9" opacity="0.21" />
  <line x1="541.9" y1="233.3" x2="513.2" y2="238.1" stroke="#bcc3cd" stroke-width="0.9" opacity="0.18" />
  <line x1="541.9" y1="233.3" x2="518.2" y2="253.7" stroke="#bcc3cd" stroke-width="1.1" opacity="0.30" />
  <line x1="541.9" y1="233.3" x2="495.6" y2="237.6" stroke="#bcc3cd" stroke-width="1.0" opacity="0.22" />
  <line x1="452.3" y1="264.7" x2="455.5" y2="250.7" stroke="#bcc3cd" stroke-width="1.1" opacity="0.28" />
  <line x1="452.3" y1="264.7" x2="448.1" y2="242.8" stroke="#bcc3cd" stroke-width="1.0" opacity="0.24" />
  <line x1="452.3" y1="264.7" x2="504.6" y2="269.3" stroke="#bcc3cd" stroke-width="0.9" opacity="0.19" />
  <line x1="452.3" y1="264.7" x2="498.1" y2="257.6" stroke="#bcc3cd" stroke-width="0.9" opacity="0.18" />
  <line x1="452.3" y1="264.7" x2="513.2" y2="238.1" stroke="#bcc3cd" stroke-width="0.9" opacity="0.17" />
  <line x1="452.3" y1="264.7" x2="518.2" y2="253.7" stroke="#bcc3cd" stroke-width="0.9" opacity="0.17" />
  <line x1="452.3" y1="264.7" x2="495.6" y2="237.6" stroke="#bcc3cd" stroke-width="0.9" opacity="0.20" />
  <line x1="455.5" y1="250.7" x2="448.1" y2="242.8" stroke="#bcc3cd" stroke-width="1.1" opacity="0.28" />
  <line x1="455.5" y1="250.7" x2="528.7" y2="242.6" stroke="#bcc3cd" stroke-width="0.9" opacity="0.17" />
  <line x1="455.5" y1="250.7" x2="513.2" y2="238.1" stroke="#bcc3cd" stroke-width="0.9" opacity="0.20" />
  <line x1="455.5" y1="250.7" x2="519.6" y2="262.3" stroke="#bcc3cd" stroke-width="0.9" opacity="0.17" />
  <line x1="455.5" y1="250.7" x2="518.2" y2="253.7" stroke="#bcc3cd" stroke-width="0.9" opacity="0.20" />
  <line x1="455.5" y1="250.7" x2="495.6" y2="237.6" stroke="#bcc3cd" stroke-width="1.0" opacity="0.24" />
  <line x1="448.1" y1="242.8" x2="513.2" y2="238.1" stroke="#bcc3cd" stroke-width="0.9" opacity="0.17" />
  <line x1="448.1" y1="242.8" x2="518.2" y2="253.7" stroke="#bcc3cd" stroke-width="0.9" opacity="0.17" />
  <line x1="448.1" y1="242.8" x2="495.6" y2="237.6" stroke="#bcc3cd" stroke-width="0.9" opacity="0.20" />
  <line x1="650.6" y1="208.9" x2="589.8" y2="229.4" stroke="#bcc3cd" stroke-width="1.3" opacity="0.44" />
  <line x1="650.6" y1="208.9" x2="617.6" y2="198.9" stroke="#bcc3cd" stroke-width="0.9" opacity="0.18" />
  <line x1="589.8" y1="229.4" x2="540.2" y2="215.5" stroke="#bcc3cd" stroke-width="1.1" opacity="0.31" />
  <line x1="589.8" y1="229.4" x2="528.7" y2="242.6" stroke="#bcc3cd" stroke-width="0.9" opacity="0.20" />
  <line x1="589.8" y1="229.4" x2="513.2" y2="238.1" stroke="#bcc3cd" stroke-width="1.0" opacity="0.24" />
  <line x1="589.8" y1="229.4" x2="519.6" y2="262.3" stroke="#bcc3cd" stroke-width="0.9" opacity="0.20" />
  <line x1="589.8" y1="229.4" x2="518.2" y2="253.7" stroke="#bcc3cd" stroke-width="1.0" opacity="0.24" />
  <line x1="589.8" y1="229.4" x2="552.0" y2="249.1" stroke="#bcc3cd" stroke-width="0.9" opacity="0.18" />
  <line x1="589.8" y1="229.4" x2="749.5" y2="239.2" stroke="#bcc3cd" stroke-width="0.9" opacity="0.17" />
  <line x1="589.8" y1="229.4" x2="555.4" y2="216.6" stroke="#bcc3cd" stroke-width="1.1" opacity="0.31" />
  <line x1="589.8" y1="229.4" x2="617.6" y2="198.9" stroke="#bcc3cd" stroke-width="1.1" opacity="0.30" />
  <line x1="589.8" y1="229.4" x2="495.6" y2="237.6" stroke="#bcc3cd" stroke-width="1.1" opacity="0.31" />
  <line x1="271.5" y1="496.7" x2="297.0" y2="500.0" stroke="#bcc3cd" stroke-width="1.6" opacity="0.60" />
  <line x1="650.9" y1="336.2" x2="533.4" y2="293.5" stroke="#bcc3cd" stroke-width="0.9" opacity="0.18" />
  <line x1="650.9" y1="336.2" x2="729.6" y2="349.2" stroke="#bcc3cd" stroke-width="1.1" opacity="0.28" />
  <line x1="556.4" y1="267.2" x2="513.9" y2="280.6" stroke="#bcc3cd" stroke-width="0.9" opacity="0.17" />
  <line x1="556.4" y1="267.2" x2="533.4" y2="293.5" stroke="#bcc3cd" stroke-width="0.9" opacity="0.18" />
  <line x1="556.4" y1="267.2" x2="504.6" y2="269.3" stroke="#bcc3cd" stroke-width="1.0" opacity="0.22" />
  <line x1="556.4" y1="267.2" x2="519.6" y2="262.3" stroke="#bcc3cd" stroke-width="1.1" opacity="0.28" />
  <line x1="556.4" y1="267.2" x2="528.7" y2="270.4" stroke="#bcc3cd" stroke-width="1.1" opacity="0.32" />
  <line x1="556.4" y1="267.2" x2="518.2" y2="253.7" stroke="#bcc3cd" stroke-width="0.9" opacity="0.20" />
  <line x1="556.4" y1="267.2" x2="536.0" y2="279.9" stroke="#bcc3cd" stroke-width="1.0" opacity="0.22" />
  <line x1="556.4" y1="267.2" x2="511.4" y2="228.5" stroke="#bcc3cd" stroke-width="1.0" opacity="0.22" />
  <line x1="513.9" y1="280.6" x2="533.4" y2="293.5" stroke="#bcc3cd" stroke-width="1.3" opacity="0.42" />
  <line x1="513.9" y1="280.6" x2="556.4" y2="294.0" stroke="#bcc3cd" stroke-width="0.9" opacity="0.18" />
  <line x1="513.9" y1="280.6" x2="495.6" y2="286.2" stroke="#bcc3cd" stroke-width="1.1" opacity="0.31" />
  <line x1="513.9" y1="280.6" x2="504.6" y2="269.3" stroke="#bcc3cd" stroke-width="1.1" opacity="0.32" />
  <line x1="513.9" y1="280.6" x2="498.1" y2="257.6" stroke="#bcc3cd" stroke-width="1.0" opacity="0.23" />
  <line x1="513.9" y1="280.6" x2="519.6" y2="262.3" stroke="#bcc3cd" stroke-width="1.2" opacity="0.39" />
  <line x1="513.9" y1="280.6" x2="528.7" y2="270.4" stroke="#bcc3cd" stroke-width="1.0" opacity="0.26" />
  <line x1="513.9" y1="280.6" x2="518.2" y2="253.7" stroke="#bcc3cd" stroke-width="1.2" opacity="0.34" />
  <line x1="513.9" y1="280.6" x2="552.0" y2="249.1" stroke="#bcc3cd" stroke-width="0.9" opacity="0.19" />
  <line x1="513.9" y1="280.6" x2="536.0" y2="279.9" stroke="#bcc3cd" stroke-width="1.0" opacity="0.25" />
  <line x1="513.9" y1="280.6" x2="495.6" y2="237.6" stroke="#bcc3cd" stroke-width="0.9" opacity="0.17" />
  <line x1="533.4" y1="293.5" x2="556.4" y2="294.0" stroke="#bcc3cd" stroke-width="1.1" opacity="0.33" />
  <line x1="533.4" y1="293.5" x2="495.6" y2="286.2" stroke="#bcc3cd" stroke-width="0.9" opacity="0.21" />
  <line x1="533.4" y1="293.5" x2="504.6" y2="269.3" stroke="#bcc3cd" stroke-width="0.9" opacity="0.18" />
  <line x1="533.4" y1="293.5" x2="519.6" y2="262.3" stroke="#bcc3cd" stroke-width="1.3" opacity="0.41" />
  <line x1="533.4" y1="293.5" x2="528.7" y2="270.4" stroke="#bcc3cd" stroke-width="1.0" opacity="0.22" />
  <line x1="533.4" y1="293.5" x2="518.2" y2="253.7" stroke="#bcc3cd" stroke-width="1.1" opacity="0.31" />
  <line x1="533.4" y1="293.5" x2="536.0" y2="279.9" stroke="#bcc3cd" stroke-width="1.7" opacity="0.66" />
  <line x1="525.9" y1="222.0" x2="540.2" y2="215.5" stroke="#bcc3cd" stroke-width="1.5" opacity="0.55" />
  <line x1="525.9" y1="222.0" x2="528.7" y2="242.6" stroke="#bcc3cd" stroke-width="0.9" opacity="0.18" />
  <line x1="525.9" y1="222.0" x2="513.2" y2="238.1" stroke="#bcc3cd" stroke-width="1.1" opacity="0.28" />
  <line x1="525.9" y1="222.0" x2="519.6" y2="262.3" stroke="#bcc3cd" stroke-width="0.9" opacity="0.18" />
  <line x1="525.9" y1="222.0" x2="518.2" y2="253.7" stroke="#bcc3cd" stroke-width="1.1" opacity="0.28" />
  <line x1="525.9" y1="222.0" x2="517.8" y2="210.6" stroke="#bcc3cd" stroke-width="1.5" opacity="0.55" />
  <line x1="525.9" y1="222.0" x2="511.4" y2="228.5" stroke="#bcc3cd" stroke-width="1.2" opacity="0.37" />
  <line x1="525.9" y1="222.0" x2="555.4" y2="216.6" stroke="#bcc3cd" stroke-width="1.5" opacity="0.55" />
  <line x1="525.9" y1="222.0" x2="495.6" y2="237.6" stroke="#bcc3cd" stroke-width="1.5" opacity="0.55" />
  <line x1="540.2" y1="215.5" x2="513.2" y2="238.1" stroke="#bcc3cd" stroke-width="1.0" opacity="0.22" />
  <line x1="540.2" y1="215.5" x2="518.2" y2="253.7" stroke="#bcc3cd" stroke-width="1.0" opacity="0.22" />
  <line x1="540.2" y1="215.5" x2="517.8" y2="210.6" stroke="#bcc3cd" stroke-width="1.2" opacity="0.37" />
  <line x1="540.2" y1="215.5" x2="511.4" y2="228.5" stroke="#bcc3cd" stroke-width="1.1" opacity="0.28" />
  <line x1="540.2" y1="215.5" x2="555.4" y2="216.6" stroke="#bcc3cd" stroke-width="1.2" opacity="0.37" />
  <line x1="540.2" y1="215.5" x2="495.6" y2="237.6" stroke="#bcc3cd" stroke-width="1.2" opacity="0.37" />
  <line x1="556.4" y1="294.0" x2="519.6" y2="262.3" stroke="#bcc3cd" stroke-width="0.9" opacity="0.18" />
  <line x1="556.4" y1="294.0" x2="528.7" y2="270.4" stroke="#bcc3cd" stroke-width="0.9" opacity="0.18" />
  <line x1="556.4" y1="294.0" x2="518.2" y2="253.7" stroke="#bcc3cd" stroke-width="1.0" opacity="0.22" />
  <line x1="556.4" y1="294.0" x2="536.0" y2="279.9" stroke="#bcc3cd" stroke-width="1.3" opacity="0.41" />
  <line x1="495.6" y1="286.2" x2="504.6" y2="269.3" stroke="#bcc3cd" stroke-width="1.1" opacity="0.31" />
  <line x1="495.6" y1="286.2" x2="519.6" y2="262.3" stroke="#bcc3cd" stroke-width="1.4" opacity="0.47" />
  <line x1="495.6" y1="286.2" x2="528.7" y2="270.4" stroke="#bcc3cd" stroke-width="0.9" opacity="0.19" />
  <line x1="495.6" y1="286.2" x2="518.2" y2="253.7" stroke="#bcc3cd" stroke-width="1.0" opacity="0.22" />
  <line x1="504.6" y1="269.3" x2="498.1" y2="257.6" stroke="#bcc3cd" stroke-width="1.1" opacity="0.29" />
  <line x1="504.6" y1="269.3" x2="528.7" y2="242.6" stroke="#bcc3cd" stroke-width="0.9" opacity="0.17" />
  <line x1="504.6" y1="269.3" x2="513.2" y2="238.1" stroke="#bcc3cd" stroke-width="0.9" opacity="0.20" />
  <line x1="504.6" y1="269.3" x2="519.6" y2="262.3" stroke="#bcc3cd" stroke-width="1.3" opacity="0.40" />
  <line x1="504.6" y1="269.3" x2="528.7" y2="270.4" stroke="#bcc3cd" stroke-width="1.0" opacity="0.24" />
  <line x1="504.6" y1="269.3" x2="518.2" y2="253.7" stroke="#bcc3cd" stroke-width="0.9" opacity="0.20" />
  <line x1="504.6" y1="269.3" x2="495.6" y2="237.6" stroke="#bcc3cd" stroke-width="1.0" opacity="0.24" />
  <line x1="498.1" y1="257.6" x2="513.2" y2="238.1" stroke="#bcc3cd" stroke-width="0.9" opacity="0.18" />
  <line x1="498.1" y1="257.6" x2="528.7" y2="270.4" stroke="#bcc3cd" stroke-width="1.0" opacity="0.23" />
  <line x1="498.1" y1="257.6" x2="518.2" y2="253.7" stroke="#bcc3cd" stroke-width="0.9" opacity="0.18" />
  <line x1="498.1" y1="257.6" x2="552.0" y2="249.1" stroke="#bcc3cd" stroke-width="1.0" opacity="0.24" />
  <line x1="498.1" y1="257.6" x2="495.6" y2="237.6" stroke="#bcc3cd" stroke-width="1.0" opacity="0.22" />
  <line x1="528.7" y1="242.6" x2="513.2" y2="238.1" stroke="#bcc3cd" stroke-width="1.1" opacity="0.28" />
  <line x1="528.7" y1="242.6" x2="519.6" y2="262.3" stroke="#bcc3cd" stroke-width="1.0" opacity="0.22" />
  <line x1="528.7" y1="242.6" x2="518.2" y2="253.7" stroke="#bcc3cd" stroke-width="1.1" opacity="0.28" />
  <line x1="528.7" y1="242.6" x2="552.0" y2="249.1" stroke="#bcc3cd" stroke-width="0.9" opacity="0.20" />
  <line x1="528.7" y1="242.6" x2="495.6" y2="237.6" stroke="#bcc3cd" stroke-width="1.2" opacity="0.37" />
  <line x1="513.2" y1="238.1" x2="519.6" y2="262.3" stroke="#bcc3cd" stroke-width="1.1" opacity="0.28" />
  <line x1="513.2" y1="238.1" x2="518.2" y2="253.7" stroke="#bcc3cd" stroke-width="1.2" opacity="0.37" />
  <line x1="513.2" y1="238.1" x2="517.8" y2="210.6" stroke="#bcc3cd" stroke-width="1.0" opacity="0.22" />
  <line x1="513.2" y1="238.1" x2="552.0" y2="249.1" stroke="#bcc3cd" stroke-width="1.0" opacity="0.24" />
  <line x1="513.2" y1="238.1" x2="511.4" y2="228.5" stroke="#bcc3cd" stroke-width="0.9" opacity="0.18" />
  <line x1="513.2" y1="238.1" x2="555.4" y2="216.6" stroke="#bcc3cd" stroke-width="1.0" opacity="0.22" />
  <line x1="513.2" y1="238.1" x2="495.6" y2="237.6" stroke="#bcc3cd" stroke-width="1.5" opacity="0.55" />
  <line x1="519.6" y1="262.3" x2="528.7" y2="270.4" stroke="#bcc3cd" stroke-width="1.1" opacity="0.29" />
  <line x1="519.6" y1="262.3" x2="518.2" y2="253.7" stroke="#bcc3cd" stroke-width="1.4" opacity="0.47" />
  <line x1="519.6" y1="262.3" x2="552.0" y2="249.1" stroke="#bcc3cd" stroke-width="0.9" opacity="0.20" />
  <line x1="519.6" y1="262.3" x2="536.0" y2="279.9" stroke="#bcc3cd" stroke-width="1.1" opacity="0.31" />
  <line x1="519.6" y1="262.3" x2="511.4" y2="228.5" stroke="#bcc3cd" stroke-width="1.1" opacity="0.31" />
  <line x1="519.6" y1="262.3" x2="495.6" y2="237.6" stroke="#bcc3cd" stroke-width="1.2" opacity="0.37" />
  <line x1="528.7" y1="270.4" x2="518.2" y2="253.7" stroke="#bcc3cd" stroke-width="1.2" opacity="0.34" />
  <line x1="528.7" y1="270.4" x2="536.0" y2="279.9" stroke="#bcc3cd" stroke-width="1.0" opacity="0.25" />
  <line x1="528.7" y1="270.4" x2="511.4" y2="228.5" stroke="#bcc3cd" stroke-width="1.0" opacity="0.25" />
  <line x1="528.7" y1="270.4" x2="495.6" y2="237.6" stroke="#bcc3cd" stroke-width="0.9" opacity="0.17" />
  <line x1="518.2" y1="253.7" x2="517.8" y2="210.6" stroke="#bcc3cd" stroke-width="1.0" opacity="0.22" />
  <line x1="518.2" y1="253.7" x2="552.0" y2="249.1" stroke="#bcc3cd" stroke-width="1.0" opacity="0.24" />
  <line x1="518.2" y1="253.7" x2="536.0" y2="279.9" stroke="#bcc3cd" stroke-width="1.3" opacity="0.44" />
  <line x1="518.2" y1="253.7" x2="511.4" y2="228.5" stroke="#bcc3cd" stroke-width="1.3" opacity="0.44" />
  <line x1="518.2" y1="253.7" x2="555.4" y2="216.6" stroke="#bcc3cd" stroke-width="1.0" opacity="0.22" />
  <line x1="518.2" y1="253.7" x2="495.6" y2="237.6" stroke="#bcc3cd" stroke-width="1.5" opacity="0.55" />
  <line x1="741.2" y1="50.0" x2="766.6" y2="65.8" stroke="#bcc3cd" stroke-width="1.0" opacity="0.22" />
  <line x1="437.0" y1="183.6" x2="495.6" y2="237.6" stroke="#bcc3cd" stroke-width="1.0" opacity="0.22" />
  <line x1="517.8" y1="210.6" x2="511.4" y2="228.5" stroke="#bcc3cd" stroke-width="1.1" opacity="0.28" />
  <line x1="517.8" y1="210.6" x2="555.4" y2="216.6" stroke="#bcc3cd" stroke-width="1.2" opacity="0.37" />
  <line x1="517.8" y1="210.6" x2="495.6" y2="237.6" stroke="#bcc3cd" stroke-width="1.2" opacity="0.37" />
  <line x1="812.6" y1="240.9" x2="816.0" y2="257.2" stroke="#bcc3cd" stroke-width="1.5" opacity="0.55" />
  <line x1="812.6" y1="240.9" x2="749.5" y2="239.2" stroke="#bcc3cd" stroke-width="1.3" opacity="0.41" />
  <line x1="816.0" y1="257.2" x2="749.5" y2="239.2" stroke="#bcc3cd" stroke-width="1.0" opacity="0.24" />
  <line x1="552.0" y1="249.1" x2="495.6" y2="237.6" stroke="#bcc3cd" stroke-width="1.1" opacity="0.31" />
  <line x1="536.0" y1="279.9" x2="511.4" y2="228.5" stroke="#bcc3cd" stroke-width="1.0" opacity="0.22" />
  <line x1="511.4" y1="228.5" x2="454.2" y2="199.5" stroke="#bcc3cd" stroke-width="1.2" opacity="0.37" />
  <line x1="511.4" y1="228.5" x2="477.0" y2="172.5" stroke="#bcc3cd" stroke-width="0.9" opacity="0.18" />
  <line x1="511.4" y1="228.5" x2="555.4" y2="216.6" stroke="#bcc3cd" stroke-width="1.1" opacity="0.28" />
  <line x1="511.4" y1="228.5" x2="495.6" y2="237.6" stroke="#bcc3cd" stroke-width="1.1" opacity="0.28" />
  <line x1="454.2" y1="199.5" x2="477.0" y2="172.5" stroke="#bcc3cd" stroke-width="1.1" opacity="0.28" />
  <line x1="555.4" y1="216.6" x2="617.6" y2="198.9" stroke="#bcc3cd" stroke-width="1.1" opacity="0.31" />
  <line x1="555.4" y1="216.6" x2="495.6" y2="237.6" stroke="#bcc3cd" stroke-width="1.2" opacity="0.37" />
  <circle cx="443.3" cy="260.7" r="15.8" fill="#7f8c8d" opacity="0.88" />
  <circle cx="461.0" cy="299.8" r="16" fill="#3498db" opacity="0.88" />
  <circle cx="336.2" cy="272.6" r="12.2" fill="#7f8c8d" opacity="0.88" />
  <circle cx="332.9" cy="238.2" r="11.3" fill="#3498db" opacity="0.88" />
  <circle cx="390.0" cy="254.1" r="8.6" fill="#3498db" opacity="0.88" />
  <circle cx="413.7" cy="241.6" r="8.6" fill="#2ecc71" opacity="0.88" />
  <circle cx="410.6" cy="262.7" r="14.9" fill="#7f8c8d" opacity="0.88" />
  <circle cx="379.7" cy="275.4" r="16" fill="#7f8c8d" opacity="0.88" />
  <circle cx="322.0" cy="258.7" r="9.5" fill="#7f8c8d" opacity="0.88" />
  <circle cx="415.6" cy="277.9" r="14.9" fill="#3498db" opacity="0.88" />
  <circle cx="472.7" cy="276.0" r="16" fill="#7f8c8d" opacity="0.88" />
  <circle cx="465.4" cy="259.4" r="12.2" fill="#e67e22" opacity="0.88" />
  <circle cx="498.4" cy="310.3" r="16" fill="#e74c3c" opacity="0.88" />
  <circle cx="569.1" cy="283.8" r="16" fill="#9b59b6" opacity="0.88" />
  <circle cx="541.9" cy="233.3" r="13.1" fill="#e67e22" opacity="0.88" />
  <circle cx="452.3" cy="264.7" r="14.0" fill="#3498db" opacity="0.88" />
  <circle cx="455.5" cy="250.7" r="12.2" fill="#3498db" opacity="0.88" />
  <circle cx="448.1" cy="242.8" r="14.0" fill="#3498db" opacity="0.88" />
  <circle cx="650.6" cy="208.9" r="10.4" fill="#e74c3c" opacity="0.88" />
  <circle cx="910.0" cy="135.5" r="12.2" fill="#3498db" opacity="0.88" />
  <circle cx="589.8" cy="229.4" r="10.4" fill="#e74c3c" opacity="0.88" />
  <circle cx="271.5" cy="496.7" r="12.2" fill="#3498db" opacity="0.88" />
  <circle cx="297.0" cy="500.0" r="11.3" fill="#3498db" opacity="0.88" />
  <circle cx="650.9" cy="336.2" r="5.9" fill="#3498db" opacity="0.88" />
  <circle cx="556.4" cy="267.2" r="12.2" fill="#9b59b6" opacity="0.88" />
  <circle cx="513.9" cy="280.6" r="15.8" fill="#9b59b6" opacity="0.88" />
  <circle cx="533.4" cy="293.5" r="8.6" fill="#9b59b6" opacity="0.88" />
  <circle cx="525.9" cy="222.0" r="5" fill="#2ecc71" opacity="0.88" />
  <circle cx="540.2" cy="215.5" r="5.9" fill="#7f8c8d" opacity="0.88" />
  <circle cx="556.4" cy="294.0" r="11.3" fill="#e67e22" opacity="0.88" />
  <circle cx="495.6" cy="286.2" r="16" fill="#2ecc71" opacity="0.88" />
  <circle cx="729.6" cy="349.2" r="6.8" fill="#9b59b6" opacity="0.88" />
  <circle cx="50.0" cy="273.2" r="5" fill="#7f8c8d" opacity="0.88" />
  <circle cx="504.6" cy="269.3" r="12.2" fill="#3498db" opacity="0.88" />
  <circle cx="498.1" cy="257.6" r="13.1" fill="#7f8c8d" opacity="0.88" />
  <circle cx="528.7" cy="242.6" r="9.5" fill="#7f8c8d" opacity="0.88" />
  <circle cx="58.6" cy="350.1" r="5" fill="#7f8c8d" opacity="0.88" />
  <circle cx="513.2" cy="238.1" r="7.7" fill="#7f8c8d" opacity="0.88" />
  <circle cx="519.6" cy="262.3" r="9.5" fill="#7f8c8d" opacity="0.88" />
  <circle cx="528.7" cy="270.4" r="15.8" fill="#2ecc71" opacity="0.88" />
  <circle cx="518.2" cy="253.7" r="7.7" fill="#7f8c8d" opacity="0.88" />
  <circle cx="741.2" cy="50.0" r="7.7" fill="#7f8c8d" opacity="0.88" />
  <circle cx="437.0" cy="183.6" r="7.7" fill="#3498db" opacity="0.88" />
  <circle cx="517.8" cy="210.6" r="5.9" fill="#7f8c8d" opacity="0.88" />
  <circle cx="812.6" cy="240.9" r="6.8" fill="#e67e22" opacity="0.88" />
  <circle cx="816.0" cy="257.2" r="6.8" fill="#e67e22" opacity="0.88" />
  <circle cx="552.0" cy="249.1" r="10.4" fill="#7f8c8d" opacity="0.88" />
  <circle cx="749.5" cy="239.2" r="11.3" fill="#e67e22" opacity="0.88" />
  <circle cx="766.6" cy="65.8" r="5.9" fill="#7f8c8d" opacity="0.88" />
  <circle cx="536.0" cy="279.9" r="6.8" fill="#7f8c8d" opacity="0.88" />
  <circle cx="511.4" cy="228.5" r="6.8" fill="#7f8c8d" opacity="0.88" />
  <circle cx="454.2" cy="199.5" r="5" fill="#2ecc71" opacity="0.88" />
  <circle cx="477.0" cy="172.5" r="7.7" fill="#2ecc71" opacity="0.88" />
  <circle cx="555.4" cy="216.6" r="5.9" fill="#e74c3c" opacity="0.88" />
  <circle cx="617.6" cy="198.9" r="10.4" fill="#e74c3c" opacity="0.88" />
  <circle cx="495.6" cy="237.6" r="5.9" fill="#7f8c8d" opacity="0.88" />
  <circle cx="793.8" cy="483.1" r="5" fill="#7f8c8d" opacity="0.88" />
  <rect x="461.1" y="103.9" width="124.4" height="15" fill="#ffffff" opacity="0.75" rx="2" />
  <text x="462.1" y="114.9" font-family="system-ui, -apple-system, sans-serif" font-size="12" fill="#1f2328" text-anchor="start">tinyland-huskycat</text>
  <rect x="479.0" y="411.8" width="117.2" height="15" fill="#ffffff" opacity="0.75" rx="2" />
  <text x="480.0" y="422.8" font-family="system-ui, -apple-system, sans-serif" font-size="12" fill="#1f2328" text-anchor="start">GloriousFlywheel</text>
  <rect x="350.4" y="294.6" width="131.6" height="15" fill="#ffffff" opacity="0.75" rx="2" />
  <text x="351.4" y="305.6" font-family="system-ui, -apple-system, sans-serif" font-size="12" fill="#1f2328" text-anchor="start">aperture-bootstrap</text>
  <rect x="346.2" y="235.1" width="117.2" height="15" fill="#ffffff" opacity="0.75" rx="2" />
  <text x="347.2" y="246.1" font-family="system-ui, -apple-system, sans-serif" font-size="12" fill="#1f2328" text-anchor="start">tinyland-cleanup</text>
  <rect x="400.6" y="249.8" width="16.4" height="15" fill="#ffffff" opacity="0.75" rx="2" />
  <text x="401.6" y="260.8" font-family="system-ui, -apple-system, sans-serif" font-size="12" fill="#1f2328" text-anchor="start">pp</text>
  <rect x="424.3" y="212.3" width="59.6" height="15" fill="#ffffff" opacity="0.75" rx="2" />
  <text x="425.3" y="223.3" font-family="system-ui, -apple-system, sans-serif" font-size="12" fill="#1f2328" text-anchor="start">gnucashr</text>
  <rect x="427.5" y="258.0" width="81.2" height="15" fill="#ffffff" opacity="0.75" rx="2" />
  <text x="428.5" y="269.0" font-family="system-ui, -apple-system, sans-serif" font-size="12" fill="#1f2328" text-anchor="start">tailnet-acl</text>
  <rect x="397.7" y="279.5" width="74.0" height="15" fill="#ffffff" opacity="0.75" rx="2" />
  <text x="398.7" y="290.5" font-family="system-ui, -apple-system, sans-serif" font-size="12" fill="#1f2328" text-anchor="start">tummycrypt</text>
  <rect x="333.5" y="264.5" width="88.4" height="15" fill="#ffffff" opacity="0.75" rx="2" />
  <text x="334.5" y="275.5" font-family="system-ui, -apple-system, sans-serif" font-size="12" fill="#1f2328" text-anchor="start">waifu-mirror</text>
  <rect x="432.5" y="175.6" width="102.8" height="15" fill="#ffffff" opacity="0.75" rx="2" />
  <text x="433.5" y="186.6" font-family="system-ui, -apple-system, sans-serif" font-size="12" fill="#1f2328" text-anchor="start">tinyland-infra</text>
  <rect x="490.7" y="304.2" width="52.4" height="15" fill="#ffffff" opacity="0.75" rx="2" />
  <text x="491.7" y="315.2" font-family="system-ui, -apple-system, sans-serif" font-size="12" fill="#1f2328" text-anchor="start">LA-Mesh</text>
  <rect x="479.6" y="273.5" width="45.2" height="15" fill="#ffffff" opacity="0.75" rx="2" />
  <text x="480.6" y="284.5" font-family="system-ui, -apple-system, sans-serif" font-size="12" fill="#1f2328" text-anchor="start">XoxdWM</text>
  <rect x="516.4" y="396.7" width="131.6" height="15" fill="#ffffff" opacity="0.75" rx="2" />
  <text x="517.4" y="407.7" font-family="system-ui, -apple-system, sans-serif" font-size="12" fill="#1f2328" text-anchor="start">pixelwise-research</text>
  <rect x="587.1" y="332.0" width="95.6" height="15" fill="#ffffff" opacity="0.75" rx="2" />
  <text x="588.1" y="343.0" font-family="system-ui, -apple-system, sans-serif" font-size="12" fill="#1f2328" text-anchor="start">GIS_Shortcuts</text>
  <rect x="557.0" y="293.2" width="110.0" height="15" fill="#ffffff" opacity="0.75" rx="2" />
  <text x="558.0" y="304.2" font-family="system-ui, -apple-system, sans-serif" font-size="12" fill="#1f2328" text-anchor="start">hiberpower-ntfs</text>
  <rect x="468.3" y="182.4" width="138.8" height="15" fill="#ffffff" opacity="0.75" rx="2" />
  <text x="469.3" y="193.4" font-family="system-ui, -apple-system, sans-serif" font-size="12" fill="#1f2328" text-anchor="start">Ansible-DAG-Harness</text>
  <rect x="469.7" y="333.2" width="66.8" height="15" fill="#ffffff" opacity="0.75" rx="2" />
  <text x="470.7" y="344.2" font-family="system-ui, -apple-system, sans-serif" font-size="12" fill="#1f2328" text-anchor="start">betterkvm</text>
  <rect x="464.1" y="227.8" width="95.6" height="15" fill="#ffffff" opacity="0.75" rx="2" />
  <text x="465.1" y="238.8" font-family="system-ui, -apple-system, sans-serif" font-size="12" fill="#1f2328" text-anchor="start">DarwinNicUtil</text>
  <rect x="663.0" y="179.2" width="66.8" height="15" fill="#ffffff" opacity="0.75" rx="2" />
  <text x="664.0" y="190.2" font-family="system-ui, -apple-system, sans-serif" font-size="12" fill="#1f2328" text-anchor="start">quickchpl</text>
  <rect x="764.2" y="128.7" width="131.6" height="15" fill="#ffffff" opacity="0.75" rx="2" />
  <text x="894.8" y="139.7" font-family="system-ui, -apple-system, sans-serif" font-size="12" fill="#1f2328" text-anchor="end">tinyscale-mikrotik</text>
  <rect x="602.2" y="173.8" width="59.6" height="15" fill="#ffffff" opacity="0.75" rx="2" />
  <text x="603.2" y="184.8" font-family="system-ui, -apple-system, sans-serif" font-size="12" fill="#1f2328" text-anchor="start">aoc-2025</text>
  <rect x="285.7" y="483.0" width="66.8" height="15" fill="#ffffff" opacity="0.75" rx="2" />
  <text x="286.7" y="494.0" font-family="system-ui, -apple-system, sans-serif" font-size="12" fill="#1f2328" text-anchor="start">searchies</text>
  <rect x="310.3" y="500.0" width="59.6" height="15" fill="#ffffff" opacity="0.75" rx="2" />
  <text x="311.3" y="511.0" font-family="system-ui, -apple-system, sans-serif" font-size="12" fill="#1f2328" text-anchor="start">ts-caddy</text>
  <rect x="658.8" y="383.4" width="66.8" height="15" fill="#ffffff" opacity="0.75" rx="2" />
  <text x="659.8" y="394.4" font-family="system-ui, -apple-system, sans-serif" font-size="12" fill="#1f2328" text-anchor="start">HCI-notes</text>
  <rect x="570.6" y="227.7" width="88.4" height="15" fill="#ffffff" opacity="0.75" rx="2" />
  <text x="571.6" y="238.7" font-family="system-ui, -apple-system, sans-serif" font-size="12" fill="#1f2328" text-anchor="start">FastPhotoAPI</text>
  <rect x="531.7" y="289.3" width="81.2" height="15" fill="#ffffff" opacity="0.75" rx="2" />
  <text x="532.7" y="300.3" font-family="system-ui, -apple-system, sans-serif" font-size="12" fill="#1f2328" text-anchor="start">timberbuddy</text>
  <rect x="544.0" y="382.7" width="81.2" height="15" fill="#ffffff" opacity="0.75" rx="2" />
  <text x="545.0" y="393.7" font-family="system-ui, -apple-system, sans-serif" font-size="12" fill="#1f2328" text-anchor="start">tetrahedron</text>
  <rect x="532.9" y="134.7" width="95.6" height="15" fill="#ffffff" opacity="0.75" rx="2" />
  <text x="533.9" y="145.7" font-family="system-ui, -apple-system, sans-serif" font-size="12" fill="#1f2328" text-anchor="start">AccuWixReport</text>
  <rect x="548.1" y="304.1" width="95.6" height="15" fill="#ffffff" opacity="0.75" rx="2" />
  <text x="549.1" y="315.1" font-family="system-ui, -apple-system, sans-serif" font-size="12" fill="#1f2328" text-anchor="start">Jess-AOC-2023</text>
  <rect x="569.7" y="352.3" width="81.2" height="15" fill="#ffffff" opacity="0.75" rx="2" />
  <text x="570.7" y="363.3" font-family="system-ui, -apple-system, sans-serif" font-size="12" fill="#1f2328" text-anchor="start">TurkeyProbe</text>
  <rect x="513.6" y="220.7" width="153.2" height="15" fill="#ffffff" opacity="0.75" rx="2" />
  <text x="514.6" y="231.7" font-family="system-ui, -apple-system, sans-serif" font-size="12" fill="#1f2328" text-anchor="start">MerlinAI-Interpreters</text>
  <rect x="738.4" y="354.3" width="110.0" height="15" fill="#ffffff" opacity="0.75" rx="2" />
  <text x="739.4" y="365.3" font-family="system-ui, -apple-system, sans-serif" font-size="12" fill="#1f2328" text-anchor="start">IntroTypeScript</text>
  <rect x="57.0" y="266.4" width="110.0" height="15" fill="#ffffff" opacity="0.75" rx="2" />
  <text x="58.0" y="277.4" font-family="system-ui, -apple-system, sans-serif" font-size="12" fill="#1f2328" text-anchor="start">IG-3DP-Profiles</text>
  <rect x="518.8" y="252.1" width="66.8" height="15" fill="#ffffff" opacity="0.75" rx="2" />
  <text x="519.8" y="263.1" font-family="system-ui, -apple-system, sans-serif" font-size="12" fill="#1f2328" text-anchor="start">DLA-Flask</text>
  <rect x="513.2" y="240.0" width="38.0" height="15" fill="#ffffff" opacity="0.75" rx="2" />
  <text x="514.2" y="251.0" font-family="system-ui, -apple-system, sans-serif" font-size="12" fill="#1f2328" text-anchor="start">USBoN</text>
  <rect x="540.2" y="337.3" width="203.6" height="15" fill="#ffffff" opacity="0.75" rx="2" />
  <text x="541.2" y="348.3" font-family="system-ui, -apple-system, sans-serif" font-size="12" fill="#1f2328" text-anchor="start">chrome-remote-desktop-budgie</text>
  <rect x="65.6" y="343.3" width="124.4" height="15" fill="#ffffff" opacity="0.75" rx="2" />
  <text x="66.6" y="354.3" font-family="system-ui, -apple-system, sans-serif" font-size="12" fill="#1f2328" text-anchor="start">OminousBeepingApp</text>
  <rect x="522.9" y="161.1" width="138.8" height="15" fill="#ffffff" opacity="0.75" rx="2" />
  <text x="523.9" y="172.1" font-family="system-ui, -apple-system, sans-serif" font-size="12" fill="#1f2328" text-anchor="start">mo-image-identifier</text>
  <rect x="531.1" y="369.3" width="196.4" height="15" fill="#ffffff" opacity="0.75" rx="2" />
  <text x="532.1" y="380.3" font-family="system-ui, -apple-system, sans-serif" font-size="12" fill="#1f2328" text-anchor="start">squirrel-leaflet-annotation</text>
  <rect x="546.5" y="279.2" width="74.0" height="15" fill="#ffffff" opacity="0.75" rx="2" />
  <text x="547.5" y="290.2" font-family="system-ui, -apple-system, sans-serif" font-size="12" fill="#1f2328" text-anchor="start">Shiny-Apps</text>
  <rect x="527.9" y="192.2" width="138.8" height="15" fill="#ffffff" opacity="0.75" rx="2" />
  <text x="528.9" y="203.2" font-family="system-ui, -apple-system, sans-serif" font-size="12" fill="#1f2328" text-anchor="start">bbox-jest-puppeteer</text>
  <rect x="750.9" y="43.2" width="88.4" height="15" fill="#ffffff" opacity="0.75" rx="2" />
  <text x="751.9" y="54.2" font-family="system-ui, -apple-system, sans-serif" font-size="12" fill="#1f2328" text-anchor="start">DoverDisplay</text>
  <rect x="446.7" y="142.4" width="81.2" height="15" fill="#ffffff" opacity="0.75" rx="2" />
  <text x="447.7" y="153.4" font-family="system-ui, -apple-system, sans-serif" font-size="12" fill="#1f2328" text-anchor="start">LeafletSync</text>
  <rect x="525.7" y="321.1" width="167.6" height="15" fill="#ffffff" opacity="0.75" rx="2" />
  <text x="526.7" y="332.1" font-family="system-ui, -apple-system, sans-serif" font-size="12" fill="#1f2328" text-anchor="start">misc-roi-distance-notes</text>
  <rect x="665.0" y="233.0" width="138.8" height="15" fill="#ffffff" opacity="0.75" rx="2" />
  <text x="802.8" y="244.0" font-family="system-ui, -apple-system, sans-serif" font-size="12" fill="#1f2328" text-anchor="end">Arduino_Coil_Winder</text>
  <rect x="776.4" y="259.2" width="30.8" height="15" fill="#ffffff" opacity="0.75" rx="2" />
  <text x="806.2" y="270.2" font-family="system-ui, -apple-system, sans-serif" font-size="12" fill="#1f2328" text-anchor="end">momo</text>
  <rect x="564.4" y="242.4" width="38.0" height="15" fill="#ffffff" opacity="0.75" rx="2" />
  <text x="565.4" y="253.4" font-family="system-ui, -apple-system, sans-serif" font-size="12" fill="#1f2328" text-anchor="start">clipi</text>
  <rect x="762.8" y="216.0" width="110.0" height="15" fill="#ffffff" opacity="0.75" rx="2" />
  <text x="763.8" y="227.0" font-family="system-ui, -apple-system, sans-serif" font-size="12" fill="#1f2328" text-anchor="start">AeroTaz5_hotfix</text>
  <rect x="774.5" y="59.0" width="110.0" height="15" fill="#ffffff" opacity="0.75" rx="2" />
  <text x="775.5" y="70.0" font-family="system-ui, -apple-system, sans-serif" font-size="12" fill="#1f2328" text-anchor="start">Funmat-HT-Notes</text>
  <rect x="544.8" y="144.1" width="81.2" height="15" fill="#ffffff" opacity="0.75" rx="2" />
  <text x="545.8" y="155.1" font-family="system-ui, -apple-system, sans-serif" font-size="12" fill="#1f2328" text-anchor="start">static-site</text>
  <rect x="520.2" y="117.7" width="95.6" height="15" fill="#ffffff" opacity="0.75" rx="2" />
  <text x="521.2" y="128.7" font-family="system-ui, -apple-system, sans-serif" font-size="12" fill="#1f2328" text-anchor="start">Flask-Manager</text>
  <rect x="461.2" y="89.5" width="110.0" height="15" fill="#ffffff" opacity="0.75" rx="2" />
  <text x="462.2" y="100.5" font-family="system-ui, -apple-system, sans-serif" font-size="12" fill="#1f2328" text-anchor="start">FieldProcessing</text>
  <rect x="486.7" y="75.0" width="81.2" height="15" fill="#ffffff" opacity="0.75" rx="2" />
  <text x="487.7" y="86.0" font-family="system-ui, -apple-system, sans-serif" font-size="12" fill="#1f2328" text-anchor="start">rJDKmanager</text>
  <rect x="563.3" y="262.2" width="59.6" height="15" fill="#ffffff" opacity="0.75" rx="2" />
  <text x="564.3" y="273.2" font-family="system-ui, -apple-system, sans-serif" font-size="12" fill="#1f2328" text-anchor="start">tagnotes</text>
  <rect x="630.0" y="146.9" width="81.2" height="15" fill="#ffffff" opacity="0.75" rx="2" />
  <text x="631.0" y="157.9" font-family="system-ui, -apple-system, sans-serif" font-size="12" fill="#1f2328" text-anchor="start">ChapelTests</text>
  <rect x="503.5" y="209.2" width="88.4" height="15" fill="#ffffff" opacity="0.75" rx="2" />
  <text x="504.5" y="220.2" font-family="system-ui, -apple-system, sans-serif" font-size="12" fill="#1f2328" text-anchor="start">Xfinity-WiFi</text>
  <rect x="720.0" y="476.3" width="66.8" height="15" fill="#ffffff" opacity="0.75" rx="2" />
  <text x="785.8" y="487.3" font-family="system-ui, -apple-system, sans-serif" font-size="12" fill="#1f2328" text-anchor="end">home-wiki</text>
  <rect x="793" y="36" width="155" height="120" rx="6" fill="#f6f8fa" stroke="#d0d7de" stroke-width="1" opacity="0.95" />
  <circle cx="810" cy="52" r="5" fill="#e74c3c" opacity="0.88" />
  <text x="820" y="56" font-family="system-ui, -apple-system, sans-serif" font-size="10" fill="#1f2328">Languages &amp; Compilers</text>
  <circle cx="810" cy="69" r="5" fill="#3498db" opacity="0.88" />
  <text x="820" y="73" font-family="system-ui, -apple-system, sans-serif" font-size="10" fill="#1f2328">Infrastructure &amp; DevOps</text>
  <circle cx="810" cy="86" r="5" fill="#e67e22" opacity="0.88" />
  <text x="820" y="90" font-family="system-ui, -apple-system, sans-serif" font-size="10" fill="#1f2328">Hardware &amp; Maker</text>
  <circle cx="810" cy="103" r="5" fill="#2ecc71" opacity="0.88" />
  <text x="820" y="107" font-family="system-ui, -apple-system, sans-serif" font-size="10" fill="#1f2328">ML &amp; Data</text>
  <circle cx="810" cy="120" r="5" fill="#9b59b6" opacity="0.88" />
  <text x="820" y="124" font-family="system-ui, -apple-system, sans-serif" font-size="10" fill="#1f2328">Web &amp; Apps</text>
  <circle cx="810" cy="137" r="5" fill="#7f8c8d" opacity="0.88" />
  <text x="820" y="141" font-family="system-ui, -apple-system, sans-serif" font-size="10" fill="#1f2328">Other</text>
  <text x="870" y="150" font-family="system-ui, -apple-system, sans-serif" font-size="8" fill="#656d76" text-anchor="middle">57 repos · 226 edges</text>
</svg>