<svg xmlns="http://www.w3.org/2000/svg" width="960" height="600" viewBox="0 0 960 600">
  <rect width="960" height="600" fill="#ffffff" rx="8" />
  <text x="480" y="24" font-family="system-ui, -apple-system, sans-serif" font-size="13" fill="#656d76" text-anchor="middle" font-weight="500">Repo Relationship Graph &#x2014; Pairwise Topic &amp; Language Similarity</text>
  <line x1="50" y1="550" x2="910" y2="550" stroke="#d0d7de" stroke-width="0.5" opacity="0.5" />
  <text x="50" y="570" font-family="system-ui, -apple-system, sans-serif" font-size="9" fill="#656d76" opacity="0.6">Updated daily by GitHub Actions</text>
  <text x="50" y="588" font-family="system-ui, -apple-system, sans-serif" font-size="9" fill="#656d76" opacity="0.6">networkx spring_layout · Jaccard similarity &gt; 0.15</text>
  <text x="910" y="570" font-family="system-ui, -apple-system, sans-serif" font-size="9" fill="#656d76" text-anchor="end" opacity="0.6">55 repos · 218 edges</text>
  <line x1="298.0" y1="299.2" x2="328.3" y2="287.7" stroke="#bcc3cd" stroke-width="1.0" opacity="0.22" />
  <line x1="298.0" y1="299.2" x2="236.5" y2="296.6" stroke="#bcc3cd" stroke-width="1.1" opacity="0.33" />
  <line x1="298.0" y1="299.2" x2="335.6" y2="271.8" stroke="#bcc3cd" stroke-width="0.9" opacity="0.21" />
  <line x1="298.0" y1="299.2" x2="419.7" y2="286.9" stroke="#bcc3cd" stroke-width="1.0" opacity="0.25" />
  <line x1="298.0" y1="299.2" x2="415.7" y2="298.7" stroke="#bcc3cd" stroke-width="1.0" opacity="0.22" />
  <line x1="298.0" y1="299.2" x2="376.5" y2="275.7" stroke="#bcc3cd" stroke-width="1.0" opacity="0.22" />
  <line x1="298.0" y1="299.2" x2="389.2" y2="346.7" stroke="#bcc3cd" stroke-width="0.9" opacity="0.18" />
  <line x1="298.0" y1="299.2" x2="110.8" y2="280.0" stroke="#bcc3cd" stroke-width="0.9" opacity="0.17" />
  <line x1="328.3" y1="287.7" x2="252.3" y2="277.8" stroke="#bcc3cd" stroke-width="1.1" opacity="0.33" />
  <line x1="328.3" y1="287.7" x2="394.5" y2="283.7" stroke="#bcc3cd" stroke-width="1.0" opacity="0.22" />
  <line x1="328.3" y1="287.7" x2="236.5" y2="296.6" stroke="#bcc3cd" stroke-width="1.3" opacity="0.41" />
  <line x1="328.3" y1="287.7" x2="335.6" y2="271.8" stroke="#bcc3cd" stroke-width="1.0" opacity="0.24" />
  <line x1="328.3" y1="287.7" x2="418.1" y2="268.9" stroke="#bcc3cd" stroke-width="0.9" opacity="0.19" />
  <line x1="328.3" y1="287.7" x2="419.7" y2="286.9" stroke="#bcc3cd" stroke-width="0.9" opacity="0.18" />
  <line x1="328.3" y1="287.7" x2="399.7" y2="294.2" stroke="#bcc3cd" stroke-width="0.9" opacity="0.18" />
  <line x1="328.3" y1="287.7" x2="376.5" y2="275.7" stroke="#bcc3cd" stroke-width="1.4" opacity="0.47" />
  <line x1="328.3" y1="287.7" x2="480.9" y2="301.3" stroke="#bcc3cd" stroke-width="0.9" opacity="0.18" />
  <line x1="252.3" y1="277.8" x2="236.5" y2="296.6" stroke="#bcc3cd" stroke-width="0.9" opacity="0.18" />
  <line x1="252.3" y1="277.8" x2="376.5" y2="275.7" stroke="#bcc3cd" stroke-width="0.9" opacity="0.20" />
  <line x1="394.5" y1="283.7" x2="335.6" y2="271.8" stroke="#bcc3cd" stroke-width="0.9" opacity="0.21" />
  <line x1="394.5" y1="283.7" x2="418.1" y2="268.9" stroke="#bcc3cd" stroke-width="1.1" opacity="0.30" />
  <line x1="394.5" y1="283.7" x2="419.7" y2="286.9" stroke="#bcc3cd" stroke-width="1.0" opacity="0.24" />
  <line x1="394.5" y1="283.7" x2="415.7" y2="298.7" stroke="#bcc3cd" stroke-width="1.0" opacity="0.22" />
  <line x1="394.5" y1="283.7" x2="399.7" y2="294.2" stroke="#bcc3cd" stroke-width="1.0" opacity="0.24" />
  <line x1="394.5" y1="283.7" x2="406.0" y2="306.8" stroke="#bcc3cd" stroke-width="1.0" opacity="0.22" />
  <line x1="394.5" y1="283.7" x2="376.5" y2="275.7" stroke="#bcc3cd" stroke-width="1.0" opacity="0.22" />
  <line x1="394.5" y1="283.7" x2="440.9" y2="261.0" stroke="#bcc3cd" stroke-width="0.9" opacity="0.19" />
  <line x1="394.5" y1="283.7" x2="479.9" y2="279.1" stroke="#bcc3cd" stroke-width="0.9" opacity="0.21" />
  <line x1="394.5" y1="283.7" x2="485.6" y2="286.5" stroke="#bcc3cd" stroke-width="1.0" opacity="0.24" />
  <line x1="394.5" y1="283.7" x2="480.9" y2="301.3" stroke="#bcc3cd" stroke-width="0.9" opacity="0.17" />
  <line x1="335.6" y1="271.8" x2="378.9" y2="250.8" stroke="#bcc3cd" stroke-width="1.2" opacity="0.38" />
  <line x1="335.6" y1="271.8" x2="418.1" y2="268.9" stroke="#bcc3cd" stroke-width="0.9" opacity="0.19" />
  <line x1="335.6" y1="271.8" x2="419.7" y2="286.9" stroke="#bcc3cd" stroke-width="0.9" opacity="0.18" />
  <line x1="335.6" y1="271.8" x2="399.7" y2="294.2" stroke="#bcc3cd" stroke-width="0.9" opacity="0.18" />
  <line x1="335.6" y1="271.8" x2="376.5" y2="275.7" stroke="#bcc3cd" stroke-width="1.0" opacity="0.24" />
  <line x1="378.9" y1="250.8" x2="418.1" y2="268.9" stroke="#bcc3cd" stroke-width="1.2" opacity="0.34" />
  <line x1="378.9" y1="250.8" x2="419.7" y2="286.9" stroke="#bcc3cd" stroke-width="0.9" opacity="0.18" />
  <line x1="378.9" y1="250.8" x2="420.9" y2="236.5" stroke="#bcc3cd" stroke-width="1.0" opacity="0.25" />
  <line x1="378.9" y1="250.8" x2="467.1" y2="264.2" stroke="#bcc3cd" stroke-width="0.9" opacity="0.20" />
  <line x1="378.9" y1="250.8" x2="455.2" y2="247.9" stroke="#bcc3cd" stroke-width="1.0" opacity="0.22" />
  <line x1="418.1" y1="268.9" x2="419.7" y2="286.9" stroke="#bcc3cd" stroke-width="1.1" opacity="0.29" />
  <line x1="418.1" y1="268.9" x2="420.9" y2="236.5" stroke="#bcc3cd" stroke-width="1.2" opacity="0.34" />
  <line x1="418.1" y1="268.9" x2="415.7" y2="298.7" stroke="#bcc3cd" stroke-width="0.9" opacity="0.20" />
  <line x1="418.1" y1="268.9" x2="399.7" y2="294.2" stroke="#bcc3cd" stroke-width="1.0" opacity="0.22" />
  <line x1="418.1" y1="268.9" x2="406.0" y2="306.8" stroke="#bcc3cd" stroke-width="0.9" opacity="0.20" />
  <line x1="418.1" y1="268.9" x2="376.5" y2="275.7" stroke="#bcc3cd" stroke-width="0.9" opacity="0.19" />
  <line x1="418.1" y1="268.9" x2="467.1" y2="264.2" stroke="#bcc3cd" stroke-width="1.2" opacity="0.37" />
  <line x1="418.1" y1="268.9" x2="455.2" y2="247.9" stroke="#bcc3cd" stroke-width="1.2" opacity="0.37" />
  <line x1="418.1" y1="268.9" x2="440.9" y2="261.0" stroke="#bcc3cd" stroke-width="1.1" opacity="0.29" />
  <line x1="418.1" y1="268.9" x2="462.7" y2="277.9" stroke="#bcc3cd" stroke-width="1.0" opacity="0.22" />
  <line x1="418.1" y1="268.9" x2="479.9" y2="279.1" stroke="#bcc3cd" stroke-width="1.2" opacity="0.34" />
  <line x1="418.1" y1="268.9" x2="496.9" y2="266.3" stroke="#bcc3cd" stroke-width="1.0" opacity="0.24" />
  <line x1="418.1" y1="268.9" x2="485.6" y2="286.5" stroke="#bcc3cd" stroke-width="1.1" opacity="0.29" />
  <line x1="418.1" y1="268.9" x2="492.2" y2="256.1" stroke="#bcc3cd" stroke-width="1.0" opacity="0.22" />
  <line x1="419.7" y1="286.9" x2="549.1" y2="296.8" stroke="#bcc3cd" stroke-width="0.9" opacity="0.21" />
  <line x1="419.7" y1="286.9" x2="415.7" y2="298.7" stroke="#bcc3cd" stroke-width="1.1" opacity="0.28" />
  <line x1="419.7" y1="286.9" x2="399.7" y2="294.2" stroke="#bcc3cd" stroke-width="1.1" opacity="0.31" />
  <line x1="419.7" y1="286.9" x2="406.0" y2="306.8" stroke="#bcc3cd" stroke-width="1.1" opacity="0.28" />
  <line x1="419.7" y1="286.9" x2="376.5" y2="275.7" stroke="#bcc3cd" stroke-width="0.9" opacity="0.18" />
  <line x1="419.7" y1="286.9" x2="467.1" y2="264.2" stroke="#bcc3cd" stroke-width="0.9" opacity="0.17" />
  <line x1="419.7" y1="286.9" x2="459.9" y2="310.0" stroke="#bcc3cd" stroke-width="0.9" opacity="0.17" />
  <line x1="419.7" y1="286.9" x2="488.1" y2="306.7" stroke="#bcc3cd" stroke-width="0.9" opacity="0.20" />
  <line x1="419.7" y1="286.9" x2="479.9" y2="279.1" stroke="#bcc3cd" stroke-width="0.9" opacity="0.17" />
  <line x1="419.7" y1="286.9" x2="496.9" y2="266.3" stroke="#bcc3cd" stroke-width="0.9" opacity="0.17" />
  <line x1="419.7" y1="286.9" x2="485.6" y2="286.5" stroke="#bcc3cd" stroke-width="1.1" opacity="0.33" />
  <line x1="419.7" y1="286.9" x2="480.9" y2="301.3" stroke="#bcc3cd" stroke-width="1.0" opacity="0.24" />
  <line x1="420.9" y1="236.5" x2="467.1" y2="264.2" stroke="#bcc3cd" stroke-width="1.0" opacity="0.25" />
  <line x1="420.9" y1="236.5" x2="455.2" y2="247.9" stroke="#bcc3cd" stroke-width="1.1" opacity="0.29" />
  <line x1="420.9" y1="236.5" x2="492.2" y2="256.1" stroke="#bcc3cd" stroke-width="0.9" opacity="0.17" />
  <line x1="500.4" y1="243.1" x2="467.1" y2="264.2" stroke="#bcc3cd" stroke-width="0.9" opacity="0.18" />
  <line x1="500.4" y1="243.1" x2="455.2" y2="247.9" stroke="#bcc3cd" stroke-width="0.9" opacity="0.18" />
  <line x1="500.4" y1="243.1" x2="479.9" y2="279.1" stroke="#bcc3cd" stroke-width="0.9" opacity="0.17" />
  <line x1="500.4" y1="243.1" x2="496.9" y2="266.3" stroke="#bcc3cd" stroke-width="1.3" opacity="0.42" />
  <line x1="500.4" y1="243.1" x2="485.6" y2="286.5" stroke="#bcc3cd" stroke-width="0.9" opacity="0.19" />
  <line x1="500.4" y1="243.1" x2="492.2" y2="256.1" stroke="#bcc3cd" stroke-width="0.9" opacity="0.21" />
  <line x1="549.1" y1="296.8" x2="488.1" y2="306.7" stroke="#bcc3cd" stroke-width="0.9" opacity="0.18" />
  <line x1="549.1" y1="296.8" x2="485.6" y2="286.5" stroke="#bcc3cd" stroke-width="1.1" opacity="0.30" />
  <line x1="549.1" y1="296.8" x2="480.9" y2="301.3" stroke="#bcc3cd" stroke-width="1.0" opacity="0.22" />
  <line x1="415.7" y1="298.7" x2="399.7" y2="294.2" stroke="#bcc3cd" stroke-width="1.1" opacity="0.28" />
  <line x1="415.7" y1="298.7" x2="406.0" y2="306.8" stroke="#bcc3cd" stroke-width="1.0" opacity="0.24" />
  <line x1="415.7" y1="298.7" x2="462.7" y2="277.9" stroke="#bcc3cd" stroke-width="0.9" opacity="0.19" />
  <line x1="415.7" y1="298.7" x2="513.8" y2="284.7" stroke="#bcc3cd" stroke-width="0.9" opacity="0.18" />
  <line x1="415.7" y1="298.7" x2="488.1" y2="306.7" stroke="#bcc3cd" stroke-width="0.9" opacity="0.17" />
  <line x1="415.7" y1="298.7" x2="485.6" y2="286.5" stroke="#bcc3cd" stroke-width="0.9" opacity="0.17" />
  <line x1="415.7" y1="298.7" x2="480.9" y2="301.3" stroke="#bcc3cd" stroke-width="0.9" opacity="0.20" />
  <line x1="399.7" y1="294.2" x2="406.0" y2="306.8" stroke="#bcc3cd" stroke-width="1.1" opacity="0.28" />
  <line x1="399.7" y1="294.2" x2="376.5" y2="275.7" stroke="#bcc3cd" stroke-width="0.9" opacity="0.18" />
  <line x1="399.7" y1="294.2" x2="459.9" y2="310.0" stroke="#bcc3cd" stroke-width="0.9" opacity="0.17" />
  <line x1="399.7" y1="294.2" x2="488.1" y2="306.7" stroke="#bcc3cd" stroke-width="0.9" opacity="0.20" />
  <line x1="399.7" y1="294.2" x2="479.9" y2="279.1" stroke="#bcc3cd" stroke-width="0.9" opacity="0.17" />
  <line x1="399.7" y1="294.2" x2="485.6" y2="286.5" stroke="#bcc3cd" stroke-width="0.9" opacity="0.20" />
  <line x1="399.7" y1="294.2" x2="480.9" y2="301.3" stroke="#bcc3cd" stroke-width="1.0" opacity="0.24" />
  <line x1="406.0" y1="306.8" x2="488.1" y2="306.7" stroke="#bcc3cd" stroke-width="0.9" opacity="0.17" />
  <line x1="406.0" y1="306.8" x2="485.6" y2="286.5" stroke="#bcc3cd" stroke-width="0.9" opacity="0.17" />
  <line x1="406.0" y1="306.8" x2="480.9" y2="301.3" stroke="#bcc3cd" stroke-width="0.9" opacity="0.20" />
  <line x1="376.5" y1="275.7" x2="563.8" y2="253.1" stroke="#bcc3cd" stroke-width="1.0" opacity="0.22" />
  <line x1="376.5" y1="275.7" x2="480.9" y2="301.3" stroke="#bcc3cd" stroke-width="0.9" opacity="0.18" />
  <line x1="389.2" y1="346.7" x2="474.9" y2="334.7" stroke="#bcc3cd" stroke-width="1.3" opacity="0.44" />
  <line x1="389.2" y1="346.7" x2="479.5" y2="359.2" stroke="#bcc3cd" stroke-width="0.9" opacity="0.18" />
  <line x1="474.9" y1="334.7" x2="537.9" y2="318.1" stroke="#bcc3cd" stroke-width="1.1" opacity="0.31" />
  <line x1="474.9" y1="334.7" x2="459.9" y2="310.0" stroke="#bcc3cd" stroke-width="0.9" opacity="0.20" />
  <line x1="474.9" y1="334.7" x2="488.1" y2="306.7" stroke="#bcc3cd" stroke-width="1.0" opacity="0.24" />
  <line x1="474.9" y1="334.7" x2="479.9" y2="279.1" stroke="#bcc3cd" stroke-width="0.9" opacity="0.20" />
  <line x1="474.9" y1="334.7" x2="485.6" y2="286.5" stroke="#bcc3cd" stroke-width="1.0" opacity="0.24" />
  <line x1="474.9" y1="334.7" x2="511.3" y2="301.1" stroke="#bcc3cd" stroke-width="0.9" opacity="0.18" />
  <line x1="474.9" y1="334.7" x2="473.8" y2="418.1" stroke="#bcc3cd" stroke-width="0.9" opacity="0.17" />
  <line x1="474.9" y1="334.7" x2="519.1" y2="324.0" stroke="#bcc3cd" stroke-width="1.1" opacity="0.31" />
  <line x1="474.9" y1="334.7" x2="479.5" y2="359.2" stroke="#bcc3cd" stroke-width="1.1" opacity="0.30" />
  <line x1="474.9" y1="334.7" x2="480.9" y2="301.3" stroke="#bcc3cd" stroke-width="1.1" opacity="0.31" />
  <line x1="50.0" y1="265.4" x2="110.8" y2="280.0" stroke="#bcc3cd" stroke-width="1.6" opacity="0.60" />
  <line x1="360.4" y1="186.8" x2="455.2" y2="247.9" stroke="#bcc3cd" stroke-width="0.9" opacity="0.18" />
  <line x1="360.4" y1="186.8" x2="284.8" y2="158.9" stroke="#bcc3cd" stroke-width="1.1" opacity="0.28" />
  <line x1="532.7" y1="263.0" x2="467.1" y2="264.2" stroke="#bcc3cd" stroke-width="0.9" opacity="0.17" />
  <line x1="532.7" y1="263.0" x2="455.2" y2="247.9" stroke="#bcc3cd" stroke-width="0.9" opacity="0.18" />
  <line x1="532.7" y1="263.0" x2="462.7" y2="277.9" stroke="#bcc3cd" stroke-width="1.0" opacity="0.22" />
  <line x1="532.7" y1="263.0" x2="479.9" y2="279.1" stroke="#bcc3cd" stroke-width="1.1" opacity="0.28" />
  <line x1="532.7" y1="263.0" x2="496.9" y2="266.3" stroke="#bcc3cd" stroke-width="1.1" opacity="0.32" />
  <line x1="532.7" y1="263.0" x2="485.6" y2="286.5" stroke="#bcc3cd" stroke-width="0.9" opacity="0.20" />
  <line x1="532.7" y1="263.0" x2="492.2" y2="256.1" stroke="#bcc3cd" stroke-width="1.0" opacity="0.22" />
  <line x1="532.7" y1="263.0" x2="550.2" y2="285.1" stroke="#bcc3cd" stroke-width="1.0" opacity="0.22" />
  <line x1="467.1" y1="264.2" x2="455.2" y2="247.9" stroke="#bcc3cd" stroke-width="1.3" opacity="0.42" />
  <line x1="467.1" y1="264.2" x2="521.3" y2="247.7" stroke="#bcc3cd" stroke-width="0.9" opacity="0.18" />
  <line x1="467.1" y1="264.2" x2="440.9" y2="261.0" stroke="#bcc3cd" stroke-width="1.1" opacity="0.31" />
  <line x1="467.1" y1="264.2" x2="462.7" y2="277.9" stroke="#bcc3cd" stroke-width="1.1" opacity="0.32" />
  <line x1="467.1" y1="264.2" x2="513.8" y2="284.7" stroke="#bcc3cd" stroke-width="1.0" opacity="0.23" />
  <line x1="467.1" y1="264.2" x2="479.9" y2="279.1" stroke="#bcc3cd" stroke-width="1.2" opacity="0.39" />
  <line x1="467.1" y1="264.2" x2="496.9" y2="266.3" stroke="#bcc3cd" stroke-width="1.0" opacity="0.26" />
  <line x1="467.1" y1="264.2" x2="485.6" y2="286.5" stroke="#bcc3cd" stroke-width="1.2" opacity="0.34" />
  <line x1="467.1" y1="264.2" x2="511.3" y2="301.1" stroke="#bcc3cd" stroke-width="0.9" opacity="0.19" />
  <line x1="467.1" y1="264.2" x2="492.2" y2="256.1" stroke="#bcc3cd" stroke-width="1.0" opacity="0.25" />
  <line x1="467.1" y1="264.2" x2="480.9" y2="301.3" stroke="#bcc3cd" stroke-width="0.9" opacity="0.17" />
  <line x1="455.2" y1="247.9" x2="521.3" y2="247.7" stroke="#bcc3cd" stroke-width="1.1" opacity="0.33" />
  <line x1="455.2" y1="247.9" x2="440.9" y2="261.0" stroke="#bcc3cd" stroke-width="0.9" opacity="0.21" />
  <line x1="455.2" y1="247.9" x2="462.7" y2="277.9" stroke="#bcc3cd" stroke-width="0.9" opacity="0.18" />
  <line x1="455.2" y1="247.9" x2="479.9" y2="279.1" stroke="#bcc3cd" stroke-width="1.3" opacity="0.41" />
  <line x1="455.2" y1="247.9" x2="496.9" y2="266.3" stroke="#bcc3cd" stroke-width="1.0" opacity="0.22" />
  <line x1="455.2" y1="247.9" x2="485.6" y2="286.5" stroke="#bcc3cd" stroke-width="1.1" opacity="0.31" />
  <line x1="455.2" y1="247.9" x2="492.2" y2="256.1" stroke="#bcc3cd" stroke-width="1.7" opacity="0.66" />
  <line x1="532.5" y1="308.2" x2="537.9" y2="318.1" stroke="#bcc3cd" stroke-width="1.5" opacity="0.55" />
  <line x1="532.5" y1="308.2" x2="459.9" y2="310.0" stroke="#bcc3cd" stroke-width="0.9" opacity="0.18" />
  <line x1="532.5" y1="308.2" x2="488.1" y2="306.7" stroke="#bcc3cd" stroke-width="1.1" opacity="0.28" />
  <line x1="532.5" y1="308.2" x2="479.9" y2="279.1" stroke="#bcc3cd" stroke-width="0.9" opacity="0.18" />
  <line x1="532.5" y1="308.2" x2="485.6" y2="286.5" stroke="#bcc3cd" stroke-width="1.1" opacity="0.28" />
  <line x1="532.5" y1="308.2" x2="561.6" y2="310.9" stroke="#bcc3cd" stroke-width="1.5" opacity="0.55" />
  <line x1="532.5" y1="308.2" x2="550.2" y2="285.1" stroke="#bcc3cd" stroke-width="1.2" opacity="0.37" />
  <line x1="532.5" y1="308.2" x2="519.1" y2="324.0" stroke="#bcc3cd" stroke-width="1.5" opacity="0.55" />
  <line x1="532.5" y1="308.2" x2="480.9" y2="301.3" stroke="#bcc3cd" stroke-width="1.5" opacity="0.55" />
  <line x1="537.9" y1="318.1" x2="488.1" y2="306.7" stroke="#bcc3cd" stroke-width="1.0" opacity="0.22" />
  <line x1="537.9" y1="318.1" x2="485.6" y2="286.5" stroke="#bcc3cd" stroke-width="1.0" opacity="0.22" />
  <line x1="537.9" y1="318.1" x2="561.6" y2="310.9" stroke="#bcc3cd" stroke-width="1.2" opacity="0.37" />
  <line x1="537.9" y1="318.1" x2="550.2" y2="285.1" stroke="#bcc3cd" stroke-width="1.1" opacity="0.28" />
  <line x1="537.9" y1="318.1" x2="519.1" y2="324.0" stroke="#bcc3cd" stroke-width="1.2" opacity="0.37" />
  <line x1="537.9" y1="318.1" x2="480.9" y2="301.3" stroke="#bcc3cd" stroke-width="1.2" opacity="0.37" />
  <line x1="521.3" y1="247.7" x2="479.9" y2="279.1" stroke="#bcc3cd" stroke-width="0.9" opacity="0.18" />
  <line x1="521.3" y1="247.7" x2="496.9" y2="266.3" stroke="#bcc3cd" stroke-width="0.9" opacity="0.18" />
  <line x1="521.3" y1="247.7" x2="485.6" y2="286.5" stroke="#bcc3cd" stroke-width="1.0" opacity="0.22" />
  <line x1="521.3" y1="247.7" x2="492.2" y2="256.1" stroke="#bcc3cd" stroke-width="1.3" opacity="0.41" />
  <line x1="440.9" y1="261.0" x2="462.7" y2="277.9" stroke="#bcc3cd" stroke-width="1.1" opacity="0.31" />
  <line x1="440.9" y1="261.0" x2="479.9" y2="279.1" stroke="#bcc3cd" stroke-width="1.4" opacity="0.47" />
  <line x1="440.9" y1="261.0" x2="496.9" y2="266.3" stroke="#bcc3cd" stroke-width="0.9" opacity="0.19" />
  <line x1="440.9" y1="261.0" x2="485.6" y2="286.5" stroke="#bcc3cd" stroke-width="1.0" opacity="0.22" />
  <line x1="462.7" y1="277.9" x2="513.8" y2="284.7" stroke="#bcc3cd" stroke-width="1.1" opacity="0.29" />
  <line x1="462.7" y1="277.9" x2="459.9" y2="310.0" stroke="#bcc3cd" stroke-width="0.9" opacity="0.17" />
  <line x1="462.7" y1="277.9" x2="488.1" y2="306.7" stroke="#bcc3cd" stroke-width="0.9" opacity="0.20" />
  <line x1="462.7" y1="277.9" x2="479.9" y2="279.1" stroke="#bcc3cd" stroke-width="1.3" opacity="0.40" />
  <line x1="462.7" y1="277.9" x2="496.9" y2="266.3" stroke="#bcc3cd" stroke-width="1.0" opacity="0.24" />
  <line x1="462.7" y1="277.9" x2="485.6" y2="286.5" stroke="#bcc3cd" stroke-width="0.9" opacity="0.20" />
  <line x1="462.7" y1="277.9" x2="480.9" y2="301.3" stroke="#bcc3cd" stroke-width="1.0" opacity="0.24" />
  <line x1="513.8" y1="284.7" x2="488.1" y2="306.7" stroke="#bcc3cd" stroke-width="0.9" opacity="0.18" />
  <line x1="513.8" y1="284.7" x2="496.9" y2="266.3" stroke="#bcc3cd" stroke-width="1.0" opacity="0.23" />
  <line x1="513.8" y1="284.7" x2="485.6" y2="286.5" stroke="#bcc3cd" stroke-width="0.9" opacity="0.18" />
  <line x1="513.8" y1="284.7" x2="511.3" y2="301.1" stroke="#bcc3cd" stroke-width="1.0" opacity="0.24" />
  <line x1="513.8" y1="284.7" x2="480.9" y2="301.3" stroke="#bcc3cd" stroke-width="1.0" opacity="0.22" />
  <line x1="459.9" y1="310.0" x2="488.1" y2="306.7" stroke="#bcc3cd" stroke-width="1.1" opacity="0.28" />
  <line x1="459.9" y1="310.0" x2="479.9" y2="279.1" stroke="#bcc3cd" stroke-width="1.0" opacity="0.22" />
  <line x1="459.9" y1="310.0" x2="485.6" y2="286.5" stroke="#bcc3cd" stroke-width="1.1" opacity="0.28" />
  <line x1="459.9" y1="310.0" x2="511.3" y2="301.1" stroke="#bcc3cd" stroke-width="0.9" opacity="0.20" />
  <line x1="459.9" y1="310.0" x2="480.9" y2="301.3" stroke="#bcc3cd" stroke-width="1.2" opacity="0.37" />
  <line x1="488.1" y1="306.7" x2="479.9" y2="279.1" stroke="#bcc3cd" stroke-width="1.1" opacity="0.28" />
  <line x1="488.1" y1="306.7" x2="485.6" y2="286.5" stroke="#bcc3cd" stroke-width="1.2" opacity="0.37" />
  <line x1="488.1" y1="306.7" x2="561.6" y2="310.9" stroke="#bcc3cd" stroke-width="1.0" opacity="0.22" />
  <line x1="488.1" y1="306.7" x2="511.3" y2="301.1" stroke="#bcc3cd" stroke-width="1.0" opacity="0.24" />
  <line x1="488.1" y1="306.7" x2="550.2" y2="285.1" stroke="#bcc3cd" stroke-width="0.9" opacity="0.18" />
  <line x1="488.1" y1="306.7" x2="519.1" y2="324.0" stroke="#bcc3cd" stroke-width="1.0" opacity="0.22" />
  <line x1="488.1" y1="306.7" x2="480.9" y2="301.3" stroke="#bcc3cd" stroke-width="1.5" opacity="0.55" />
  <line x1="479.9" y1="279.1" x2="496.9" y2="266.3" stroke="#bcc3cd" stroke-width="1.1" opacity="0.29" />
  <line x1="479.9" y1="279.1" x2="485.6" y2="286.5" stroke="#bcc3cd" stroke-width="1.4" opacity="0.47" />
  <line x1="479.9" y1="279.1" x2="511.3" y2="301.1" stroke="#bcc3cd" stroke-width="0.9" opacity="0.20" />
  <line x1="479.9" y1="279.1" x2="492.2" y2="256.1" stroke="#bcc3cd" stroke-width="1.1" opacity="0.31" />
  <line x1="479.9" y1="279.1" x2="550.2" y2="285.1" stroke="#bcc3cd" stroke-width="1.1" opacity="0.31" />
  <line x1="479.9" y1="279.1" x2="480.9" y2="301.3" stroke="#bcc3cd" stroke-width="1.2" opacity="0.37" />
  <line x1="496.9" y1="266.3" x2="485.6" y2="286.5" stroke="#bcc3cd" stroke-width="1.2" opacity="0.34" />
  <line x1="496.9" y1="266.3" x2="492.2" y2="256.1" stroke="#bcc3cd" stroke-width="1.0" opacity="0.25" />
  <line x1="496.9" y1="266.3" x2="550.2" y2="285.1" stroke="#bcc3cd" stroke-width="1.0" opacity="0.25" />
  <line x1="496.9" y1="266.3" x2="480.9" y2="301.3" stroke="#bcc3cd" stroke-width="0.9" opacity="0.17" />
  <line x1="485.6" y1="286.5" x2="561.6" y2="310.9" stroke="#bcc3cd" stroke-width="1.0" opacity="0.22" />
  <line x1="485.6" y1="286.5" x2="511.3" y2="301.1" stroke="#bcc3cd" stroke-width="1.0" opacity="0.24" />
  <line x1="485.6" y1="286.5" x2="492.2" y2="256.1" stroke="#bcc3cd" stroke-width="1.3" opacity="0.44" />
  <line x1="485.6" y1="286.5" x2="550.2" y2="285.1" stroke="#bcc3cd" stroke-width="1.3" opacity="0.44" />
  <line x1="485.6" y1="286.5" x2="519.1" y2="324.0" stroke="#bcc3cd" stroke-width="1.0" opacity="0.22" />
  <line x1="485.6" y1="286.5" x2="480.9" y2="301.3" stroke="#bcc3cd" stroke-width="1.5" opacity="0.55" />
  <line x1="866.9" y1="107.1" x2="896.6" y2="123.5" stroke="#bcc3cd" stroke-width="1.0" opacity="0.22" />
  <line x1="594.6" y1="342.4" x2="480.9" y2="301.3" stroke="#bcc3cd" stroke-width="1.0" opacity="0.22" />
  <line x1="561.6" y1="310.9" x2="550.2" y2="285.1" stroke="#bcc3cd" stroke-width="1.1" opacity="0.28" />
  <line x1="561.6" y1="310.9" x2="519.1" y2="324.0" stroke="#bcc3cd" stroke-width="1.2" opacity="0.37" />
  <line x1="561.6" y1="310.9" x2="480.9" y2="301.3" stroke="#bcc3cd" stroke-width="1.2" opacity="0.37" />
  <line x1="477.4" y1="448.6" x2="461.7" y2="459.0" stroke="#bcc3cd" stroke-width="1.5" opacity="0.55" />
  <line x1="477.4" y1="448.6" x2="473.8" y2="418.1" stroke="#bcc3cd" stroke-width="1.3" opacity="0.41" />
  <line x1="461.7" y1="459.0" x2="473.8" y2="418.1" stroke="#bcc3cd" stroke-width="1.0" opacity="0.24" />
  <line x1="511.3" y1="301.1" x2="480.9" y2="301.3" stroke="#bcc3cd" stroke-width="1.1" opacity="0.31" />
  <line x1="492.2" y1="256.1" x2="550.2" y2="285.1" stroke="#bcc3cd" stroke-width="1.0" opacity="0.22" />
  <line x1="550.2" y1="285.1" x2="563.8" y2="253.1" stroke="#bcc3cd" stroke-width="1.2" opacity="0.37" />
  <line x1="550.2" y1="285.1" x2="654.0" y2="249.6" stroke="#bcc3cd" stroke-width="0.9" opacity="0.18" />
  <line x1="550.2" y1="285.1" x2="519.1" y2="324.0" stroke="#bcc3cd" stroke-width="1.1" opacity="0.28" />
  <line x1="550.2" y1="285.1" x2="480.9" y2="301.3" stroke="#bcc3cd" stroke-width="1.1" opacity="0.28" />
  <line x1="563.8" y1="253.1" x2="654.0" y2="249.6" stroke="#bcc3cd" stroke-width="1.1" opacity="0.28" />
  <line x1="519.1" y1="324.0" x2="479.5" y2="359.2" stroke="#bcc3cd" stroke-width="1.1" opacity="0.31" />
  <line x1="519.1" y1="324.0" x2="480.9" y2="301.3" stroke="#bcc3cd" stroke-width="1.2" opacity="0.37" />
  <circle cx="298.0" cy="299.2" r="10.4" fill="#7f8c8d" opacity="0.88" />
  <circle cx="328.3" cy="287.7" r="8.6" fill="#3498db" opacity="0.88" />
  <circle cx="252.3" cy="277.8" r="11.3" fill="#3498db" opacity="0.88" />
  <circle cx="394.5" cy="283.7" r="15.8" fill="#7f8c8d" opacity="0.88" />
  <circle cx="236.5" cy="296.6" r="9.5" fill="#7f8c8d" opacity="0.88" />
  <circle cx="335.6" cy="271.8" r="14.9" fill="#3498db" opacity="0.88" />
  <circle cx="378.9" cy="250.8" r="16" fill="#3498db" opacity="0.88" />
  <circle cx="418.1" cy="268.9" r="16" fill="#7f8c8d" opacity="0.88" />
  <circle cx="419.7" cy="286.9" r="12.2" fill="#e67e22" opacity="0.88" />
  <circle cx="420.9" cy="236.5" r="16" fill="#e74c3c" opacity="0.88" />
  <circle cx="500.4" cy="243.1" r="16" fill="#9b59b6" opacity="0.88" />
  <circle cx="549.1" cy="296.8" r="13.1" fill="#e67e22" opacity="0.88" />
  <circle cx="415.7" cy="298.7" r="14.0" fill="#3498db" opacity="0.88" />
  <circle cx="399.7" cy="294.2" r="12.2" fill="#3498db" opacity="0.88" />
  <circle cx="406.0" cy="306.8" r="14.0" fill="#3498db" opacity="0.88" />
  <circle cx="376.5" cy="275.7" r="8.6" fill="#2ecc71" opacity="0.88" />
  <circle cx="389.2" cy="346.7" r="10.4" fill="#e74c3c" opacity="0.88" />
  <circle cx="910.0" cy="452.4" r="12.2" fill="#3498db" opacity="0.88" />
  <circle cx="474.9" cy="334.7" r="10.4" fill="#e74c3c" opacity="0.88" />
  <circle cx="50.0" cy="265.4" r="12.2" fill="#3498db" opacity="0.88" />
  <circle cx="110.8" cy="280.0" r="11.3" fill="#3498db" opacity="0.88" />
  <circle cx="360.4" cy="186.8" r="5.9" fill="#3498db" opacity="0.88" />
  <circle cx="532.7" cy="263.0" r="12.2" fill="#9b59b6" opacity="0.88" />
  <circle cx="467.1" cy="264.2" r="15.8" fill="#9b59b6" opacity="0.88" />
  <circle cx="455.2" cy="247.9" r="8.6" fill="#9b59b6" opacity="0.88" />
  <circle cx="532.5" cy="308.2" r="5" fill="#2ecc71" opacity="0.88" />
  <circle cx="537.9" cy="318.1" r="5.9" fill="#7f8c8d" opacity="0.88" />
  <circle cx="521.3" cy="247.7" r="11.3" fill="#e67e22" opacity="0.88" />
  <circle cx="440.9" cy="261.0" r="16" fill="#2ecc71" opacity="0.88" />
  <circle cx="284.8" cy="158.9" r="6.8" fill="#9b59b6" opacity="0.88" />
  <circle cx="290.4" cy="50.0" r="5" fill="#7f8c8d" opacity="0.88" />
  <circle cx="462.7" cy="277.9" r="12.2" fill="#3498db" opacity="0.88" />
  <circle cx="513.8" cy="284.7" r="13.1" fill="#7f8c8d" opacity="0.88" />
  <circle cx="459.9" cy="310.0" r="9.5" fill="#7f8c8d" opacity="0.88" />
  <circle cx="204.2" cy="500.0" r="5" fill="#7f8c8d" opacity="0.88" />
  <circle cx="488.1" cy="306.7" r="7.7" fill="#7f8c8d" opacity="0.88" />
  <circle cx="479.9" cy="279.1" r="9.5" fill="#7f8c8d" opacity="0.88" />
  <circle cx="496.9" cy="266.3" r="15.8" fill="#2ecc71" opacity="0.88" />
  <circle cx="485.6" cy="286.5" r="7.7" fill="#7f8c8d" opacity="0.88" />
  <circle cx="866.9" cy="107.1" r="7.7" fill="#7f8c8d" opacity="0.88" />
  <circle cx="594.6" cy="342.4" r="7.7" fill="#3498db" opacity="0.88" />
  <circle cx="561.6" cy="310.9" r="5.9" fill="#7f8c8d" opacity="0.88" />
  <circle cx="477.4" cy="448.6" r="6.8" fill="#e67e22" opacity="0.88" />
  <circle cx="461.7" cy="459.0" r="6.8" fill="#e67e22" opacity="0.88" />
  <circle cx="511.3" cy="301.1" r="10.4" fill="#7f8c8d" opacity="0.88" />
  <circle cx="473.8" cy="418.1" r="11.3" fill="#e67e22" opacity="0.88" />
  <circle cx="896.6" cy="123.5" r="5.9" fill="#7f8c8d" opacity="0.88" />
  <circle cx="492.2" cy="256.1" r="6.8" fill="#7f8c8d" opacity="0.88" />
  <circle cx="550.2" cy="285.1" r="6.8" fill="#7f8c8d" opacity="0.88" />
  <circle cx="563.8" cy="253.1" r="5" fill="#2ecc71" opacity="0.88" />
  <circle cx="654.0" cy="249.6" r="7.7" fill="#2ecc71" opacity="0.88" />
  <circle cx="519.1" cy="324.0" r="5.9" fill="#e74c3c" opacity="0.88" />
  <circle cx="479.5" cy="359.2" r="10.4" fill="#e74c3c" opacity="0.88" />
  <circle cx="480.9" cy="301.3" r="5.9" fill="#7f8c8d" opacity="0.88" />
  <circle cx="79.5" cy="81.1" r="5" fill="#7f8c8d" opacity="0.88" />
  <rect x="310.4" y="302.5" width="74.0" height="15" fill="#ffffff" opacity="0.75" rx="2" />
  <text x="311.4" y="313.5" font-family="system-ui, -apple-system, sans-serif" font-size="12" fill="#1f2328" text-anchor="start">tummycrypt</text>
  <rect x="338.9" y="285.5" width="16.4" height="15" fill="#ffffff" opacity="0.75" rx="2" />
  <text x="339.9" y="296.5" font-family="system-ui, -apple-system, sans-serif" font-size="12" fill="#1f2328" text-anchor="start">pp</text>
  <rect x="265.6" y="268.5" width="117.2" height="15" fill="#ffffff" opacity="0.75" rx="2" />
  <text x="266.6" y="279.5" font-family="system-ui, -apple-system, sans-serif" font-size="12" fill="#1f2328" text-anchor="start">tinyland-cleanup</text>
  <rect x="412.3" y="358.0" width="124.4" height="15" fill="#ffffff" opacity="0.75" rx="2" />
  <text x="413.3" y="369.0" font-family="system-ui, -apple-system, sans-serif" font-size="12" fill="#1f2328" text-anchor="start">tinyland-huskycat</text>
  <rect x="248.0" y="285.5" width="88.4" height="15" fill="#ffffff" opacity="0.75" rx="2" />
  <text x="249.0" y="296.5" font-family="system-ui, -apple-system, sans-serif" font-size="12" fill="#1f2328" text-anchor="start">waifu-mirror</text>
  <rect x="352.5" y="228.2" width="102.8" height="15" fill="#ffffff" opacity="0.75" rx="2" />
  <text x="353.5" y="239.2" font-family="system-ui, -apple-system, sans-serif" font-size="12" fill="#1f2328" text-anchor="start">tinyland-infra</text>
  <rect x="396.9" y="186.6" width="117.2" height="15" fill="#ffffff" opacity="0.75" rx="2" />
  <text x="397.9" y="197.6" font-family="system-ui, -apple-system, sans-serif" font-size="12" fill="#1f2328" text-anchor="start">GloriousFlywheel</text>
  <rect x="436.1" y="258.0" width="52.4" height="15" fill="#ffffff" opacity="0.75" rx="2" />
  <text x="437.1" y="269.0" font-family="system-ui, -apple-system, sans-serif" font-size="12" fill="#1f2328" text-anchor="start">LA-Mesh</text>
  <rect x="433.9" y="319.9" width="45.2" height="15" fill="#ffffff" opacity="0.75" rx="2" />
  <text x="434.9" y="330.9" font-family="system-ui, -apple-system, sans-serif" font-size="12" fill="#1f2328" text-anchor="start">XoxdWM</text>
  <rect x="438.9" y="125.7" width="131.6" height="15" fill="#ffffff" opacity="0.75" rx="2" />
  <text x="439.9" y="136.7" font-family="system-ui, -apple-system, sans-serif" font-size="12" fill="#1f2328" text-anchor="start">pixelwise-research</text>
  <rect x="518.4" y="186.7" width="95.6" height="15" fill="#ffffff" opacity="0.75" rx="2" />
  <text x="519.4" y="197.7" font-family="system-ui, -apple-system, sans-serif" font-size="12" fill="#1f2328" text-anchor="start">GIS_Shortcuts</text>
  <rect x="564.2" y="273.0" width="110.0" height="15" fill="#ffffff" opacity="0.75" rx="2" />
  <text x="565.2" y="284.0" font-family="system-ui, -apple-system, sans-serif" font-size="12" fill="#1f2328" text-anchor="start">hiberpower-ntfs</text>
  <rect x="431.7" y="347.5" width="138.8" height="15" fill="#ffffff" opacity="0.75" rx="2" />
  <text x="432.7" y="358.5" font-family="system-ui, -apple-system, sans-serif" font-size="12" fill="#1f2328" text-anchor="start">Ansible-DAG-Harness</text>
  <rect x="413.9" y="243.2" width="66.8" height="15" fill="#ffffff" opacity="0.75" rx="2" />
  <text x="414.9" y="254.2" font-family="system-ui, -apple-system, sans-serif" font-size="12" fill="#1f2328" text-anchor="start">betterkvm</text>
  <rect x="422.0" y="304.9" width="95.6" height="15" fill="#ffffff" opacity="0.75" rx="2" />
  <text x="423.0" y="315.9" font-family="system-ui, -apple-system, sans-serif" font-size="12" fill="#1f2328" text-anchor="start">DarwinNicUtil</text>
  <rect x="387.1" y="275.2" width="59.6" height="15" fill="#ffffff" opacity="0.75" rx="2" />
  <text x="388.1" y="286.2" font-family="system-ui, -apple-system, sans-serif" font-size="12" fill="#1f2328" text-anchor="start">gnucashr</text>
  <rect x="401.6" y="376.0" width="66.8" height="15" fill="#ffffff" opacity="0.75" rx="2" />
  <text x="402.6" y="387.0" font-family="system-ui, -apple-system, sans-serif" font-size="12" fill="#1f2328" text-anchor="start">quickchpl</text>
  <rect x="764.2" y="445.6" width="131.6" height="15" fill="#ffffff" opacity="0.75" rx="2" />
  <text x="894.8" y="456.6" font-family="system-ui, -apple-system, sans-serif" font-size="12" fill="#1f2328" text-anchor="end">tinyscale-mikrotik</text>
  <rect x="487.3" y="386.6" width="59.6" height="15" fill="#ffffff" opacity="0.75" rx="2" />
  <text x="488.3" y="397.6" font-family="system-ui, -apple-system, sans-serif" font-size="12" fill="#1f2328" text-anchor="start">aoc-2025</text>
  <rect x="64.2" y="258.6" width="66.8" height="15" fill="#ffffff" opacity="0.75" rx="2" />
  <text x="65.2" y="269.6" font-family="system-ui, -apple-system, sans-serif" font-size="12" fill="#1f2328" text-anchor="start">searchies</text>
  <rect x="124.1" y="273.2" width="59.6" height="15" fill="#ffffff" opacity="0.75" rx="2" />
  <text x="125.1" y="284.2" font-family="system-ui, -apple-system, sans-serif" font-size="12" fill="#1f2328" text-anchor="start">ts-caddy</text>
  <rect x="368.3" y="171.9" width="66.8" height="15" fill="#ffffff" opacity="0.75" rx="2" />
  <text x="369.3" y="182.9" font-family="system-ui, -apple-system, sans-serif" font-size="12" fill="#1f2328" text-anchor="start">HCI-notes</text>
  <rect x="546.9" y="198.7" width="88.4" height="15" fill="#ffffff" opacity="0.75" rx="2" />
  <text x="547.9" y="209.7" font-family="system-ui, -apple-system, sans-serif" font-size="12" fill="#1f2328" text-anchor="start">FastPhotoAPI</text>
  <rect x="484.9" y="274.6" width="81.2" height="15" fill="#ffffff" opacity="0.75" rx="2" />
  <text x="485.9" y="285.6" font-family="system-ui, -apple-system, sans-serif" font-size="12" fill="#1f2328" text-anchor="start">timberbuddy</text>
  <rect x="465.8" y="201.2" width="81.2" height="15" fill="#ffffff" opacity="0.75" rx="2" />
  <text x="466.8" y="212.2" font-family="system-ui, -apple-system, sans-serif" font-size="12" fill="#1f2328" text-anchor="start">tetrahedron</text>
  <rect x="539.5" y="265.6" width="95.6" height="15" fill="#ffffff" opacity="0.75" rx="2" />
  <text x="540.5" y="276.6" font-family="system-ui, -apple-system, sans-serif" font-size="12" fill="#1f2328" text-anchor="start">AccuWixReport</text>
  <rect x="545.8" y="379.8" width="95.6" height="15" fill="#ffffff" opacity="0.75" rx="2" />
  <text x="546.8" y="390.8" font-family="system-ui, -apple-system, sans-serif" font-size="12" fill="#1f2328" text-anchor="start">Jess-AOC-2023</text>
  <rect x="534.6" y="224.2" width="81.2" height="15" fill="#ffffff" opacity="0.75" rx="2" />
  <text x="535.6" y="235.2" font-family="system-ui, -apple-system, sans-serif" font-size="12" fill="#1f2328" text-anchor="start">TurkeyProbe</text>
  <rect x="458.9" y="140.4" width="153.2" height="15" fill="#ffffff" opacity="0.75" rx="2" />
  <text x="459.9" y="151.4" font-family="system-ui, -apple-system, sans-serif" font-size="12" fill="#1f2328" text-anchor="start">MerlinAI-Interpreters</text>
  <rect x="293.6" y="152.1" width="110.0" height="15" fill="#ffffff" opacity="0.75" rx="2" />
  <text x="294.6" y="163.1" font-family="system-ui, -apple-system, sans-serif" font-size="12" fill="#1f2328" text-anchor="start">IntroTypeScript</text>
  <rect x="297.4" y="43.2" width="110.0" height="15" fill="#ffffff" opacity="0.75" rx="2" />
  <text x="298.4" y="54.2" font-family="system-ui, -apple-system, sans-serif" font-size="12" fill="#1f2328" text-anchor="start">IG-3DP-Profiles</text>
  <rect x="476.9" y="372.2" width="66.8" height="15" fill="#ffffff" opacity="0.75" rx="2" />
  <text x="477.9" y="383.2" font-family="system-ui, -apple-system, sans-serif" font-size="12" fill="#1f2328" text-anchor="start">DLA-Flask</text>
  <rect x="528.9" y="296.6" width="38.0" height="15" fill="#ffffff" opacity="0.75" rx="2" />
  <text x="529.9" y="307.6" font-family="system-ui, -apple-system, sans-serif" font-size="12" fill="#1f2328" text-anchor="start">USBoN</text>
  <rect x="471.4" y="284.9" width="203.6" height="15" fill="#ffffff" opacity="0.75" rx="2" />
  <text x="472.4" y="295.9" font-family="system-ui, -apple-system, sans-serif" font-size="12" fill="#1f2328" text-anchor="start">chrome-remote-desktop-budgie</text>
  <rect x="211.2" y="493.2" width="124.4" height="15" fill="#ffffff" opacity="0.75" rx="2" />
  <text x="212.2" y="504.2" font-family="system-ui, -apple-system, sans-serif" font-size="12" fill="#1f2328" text-anchor="start">OminousBeepingApp</text>
  <rect x="497.8" y="325.4" width="138.8" height="15" fill="#ffffff" opacity="0.75" rx="2" />
  <text x="498.8" y="336.4" font-family="system-ui, -apple-system, sans-serif" font-size="12" fill="#1f2328" text-anchor="start">mo-image-identifier</text>
  <rect x="491.4" y="172.0" width="196.4" height="15" fill="#ffffff" opacity="0.75" rx="2" />
  <text x="492.4" y="183.0" font-family="system-ui, -apple-system, sans-serif" font-size="12" fill="#1f2328" text-anchor="start">squirrel-leaflet-annotation</text>
  <rect x="514.7" y="211.9" width="74.0" height="15" fill="#ffffff" opacity="0.75" rx="2" />
  <text x="515.7" y="222.9" font-family="system-ui, -apple-system, sans-serif" font-size="12" fill="#1f2328" text-anchor="start">Shiny-Apps</text>
  <rect x="495.3" y="337.1" width="138.8" height="15" fill="#ffffff" opacity="0.75" rx="2" />
  <text x="496.3" y="348.1" font-family="system-ui, -apple-system, sans-serif" font-size="12" fill="#1f2328" text-anchor="start">bbox-jest-puppeteer</text>
  <rect x="768.8" y="100.3" width="88.4" height="15" fill="#ffffff" opacity="0.75" rx="2" />
  <text x="856.2" y="111.3" font-family="system-ui, -apple-system, sans-serif" font-size="12" fill="#1f2328" text-anchor="end">DoverDisplay</text>
  <rect x="604.3" y="393.4" width="81.2" height="15" fill="#ffffff" opacity="0.75" rx="2" />
  <text x="605.3" y="404.4" font-family="system-ui, -apple-system, sans-serif" font-size="12" fill="#1f2328" text-anchor="start">LeafletSync</text>
  <rect x="569.5" y="300.4" width="167.6" height="15" fill="#ffffff" opacity="0.75" rx="2" />
  <text x="570.5" y="311.4" font-family="system-ui, -apple-system, sans-serif" font-size="12" fill="#1f2328" text-anchor="start">misc-roi-distance-notes</text>
  <rect x="486.2" y="447.2" width="138.8" height="15" fill="#ffffff" opacity="0.75" rx="2" />
  <text x="487.2" y="458.2" font-family="system-ui, -apple-system, sans-serif" font-size="12" fill="#1f2328" text-anchor="start">Arduino_Coil_Winder</text>
  <rect x="470.5" y="459.7" width="30.8" height="15" fill="#ffffff" opacity="0.75" rx="2" />
  <text x="471.5" y="470.7" font-family="system-ui, -apple-system, sans-serif" font-size="12" fill="#1f2328" text-anchor="start">momo</text>
  <rect x="523.7" y="308.4" width="38.0" height="15" fill="#ffffff" opacity="0.75" rx="2" />
  <text x="524.7" y="319.4" font-family="system-ui, -apple-system, sans-serif" font-size="12" fill="#1f2328" text-anchor="start">clipi</text>
  <rect x="487.1" y="432.6" width="110.0" height="15" fill="#ffffff" opacity="0.75" rx="2" />
  <text x="488.1" y="443.6" font-family="system-ui, -apple-system, sans-serif" font-size="12" fill="#1f2328" text-anchor="start">AeroTaz5_hotfix</text>
  <rect x="778.7" y="116.7" width="110.0" height="15" fill="#ffffff" opacity="0.75" rx="2" />
  <text x="887.7" y="127.7" font-family="system-ui, -apple-system, sans-serif" font-size="12" fill="#1f2328" text-anchor="end">Funmat-HT-Notes</text>
  <rect x="501.0" y="155.0" width="81.2" height="15" fill="#ffffff" opacity="0.75" rx="2" />
  <text x="502.0" y="166.0" font-family="system-ui, -apple-system, sans-serif" font-size="12" fill="#1f2328" text-anchor="start">static-site</text>
  <rect x="559.0" y="362.8" width="95.6" height="15" fill="#ffffff" opacity="0.75" rx="2" />
  <text x="560.0" y="373.8" font-family="system-ui, -apple-system, sans-serif" font-size="12" fill="#1f2328" text-anchor="start">Flask-Manager</text>
  <rect x="570.8" y="253.4" width="110.0" height="15" fill="#ffffff" opacity="0.75" rx="2" />
  <text x="571.8" y="264.4" font-family="system-ui, -apple-system, sans-serif" font-size="12" fill="#1f2328" text-anchor="start">FieldProcessing</text>
  <rect x="663.7" y="224.0" width="81.2" height="15" fill="#ffffff" opacity="0.75" rx="2" />
  <text x="664.7" y="235.0" font-family="system-ui, -apple-system, sans-serif" font-size="12" fill="#1f2328" text-anchor="start">rJDKmanager</text>
  <rect x="527.0" y="401.1" width="59.6" height="15" fill="#ffffff" opacity="0.75" rx="2" />
  <text x="528.0" y="412.1" font-family="system-ui, -apple-system, sans-serif" font-size="12" fill="#1f2328" text-anchor="start">tagnotes</text>
  <rect x="491.9" y="418.1" width="81.2" height="15" fill="#ffffff" opacity="0.75" rx="2" />
  <text x="492.9" y="429.1" font-family="system-ui, -apple-system, sans-serif" font-size="12" fill="#1f2328" text-anchor="start">ChapelTests</text>
  <rect x="488.8" y="236.4" width="88.4" height="15" fill="#ffffff" opacity="0.75" rx="2" />
  <text x="489.8" y="247.4" font-family="system-ui, -apple-system, sans-serif" font-size="12" fill="#1f2328" text-anchor="start">Xfinity-WiFi</text>
  <rect x="86.5" y="74.3" width="66.8" height="15" fill="#ffffff" opacity="0.75" rx="2" />
  <text x="87.5" y="85.3" font-family="system-ui, -apple-system, sans-serif" font-size="12" fill="#1f2328" text-anchor="start">home-wiki</text>
  <rect x="793" y="36" width="155" height="120" rx="6" fill="#f6f8fa" stroke="#d0d7de" stroke-width="1" opacity="0.95" />
  <circle cx="810" cy="52" r="5" fill="#e74c3c" opacity="0.88" />
  <text x="820" y="56" font-family="system-ui, -apple-system, sans-serif" font-size="10" fill="#1f2328">Languages &amp; Compilers</text>
  <circle cx="810" cy="69" r="5" fill="#3498db" opacity="0.88" />
  <text x="820" y="73" font-family="system-ui, -apple-system, sans-serif" font-size="10" fill="#1f2328">Infrastructure &amp; DevOps</text>
  <circle cx="810" cy="86" r="5" fill="#e67e22" opacity="0.88" />
  <text x="820" y="90" font-family="system-ui, -apple-system, sans-serif" font-size="10" fill="#1f2328">Hardware &amp; Maker</text>
  <circle cx="810" cy="103" r="5" fill="#2ecc71" opacity="0.88" />
  <text x="820" y="107" font-family="system-ui, -apple-system, sans-serif" font-size="10" fill="#1f2328">ML &amp; Data</text>
  <circle cx="810" cy="120" r="5" fill="#9b59b6" opacity="0.88" />
  <text x="820" y="124" font-family="system-ui, -apple-system, sans-serif" font-size="10" fill="#1f2328">Web &amp; Apps</text>
  <circle cx="810" cy="137" r="5" fill="#7f8c8d" opacity="0.88" />
  <text x="820" y="141" font-family="system-ui, -apple-system, sans-serif" font-size="10" fill="#1f2328">Other</text>
  <text x="870" y="150" font-family="system-ui, -apple-system, sans-serif" font-size="8" fill="#656d76" text-anchor="middle">55 repos · 218 edges</text>
</svg>