<svg xmlns="http://www.w3.org/2000/svg" width="960" height="600" viewBox="0 0 960 600">
  <rect width="960" height="600" fill="#0d1117" rx="8" />
  <text x="480" y="24" font-family="system-ui, -apple-system, sans-serif" font-size="13" fill="#8b949e" text-anchor="middle" font-weight="500">Repo Relationship Graph &#x2014; Pairwise Topic &amp; Language Similarity</text>
  <line x1="50" y1="550" x2="910" y2="550" stroke="#484f58" stroke-width="0.5" opacity="0.5" />
  <text x="50" y="570" font-family="system-ui, -apple-system, sans-serif" font-size="9" fill="#8b949e" opacity="0.6">Updated daily by GitHub Actions</text>
  <text x="50" y="588" font-family="system-ui, -apple-system, sans-serif" font-size="9" fill="#8b949e" opacity="0.6">networkx spring_layout · Jaccard similarity &gt; 0.15</text>
  <text x="910" y="570" font-family="system-ui, -apple-system, sans-serif" font-size="9" fill="#8b949e" text-anchor="end" opacity="0.6">57 repos · 236 edges</text>
  <line x1="494.4" y1="275.9" x2="537.4" y2="291.0" stroke="#6e7681" stroke-width="1.0" opacity="0.22" />
  <line x1="494.4" y1="275.9" x2="563.9" y2="254.1" stroke="#6e7681" stroke-width="0.9" opacity="0.18" />
  <line x1="494.4" y1="275.9" x2="573.1" y2="271.1" stroke="#6e7681" stroke-width="1.0" opacity="0.23" />
  <line x1="494.4" y1="275.9" x2="552.0" y2="271.3" stroke="#6e7681" stroke-width="0.9" opacity="0.20" />
  <line x1="494.4" y1="275.9" x2="569.4" y2="279.7" stroke="#6e7681" stroke-width="0.9" opacity="0.18" />
  <line x1="537.4" y1="291.0" x2="513.9" y2="272.4" stroke="#6e7681" stroke-width="1.0" opacity="0.25" />
  <line x1="537.4" y1="291.0" x2="563.9" y2="254.1" stroke="#6e7681" stroke-width="0.9" opacity="0.21" />
  <line x1="537.4" y1="291.0" x2="573.1" y2="271.1" stroke="#6e7681" stroke-width="0.9" opacity="0.20" />
  <line x1="537.4" y1="291.0" x2="552.0" y2="271.3" stroke="#6e7681" stroke-width="1.0" opacity="0.24" />
  <line x1="537.4" y1="291.0" x2="524.4" y2="308.0" stroke="#6e7681" stroke-width="2.0" opacity="0.80" />
  <line x1="537.4" y1="291.0" x2="606.1" y2="295.4" stroke="#6e7681" stroke-width="1.0" opacity="0.22" />
  <line x1="537.4" y1="291.0" x2="589.1" y2="276.2" stroke="#6e7681" stroke-width="0.9" opacity="0.17" />
  <line x1="537.4" y1="291.0" x2="569.4" y2="279.7" stroke="#6e7681" stroke-width="0.9" opacity="0.20" />
  <line x1="537.4" y1="291.0" x2="561.7" y2="287.5" stroke="#6e7681" stroke-width="0.9" opacity="0.17" />
  <line x1="537.4" y1="291.0" x2="571.6" y2="295.2" stroke="#6e7681" stroke-width="1.5" opacity="0.55" />
  <line x1="537.4" y1="291.0" x2="621.7" y2="285.4" stroke="#6e7681" stroke-width="1.0" opacity="0.22" />
  <line x1="588.8" y1="180.9" x2="575.4" y2="164.5" stroke="#6e7681" stroke-width="1.5" opacity="0.55" />
  <line x1="588.8" y1="180.9" x2="592.4" y2="224.0" stroke="#6e7681" stroke-width="1.0" opacity="0.22" />
  <line x1="588.8" y1="180.9" x2="575.2" y2="142.5" stroke="#6e7681" stroke-width="1.2" opacity="0.37" />
  <line x1="588.8" y1="180.9" x2="620.9" y2="252.6" stroke="#6e7681" stroke-width="0.9" opacity="0.18" />
  <line x1="513.9" y1="272.4" x2="524.6" y2="240.6" stroke="#6e7681" stroke-width="1.2" opacity="0.38" />
  <line x1="513.9" y1="272.4" x2="563.9" y2="254.1" stroke="#6e7681" stroke-width="0.9" opacity="0.19" />
  <line x1="513.9" y1="272.4" x2="573.1" y2="271.1" stroke="#6e7681" stroke-width="0.9" opacity="0.18" />
  <line x1="513.9" y1="272.4" x2="552.0" y2="271.3" stroke="#6e7681" stroke-width="0.9" opacity="0.21" />
  <line x1="513.9" y1="272.4" x2="524.4" y2="308.0" stroke="#6e7681" stroke-width="0.9" opacity="0.17" />
  <line x1="513.9" y1="272.4" x2="569.4" y2="279.7" stroke="#6e7681" stroke-width="0.9" opacity="0.18" />
  <line x1="513.9" y1="272.4" x2="571.6" y2="295.2" stroke="#6e7681" stroke-width="1.0" opacity="0.24" />
  <line x1="524.6" y1="240.6" x2="563.9" y2="254.1" stroke="#6e7681" stroke-width="1.2" opacity="0.34" />
  <line x1="524.6" y1="240.6" x2="573.1" y2="271.1" stroke="#6e7681" stroke-width="0.9" opacity="0.18" />
  <line x1="524.6" y1="240.6" x2="547.0" y2="220.9" stroke="#6e7681" stroke-width="1.0" opacity="0.25" />
  <line x1="524.6" y1="240.6" x2="600.0" y2="241.6" stroke="#6e7681" stroke-width="0.9" opacity="0.20" />
  <line x1="524.6" y1="240.6" x2="592.4" y2="224.0" stroke="#6e7681" stroke-width="1.0" opacity="0.22" />
  <line x1="563.9" y1="254.1" x2="573.1" y2="271.1" stroke="#6e7681" stroke-width="1.1" opacity="0.29" />
  <line x1="563.9" y1="254.1" x2="547.0" y2="220.9" stroke="#6e7681" stroke-width="1.2" opacity="0.34" />
  <line x1="563.9" y1="254.1" x2="552.0" y2="271.3" stroke="#6e7681" stroke-width="1.1" opacity="0.30" />
  <line x1="563.9" y1="254.1" x2="589.1" y2="276.2" stroke="#6e7681" stroke-width="0.9" opacity="0.20" />
  <line x1="563.9" y1="254.1" x2="569.4" y2="279.7" stroke="#6e7681" stroke-width="1.0" opacity="0.22" />
  <line x1="563.9" y1="254.1" x2="561.7" y2="287.5" stroke="#6e7681" stroke-width="0.9" opacity="0.20" />
  <line x1="563.9" y1="254.1" x2="571.6" y2="295.2" stroke="#6e7681" stroke-width="0.9" opacity="0.19" />
  <line x1="563.9" y1="254.1" x2="600.0" y2="241.6" stroke="#6e7681" stroke-width="1.2" opacity="0.37" />
  <line x1="563.9" y1="254.1" x2="592.4" y2="224.0" stroke="#6e7681" stroke-width="1.2" opacity="0.37" />
  <line x1="563.9" y1="254.1" x2="575.7" y2="240.1" stroke="#6e7681" stroke-width="1.1" opacity="0.29" />
  <line x1="563.9" y1="254.1" x2="606.7" y2="253.7" stroke="#6e7681" stroke-width="1.0" opacity="0.22" />
  <line x1="563.9" y1="254.1" x2="620.9" y2="252.6" stroke="#6e7681" stroke-width="1.2" opacity="0.34" />
  <line x1="563.9" y1="254.1" x2="626.5" y2="243.1" stroke="#6e7681" stroke-width="1.0" opacity="0.24" />
  <line x1="563.9" y1="254.1" x2="622.3" y2="266.2" stroke="#6e7681" stroke-width="1.1" opacity="0.29" />
  <line x1="563.9" y1="254.1" x2="617.2" y2="233.4" stroke="#6e7681" stroke-width="1.0" opacity="0.22" />
  <line x1="573.1" y1="271.1" x2="552.0" y2="271.3" stroke="#6e7681" stroke-width="1.0" opacity="0.24" />
  <line x1="573.1" y1="271.1" x2="606.1" y2="295.4" stroke="#6e7681" stroke-width="1.0" opacity="0.24" />
  <line x1="573.1" y1="271.1" x2="595.6" y2="307.2" stroke="#6e7681" stroke-width="0.9" opacity="0.21" />
  <line x1="573.1" y1="271.1" x2="589.1" y2="276.2" stroke="#6e7681" stroke-width="1.1" opacity="0.28" />
  <line x1="573.1" y1="271.1" x2="569.4" y2="279.7" stroke="#6e7681" stroke-width="1.1" opacity="0.31" />
  <line x1="573.1" y1="271.1" x2="561.7" y2="287.5" stroke="#6e7681" stroke-width="1.1" opacity="0.28" />
  <line x1="573.1" y1="271.1" x2="571.6" y2="295.2" stroke="#6e7681" stroke-width="0.9" opacity="0.18" />
  <line x1="573.1" y1="271.1" x2="600.0" y2="241.6" stroke="#6e7681" stroke-width="0.9" opacity="0.17" />
  <line x1="573.1" y1="271.1" x2="645.8" y2="275.3" stroke="#6e7681" stroke-width="0.9" opacity="0.17" />
  <line x1="573.1" y1="271.1" x2="634.2" y2="282.9" stroke="#6e7681" stroke-width="0.9" opacity="0.20" />
  <line x1="573.1" y1="271.1" x2="620.9" y2="252.6" stroke="#6e7681" stroke-width="0.9" opacity="0.17" />
  <line x1="573.1" y1="271.1" x2="626.5" y2="243.1" stroke="#6e7681" stroke-width="0.9" opacity="0.17" />
  <line x1="573.1" y1="271.1" x2="622.3" y2="266.2" stroke="#6e7681" stroke-width="1.1" opacity="0.33" />
  <line x1="573.1" y1="271.1" x2="621.7" y2="285.4" stroke="#6e7681" stroke-width="1.0" opacity="0.24" />
  <line x1="547.0" y1="220.9" x2="600.0" y2="241.6" stroke="#6e7681" stroke-width="1.0" opacity="0.25" />
  <line x1="547.0" y1="220.9" x2="592.4" y2="224.0" stroke="#6e7681" stroke-width="1.1" opacity="0.29" />
  <line x1="547.0" y1="220.9" x2="617.2" y2="233.4" stroke="#6e7681" stroke-width="0.9" opacity="0.17" />
  <line x1="552.0" y1="271.3" x2="606.1" y2="295.4" stroke="#6e7681" stroke-width="0.9" opacity="0.17" />
  <line x1="552.0" y1="271.3" x2="589.1" y2="276.2" stroke="#6e7681" stroke-width="1.0" opacity="0.22" />
  <line x1="552.0" y1="271.3" x2="569.4" y2="279.7" stroke="#6e7681" stroke-width="1.0" opacity="0.24" />
  <line x1="552.0" y1="271.3" x2="561.7" y2="287.5" stroke="#6e7681" stroke-width="1.0" opacity="0.22" />
  <line x1="552.0" y1="271.3" x2="571.6" y2="295.2" stroke="#6e7681" stroke-width="1.0" opacity="0.22" />
  <line x1="552.0" y1="271.3" x2="575.7" y2="240.1" stroke="#6e7681" stroke-width="0.9" opacity="0.19" />
  <line x1="552.0" y1="271.3" x2="620.9" y2="252.6" stroke="#6e7681" stroke-width="0.9" opacity="0.21" />
  <line x1="552.0" y1="271.3" x2="622.3" y2="266.2" stroke="#6e7681" stroke-width="1.0" opacity="0.24" />
  <line x1="552.0" y1="271.3" x2="621.7" y2="285.4" stroke="#6e7681" stroke-width="0.9" opacity="0.17" />
  <line x1="646.3" y1="221.8" x2="600.0" y2="241.6" stroke="#6e7681" stroke-width="0.9" opacity="0.18" />
  <line x1="646.3" y1="221.8" x2="592.4" y2="224.0" stroke="#6e7681" stroke-width="0.9" opacity="0.18" />
  <line x1="646.3" y1="221.8" x2="620.9" y2="252.6" stroke="#6e7681" stroke-width="0.9" opacity="0.17" />
  <line x1="646.3" y1="221.8" x2="626.5" y2="243.1" stroke="#6e7681" stroke-width="1.3" opacity="0.42" />
  <line x1="646.3" y1="221.8" x2="622.3" y2="266.2" stroke="#6e7681" stroke-width="0.9" opacity="0.19" />
  <line x1="646.3" y1="221.8" x2="617.2" y2="233.4" stroke="#6e7681" stroke-width="0.9" opacity="0.21" />
  <line x1="524.4" y1="308.0" x2="606.1" y2="295.4" stroke="#6e7681" stroke-width="1.1" opacity="0.28" />
  <line x1="524.4" y1="308.0" x2="571.6" y2="295.2" stroke="#6e7681" stroke-width="1.2" opacity="0.37" />
  <line x1="606.1" y1="295.4" x2="589.1" y2="276.2" stroke="#6e7681" stroke-width="0.9" opacity="0.20" />
  <line x1="606.1" y1="295.4" x2="569.4" y2="279.7" stroke="#6e7681" stroke-width="1.0" opacity="0.24" />
  <line x1="606.1" y1="295.4" x2="561.7" y2="287.5" stroke="#6e7681" stroke-width="0.9" opacity="0.20" />
  <line x1="606.1" y1="295.4" x2="571.6" y2="295.2" stroke="#6e7681" stroke-width="0.9" opacity="0.18" />
  <line x1="606.1" y1="295.4" x2="647.5" y2="292.2" stroke="#6e7681" stroke-width="1.5" opacity="0.55" />
  <line x1="606.1" y1="295.4" x2="664.8" y2="296.6" stroke="#6e7681" stroke-width="1.2" opacity="0.37" />
  <line x1="606.1" y1="295.4" x2="634.2" y2="282.9" stroke="#6e7681" stroke-width="1.0" opacity="0.22" />
  <line x1="606.1" y1="295.4" x2="622.3" y2="266.2" stroke="#6e7681" stroke-width="1.0" opacity="0.22" />
  <line x1="606.1" y1="295.4" x2="642.8" y2="304.1" stroke="#6e7681" stroke-width="1.2" opacity="0.37" />
  <line x1="606.1" y1="295.4" x2="665.7" y2="274.1" stroke="#6e7681" stroke-width="1.1" opacity="0.28" />
  <line x1="606.1" y1="295.4" x2="667.2" y2="305.3" stroke="#6e7681" stroke-width="1.2" opacity="0.37" />
  <line x1="606.1" y1="295.4" x2="621.7" y2="285.4" stroke="#6e7681" stroke-width="1.2" opacity="0.37" />
  <line x1="595.6" y1="307.2" x2="634.2" y2="282.9" stroke="#6e7681" stroke-width="0.9" opacity="0.18" />
  <line x1="595.6" y1="307.2" x2="622.3" y2="266.2" stroke="#6e7681" stroke-width="1.1" opacity="0.30" />
  <line x1="595.6" y1="307.2" x2="621.7" y2="285.4" stroke="#6e7681" stroke-width="1.0" opacity="0.22" />
  <line x1="589.1" y1="276.2" x2="569.4" y2="279.7" stroke="#6e7681" stroke-width="1.1" opacity="0.28" />
  <line x1="589.1" y1="276.2" x2="561.7" y2="287.5" stroke="#6e7681" stroke-width="1.0" opacity="0.24" />
  <line x1="589.1" y1="276.2" x2="606.7" y2="253.7" stroke="#6e7681" stroke-width="0.9" opacity="0.19" />
  <line x1="589.1" y1="276.2" x2="650.6" y2="255.4" stroke="#6e7681" stroke-width="0.9" opacity="0.18" />
  <line x1="589.1" y1="276.2" x2="634.2" y2="282.9" stroke="#6e7681" stroke-width="0.9" opacity="0.17" />
  <line x1="589.1" y1="276.2" x2="622.3" y2="266.2" stroke="#6e7681" stroke-width="0.9" opacity="0.17" />
  <line x1="589.1" y1="276.2" x2="621.7" y2="285.4" stroke="#6e7681" stroke-width="0.9" opacity="0.20" />
  <line x1="569.4" y1="279.7" x2="561.7" y2="287.5" stroke="#6e7681" stroke-width="1.1" opacity="0.28" />
  <line x1="569.4" y1="279.7" x2="571.6" y2="295.2" stroke="#6e7681" stroke-width="0.9" opacity="0.18" />
  <line x1="569.4" y1="279.7" x2="645.8" y2="275.3" stroke="#6e7681" stroke-width="0.9" opacity="0.17" />
  <line x1="569.4" y1="279.7" x2="634.2" y2="282.9" stroke="#6e7681" stroke-width="0.9" opacity="0.20" />
  <line x1="569.4" y1="279.7" x2="620.9" y2="252.6" stroke="#6e7681" stroke-width="0.9" opacity="0.17" />
  <line x1="569.4" y1="279.7" x2="622.3" y2="266.2" stroke="#6e7681" stroke-width="0.9" opacity="0.20" />
  <line x1="569.4" y1="279.7" x2="621.7" y2="285.4" stroke="#6e7681" stroke-width="1.0" opacity="0.24" />
  <line x1="561.7" y1="287.5" x2="634.2" y2="282.9" stroke="#6e7681" stroke-width="0.9" opacity="0.17" />
  <line x1="561.7" y1="287.5" x2="622.3" y2="266.2" stroke="#6e7681" stroke-width="0.9" opacity="0.17" />
  <line x1="561.7" y1="287.5" x2="621.7" y2="285.4" stroke="#6e7681" stroke-width="0.9" opacity="0.20" />
  <line x1="571.6" y1="295.2" x2="708.1" y2="287.3" stroke="#6e7681" stroke-width="1.0" opacity="0.22" />
  <line x1="571.6" y1="295.2" x2="621.7" y2="285.4" stroke="#6e7681" stroke-width="0.9" opacity="0.18" />
  <line x1="768.8" y1="324.8" x2="704.0" y2="302.1" stroke="#6e7681" stroke-width="1.3" opacity="0.44" />
  <line x1="768.8" y1="324.8" x2="729.6" y2="330.7" stroke="#6e7681" stroke-width="0.9" opacity="0.18" />
  <line x1="704.0" y1="302.1" x2="664.8" y2="296.6" stroke="#6e7681" stroke-width="1.1" opacity="0.31" />
  <line x1="704.0" y1="302.1" x2="645.8" y2="275.3" stroke="#6e7681" stroke-width="0.9" opacity="0.20" />
  <line x1="704.0" y1="302.1" x2="634.2" y2="282.9" stroke="#6e7681" stroke-width="1.0" opacity="0.24" />
  <line x1="704.0" y1="302.1" x2="620.9" y2="252.6" stroke="#6e7681" stroke-width="0.9" opacity="0.20" />
  <line x1="704.0" y1="302.1" x2="622.3" y2="266.2" stroke="#6e7681" stroke-width="1.0" opacity="0.24" />
  <line x1="704.0" y1="302.1" x2="673.8" y2="264.9" stroke="#6e7681" stroke-width="0.9" opacity="0.18" />
  <line x1="704.0" y1="302.1" x2="847.7" y2="357.6" stroke="#6e7681" stroke-width="0.9" opacity="0.17" />
  <line x1="704.0" y1="302.1" x2="667.2" y2="305.3" stroke="#6e7681" stroke-width="1.1" opacity="0.31" />
  <line x1="704.0" y1="302.1" x2="729.6" y2="330.7" stroke="#6e7681" stroke-width="1.1" opacity="0.30" />
  <line x1="704.0" y1="302.1" x2="621.7" y2="285.4" stroke="#6e7681" stroke-width="1.1" opacity="0.31" />
  <line x1="245.2" y1="497.0" x2="273.3" y2="500.0" stroke="#6e7681" stroke-width="1.6" opacity="0.60" />
  <line x1="575.4" y1="164.5" x2="592.4" y2="224.0" stroke="#6e7681" stroke-width="0.9" opacity="0.18" />
  <line x1="575.4" y1="164.5" x2="575.2" y2="142.5" stroke="#6e7681" stroke-width="1.1" opacity="0.28" />
  <line x1="654.6" y1="236.6" x2="600.0" y2="241.6" stroke="#6e7681" stroke-width="0.9" opacity="0.17" />
  <line x1="654.6" y1="236.6" x2="592.4" y2="224.0" stroke="#6e7681" stroke-width="0.9" opacity="0.18" />
  <line x1="654.6" y1="236.6" x2="606.7" y2="253.7" stroke="#6e7681" stroke-width="1.0" opacity="0.22" />
  <line x1="654.6" y1="236.6" x2="620.9" y2="252.6" stroke="#6e7681" stroke-width="1.1" opacity="0.28" />
  <line x1="654.6" y1="236.6" x2="626.5" y2="243.1" stroke="#6e7681" stroke-width="1.1" opacity="0.32" />
  <line x1="654.6" y1="236.6" x2="622.3" y2="266.2" stroke="#6e7681" stroke-width="0.9" opacity="0.20" />
  <line x1="654.6" y1="236.6" x2="617.2" y2="233.4" stroke="#6e7681" stroke-width="1.0" opacity="0.22" />
  <line x1="654.6" y1="236.6" x2="665.7" y2="274.1" stroke="#6e7681" stroke-width="1.0" opacity="0.22" />
  <line x1="600.0" y1="241.6" x2="592.4" y2="224.0" stroke="#6e7681" stroke-width="1.3" opacity="0.42" />
  <line x1="600.0" y1="241.6" x2="621.7" y2="218.0" stroke="#6e7681" stroke-width="0.9" opacity="0.18" />
  <line x1="600.0" y1="241.6" x2="575.7" y2="240.1" stroke="#6e7681" stroke-width="1.1" opacity="0.31" />
  <line x1="600.0" y1="241.6" x2="606.7" y2="253.7" stroke="#6e7681" stroke-width="1.1" opacity="0.32" />
  <line x1="600.0" y1="241.6" x2="650.6" y2="255.4" stroke="#6e7681" stroke-width="1.0" opacity="0.23" />
  <line x1="600.0" y1="241.6" x2="620.9" y2="252.6" stroke="#6e7681" stroke-width="1.2" opacity="0.39" />
  <line x1="600.0" y1="241.6" x2="626.5" y2="243.1" stroke="#6e7681" stroke-width="1.0" opacity="0.26" />
  <line x1="600.0" y1="241.6" x2="622.3" y2="266.2" stroke="#6e7681" stroke-width="1.2" opacity="0.34" />
  <line x1="600.0" y1="241.6" x2="673.8" y2="264.9" stroke="#6e7681" stroke-width="0.9" opacity="0.19" />
  <line x1="600.0" y1="241.6" x2="617.2" y2="233.4" stroke="#6e7681" stroke-width="1.0" opacity="0.25" />
  <line x1="600.0" y1="241.6" x2="621.7" y2="285.4" stroke="#6e7681" stroke-width="0.9" opacity="0.17" />
  <line x1="592.4" y1="224.0" x2="621.7" y2="218.0" stroke="#6e7681" stroke-width="1.1" opacity="0.33" />
  <line x1="592.4" y1="224.0" x2="575.7" y2="240.1" stroke="#6e7681" stroke-width="0.9" opacity="0.21" />
  <line x1="592.4" y1="224.0" x2="606.7" y2="253.7" stroke="#6e7681" stroke-width="0.9" opacity="0.18" />
  <line x1="592.4" y1="224.0" x2="620.9" y2="252.6" stroke="#6e7681" stroke-width="1.3" opacity="0.41" />
  <line x1="592.4" y1="224.0" x2="626.5" y2="243.1" stroke="#6e7681" stroke-width="1.0" opacity="0.22" />
  <line x1="592.4" y1="224.0" x2="622.3" y2="266.2" stroke="#6e7681" stroke-width="1.1" opacity="0.31" />
  <line x1="592.4" y1="224.0" x2="617.2" y2="233.4" stroke="#6e7681" stroke-width="1.7" opacity="0.66" />
  <line x1="647.5" y1="292.2" x2="664.8" y2="296.6" stroke="#6e7681" stroke-width="1.5" opacity="0.55" />
  <line x1="647.5" y1="292.2" x2="645.8" y2="275.3" stroke="#6e7681" stroke-width="0.9" opacity="0.18" />
  <line x1="647.5" y1="292.2" x2="634.2" y2="282.9" stroke="#6e7681" stroke-width="1.1" opacity="0.28" />
  <line x1="647.5" y1="292.2" x2="620.9" y2="252.6" stroke="#6e7681" stroke-width="0.9" opacity="0.18" />
  <line x1="647.5" y1="292.2" x2="622.3" y2="266.2" stroke="#6e7681" stroke-width="1.1" opacity="0.28" />
  <line x1="647.5" y1="292.2" x2="642.8" y2="304.1" stroke="#6e7681" stroke-width="1.5" opacity="0.55" />
  <line x1="647.5" y1="292.2" x2="665.7" y2="274.1" stroke="#6e7681" stroke-width="1.2" opacity="0.37" />
  <line x1="647.5" y1="292.2" x2="667.2" y2="305.3" stroke="#6e7681" stroke-width="1.5" opacity="0.55" />
  <line x1="647.5" y1="292.2" x2="621.7" y2="285.4" stroke="#6e7681" stroke-width="1.5" opacity="0.55" />
  <line x1="664.8" y1="296.6" x2="634.2" y2="282.9" stroke="#6e7681" stroke-width="1.0" opacity="0.22" />
  <line x1="664.8" y1="296.6" x2="622.3" y2="266.2" stroke="#6e7681" stroke-width="1.0" opacity="0.22" />
  <line x1="664.8" y1="296.6" x2="642.8" y2="304.1" stroke="#6e7681" stroke-width="1.2" opacity="0.37" />
  <line x1="664.8" y1="296.6" x2="665.7" y2="274.1" stroke="#6e7681" stroke-width="1.1" opacity="0.28" />
  <line x1="664.8" y1="296.6" x2="667.2" y2="305.3" stroke="#6e7681" stroke-width="1.2" opacity="0.37" />
  <line x1="664.8" y1="296.6" x2="621.7" y2="285.4" stroke="#6e7681" stroke-width="1.2" opacity="0.37" />
  <line x1="621.7" y1="218.0" x2="620.9" y2="252.6" stroke="#6e7681" stroke-width="0.9" opacity="0.18" />
  <line x1="621.7" y1="218.0" x2="626.5" y2="243.1" stroke="#6e7681" stroke-width="0.9" opacity="0.18" />
  <line x1="621.7" y1="218.0" x2="622.3" y2="266.2" stroke="#6e7681" stroke-width="1.0" opacity="0.22" />
  <line x1="621.7" y1="218.0" x2="617.2" y2="233.4" stroke="#6e7681" stroke-width="1.3" opacity="0.41" />
  <line x1="575.7" y1="240.1" x2="606.7" y2="253.7" stroke="#6e7681" stroke-width="1.1" opacity="0.31" />
  <line x1="575.7" y1="240.1" x2="620.9" y2="252.6" stroke="#6e7681" stroke-width="1.4" opacity="0.47" />
  <line x1="575.7" y1="240.1" x2="626.5" y2="243.1" stroke="#6e7681" stroke-width="0.9" opacity="0.19" />
  <line x1="575.7" y1="240.1" x2="622.3" y2="266.2" stroke="#6e7681" stroke-width="1.0" opacity="0.22" />
  <line x1="606.7" y1="253.7" x2="650.6" y2="255.4" stroke="#6e7681" stroke-width="1.1" opacity="0.29" />
  <line x1="606.7" y1="253.7" x2="645.8" y2="275.3" stroke="#6e7681" stroke-width="0.9" opacity="0.17" />
  <line x1="606.7" y1="253.7" x2="634.2" y2="282.9" stroke="#6e7681" stroke-width="0.9" opacity="0.20" />
  <line x1="606.7" y1="253.7" x2="620.9" y2="252.6" stroke="#6e7681" stroke-width="1.3" opacity="0.40" />
  <line x1="606.7" y1="253.7" x2="626.5" y2="243.1" stroke="#6e7681" stroke-width="1.0" opacity="0.24" />
  <line x1="606.7" y1="253.7" x2="622.3" y2="266.2" stroke="#6e7681" stroke-width="0.9" opacity="0.20" />
  <line x1="606.7" y1="253.7" x2="621.7" y2="285.4" stroke="#6e7681" stroke-width="1.0" opacity="0.24" />
  <line x1="650.6" y1="255.4" x2="634.2" y2="282.9" stroke="#6e7681" stroke-width="0.9" opacity="0.18" />
  <line x1="650.6" y1="255.4" x2="626.5" y2="243.1" stroke="#6e7681" stroke-width="1.0" opacity="0.23" />
  <line x1="650.6" y1="255.4" x2="622.3" y2="266.2" stroke="#6e7681" stroke-width="0.9" opacity="0.18" />
  <line x1="650.6" y1="255.4" x2="673.8" y2="264.9" stroke="#6e7681" stroke-width="1.0" opacity="0.24" />
  <line x1="650.6" y1="255.4" x2="621.7" y2="285.4" stroke="#6e7681" stroke-width="1.0" opacity="0.22" />
  <line x1="645.8" y1="275.3" x2="634.2" y2="282.9" stroke="#6e7681" stroke-width="1.1" opacity="0.28" />
  <line x1="645.8" y1="275.3" x2="620.9" y2="252.6" stroke="#6e7681" stroke-width="1.0" opacity="0.22" />
  <line x1="645.8" y1="275.3" x2="622.3" y2="266.2" stroke="#6e7681" stroke-width="1.1" opacity="0.28" />
  <line x1="645.8" y1="275.3" x2="673.8" y2="264.9" stroke="#6e7681" stroke-width="0.9" opacity="0.20" />
  <line x1="645.8" y1="275.3" x2="621.7" y2="285.4" stroke="#6e7681" stroke-width="1.2" opacity="0.37" />
  <line x1="634.2" y1="282.9" x2="620.9" y2="252.6" stroke="#6e7681" stroke-width="1.1" opacity="0.28" />
  <line x1="634.2" y1="282.9" x2="622.3" y2="266.2" stroke="#6e7681" stroke-width="1.2" opacity="0.37" />
  <line x1="634.2" y1="282.9" x2="642.8" y2="304.1" stroke="#6e7681" stroke-width="1.0" opacity="0.22" />
  <line x1="634.2" y1="282.9" x2="673.8" y2="264.9" stroke="#6e7681" stroke-width="1.0" opacity="0.24" />
  <line x1="634.2" y1="282.9" x2="665.7" y2="274.1" stroke="#6e7681" stroke-width="0.9" opacity="0.18" />
  <line x1="634.2" y1="282.9" x2="667.2" y2="305.3" stroke="#6e7681" stroke-width="1.0" opacity="0.22" />
  <line x1="634.2" y1="282.9" x2="621.7" y2="285.4" stroke="#6e7681" stroke-width="1.5" opacity="0.55" />
  <line x1="620.9" y1="252.6" x2="626.5" y2="243.1" stroke="#6e7681" stroke-width="1.1" opacity="0.29" />
  <line x1="620.9" y1="252.6" x2="622.3" y2="266.2" stroke="#6e7681" stroke-width="1.4" opacity="0.47" />
  <line x1="620.9" y1="252.6" x2="673.8" y2="264.9" stroke="#6e7681" stroke-width="0.9" opacity="0.20" />
  <line x1="620.9" y1="252.6" x2="617.2" y2="233.4" stroke="#6e7681" stroke-width="1.1" opacity="0.31" />
  <line x1="620.9" y1="252.6" x2="665.7" y2="274.1" stroke="#6e7681" stroke-width="1.1" opacity="0.31" />
  <line x1="620.9" y1="252.6" x2="621.7" y2="285.4" stroke="#6e7681" stroke-width="1.2" opacity="0.37" />
  <line x1="626.5" y1="243.1" x2="622.3" y2="266.2" stroke="#6e7681" stroke-width="1.2" opacity="0.34" />
  <line x1="626.5" y1="243.1" x2="617.2" y2="233.4" stroke="#6e7681" stroke-width="1.0" opacity="0.25" />
  <line x1="626.5" y1="243.1" x2="665.7" y2="274.1" stroke="#6e7681" stroke-width="1.0" opacity="0.25" />
  <line x1="626.5" y1="243.1" x2="621.7" y2="285.4" stroke="#6e7681" stroke-width="0.9" opacity="0.17" />
  <line x1="622.3" y1="266.2" x2="642.8" y2="304.1" stroke="#6e7681" stroke-width="1.0" opacity="0.22" />
  <line x1="622.3" y1="266.2" x2="673.8" y2="264.9" stroke="#6e7681" stroke-width="1.0" opacity="0.24" />
  <line x1="622.3" y1="266.2" x2="617.2" y2="233.4" stroke="#6e7681" stroke-width="1.3" opacity="0.44" />
  <line x1="622.3" y1="266.2" x2="665.7" y2="274.1" stroke="#6e7681" stroke-width="1.3" opacity="0.44" />
  <line x1="622.3" y1="266.2" x2="667.2" y2="305.3" stroke="#6e7681" stroke-width="1.0" opacity="0.22" />
  <line x1="622.3" y1="266.2" x2="621.7" y2="285.4" stroke="#6e7681" stroke-width="1.5" opacity="0.55" />
  <line x1="847.6" y1="82.4" x2="876.8" y2="97.9" stroke="#6e7681" stroke-width="1.0" opacity="0.22" />
  <line x1="609.8" y1="346.8" x2="621.7" y2="285.4" stroke="#6e7681" stroke-width="1.0" opacity="0.22" />
  <line x1="642.8" y1="304.1" x2="665.7" y2="274.1" stroke="#6e7681" stroke-width="1.1" opacity="0.28" />
  <line x1="642.8" y1="304.1" x2="667.2" y2="305.3" stroke="#6e7681" stroke-width="1.2" opacity="0.37" />
  <line x1="642.8" y1="304.1" x2="621.7" y2="285.4" stroke="#6e7681" stroke-width="1.2" opacity="0.37" />
  <line x1="904.6" y1="375.5" x2="910.0" y2="388.2" stroke="#6e7681" stroke-width="1.5" opacity="0.55" />
  <line x1="904.6" y1="375.5" x2="847.7" y2="357.6" stroke="#6e7681" stroke-width="1.3" opacity="0.41" />
  <line x1="910.0" y1="388.2" x2="847.7" y2="357.6" stroke="#6e7681" stroke-width="1.0" opacity="0.24" />
  <line x1="673.8" y1="264.9" x2="621.7" y2="285.4" stroke="#6e7681" stroke-width="1.1" opacity="0.31" />
  <line x1="617.2" y1="233.4" x2="665.7" y2="274.1" stroke="#6e7681" stroke-width="1.0" opacity="0.22" />
  <line x1="665.7" y1="274.1" x2="708.1" y2="287.3" stroke="#6e7681" stroke-width="1.2" opacity="0.37" />
  <line x1="665.7" y1="274.1" x2="772.0" y2="277.7" stroke="#6e7681" stroke-width="0.9" opacity="0.18" />
  <line x1="665.7" y1="274.1" x2="667.2" y2="305.3" stroke="#6e7681" stroke-width="1.1" opacity="0.28" />
  <line x1="665.7" y1="274.1" x2="621.7" y2="285.4" stroke="#6e7681" stroke-width="1.1" opacity="0.28" />
  <line x1="708.1" y1="287.3" x2="772.0" y2="277.7" stroke="#6e7681" stroke-width="1.1" opacity="0.28" />
  <line x1="667.2" y1="305.3" x2="729.6" y2="330.7" stroke="#6e7681" stroke-width="1.1" opacity="0.31" />
  <line x1="667.2" y1="305.3" x2="621.7" y2="285.4" stroke="#6e7681" stroke-width="1.2" opacity="0.37" />
  <circle cx="494.4" cy="275.9" r="20" fill="#e74c3c" opacity="0.12" />
  <circle cx="494.4" cy="275.9" r="16" fill="#e74c3c" opacity="0.88" />
  <circle cx="537.4" cy="291.0" r="11.7" fill="#3498db" opacity="0.12" />
  <circle cx="537.4" cy="291.0" r="7.7" fill="#3498db" opacity="0.88" />
  <circle cx="588.8" cy="180.9" r="9" fill="#7f8c8d" opacity="0.12" />
  <circle cx="588.8" cy="180.9" r="5" fill="#7f8c8d" opacity="0.88" />
  <circle cx="513.9" cy="272.4" r="18.9" fill="#3498db" opacity="0.12" />
  <circle cx="513.9" cy="272.4" r="14.9" fill="#3498db" opacity="0.88" />
  <circle cx="524.6" cy="240.6" r="20" fill="#3498db" opacity="0.12" />
  <circle cx="524.6" cy="240.6" r="16" fill="#3498db" opacity="0.88" />
  <circle cx="563.9" cy="254.1" r="20" fill="#7f8c8d" opacity="0.12" />
  <circle cx="563.9" cy="254.1" r="16" fill="#7f8c8d" opacity="0.88" />
  <circle cx="573.1" cy="271.1" r="16.2" fill="#e67e22" opacity="0.12" />
  <circle cx="573.1" cy="271.1" r="12.2" fill="#e67e22" opacity="0.88" />
  <circle cx="547.0" cy="220.9" r="20" fill="#e74c3c" opacity="0.12" />
  <circle cx="547.0" cy="220.9" r="16" fill="#e74c3c" opacity="0.88" />
  <circle cx="552.0" cy="271.3" r="19.8" fill="#7f8c8d" opacity="0.12" />
  <circle cx="552.0" cy="271.3" r="15.8" fill="#7f8c8d" opacity="0.88" />
  <circle cx="646.3" cy="221.8" r="20" fill="#9b59b6" opacity="0.12" />
  <circle cx="646.3" cy="221.8" r="16" fill="#9b59b6" opacity="0.88" />
  <circle cx="524.4" cy="308.0" r="10.8" fill="#3498db" opacity="0.12" />
  <circle cx="524.4" cy="308.0" r="6.8" fill="#3498db" opacity="0.88" />
  <circle cx="606.1" cy="295.4" r="9.9" fill="#3498db" opacity="0.12" />
  <circle cx="606.1" cy="295.4" r="5.9" fill="#3498db" opacity="0.88" />
  <circle cx="595.6" cy="307.2" r="17.1" fill="#e67e22" opacity="0.12" />
  <circle cx="595.6" cy="307.2" r="13.1" fill="#e67e22" opacity="0.88" />
  <circle cx="589.1" cy="276.2" r="18.0" fill="#3498db" opacity="0.12" />
  <circle cx="589.1" cy="276.2" r="14.0" fill="#3498db" opacity="0.88" />
  <circle cx="569.4" cy="279.7" r="16.2" fill="#3498db" opacity="0.12" />
  <circle cx="569.4" cy="279.7" r="12.2" fill="#3498db" opacity="0.88" />
  <circle cx="561.7" cy="287.5" r="18.0" fill="#3498db" opacity="0.12" />
  <circle cx="561.7" cy="287.5" r="14.0" fill="#3498db" opacity="0.88" />
  <circle cx="571.6" cy="295.2" r="12.6" fill="#2ecc71" opacity="0.12" />
  <circle cx="571.6" cy="295.2" r="8.6" fill="#2ecc71" opacity="0.88" />
  <circle cx="768.8" cy="324.8" r="14.4" fill="#e74c3c" opacity="0.12" />
  <circle cx="768.8" cy="324.8" r="10.4" fill="#e74c3c" opacity="0.88" />
  <circle cx="355.3" cy="50.0" r="16.2" fill="#3498db" opacity="0.12" />
  <circle cx="355.3" cy="50.0" r="12.2" fill="#3498db" opacity="0.88" />
  <circle cx="704.0" cy="302.1" r="14.4" fill="#e74c3c" opacity="0.12" />
  <circle cx="704.0" cy="302.1" r="10.4" fill="#e74c3c" opacity="0.88" />
  <circle cx="51.0" cy="251.6" r="9" fill="#3498db" opacity="0.12" />
  <circle cx="51.0" cy="251.6" r="5" fill="#3498db" opacity="0.88" />
  <circle cx="245.2" cy="497.0" r="16.2" fill="#3498db" opacity="0.12" />
  <circle cx="245.2" cy="497.0" r="12.2" fill="#3498db" opacity="0.88" />
  <circle cx="273.3" cy="500.0" r="15.3" fill="#3498db" opacity="0.12" />
  <circle cx="273.3" cy="500.0" r="11.3" fill="#3498db" opacity="0.88" />
  <circle cx="575.4" cy="164.5" r="9.9" fill="#3498db" opacity="0.12" />
  <circle cx="575.4" cy="164.5" r="5.9" fill="#3498db" opacity="0.88" />
  <circle cx="654.6" cy="236.6" r="16.2" fill="#9b59b6" opacity="0.12" />
  <circle cx="654.6" cy="236.6" r="12.2" fill="#9b59b6" opacity="0.88" />
  <circle cx="600.0" cy="241.6" r="19.8" fill="#9b59b6" opacity="0.12" />
  <circle cx="600.0" cy="241.6" r="15.8" fill="#9b59b6" opacity="0.88" />
  <circle cx="592.4" cy="224.0" r="12.6" fill="#9b59b6" opacity="0.12" />
  <circle cx="592.4" cy="224.0" r="8.6" fill="#9b59b6" opacity="0.88" />
  <circle cx="647.5" cy="292.2" r="9" fill="#2ecc71" opacity="0.12" />
  <circle cx="647.5" cy="292.2" r="5" fill="#2ecc71" opacity="0.88" />
  <circle cx="664.8" cy="296.6" r="9.9" fill="#7f8c8d" opacity="0.12" />
  <circle cx="664.8" cy="296.6" r="5.9" fill="#7f8c8d" opacity="0.88" />
  <circle cx="621.7" cy="218.0" r="15.3" fill="#e67e22" opacity="0.12" />
  <circle cx="621.7" cy="218.0" r="11.3" fill="#e67e22" opacity="0.88" />
  <circle cx="575.7" cy="240.1" r="20" fill="#2ecc71" opacity="0.12" />
  <circle cx="575.7" cy="240.1" r="16" fill="#2ecc71" opacity="0.88" />
  <circle cx="575.2" cy="142.5" r="10.8" fill="#9b59b6" opacity="0.12" />
  <circle cx="575.2" cy="142.5" r="6.8" fill="#9b59b6" opacity="0.88" />
  <circle cx="111.3" cy="408.4" r="9" fill="#7f8c8d" opacity="0.12" />
  <circle cx="111.3" cy="408.4" r="5" fill="#7f8c8d" opacity="0.88" />
  <circle cx="606.7" cy="253.7" r="16.2" fill="#3498db" opacity="0.12" />
  <circle cx="606.7" cy="253.7" r="12.2" fill="#3498db" opacity="0.88" />
  <circle cx="650.6" cy="255.4" r="17.1" fill="#7f8c8d" opacity="0.12" />
  <circle cx="650.6" cy="255.4" r="13.1" fill="#7f8c8d" opacity="0.88" />
  <circle cx="645.8" cy="275.3" r="13.5" fill="#7f8c8d" opacity="0.12" />
  <circle cx="645.8" cy="275.3" r="9.5" fill="#7f8c8d" opacity="0.88" />
  <circle cx="50.0" cy="341.8" r="9" fill="#7f8c8d" opacity="0.12" />
  <circle cx="50.0" cy="341.8" r="5" fill="#7f8c8d" opacity="0.88" />
  <circle cx="634.2" cy="282.9" r="11.7" fill="#7f8c8d" opacity="0.12" />
  <circle cx="634.2" cy="282.9" r="7.7" fill="#7f8c8d" opacity="0.88" />
  <circle cx="620.9" cy="252.6" r="13.5" fill="#7f8c8d" opacity="0.12" />
  <circle cx="620.9" cy="252.6" r="9.5" fill="#7f8c8d" opacity="0.88" />
  <circle cx="626.5" cy="243.1" r="19.8" fill="#2ecc71" opacity="0.12" />
  <circle cx="626.5" cy="243.1" r="15.8" fill="#2ecc71" opacity="0.88" />
  <circle cx="622.3" cy="266.2" r="11.7" fill="#7f8c8d" opacity="0.12" />
  <circle cx="622.3" cy="266.2" r="7.7" fill="#7f8c8d" opacity="0.88" />
  <circle cx="847.6" cy="82.4" r="11.7" fill="#7f8c8d" opacity="0.12" />
  <circle cx="847.6" cy="82.4" r="7.7" fill="#7f8c8d" opacity="0.88" />
  <circle cx="609.8" cy="346.8" r="11.7" fill="#3498db" opacity="0.12" />
  <circle cx="609.8" cy="346.8" r="7.7" fill="#3498db" opacity="0.88" />
  <circle cx="642.8" cy="304.1" r="9.9" fill="#7f8c8d" opacity="0.12" />
  <circle cx="642.8" cy="304.1" r="5.9" fill="#7f8c8d" opacity="0.88" />
  <circle cx="904.6" cy="375.5" r="10.8" fill="#e67e22" opacity="0.12" />
  <circle cx="904.6" cy="375.5" r="6.8" fill="#e67e22" opacity="0.88" />
  <circle cx="910.0" cy="388.2" r="10.8" fill="#e67e22" opacity="0.12" />
  <circle cx="910.0" cy="388.2" r="6.8" fill="#e67e22" opacity="0.88" />
  <circle cx="673.8" cy="264.9" r="14.4" fill="#7f8c8d" opacity="0.12" />
  <circle cx="673.8" cy="264.9" r="10.4" fill="#7f8c8d" opacity="0.88" />
  <circle cx="847.7" cy="357.6" r="15.3" fill="#e67e22" opacity="0.12" />
  <circle cx="847.7" cy="357.6" r="11.3" fill="#e67e22" opacity="0.88" />
  <circle cx="876.8" cy="97.9" r="9.9" fill="#7f8c8d" opacity="0.12" />
  <circle cx="876.8" cy="97.9" r="5.9" fill="#7f8c8d" opacity="0.88" />
  <circle cx="617.2" cy="233.4" r="10.8" fill="#7f8c8d" opacity="0.12" />
  <circle cx="617.2" cy="233.4" r="6.8" fill="#7f8c8d" opacity="0.88" />
  <circle cx="665.7" cy="274.1" r="10.8" fill="#7f8c8d" opacity="0.12" />
  <circle cx="665.7" cy="274.1" r="6.8" fill="#7f8c8d" opacity="0.88" />
  <circle cx="708.1" cy="287.3" r="9" fill="#2ecc71" opacity="0.12" />
  <circle cx="708.1" cy="287.3" r="5" fill="#2ecc71" opacity="0.88" />
  <circle cx="772.0" cy="277.7" r="11.7" fill="#2ecc71" opacity="0.12" />
  <circle cx="772.0" cy="277.7" r="7.7" fill="#2ecc71" opacity="0.88" />
  <circle cx="667.2" cy="305.3" r="9.9" fill="#e74c3c" opacity="0.12" />
  <circle cx="667.2" cy="305.3" r="5.9" fill="#e74c3c" opacity="0.88" />
  <circle cx="729.6" cy="330.7" r="14.4" fill="#e74c3c" opacity="0.12" />
  <circle cx="729.6" cy="330.7" r="10.4" fill="#e74c3c" opacity="0.88" />
  <circle cx="621.7" cy="285.4" r="9.9" fill="#7f8c8d" opacity="0.12" />
  <circle cx="621.7" cy="285.4" r="5.9" fill="#7f8c8d" opacity="0.88" />
  <circle cx="880.0" cy="498.5" r="9" fill="#7f8c8d" opacity="0.12" />
  <circle cx="880.0" cy="498.5" r="5" fill="#7f8c8d" opacity="0.88" />
  <rect x="512.4" y="320.0" width="95.6" height="15" fill="#0d1117" opacity="0.75" rx="2" />
  <text x="513.4" y="331.0" font-family="system-ui, -apple-system, sans-serif" font-size="12" fill="#e6edf3" text-anchor="start">RemoteJuggler</text>
  <rect x="547.1" y="282.2" width="16.4" height="15" fill="#0d1117" opacity="0.75" rx="2" />
  <text x="548.1" y="293.2" font-family="system-ui, -apple-system, sans-serif" font-size="12" fill="#e6edf3" text-anchor="start">pp</text>
  <rect x="595.8" y="108.9" width="124.4" height="15" fill="#0d1117" opacity="0.75" rx="2" />
  <text x="596.8" y="119.9" font-family="system-ui, -apple-system, sans-serif" font-size="12" fill="#e6edf3" text-anchor="start">tinyland-calendar</text>
  <rect x="530.8" y="252.1" width="102.8" height="15" fill="#0d1117" opacity="0.75" rx="2" />
  <text x="531.8" y="263.1" font-family="system-ui, -apple-system, sans-serif" font-size="12" fill="#e6edf3" text-anchor="start">tinyland-infra</text>
  <rect x="542.6" y="153.5" width="117.2" height="15" fill="#0d1117" opacity="0.75" rx="2" />
  <text x="543.6" y="164.5" font-family="system-ui, -apple-system, sans-serif" font-size="12" fill="#e6edf3" text-anchor="start">GloriousFlywheel</text>
  <rect x="581.9" y="182.1" width="52.4" height="15" fill="#0d1117" opacity="0.75" rx="2" />
  <text x="582.9" y="193.1" font-family="system-ui, -apple-system, sans-serif" font-size="12" fill="#e6edf3" text-anchor="start">LA-Mesh</text>
  <rect x="587.3" y="269.1" width="45.2" height="15" fill="#0d1117" opacity="0.75" rx="2" />
  <text x="588.3" y="280.1" font-family="system-ui, -apple-system, sans-serif" font-size="12" fill="#e6edf3" text-anchor="start">XoxdWM</text>
  <rect x="565.0" y="120.8" width="131.6" height="15" fill="#0d1117" opacity="0.75" rx="2" />
  <text x="566.0" y="131.8" font-family="system-ui, -apple-system, sans-serif" font-size="12" fill="#e6edf3" text-anchor="start">pixelwise-research</text>
  <rect x="569.8" y="284.1" width="124.4" height="15" fill="#0d1117" opacity="0.75" rx="2" />
  <text x="570.8" y="295.1" font-family="system-ui, -apple-system, sans-serif" font-size="12" fill="#e6edf3" text-anchor="start">tinyland-huskycat</text>
  <rect x="664.3" y="231.4" width="95.6" height="15" fill="#0d1117" opacity="0.75" rx="2" />
  <text x="665.3" y="242.4" font-family="system-ui, -apple-system, sans-serif" font-size="12" fill="#e6edf3" text-anchor="start">GIS_Shortcuts</text>
  <rect x="533.2" y="378.9" width="117.2" height="15" fill="#0d1117" opacity="0.75" rx="2" />
  <text x="534.2" y="389.9" font-family="system-ui, -apple-system, sans-serif" font-size="12" fill="#e6edf3" text-anchor="start">tinyland-cleanup</text>
  <rect x="614.0" y="348.7" width="95.6" height="15" fill="#0d1117" opacity="0.75" rx="2" />
  <text x="615.0" y="359.7" font-family="system-ui, -apple-system, sans-serif" font-size="12" fill="#e6edf3" text-anchor="start">tinyland-kdbx</text>
  <rect x="610.7" y="225.5" width="110.0" height="15" fill="#0d1117" opacity="0.75" rx="2" />
  <text x="611.7" y="236.5" font-family="system-ui, -apple-system, sans-serif" font-size="12" fill="#e6edf3" text-anchor="start">hiberpower-ntfs</text>
  <rect x="605.1" y="289.9" width="138.8" height="15" fill="#0d1117" opacity="0.75" rx="2" />
  <text x="606.1" y="300.9" font-family="system-ui, -apple-system, sans-serif" font-size="12" fill="#e6edf3" text-anchor="start">Ansible-DAG-Harness</text>
  <rect x="583.6" y="236.7" width="66.8" height="15" fill="#0d1117" opacity="0.75" rx="2" />
  <text x="584.6" y="247.7" font-family="system-ui, -apple-system, sans-serif" font-size="12" fill="#e6edf3" text-anchor="start">betterkvm</text>
  <rect x="577.7" y="168.5" width="95.6" height="15" fill="#0d1117" opacity="0.75" rx="2" />
  <text x="578.7" y="179.5" font-family="system-ui, -apple-system, sans-serif" font-size="12" fill="#e6edf3" text-anchor="start">DarwinNicUtil</text>
  <rect x="582.2" y="363.4" width="59.6" height="15" fill="#0d1117" opacity="0.75" rx="2" />
  <text x="583.2" y="374.4" font-family="system-ui, -apple-system, sans-serif" font-size="12" fill="#e6edf3" text-anchor="start">gnucashr</text>
  <rect x="781.2" y="302.4" width="66.8" height="15" fill="#0d1117" opacity="0.75" rx="2" />
  <text x="782.2" y="313.4" font-family="system-ui, -apple-system, sans-serif" font-size="12" fill="#e6edf3" text-anchor="start">quickchpl</text>
  <rect x="369.5" y="43.2" width="131.6" height="15" fill="#0d1117" opacity="0.75" rx="2" />
  <text x="370.5" y="54.2" font-family="system-ui, -apple-system, sans-serif" font-size="12" fill="#e6edf3" text-anchor="start">tinyscale-mikrotik</text>
  <rect x="716.4" y="322.2" width="59.6" height="15" fill="#0d1117" opacity="0.75" rx="2" />
  <text x="717.4" y="333.2" font-family="system-ui, -apple-system, sans-serif" font-size="12" fill="#e6edf3" text-anchor="start">aoc-2025</text>
  <rect x="58.0" y="244.8" width="74.0" height="15" fill="#0d1117" opacity="0.75" rx="2" />
  <text x="59.0" y="255.8" font-family="system-ui, -apple-system, sans-serif" font-size="12" fill="#e6edf3" text-anchor="start">tinywaffle</text>
  <rect x="259.4" y="483.2" width="66.8" height="15" fill="#0d1117" opacity="0.75" rx="2" />
  <text x="260.4" y="494.2" font-family="system-ui, -apple-system, sans-serif" font-size="12" fill="#e6edf3" text-anchor="start">searchies</text>
  <rect x="286.6" y="500.2" width="59.6" height="15" fill="#0d1117" opacity="0.75" rx="2" />
  <text x="287.6" y="511.2" font-family="system-ui, -apple-system, sans-serif" font-size="12" fill="#e6edf3" text-anchor="start">ts-caddy</text>
  <rect x="583.3" y="91.9" width="66.8" height="15" fill="#0d1117" opacity="0.75" rx="2" />
  <text x="584.3" y="102.9" font-family="system-ui, -apple-system, sans-serif" font-size="12" fill="#e6edf3" text-anchor="start">HCI-notes</text>
  <rect x="668.8" y="250.5" width="88.4" height="15" fill="#0d1117" opacity="0.75" rx="2" />
  <text x="669.8" y="261.5" font-family="system-ui, -apple-system, sans-serif" font-size="12" fill="#e6edf3" text-anchor="start">FastPhotoAPI</text>
  <rect x="617.8" y="316.8" width="81.2" height="15" fill="#0d1117" opacity="0.75" rx="2" />
  <text x="618.8" y="327.8" font-family="system-ui, -apple-system, sans-serif" font-size="12" fill="#e6edf3" text-anchor="start">timberbuddy</text>
  <rect x="603.0" y="134.5" width="81.2" height="15" fill="#0d1117" opacity="0.75" rx="2" />
  <text x="604.0" y="145.5" font-family="system-ui, -apple-system, sans-serif" font-size="12" fill="#e6edf3" text-anchor="start">tetrahedron</text>
  <rect x="654.5" y="368.7" width="95.6" height="15" fill="#0d1117" opacity="0.75" rx="2" />
  <text x="655.5" y="379.7" font-family="system-ui, -apple-system, sans-serif" font-size="12" fill="#e6edf3" text-anchor="start">AccuWixReport</text>
  <rect x="672.7" y="160.5" width="95.6" height="15" fill="#0d1117" opacity="0.75" rx="2" />
  <text x="673.7" y="171.5" font-family="system-ui, -apple-system, sans-serif" font-size="12" fill="#e6edf3" text-anchor="start">Jess-AOC-2023</text>
  <rect x="635.0" y="276.9" width="81.2" height="15" fill="#0d1117" opacity="0.75" rx="2" />
  <text x="636.0" y="287.9" font-family="system-ui, -apple-system, sans-serif" font-size="12" fill="#e6edf3" text-anchor="start">TurkeyProbe</text>
  <rect x="593.7" y="399.1" width="153.2" height="15" fill="#0d1117" opacity="0.75" rx="2" />
  <text x="594.7" y="410.1" font-family="system-ui, -apple-system, sans-serif" font-size="12" fill="#e6edf3" text-anchor="start">MerlinAI-Interpreters</text>
  <rect x="584.0" y="77.2" width="110.0" height="15" fill="#0d1117" opacity="0.75" rx="2" />
  <text x="585.0" y="88.2" font-family="system-ui, -apple-system, sans-serif" font-size="12" fill="#e6edf3" text-anchor="start">IntroTypeScript</text>
  <rect x="118.3" y="401.6" width="110.0" height="15" fill="#0d1117" opacity="0.75" rx="2" />
  <text x="119.3" y="412.6" font-family="system-ui, -apple-system, sans-serif" font-size="12" fill="#e6edf3" text-anchor="start">IG-3DP-Profiles</text>
  <rect x="620.9" y="197.4" width="66.8" height="15" fill="#0d1117" opacity="0.75" rx="2" />
  <text x="621.9" y="208.4" font-family="system-ui, -apple-system, sans-serif" font-size="12" fill="#e6edf3" text-anchor="start">DLA-Flask</text>
  <rect x="665.7" y="147.7" width="38.0" height="15" fill="#0d1117" opacity="0.75" rx="2" />
  <text x="666.7" y="158.7" font-family="system-ui, -apple-system, sans-serif" font-size="12" fill="#e6edf3" text-anchor="start">USBoN</text>
  <rect x="657.3" y="240.9" width="203.6" height="15" fill="#0d1117" opacity="0.75" rx="2" />
  <text x="658.3" y="251.9" font-family="system-ui, -apple-system, sans-serif" font-size="12" fill="#e6edf3" text-anchor="start">chrome-remote-desktop-budgie</text>
  <rect x="57.0" y="335.0" width="124.4" height="15" fill="#0d1117" opacity="0.75" rx="2" />
  <text x="58.0" y="346.0" font-family="system-ui, -apple-system, sans-serif" font-size="12" fill="#e6edf3" text-anchor="start">OminousBeepingApp</text>
  <rect x="643.9" y="259.9" width="138.8" height="15" fill="#0d1117" opacity="0.75" rx="2" />
  <text x="644.9" y="270.9" font-family="system-ui, -apple-system, sans-serif" font-size="12" fill="#e6edf3" text-anchor="start">mo-image-identifier</text>
  <rect x="632.4" y="189.3" width="196.4" height="15" fill="#0d1117" opacity="0.75" rx="2" />
  <text x="633.4" y="200.3" font-family="system-ui, -apple-system, sans-serif" font-size="12" fill="#e6edf3" text-anchor="start">squirrel-leaflet-annotation</text>
  <rect x="644.3" y="320.7" width="74.0" height="15" fill="#0d1117" opacity="0.75" rx="2" />
  <text x="645.3" y="331.7" font-family="system-ui, -apple-system, sans-serif" font-size="12" fill="#e6edf3" text-anchor="start">Shiny-Apps</text>
  <rect x="632.0" y="299.8" width="138.8" height="15" fill="#0d1117" opacity="0.75" rx="2" />
  <text x="633.0" y="310.8" font-family="system-ui, -apple-system, sans-serif" font-size="12" fill="#e6edf3" text-anchor="start">bbox-jest-puppeteer</text>
  <rect x="749.5" y="75.6" width="88.4" height="15" fill="#0d1117" opacity="0.75" rx="2" />
  <text x="836.9" y="86.6" font-family="system-ui, -apple-system, sans-serif" font-size="12" fill="#e6edf3" text-anchor="end">DoverDisplay</text>
  <rect x="619.5" y="414.1" width="81.2" height="15" fill="#0d1117" opacity="0.75" rx="2" />
  <text x="620.5" y="425.1" font-family="system-ui, -apple-system, sans-serif" font-size="12" fill="#e6edf3" text-anchor="start">LeafletSync</text>
  <rect x="650.7" y="355.4" width="167.6" height="15" fill="#0d1117" opacity="0.75" rx="2" />
  <text x="651.7" y="366.4" font-family="system-ui, -apple-system, sans-serif" font-size="12" fill="#e6edf3" text-anchor="start">misc-roi-distance-notes</text>
  <rect x="757.0" y="427.7" width="138.8" height="15" fill="#0d1117" opacity="0.75" rx="2" />
  <text x="894.8" y="438.7" font-family="system-ui, -apple-system, sans-serif" font-size="12" fill="#e6edf3" text-anchor="end">Arduino_Coil_Winder</text>
  <rect x="870.4" y="442.8" width="30.8" height="15" fill="#0d1117" opacity="0.75" rx="2" />
  <text x="900.2" y="453.8" font-family="system-ui, -apple-system, sans-serif" font-size="12" fill="#e6edf3" text-anchor="end">momo</text>
  <rect x="686.2" y="199.3" width="38.0" height="15" fill="#0d1117" opacity="0.75" rx="2" />
  <text x="687.2" y="210.3" font-family="system-ui, -apple-system, sans-serif" font-size="12" fill="#e6edf3" text-anchor="start">clipi</text>
  <rect x="724.4" y="410.7" width="110.0" height="15" fill="#0d1117" opacity="0.75" rx="2" />
  <text x="833.4" y="421.7" font-family="system-ui, -apple-system, sans-serif" font-size="12" fill="#e6edf3" text-anchor="end">AeroTaz5_hotfix</text>
  <rect x="758.9" y="91.1" width="110.0" height="15" fill="#0d1117" opacity="0.75" rx="2" />
  <text x="867.9" y="102.1" font-family="system-ui, -apple-system, sans-serif" font-size="12" fill="#e6edf3" text-anchor="end">Funmat-HT-Notes</text>
  <rect x="626.0" y="216.3" width="81.2" height="15" fill="#0d1117" opacity="0.75" rx="2" />
  <text x="627.0" y="227.3" font-family="system-ui, -apple-system, sans-serif" font-size="12" fill="#e6edf3" text-anchor="start">static-site</text>
  <rect x="674.5" y="382.1" width="95.6" height="15" fill="#0d1117" opacity="0.75" rx="2" />
  <text x="675.5" y="393.1" font-family="system-ui, -apple-system, sans-serif" font-size="12" fill="#e6edf3" text-anchor="start">Flask-Manager</text>
  <rect x="715.1" y="275.1" width="110.0" height="15" fill="#0d1117" opacity="0.75" rx="2" />
  <text x="716.1" y="286.1" font-family="system-ui, -apple-system, sans-serif" font-size="12" fill="#e6edf3" text-anchor="start">FieldProcessing</text>
  <rect x="781.7" y="222.5" width="81.2" height="15" fill="#0d1117" opacity="0.75" rx="2" />
  <text x="782.7" y="233.5" font-family="system-ui, -apple-system, sans-serif" font-size="12" fill="#e6edf3" text-anchor="start">rJDKmanager</text>
  <rect x="675.1" y="172.3" width="59.6" height="15" fill="#0d1117" opacity="0.75" rx="2" />
  <text x="676.1" y="183.3" font-family="system-ui, -apple-system, sans-serif" font-size="12" fill="#e6edf3" text-anchor="start">tagnotes</text>
  <rect x="742.0" y="337.4" width="81.2" height="15" fill="#0d1117" opacity="0.75" rx="2" />
  <text x="743.0" y="348.4" font-family="system-ui, -apple-system, sans-serif" font-size="12" fill="#e6edf3" text-anchor="start">ChapelTests</text>
  <rect x="629.6" y="337.7" width="88.4" height="15" fill="#0d1117" opacity="0.75" rx="2" />
  <text x="630.6" y="348.7" font-family="system-ui, -apple-system, sans-serif" font-size="12" fill="#e6edf3" text-anchor="start">Xfinity-WiFi</text>
  <rect x="806.2" y="491.7" width="66.8" height="15" fill="#0d1117" opacity="0.75" rx="2" />
  <text x="872.0" y="502.7" font-family="system-ui, -apple-system, sans-serif" font-size="12" fill="#e6edf3" text-anchor="end">home-wiki</text>
  <rect x="793" y="36" width="155" height="120" rx="6" fill="#161b22" stroke="#30363d" stroke-width="1" opacity="0.95" />
  <circle cx="810" cy="52" r="5" fill="#e74c3c" opacity="0.88" />
  <text x="820" y="56" font-family="system-ui, -apple-system, sans-serif" font-size="10" fill="#e6edf3">Languages &amp; Compilers</text>
  <circle cx="810" cy="69" r="5" fill="#3498db" opacity="0.88" />
  <text x="820" y="73" font-family="system-ui, -apple-system, sans-serif" font-size="10" fill="#e6edf3">Infrastructure &amp; DevOps</text>
  <circle cx="810" cy="86" r="5" fill="#e67e22" opacity="0.88" />
  <text x="820" y="90" font-family="system-ui, -apple-system, sans-serif" font-size="10" fill="#e6edf3">Hardware &amp; Maker</text>
  <circle cx="810" cy="103" r="5" fill="#2ecc71" opacity="0.88" />
  <text x="820" y="107" font-family="system-ui, -apple-system, sans-serif" font-size="10" fill="#e6edf3">ML &amp; Data</text>
  <circle cx="810" cy="120" r="5" fill="#9b59b6" opacity="0.88" />
  <text x="820" y="124" font-family="system-ui, -apple-system, sans-serif" font-size="10" fill="#e6edf3">Web &amp; Apps</text>
  <circle cx="810" cy="137" r="5" fill="#7f8c8d" opacity="0.88" />
  <text x="820" y="141" font-family="system-ui, -apple-system, sans-serif" font-size="10" fill="#e6edf3">Other</text>
  <text x="870" y="150" font-family="system-ui, -apple-system, sans-serif" font-size="8" fill="#8b949e" text-anchor="middle">57 repos · 236 edges</text>
</svg>