<svg xmlns="http://www.w3.org/2000/svg" width="960" height="600" viewBox="0 0 960 600">
  <rect width="960" height="600" fill="#ffffff" rx="8" />
  <text x="480" y="24" font-family="system-ui, -apple-system, sans-serif" font-size="13" fill="#656d76" text-anchor="middle" font-weight="500">Repo Relationship Graph &#x2014; Pairwise Topic &amp; Language Similarity</text>
  <line x1="50" y1="550" x2="910" y2="550" stroke="#d0d7de" stroke-width="0.5" opacity="0.5" />
  <text x="50" y="570" font-family="system-ui, -apple-system, sans-serif" font-size="9" fill="#656d76" opacity="0.6">Updated daily by GitHub Actions</text>
  <text x="50" y="588" font-family="system-ui, -apple-system, sans-serif" font-size="9" fill="#656d76" opacity="0.6">networkx spring_layout · Jaccard similarity &gt; 0.15</text>
  <text x="910" y="570" font-family="system-ui, -apple-system, sans-serif" font-size="9" fill="#656d76" text-anchor="end" opacity="0.6">59 repos · 251 edges</text>
  <line x1="669.4" y1="265.3" x2="687.0" y2="232.8" stroke="#bcc3cd" stroke-width="0.9" opacity="0.18" />
  <line x1="669.4" y1="265.3" x2="669.2" y2="249.2" stroke="#bcc3cd" stroke-width="0.9" opacity="0.18" />
  <line x1="669.4" y1="265.3" x2="620.2" y2="257.9" stroke="#bcc3cd" stroke-width="0.9" opacity="0.21" />
  <line x1="669.4" y1="265.3" x2="649.0" y2="275.1" stroke="#bcc3cd" stroke-width="1.0" opacity="0.26" />
  <line x1="669.4" y1="265.3" x2="689.5" y2="251.9" stroke="#bcc3cd" stroke-width="0.9" opacity="0.17" />
  <line x1="669.4" y1="265.3" x2="650.4" y2="238.5" stroke="#bcc3cd" stroke-width="1.0" opacity="0.22" />
  <line x1="669.4" y1="265.3" x2="645.1" y2="265.8" stroke="#bcc3cd" stroke-width="1.0" opacity="0.24" />
  <line x1="669.4" y1="265.3" x2="716.5" y2="256.8" stroke="#bcc3cd" stroke-width="0.9" opacity="0.21" />
  <line x1="669.4" y1="265.3" x2="676.5" y2="279.7" stroke="#bcc3cd" stroke-width="1.1" opacity="0.30" />
  <line x1="669.4" y1="265.3" x2="632.0" y2="271.6" stroke="#bcc3cd" stroke-width="1.0" opacity="0.22" />
  <line x1="669.4" y1="265.3" x2="636.2" y2="260.1" stroke="#bcc3cd" stroke-width="1.0" opacity="0.22" />
  <line x1="669.4" y1="265.3" x2="682.9" y2="293.3" stroke="#bcc3cd" stroke-width="0.9" opacity="0.19" />
  <line x1="669.4" y1="265.3" x2="627.4" y2="295.5" stroke="#bcc3cd" stroke-width="0.9" opacity="0.21" />
  <line x1="669.4" y1="265.3" x2="611.7" y2="290.6" stroke="#bcc3cd" stroke-width="1.0" opacity="0.24" />
  <line x1="669.4" y1="265.3" x2="584.9" y2="284.2" stroke="#bcc3cd" stroke-width="0.9" opacity="0.17" />
  <line x1="698.1" y1="138.0" x2="653.6" y2="154.4" stroke="#bcc3cd" stroke-width="1.1" opacity="0.28" />
  <line x1="698.1" y1="138.0" x2="678.9" y2="171.4" stroke="#bcc3cd" stroke-width="1.1" opacity="0.28" />
  <line x1="687.0" y1="232.8" x2="669.2" y2="249.2" stroke="#bcc3cd" stroke-width="0.9" opacity="0.17" />
  <line x1="687.0" y1="232.8" x2="620.2" y2="257.9" stroke="#bcc3cd" stroke-width="0.9" opacity="0.19" />
  <line x1="687.0" y1="232.8" x2="649.0" y2="275.1" stroke="#bcc3cd" stroke-width="1.0" opacity="0.23" />
  <line x1="687.0" y1="232.8" x2="689.5" y2="251.9" stroke="#bcc3cd" stroke-width="0.9" opacity="0.20" />
  <line x1="687.0" y1="232.8" x2="650.4" y2="238.5" stroke="#bcc3cd" stroke-width="0.9" opacity="0.19" />
  <line x1="687.0" y1="232.8" x2="716.5" y2="256.8" stroke="#bcc3cd" stroke-width="0.9" opacity="0.19" />
  <line x1="687.0" y1="232.8" x2="676.5" y2="279.7" stroke="#bcc3cd" stroke-width="0.9" opacity="0.17" />
  <line x1="687.0" y1="232.8" x2="678.9" y2="171.4" stroke="#bcc3cd" stroke-width="1.0" opacity="0.22" />
  <line x1="599.7" y1="201.5" x2="650.4" y2="238.5" stroke="#bcc3cd" stroke-width="1.0" opacity="0.22" />
  <line x1="599.7" y1="201.5" x2="632.7" y2="229.3" stroke="#bcc3cd" stroke-width="0.9" opacity="0.17" />
  <line x1="669.2" y1="249.2" x2="620.2" y2="257.9" stroke="#bcc3cd" stroke-width="1.0" opacity="0.25" />
  <line x1="669.2" y1="249.2" x2="649.0" y2="275.1" stroke="#bcc3cd" stroke-width="1.1" opacity="0.31" />
  <line x1="669.2" y1="249.2" x2="689.5" y2="251.9" stroke="#bcc3cd" stroke-width="0.9" opacity="0.20" />
  <line x1="669.2" y1="249.2" x2="645.1" y2="265.8" stroke="#bcc3cd" stroke-width="1.0" opacity="0.22" />
  <line x1="669.2" y1="249.2" x2="632.7" y2="229.3" stroke="#bcc3cd" stroke-width="1.1" opacity="0.29" />
  <line x1="669.2" y1="249.2" x2="716.5" y2="256.8" stroke="#bcc3cd" stroke-width="1.0" opacity="0.25" />
  <line x1="669.2" y1="249.2" x2="676.5" y2="279.7" stroke="#bcc3cd" stroke-width="0.9" opacity="0.17" />
  <line x1="669.2" y1="249.2" x2="632.0" y2="271.6" stroke="#bcc3cd" stroke-width="0.9" opacity="0.20" />
  <line x1="669.2" y1="249.2" x2="636.2" y2="260.1" stroke="#bcc3cd" stroke-width="0.9" opacity="0.20" />
  <line x1="620.2" y1="257.9" x2="649.0" y2="275.1" stroke="#bcc3cd" stroke-width="1.4" opacity="0.47" />
  <line x1="620.2" y1="257.9" x2="689.5" y2="251.9" stroke="#bcc3cd" stroke-width="1.0" opacity="0.23" />
  <line x1="620.2" y1="257.9" x2="575.2" y2="263.4" stroke="#bcc3cd" stroke-width="0.9" opacity="0.17" />
  <line x1="620.2" y1="257.9" x2="645.1" y2="265.8" stroke="#bcc3cd" stroke-width="1.0" opacity="0.26" />
  <line x1="620.2" y1="257.9" x2="632.7" y2="229.3" stroke="#bcc3cd" stroke-width="0.9" opacity="0.18" />
  <line x1="620.2" y1="257.9" x2="676.5" y2="279.7" stroke="#bcc3cd" stroke-width="1.0" opacity="0.25" />
  <line x1="620.2" y1="257.9" x2="632.0" y2="271.6" stroke="#bcc3cd" stroke-width="1.0" opacity="0.23" />
  <line x1="620.2" y1="257.9" x2="636.2" y2="260.1" stroke="#bcc3cd" stroke-width="1.0" opacity="0.23" />
  <line x1="620.2" y1="257.9" x2="550.7" y2="258.8" stroke="#bcc3cd" stroke-width="0.9" opacity="0.21" />
  <line x1="620.2" y1="257.9" x2="611.7" y2="290.6" stroke="#bcc3cd" stroke-width="1.0" opacity="0.25" />
  <line x1="620.2" y1="257.9" x2="528.2" y2="278.4" stroke="#bcc3cd" stroke-width="0.9" opacity="0.18" />
  <line x1="620.2" y1="257.9" x2="584.9" y2="284.2" stroke="#bcc3cd" stroke-width="0.9" opacity="0.18" />
  <line x1="732.7" y1="282.6" x2="649.0" y2="275.1" stroke="#bcc3cd" stroke-width="1.0" opacity="0.25" />
  <line x1="732.7" y1="282.6" x2="716.5" y2="256.8" stroke="#bcc3cd" stroke-width="1.2" opacity="0.38" />
  <line x1="732.7" y1="282.6" x2="676.5" y2="279.7" stroke="#bcc3cd" stroke-width="1.2" opacity="0.34" />
  <line x1="732.7" y1="282.6" x2="728.0" y2="298.3" stroke="#bcc3cd" stroke-width="1.0" opacity="0.25" />
  <line x1="732.7" y1="282.6" x2="663.6" y2="300.1" stroke="#bcc3cd" stroke-width="0.9" opacity="0.20" />
  <line x1="732.7" y1="282.6" x2="691.4" y2="308.9" stroke="#bcc3cd" stroke-width="1.0" opacity="0.22" />
  <line x1="649.0" y1="275.1" x2="689.5" y2="251.9" stroke="#bcc3cd" stroke-width="1.1" opacity="0.28" />
  <line x1="649.0" y1="275.1" x2="575.2" y2="263.4" stroke="#bcc3cd" stroke-width="1.0" opacity="0.22" />
  <line x1="649.0" y1="275.1" x2="650.4" y2="238.5" stroke="#bcc3cd" stroke-width="0.9" opacity="0.20" />
  <line x1="649.0" y1="275.1" x2="645.1" y2="265.8" stroke="#bcc3cd" stroke-width="1.2" opacity="0.34" />
  <line x1="649.0" y1="275.1" x2="632.7" y2="229.3" stroke="#bcc3cd" stroke-width="1.0" opacity="0.24" />
  <line x1="649.0" y1="275.1" x2="716.5" y2="256.8" stroke="#bcc3cd" stroke-width="0.9" opacity="0.19" />
  <line x1="649.0" y1="275.1" x2="676.5" y2="279.7" stroke="#bcc3cd" stroke-width="1.2" opacity="0.39" />
  <line x1="649.0" y1="275.1" x2="728.0" y2="298.3" stroke="#bcc3cd" stroke-width="0.9" opacity="0.19" />
  <line x1="649.0" y1="275.1" x2="632.0" y2="271.6" stroke="#bcc3cd" stroke-width="1.2" opacity="0.39" />
  <line x1="649.0" y1="275.1" x2="636.2" y2="260.1" stroke="#bcc3cd" stroke-width="1.1" opacity="0.29" />
  <line x1="649.0" y1="275.1" x2="550.7" y2="258.8" stroke="#bcc3cd" stroke-width="0.9" opacity="0.17" />
  <line x1="649.0" y1="275.1" x2="663.6" y2="300.1" stroke="#bcc3cd" stroke-width="1.2" opacity="0.34" />
  <line x1="649.0" y1="275.1" x2="691.4" y2="308.9" stroke="#bcc3cd" stroke-width="0.9" opacity="0.20" />
  <line x1="649.0" y1="275.1" x2="682.9" y2="293.3" stroke="#bcc3cd" stroke-width="1.0" opacity="0.24" />
  <line x1="649.0" y1="275.1" x2="642.8" y2="293.7" stroke="#bcc3cd" stroke-width="1.2" opacity="0.34" />
  <line x1="649.0" y1="275.1" x2="606.6" y2="302.4" stroke="#bcc3cd" stroke-width="1.0" opacity="0.22" />
  <line x1="649.0" y1="275.1" x2="587.1" y2="275.6" stroke="#bcc3cd" stroke-width="0.9" opacity="0.18" />
  <line x1="649.0" y1="275.1" x2="573.6" y2="282.1" stroke="#bcc3cd" stroke-width="1.0" opacity="0.22" />
  <line x1="649.0" y1="275.1" x2="627.4" y2="295.5" stroke="#bcc3cd" stroke-width="1.1" opacity="0.30" />
  <line x1="649.0" y1="275.1" x2="636.6" y2="308.1" stroke="#bcc3cd" stroke-width="1.0" opacity="0.26" />
  <line x1="649.0" y1="275.1" x2="611.7" y2="290.6" stroke="#bcc3cd" stroke-width="1.2" opacity="0.37" />
  <line x1="649.0" y1="275.1" x2="580.6" y2="294.2" stroke="#bcc3cd" stroke-width="0.9" opacity="0.17" />
  <line x1="649.0" y1="275.1" x2="657.1" y2="309.6" stroke="#bcc3cd" stroke-width="1.0" opacity="0.24" />
  <line x1="649.0" y1="275.1" x2="584.9" y2="284.2" stroke="#bcc3cd" stroke-width="1.1" opacity="0.28" />
  <line x1="689.5" y1="251.9" x2="645.1" y2="265.8" stroke="#bcc3cd" stroke-width="0.9" opacity="0.20" />
  <line x1="689.5" y1="251.9" x2="716.5" y2="256.8" stroke="#bcc3cd" stroke-width="1.0" opacity="0.23" />
  <line x1="689.5" y1="251.9" x2="632.0" y2="271.6" stroke="#bcc3cd" stroke-width="1.0" opacity="0.24" />
  <line x1="689.5" y1="251.9" x2="636.2" y2="260.1" stroke="#bcc3cd" stroke-width="0.9" opacity="0.18" />
  <line x1="575.2" y1="263.4" x2="573.6" y2="282.1" stroke="#bcc3cd" stroke-width="0.9" opacity="0.18" />
  <line x1="575.2" y1="263.4" x2="611.7" y2="290.6" stroke="#bcc3cd" stroke-width="1.1" opacity="0.30" />
  <line x1="575.2" y1="263.4" x2="584.9" y2="284.2" stroke="#bcc3cd" stroke-width="1.0" opacity="0.22" />
  <line x1="650.4" y1="238.5" x2="650.7" y2="199.7" stroke="#bcc3cd" stroke-width="1.1" opacity="0.33" />
  <line x1="650.4" y1="238.5" x2="645.1" y2="265.8" stroke="#bcc3cd" stroke-width="0.9" opacity="0.18" />
  <line x1="650.4" y1="238.5" x2="632.7" y2="229.3" stroke="#bcc3cd" stroke-width="0.9" opacity="0.18" />
  <line x1="650.4" y1="238.5" x2="716.5" y2="256.8" stroke="#bcc3cd" stroke-width="1.0" opacity="0.24" />
  <line x1="650.4" y1="238.5" x2="676.5" y2="279.7" stroke="#bcc3cd" stroke-width="0.9" opacity="0.19" />
  <line x1="650.4" y1="238.5" x2="584.9" y2="284.2" stroke="#bcc3cd" stroke-width="0.9" opacity="0.18" />
  <line x1="645.1" y1="265.8" x2="716.5" y2="256.8" stroke="#bcc3cd" stroke-width="0.9" opacity="0.18" />
  <line x1="645.1" y1="265.8" x2="676.5" y2="279.7" stroke="#bcc3cd" stroke-width="1.0" opacity="0.22" />
  <line x1="645.1" y1="265.8" x2="632.0" y2="271.6" stroke="#bcc3cd" stroke-width="1.1" opacity="0.28" />
  <line x1="645.1" y1="265.8" x2="636.2" y2="260.1" stroke="#bcc3cd" stroke-width="1.1" opacity="0.28" />
  <line x1="645.1" y1="265.8" x2="587.1" y2="275.6" stroke="#bcc3cd" stroke-width="0.9" opacity="0.17" />
  <line x1="645.1" y1="265.8" x2="573.6" y2="282.1" stroke="#bcc3cd" stroke-width="0.9" opacity="0.20" />
  <line x1="645.1" y1="265.8" x2="627.4" y2="295.5" stroke="#bcc3cd" stroke-width="0.9" opacity="0.17" />
  <line x1="645.1" y1="265.8" x2="611.7" y2="290.6" stroke="#bcc3cd" stroke-width="0.9" opacity="0.20" />
  <line x1="645.1" y1="265.8" x2="584.9" y2="284.2" stroke="#bcc3cd" stroke-width="1.0" opacity="0.24" />
  <line x1="716.5" y1="256.8" x2="676.5" y2="279.7" stroke="#bcc3cd" stroke-width="0.9" opacity="0.19" />
  <line x1="676.5" y1="279.7" x2="728.0" y2="298.3" stroke="#bcc3cd" stroke-width="1.2" opacity="0.34" />
  <line x1="676.5" y1="279.7" x2="632.0" y2="271.6" stroke="#bcc3cd" stroke-width="0.9" opacity="0.20" />
  <line x1="676.5" y1="279.7" x2="636.2" y2="260.1" stroke="#bcc3cd" stroke-width="0.9" opacity="0.20" />
  <line x1="676.5" y1="279.7" x2="663.6" y2="300.1" stroke="#bcc3cd" stroke-width="1.2" opacity="0.37" />
  <line x1="676.5" y1="279.7" x2="691.4" y2="308.9" stroke="#bcc3cd" stroke-width="1.2" opacity="0.37" />
  <line x1="676.5" y1="279.7" x2="682.9" y2="293.3" stroke="#bcc3cd" stroke-width="1.1" opacity="0.29" />
  <line x1="676.5" y1="279.7" x2="642.8" y2="293.7" stroke="#bcc3cd" stroke-width="1.0" opacity="0.22" />
  <line x1="676.5" y1="279.7" x2="627.4" y2="295.5" stroke="#bcc3cd" stroke-width="1.2" opacity="0.34" />
  <line x1="676.5" y1="279.7" x2="636.6" y2="308.1" stroke="#bcc3cd" stroke-width="1.0" opacity="0.24" />
  <line x1="676.5" y1="279.7" x2="611.7" y2="290.6" stroke="#bcc3cd" stroke-width="1.1" opacity="0.29" />
  <line x1="676.5" y1="279.7" x2="657.1" y2="309.6" stroke="#bcc3cd" stroke-width="1.0" opacity="0.22" />
  <line x1="728.0" y1="298.3" x2="663.6" y2="300.1" stroke="#bcc3cd" stroke-width="1.0" opacity="0.25" />
  <line x1="728.0" y1="298.3" x2="691.4" y2="308.9" stroke="#bcc3cd" stroke-width="1.1" opacity="0.29" />
  <line x1="728.0" y1="298.3" x2="657.1" y2="309.6" stroke="#bcc3cd" stroke-width="0.9" opacity="0.17" />
  <line x1="653.0" y1="326.9" x2="663.6" y2="300.1" stroke="#bcc3cd" stroke-width="0.9" opacity="0.18" />
  <line x1="653.0" y1="326.9" x2="691.4" y2="308.9" stroke="#bcc3cd" stroke-width="0.9" opacity="0.18" />
  <line x1="653.0" y1="326.9" x2="627.4" y2="295.5" stroke="#bcc3cd" stroke-width="0.9" opacity="0.17" />
  <line x1="653.0" y1="326.9" x2="636.6" y2="308.1" stroke="#bcc3cd" stroke-width="1.3" opacity="0.42" />
  <line x1="653.0" y1="326.9" x2="611.7" y2="290.6" stroke="#bcc3cd" stroke-width="0.9" opacity="0.19" />
  <line x1="653.0" y1="326.9" x2="657.1" y2="309.6" stroke="#bcc3cd" stroke-width="0.9" opacity="0.21" />
  <line x1="632.0" y1="271.6" x2="636.2" y2="260.1" stroke="#bcc3cd" stroke-width="1.0" opacity="0.24" />
  <line x1="632.0" y1="271.6" x2="642.8" y2="293.7" stroke="#bcc3cd" stroke-width="0.9" opacity="0.19" />
  <line x1="632.0" y1="271.6" x2="606.6" y2="302.4" stroke="#bcc3cd" stroke-width="0.9" opacity="0.18" />
  <line x1="632.0" y1="271.6" x2="573.6" y2="282.1" stroke="#bcc3cd" stroke-width="0.9" opacity="0.17" />
  <line x1="632.0" y1="271.6" x2="611.7" y2="290.6" stroke="#bcc3cd" stroke-width="0.9" opacity="0.17" />
  <line x1="632.0" y1="271.6" x2="584.9" y2="284.2" stroke="#bcc3cd" stroke-width="0.9" opacity="0.20" />
  <line x1="636.2" y1="260.1" x2="573.6" y2="282.1" stroke="#bcc3cd" stroke-width="0.9" opacity="0.17" />
  <line x1="636.2" y1="260.1" x2="611.7" y2="290.6" stroke="#bcc3cd" stroke-width="0.9" opacity="0.17" />
  <line x1="636.2" y1="260.1" x2="584.9" y2="284.2" stroke="#bcc3cd" stroke-width="0.9" opacity="0.20" />
  <line x1="471.9" y1="239.0" x2="550.7" y2="258.8" stroke="#bcc3cd" stroke-width="1.3" opacity="0.44" />
  <line x1="471.9" y1="239.0" x2="464.9" y2="256.8" stroke="#bcc3cd" stroke-width="0.9" opacity="0.18" />
  <line x1="550.7" y1="258.8" x2="523.9" y2="286.8" stroke="#bcc3cd" stroke-width="1.1" opacity="0.31" />
  <line x1="550.7" y1="258.8" x2="587.1" y2="275.6" stroke="#bcc3cd" stroke-width="0.9" opacity="0.20" />
  <line x1="550.7" y1="258.8" x2="573.6" y2="282.1" stroke="#bcc3cd" stroke-width="1.0" opacity="0.24" />
  <line x1="550.7" y1="258.8" x2="627.4" y2="295.5" stroke="#bcc3cd" stroke-width="0.9" opacity="0.20" />
  <line x1="550.7" y1="258.8" x2="611.7" y2="290.6" stroke="#bcc3cd" stroke-width="1.0" opacity="0.24" />
  <line x1="550.7" y1="258.8" x2="580.6" y2="294.2" stroke="#bcc3cd" stroke-width="0.9" opacity="0.18" />
  <line x1="550.7" y1="258.8" x2="611.1" y2="183.3" stroke="#bcc3cd" stroke-width="0.9" opacity="0.17" />
  <line x1="550.7" y1="258.8" x2="528.2" y2="278.4" stroke="#bcc3cd" stroke-width="1.1" opacity="0.31" />
  <line x1="550.7" y1="258.8" x2="464.9" y2="256.8" stroke="#bcc3cd" stroke-width="1.1" opacity="0.30" />
  <line x1="550.7" y1="258.8" x2="584.9" y2="284.2" stroke="#bcc3cd" stroke-width="1.1" opacity="0.31" />
  <line x1="151.3" y1="132.5" x2="113.1" y2="120.6" stroke="#bcc3cd" stroke-width="1.6" opacity="0.60" />
  <line x1="813.0" y1="357.6" x2="691.4" y2="308.9" stroke="#bcc3cd" stroke-width="0.9" opacity="0.18" />
  <line x1="813.0" y1="357.6" x2="878.7" y2="385.2" stroke="#bcc3cd" stroke-width="1.1" opacity="0.28" />
  <line x1="623.1" y1="320.6" x2="663.6" y2="300.1" stroke="#bcc3cd" stroke-width="0.9" opacity="0.17" />
  <line x1="623.1" y1="320.6" x2="691.4" y2="308.9" stroke="#bcc3cd" stroke-width="0.9" opacity="0.18" />
  <line x1="623.1" y1="320.6" x2="642.8" y2="293.7" stroke="#bcc3cd" stroke-width="1.0" opacity="0.22" />
  <line x1="623.1" y1="320.6" x2="627.4" y2="295.5" stroke="#bcc3cd" stroke-width="1.1" opacity="0.28" />
  <line x1="623.1" y1="320.6" x2="636.6" y2="308.1" stroke="#bcc3cd" stroke-width="1.1" opacity="0.32" />
  <line x1="623.1" y1="320.6" x2="611.7" y2="290.6" stroke="#bcc3cd" stroke-width="0.9" opacity="0.20" />
  <line x1="623.1" y1="320.6" x2="657.1" y2="309.6" stroke="#bcc3cd" stroke-width="1.0" opacity="0.22" />
  <line x1="623.1" y1="320.6" x2="554.4" y2="311.4" stroke="#bcc3cd" stroke-width="1.0" opacity="0.22" />
  <line x1="663.6" y1="300.1" x2="691.4" y2="308.9" stroke="#bcc3cd" stroke-width="1.3" opacity="0.42" />
  <line x1="663.6" y1="300.1" x2="678.7" y2="322.5" stroke="#bcc3cd" stroke-width="0.9" opacity="0.18" />
  <line x1="663.6" y1="300.1" x2="682.9" y2="293.3" stroke="#bcc3cd" stroke-width="1.1" opacity="0.31" />
  <line x1="663.6" y1="300.1" x2="642.8" y2="293.7" stroke="#bcc3cd" stroke-width="1.1" opacity="0.32" />
  <line x1="663.6" y1="300.1" x2="606.6" y2="302.4" stroke="#bcc3cd" stroke-width="1.0" opacity="0.23" />
  <line x1="663.6" y1="300.1" x2="627.4" y2="295.5" stroke="#bcc3cd" stroke-width="1.2" opacity="0.39" />
  <line x1="663.6" y1="300.1" x2="636.6" y2="308.1" stroke="#bcc3cd" stroke-width="1.0" opacity="0.26" />
  <line x1="663.6" y1="300.1" x2="611.7" y2="290.6" stroke="#bcc3cd" stroke-width="1.2" opacity="0.34" />
  <line x1="663.6" y1="300.1" x2="580.6" y2="294.2" stroke="#bcc3cd" stroke-width="0.9" opacity="0.19" />
  <line x1="663.6" y1="300.1" x2="657.1" y2="309.6" stroke="#bcc3cd" stroke-width="1.0" opacity="0.25" />
  <line x1="663.6" y1="300.1" x2="584.9" y2="284.2" stroke="#bcc3cd" stroke-width="0.9" opacity="0.17" />
  <line x1="691.4" y1="308.9" x2="678.7" y2="322.5" stroke="#bcc3cd" stroke-width="1.1" opacity="0.33" />
  <line x1="691.4" y1="308.9" x2="682.9" y2="293.3" stroke="#bcc3cd" stroke-width="0.9" opacity="0.21" />
  <line x1="691.4" y1="308.9" x2="642.8" y2="293.7" stroke="#bcc3cd" stroke-width="0.9" opacity="0.18" />
  <line x1="691.4" y1="308.9" x2="627.4" y2="295.5" stroke="#bcc3cd" stroke-width="1.3" opacity="0.41" />
  <line x1="691.4" y1="308.9" x2="636.6" y2="308.1" stroke="#bcc3cd" stroke-width="1.0" opacity="0.22" />
  <line x1="691.4" y1="308.9" x2="611.7" y2="290.6" stroke="#bcc3cd" stroke-width="1.1" opacity="0.31" />
  <line x1="691.4" y1="308.9" x2="657.1" y2="309.6" stroke="#bcc3cd" stroke-width="1.7" opacity="0.66" />
  <line x1="544.6" y1="294.0" x2="523.9" y2="286.8" stroke="#bcc3cd" stroke-width="1.5" opacity="0.55" />
  <line x1="544.6" y1="294.0" x2="587.1" y2="275.6" stroke="#bcc3cd" stroke-width="0.9" opacity="0.18" />
  <line x1="544.6" y1="294.0" x2="573.6" y2="282.1" stroke="#bcc3cd" stroke-width="1.1" opacity="0.28" />
  <line x1="544.6" y1="294.0" x2="627.4" y2="295.5" stroke="#bcc3cd" stroke-width="0.9" opacity="0.18" />
  <line x1="544.6" y1="294.0" x2="611.7" y2="290.6" stroke="#bcc3cd" stroke-width="1.1" opacity="0.28" />
  <line x1="544.6" y1="294.0" x2="521.0" y2="297.1" stroke="#bcc3cd" stroke-width="1.5" opacity="0.55" />
  <line x1="544.6" y1="294.0" x2="554.4" y2="311.4" stroke="#bcc3cd" stroke-width="1.2" opacity="0.37" />
  <line x1="544.6" y1="294.0" x2="528.2" y2="278.4" stroke="#bcc3cd" stroke-width="1.5" opacity="0.55" />
  <line x1="544.6" y1="294.0" x2="584.9" y2="284.2" stroke="#bcc3cd" stroke-width="1.5" opacity="0.55" />
  <line x1="523.9" y1="286.8" x2="573.6" y2="282.1" stroke="#bcc3cd" stroke-width="1.0" opacity="0.22" />
  <line x1="523.9" y1="286.8" x2="611.7" y2="290.6" stroke="#bcc3cd" stroke-width="1.0" opacity="0.22" />
  <line x1="523.9" y1="286.8" x2="521.0" y2="297.1" stroke="#bcc3cd" stroke-width="1.2" opacity="0.37" />
  <line x1="523.9" y1="286.8" x2="554.4" y2="311.4" stroke="#bcc3cd" stroke-width="1.1" opacity="0.28" />
  <line x1="523.9" y1="286.8" x2="528.2" y2="278.4" stroke="#bcc3cd" stroke-width="1.2" opacity="0.37" />
  <line x1="523.9" y1="286.8" x2="584.9" y2="284.2" stroke="#bcc3cd" stroke-width="1.2" opacity="0.37" />
  <line x1="678.7" y1="322.5" x2="627.4" y2="295.5" stroke="#bcc3cd" stroke-width="0.9" opacity="0.18" />
  <line x1="678.7" y1="322.5" x2="636.6" y2="308.1" stroke="#bcc3cd" stroke-width="0.9" opacity="0.18" />
  <line x1="678.7" y1="322.5" x2="611.7" y2="290.6" stroke="#bcc3cd" stroke-width="1.0" opacity="0.22" />
  <line x1="678.7" y1="322.5" x2="657.1" y2="309.6" stroke="#bcc3cd" stroke-width="1.3" opacity="0.41" />
  <line x1="682.9" y1="293.3" x2="642.8" y2="293.7" stroke="#bcc3cd" stroke-width="1.1" opacity="0.31" />
  <line x1="682.9" y1="293.3" x2="627.4" y2="295.5" stroke="#bcc3cd" stroke-width="1.4" opacity="0.47" />
  <line x1="682.9" y1="293.3" x2="636.6" y2="308.1" stroke="#bcc3cd" stroke-width="0.9" opacity="0.19" />
  <line x1="682.9" y1="293.3" x2="611.7" y2="290.6" stroke="#bcc3cd" stroke-width="1.0" opacity="0.22" />
  <line x1="642.8" y1="293.7" x2="606.6" y2="302.4" stroke="#bcc3cd" stroke-width="1.1" opacity="0.29" />
  <line x1="642.8" y1="293.7" x2="587.1" y2="275.6" stroke="#bcc3cd" stroke-width="0.9" opacity="0.17" />
  <line x1="642.8" y1="293.7" x2="573.6" y2="282.1" stroke="#bcc3cd" stroke-width="0.9" opacity="0.20" />
  <line x1="642.8" y1="293.7" x2="627.4" y2="295.5" stroke="#bcc3cd" stroke-width="1.3" opacity="0.40" />
  <line x1="642.8" y1="293.7" x2="636.6" y2="308.1" stroke="#bcc3cd" stroke-width="1.0" opacity="0.24" />
  <line x1="642.8" y1="293.7" x2="611.7" y2="290.6" stroke="#bcc3cd" stroke-width="0.9" opacity="0.20" />
  <line x1="642.8" y1="293.7" x2="584.9" y2="284.2" stroke="#bcc3cd" stroke-width="1.0" opacity="0.24" />
  <line x1="606.6" y1="302.4" x2="573.6" y2="282.1" stroke="#bcc3cd" stroke-width="0.9" opacity="0.18" />
  <line x1="606.6" y1="302.4" x2="636.6" y2="308.1" stroke="#bcc3cd" stroke-width="1.0" opacity="0.23" />
  <line x1="606.6" y1="302.4" x2="611.7" y2="290.6" stroke="#bcc3cd" stroke-width="0.9" opacity="0.18" />
  <line x1="606.6" y1="302.4" x2="580.6" y2="294.2" stroke="#bcc3cd" stroke-width="1.0" opacity="0.24" />
  <line x1="606.6" y1="302.4" x2="584.9" y2="284.2" stroke="#bcc3cd" stroke-width="1.0" opacity="0.22" />
  <line x1="587.1" y1="275.6" x2="573.6" y2="282.1" stroke="#bcc3cd" stroke-width="1.1" opacity="0.28" />
  <line x1="587.1" y1="275.6" x2="627.4" y2="295.5" stroke="#bcc3cd" stroke-width="1.0" opacity="0.22" />
  <line x1="587.1" y1="275.6" x2="611.7" y2="290.6" stroke="#bcc3cd" stroke-width="1.1" opacity="0.28" />
  <line x1="587.1" y1="275.6" x2="580.6" y2="294.2" stroke="#bcc3cd" stroke-width="0.9" opacity="0.20" />
  <line x1="587.1" y1="275.6" x2="584.9" y2="284.2" stroke="#bcc3cd" stroke-width="1.2" opacity="0.37" />
  <line x1="573.6" y1="282.1" x2="627.4" y2="295.5" stroke="#bcc3cd" stroke-width="1.1" opacity="0.28" />
  <line x1="573.6" y1="282.1" x2="611.7" y2="290.6" stroke="#bcc3cd" stroke-width="1.2" opacity="0.37" />
  <line x1="573.6" y1="282.1" x2="521.0" y2="297.1" stroke="#bcc3cd" stroke-width="1.0" opacity="0.22" />
  <line x1="573.6" y1="282.1" x2="580.6" y2="294.2" stroke="#bcc3cd" stroke-width="1.0" opacity="0.24" />
  <line x1="573.6" y1="282.1" x2="554.4" y2="311.4" stroke="#bcc3cd" stroke-width="0.9" opacity="0.18" />
  <line x1="573.6" y1="282.1" x2="528.2" y2="278.4" stroke="#bcc3cd" stroke-width="1.0" opacity="0.22" />
  <line x1="573.6" y1="282.1" x2="584.9" y2="284.2" stroke="#bcc3cd" stroke-width="1.5" opacity="0.55" />
  <line x1="627.4" y1="295.5" x2="636.6" y2="308.1" stroke="#bcc3cd" stroke-width="1.1" opacity="0.29" />
  <line x1="627.4" y1="295.5" x2="611.7" y2="290.6" stroke="#bcc3cd" stroke-width="1.4" opacity="0.47" />
  <line x1="627.4" y1="295.5" x2="580.6" y2="294.2" stroke="#bcc3cd" stroke-width="0.9" opacity="0.20" />
  <line x1="627.4" y1="295.5" x2="657.1" y2="309.6" stroke="#bcc3cd" stroke-width="1.1" opacity="0.31" />
  <line x1="627.4" y1="295.5" x2="554.4" y2="311.4" stroke="#bcc3cd" stroke-width="1.1" opacity="0.31" />
  <line x1="627.4" y1="295.5" x2="584.9" y2="284.2" stroke="#bcc3cd" stroke-width="1.2" opacity="0.37" />
  <line x1="636.6" y1="308.1" x2="611.7" y2="290.6" stroke="#bcc3cd" stroke-width="1.2" opacity="0.34" />
  <line x1="636.6" y1="308.1" x2="657.1" y2="309.6" stroke="#bcc3cd" stroke-width="1.0" opacity="0.25" />
  <line x1="636.6" y1="308.1" x2="554.4" y2="311.4" stroke="#bcc3cd" stroke-width="1.0" opacity="0.25" />
  <line x1="636.6" y1="308.1" x2="584.9" y2="284.2" stroke="#bcc3cd" stroke-width="0.9" opacity="0.17" />
  <line x1="611.7" y1="290.6" x2="521.0" y2="297.1" stroke="#bcc3cd" stroke-width="1.0" opacity="0.22" />
  <line x1="611.7" y1="290.6" x2="580.6" y2="294.2" stroke="#bcc3cd" stroke-width="1.0" opacity="0.24" />
  <line x1="611.7" y1="290.6" x2="657.1" y2="309.6" stroke="#bcc3cd" stroke-width="1.3" opacity="0.44" />
  <line x1="611.7" y1="290.6" x2="554.4" y2="311.4" stroke="#bcc3cd" stroke-width="1.3" opacity="0.44" />
  <line x1="611.7" y1="290.6" x2="528.2" y2="278.4" stroke="#bcc3cd" stroke-width="1.0" opacity="0.22" />
  <line x1="611.7" y1="290.6" x2="584.9" y2="284.2" stroke="#bcc3cd" stroke-width="1.5" opacity="0.55" />
  <line x1="263.3" y1="455.9" x2="217.9" y2="453.1" stroke="#bcc3cd" stroke-width="1.0" opacity="0.22" />
  <line x1="478.3" y1="319.0" x2="584.9" y2="284.2" stroke="#bcc3cd" stroke-width="1.0" opacity="0.22" />
  <line x1="521.0" y1="297.1" x2="554.4" y2="311.4" stroke="#bcc3cd" stroke-width="1.1" opacity="0.28" />
  <line x1="521.0" y1="297.1" x2="528.2" y2="278.4" stroke="#bcc3cd" stroke-width="1.2" opacity="0.37" />
  <line x1="521.0" y1="297.1" x2="584.9" y2="284.2" stroke="#bcc3cd" stroke-width="1.2" opacity="0.37" />
  <line x1="653.6" y1="154.4" x2="678.9" y2="171.4" stroke="#bcc3cd" stroke-width="1.5" opacity="0.55" />
  <line x1="653.6" y1="154.4" x2="611.1" y2="183.3" stroke="#bcc3cd" stroke-width="1.3" opacity="0.41" />
  <line x1="678.9" y1="171.4" x2="611.1" y2="183.3" stroke="#bcc3cd" stroke-width="1.0" opacity="0.24" />
  <line x1="580.6" y1="294.2" x2="584.9" y2="284.2" stroke="#bcc3cd" stroke-width="1.1" opacity="0.31" />
  <line x1="657.1" y1="309.6" x2="554.4" y2="311.4" stroke="#bcc3cd" stroke-width="1.0" opacity="0.22" />
  <line x1="554.4" y1="311.4" x2="481.8" y2="341.0" stroke="#bcc3cd" stroke-width="1.2" opacity="0.37" />
  <line x1="554.4" y1="311.4" x2="464.3" y2="353.6" stroke="#bcc3cd" stroke-width="0.9" opacity="0.18" />
  <line x1="554.4" y1="311.4" x2="528.2" y2="278.4" stroke="#bcc3cd" stroke-width="1.1" opacity="0.28" />
  <line x1="554.4" y1="311.4" x2="584.9" y2="284.2" stroke="#bcc3cd" stroke-width="1.1" opacity="0.28" />
  <line x1="481.8" y1="341.0" x2="464.3" y2="353.6" stroke="#bcc3cd" stroke-width="1.1" opacity="0.28" />
  <line x1="528.2" y1="278.4" x2="464.9" y2="256.8" stroke="#bcc3cd" stroke-width="1.1" opacity="0.31" />
  <line x1="528.2" y1="278.4" x2="584.9" y2="284.2" stroke="#bcc3cd" stroke-width="1.2" opacity="0.37" />
  <circle cx="669.4" cy="265.3" r="15.8" fill="#7f8c8d" opacity="0.88" />
  <circle cx="698.1" cy="138.0" r="5.9" fill="#e67e22" opacity="0.88" />
  <circle cx="687.0" cy="232.8" r="16" fill="#2ecc71" opacity="0.88" />
  <circle cx="599.7" cy="201.5" r="15.8" fill="#3498db" opacity="0.88" />
  <circle cx="669.2" cy="249.2" r="16" fill="#3498db" opacity="0.88" />
  <circle cx="620.2" cy="257.9" r="14.9" fill="#e67e22" opacity="0.88" />
  <circle cx="732.7" cy="282.6" r="16" fill="#3498db" opacity="0.88" />
  <circle cx="649.0" cy="275.1" r="11.3" fill="#3498db" opacity="0.88" />
  <circle cx="689.5" cy="251.9" r="16" fill="#3498db" opacity="0.88" />
  <circle cx="575.2" cy="263.4" r="13.1" fill="#e67e22" opacity="0.88" />
  <circle cx="650.4" cy="238.5" r="8.6" fill="#3498db" opacity="0.88" />
  <circle cx="650.7" cy="199.7" r="11.3" fill="#3498db" opacity="0.88" />
  <circle cx="645.1" cy="265.8" r="12.2" fill="#3498db" opacity="0.88" />
  <circle cx="632.7" cy="229.3" r="12.2" fill="#3498db" opacity="0.88" />
  <circle cx="716.5" cy="256.8" r="14.9" fill="#3498db" opacity="0.88" />
  <circle cx="676.5" cy="279.7" r="16" fill="#9b59b6" opacity="0.88" />
  <circle cx="728.0" cy="298.3" r="16" fill="#e74c3c" opacity="0.88" />
  <circle cx="653.0" cy="326.9" r="16" fill="#9b59b6" opacity="0.88" />
  <circle cx="632.0" cy="271.6" r="14.0" fill="#3498db" opacity="0.88" />
  <circle cx="636.2" cy="260.1" r="14.0" fill="#3498db" opacity="0.88" />
  <circle cx="471.9" cy="239.0" r="10.4" fill="#e74c3c" opacity="0.88" />
  <circle cx="50.0" cy="414.1" r="12.2" fill="#3498db" opacity="0.88" />
  <circle cx="550.7" cy="258.8" r="10.4" fill="#e74c3c" opacity="0.88" />
  <circle cx="151.3" cy="132.5" r="12.2" fill="#3498db" opacity="0.88" />
  <circle cx="113.1" cy="120.6" r="11.3" fill="#3498db" opacity="0.88" />
  <circle cx="813.0" cy="357.6" r="5.9" fill="#3498db" opacity="0.88" />
  <circle cx="623.1" cy="320.6" r="12.2" fill="#9b59b6" opacity="0.88" />
  <circle cx="663.6" cy="300.1" r="15.8" fill="#9b59b6" opacity="0.88" />
  <circle cx="691.4" cy="308.9" r="8.6" fill="#9b59b6" opacity="0.88" />
  <circle cx="544.6" cy="294.0" r="5" fill="#2ecc71" opacity="0.88" />
  <circle cx="523.9" cy="286.8" r="5.9" fill="#e74c3c" opacity="0.88" />
  <circle cx="678.7" cy="322.5" r="11.3" fill="#e67e22" opacity="0.88" />
  <circle cx="682.9" cy="293.3" r="16" fill="#2ecc71" opacity="0.88" />
  <circle cx="878.7" cy="385.2" r="6.8" fill="#9b59b6" opacity="0.88" />
  <circle cx="378.3" cy="500.0" r="5" fill="#7f8c8d" opacity="0.88" />
  <circle cx="642.8" cy="293.7" r="12.2" fill="#3498db" opacity="0.88" />
  <circle cx="606.6" cy="302.4" r="13.1" fill="#9b59b6" opacity="0.88" />
  <circle cx="587.1" cy="275.6" r="9.5" fill="#7f8c8d" opacity="0.88" />
  <circle cx="705.6" cy="50.0" r="5" fill="#7f8c8d" opacity="0.88" />
  <circle cx="573.6" cy="282.1" r="7.7" fill="#7f8c8d" opacity="0.88" />
  <circle cx="627.4" cy="295.5" r="9.5" fill="#9b59b6" opacity="0.88" />
  <circle cx="636.6" cy="308.1" r="15.8" fill="#2ecc71" opacity="0.88" />
  <circle cx="611.7" cy="290.6" r="7.7" fill="#9b59b6" opacity="0.88" />
  <circle cx="263.3" cy="455.9" r="7.7" fill="#e67e22" opacity="0.88" />
  <circle cx="478.3" cy="319.0" r="7.7" fill="#3498db" opacity="0.88" />
  <circle cx="521.0" cy="297.1" r="5.9" fill="#7f8c8d" opacity="0.88" />
  <circle cx="653.6" cy="154.4" r="6.8" fill="#e67e22" opacity="0.88" />
  <circle cx="678.9" cy="171.4" r="6.8" fill="#e67e22" opacity="0.88" />
  <circle cx="580.6" cy="294.2" r="10.4" fill="#7f8c8d" opacity="0.88" />
  <circle cx="611.1" cy="183.3" r="11.3" fill="#e67e22" opacity="0.88" />
  <circle cx="217.9" cy="453.1" r="5.9" fill="#e67e22" opacity="0.88" />
  <circle cx="657.1" cy="309.6" r="6.8" fill="#9b59b6" opacity="0.88" />
  <circle cx="554.4" cy="311.4" r="6.8" fill="#7f8c8d" opacity="0.88" />
  <circle cx="481.8" cy="341.0" r="5" fill="#2ecc71" opacity="0.88" />
  <circle cx="464.3" cy="353.6" r="7.7" fill="#2ecc71" opacity="0.88" />
  <circle cx="528.2" cy="278.4" r="5.9" fill="#e74c3c" opacity="0.88" />
  <circle cx="464.9" cy="256.8" r="10.4" fill="#e74c3c" opacity="0.88" />
  <circle cx="584.9" cy="284.2" r="5.9" fill="#7f8c8d" opacity="0.88" />
  <circle cx="910.0" cy="95.3" r="5" fill="#7f8c8d" opacity="0.88" />
  <rect x="687.2" y="217.8" width="124.4" height="15" fill="#ffffff" opacity="0.75" rx="2" />
  <text x="688.2" y="228.8" font-family="system-ui, -apple-system, sans-serif" font-size="12" fill="#1f2328" text-anchor="start">tinyland-huskycat</text>
  <rect x="706.0" y="65.1" width="66.8" height="15" fill="#ffffff" opacity="0.75" rx="2" />
  <text x="707.0" y="76.1" font-family="system-ui, -apple-system, sans-serif" font-size="12" fill="#1f2328" text-anchor="start">zig-ctap2</text>
  <rect x="705.0" y="307.8" width="59.6" height="15" fill="#ffffff" opacity="0.75" rx="2" />
  <text x="706.0" y="318.8" font-family="system-ui, -apple-system, sans-serif" font-size="12" fill="#1f2328" text-anchor="start">gnucashr</text>
  <rect x="617.5" y="188.8" width="88.4" height="15" fill="#ffffff" opacity="0.75" rx="2" />
  <text x="618.5" y="199.8" font-family="system-ui, -apple-system, sans-serif" font-size="12" fill="#1f2328" text-anchor="start">waifu-mirror</text>
  <rect x="687.2" y="253.8" width="81.2" height="15" fill="#ffffff" opacity="0.75" rx="2" />
  <text x="688.2" y="264.8" font-family="system-ui, -apple-system, sans-serif" font-size="12" fill="#1f2328" text-anchor="start">tailnet-acl</text>
  <rect x="637.1" y="312.1" width="45.2" height="15" fill="#ffffff" opacity="0.75" rx="2" />
  <text x="638.1" y="323.1" font-family="system-ui, -apple-system, sans-serif" font-size="12" fill="#1f2328" text-anchor="start">XoxdWM</text>
  <rect x="750.7" y="226.8" width="117.2" height="15" fill="#ffffff" opacity="0.75" rx="2" />
  <text x="751.7" y="237.8" font-family="system-ui, -apple-system, sans-serif" font-size="12" fill="#1f2328" text-anchor="start">GloriousFlywheel</text>
  <rect x="662.3" y="199.0" width="203.6" height="15" fill="#ffffff" opacity="0.75" rx="2" />
  <text x="663.3" y="210.0" font-family="system-ui, -apple-system, sans-serif" font-size="12" fill="#1f2328" text-anchor="start">winrm-molecule-forkbomb-demo</text>
  <rect x="707.5" y="331.4" width="74.0" height="15" fill="#ffffff" opacity="0.75" rx="2" />
  <text x="708.5" y="342.4" font-family="system-ui, -apple-system, sans-serif" font-size="12" fill="#1f2328" text-anchor="start">tummycrypt</text>
  <rect x="590.3" y="327.5" width="110.0" height="15" fill="#ffffff" opacity="0.75" rx="2" />
  <text x="591.3" y="338.5" font-family="system-ui, -apple-system, sans-serif" font-size="12" fill="#1f2328" text-anchor="start">hiberpower-ntfs</text>
  <rect x="661.0" y="228.5" width="16.4" height="15" fill="#ffffff" opacity="0.75" rx="2" />
  <text x="662.0" y="239.5" font-family="system-ui, -apple-system, sans-serif" font-size="12" fill="#1f2328" text-anchor="start">pp</text>
  <rect x="664.0" y="174.4" width="117.2" height="15" fill="#ffffff" opacity="0.75" rx="2" />
  <text x="665.0" y="185.4" font-family="system-ui, -apple-system, sans-serif" font-size="12" fill="#1f2328" text-anchor="start">tinyland-cleanup</text>
  <rect x="659.3" y="212.3" width="66.8" height="15" fill="#ffffff" opacity="0.75" rx="2" />
  <text x="660.3" y="223.3" font-family="system-ui, -apple-system, sans-serif" font-size="12" fill="#1f2328" text-anchor="start">betterkvm</text>
  <rect x="646.9" y="107.7" width="131.6" height="15" fill="#ffffff" opacity="0.75" rx="2" />
  <text x="647.9" y="118.7" font-family="system-ui, -apple-system, sans-serif" font-size="12" fill="#1f2328" text-anchor="start">aperture-bootstrap</text>
  <rect x="733.4" y="293.3" width="102.8" height="15" fill="#ffffff" opacity="0.75" rx="2" />
  <text x="734.4" y="304.3" font-family="system-ui, -apple-system, sans-serif" font-size="12" fill="#1f2328" text-anchor="start">tinyland-infra</text>
  <rect x="694.5" y="230.8" width="52.4" height="15" fill="#ffffff" opacity="0.75" rx="2" />
  <text x="695.5" y="241.8" font-family="system-ui, -apple-system, sans-serif" font-size="12" fill="#1f2328" text-anchor="start">LA-Mesh</text>
  <rect x="746.0" y="185.4" width="131.6" height="15" fill="#ffffff" opacity="0.75" rx="2" />
  <text x="747.0" y="196.4" font-family="system-ui, -apple-system, sans-serif" font-size="12" fill="#1f2328" text-anchor="start">pixelwise-research</text>
  <rect x="671.0" y="350.3" width="95.6" height="15" fill="#ffffff" opacity="0.75" rx="2" />
  <text x="672.0" y="361.3" font-family="system-ui, -apple-system, sans-serif" font-size="12" fill="#1f2328" text-anchor="start">GIS_Shortcuts</text>
  <rect x="648.0" y="259.4" width="138.8" height="15" fill="#ffffff" opacity="0.75" rx="2" />
  <text x="649.0" y="270.4" font-family="system-ui, -apple-system, sans-serif" font-size="12" fill="#1f2328" text-anchor="start">Ansible-DAG-Harness</text>
  <rect x="652.2" y="150.6" width="95.6" height="15" fill="#ffffff" opacity="0.75" rx="2" />
  <text x="653.2" y="161.6" font-family="system-ui, -apple-system, sans-serif" font-size="12" fill="#1f2328" text-anchor="start">DarwinNicUtil</text>
  <rect x="484.3" y="225.8" width="66.8" height="15" fill="#ffffff" opacity="0.75" rx="2" />
  <text x="485.3" y="236.8" font-family="system-ui, -apple-system, sans-serif" font-size="12" fill="#1f2328" text-anchor="start">quickchpl</text>
  <rect x="64.2" y="407.3" width="131.6" height="15" fill="#ffffff" opacity="0.75" rx="2" />
  <text x="65.2" y="418.3" font-family="system-ui, -apple-system, sans-serif" font-size="12" fill="#1f2328" text-anchor="start">tinyscale-mikrotik</text>
  <rect x="563.1" y="214.4" width="59.6" height="15" fill="#ffffff" opacity="0.75" rx="2" />
  <text x="564.1" y="225.4" font-family="system-ui, -apple-system, sans-serif" font-size="12" fill="#1f2328" text-anchor="start">aoc-2025</text>
  <rect x="165.5" y="128.2" width="66.8" height="15" fill="#ffffff" opacity="0.75" rx="2" />
  <text x="166.5" y="139.2" font-family="system-ui, -apple-system, sans-serif" font-size="12" fill="#1f2328" text-anchor="start">searchies</text>
  <rect x="126.4" y="111.2" width="59.6" height="15" fill="#ffffff" opacity="0.75" rx="2" />
  <text x="127.4" y="122.2" font-family="system-ui, -apple-system, sans-serif" font-size="12" fill="#1f2328" text-anchor="start">ts-caddy</text>
  <rect x="738.3" y="404.5" width="66.8" height="15" fill="#ffffff" opacity="0.75" rx="2" />
  <text x="804.1" y="415.5" font-family="system-ui, -apple-system, sans-serif" font-size="12" fill="#1f2328" text-anchor="end">HCI-notes</text>
  <rect x="637.3" y="280.8" width="88.4" height="15" fill="#ffffff" opacity="0.75" rx="2" />
  <text x="638.3" y="291.8" font-family="system-ui, -apple-system, sans-serif" font-size="12" fill="#1f2328" text-anchor="start">FastPhotoAPI</text>
  <rect x="681.4" y="338.0" width="81.2" height="15" fill="#ffffff" opacity="0.75" rx="2" />
  <text x="682.4" y="349.0" font-family="system-ui, -apple-system, sans-serif" font-size="12" fill="#1f2328" text-anchor="start">timberbuddy</text>
  <rect x="702.0" y="314.4" width="81.2" height="15" fill="#ffffff" opacity="0.75" rx="2" />
  <text x="703.0" y="325.4" font-family="system-ui, -apple-system, sans-serif" font-size="12" fill="#1f2328" text-anchor="start">tetrahedron</text>
  <rect x="551.6" y="297.4" width="95.6" height="15" fill="#ffffff" opacity="0.75" rx="2" />
  <text x="552.6" y="308.4" font-family="system-ui, -apple-system, sans-serif" font-size="12" fill="#1f2328" text-anchor="start">AccuWixReport</text>
  <rect x="531.8" y="277.5" width="95.6" height="15" fill="#ffffff" opacity="0.75" rx="2" />
  <text x="532.8" y="288.5" font-family="system-ui, -apple-system, sans-serif" font-size="12" fill="#1f2328" text-anchor="start">Jess-AOC-2023</text>
  <rect x="692.0" y="377.5" width="81.2" height="15" fill="#ffffff" opacity="0.75" rx="2" />
  <text x="693.0" y="388.5" font-family="system-ui, -apple-system, sans-serif" font-size="12" fill="#1f2328" text-anchor="start">TurkeyProbe</text>
  <rect x="700.9" y="392.3" width="153.2" height="15" fill="#ffffff" opacity="0.75" rx="2" />
  <text x="701.9" y="403.3" font-family="system-ui, -apple-system, sans-serif" font-size="12" fill="#1f2328" text-anchor="start">MerlinAI-Interpreters</text>
  <rect x="759.9" y="419.1" width="110.0" height="15" fill="#ffffff" opacity="0.75" rx="2" />
  <text x="868.9" y="430.1" font-family="system-ui, -apple-system, sans-serif" font-size="12" fill="#1f2328" text-anchor="end">IntroTypeScript</text>
  <rect x="385.3" y="493.2" width="110.0" height="15" fill="#ffffff" opacity="0.75" rx="2" />
  <text x="386.3" y="504.2" font-family="system-ui, -apple-system, sans-serif" font-size="12" fill="#1f2328" text-anchor="start">IG-3DP-Profiles</text>
  <rect x="657.0" y="162.9" width="66.8" height="15" fill="#ffffff" opacity="0.75" rx="2" />
  <text x="658.0" y="173.9" font-family="system-ui, -apple-system, sans-serif" font-size="12" fill="#1f2328" text-anchor="start">DLA-Flask</text>
  <rect x="621.7" y="344.5" width="38.0" height="15" fill="#ffffff" opacity="0.75" rx="2" />
  <text x="622.7" y="355.5" font-family="system-ui, -apple-system, sans-serif" font-size="12" fill="#1f2328" text-anchor="start">USBoN</text>
  <rect x="598.6" y="247.8" width="203.6" height="15" fill="#ffffff" opacity="0.75" rx="2" />
  <text x="599.6" y="258.8" font-family="system-ui, -apple-system, sans-serif" font-size="12" fill="#1f2328" text-anchor="start">chrome-remote-desktop-budgie</text>
  <rect x="712.6" y="43.2" width="124.4" height="15" fill="#ffffff" opacity="0.75" rx="2" />
  <text x="713.6" y="54.2" font-family="system-ui, -apple-system, sans-serif" font-size="12" fill="#1f2328" text-anchor="start">OminousBeepingApp</text>
  <rect x="583.3" y="421.2" width="138.8" height="15" fill="#ffffff" opacity="0.75" rx="2" />
  <text x="584.3" y="432.2" font-family="system-ui, -apple-system, sans-serif" font-size="12" fill="#1f2328" text-anchor="start">mo-image-identifier</text>
  <rect x="638.9" y="270.7" width="196.4" height="15" fill="#ffffff" opacity="0.75" rx="2" />
  <text x="639.9" y="281.7" font-family="system-ui, -apple-system, sans-serif" font-size="12" fill="#1f2328" text-anchor="start">squirrel-leaflet-annotation</text>
  <rect x="654.4" y="297.8" width="74.0" height="15" fill="#ffffff" opacity="0.75" rx="2" />
  <text x="655.4" y="308.8" font-family="system-ui, -apple-system, sans-serif" font-size="12" fill="#1f2328" text-anchor="start">Shiny-Apps</text>
  <rect x="621.4" y="362.8" width="138.8" height="15" fill="#ffffff" opacity="0.75" rx="2" />
  <text x="622.4" y="373.8" font-family="system-ui, -apple-system, sans-serif" font-size="12" fill="#1f2328" text-anchor="start">bbox-jest-puppeteer</text>
  <rect x="273.0" y="456.2" width="88.4" height="15" fill="#ffffff" opacity="0.75" rx="2" />
  <text x="274.0" y="467.2" font-family="system-ui, -apple-system, sans-serif" font-size="12" fill="#1f2328" text-anchor="start">DoverDisplay</text>
  <rect x="488.0" y="316.9" width="81.2" height="15" fill="#ffffff" opacity="0.75" rx="2" />
  <text x="489.0" y="327.9" font-family="system-ui, -apple-system, sans-serif" font-size="12" fill="#1f2328" text-anchor="start">LeafletSync</text>
  <rect x="528.9" y="392.2" width="167.6" height="15" fill="#ffffff" opacity="0.75" rx="2" />
  <text x="529.9" y="403.2" font-family="system-ui, -apple-system, sans-serif" font-size="12" fill="#1f2328" text-anchor="start">misc-roi-distance-notes</text>
  <rect x="662.4" y="79.6" width="138.8" height="15" fill="#ffffff" opacity="0.75" rx="2" />
  <text x="663.4" y="90.6" font-family="system-ui, -apple-system, sans-serif" font-size="12" fill="#1f2328" text-anchor="start">Arduino_Coil_Winder</text>
  <rect x="687.7" y="96.6" width="30.8" height="15" fill="#ffffff" opacity="0.75" rx="2" />
  <text x="688.7" y="107.6" font-family="system-ui, -apple-system, sans-serif" font-size="12" fill="#1f2328" text-anchor="start">momo</text>
  <rect x="593.0" y="262.8" width="38.0" height="15" fill="#ffffff" opacity="0.75" rx="2" />
  <text x="594.0" y="273.8" font-family="system-ui, -apple-system, sans-serif" font-size="12" fill="#1f2328" text-anchor="start">clipi</text>
  <rect x="624.4" y="120.7" width="110.0" height="15" fill="#ffffff" opacity="0.75" rx="2" />
  <text x="625.4" y="131.7" font-family="system-ui, -apple-system, sans-serif" font-size="12" fill="#1f2328" text-anchor="start">AeroTaz5_hotfix</text>
  <rect x="225.8" y="439.2" width="110.0" height="15" fill="#ffffff" opacity="0.75" rx="2" />
  <text x="226.8" y="450.2" font-family="system-ui, -apple-system, sans-serif" font-size="12" fill="#1f2328" text-anchor="start">Funmat-HT-Notes</text>
  <rect x="665.9" y="137.7" width="81.2" height="15" fill="#ffffff" opacity="0.75" rx="2" />
  <text x="666.9" y="148.7" font-family="system-ui, -apple-system, sans-serif" font-size="12" fill="#1f2328" text-anchor="start">static-site</text>
  <rect x="563.2" y="229.0" width="95.6" height="15" fill="#ffffff" opacity="0.75" rx="2" />
  <text x="564.2" y="240.0" font-family="system-ui, -apple-system, sans-serif" font-size="12" fill="#1f2328" text-anchor="start">Flask-Manager</text>
  <rect x="488.8" y="358.6" width="110.0" height="15" fill="#ffffff" opacity="0.75" rx="2" />
  <text x="489.8" y="369.6" font-family="system-ui, -apple-system, sans-serif" font-size="12" fill="#1f2328" text-anchor="start">FieldProcessing</text>
  <rect x="474.0" y="409.2" width="81.2" height="15" fill="#ffffff" opacity="0.75" rx="2" />
  <text x="475.0" y="420.2" font-family="system-ui, -apple-system, sans-serif" font-size="12" fill="#1f2328" text-anchor="start">rJDKmanager</text>
  <rect x="536.1" y="341.6" width="59.6" height="15" fill="#ffffff" opacity="0.75" rx="2" />
  <text x="537.1" y="352.6" font-family="system-ui, -apple-system, sans-serif" font-size="12" fill="#1f2328" text-anchor="start">tagnotes</text>
  <rect x="477.3" y="240.6" width="81.2" height="15" fill="#ffffff" opacity="0.75" rx="2" />
  <text x="478.3" y="251.6" font-family="system-ui, -apple-system, sans-serif" font-size="12" fill="#1f2328" text-anchor="start">ChapelTests</text>
  <rect x="592.8" y="409.2" width="88.4" height="15" fill="#ffffff" opacity="0.75" rx="2" />
  <text x="593.8" y="420.2" font-family="system-ui, -apple-system, sans-serif" font-size="12" fill="#1f2328" text-anchor="start">Xfinity-WiFi</text>
  <rect x="836.2" y="88.5" width="66.8" height="15" fill="#ffffff" opacity="0.75" rx="2" />
  <text x="902.0" y="99.5" font-family="system-ui, -apple-system, sans-serif" font-size="12" fill="#1f2328" text-anchor="end">home-wiki</text>
  <rect x="793" y="36" width="155" height="120" rx="6" fill="#f6f8fa" stroke="#d0d7de" stroke-width="1" opacity="0.95" />
  <circle cx="810" cy="52" r="5" fill="#e74c3c" opacity="0.88" />
  <text x="820" y="56" font-family="system-ui, -apple-system, sans-serif" font-size="10" fill="#1f2328">Languages &amp; Compilers</text>
  <circle cx="810" cy="69" r="5" fill="#3498db" opacity="0.88" />
  <text x="820" y="73" font-family="system-ui, -apple-system, sans-serif" font-size="10" fill="#1f2328">Infrastructure &amp; DevOps</text>
  <circle cx="810" cy="86" r="5" fill="#e67e22" opacity="0.88" />
  <text x="820" y="90" font-family="system-ui, -apple-system, sans-serif" font-size="10" fill="#1f2328">Hardware &amp; Maker</text>
  <circle cx="810" cy="103" r="5" fill="#2ecc71" opacity="0.88" />
  <text x="820" y="107" font-family="system-ui, -apple-system, sans-serif" font-size="10" fill="#1f2328">ML &amp; Data</text>
  <circle cx="810" cy="120" r="5" fill="#9b59b6" opacity="0.88" />
  <text x="820" y="124" font-family="system-ui, -apple-system, sans-serif" font-size="10" fill="#1f2328">Web &amp; Apps</text>
  <circle cx="810" cy="137" r="5" fill="#7f8c8d" opacity="0.88" />
  <text x="820" y="141" font-family="system-ui, -apple-system, sans-serif" font-size="10" fill="#1f2328">Other</text>
  <text x="870" y="150" font-family="system-ui, -apple-system, sans-serif" font-size="8" fill="#656d76" text-anchor="middle">59 repos · 251 edges</text>
</svg>