<svg xmlns="http://www.w3.org/2000/svg" width="960" height="600" viewBox="0 0 960 600">
  <rect width="960" height="600" fill="#ffffff" rx="8" />
  <text x="480" y="24" font-family="system-ui, -apple-system, sans-serif" font-size="13" fill="#656d76" text-anchor="middle" font-weight="500">Repo Relationship Graph &#x2014; Pairwise Topic &amp; Language Similarity</text>
  <line x1="50" y1="550" x2="910" y2="550" stroke="#d0d7de" stroke-width="0.5" opacity="0.5" />
  <text x="50" y="570" font-family="system-ui, -apple-system, sans-serif" font-size="9" fill="#656d76" opacity="0.6">Updated daily by GitHub Actions</text>
  <text x="50" y="588" font-family="system-ui, -apple-system, sans-serif" font-size="9" fill="#656d76" opacity="0.6">networkx spring_layout · Jaccard similarity &gt; 0.15</text>
  <text x="910" y="570" font-family="system-ui, -apple-system, sans-serif" font-size="9" fill="#656d76" text-anchor="end" opacity="0.6">57 repos · 238 edges</text>
  <line x1="381.3" y1="220.4" x2="355.3" y2="246.2" stroke="#bcc3cd" stroke-width="1.0" opacity="0.22" />
  <line x1="381.3" y1="220.4" x2="315.0" y2="194.3" stroke="#bcc3cd" stroke-width="1.1" opacity="0.28" />
  <line x1="381.3" y1="220.4" x2="368.6" y2="240.4" stroke="#bcc3cd" stroke-width="1.0" opacity="0.25" />
  <line x1="381.3" y1="220.4" x2="417.4" y2="259.3" stroke="#bcc3cd" stroke-width="0.9" opacity="0.21" />
  <line x1="381.3" y1="220.4" x2="423.6" y2="241.8" stroke="#bcc3cd" stroke-width="0.9" opacity="0.20" />
  <line x1="381.3" y1="220.4" x2="404.7" y2="241.6" stroke="#bcc3cd" stroke-width="1.0" opacity="0.24" />
  <line x1="381.3" y1="220.4" x2="362.8" y2="203.9" stroke="#bcc3cd" stroke-width="2.0" opacity="0.80" />
  <line x1="381.3" y1="220.4" x2="448.1" y2="215.5" stroke="#bcc3cd" stroke-width="1.0" opacity="0.22" />
  <line x1="381.3" y1="220.4" x2="436.2" y2="235.0" stroke="#bcc3cd" stroke-width="0.9" opacity="0.17" />
  <line x1="381.3" y1="220.4" x2="418.6" y2="233.0" stroke="#bcc3cd" stroke-width="0.9" opacity="0.20" />
  <line x1="381.3" y1="220.4" x2="417.6" y2="222.9" stroke="#bcc3cd" stroke-width="0.9" opacity="0.17" />
  <line x1="381.3" y1="220.4" x2="400.0" y2="212.6" stroke="#bcc3cd" stroke-width="1.5" opacity="0.55" />
  <line x1="381.3" y1="220.4" x2="465.7" y2="226.9" stroke="#bcc3cd" stroke-width="1.0" opacity="0.22" />
  <line x1="355.3" y1="246.2" x2="417.4" y2="259.3" stroke="#bcc3cd" stroke-width="0.9" opacity="0.18" />
  <line x1="355.3" y1="246.2" x2="423.6" y2="241.8" stroke="#bcc3cd" stroke-width="1.0" opacity="0.23" />
  <line x1="355.3" y1="246.2" x2="404.7" y2="241.6" stroke="#bcc3cd" stroke-width="0.9" opacity="0.20" />
  <line x1="355.3" y1="246.2" x2="418.6" y2="233.0" stroke="#bcc3cd" stroke-width="0.9" opacity="0.18" />
  <line x1="315.0" y1="194.3" x2="362.8" y2="203.9" stroke="#bcc3cd" stroke-width="1.1" opacity="0.31" />
  <line x1="473.3" y1="336.0" x2="466.8" y2="354.2" stroke="#bcc3cd" stroke-width="1.5" opacity="0.55" />
  <line x1="473.3" y1="336.0" x2="450.8" y2="290.7" stroke="#bcc3cd" stroke-width="1.0" opacity="0.22" />
  <line x1="473.3" y1="336.0" x2="485.6" y2="376.3" stroke="#bcc3cd" stroke-width="1.2" opacity="0.37" />
  <line x1="473.3" y1="336.0" x2="469.3" y2="260.4" stroke="#bcc3cd" stroke-width="0.9" opacity="0.18" />
  <line x1="368.6" y1="240.4" x2="386.1" y2="275.0" stroke="#bcc3cd" stroke-width="1.2" opacity="0.38" />
  <line x1="368.6" y1="240.4" x2="417.4" y2="259.3" stroke="#bcc3cd" stroke-width="0.9" opacity="0.19" />
  <line x1="368.6" y1="240.4" x2="423.6" y2="241.8" stroke="#bcc3cd" stroke-width="0.9" opacity="0.18" />
  <line x1="368.6" y1="240.4" x2="404.7" y2="241.6" stroke="#bcc3cd" stroke-width="0.9" opacity="0.21" />
  <line x1="368.6" y1="240.4" x2="362.8" y2="203.9" stroke="#bcc3cd" stroke-width="0.9" opacity="0.17" />
  <line x1="368.6" y1="240.4" x2="418.6" y2="233.0" stroke="#bcc3cd" stroke-width="0.9" opacity="0.18" />
  <line x1="368.6" y1="240.4" x2="400.0" y2="212.6" stroke="#bcc3cd" stroke-width="1.0" opacity="0.24" />
  <line x1="386.1" y1="275.0" x2="417.4" y2="259.3" stroke="#bcc3cd" stroke-width="1.2" opacity="0.34" />
  <line x1="386.1" y1="275.0" x2="423.6" y2="241.8" stroke="#bcc3cd" stroke-width="0.9" opacity="0.18" />
  <line x1="386.1" y1="275.0" x2="408.7" y2="295.4" stroke="#bcc3cd" stroke-width="1.0" opacity="0.25" />
  <line x1="386.1" y1="275.0" x2="450.3" y2="272.1" stroke="#bcc3cd" stroke-width="0.9" opacity="0.20" />
  <line x1="386.1" y1="275.0" x2="450.8" y2="290.7" stroke="#bcc3cd" stroke-width="1.0" opacity="0.22" />
  <line x1="417.4" y1="259.3" x2="423.6" y2="241.8" stroke="#bcc3cd" stroke-width="1.1" opacity="0.29" />
  <line x1="417.4" y1="259.3" x2="408.7" y2="295.4" stroke="#bcc3cd" stroke-width="1.2" opacity="0.34" />
  <line x1="417.4" y1="259.3" x2="404.7" y2="241.6" stroke="#bcc3cd" stroke-width="1.1" opacity="0.30" />
  <line x1="417.4" y1="259.3" x2="436.2" y2="235.0" stroke="#bcc3cd" stroke-width="0.9" opacity="0.20" />
  <line x1="417.4" y1="259.3" x2="418.6" y2="233.0" stroke="#bcc3cd" stroke-width="1.0" opacity="0.22" />
  <line x1="417.4" y1="259.3" x2="417.6" y2="222.9" stroke="#bcc3cd" stroke-width="0.9" opacity="0.20" />
  <line x1="417.4" y1="259.3" x2="400.0" y2="212.6" stroke="#bcc3cd" stroke-width="0.9" opacity="0.19" />
  <line x1="417.4" y1="259.3" x2="450.3" y2="272.1" stroke="#bcc3cd" stroke-width="1.2" opacity="0.37" />
  <line x1="417.4" y1="259.3" x2="450.8" y2="290.7" stroke="#bcc3cd" stroke-width="1.2" opacity="0.37" />
  <line x1="417.4" y1="259.3" x2="429.7" y2="274.3" stroke="#bcc3cd" stroke-width="1.1" opacity="0.29" />
  <line x1="417.4" y1="259.3" x2="455.2" y2="258.8" stroke="#bcc3cd" stroke-width="1.0" opacity="0.22" />
  <line x1="417.4" y1="259.3" x2="469.3" y2="260.4" stroke="#bcc3cd" stroke-width="1.2" opacity="0.34" />
  <line x1="417.4" y1="259.3" x2="470.6" y2="268.6" stroke="#bcc3cd" stroke-width="1.0" opacity="0.24" />
  <line x1="417.4" y1="259.3" x2="468.6" y2="246.3" stroke="#bcc3cd" stroke-width="1.1" opacity="0.29" />
  <line x1="417.4" y1="259.3" x2="466.8" y2="278.4" stroke="#bcc3cd" stroke-width="1.0" opacity="0.22" />
  <line x1="423.6" y1="241.8" x2="404.7" y2="241.6" stroke="#bcc3cd" stroke-width="1.0" opacity="0.24" />
  <line x1="423.6" y1="241.8" x2="448.1" y2="215.5" stroke="#bcc3cd" stroke-width="1.0" opacity="0.24" />
  <line x1="423.6" y1="241.8" x2="442.9" y2="205.3" stroke="#bcc3cd" stroke-width="0.9" opacity="0.21" />
  <line x1="423.6" y1="241.8" x2="436.2" y2="235.0" stroke="#bcc3cd" stroke-width="1.1" opacity="0.28" />
  <line x1="423.6" y1="241.8" x2="418.6" y2="233.0" stroke="#bcc3cd" stroke-width="1.1" opacity="0.31" />
  <line x1="423.6" y1="241.8" x2="417.6" y2="222.9" stroke="#bcc3cd" stroke-width="1.1" opacity="0.28" />
  <line x1="423.6" y1="241.8" x2="400.0" y2="212.6" stroke="#bcc3cd" stroke-width="0.9" opacity="0.18" />
  <line x1="423.6" y1="241.8" x2="450.3" y2="272.1" stroke="#bcc3cd" stroke-width="0.9" opacity="0.17" />
  <line x1="423.6" y1="241.8" x2="493.5" y2="239.1" stroke="#bcc3cd" stroke-width="0.9" opacity="0.17" />
  <line x1="423.6" y1="241.8" x2="478.3" y2="231.2" stroke="#bcc3cd" stroke-width="0.9" opacity="0.20" />
  <line x1="423.6" y1="241.8" x2="469.3" y2="260.4" stroke="#bcc3cd" stroke-width="0.9" opacity="0.17" />
  <line x1="423.6" y1="241.8" x2="470.6" y2="268.6" stroke="#bcc3cd" stroke-width="0.9" opacity="0.17" />
  <line x1="423.6" y1="241.8" x2="468.6" y2="246.3" stroke="#bcc3cd" stroke-width="1.1" opacity="0.33" />
  <line x1="423.6" y1="241.8" x2="465.7" y2="226.9" stroke="#bcc3cd" stroke-width="1.0" opacity="0.24" />
  <line x1="408.7" y1="295.4" x2="450.3" y2="272.1" stroke="#bcc3cd" stroke-width="1.0" opacity="0.25" />
  <line x1="408.7" y1="295.4" x2="450.8" y2="290.7" stroke="#bcc3cd" stroke-width="1.1" opacity="0.29" />
  <line x1="408.7" y1="295.4" x2="466.8" y2="278.4" stroke="#bcc3cd" stroke-width="0.9" opacity="0.17" />
  <line x1="404.7" y1="241.6" x2="448.1" y2="215.5" stroke="#bcc3cd" stroke-width="0.9" opacity="0.17" />
  <line x1="404.7" y1="241.6" x2="436.2" y2="235.0" stroke="#bcc3cd" stroke-width="1.0" opacity="0.22" />
  <line x1="404.7" y1="241.6" x2="418.6" y2="233.0" stroke="#bcc3cd" stroke-width="1.0" opacity="0.24" />
  <line x1="404.7" y1="241.6" x2="417.6" y2="222.9" stroke="#bcc3cd" stroke-width="1.0" opacity="0.22" />
  <line x1="404.7" y1="241.6" x2="400.0" y2="212.6" stroke="#bcc3cd" stroke-width="1.0" opacity="0.22" />
  <line x1="404.7" y1="241.6" x2="429.7" y2="274.3" stroke="#bcc3cd" stroke-width="0.9" opacity="0.19" />
  <line x1="404.7" y1="241.6" x2="469.3" y2="260.4" stroke="#bcc3cd" stroke-width="0.9" opacity="0.21" />
  <line x1="404.7" y1="241.6" x2="468.6" y2="246.3" stroke="#bcc3cd" stroke-width="1.0" opacity="0.24" />
  <line x1="404.7" y1="241.6" x2="465.7" y2="226.9" stroke="#bcc3cd" stroke-width="0.9" opacity="0.17" />
  <line x1="474.9" y1="295.4" x2="450.3" y2="272.1" stroke="#bcc3cd" stroke-width="0.9" opacity="0.18" />
  <line x1="474.9" y1="295.4" x2="450.8" y2="290.7" stroke="#bcc3cd" stroke-width="0.9" opacity="0.18" />
  <line x1="474.9" y1="295.4" x2="469.3" y2="260.4" stroke="#bcc3cd" stroke-width="0.9" opacity="0.17" />
  <line x1="474.9" y1="295.4" x2="470.6" y2="268.6" stroke="#bcc3cd" stroke-width="1.3" opacity="0.42" />
  <line x1="474.9" y1="295.4" x2="468.6" y2="246.3" stroke="#bcc3cd" stroke-width="0.9" opacity="0.19" />
  <line x1="474.9" y1="295.4" x2="466.8" y2="278.4" stroke="#bcc3cd" stroke-width="0.9" opacity="0.21" />
  <line x1="362.8" y1="203.9" x2="448.1" y2="215.5" stroke="#bcc3cd" stroke-width="1.1" opacity="0.28" />
  <line x1="362.8" y1="203.9" x2="400.0" y2="212.6" stroke="#bcc3cd" stroke-width="1.2" opacity="0.37" />
  <line x1="448.1" y1="215.5" x2="436.2" y2="235.0" stroke="#bcc3cd" stroke-width="0.9" opacity="0.20" />
  <line x1="448.1" y1="215.5" x2="418.6" y2="233.0" stroke="#bcc3cd" stroke-width="1.0" opacity="0.24" />
  <line x1="448.1" y1="215.5" x2="417.6" y2="222.9" stroke="#bcc3cd" stroke-width="0.9" opacity="0.20" />
  <line x1="448.1" y1="215.5" x2="400.0" y2="212.6" stroke="#bcc3cd" stroke-width="0.9" opacity="0.18" />
  <line x1="448.1" y1="215.5" x2="485.9" y2="216.2" stroke="#bcc3cd" stroke-width="1.5" opacity="0.55" />
  <line x1="448.1" y1="215.5" x2="503.5" y2="212.3" stroke="#bcc3cd" stroke-width="1.2" opacity="0.37" />
  <line x1="448.1" y1="215.5" x2="478.3" y2="231.2" stroke="#bcc3cd" stroke-width="1.0" opacity="0.22" />
  <line x1="448.1" y1="215.5" x2="468.6" y2="246.3" stroke="#bcc3cd" stroke-width="1.0" opacity="0.22" />
  <line x1="448.1" y1="215.5" x2="486.7" y2="204.7" stroke="#bcc3cd" stroke-width="1.2" opacity="0.37" />
  <line x1="448.1" y1="215.5" x2="488.0" y2="225.3" stroke="#bcc3cd" stroke-width="1.1" opacity="0.28" />
  <line x1="448.1" y1="215.5" x2="516.5" y2="214.7" stroke="#bcc3cd" stroke-width="1.2" opacity="0.37" />
  <line x1="448.1" y1="215.5" x2="465.7" y2="226.9" stroke="#bcc3cd" stroke-width="1.2" opacity="0.37" />
  <line x1="442.9" y1="205.3" x2="478.3" y2="231.2" stroke="#bcc3cd" stroke-width="0.9" opacity="0.18" />
  <line x1="442.9" y1="205.3" x2="468.6" y2="246.3" stroke="#bcc3cd" stroke-width="1.1" opacity="0.30" />
  <line x1="442.9" y1="205.3" x2="465.7" y2="226.9" stroke="#bcc3cd" stroke-width="1.0" opacity="0.22" />
  <line x1="436.2" y1="235.0" x2="418.6" y2="233.0" stroke="#bcc3cd" stroke-width="1.1" opacity="0.28" />
  <line x1="436.2" y1="235.0" x2="417.6" y2="222.9" stroke="#bcc3cd" stroke-width="1.0" opacity="0.24" />
  <line x1="436.2" y1="235.0" x2="455.2" y2="258.8" stroke="#bcc3cd" stroke-width="0.9" opacity="0.19" />
  <line x1="436.2" y1="235.0" x2="492.9" y2="255.7" stroke="#bcc3cd" stroke-width="0.9" opacity="0.18" />
  <line x1="436.2" y1="235.0" x2="478.3" y2="231.2" stroke="#bcc3cd" stroke-width="0.9" opacity="0.17" />
  <line x1="436.2" y1="235.0" x2="468.6" y2="246.3" stroke="#bcc3cd" stroke-width="0.9" opacity="0.17" />
  <line x1="436.2" y1="235.0" x2="465.7" y2="226.9" stroke="#bcc3cd" stroke-width="0.9" opacity="0.20" />
  <line x1="418.6" y1="233.0" x2="417.6" y2="222.9" stroke="#bcc3cd" stroke-width="1.1" opacity="0.28" />
  <line x1="418.6" y1="233.0" x2="400.0" y2="212.6" stroke="#bcc3cd" stroke-width="0.9" opacity="0.18" />
  <line x1="418.6" y1="233.0" x2="493.5" y2="239.1" stroke="#bcc3cd" stroke-width="0.9" opacity="0.17" />
  <line x1="418.6" y1="233.0" x2="478.3" y2="231.2" stroke="#bcc3cd" stroke-width="0.9" opacity="0.20" />
  <line x1="418.6" y1="233.0" x2="469.3" y2="260.4" stroke="#bcc3cd" stroke-width="0.9" opacity="0.17" />
  <line x1="418.6" y1="233.0" x2="468.6" y2="246.3" stroke="#bcc3cd" stroke-width="0.9" opacity="0.20" />
  <line x1="418.6" y1="233.0" x2="465.7" y2="226.9" stroke="#bcc3cd" stroke-width="1.0" opacity="0.24" />
  <line x1="417.6" y1="222.9" x2="478.3" y2="231.2" stroke="#bcc3cd" stroke-width="0.9" opacity="0.17" />
  <line x1="417.6" y1="222.9" x2="468.6" y2="246.3" stroke="#bcc3cd" stroke-width="0.9" opacity="0.17" />
  <line x1="417.6" y1="222.9" x2="465.7" y2="226.9" stroke="#bcc3cd" stroke-width="0.9" opacity="0.20" />
  <line x1="400.0" y1="212.6" x2="465.3" y2="180.3" stroke="#bcc3cd" stroke-width="1.0" opacity="0.22" />
  <line x1="400.0" y1="212.6" x2="465.7" y2="226.9" stroke="#bcc3cd" stroke-width="0.9" opacity="0.18" />
  <line x1="616.1" y1="219.2" x2="551.3" y2="229.8" stroke="#bcc3cd" stroke-width="1.3" opacity="0.44" />
  <line x1="616.1" y1="219.2" x2="586.4" y2="205.2" stroke="#bcc3cd" stroke-width="0.9" opacity="0.18" />
  <line x1="551.3" y1="229.8" x2="503.5" y2="212.3" stroke="#bcc3cd" stroke-width="1.1" opacity="0.31" />
  <line x1="551.3" y1="229.8" x2="493.5" y2="239.1" stroke="#bcc3cd" stroke-width="0.9" opacity="0.20" />
  <line x1="551.3" y1="229.8" x2="478.3" y2="231.2" stroke="#bcc3cd" stroke-width="1.0" opacity="0.24" />
  <line x1="551.3" y1="229.8" x2="469.3" y2="260.4" stroke="#bcc3cd" stroke-width="0.9" opacity="0.20" />
  <line x1="551.3" y1="229.8" x2="468.6" y2="246.3" stroke="#bcc3cd" stroke-width="1.0" opacity="0.24" />
  <line x1="551.3" y1="229.8" x2="513.9" y2="248.5" stroke="#bcc3cd" stroke-width="0.9" opacity="0.18" />
  <line x1="551.3" y1="229.8" x2="707.8" y2="237.7" stroke="#bcc3cd" stroke-width="0.9" opacity="0.17" />
  <line x1="551.3" y1="229.8" x2="516.5" y2="214.7" stroke="#bcc3cd" stroke-width="1.1" opacity="0.31" />
  <line x1="551.3" y1="229.8" x2="586.4" y2="205.2" stroke="#bcc3cd" stroke-width="1.1" opacity="0.30" />
  <line x1="551.3" y1="229.8" x2="465.7" y2="226.9" stroke="#bcc3cd" stroke-width="1.1" opacity="0.31" />
  <line x1="239.8" y1="495.4" x2="263.8" y2="500.0" stroke="#bcc3cd" stroke-width="1.6" opacity="0.60" />
  <line x1="466.8" y1="354.2" x2="450.8" y2="290.7" stroke="#bcc3cd" stroke-width="0.9" opacity="0.18" />
  <line x1="466.8" y1="354.2" x2="485.6" y2="376.3" stroke="#bcc3cd" stroke-width="1.1" opacity="0.28" />
  <line x1="497.7" y1="272.3" x2="450.3" y2="272.1" stroke="#bcc3cd" stroke-width="0.9" opacity="0.17" />
  <line x1="497.7" y1="272.3" x2="450.8" y2="290.7" stroke="#bcc3cd" stroke-width="0.9" opacity="0.18" />
  <line x1="497.7" y1="272.3" x2="455.2" y2="258.8" stroke="#bcc3cd" stroke-width="1.0" opacity="0.22" />
  <line x1="497.7" y1="272.3" x2="469.3" y2="260.4" stroke="#bcc3cd" stroke-width="1.1" opacity="0.28" />
  <line x1="497.7" y1="272.3" x2="470.6" y2="268.6" stroke="#bcc3cd" stroke-width="1.1" opacity="0.32" />
  <line x1="497.7" y1="272.3" x2="468.6" y2="246.3" stroke="#bcc3cd" stroke-width="0.9" opacity="0.20" />
  <line x1="497.7" y1="272.3" x2="466.8" y2="278.4" stroke="#bcc3cd" stroke-width="1.0" opacity="0.22" />
  <line x1="497.7" y1="272.3" x2="488.0" y2="225.3" stroke="#bcc3cd" stroke-width="1.0" opacity="0.22" />
  <line x1="450.3" y1="272.1" x2="450.8" y2="290.7" stroke="#bcc3cd" stroke-width="1.3" opacity="0.42" />
  <line x1="450.3" y1="272.1" x2="491.0" y2="290.7" stroke="#bcc3cd" stroke-width="0.9" opacity="0.18" />
  <line x1="450.3" y1="272.1" x2="429.7" y2="274.3" stroke="#bcc3cd" stroke-width="1.1" opacity="0.31" />
  <line x1="450.3" y1="272.1" x2="455.2" y2="258.8" stroke="#bcc3cd" stroke-width="1.1" opacity="0.32" />
  <line x1="450.3" y1="272.1" x2="492.9" y2="255.7" stroke="#bcc3cd" stroke-width="1.0" opacity="0.23" />
  <line x1="450.3" y1="272.1" x2="469.3" y2="260.4" stroke="#bcc3cd" stroke-width="1.2" opacity="0.39" />
  <line x1="450.3" y1="272.1" x2="470.6" y2="268.6" stroke="#bcc3cd" stroke-width="1.0" opacity="0.26" />
  <line x1="450.3" y1="272.1" x2="468.6" y2="246.3" stroke="#bcc3cd" stroke-width="1.2" opacity="0.34" />
  <line x1="450.3" y1="272.1" x2="513.9" y2="248.5" stroke="#bcc3cd" stroke-width="0.9" opacity="0.19" />
  <line x1="450.3" y1="272.1" x2="466.8" y2="278.4" stroke="#bcc3cd" stroke-width="1.0" opacity="0.25" />
  <line x1="450.3" y1="272.1" x2="465.7" y2="226.9" stroke="#bcc3cd" stroke-width="0.9" opacity="0.17" />
  <line x1="450.8" y1="290.7" x2="491.0" y2="290.7" stroke="#bcc3cd" stroke-width="1.1" opacity="0.33" />
  <line x1="450.8" y1="290.7" x2="429.7" y2="274.3" stroke="#bcc3cd" stroke-width="0.9" opacity="0.21" />
  <line x1="450.8" y1="290.7" x2="455.2" y2="258.8" stroke="#bcc3cd" stroke-width="0.9" opacity="0.18" />
  <line x1="450.8" y1="290.7" x2="469.3" y2="260.4" stroke="#bcc3cd" stroke-width="1.3" opacity="0.41" />
  <line x1="450.8" y1="290.7" x2="470.6" y2="268.6" stroke="#bcc3cd" stroke-width="1.0" opacity="0.22" />
  <line x1="450.8" y1="290.7" x2="468.6" y2="246.3" stroke="#bcc3cd" stroke-width="1.1" opacity="0.31" />
  <line x1="450.8" y1="290.7" x2="466.8" y2="278.4" stroke="#bcc3cd" stroke-width="1.7" opacity="0.66" />
  <line x1="485.9" y1="216.2" x2="503.5" y2="212.3" stroke="#bcc3cd" stroke-width="1.5" opacity="0.55" />
  <line x1="485.9" y1="216.2" x2="493.5" y2="239.1" stroke="#bcc3cd" stroke-width="0.9" opacity="0.18" />
  <line x1="485.9" y1="216.2" x2="478.3" y2="231.2" stroke="#bcc3cd" stroke-width="1.1" opacity="0.28" />
  <line x1="485.9" y1="216.2" x2="469.3" y2="260.4" stroke="#bcc3cd" stroke-width="0.9" opacity="0.18" />
  <line x1="485.9" y1="216.2" x2="468.6" y2="246.3" stroke="#bcc3cd" stroke-width="1.1" opacity="0.28" />
  <line x1="485.9" y1="216.2" x2="486.7" y2="204.7" stroke="#bcc3cd" stroke-width="1.5" opacity="0.55" />
  <line x1="485.9" y1="216.2" x2="488.0" y2="225.3" stroke="#bcc3cd" stroke-width="1.2" opacity="0.37" />
  <line x1="485.9" y1="216.2" x2="516.5" y2="214.7" stroke="#bcc3cd" stroke-width="1.5" opacity="0.55" />
  <line x1="485.9" y1="216.2" x2="465.7" y2="226.9" stroke="#bcc3cd" stroke-width="1.5" opacity="0.55" />
  <line x1="503.5" y1="212.3" x2="478.3" y2="231.2" stroke="#bcc3cd" stroke-width="1.0" opacity="0.22" />
  <line x1="503.5" y1="212.3" x2="468.6" y2="246.3" stroke="#bcc3cd" stroke-width="1.0" opacity="0.22" />
  <line x1="503.5" y1="212.3" x2="486.7" y2="204.7" stroke="#bcc3cd" stroke-width="1.2" opacity="0.37" />
  <line x1="503.5" y1="212.3" x2="488.0" y2="225.3" stroke="#bcc3cd" stroke-width="1.1" opacity="0.28" />
  <line x1="503.5" y1="212.3" x2="516.5" y2="214.7" stroke="#bcc3cd" stroke-width="1.2" opacity="0.37" />
  <line x1="503.5" y1="212.3" x2="465.7" y2="226.9" stroke="#bcc3cd" stroke-width="1.2" opacity="0.37" />
  <line x1="491.0" y1="290.7" x2="469.3" y2="260.4" stroke="#bcc3cd" stroke-width="0.9" opacity="0.18" />
  <line x1="491.0" y1="290.7" x2="470.6" y2="268.6" stroke="#bcc3cd" stroke-width="0.9" opacity="0.18" />
  <line x1="491.0" y1="290.7" x2="468.6" y2="246.3" stroke="#bcc3cd" stroke-width="1.0" opacity="0.22" />
  <line x1="491.0" y1="290.7" x2="466.8" y2="278.4" stroke="#bcc3cd" stroke-width="1.3" opacity="0.41" />
  <line x1="429.7" y1="274.3" x2="455.2" y2="258.8" stroke="#bcc3cd" stroke-width="1.1" opacity="0.31" />
  <line x1="429.7" y1="274.3" x2="469.3" y2="260.4" stroke="#bcc3cd" stroke-width="1.4" opacity="0.47" />
  <line x1="429.7" y1="274.3" x2="470.6" y2="268.6" stroke="#bcc3cd" stroke-width="0.9" opacity="0.19" />
  <line x1="429.7" y1="274.3" x2="468.6" y2="246.3" stroke="#bcc3cd" stroke-width="1.0" opacity="0.22" />
  <line x1="455.2" y1="258.8" x2="492.9" y2="255.7" stroke="#bcc3cd" stroke-width="1.1" opacity="0.29" />
  <line x1="455.2" y1="258.8" x2="493.5" y2="239.1" stroke="#bcc3cd" stroke-width="0.9" opacity="0.17" />
  <line x1="455.2" y1="258.8" x2="478.3" y2="231.2" stroke="#bcc3cd" stroke-width="0.9" opacity="0.20" />
  <line x1="455.2" y1="258.8" x2="469.3" y2="260.4" stroke="#bcc3cd" stroke-width="1.3" opacity="0.40" />
  <line x1="455.2" y1="258.8" x2="470.6" y2="268.6" stroke="#bcc3cd" stroke-width="1.0" opacity="0.24" />
  <line x1="455.2" y1="258.8" x2="468.6" y2="246.3" stroke="#bcc3cd" stroke-width="0.9" opacity="0.20" />
  <line x1="455.2" y1="258.8" x2="465.7" y2="226.9" stroke="#bcc3cd" stroke-width="1.0" opacity="0.24" />
  <line x1="492.9" y1="255.7" x2="478.3" y2="231.2" stroke="#bcc3cd" stroke-width="0.9" opacity="0.18" />
  <line x1="492.9" y1="255.7" x2="470.6" y2="268.6" stroke="#bcc3cd" stroke-width="1.0" opacity="0.23" />
  <line x1="492.9" y1="255.7" x2="468.6" y2="246.3" stroke="#bcc3cd" stroke-width="0.9" opacity="0.18" />
  <line x1="492.9" y1="255.7" x2="513.9" y2="248.5" stroke="#bcc3cd" stroke-width="1.0" opacity="0.24" />
  <line x1="492.9" y1="255.7" x2="465.7" y2="226.9" stroke="#bcc3cd" stroke-width="1.0" opacity="0.22" />
  <line x1="493.5" y1="239.1" x2="478.3" y2="231.2" stroke="#bcc3cd" stroke-width="1.1" opacity="0.28" />
  <line x1="493.5" y1="239.1" x2="469.3" y2="260.4" stroke="#bcc3cd" stroke-width="1.0" opacity="0.22" />
  <line x1="493.5" y1="239.1" x2="468.6" y2="246.3" stroke="#bcc3cd" stroke-width="1.1" opacity="0.28" />
  <line x1="493.5" y1="239.1" x2="513.9" y2="248.5" stroke="#bcc3cd" stroke-width="0.9" opacity="0.20" />
  <line x1="493.5" y1="239.1" x2="465.7" y2="226.9" stroke="#bcc3cd" stroke-width="1.2" opacity="0.37" />
  <line x1="478.3" y1="231.2" x2="469.3" y2="260.4" stroke="#bcc3cd" stroke-width="1.1" opacity="0.28" />
  <line x1="478.3" y1="231.2" x2="468.6" y2="246.3" stroke="#bcc3cd" stroke-width="1.2" opacity="0.37" />
  <line x1="478.3" y1="231.2" x2="486.7" y2="204.7" stroke="#bcc3cd" stroke-width="1.0" opacity="0.22" />
  <line x1="478.3" y1="231.2" x2="513.9" y2="248.5" stroke="#bcc3cd" stroke-width="1.0" opacity="0.24" />
  <line x1="478.3" y1="231.2" x2="488.0" y2="225.3" stroke="#bcc3cd" stroke-width="0.9" opacity="0.18" />
  <line x1="478.3" y1="231.2" x2="516.5" y2="214.7" stroke="#bcc3cd" stroke-width="1.0" opacity="0.22" />
  <line x1="478.3" y1="231.2" x2="465.7" y2="226.9" stroke="#bcc3cd" stroke-width="1.5" opacity="0.55" />
  <line x1="469.3" y1="260.4" x2="470.6" y2="268.6" stroke="#bcc3cd" stroke-width="1.1" opacity="0.29" />
  <line x1="469.3" y1="260.4" x2="468.6" y2="246.3" stroke="#bcc3cd" stroke-width="1.4" opacity="0.47" />
  <line x1="469.3" y1="260.4" x2="513.9" y2="248.5" stroke="#bcc3cd" stroke-width="0.9" opacity="0.20" />
  <line x1="469.3" y1="260.4" x2="466.8" y2="278.4" stroke="#bcc3cd" stroke-width="1.1" opacity="0.31" />
  <line x1="469.3" y1="260.4" x2="488.0" y2="225.3" stroke="#bcc3cd" stroke-width="1.1" opacity="0.31" />
  <line x1="469.3" y1="260.4" x2="465.7" y2="226.9" stroke="#bcc3cd" stroke-width="1.2" opacity="0.37" />
  <line x1="470.6" y1="268.6" x2="468.6" y2="246.3" stroke="#bcc3cd" stroke-width="1.2" opacity="0.34" />
  <line x1="470.6" y1="268.6" x2="466.8" y2="278.4" stroke="#bcc3cd" stroke-width="1.0" opacity="0.25" />
  <line x1="470.6" y1="268.6" x2="488.0" y2="225.3" stroke="#bcc3cd" stroke-width="1.0" opacity="0.25" />
  <line x1="470.6" y1="268.6" x2="465.7" y2="226.9" stroke="#bcc3cd" stroke-width="0.9" opacity="0.17" />
  <line x1="468.6" y1="246.3" x2="486.7" y2="204.7" stroke="#bcc3cd" stroke-width="1.0" opacity="0.22" />
  <line x1="468.6" y1="246.3" x2="513.9" y2="248.5" stroke="#bcc3cd" stroke-width="1.0" opacity="0.24" />
  <line x1="468.6" y1="246.3" x2="466.8" y2="278.4" stroke="#bcc3cd" stroke-width="1.3" opacity="0.44" />
  <line x1="468.6" y1="246.3" x2="488.0" y2="225.3" stroke="#bcc3cd" stroke-width="1.3" opacity="0.44" />
  <line x1="468.6" y1="246.3" x2="516.5" y2="214.7" stroke="#bcc3cd" stroke-width="1.0" opacity="0.22" />
  <line x1="468.6" y1="246.3" x2="465.7" y2="226.9" stroke="#bcc3cd" stroke-width="1.5" opacity="0.55" />
  <line x1="729.1" y1="50.0" x2="755.2" y2="65.3" stroke="#bcc3cd" stroke-width="1.0" opacity="0.22" />
  <line x1="441.8" y1="161.5" x2="465.7" y2="226.9" stroke="#bcc3cd" stroke-width="1.0" opacity="0.22" />
  <line x1="486.7" y1="204.7" x2="488.0" y2="225.3" stroke="#bcc3cd" stroke-width="1.1" opacity="0.28" />
  <line x1="486.7" y1="204.7" x2="516.5" y2="214.7" stroke="#bcc3cd" stroke-width="1.2" opacity="0.37" />
  <line x1="486.7" y1="204.7" x2="465.7" y2="226.9" stroke="#bcc3cd" stroke-width="1.2" opacity="0.37" />
  <line x1="767.0" y1="237.4" x2="781.4" y2="249.1" stroke="#bcc3cd" stroke-width="1.5" opacity="0.55" />
  <line x1="767.0" y1="237.4" x2="707.8" y2="237.7" stroke="#bcc3cd" stroke-width="1.3" opacity="0.41" />
  <line x1="781.4" y1="249.1" x2="707.8" y2="237.7" stroke="#bcc3cd" stroke-width="1.0" opacity="0.24" />
  <line x1="513.9" y1="248.5" x2="465.7" y2="226.9" stroke="#bcc3cd" stroke-width="1.1" opacity="0.31" />
  <line x1="466.8" y1="278.4" x2="488.0" y2="225.3" stroke="#bcc3cd" stroke-width="1.0" opacity="0.22" />
  <line x1="488.0" y1="225.3" x2="465.3" y2="180.3" stroke="#bcc3cd" stroke-width="1.2" opacity="0.37" />
  <line x1="488.0" y1="225.3" x2="503.9" y2="162.1" stroke="#bcc3cd" stroke-width="0.9" opacity="0.18" />
  <line x1="488.0" y1="225.3" x2="516.5" y2="214.7" stroke="#bcc3cd" stroke-width="1.1" opacity="0.28" />
  <line x1="488.0" y1="225.3" x2="465.7" y2="226.9" stroke="#bcc3cd" stroke-width="1.1" opacity="0.28" />
  <line x1="465.3" y1="180.3" x2="503.9" y2="162.1" stroke="#bcc3cd" stroke-width="1.1" opacity="0.28" />
  <line x1="516.5" y1="214.7" x2="586.4" y2="205.2" stroke="#bcc3cd" stroke-width="1.1" opacity="0.31" />
  <line x1="516.5" y1="214.7" x2="465.7" y2="226.9" stroke="#bcc3cd" stroke-width="1.2" opacity="0.37" />
  <circle cx="381.3" cy="220.4" r="7.7" fill="#3498db" opacity="0.88" />
  <circle cx="355.3" cy="246.2" r="16" fill="#e74c3c" opacity="0.88" />
  <circle cx="315.0" cy="194.3" r="9.5" fill="#7f8c8d" opacity="0.88" />
  <circle cx="473.3" cy="336.0" r="5" fill="#7f8c8d" opacity="0.88" />
  <circle cx="368.6" cy="240.4" r="14.9" fill="#3498db" opacity="0.88" />
  <circle cx="386.1" cy="275.0" r="16" fill="#3498db" opacity="0.88" />
  <circle cx="417.4" cy="259.3" r="16" fill="#7f8c8d" opacity="0.88" />
  <circle cx="423.6" cy="241.8" r="12.2" fill="#e67e22" opacity="0.88" />
  <circle cx="408.7" cy="295.4" r="16" fill="#e74c3c" opacity="0.88" />
  <circle cx="404.7" cy="241.6" r="15.8" fill="#7f8c8d" opacity="0.88" />
  <circle cx="474.9" cy="295.4" r="16" fill="#9b59b6" opacity="0.88" />
  <circle cx="362.8" cy="203.9" r="6.8" fill="#3498db" opacity="0.88" />
  <circle cx="448.1" cy="215.5" r="5.9" fill="#3498db" opacity="0.88" />
  <circle cx="442.9" cy="205.3" r="13.1" fill="#e67e22" opacity="0.88" />
  <circle cx="436.2" cy="235.0" r="14.0" fill="#3498db" opacity="0.88" />
  <circle cx="418.6" cy="233.0" r="12.2" fill="#3498db" opacity="0.88" />
  <circle cx="417.6" cy="222.9" r="14.0" fill="#3498db" opacity="0.88" />
  <circle cx="400.0" cy="212.6" r="8.6" fill="#2ecc71" opacity="0.88" />
  <circle cx="616.1" cy="219.2" r="10.4" fill="#e74c3c" opacity="0.88" />
  <circle cx="910.0" cy="165.3" r="12.2" fill="#3498db" opacity="0.88" />
  <circle cx="551.3" cy="229.8" r="10.4" fill="#e74c3c" opacity="0.88" />
  <circle cx="239.8" cy="495.4" r="12.2" fill="#3498db" opacity="0.88" />
  <circle cx="263.8" cy="500.0" r="11.3" fill="#3498db" opacity="0.88" />
  <circle cx="466.8" cy="354.2" r="5.9" fill="#3498db" opacity="0.88" />
  <circle cx="497.7" cy="272.3" r="12.2" fill="#9b59b6" opacity="0.88" />
  <circle cx="450.3" cy="272.1" r="15.8" fill="#9b59b6" opacity="0.88" />
  <circle cx="450.8" cy="290.7" r="8.6" fill="#9b59b6" opacity="0.88" />
  <circle cx="485.9" cy="216.2" r="5" fill="#2ecc71" opacity="0.88" />
  <circle cx="503.5" cy="212.3" r="5.9" fill="#7f8c8d" opacity="0.88" />
  <circle cx="491.0" cy="290.7" r="11.3" fill="#e67e22" opacity="0.88" />
  <circle cx="429.7" cy="274.3" r="16" fill="#2ecc71" opacity="0.88" />
  <circle cx="485.6" cy="376.3" r="6.8" fill="#9b59b6" opacity="0.88" />
  <circle cx="108.1" cy="398.5" r="5" fill="#7f8c8d" opacity="0.88" />
  <circle cx="455.2" cy="258.8" r="12.2" fill="#3498db" opacity="0.88" />
  <circle cx="492.9" cy="255.7" r="13.1" fill="#7f8c8d" opacity="0.88" />
  <circle cx="493.5" cy="239.1" r="9.5" fill="#7f8c8d" opacity="0.88" />
  <circle cx="50.0" cy="321.0" r="5" fill="#7f8c8d" opacity="0.88" />
  <circle cx="478.3" cy="231.2" r="7.7" fill="#7f8c8d" opacity="0.88" />
  <circle cx="469.3" cy="260.4" r="9.5" fill="#7f8c8d" opacity="0.88" />
  <circle cx="470.6" cy="268.6" r="15.8" fill="#2ecc71" opacity="0.88" />
  <circle cx="468.6" cy="246.3" r="7.7" fill="#7f8c8d" opacity="0.88" />
  <circle cx="729.1" cy="50.0" r="7.7" fill="#7f8c8d" opacity="0.88" />
  <circle cx="441.8" cy="161.5" r="7.7" fill="#3498db" opacity="0.88" />
  <circle cx="486.7" cy="204.7" r="5.9" fill="#7f8c8d" opacity="0.88" />
  <circle cx="767.0" cy="237.4" r="6.8" fill="#e67e22" opacity="0.88" />
  <circle cx="781.4" cy="249.1" r="6.8" fill="#e67e22" opacity="0.88" />
  <circle cx="513.9" cy="248.5" r="10.4" fill="#7f8c8d" opacity="0.88" />
  <circle cx="707.8" cy="237.7" r="11.3" fill="#e67e22" opacity="0.88" />
  <circle cx="755.2" cy="65.3" r="5.9" fill="#7f8c8d" opacity="0.88" />
  <circle cx="466.8" cy="278.4" r="6.8" fill="#7f8c8d" opacity="0.88" />
  <circle cx="488.0" cy="225.3" r="6.8" fill="#7f8c8d" opacity="0.88" />
  <circle cx="465.3" cy="180.3" r="5" fill="#2ecc71" opacity="0.88" />
  <circle cx="503.9" cy="162.1" r="7.7" fill="#2ecc71" opacity="0.88" />
  <circle cx="516.5" cy="214.7" r="5.9" fill="#e74c3c" opacity="0.88" />
  <circle cx="586.4" cy="205.2" r="10.4" fill="#e74c3c" opacity="0.88" />
  <circle cx="465.7" cy="226.9" r="5.9" fill="#7f8c8d" opacity="0.88" />
  <circle cx="786.1" cy="485.6" r="5" fill="#7f8c8d" opacity="0.88" />
  <rect x="391.0" y="230.8" width="16.4" height="15" fill="#ffffff" opacity="0.75" rx="2" />
  <text x="392.0" y="241.8" font-family="system-ui, -apple-system, sans-serif" font-size="12" fill="#1f2328" text-anchor="start">pp</text>
  <rect x="373.3" y="288.5" width="95.6" height="15" fill="#ffffff" opacity="0.75" rx="2" />
  <text x="374.3" y="299.5" font-family="system-ui, -apple-system, sans-serif" font-size="12" fill="#1f2328" text-anchor="start">RemoteJuggler</text>
  <rect x="326.5" y="135.2" width="88.4" height="15" fill="#ffffff" opacity="0.75" rx="2" />
  <text x="327.5" y="146.2" font-family="system-ui, -apple-system, sans-serif" font-size="12" fill="#1f2328" text-anchor="start">waifu-mirror</text>
  <rect x="480.3" y="409.9" width="124.4" height="15" fill="#ffffff" opacity="0.75" rx="2" />
  <text x="481.3" y="420.9" font-family="system-ui, -apple-system, sans-serif" font-size="12" fill="#1f2328" text-anchor="start">tinyland-calendar</text>
  <rect x="385.5" y="150.3" width="102.8" height="15" fill="#ffffff" opacity="0.75" rx="2" />
  <text x="386.5" y="161.3" font-family="system-ui, -apple-system, sans-serif" font-size="12" fill="#1f2328" text-anchor="start">tinyland-infra</text>
  <rect x="404.1" y="258.3" width="117.2" height="15" fill="#ffffff" opacity="0.75" rx="2" />
  <text x="405.1" y="269.3" font-family="system-ui, -apple-system, sans-serif" font-size="12" fill="#1f2328" text-anchor="start">GloriousFlywheel</text>
  <rect x="435.4" y="246.6" width="52.4" height="15" fill="#ffffff" opacity="0.75" rx="2" />
  <text x="436.4" y="257.6" font-family="system-ui, -apple-system, sans-serif" font-size="12" fill="#1f2328" text-anchor="start">LA-Mesh</text>
  <rect x="437.8" y="269.1" width="45.2" height="15" fill="#ffffff" opacity="0.75" rx="2" />
  <text x="438.8" y="280.1" font-family="system-ui, -apple-system, sans-serif" font-size="12" fill="#1f2328" text-anchor="start">XoxdWM</text>
  <rect x="426.7" y="231.7" width="131.6" height="15" fill="#ffffff" opacity="0.75" rx="2" />
  <text x="427.7" y="242.7" font-family="system-ui, -apple-system, sans-serif" font-size="12" fill="#1f2328" text-anchor="start">pixelwise-research</text>
  <rect x="422.5" y="339.1" width="124.4" height="15" fill="#ffffff" opacity="0.75" rx="2" />
  <text x="423.5" y="350.1" font-family="system-ui, -apple-system, sans-serif" font-size="12" fill="#1f2328" text-anchor="start">tinyland-huskycat</text>
  <rect x="492.9" y="231.7" width="95.6" height="15" fill="#ffffff" opacity="0.75" rx="2" />
  <text x="493.9" y="242.7" font-family="system-ui, -apple-system, sans-serif" font-size="12" fill="#1f2328" text-anchor="start">GIS_Shortcuts</text>
  <rect x="371.6" y="165.3" width="117.2" height="15" fill="#ffffff" opacity="0.75" rx="2" />
  <text x="372.6" y="176.3" font-family="system-ui, -apple-system, sans-serif" font-size="12" fill="#1f2328" text-anchor="start">tinyland-cleanup</text>
  <rect x="456.0" y="211.3" width="95.6" height="15" fill="#ffffff" opacity="0.75" rx="2" />
  <text x="457.0" y="222.3" font-family="system-ui, -apple-system, sans-serif" font-size="12" fill="#1f2328" text-anchor="start">tinyland-kdbx</text>
  <rect x="458.0" y="122.5" width="110.0" height="15" fill="#ffffff" opacity="0.75" rx="2" />
  <text x="459.0" y="133.5" font-family="system-ui, -apple-system, sans-serif" font-size="12" fill="#1f2328" text-anchor="start">hiberpower-ntfs</text>
  <rect x="452.2" y="180.0" width="138.8" height="15" fill="#ffffff" opacity="0.75" rx="2" />
  <text x="453.2" y="191.0" font-family="system-ui, -apple-system, sans-serif" font-size="12" fill="#1f2328" text-anchor="start">Ansible-DAG-Harness</text>
  <rect x="432.8" y="90.7" width="66.8" height="15" fill="#ffffff" opacity="0.75" rx="2" />
  <text x="433.8" y="101.7" font-family="system-ui, -apple-system, sans-serif" font-size="12" fill="#1f2328" text-anchor="start">betterkvm</text>
  <rect x="433.6" y="355.2" width="95.6" height="15" fill="#ffffff" opacity="0.75" rx="2" />
  <text x="434.6" y="366.2" font-family="system-ui, -apple-system, sans-serif" font-size="12" fill="#1f2328" text-anchor="start">DarwinNicUtil</text>
  <rect x="410.6" y="195.1" width="59.6" height="15" fill="#ffffff" opacity="0.75" rx="2" />
  <text x="411.6" y="206.1" font-family="system-ui, -apple-system, sans-serif" font-size="12" fill="#1f2328" text-anchor="start">gnucashr</text>
  <rect x="628.5" y="223.9" width="66.8" height="15" fill="#ffffff" opacity="0.75" rx="2" />
  <text x="629.5" y="234.9" font-family="system-ui, -apple-system, sans-serif" font-size="12" fill="#1f2328" text-anchor="start">quickchpl</text>
  <rect x="764.2" y="158.5" width="131.6" height="15" fill="#ffffff" opacity="0.75" rx="2" />
  <text x="894.8" y="169.5" font-family="system-ui, -apple-system, sans-serif" font-size="12" fill="#1f2328" text-anchor="end">tinyscale-mikrotik</text>
  <rect x="563.7" y="205.5" width="59.6" height="15" fill="#ffffff" opacity="0.75" rx="2" />
  <text x="564.7" y="216.5" font-family="system-ui, -apple-system, sans-serif" font-size="12" fill="#1f2328" text-anchor="start">aoc-2025</text>
  <rect x="254.0" y="482.4" width="66.8" height="15" fill="#ffffff" opacity="0.75" rx="2" />
  <text x="255.0" y="493.4" font-family="system-ui, -apple-system, sans-serif" font-size="12" fill="#1f2328" text-anchor="start">searchies</text>
  <rect x="277.1" y="499.4" width="59.6" height="15" fill="#ffffff" opacity="0.75" rx="2" />
  <text x="278.1" y="510.4" font-family="system-ui, -apple-system, sans-serif" font-size="12" fill="#1f2328" text-anchor="start">ts-caddy</text>
  <rect x="474.7" y="421.9" width="66.8" height="15" fill="#ffffff" opacity="0.75" rx="2" />
  <text x="475.7" y="432.9" font-family="system-ui, -apple-system, sans-serif" font-size="12" fill="#1f2328" text-anchor="start">HCI-notes</text>
  <rect x="511.9" y="274.4" width="88.4" height="15" fill="#ffffff" opacity="0.75" rx="2" />
  <text x="512.9" y="285.4" font-family="system-ui, -apple-system, sans-serif" font-size="12" fill="#1f2328" text-anchor="start">FastPhotoAPI</text>
  <rect x="468.1" y="307.7" width="81.2" height="15" fill="#ffffff" opacity="0.75" rx="2" />
  <text x="469.1" y="318.7" font-family="system-ui, -apple-system, sans-serif" font-size="12" fill="#1f2328" text-anchor="start">timberbuddy</text>
  <rect x="461.4" y="396.7" width="81.2" height="15" fill="#ffffff" opacity="0.75" rx="2" />
  <text x="462.4" y="407.7" font-family="system-ui, -apple-system, sans-serif" font-size="12" fill="#1f2328" text-anchor="start">tetrahedron</text>
  <rect x="492.9" y="158.6" width="95.6" height="15" fill="#ffffff" opacity="0.75" rx="2" />
  <text x="493.9" y="169.6" font-family="system-ui, -apple-system, sans-serif" font-size="12" fill="#1f2328" text-anchor="start">AccuWixReport</text>
  <rect x="511.4" y="183.6" width="95.6" height="15" fill="#ffffff" opacity="0.75" rx="2" />
  <text x="512.4" y="194.6" font-family="system-ui, -apple-system, sans-serif" font-size="12" fill="#1f2328" text-anchor="start">Jess-AOC-2023</text>
  <rect x="504.3" y="130.0" width="81.2" height="15" fill="#ffffff" opacity="0.75" rx="2" />
  <text x="505.3" y="141.0" font-family="system-ui, -apple-system, sans-serif" font-size="12" fill="#1f2328" text-anchor="start">TurkeyProbe</text>
  <rect x="447.7" y="313.1" width="153.2" height="15" fill="#ffffff" opacity="0.75" rx="2" />
  <text x="448.7" y="324.1" font-family="system-ui, -apple-system, sans-serif" font-size="12" fill="#1f2328" text-anchor="start">MerlinAI-Interpreters</text>
  <rect x="494.4" y="438.9" width="110.0" height="15" fill="#ffffff" opacity="0.75" rx="2" />
  <text x="495.4" y="449.9" font-family="system-ui, -apple-system, sans-serif" font-size="12" fill="#1f2328" text-anchor="start">IntroTypeScript</text>
  <rect x="115.1" y="391.7" width="110.0" height="15" fill="#ffffff" opacity="0.75" rx="2" />
  <text x="116.1" y="402.7" font-family="system-ui, -apple-system, sans-serif" font-size="12" fill="#1f2328" text-anchor="start">IG-3DP-Profiles</text>
  <rect x="469.4" y="384.5" width="66.8" height="15" fill="#ffffff" opacity="0.75" rx="2" />
  <text x="470.4" y="395.5" font-family="system-ui, -apple-system, sans-serif" font-size="12" fill="#1f2328" text-anchor="start">DLA-Flask</text>
  <rect x="508.0" y="264.1" width="38.0" height="15" fill="#ffffff" opacity="0.75" rx="2" />
  <text x="509.0" y="275.1" font-family="system-ui, -apple-system, sans-serif" font-size="12" fill="#1f2328" text-anchor="start">USBoN</text>
  <rect x="505.0" y="93.1" width="203.6" height="15" fill="#ffffff" opacity="0.75" rx="2" />
  <text x="506.0" y="104.1" font-family="system-ui, -apple-system, sans-serif" font-size="12" fill="#1f2328" text-anchor="start">chrome-remote-desktop-budgie</text>
  <rect x="57.0" y="314.2" width="124.4" height="15" fill="#ffffff" opacity="0.75" rx="2" />
  <text x="58.0" y="325.2" font-family="system-ui, -apple-system, sans-serif" font-size="12" fill="#1f2328" text-anchor="start">OminousBeepingApp</text>
  <rect x="488.0" y="247.1" width="138.8" height="15" fill="#ffffff" opacity="0.75" rx="2" />
  <text x="489.0" y="258.1" font-family="system-ui, -apple-system, sans-serif" font-size="12" fill="#1f2328" text-anchor="start">mo-image-identifier</text>
  <rect x="480.8" y="345.5" width="196.4" height="15" fill="#ffffff" opacity="0.75" rx="2" />
  <text x="481.8" y="356.5" font-family="system-ui, -apple-system, sans-serif" font-size="12" fill="#1f2328" text-anchor="start">squirrel-leaflet-annotation</text>
  <rect x="488.4" y="108.6" width="74.0" height="15" fill="#ffffff" opacity="0.75" rx="2" />
  <text x="489.4" y="119.6" font-family="system-ui, -apple-system, sans-serif" font-size="12" fill="#1f2328" text-anchor="start">Shiny-Apps</text>
  <rect x="478.3" y="282.2" width="138.8" height="15" fill="#ffffff" opacity="0.75" rx="2" />
  <text x="479.3" y="293.2" font-family="system-ui, -apple-system, sans-serif" font-size="12" fill="#1f2328" text-anchor="start">bbox-jest-puppeteer</text>
  <rect x="738.8" y="43.2" width="88.4" height="15" fill="#ffffff" opacity="0.75" rx="2" />
  <text x="739.8" y="54.2" font-family="system-ui, -apple-system, sans-serif" font-size="12" fill="#1f2328" text-anchor="start">DoverDisplay</text>
  <rect x="451.5" y="60.7" width="81.2" height="15" fill="#ffffff" opacity="0.75" rx="2" />
  <text x="452.5" y="71.7" font-family="system-ui, -apple-system, sans-serif" font-size="12" fill="#1f2328" text-anchor="start">LeafletSync</text>
  <rect x="494.6" y="299.2" width="167.6" height="15" fill="#ffffff" opacity="0.75" rx="2" />
  <text x="495.6" y="310.2" font-family="system-ui, -apple-system, sans-serif" font-size="12" fill="#1f2328" text-anchor="start">misc-roi-distance-notes</text>
  <rect x="775.8" y="218.4" width="138.8" height="15" fill="#ffffff" opacity="0.75" rx="2" />
  <text x="776.8" y="229.4" font-family="system-ui, -apple-system, sans-serif" font-size="12" fill="#1f2328" text-anchor="start">Arduino_Coil_Winder</text>
  <rect x="790.2" y="249.9" width="30.8" height="15" fill="#ffffff" opacity="0.75" rx="2" />
  <text x="791.2" y="260.9" font-family="system-ui, -apple-system, sans-serif" font-size="12" fill="#1f2328" text-anchor="start">momo</text>
  <rect x="526.3" y="169.6" width="38.0" height="15" fill="#ffffff" opacity="0.75" rx="2" />
  <text x="527.3" y="180.6" font-family="system-ui, -apple-system, sans-serif" font-size="12" fill="#1f2328" text-anchor="start">clipi</text>
  <rect x="721.1" y="235.4" width="110.0" height="15" fill="#ffffff" opacity="0.75" rx="2" />
  <text x="722.1" y="246.4" font-family="system-ui, -apple-system, sans-serif" font-size="12" fill="#1f2328" text-anchor="start">AeroTaz5_hotfix</text>
  <rect x="763.1" y="58.5" width="110.0" height="15" fill="#ffffff" opacity="0.75" rx="2" />
  <text x="764.1" y="69.5" font-family="system-ui, -apple-system, sans-serif" font-size="12" fill="#1f2328" text-anchor="start">Funmat-HT-Notes</text>
  <rect x="475.6" y="328.5" width="81.2" height="15" fill="#ffffff" opacity="0.75" rx="2" />
  <text x="476.6" y="339.5" font-family="system-ui, -apple-system, sans-serif" font-size="12" fill="#1f2328" text-anchor="start">static-site</text>
  <rect x="496.8" y="367.5" width="95.6" height="15" fill="#ffffff" opacity="0.75" rx="2" />
  <text x="497.8" y="378.5" font-family="system-ui, -apple-system, sans-serif" font-size="12" fill="#1f2328" text-anchor="start">Flask-Manager</text>
  <rect x="472.3" y="220.8" width="110.0" height="15" fill="#ffffff" opacity="0.75" rx="2" />
  <text x="473.3" y="231.8" font-family="system-ui, -apple-system, sans-serif" font-size="12" fill="#1f2328" text-anchor="start">FieldProcessing</text>
  <rect x="513.6" y="77.7" width="81.2" height="15" fill="#ffffff" opacity="0.75" rx="2" />
  <text x="514.6" y="88.7" font-family="system-ui, -apple-system, sans-serif" font-size="12" fill="#1f2328" text-anchor="start">rJDKmanager</text>
  <rect x="524.4" y="147.0" width="59.6" height="15" fill="#ffffff" opacity="0.75" rx="2" />
  <text x="525.4" y="158.0" font-family="system-ui, -apple-system, sans-serif" font-size="12" fill="#1f2328" text-anchor="start">tagnotes</text>
  <rect x="598.8" y="174.7" width="81.2" height="15" fill="#ffffff" opacity="0.75" rx="2" />
  <text x="599.8" y="185.7" font-family="system-ui, -apple-system, sans-serif" font-size="12" fill="#1f2328" text-anchor="start">ChapelTests</text>
  <rect x="473.6" y="200.6" width="88.4" height="15" fill="#ffffff" opacity="0.75" rx="2" />
  <text x="474.6" y="211.6" font-family="system-ui, -apple-system, sans-serif" font-size="12" fill="#1f2328" text-anchor="start">Xfinity-WiFi</text>
  <rect x="793.1" y="478.8" width="66.8" height="15" fill="#ffffff" opacity="0.75" rx="2" />
  <text x="794.1" y="489.8" font-family="system-ui, -apple-system, sans-serif" font-size="12" fill="#1f2328" text-anchor="start">home-wiki</text>
  <rect x="793" y="36" width="155" height="120" rx="6" fill="#f6f8fa" stroke="#d0d7de" stroke-width="1" opacity="0.95" />
  <circle cx="810" cy="52" r="5" fill="#e74c3c" opacity="0.88" />
  <text x="820" y="56" font-family="system-ui, -apple-system, sans-serif" font-size="10" fill="#1f2328">Languages &amp; Compilers</text>
  <circle cx="810" cy="69" r="5" fill="#3498db" opacity="0.88" />
  <text x="820" y="73" font-family="system-ui, -apple-system, sans-serif" font-size="10" fill="#1f2328">Infrastructure &amp; DevOps</text>
  <circle cx="810" cy="86" r="5" fill="#e67e22" opacity="0.88" />
  <text x="820" y="90" font-family="system-ui, -apple-system, sans-serif" font-size="10" fill="#1f2328">Hardware &amp; Maker</text>
  <circle cx="810" cy="103" r="5" fill="#2ecc71" opacity="0.88" />
  <text x="820" y="107" font-family="system-ui, -apple-system, sans-serif" font-size="10" fill="#1f2328">ML &amp; Data</text>
  <circle cx="810" cy="120" r="5" fill="#9b59b6" opacity="0.88" />
  <text x="820" y="124" font-family="system-ui, -apple-system, sans-serif" font-size="10" fill="#1f2328">Web &amp; Apps</text>
  <circle cx="810" cy="137" r="5" fill="#7f8c8d" opacity="0.88" />
  <text x="820" y="141" font-family="system-ui, -apple-system, sans-serif" font-size="10" fill="#1f2328">Other</text>
  <text x="870" y="150" font-family="system-ui, -apple-system, sans-serif" font-size="8" fill="#656d76" text-anchor="middle">57 repos · 238 edges</text>
</svg>