<svg xmlns="http://www.w3.org/2000/svg" width="960" height="600" viewBox="0 0 960 600">
  <rect width="960" height="600" fill="#0d1117" rx="8" />
  <text x="480" y="24" font-family="system-ui, -apple-system, sans-serif" font-size="13" fill="#8b949e" text-anchor="middle" font-weight="500">Repo Relationship Graph &#x2014; Pairwise Topic &amp; Language Similarity</text>
  <line x1="50" y1="550" x2="910" y2="550" stroke="#484f58" stroke-width="0.5" opacity="0.5" />
  <text x="50" y="570" font-family="system-ui, -apple-system, sans-serif" font-size="9" fill="#8b949e" opacity="0.6">Updated daily by GitHub Actions</text>
  <text x="50" y="588" font-family="system-ui, -apple-system, sans-serif" font-size="9" fill="#8b949e" opacity="0.6">networkx spring_layout · Jaccard similarity &gt; 0.15</text>
  <text x="910" y="570" font-family="system-ui, -apple-system, sans-serif" font-size="9" fill="#8b949e" text-anchor="end" opacity="0.6">58 repos · 232 edges</text>
  <line x1="657.9" y1="151.5" x2="628.4" y2="186.9" stroke="#6e7681" stroke-width="1.0" opacity="0.22" />
  <line x1="657.9" y1="151.5" x2="688.3" y2="159.0" stroke="#6e7681" stroke-width="1.0" opacity="0.24" />
  <line x1="657.9" y1="151.5" x2="642.6" y2="174.0" stroke="#6e7681" stroke-width="0.9" opacity="0.20" />
  <line x1="657.9" y1="151.5" x2="668.7" y2="185.4" stroke="#6e7681" stroke-width="1.0" opacity="0.22" />
  <line x1="657.9" y1="151.5" x2="629.0" y2="168.1" stroke="#6e7681" stroke-width="0.9" opacity="0.21" />
  <line x1="657.9" y1="151.5" x2="609.9" y2="157.3" stroke="#6e7681" stroke-width="0.9" opacity="0.21" />
  <line x1="657.9" y1="151.5" x2="664.9" y2="135.2" stroke="#6e7681" stroke-width="1.1" opacity="0.30" />
  <line x1="657.9" y1="151.5" x2="666.2" y2="162.4" stroke="#6e7681" stroke-width="1.0" opacity="0.23" />
  <line x1="657.9" y1="151.5" x2="672.8" y2="154.3" stroke="#6e7681" stroke-width="1.0" opacity="0.22" />
  <line x1="657.9" y1="151.5" x2="689.7" y2="169.2" stroke="#6e7681" stroke-width="1.0" opacity="0.22" />
  <line x1="657.9" y1="151.5" x2="673.9" y2="115.9" stroke="#6e7681" stroke-width="0.9" opacity="0.19" />
  <line x1="657.9" y1="151.5" x2="728.2" y2="123.9" stroke="#6e7681" stroke-width="0.9" opacity="0.21" />
  <line x1="657.9" y1="151.5" x2="733.2" y2="134.3" stroke="#6e7681" stroke-width="1.0" opacity="0.24" />
  <line x1="657.9" y1="151.5" x2="739.8" y2="153.8" stroke="#6e7681" stroke-width="0.9" opacity="0.17" />
  <line x1="628.4" y1="186.9" x2="607.0" y2="222.6" stroke="#6e7681" stroke-width="1.1" opacity="0.33" />
  <line x1="628.4" y1="186.9" x2="688.3" y2="159.0" stroke="#6e7681" stroke-width="0.9" opacity="0.18" />
  <line x1="628.4" y1="186.9" x2="567.2" y2="193.4" stroke="#6e7681" stroke-width="0.9" opacity="0.18" />
  <line x1="628.4" y1="186.9" x2="668.7" y2="185.4" stroke="#6e7681" stroke-width="1.4" opacity="0.47" />
  <line x1="628.4" y1="186.9" x2="565.8" y2="213.0" stroke="#6e7681" stroke-width="1.3" opacity="0.41" />
  <line x1="628.4" y1="186.9" x2="609.9" y2="157.3" stroke="#6e7681" stroke-width="1.0" opacity="0.24" />
  <line x1="628.4" y1="186.9" x2="664.9" y2="135.2" stroke="#6e7681" stroke-width="0.9" opacity="0.19" />
  <line x1="628.4" y1="186.9" x2="666.2" y2="162.4" stroke="#6e7681" stroke-width="0.9" opacity="0.17" />
  <line x1="628.4" y1="186.9" x2="739.8" y2="153.8" stroke="#6e7681" stroke-width="0.9" opacity="0.18" />
  <line x1="607.0" y1="222.6" x2="668.7" y2="185.4" stroke="#6e7681" stroke-width="0.9" opacity="0.20" />
  <line x1="607.0" y1="222.6" x2="565.8" y2="213.0" stroke="#6e7681" stroke-width="0.9" opacity="0.18" />
  <line x1="688.3" y1="159.0" x2="642.6" y2="174.0" stroke="#6e7681" stroke-width="1.0" opacity="0.24" />
  <line x1="688.3" y1="159.0" x2="668.7" y2="185.4" stroke="#6e7681" stroke-width="0.9" opacity="0.18" />
  <line x1="688.3" y1="159.0" x2="629.0" y2="168.1" stroke="#6e7681" stroke-width="1.0" opacity="0.26" />
  <line x1="688.3" y1="159.0" x2="609.9" y2="157.3" stroke="#6e7681" stroke-width="0.9" opacity="0.18" />
  <line x1="688.3" y1="159.0" x2="664.9" y2="135.2" stroke="#6e7681" stroke-width="1.0" opacity="0.22" />
  <line x1="688.3" y1="159.0" x2="666.2" y2="162.4" stroke="#6e7681" stroke-width="1.1" opacity="0.29" />
  <line x1="688.3" y1="159.0" x2="672.8" y2="154.3" stroke="#6e7681" stroke-width="1.1" opacity="0.28" />
  <line x1="688.3" y1="159.0" x2="689.7" y2="169.2" stroke="#6e7681" stroke-width="1.1" opacity="0.28" />
  <line x1="688.3" y1="159.0" x2="769.3" y2="135.7" stroke="#6e7681" stroke-width="0.9" opacity="0.17" />
  <line x1="688.3" y1="159.0" x2="752.9" y2="149.8" stroke="#6e7681" stroke-width="0.9" opacity="0.20" />
  <line x1="688.3" y1="159.0" x2="728.2" y2="123.9" stroke="#6e7681" stroke-width="0.9" opacity="0.17" />
  <line x1="688.3" y1="159.0" x2="733.2" y2="134.3" stroke="#6e7681" stroke-width="0.9" opacity="0.20" />
  <line x1="688.3" y1="159.0" x2="739.8" y2="153.8" stroke="#6e7681" stroke-width="1.0" opacity="0.24" />
  <line x1="642.6" y1="174.0" x2="567.2" y2="193.4" stroke="#6e7681" stroke-width="0.9" opacity="0.17" />
  <line x1="642.6" y1="174.0" x2="629.0" y2="168.1" stroke="#6e7681" stroke-width="1.1" opacity="0.28" />
  <line x1="642.6" y1="174.0" x2="590.2" y2="178.9" stroke="#6e7681" stroke-width="1.0" opacity="0.24" />
  <line x1="642.6" y1="174.0" x2="664.9" y2="135.2" stroke="#6e7681" stroke-width="0.9" opacity="0.18" />
  <line x1="642.6" y1="174.0" x2="666.2" y2="162.4" stroke="#6e7681" stroke-width="1.0" opacity="0.23" />
  <line x1="642.6" y1="174.0" x2="672.8" y2="154.3" stroke="#6e7681" stroke-width="1.0" opacity="0.22" />
  <line x1="642.6" y1="174.0" x2="689.7" y2="169.2" stroke="#6e7681" stroke-width="1.0" opacity="0.22" />
  <line x1="642.6" y1="174.0" x2="739.8" y2="153.8" stroke="#6e7681" stroke-width="0.9" opacity="0.17" />
  <line x1="616.7" y1="123.5" x2="609.9" y2="157.3" stroke="#6e7681" stroke-width="1.2" opacity="0.38" />
  <line x1="616.7" y1="123.5" x2="664.9" y2="135.2" stroke="#6e7681" stroke-width="1.2" opacity="0.34" />
  <line x1="616.7" y1="123.5" x2="666.2" y2="162.4" stroke="#6e7681" stroke-width="0.9" opacity="0.18" />
  <line x1="616.7" y1="123.5" x2="633.1" y2="98.4" stroke="#6e7681" stroke-width="1.0" opacity="0.25" />
  <line x1="616.7" y1="123.5" x2="695.6" y2="111.3" stroke="#6e7681" stroke-width="0.9" opacity="0.20" />
  <line x1="616.7" y1="123.5" x2="672.9" y2="99.9" stroke="#6e7681" stroke-width="1.0" opacity="0.22" />
  <line x1="567.2" y1="193.4" x2="629.0" y2="168.1" stroke="#6e7681" stroke-width="1.2" opacity="0.34" />
  <line x1="567.2" y1="193.4" x2="565.8" y2="213.0" stroke="#6e7681" stroke-width="0.9" opacity="0.17" />
  <line x1="668.7" y1="185.4" x2="609.9" y2="157.3" stroke="#6e7681" stroke-width="1.0" opacity="0.24" />
  <line x1="668.7" y1="185.4" x2="664.9" y2="135.2" stroke="#6e7681" stroke-width="0.9" opacity="0.19" />
  <line x1="668.7" y1="185.4" x2="666.2" y2="162.4" stroke="#6e7681" stroke-width="0.9" opacity="0.17" />
  <line x1="668.7" y1="185.4" x2="771.7" y2="194.5" stroke="#6e7681" stroke-width="1.0" opacity="0.22" />
  <line x1="668.7" y1="185.4" x2="739.8" y2="153.8" stroke="#6e7681" stroke-width="0.9" opacity="0.18" />
  <line x1="629.0" y1="168.1" x2="590.2" y2="178.9" stroke="#6e7681" stroke-width="0.9" opacity="0.19" />
  <line x1="629.0" y1="168.1" x2="609.9" y2="157.3" stroke="#6e7681" stroke-width="1.0" opacity="0.22" />
  <line x1="629.0" y1="168.1" x2="664.9" y2="135.2" stroke="#6e7681" stroke-width="0.9" opacity="0.19" />
  <line x1="629.0" y1="168.1" x2="666.2" y2="162.4" stroke="#6e7681" stroke-width="1.0" opacity="0.24" />
  <line x1="629.0" y1="168.1" x2="672.8" y2="154.3" stroke="#6e7681" stroke-width="1.0" opacity="0.23" />
  <line x1="629.0" y1="168.1" x2="689.7" y2="169.2" stroke="#6e7681" stroke-width="1.0" opacity="0.23" />
  <line x1="629.0" y1="168.1" x2="739.8" y2="153.8" stroke="#6e7681" stroke-width="0.9" opacity="0.18" />
  <line x1="590.2" y1="178.9" x2="565.8" y2="213.0" stroke="#6e7681" stroke-width="0.9" opacity="0.18" />
  <line x1="590.2" y1="178.9" x2="609.9" y2="157.3" stroke="#6e7681" stroke-width="1.0" opacity="0.25" />
  <line x1="590.2" y1="178.9" x2="666.2" y2="162.4" stroke="#6e7681" stroke-width="0.9" opacity="0.21" />
  <line x1="590.2" y1="178.9" x2="672.8" y2="154.3" stroke="#6e7681" stroke-width="0.9" opacity="0.20" />
  <line x1="609.9" y1="157.3" x2="664.9" y2="135.2" stroke="#6e7681" stroke-width="0.9" opacity="0.19" />
  <line x1="609.9" y1="157.3" x2="666.2" y2="162.4" stroke="#6e7681" stroke-width="0.9" opacity="0.17" />
  <line x1="664.9" y1="135.2" x2="666.2" y2="162.4" stroke="#6e7681" stroke-width="1.1" opacity="0.28" />
  <line x1="664.9" y1="135.2" x2="633.1" y2="98.4" stroke="#6e7681" stroke-width="1.2" opacity="0.34" />
  <line x1="664.9" y1="135.2" x2="672.8" y2="154.3" stroke="#6e7681" stroke-width="0.9" opacity="0.20" />
  <line x1="664.9" y1="135.2" x2="689.7" y2="169.2" stroke="#6e7681" stroke-width="0.9" opacity="0.20" />
  <line x1="664.9" y1="135.2" x2="695.6" y2="111.3" stroke="#6e7681" stroke-width="1.2" opacity="0.37" />
  <line x1="664.9" y1="135.2" x2="672.9" y2="99.9" stroke="#6e7681" stroke-width="1.2" opacity="0.37" />
  <line x1="664.9" y1="135.2" x2="673.9" y2="115.9" stroke="#6e7681" stroke-width="1.1" opacity="0.29" />
  <line x1="664.9" y1="135.2" x2="706.8" y2="123.3" stroke="#6e7681" stroke-width="1.0" opacity="0.22" />
  <line x1="664.9" y1="135.2" x2="728.2" y2="123.9" stroke="#6e7681" stroke-width="1.2" opacity="0.34" />
  <line x1="664.9" y1="135.2" x2="726.8" y2="110.4" stroke="#6e7681" stroke-width="1.0" opacity="0.24" />
  <line x1="664.9" y1="135.2" x2="733.2" y2="134.3" stroke="#6e7681" stroke-width="1.1" opacity="0.29" />
  <line x1="664.9" y1="135.2" x2="710.5" y2="102.9" stroke="#6e7681" stroke-width="1.0" opacity="0.22" />
  <line x1="666.2" y1="162.4" x2="737.8" y2="175.8" stroke="#6e7681" stroke-width="0.9" opacity="0.19" />
  <line x1="666.2" y1="162.4" x2="672.8" y2="154.3" stroke="#6e7681" stroke-width="1.0" opacity="0.26" />
  <line x1="666.2" y1="162.4" x2="689.7" y2="169.2" stroke="#6e7681" stroke-width="1.0" opacity="0.26" />
  <line x1="666.2" y1="162.4" x2="752.9" y2="149.8" stroke="#6e7681" stroke-width="0.9" opacity="0.18" />
  <line x1="666.2" y1="162.4" x2="733.2" y2="134.3" stroke="#6e7681" stroke-width="1.1" opacity="0.30" />
  <line x1="666.2" y1="162.4" x2="739.8" y2="153.8" stroke="#6e7681" stroke-width="1.0" opacity="0.22" />
  <line x1="633.1" y1="98.4" x2="695.6" y2="111.3" stroke="#6e7681" stroke-width="1.0" opacity="0.25" />
  <line x1="633.1" y1="98.4" x2="672.9" y2="99.9" stroke="#6e7681" stroke-width="1.1" opacity="0.29" />
  <line x1="633.1" y1="98.4" x2="710.5" y2="102.9" stroke="#6e7681" stroke-width="0.9" opacity="0.17" />
  <line x1="733.6" y1="85.4" x2="695.6" y2="111.3" stroke="#6e7681" stroke-width="0.9" opacity="0.18" />
  <line x1="733.6" y1="85.4" x2="672.9" y2="99.9" stroke="#6e7681" stroke-width="0.9" opacity="0.18" />
  <line x1="733.6" y1="85.4" x2="728.2" y2="123.9" stroke="#6e7681" stroke-width="0.9" opacity="0.17" />
  <line x1="733.6" y1="85.4" x2="726.8" y2="110.4" stroke="#6e7681" stroke-width="1.3" opacity="0.42" />
  <line x1="733.6" y1="85.4" x2="733.2" y2="134.3" stroke="#6e7681" stroke-width="0.9" opacity="0.19" />
  <line x1="733.6" y1="85.4" x2="710.5" y2="102.9" stroke="#6e7681" stroke-width="0.9" opacity="0.21" />
  <line x1="737.8" y1="175.8" x2="752.9" y2="149.8" stroke="#6e7681" stroke-width="0.9" opacity="0.18" />
  <line x1="737.8" y1="175.8" x2="733.2" y2="134.3" stroke="#6e7681" stroke-width="1.1" opacity="0.30" />
  <line x1="737.8" y1="175.8" x2="739.8" y2="153.8" stroke="#6e7681" stroke-width="1.0" opacity="0.22" />
  <line x1="672.8" y1="154.3" x2="689.7" y2="169.2" stroke="#6e7681" stroke-width="1.0" opacity="0.24" />
  <line x1="672.8" y1="154.3" x2="706.8" y2="123.3" stroke="#6e7681" stroke-width="0.9" opacity="0.19" />
  <line x1="672.8" y1="154.3" x2="715.8" y2="132.8" stroke="#6e7681" stroke-width="0.9" opacity="0.18" />
  <line x1="672.8" y1="154.3" x2="752.9" y2="149.8" stroke="#6e7681" stroke-width="0.9" opacity="0.17" />
  <line x1="672.8" y1="154.3" x2="733.2" y2="134.3" stroke="#6e7681" stroke-width="0.9" opacity="0.17" />
  <line x1="672.8" y1="154.3" x2="739.8" y2="153.8" stroke="#6e7681" stroke-width="0.9" opacity="0.20" />
  <line x1="689.7" y1="169.2" x2="752.9" y2="149.8" stroke="#6e7681" stroke-width="0.9" opacity="0.17" />
  <line x1="689.7" y1="169.2" x2="733.2" y2="134.3" stroke="#6e7681" stroke-width="0.9" opacity="0.17" />
  <line x1="689.7" y1="169.2" x2="739.8" y2="153.8" stroke="#6e7681" stroke-width="0.9" opacity="0.20" />
  <line x1="910.0" y1="144.1" x2="825.9" y2="161.8" stroke="#6e7681" stroke-width="1.3" opacity="0.44" />
  <line x1="910.0" y1="144.1" x2="897.1" y2="154.5" stroke="#6e7681" stroke-width="0.9" opacity="0.18" />
  <line x1="825.9" y1="161.8" x2="806.0" y2="150.3" stroke="#6e7681" stroke-width="1.1" opacity="0.31" />
  <line x1="825.9" y1="161.8" x2="769.3" y2="135.7" stroke="#6e7681" stroke-width="0.9" opacity="0.20" />
  <line x1="825.9" y1="161.8" x2="752.9" y2="149.8" stroke="#6e7681" stroke-width="1.0" opacity="0.24" />
  <line x1="825.9" y1="161.8" x2="728.2" y2="123.9" stroke="#6e7681" stroke-width="0.9" opacity="0.20" />
  <line x1="825.9" y1="161.8" x2="733.2" y2="134.3" stroke="#6e7681" stroke-width="1.0" opacity="0.24" />
  <line x1="825.9" y1="161.8" x2="775.9" y2="124.1" stroke="#6e7681" stroke-width="0.9" opacity="0.18" />
  <line x1="825.9" y1="161.8" x2="865.6" y2="261.0" stroke="#6e7681" stroke-width="0.9" opacity="0.17" />
  <line x1="825.9" y1="161.8" x2="822.3" y2="145.8" stroke="#6e7681" stroke-width="1.1" opacity="0.31" />
  <line x1="825.9" y1="161.8" x2="897.1" y2="154.5" stroke="#6e7681" stroke-width="1.1" opacity="0.30" />
  <line x1="825.9" y1="161.8" x2="739.8" y2="153.8" stroke="#6e7681" stroke-width="1.1" opacity="0.31" />
  <line x1="350.9" y1="475.7" x2="379.8" y2="471.4" stroke="#6e7681" stroke-width="1.6" opacity="0.60" />
  <line x1="537.0" y1="57.5" x2="672.9" y2="99.9" stroke="#6e7681" stroke-width="0.9" opacity="0.18" />
  <line x1="537.0" y1="57.5" x2="448.1" y2="50.0" stroke="#6e7681" stroke-width="1.1" opacity="0.28" />
  <line x1="750.3" y1="101.7" x2="695.6" y2="111.3" stroke="#6e7681" stroke-width="0.9" opacity="0.17" />
  <line x1="750.3" y1="101.7" x2="672.9" y2="99.9" stroke="#6e7681" stroke-width="0.9" opacity="0.18" />
  <line x1="750.3" y1="101.7" x2="706.8" y2="123.3" stroke="#6e7681" stroke-width="1.0" opacity="0.22" />
  <line x1="750.3" y1="101.7" x2="728.2" y2="123.9" stroke="#6e7681" stroke-width="1.1" opacity="0.28" />
  <line x1="750.3" y1="101.7" x2="726.8" y2="110.4" stroke="#6e7681" stroke-width="1.1" opacity="0.32" />
  <line x1="750.3" y1="101.7" x2="733.2" y2="134.3" stroke="#6e7681" stroke-width="0.9" opacity="0.20" />
  <line x1="750.3" y1="101.7" x2="710.5" y2="102.9" stroke="#6e7681" stroke-width="1.0" opacity="0.22" />
  <line x1="750.3" y1="101.7" x2="773.0" y2="146.9" stroke="#6e7681" stroke-width="1.0" opacity="0.22" />
  <line x1="695.6" y1="111.3" x2="672.9" y2="99.9" stroke="#6e7681" stroke-width="1.3" opacity="0.42" />
  <line x1="695.6" y1="111.3" x2="706.4" y2="85.2" stroke="#6e7681" stroke-width="0.9" opacity="0.18" />
  <line x1="695.6" y1="111.3" x2="673.9" y2="115.9" stroke="#6e7681" stroke-width="1.1" opacity="0.31" />
  <line x1="695.6" y1="111.3" x2="706.8" y2="123.3" stroke="#6e7681" stroke-width="1.1" opacity="0.32" />
  <line x1="695.6" y1="111.3" x2="715.8" y2="132.8" stroke="#6e7681" stroke-width="1.0" opacity="0.23" />
  <line x1="695.6" y1="111.3" x2="728.2" y2="123.9" stroke="#6e7681" stroke-width="1.2" opacity="0.39" />
  <line x1="695.6" y1="111.3" x2="726.8" y2="110.4" stroke="#6e7681" stroke-width="1.0" opacity="0.26" />
  <line x1="695.6" y1="111.3" x2="733.2" y2="134.3" stroke="#6e7681" stroke-width="1.2" opacity="0.34" />
  <line x1="695.6" y1="111.3" x2="775.9" y2="124.1" stroke="#6e7681" stroke-width="0.9" opacity="0.19" />
  <line x1="695.6" y1="111.3" x2="710.5" y2="102.9" stroke="#6e7681" stroke-width="1.0" opacity="0.25" />
  <line x1="695.6" y1="111.3" x2="739.8" y2="153.8" stroke="#6e7681" stroke-width="0.9" opacity="0.17" />
  <line x1="672.9" y1="99.9" x2="706.4" y2="85.2" stroke="#6e7681" stroke-width="1.1" opacity="0.33" />
  <line x1="672.9" y1="99.9" x2="673.9" y2="115.9" stroke="#6e7681" stroke-width="0.9" opacity="0.21" />
  <line x1="672.9" y1="99.9" x2="706.8" y2="123.3" stroke="#6e7681" stroke-width="0.9" opacity="0.18" />
  <line x1="672.9" y1="99.9" x2="728.2" y2="123.9" stroke="#6e7681" stroke-width="1.3" opacity="0.41" />
  <line x1="672.9" y1="99.9" x2="726.8" y2="110.4" stroke="#6e7681" stroke-width="1.0" opacity="0.22" />
  <line x1="672.9" y1="99.9" x2="733.2" y2="134.3" stroke="#6e7681" stroke-width="1.1" opacity="0.31" />
  <line x1="672.9" y1="99.9" x2="710.5" y2="102.9" stroke="#6e7681" stroke-width="1.7" opacity="0.66" />
  <line x1="793.6" y1="140.7" x2="806.0" y2="150.3" stroke="#6e7681" stroke-width="1.5" opacity="0.55" />
  <line x1="793.6" y1="140.7" x2="769.3" y2="135.7" stroke="#6e7681" stroke-width="0.9" opacity="0.18" />
  <line x1="793.6" y1="140.7" x2="752.9" y2="149.8" stroke="#6e7681" stroke-width="1.1" opacity="0.28" />
  <line x1="793.6" y1="140.7" x2="728.2" y2="123.9" stroke="#6e7681" stroke-width="0.9" opacity="0.18" />
  <line x1="793.6" y1="140.7" x2="733.2" y2="134.3" stroke="#6e7681" stroke-width="1.1" opacity="0.28" />
  <line x1="793.6" y1="140.7" x2="795.9" y2="158.8" stroke="#6e7681" stroke-width="1.5" opacity="0.55" />
  <line x1="793.6" y1="140.7" x2="773.0" y2="146.9" stroke="#6e7681" stroke-width="1.2" opacity="0.37" />
  <line x1="793.6" y1="140.7" x2="822.3" y2="145.8" stroke="#6e7681" stroke-width="1.5" opacity="0.55" />
  <line x1="793.6" y1="140.7" x2="739.8" y2="153.8" stroke="#6e7681" stroke-width="1.5" opacity="0.55" />
  <line x1="806.0" y1="150.3" x2="752.9" y2="149.8" stroke="#6e7681" stroke-width="1.0" opacity="0.22" />
  <line x1="806.0" y1="150.3" x2="733.2" y2="134.3" stroke="#6e7681" stroke-width="1.0" opacity="0.22" />
  <line x1="806.0" y1="150.3" x2="795.9" y2="158.8" stroke="#6e7681" stroke-width="1.2" opacity="0.37" />
  <line x1="806.0" y1="150.3" x2="773.0" y2="146.9" stroke="#6e7681" stroke-width="1.1" opacity="0.28" />
  <line x1="806.0" y1="150.3" x2="822.3" y2="145.8" stroke="#6e7681" stroke-width="1.2" opacity="0.37" />
  <line x1="806.0" y1="150.3" x2="739.8" y2="153.8" stroke="#6e7681" stroke-width="1.2" opacity="0.37" />
  <line x1="706.4" y1="85.2" x2="728.2" y2="123.9" stroke="#6e7681" stroke-width="0.9" opacity="0.18" />
  <line x1="706.4" y1="85.2" x2="726.8" y2="110.4" stroke="#6e7681" stroke-width="0.9" opacity="0.18" />
  <line x1="706.4" y1="85.2" x2="733.2" y2="134.3" stroke="#6e7681" stroke-width="1.0" opacity="0.22" />
  <line x1="706.4" y1="85.2" x2="710.5" y2="102.9" stroke="#6e7681" stroke-width="1.3" opacity="0.41" />
  <line x1="673.9" y1="115.9" x2="706.8" y2="123.3" stroke="#6e7681" stroke-width="1.1" opacity="0.31" />
  <line x1="673.9" y1="115.9" x2="728.2" y2="123.9" stroke="#6e7681" stroke-width="1.4" opacity="0.47" />
  <line x1="673.9" y1="115.9" x2="726.8" y2="110.4" stroke="#6e7681" stroke-width="0.9" opacity="0.19" />
  <line x1="673.9" y1="115.9" x2="733.2" y2="134.3" stroke="#6e7681" stroke-width="1.0" opacity="0.22" />
  <line x1="706.8" y1="123.3" x2="715.8" y2="132.8" stroke="#6e7681" stroke-width="1.1" opacity="0.29" />
  <line x1="706.8" y1="123.3" x2="769.3" y2="135.7" stroke="#6e7681" stroke-width="0.9" opacity="0.17" />
  <line x1="706.8" y1="123.3" x2="752.9" y2="149.8" stroke="#6e7681" stroke-width="0.9" opacity="0.20" />
  <line x1="706.8" y1="123.3" x2="728.2" y2="123.9" stroke="#6e7681" stroke-width="1.3" opacity="0.40" />
  <line x1="706.8" y1="123.3" x2="726.8" y2="110.4" stroke="#6e7681" stroke-width="1.0" opacity="0.24" />
  <line x1="706.8" y1="123.3" x2="733.2" y2="134.3" stroke="#6e7681" stroke-width="0.9" opacity="0.20" />
  <line x1="706.8" y1="123.3" x2="739.8" y2="153.8" stroke="#6e7681" stroke-width="1.0" opacity="0.24" />
  <line x1="715.8" y1="132.8" x2="752.9" y2="149.8" stroke="#6e7681" stroke-width="0.9" opacity="0.18" />
  <line x1="715.8" y1="132.8" x2="726.8" y2="110.4" stroke="#6e7681" stroke-width="1.0" opacity="0.23" />
  <line x1="715.8" y1="132.8" x2="733.2" y2="134.3" stroke="#6e7681" stroke-width="0.9" opacity="0.18" />
  <line x1="715.8" y1="132.8" x2="775.9" y2="124.1" stroke="#6e7681" stroke-width="1.0" opacity="0.24" />
  <line x1="715.8" y1="132.8" x2="739.8" y2="153.8" stroke="#6e7681" stroke-width="1.0" opacity="0.22" />
  <line x1="769.3" y1="135.7" x2="752.9" y2="149.8" stroke="#6e7681" stroke-width="1.1" opacity="0.28" />
  <line x1="769.3" y1="135.7" x2="728.2" y2="123.9" stroke="#6e7681" stroke-width="1.0" opacity="0.22" />
  <line x1="769.3" y1="135.7" x2="733.2" y2="134.3" stroke="#6e7681" stroke-width="1.1" opacity="0.28" />
  <line x1="769.3" y1="135.7" x2="775.9" y2="124.1" stroke="#6e7681" stroke-width="0.9" opacity="0.20" />
  <line x1="769.3" y1="135.7" x2="739.8" y2="153.8" stroke="#6e7681" stroke-width="1.2" opacity="0.37" />
  <line x1="752.9" y1="149.8" x2="728.2" y2="123.9" stroke="#6e7681" stroke-width="1.1" opacity="0.28" />
  <line x1="752.9" y1="149.8" x2="733.2" y2="134.3" stroke="#6e7681" stroke-width="1.2" opacity="0.37" />
  <line x1="752.9" y1="149.8" x2="795.9" y2="158.8" stroke="#6e7681" stroke-width="1.0" opacity="0.22" />
  <line x1="752.9" y1="149.8" x2="775.9" y2="124.1" stroke="#6e7681" stroke-width="1.0" opacity="0.24" />
  <line x1="752.9" y1="149.8" x2="773.0" y2="146.9" stroke="#6e7681" stroke-width="0.9" opacity="0.18" />
  <line x1="752.9" y1="149.8" x2="822.3" y2="145.8" stroke="#6e7681" stroke-width="1.0" opacity="0.22" />
  <line x1="752.9" y1="149.8" x2="739.8" y2="153.8" stroke="#6e7681" stroke-width="1.5" opacity="0.55" />
  <line x1="728.2" y1="123.9" x2="726.8" y2="110.4" stroke="#6e7681" stroke-width="1.1" opacity="0.29" />
  <line x1="728.2" y1="123.9" x2="733.2" y2="134.3" stroke="#6e7681" stroke-width="1.4" opacity="0.47" />
  <line x1="728.2" y1="123.9" x2="775.9" y2="124.1" stroke="#6e7681" stroke-width="0.9" opacity="0.20" />
  <line x1="728.2" y1="123.9" x2="710.5" y2="102.9" stroke="#6e7681" stroke-width="1.1" opacity="0.31" />
  <line x1="728.2" y1="123.9" x2="773.0" y2="146.9" stroke="#6e7681" stroke-width="1.1" opacity="0.31" />
  <line x1="728.2" y1="123.9" x2="739.8" y2="153.8" stroke="#6e7681" stroke-width="1.2" opacity="0.37" />
  <line x1="726.8" y1="110.4" x2="733.2" y2="134.3" stroke="#6e7681" stroke-width="1.2" opacity="0.34" />
  <line x1="726.8" y1="110.4" x2="710.5" y2="102.9" stroke="#6e7681" stroke-width="1.0" opacity="0.25" />
  <line x1="726.8" y1="110.4" x2="773.0" y2="146.9" stroke="#6e7681" stroke-width="1.0" opacity="0.25" />
  <line x1="726.8" y1="110.4" x2="739.8" y2="153.8" stroke="#6e7681" stroke-width="0.9" opacity="0.17" />
  <line x1="733.2" y1="134.3" x2="795.9" y2="158.8" stroke="#6e7681" stroke-width="1.0" opacity="0.22" />
  <line x1="733.2" y1="134.3" x2="775.9" y2="124.1" stroke="#6e7681" stroke-width="1.0" opacity="0.24" />
  <line x1="733.2" y1="134.3" x2="710.5" y2="102.9" stroke="#6e7681" stroke-width="1.3" opacity="0.44" />
  <line x1="733.2" y1="134.3" x2="773.0" y2="146.9" stroke="#6e7681" stroke-width="1.3" opacity="0.44" />
  <line x1="733.2" y1="134.3" x2="822.3" y2="145.8" stroke="#6e7681" stroke-width="1.0" opacity="0.22" />
  <line x1="733.2" y1="134.3" x2="739.8" y2="153.8" stroke="#6e7681" stroke-width="1.5" opacity="0.55" />
  <line x1="111.9" y1="99.2" x2="79.4" y2="113.6" stroke="#6e7681" stroke-width="1.0" opacity="0.22" />
  <line x1="854.7" y1="186.1" x2="739.8" y2="153.8" stroke="#6e7681" stroke-width="1.0" opacity="0.22" />
  <line x1="795.9" y1="158.8" x2="773.0" y2="146.9" stroke="#6e7681" stroke-width="1.1" opacity="0.28" />
  <line x1="795.9" y1="158.8" x2="822.3" y2="145.8" stroke="#6e7681" stroke-width="1.2" opacity="0.37" />
  <line x1="795.9" y1="158.8" x2="739.8" y2="153.8" stroke="#6e7681" stroke-width="1.2" opacity="0.37" />
  <line x1="860.2" y1="299.0" x2="866.6" y2="312.1" stroke="#6e7681" stroke-width="1.5" opacity="0.55" />
  <line x1="860.2" y1="299.0" x2="865.6" y2="261.0" stroke="#6e7681" stroke-width="1.3" opacity="0.41" />
  <line x1="866.6" y1="312.1" x2="865.6" y2="261.0" stroke="#6e7681" stroke-width="1.0" opacity="0.24" />
  <line x1="775.9" y1="124.1" x2="739.8" y2="153.8" stroke="#6e7681" stroke-width="1.1" opacity="0.31" />
  <line x1="710.5" y1="102.9" x2="773.0" y2="146.9" stroke="#6e7681" stroke-width="1.0" opacity="0.22" />
  <line x1="773.0" y1="146.9" x2="771.7" y2="194.5" stroke="#6e7681" stroke-width="1.2" opacity="0.37" />
  <line x1="773.0" y1="146.9" x2="828.9" y2="203.1" stroke="#6e7681" stroke-width="0.9" opacity="0.18" />
  <line x1="773.0" y1="146.9" x2="822.3" y2="145.8" stroke="#6e7681" stroke-width="1.1" opacity="0.28" />
  <line x1="773.0" y1="146.9" x2="739.8" y2="153.8" stroke="#6e7681" stroke-width="1.1" opacity="0.28" />
  <line x1="771.7" y1="194.5" x2="828.9" y2="203.1" stroke="#6e7681" stroke-width="1.1" opacity="0.28" />
  <line x1="822.3" y1="145.8" x2="897.1" y2="154.5" stroke="#6e7681" stroke-width="1.1" opacity="0.31" />
  <line x1="822.3" y1="145.8" x2="739.8" y2="153.8" stroke="#6e7681" stroke-width="1.2" opacity="0.37" />
  <circle cx="657.9" cy="151.5" r="19.8" fill="#7f8c8d" opacity="0.12" />
  <circle cx="657.9" cy="151.5" r="15.8" fill="#7f8c8d" opacity="0.88" />
  <circle cx="628.4" cy="186.9" r="12.6" fill="#3498db" opacity="0.12" />
  <circle cx="628.4" cy="186.9" r="8.6" fill="#3498db" opacity="0.88" />
  <circle cx="607.0" cy="222.6" r="15.3" fill="#3498db" opacity="0.12" />
  <circle cx="607.0" cy="222.6" r="11.3" fill="#3498db" opacity="0.88" />
  <circle cx="688.3" cy="159.0" r="16.2" fill="#3498db" opacity="0.12" />
  <circle cx="688.3" cy="159.0" r="12.2" fill="#3498db" opacity="0.88" />
  <circle cx="642.6" cy="174.0" r="19.8" fill="#7f8c8d" opacity="0.12" />
  <circle cx="642.6" cy="174.0" r="15.8" fill="#7f8c8d" opacity="0.88" />
  <circle cx="616.7" cy="123.5" r="20" fill="#3498db" opacity="0.12" />
  <circle cx="616.7" cy="123.5" r="16" fill="#3498db" opacity="0.88" />
  <circle cx="567.2" cy="193.4" r="16.2" fill="#7f8c8d" opacity="0.12" />
  <circle cx="567.2" cy="193.4" r="12.2" fill="#7f8c8d" opacity="0.88" />
  <circle cx="668.7" cy="185.4" r="12.6" fill="#2ecc71" opacity="0.12" />
  <circle cx="668.7" cy="185.4" r="8.6" fill="#2ecc71" opacity="0.88" />
  <circle cx="629.0" cy="168.1" r="18.9" fill="#7f8c8d" opacity="0.12" />
  <circle cx="629.0" cy="168.1" r="14.9" fill="#7f8c8d" opacity="0.88" />
  <circle cx="590.2" cy="178.9" r="20" fill="#7f8c8d" opacity="0.12" />
  <circle cx="590.2" cy="178.9" r="16" fill="#7f8c8d" opacity="0.88" />
  <circle cx="565.8" cy="213.0" r="13.5" fill="#7f8c8d" opacity="0.12" />
  <circle cx="565.8" cy="213.0" r="9.5" fill="#7f8c8d" opacity="0.88" />
  <circle cx="609.9" cy="157.3" r="18.9" fill="#3498db" opacity="0.12" />
  <circle cx="609.9" cy="157.3" r="14.9" fill="#3498db" opacity="0.88" />
  <circle cx="664.9" cy="135.2" r="20" fill="#7f8c8d" opacity="0.12" />
  <circle cx="664.9" cy="135.2" r="16" fill="#7f8c8d" opacity="0.88" />
  <circle cx="666.2" cy="162.4" r="17.1" fill="#e67e22" opacity="0.12" />
  <circle cx="666.2" cy="162.4" r="13.1" fill="#e67e22" opacity="0.88" />
  <circle cx="633.1" cy="98.4" r="20" fill="#e74c3c" opacity="0.12" />
  <circle cx="633.1" cy="98.4" r="16" fill="#e74c3c" opacity="0.88" />
  <circle cx="733.6" cy="85.4" r="20" fill="#9b59b6" opacity="0.12" />
  <circle cx="733.6" cy="85.4" r="16" fill="#9b59b6" opacity="0.88" />
  <circle cx="737.8" cy="175.8" r="17.1" fill="#e67e22" opacity="0.12" />
  <circle cx="737.8" cy="175.8" r="13.1" fill="#e67e22" opacity="0.88" />
  <circle cx="672.8" cy="154.3" r="18.0" fill="#3498db" opacity="0.12" />
  <circle cx="672.8" cy="154.3" r="14.0" fill="#3498db" opacity="0.88" />
  <circle cx="689.7" cy="169.2" r="18.0" fill="#3498db" opacity="0.12" />
  <circle cx="689.7" cy="169.2" r="14.0" fill="#3498db" opacity="0.88" />
  <circle cx="910.0" cy="144.1" r="14.4" fill="#e74c3c" opacity="0.12" />
  <circle cx="910.0" cy="144.1" r="10.4" fill="#e74c3c" opacity="0.88" />
  <circle cx="50.0" cy="262.4" r="16.2" fill="#3498db" opacity="0.12" />
  <circle cx="50.0" cy="262.4" r="12.2" fill="#3498db" opacity="0.88" />
  <circle cx="825.9" cy="161.8" r="14.4" fill="#e74c3c" opacity="0.12" />
  <circle cx="825.9" cy="161.8" r="10.4" fill="#e74c3c" opacity="0.88" />
  <circle cx="350.9" cy="475.7" r="16.2" fill="#3498db" opacity="0.12" />
  <circle cx="350.9" cy="475.7" r="12.2" fill="#3498db" opacity="0.88" />
  <circle cx="379.8" cy="471.4" r="15.3" fill="#3498db" opacity="0.12" />
  <circle cx="379.8" cy="471.4" r="11.3" fill="#3498db" opacity="0.88" />
  <circle cx="537.0" cy="57.5" r="9.9" fill="#3498db" opacity="0.12" />
  <circle cx="537.0" cy="57.5" r="5.9" fill="#3498db" opacity="0.88" />
  <circle cx="750.3" cy="101.7" r="16.2" fill="#9b59b6" opacity="0.12" />
  <circle cx="750.3" cy="101.7" r="12.2" fill="#9b59b6" opacity="0.88" />
  <circle cx="695.6" cy="111.3" r="19.8" fill="#9b59b6" opacity="0.12" />
  <circle cx="695.6" cy="111.3" r="15.8" fill="#9b59b6" opacity="0.88" />
  <circle cx="672.9" cy="99.9" r="12.6" fill="#9b59b6" opacity="0.12" />
  <circle cx="672.9" cy="99.9" r="8.6" fill="#9b59b6" opacity="0.88" />
  <circle cx="793.6" cy="140.7" r="9" fill="#2ecc71" opacity="0.12" />
  <circle cx="793.6" cy="140.7" r="5" fill="#2ecc71" opacity="0.88" />
  <circle cx="806.0" cy="150.3" r="9.9" fill="#7f8c8d" opacity="0.12" />
  <circle cx="806.0" cy="150.3" r="5.9" fill="#7f8c8d" opacity="0.88" />
  <circle cx="706.4" cy="85.2" r="15.3" fill="#e67e22" opacity="0.12" />
  <circle cx="706.4" cy="85.2" r="11.3" fill="#e67e22" opacity="0.88" />
  <circle cx="673.9" cy="115.9" r="20" fill="#2ecc71" opacity="0.12" />
  <circle cx="673.9" cy="115.9" r="16" fill="#2ecc71" opacity="0.88" />
  <circle cx="448.1" cy="50.0" r="10.8" fill="#9b59b6" opacity="0.12" />
  <circle cx="448.1" cy="50.0" r="6.8" fill="#9b59b6" opacity="0.88" />
  <circle cx="173.2" cy="409.6" r="9" fill="#7f8c8d" opacity="0.12" />
  <circle cx="173.2" cy="409.6" r="5" fill="#7f8c8d" opacity="0.88" />
  <circle cx="706.8" cy="123.3" r="16.2" fill="#3498db" opacity="0.12" />
  <circle cx="706.8" cy="123.3" r="12.2" fill="#3498db" opacity="0.88" />
  <circle cx="715.8" cy="132.8" r="17.1" fill="#7f8c8d" opacity="0.12" />
  <circle cx="715.8" cy="132.8" r="13.1" fill="#7f8c8d" opacity="0.88" />
  <circle cx="769.3" cy="135.7" r="13.5" fill="#7f8c8d" opacity="0.12" />
  <circle cx="769.3" cy="135.7" r="9.5" fill="#7f8c8d" opacity="0.88" />
  <circle cx="864.2" cy="467.6" r="9" fill="#7f8c8d" opacity="0.12" />
  <circle cx="864.2" cy="467.6" r="5" fill="#7f8c8d" opacity="0.88" />
  <circle cx="752.9" cy="149.8" r="11.7" fill="#7f8c8d" opacity="0.12" />
  <circle cx="752.9" cy="149.8" r="7.7" fill="#7f8c8d" opacity="0.88" />
  <circle cx="728.2" cy="123.9" r="13.5" fill="#7f8c8d" opacity="0.12" />
  <circle cx="728.2" cy="123.9" r="9.5" fill="#7f8c8d" opacity="0.88" />
  <circle cx="726.8" cy="110.4" r="19.8" fill="#2ecc71" opacity="0.12" />
  <circle cx="726.8" cy="110.4" r="15.8" fill="#2ecc71" opacity="0.88" />
  <circle cx="733.2" cy="134.3" r="11.7" fill="#7f8c8d" opacity="0.12" />
  <circle cx="733.2" cy="134.3" r="7.7" fill="#7f8c8d" opacity="0.88" />
  <circle cx="111.9" cy="99.2" r="11.7" fill="#7f8c8d" opacity="0.12" />
  <circle cx="111.9" cy="99.2" r="7.7" fill="#7f8c8d" opacity="0.88" />
  <circle cx="854.7" cy="186.1" r="11.7" fill="#3498db" opacity="0.12" />
  <circle cx="854.7" cy="186.1" r="7.7" fill="#3498db" opacity="0.88" />
  <circle cx="795.9" cy="158.8" r="9.9" fill="#7f8c8d" opacity="0.12" />
  <circle cx="795.9" cy="158.8" r="5.9" fill="#7f8c8d" opacity="0.88" />
  <circle cx="860.2" cy="299.0" r="10.8" fill="#e67e22" opacity="0.12" />
  <circle cx="860.2" cy="299.0" r="6.8" fill="#e67e22" opacity="0.88" />
  <circle cx="866.6" cy="312.1" r="10.8" fill="#e67e22" opacity="0.12" />
  <circle cx="866.6" cy="312.1" r="6.8" fill="#e67e22" opacity="0.88" />
  <circle cx="775.9" cy="124.1" r="14.4" fill="#7f8c8d" opacity="0.12" />
  <circle cx="775.9" cy="124.1" r="10.4" fill="#7f8c8d" opacity="0.88" />
  <circle cx="865.6" cy="261.0" r="15.3" fill="#e67e22" opacity="0.12" />
  <circle cx="865.6" cy="261.0" r="11.3" fill="#e67e22" opacity="0.88" />
  <circle cx="79.4" cy="113.6" r="9.9" fill="#7f8c8d" opacity="0.12" />
  <circle cx="79.4" cy="113.6" r="5.9" fill="#7f8c8d" opacity="0.88" />
  <circle cx="710.5" cy="102.9" r="10.8" fill="#7f8c8d" opacity="0.12" />
  <circle cx="710.5" cy="102.9" r="6.8" fill="#7f8c8d" opacity="0.88" />
  <circle cx="773.0" cy="146.9" r="10.8" fill="#7f8c8d" opacity="0.12" />
  <circle cx="773.0" cy="146.9" r="6.8" fill="#7f8c8d" opacity="0.88" />
  <circle cx="771.7" cy="194.5" r="9" fill="#2ecc71" opacity="0.12" />
  <circle cx="771.7" cy="194.5" r="5" fill="#2ecc71" opacity="0.88" />
  <circle cx="828.9" cy="203.1" r="11.7" fill="#2ecc71" opacity="0.12" />
  <circle cx="828.9" cy="203.1" r="7.7" fill="#2ecc71" opacity="0.88" />
  <circle cx="822.3" cy="145.8" r="9.9" fill="#e74c3c" opacity="0.12" />
  <circle cx="822.3" cy="145.8" r="5.9" fill="#e74c3c" opacity="0.88" />
  <circle cx="897.1" cy="154.5" r="14.4" fill="#e74c3c" opacity="0.12" />
  <circle cx="897.1" cy="154.5" r="10.4" fill="#e74c3c" opacity="0.88" />
  <circle cx="739.8" cy="153.8" r="9.9" fill="#7f8c8d" opacity="0.12" />
  <circle cx="739.8" cy="153.8" r="5.9" fill="#7f8c8d" opacity="0.88" />
  <circle cx="691.0" cy="500.0" r="9" fill="#7f8c8d" opacity="0.12" />
  <circle cx="691.0" cy="500.0" r="5" fill="#7f8c8d" opacity="0.88" />
  <rect x="675.7" y="37.9" width="124.4" height="15" fill="#0d1117" opacity="0.75" rx="2" />
  <text x="676.7" y="48.9" font-family="system-ui, -apple-system, sans-serif" font-size="12" fill="#e6edf3" text-anchor="start">tinyland-huskycat</text>
  <rect x="639.0" y="184.2" width="16.4" height="15" fill="#0d1117" opacity="0.75" rx="2" />
  <text x="640.0" y="195.2" font-family="system-ui, -apple-system, sans-serif" font-size="12" fill="#e6edf3" text-anchor="start">pp</text>
  <rect x="620.3" y="283.4" width="117.2" height="15" fill="#0d1117" opacity="0.75" rx="2" />
  <text x="621.3" y="294.4" font-family="system-ui, -apple-system, sans-serif" font-size="12" fill="#e6edf3" text-anchor="start">tinyland-cleanup</text>
  <rect x="702.5" y="140.5" width="66.8" height="15" fill="#0d1117" opacity="0.75" rx="2" />
  <text x="703.5" y="151.5" font-family="system-ui, -apple-system, sans-serif" font-size="12" fill="#e6edf3" text-anchor="start">betterkvm</text>
  <rect x="660.4" y="225.4" width="66.8" height="15" fill="#0d1117" opacity="0.75" rx="2" />
  <text x="661.4" y="236.4" font-family="system-ui, -apple-system, sans-serif" font-size="12" fill="#e6edf3" text-anchor="start">outbot-ci</text>
  <rect x="634.7" y="92.0" width="117.2" height="15" fill="#0d1117" opacity="0.75" rx="2" />
  <text x="635.7" y="103.0" font-family="system-ui, -apple-system, sans-serif" font-size="12" fill="#e6edf3" text-anchor="start">GloriousFlywheel</text>
  <rect x="581.4" y="254.3" width="131.6" height="15" fill="#0d1117" opacity="0.75" rx="2" />
  <text x="582.4" y="265.3" font-family="system-ui, -apple-system, sans-serif" font-size="12" fill="#e6edf3" text-anchor="start">aperture-bootstrap</text>
  <rect x="679.3" y="237.3" width="59.6" height="15" fill="#0d1117" opacity="0.75" rx="2" />
  <text x="680.3" y="248.3" font-family="system-ui, -apple-system, sans-serif" font-size="12" fill="#e6edf3" text-anchor="start">gnucashr</text>
  <rect x="645.9" y="78.4" width="81.2" height="15" fill="#0d1117" opacity="0.75" rx="2" />
  <text x="646.9" y="89.4" font-family="system-ui, -apple-system, sans-serif" font-size="12" fill="#e6edf3" text-anchor="start">tailnet-acl</text>
  <rect x="608.2" y="169.6" width="74.0" height="15" fill="#0d1117" opacity="0.75" rx="2" />
  <text x="609.2" y="180.6" font-family="system-ui, -apple-system, sans-serif" font-size="12" fill="#e6edf3" text-anchor="start">tummycrypt</text>
  <rect x="577.3" y="268.9" width="88.4" height="15" fill="#0d1117" opacity="0.75" rx="2" />
  <text x="578.3" y="279.9" font-family="system-ui, -apple-system, sans-serif" font-size="12" fill="#e6edf3" text-anchor="start">waifu-mirror</text>
  <rect x="626.8" y="23.8" width="102.8" height="15" fill="#0d1117" opacity="0.75" rx="2" />
  <text x="627.8" y="34.8" font-family="system-ui, -apple-system, sans-serif" font-size="12" fill="#e6edf3" text-anchor="start">tinyland-infra</text>
  <rect x="682.9" y="180.0" width="52.4" height="15" fill="#0d1117" opacity="0.75" rx="2" />
  <text x="683.9" y="191.0" font-family="system-ui, -apple-system, sans-serif" font-size="12" fill="#e6edf3" text-anchor="start">LA-Mesh</text>
  <rect x="681.3" y="211.2" width="45.2" height="15" fill="#0d1117" opacity="0.75" rx="2" />
  <text x="682.3" y="222.2" font-family="system-ui, -apple-system, sans-serif" font-size="12" fill="#e6edf3" text-anchor="start">XoxdWM</text>
  <rect x="651.1" y="146.9" width="131.6" height="15" fill="#0d1117" opacity="0.75" rx="2" />
  <text x="652.1" y="157.9" font-family="system-ui, -apple-system, sans-serif" font-size="12" fill="#e6edf3" text-anchor="start">pixelwise-research</text>
  <rect x="751.6" y="-19.5" width="95.6" height="15" fill="#0d1117" opacity="0.75" rx="2" />
  <text x="752.6" y="-8.5" font-family="system-ui, -apple-system, sans-serif" font-size="12" fill="#e6edf3" text-anchor="start">GIS_Shortcuts</text>
  <rect x="752.9" y="229.3" width="110.0" height="15" fill="#0d1117" opacity="0.75" rx="2" />
  <text x="753.9" y="240.3" font-family="system-ui, -apple-system, sans-serif" font-size="12" fill="#e6edf3" text-anchor="start">hiberpower-ntfs</text>
  <rect x="688.8" y="107.3" width="138.8" height="15" fill="#0d1117" opacity="0.75" rx="2" />
  <text x="689.8" y="118.3" font-family="system-ui, -apple-system, sans-serif" font-size="12" fill="#e6edf3" text-anchor="start">Ansible-DAG-Harness</text>
  <rect x="705.7" y="44.1" width="95.6" height="15" fill="#0d1117" opacity="0.75" rx="2" />
  <text x="706.7" y="55.1" font-family="system-ui, -apple-system, sans-serif" font-size="12" fill="#e6edf3" text-anchor="start">DarwinNicUtil</text>
  <rect x="830.8" y="115.0" width="66.8" height="15" fill="#0d1117" opacity="0.75" rx="2" />
  <text x="896.6" y="126.0" font-family="system-ui, -apple-system, sans-serif" font-size="12" fill="#e6edf3" text-anchor="end">quickchpl</text>
  <rect x="64.2" y="255.6" width="131.6" height="15" fill="#0d1117" opacity="0.75" rx="2" />
  <text x="65.2" y="266.6" font-family="system-ui, -apple-system, sans-serif" font-size="12" fill="#e6edf3" text-anchor="start">tinyscale-mikrotik</text>
  <rect x="753.9" y="102.2" width="59.6" height="15" fill="#0d1117" opacity="0.75" rx="2" />
  <text x="812.5" y="113.2" font-family="system-ui, -apple-system, sans-serif" font-size="12" fill="#e6edf3" text-anchor="end">aoc-2025</text>
  <rect x="365.1" y="475.3" width="66.8" height="15" fill="#0d1117" opacity="0.75" rx="2" />
  <text x="366.1" y="486.3" font-family="system-ui, -apple-system, sans-serif" font-size="12" fill="#e6edf3" text-anchor="start">searchies</text>
  <rect x="393.1" y="458.3" width="59.6" height="15" fill="#0d1117" opacity="0.75" rx="2" />
  <text x="394.1" y="469.3" font-family="system-ui, -apple-system, sans-serif" font-size="12" fill="#e6edf3" text-anchor="start">ts-caddy</text>
  <rect x="544.9" y="55.4" width="66.8" height="15" fill="#0d1117" opacity="0.75" rx="2" />
  <text x="545.9" y="66.4" font-family="system-ui, -apple-system, sans-serif" font-size="12" fill="#e6edf3" text-anchor="start">HCI-notes</text>
  <rect x="764.5" y="170.3" width="88.4" height="15" fill="#0d1117" opacity="0.75" rx="2" />
  <text x="765.5" y="181.3" font-family="system-ui, -apple-system, sans-serif" font-size="12" fill="#e6edf3" text-anchor="start">FastPhotoAPI</text>
  <rect x="713.4" y="-7.3" width="81.2" height="15" fill="#0d1117" opacity="0.75" rx="2" />
  <text x="714.4" y="3.7" font-family="system-ui, -apple-system, sans-serif" font-size="12" fill="#e6edf3" text-anchor="start">timberbuddy</text>
  <rect x="683.5" y="171.2" width="81.2" height="15" fill="#0d1117" opacity="0.75" rx="2" />
  <text x="684.5" y="182.2" font-family="system-ui, -apple-system, sans-serif" font-size="12" fill="#e6edf3" text-anchor="start">tetrahedron</text>
  <rect x="691.0" y="158.5" width="95.6" height="15" fill="#0d1117" opacity="0.75" rx="2" />
  <text x="785.6" y="169.5" font-family="system-ui, -apple-system, sans-serif" font-size="12" fill="#e6edf3" text-anchor="end">AccuWixReport</text>
  <rect x="702.5" y="128.7" width="95.6" height="15" fill="#0d1117" opacity="0.75" rx="2" />
  <text x="797.1" y="139.7" font-family="system-ui, -apple-system, sans-serif" font-size="12" fill="#e6edf3" text-anchor="end">Jess-AOC-2023</text>
  <rect x="719.7" y="-36.5" width="81.2" height="15" fill="#0d1117" opacity="0.75" rx="2" />
  <text x="720.7" y="-25.5" font-family="system-ui, -apple-system, sans-serif" font-size="12" fill="#e6edf3" text-anchor="start">TurkeyProbe</text>
  <rect x="691.9" y="193.5" width="153.2" height="15" fill="#0d1117" opacity="0.75" rx="2" />
  <text x="692.9" y="204.5" font-family="system-ui, -apple-system, sans-serif" font-size="12" fill="#e6edf3" text-anchor="start">MerlinAI-Interpreters</text>
  <rect x="456.9" y="38.4" width="110.0" height="15" fill="#0d1117" opacity="0.75" rx="2" />
  <text x="457.9" y="49.4" font-family="system-ui, -apple-system, sans-serif" font-size="12" fill="#e6edf3" text-anchor="start">IntroTypeScript</text>
  <rect x="180.2" y="402.8" width="110.0" height="15" fill="#0d1117" opacity="0.75" rx="2" />
  <text x="181.2" y="413.8" font-family="system-ui, -apple-system, sans-serif" font-size="12" fill="#e6edf3" text-anchor="start">IG-3DP-Profiles</text>
  <rect x="721.0" y="256.5" width="66.8" height="15" fill="#0d1117" opacity="0.75" rx="2" />
  <text x="722.0" y="267.5" font-family="system-ui, -apple-system, sans-serif" font-size="12" fill="#e6edf3" text-anchor="start">DLA-Flask</text>
  <rect x="730.9" y="17.5" width="38.0" height="15" fill="#0d1117" opacity="0.75" rx="2" />
  <text x="731.9" y="28.5" font-family="system-ui, -apple-system, sans-serif" font-size="12" fill="#e6edf3" text-anchor="start">USBoN</text>
  <rect x="780.8" y="23.8" width="203.6" height="15" fill="#0d1117" opacity="0.75" rx="2" />
  <text x="781.8" y="34.8" font-family="system-ui, -apple-system, sans-serif" font-size="12" fill="#e6edf3" text-anchor="start">chrome-remote-desktop-budgie</text>
  <rect x="732.8" y="460.8" width="124.4" height="15" fill="#0d1117" opacity="0.75" rx="2" />
  <text x="856.2" y="471.8" font-family="system-ui, -apple-system, sans-serif" font-size="12" fill="#e6edf3" text-anchor="end">OminousBeepingApp</text>
  <rect x="762.6" y="64.5" width="138.8" height="15" fill="#0d1117" opacity="0.75" rx="2" />
  <text x="763.6" y="75.5" font-family="system-ui, -apple-system, sans-serif" font-size="12" fill="#e6edf3" text-anchor="start">mo-image-identifier</text>
  <rect x="739.7" y="182.2" width="196.4" height="15" fill="#0d1117" opacity="0.75" rx="2" />
  <text x="740.7" y="193.2" font-family="system-ui, -apple-system, sans-serif" font-size="12" fill="#e6edf3" text-anchor="start">squirrel-leaflet-annotation</text>
  <rect x="744.6" y="222.1" width="74.0" height="15" fill="#0d1117" opacity="0.75" rx="2" />
  <text x="745.6" y="233.1" font-family="system-ui, -apple-system, sans-serif" font-size="12" fill="#e6edf3" text-anchor="start">Shiny-Apps</text>
  <rect x="742.9" y="205.1" width="138.8" height="15" fill="#0d1117" opacity="0.75" rx="2" />
  <text x="743.9" y="216.1" font-family="system-ui, -apple-system, sans-serif" font-size="12" fill="#e6edf3" text-anchor="start">bbox-jest-puppeteer</text>
  <rect x="121.6" y="92.4" width="88.4" height="15" fill="#0d1117" opacity="0.75" rx="2" />
  <text x="122.6" y="103.4" font-family="system-ui, -apple-system, sans-serif" font-size="12" fill="#e6edf3" text-anchor="start">DoverDisplay</text>
  <rect x="763.8" y="287.6" width="81.2" height="15" fill="#0d1117" opacity="0.75" rx="2" />
  <text x="844.0" y="298.6" font-family="system-ui, -apple-system, sans-serif" font-size="12" fill="#e6edf3" text-anchor="end">LeafletSync</text>
  <rect x="620.4" y="54.5" width="167.6" height="15" fill="#0d1117" opacity="0.75" rx="2" />
  <text x="787.0" y="65.5" font-family="system-ui, -apple-system, sans-serif" font-size="12" fill="#e6edf3" text-anchor="end">misc-roi-distance-notes</text>
  <rect x="712.6" y="316.4" width="138.8" height="15" fill="#0d1117" opacity="0.75" rx="2" />
  <text x="850.4" y="327.4" font-family="system-ui, -apple-system, sans-serif" font-size="12" fill="#e6edf3" text-anchor="end">Arduino_Coil_Winder</text>
  <rect x="827.0" y="330.9" width="30.8" height="15" fill="#0d1117" opacity="0.75" rx="2" />
  <text x="856.8" y="341.9" font-family="system-ui, -apple-system, sans-serif" font-size="12" fill="#e6edf3" text-anchor="end">momo</text>
  <rect x="788.3" y="6.8" width="38.0" height="15" fill="#0d1117" opacity="0.75" rx="2" />
  <text x="789.3" y="17.8" font-family="system-ui, -apple-system, sans-serif" font-size="12" fill="#e6edf3" text-anchor="start">clipi</text>
  <rect x="742.3" y="299.4" width="110.0" height="15" fill="#0d1117" opacity="0.75" rx="2" />
  <text x="851.3" y="310.4" font-family="system-ui, -apple-system, sans-serif" font-size="12" fill="#e6edf3" text-anchor="end">AeroTaz5_hotfix</text>
  <rect x="87.3" y="106.8" width="110.0" height="15" fill="#0d1117" opacity="0.75" rx="2" />
  <text x="88.3" y="117.8" font-family="system-ui, -apple-system, sans-serif" font-size="12" fill="#e6edf3" text-anchor="start">Funmat-HT-Notes</text>
  <rect x="719.3" y="115.9" width="81.2" height="15" fill="#0d1117" opacity="0.75" rx="2" />
  <text x="720.3" y="126.9" font-family="system-ui, -apple-system, sans-serif" font-size="12" fill="#e6edf3" text-anchor="start">static-site</text>
  <rect x="781.8" y="145.7" width="95.6" height="15" fill="#0d1117" opacity="0.75" rx="2" />
  <text x="782.8" y="156.7" font-family="system-ui, -apple-system, sans-serif" font-size="12" fill="#e6edf3" text-anchor="start">Flask-Manager</text>
  <rect x="778.7" y="242.6" width="110.0" height="15" fill="#0d1117" opacity="0.75" rx="2" />
  <text x="779.7" y="253.6" font-family="system-ui, -apple-system, sans-serif" font-size="12" fill="#e6edf3" text-anchor="start">FieldProcessing</text>
  <rect x="738.0" y="270.6" width="81.2" height="15" fill="#0d1117" opacity="0.75" rx="2" />
  <text x="818.2" y="281.6" font-family="system-ui, -apple-system, sans-serif" font-size="12" fill="#e6edf3" text-anchor="end">rJDKmanager</text>
  <rect x="754.8" y="92.6" width="59.6" height="15" fill="#0d1117" opacity="0.75" rx="2" />
  <text x="813.4" y="103.6" font-family="system-ui, -apple-system, sans-serif" font-size="12" fill="#e6edf3" text-anchor="end">tagnotes</text>
  <rect x="803.5" y="130.4" width="81.2" height="15" fill="#0d1117" opacity="0.75" rx="2" />
  <text x="883.7" y="141.4" font-family="system-ui, -apple-system, sans-serif" font-size="12" fill="#e6edf3" text-anchor="end">ChapelTests</text>
  <rect x="747.7" y="75.6" width="88.4" height="15" fill="#0d1117" opacity="0.75" rx="2" />
  <text x="748.7" y="86.6" font-family="system-ui, -apple-system, sans-serif" font-size="12" fill="#e6edf3" text-anchor="start">Xfinity-WiFi</text>
  <rect x="698.0" y="493.2" width="66.8" height="15" fill="#0d1117" opacity="0.75" rx="2" />
  <text x="699.0" y="504.2" font-family="system-ui, -apple-system, sans-serif" font-size="12" fill="#e6edf3" text-anchor="start">home-wiki</text>
  <rect x="793" y="36" width="155" height="120" rx="6" fill="#161b22" stroke="#30363d" stroke-width="1" opacity="0.95" />
  <circle cx="810" cy="52" r="5" fill="#e74c3c" opacity="0.88" />
  <text x="820" y="56" font-family="system-ui, -apple-system, sans-serif" font-size="10" fill="#e6edf3">Languages &amp; Compilers</text>
  <circle cx="810" cy="69" r="5" fill="#3498db" opacity="0.88" />
  <text x="820" y="73" font-family="system-ui, -apple-system, sans-serif" font-size="10" fill="#e6edf3">Infrastructure &amp; DevOps</text>
  <circle cx="810" cy="86" r="5" fill="#e67e22" opacity="0.88" />
  <text x="820" y="90" font-family="system-ui, -apple-system, sans-serif" font-size="10" fill="#e6edf3">Hardware &amp; Maker</text>
  <circle cx="810" cy="103" r="5" fill="#2ecc71" opacity="0.88" />
  <text x="820" y="107" font-family="system-ui, -apple-system, sans-serif" font-size="10" fill="#e6edf3">ML &amp; Data</text>
  <circle cx="810" cy="120" r="5" fill="#9b59b6" opacity="0.88" />
  <text x="820" y="124" font-family="system-ui, -apple-system, sans-serif" font-size="10" fill="#e6edf3">Web &amp; Apps</text>
  <circle cx="810" cy="137" r="5" fill="#7f8c8d" opacity="0.88" />
  <text x="820" y="141" font-family="system-ui, -apple-system, sans-serif" font-size="10" fill="#e6edf3">Other</text>
  <text x="870" y="150" font-family="system-ui, -apple-system, sans-serif" font-size="8" fill="#8b949e" text-anchor="middle">58 repos · 232 edges</text>
</svg>