<svg xmlns="http://www.w3.org/2000/svg" width="960" height="600" viewBox="0 0 960 600">
  <rect width="960" height="600" fill="#0d1117" rx="8" />
  <text x="480" y="24" font-family="system-ui, -apple-system, sans-serif" font-size="13" fill="#8b949e" text-anchor="middle" font-weight="500">Repo Relationship Graph &#x2014; Pairwise Topic &amp; Language Similarity</text>
  <line x1="50" y1="550" x2="910" y2="550" stroke="#484f58" stroke-width="0.5" opacity="0.5" />
  <text x="50" y="570" font-family="system-ui, -apple-system, sans-serif" font-size="9" fill="#8b949e" opacity="0.6">Updated daily by GitHub Actions</text>
  <text x="50" y="588" font-family="system-ui, -apple-system, sans-serif" font-size="9" fill="#8b949e" opacity="0.6">networkx spring_layout · Jaccard similarity &gt; 0.15</text>
  <text x="910" y="570" font-family="system-ui, -apple-system, sans-serif" font-size="9" fill="#8b949e" text-anchor="end" opacity="0.6">54 repos · 213 edges</text>
  <line x1="641.1" y1="315.3" x2="595.2" y2="306.3" stroke="#6e7681" stroke-width="2.0" opacity="0.80" />
  <line x1="641.1" y1="315.3" x2="551.4" y2="298.6" stroke="#6e7681" stroke-width="1.1" opacity="0.28" />
  <line x1="641.1" y1="315.3" x2="628.5" y2="332.1" stroke="#6e7681" stroke-width="1.0" opacity="0.25" />
  <line x1="641.1" y1="315.3" x2="689.2" y2="345.4" stroke="#6e7681" stroke-width="0.9" opacity="0.21" />
  <line x1="641.1" y1="315.3" x2="704.3" y2="331.3" stroke="#6e7681" stroke-width="0.9" opacity="0.20" />
  <line x1="641.1" y1="315.3" x2="679.2" y2="329.9" stroke="#6e7681" stroke-width="1.0" opacity="0.24" />
  <line x1="641.1" y1="315.3" x2="722.1" y2="327.8" stroke="#6e7681" stroke-width="0.9" opacity="0.17" />
  <line x1="641.1" y1="315.3" x2="702.2" y2="322.0" stroke="#6e7681" stroke-width="0.9" opacity="0.20" />
  <line x1="641.1" y1="315.3" x2="700.4" y2="313.4" stroke="#6e7681" stroke-width="0.9" opacity="0.17" />
  <line x1="641.1" y1="315.3" x2="659.9" y2="309.1" stroke="#6e7681" stroke-width="1.5" opacity="0.55" />
  <line x1="641.1" y1="315.3" x2="761.2" y2="320.2" stroke="#6e7681" stroke-width="1.0" opacity="0.22" />
  <line x1="595.2" y1="306.3" x2="551.4" y2="298.6" stroke="#6e7681" stroke-width="1.1" opacity="0.31" />
  <line x1="595.2" y1="306.3" x2="628.5" y2="332.1" stroke="#6e7681" stroke-width="0.9" opacity="0.17" />
  <line x1="595.2" y1="306.3" x2="659.9" y2="309.1" stroke="#6e7681" stroke-width="1.2" opacity="0.37" />
  <line x1="628.5" y1="332.1" x2="645.1" y2="358.1" stroke="#6e7681" stroke-width="1.2" opacity="0.38" />
  <line x1="628.5" y1="332.1" x2="689.2" y2="345.4" stroke="#6e7681" stroke-width="0.9" opacity="0.19" />
  <line x1="628.5" y1="332.1" x2="704.3" y2="331.3" stroke="#6e7681" stroke-width="0.9" opacity="0.18" />
  <line x1="628.5" y1="332.1" x2="679.2" y2="329.9" stroke="#6e7681" stroke-width="0.9" opacity="0.21" />
  <line x1="628.5" y1="332.1" x2="702.2" y2="322.0" stroke="#6e7681" stroke-width="0.9" opacity="0.18" />
  <line x1="628.5" y1="332.1" x2="659.9" y2="309.1" stroke="#6e7681" stroke-width="1.0" opacity="0.24" />
  <line x1="645.1" y1="358.1" x2="689.2" y2="345.4" stroke="#6e7681" stroke-width="1.2" opacity="0.34" />
  <line x1="645.1" y1="358.1" x2="704.3" y2="331.3" stroke="#6e7681" stroke-width="0.9" opacity="0.18" />
  <line x1="645.1" y1="358.1" x2="668.3" y2="377.2" stroke="#6e7681" stroke-width="1.0" opacity="0.25" />
  <line x1="645.1" y1="358.1" x2="727.2" y2="356.9" stroke="#6e7681" stroke-width="0.9" opacity="0.20" />
  <line x1="645.1" y1="358.1" x2="698.7" y2="367.4" stroke="#6e7681" stroke-width="1.0" opacity="0.22" />
  <line x1="689.2" y1="345.4" x2="704.3" y2="331.3" stroke="#6e7681" stroke-width="1.1" opacity="0.29" />
  <line x1="689.2" y1="345.4" x2="668.3" y2="377.2" stroke="#6e7681" stroke-width="1.2" opacity="0.34" />
  <line x1="689.2" y1="345.4" x2="679.2" y2="329.9" stroke="#6e7681" stroke-width="1.1" opacity="0.30" />
  <line x1="689.2" y1="345.4" x2="722.1" y2="327.8" stroke="#6e7681" stroke-width="0.9" opacity="0.20" />
  <line x1="689.2" y1="345.4" x2="702.2" y2="322.0" stroke="#6e7681" stroke-width="1.0" opacity="0.22" />
  <line x1="689.2" y1="345.4" x2="700.4" y2="313.4" stroke="#6e7681" stroke-width="0.9" opacity="0.20" />
  <line x1="689.2" y1="345.4" x2="659.9" y2="309.1" stroke="#6e7681" stroke-width="0.9" opacity="0.19" />
  <line x1="689.2" y1="345.4" x2="727.2" y2="356.9" stroke="#6e7681" stroke-width="1.2" opacity="0.37" />
  <line x1="689.2" y1="345.4" x2="698.7" y2="367.4" stroke="#6e7681" stroke-width="1.2" opacity="0.37" />
  <line x1="689.2" y1="345.4" x2="705.0" y2="355.9" stroke="#6e7681" stroke-width="1.1" opacity="0.29" />
  <line x1="689.2" y1="345.4" x2="754.6" y2="349.4" stroke="#6e7681" stroke-width="1.0" opacity="0.22" />
  <line x1="689.2" y1="345.4" x2="746.8" y2="342.7" stroke="#6e7681" stroke-width="1.2" opacity="0.34" />
  <line x1="689.2" y1="345.4" x2="748.9" y2="356.2" stroke="#6e7681" stroke-width="1.0" opacity="0.24" />
  <line x1="689.2" y1="345.4" x2="757.0" y2="336.3" stroke="#6e7681" stroke-width="1.1" opacity="0.29" />
  <line x1="689.2" y1="345.4" x2="736.1" y2="364.0" stroke="#6e7681" stroke-width="1.0" opacity="0.22" />
  <line x1="704.3" y1="331.3" x2="679.2" y2="329.9" stroke="#6e7681" stroke-width="1.0" opacity="0.24" />
  <line x1="704.3" y1="331.3" x2="742.7" y2="302.8" stroke="#6e7681" stroke-width="0.9" opacity="0.21" />
  <line x1="704.3" y1="331.3" x2="722.1" y2="327.8" stroke="#6e7681" stroke-width="1.1" opacity="0.28" />
  <line x1="704.3" y1="331.3" x2="702.2" y2="322.0" stroke="#6e7681" stroke-width="1.1" opacity="0.31" />
  <line x1="704.3" y1="331.3" x2="700.4" y2="313.4" stroke="#6e7681" stroke-width="1.1" opacity="0.28" />
  <line x1="704.3" y1="331.3" x2="659.9" y2="309.1" stroke="#6e7681" stroke-width="0.9" opacity="0.18" />
  <line x1="704.3" y1="331.3" x2="727.2" y2="356.9" stroke="#6e7681" stroke-width="0.9" opacity="0.17" />
  <line x1="704.3" y1="331.3" x2="788.4" y2="330.4" stroke="#6e7681" stroke-width="0.9" opacity="0.17" />
  <line x1="704.3" y1="331.3" x2="778.4" y2="322.9" stroke="#6e7681" stroke-width="0.9" opacity="0.20" />
  <line x1="704.3" y1="331.3" x2="746.8" y2="342.7" stroke="#6e7681" stroke-width="0.9" opacity="0.17" />
  <line x1="704.3" y1="331.3" x2="748.9" y2="356.2" stroke="#6e7681" stroke-width="0.9" opacity="0.17" />
  <line x1="704.3" y1="331.3" x2="757.0" y2="336.3" stroke="#6e7681" stroke-width="1.1" opacity="0.33" />
  <line x1="704.3" y1="331.3" x2="761.2" y2="320.2" stroke="#6e7681" stroke-width="1.0" opacity="0.24" />
  <line x1="668.3" y1="377.2" x2="727.2" y2="356.9" stroke="#6e7681" stroke-width="1.0" opacity="0.25" />
  <line x1="668.3" y1="377.2" x2="698.7" y2="367.4" stroke="#6e7681" stroke-width="1.1" opacity="0.29" />
  <line x1="668.3" y1="377.2" x2="736.1" y2="364.0" stroke="#6e7681" stroke-width="0.9" opacity="0.17" />
  <line x1="679.2" y1="329.9" x2="722.1" y2="327.8" stroke="#6e7681" stroke-width="1.0" opacity="0.22" />
  <line x1="679.2" y1="329.9" x2="702.2" y2="322.0" stroke="#6e7681" stroke-width="1.0" opacity="0.24" />
  <line x1="679.2" y1="329.9" x2="700.4" y2="313.4" stroke="#6e7681" stroke-width="1.0" opacity="0.22" />
  <line x1="679.2" y1="329.9" x2="659.9" y2="309.1" stroke="#6e7681" stroke-width="1.0" opacity="0.22" />
  <line x1="679.2" y1="329.9" x2="705.0" y2="355.9" stroke="#6e7681" stroke-width="0.9" opacity="0.19" />
  <line x1="679.2" y1="329.9" x2="746.8" y2="342.7" stroke="#6e7681" stroke-width="0.9" opacity="0.21" />
  <line x1="679.2" y1="329.9" x2="757.0" y2="336.3" stroke="#6e7681" stroke-width="1.0" opacity="0.24" />
  <line x1="679.2" y1="329.9" x2="761.2" y2="320.2" stroke="#6e7681" stroke-width="0.9" opacity="0.17" />
  <line x1="738.1" y1="379.7" x2="727.2" y2="356.9" stroke="#6e7681" stroke-width="0.9" opacity="0.18" />
  <line x1="738.1" y1="379.7" x2="698.7" y2="367.4" stroke="#6e7681" stroke-width="0.9" opacity="0.18" />
  <line x1="738.1" y1="379.7" x2="746.8" y2="342.7" stroke="#6e7681" stroke-width="0.9" opacity="0.17" />
  <line x1="738.1" y1="379.7" x2="748.9" y2="356.2" stroke="#6e7681" stroke-width="1.3" opacity="0.42" />
  <line x1="738.1" y1="379.7" x2="757.0" y2="336.3" stroke="#6e7681" stroke-width="0.9" opacity="0.19" />
  <line x1="738.1" y1="379.7" x2="736.1" y2="364.0" stroke="#6e7681" stroke-width="0.9" opacity="0.21" />
  <line x1="742.7" y1="302.8" x2="778.4" y2="322.9" stroke="#6e7681" stroke-width="0.9" opacity="0.18" />
  <line x1="742.7" y1="302.8" x2="757.0" y2="336.3" stroke="#6e7681" stroke-width="1.1" opacity="0.30" />
  <line x1="742.7" y1="302.8" x2="761.2" y2="320.2" stroke="#6e7681" stroke-width="1.0" opacity="0.22" />
  <line x1="722.1" y1="327.8" x2="702.2" y2="322.0" stroke="#6e7681" stroke-width="1.1" opacity="0.28" />
  <line x1="722.1" y1="327.8" x2="700.4" y2="313.4" stroke="#6e7681" stroke-width="1.0" opacity="0.24" />
  <line x1="722.1" y1="327.8" x2="754.6" y2="349.4" stroke="#6e7681" stroke-width="0.9" opacity="0.19" />
  <line x1="722.1" y1="327.8" x2="792.4" y2="349.9" stroke="#6e7681" stroke-width="0.9" opacity="0.18" />
  <line x1="722.1" y1="327.8" x2="778.4" y2="322.9" stroke="#6e7681" stroke-width="0.9" opacity="0.17" />
  <line x1="722.1" y1="327.8" x2="757.0" y2="336.3" stroke="#6e7681" stroke-width="0.9" opacity="0.17" />
  <line x1="722.1" y1="327.8" x2="761.2" y2="320.2" stroke="#6e7681" stroke-width="0.9" opacity="0.20" />
  <line x1="702.2" y1="322.0" x2="700.4" y2="313.4" stroke="#6e7681" stroke-width="1.1" opacity="0.28" />
  <line x1="702.2" y1="322.0" x2="659.9" y2="309.1" stroke="#6e7681" stroke-width="0.9" opacity="0.18" />
  <line x1="702.2" y1="322.0" x2="788.4" y2="330.4" stroke="#6e7681" stroke-width="0.9" opacity="0.17" />
  <line x1="702.2" y1="322.0" x2="778.4" y2="322.9" stroke="#6e7681" stroke-width="0.9" opacity="0.20" />
  <line x1="702.2" y1="322.0" x2="746.8" y2="342.7" stroke="#6e7681" stroke-width="0.9" opacity="0.17" />
  <line x1="702.2" y1="322.0" x2="757.0" y2="336.3" stroke="#6e7681" stroke-width="0.9" opacity="0.20" />
  <line x1="702.2" y1="322.0" x2="761.2" y2="320.2" stroke="#6e7681" stroke-width="1.0" opacity="0.24" />
  <line x1="700.4" y1="313.4" x2="778.4" y2="322.9" stroke="#6e7681" stroke-width="0.9" opacity="0.17" />
  <line x1="700.4" y1="313.4" x2="757.0" y2="336.3" stroke="#6e7681" stroke-width="0.9" opacity="0.17" />
  <line x1="700.4" y1="313.4" x2="761.2" y2="320.2" stroke="#6e7681" stroke-width="0.9" opacity="0.20" />
  <line x1="659.9" y1="309.1" x2="722.2" y2="280.9" stroke="#6e7681" stroke-width="1.0" opacity="0.22" />
  <line x1="659.9" y1="309.1" x2="761.2" y2="320.2" stroke="#6e7681" stroke-width="0.9" opacity="0.18" />
  <line x1="910.0" y1="280.6" x2="832.9" y2="298.8" stroke="#6e7681" stroke-width="1.3" opacity="0.44" />
  <line x1="910.0" y1="280.6" x2="907.4" y2="297.2" stroke="#6e7681" stroke-width="0.9" opacity="0.18" />
  <line x1="832.9" y1="298.8" x2="828.0" y2="318.9" stroke="#6e7681" stroke-width="1.1" opacity="0.31" />
  <line x1="832.9" y1="298.8" x2="788.4" y2="330.4" stroke="#6e7681" stroke-width="0.9" opacity="0.20" />
  <line x1="832.9" y1="298.8" x2="778.4" y2="322.9" stroke="#6e7681" stroke-width="1.0" opacity="0.24" />
  <line x1="832.9" y1="298.8" x2="746.8" y2="342.7" stroke="#6e7681" stroke-width="0.9" opacity="0.20" />
  <line x1="832.9" y1="298.8" x2="757.0" y2="336.3" stroke="#6e7681" stroke-width="1.0" opacity="0.24" />
  <line x1="832.9" y1="298.8" x2="812.1" y2="338.4" stroke="#6e7681" stroke-width="0.9" opacity="0.18" />
  <line x1="832.9" y1="298.8" x2="859.2" y2="214.5" stroke="#6e7681" stroke-width="0.9" opacity="0.17" />
  <line x1="832.9" y1="298.8" x2="834.8" y2="311.4" stroke="#6e7681" stroke-width="1.1" opacity="0.31" />
  <line x1="832.9" y1="298.8" x2="907.4" y2="297.2" stroke="#6e7681" stroke-width="1.1" opacity="0.30" />
  <line x1="832.9" y1="298.8" x2="761.2" y2="320.2" stroke="#6e7681" stroke-width="1.1" opacity="0.31" />
  <line x1="589.9" y1="50.0" x2="599.2" y2="63.9" stroke="#6e7681" stroke-width="1.6" opacity="0.60" />
  <line x1="536.1" y1="390.1" x2="698.7" y2="367.4" stroke="#6e7681" stroke-width="0.9" opacity="0.18" />
  <line x1="536.1" y1="390.1" x2="430.9" y2="389.9" stroke="#6e7681" stroke-width="1.1" opacity="0.28" />
  <line x1="777.4" y1="362.1" x2="727.2" y2="356.9" stroke="#6e7681" stroke-width="0.9" opacity="0.17" />
  <line x1="777.4" y1="362.1" x2="698.7" y2="367.4" stroke="#6e7681" stroke-width="0.9" opacity="0.18" />
  <line x1="777.4" y1="362.1" x2="754.6" y2="349.4" stroke="#6e7681" stroke-width="1.0" opacity="0.22" />
  <line x1="777.4" y1="362.1" x2="746.8" y2="342.7" stroke="#6e7681" stroke-width="1.1" opacity="0.28" />
  <line x1="777.4" y1="362.1" x2="748.9" y2="356.2" stroke="#6e7681" stroke-width="1.1" opacity="0.32" />
  <line x1="777.4" y1="362.1" x2="757.0" y2="336.3" stroke="#6e7681" stroke-width="0.9" opacity="0.20" />
  <line x1="777.4" y1="362.1" x2="736.1" y2="364.0" stroke="#6e7681" stroke-width="1.0" opacity="0.22" />
  <line x1="777.4" y1="362.1" x2="771.1" y2="316.3" stroke="#6e7681" stroke-width="1.0" opacity="0.22" />
  <line x1="727.2" y1="356.9" x2="698.7" y2="367.4" stroke="#6e7681" stroke-width="1.3" opacity="0.42" />
  <line x1="727.2" y1="356.9" x2="757.5" y2="377.3" stroke="#6e7681" stroke-width="0.9" opacity="0.18" />
  <line x1="727.2" y1="356.9" x2="705.0" y2="355.9" stroke="#6e7681" stroke-width="1.1" opacity="0.31" />
  <line x1="727.2" y1="356.9" x2="754.6" y2="349.4" stroke="#6e7681" stroke-width="1.1" opacity="0.32" />
  <line x1="727.2" y1="356.9" x2="792.4" y2="349.9" stroke="#6e7681" stroke-width="1.0" opacity="0.23" />
  <line x1="727.2" y1="356.9" x2="746.8" y2="342.7" stroke="#6e7681" stroke-width="1.2" opacity="0.39" />
  <line x1="727.2" y1="356.9" x2="748.9" y2="356.2" stroke="#6e7681" stroke-width="1.0" opacity="0.26" />
  <line x1="727.2" y1="356.9" x2="757.0" y2="336.3" stroke="#6e7681" stroke-width="1.2" opacity="0.34" />
  <line x1="727.2" y1="356.9" x2="812.1" y2="338.4" stroke="#6e7681" stroke-width="0.9" opacity="0.19" />
  <line x1="727.2" y1="356.9" x2="736.1" y2="364.0" stroke="#6e7681" stroke-width="1.0" opacity="0.25" />
  <line x1="727.2" y1="356.9" x2="761.2" y2="320.2" stroke="#6e7681" stroke-width="0.9" opacity="0.17" />
  <line x1="698.7" y1="367.4" x2="757.5" y2="377.3" stroke="#6e7681" stroke-width="1.1" opacity="0.33" />
  <line x1="698.7" y1="367.4" x2="705.0" y2="355.9" stroke="#6e7681" stroke-width="0.9" opacity="0.21" />
  <line x1="698.7" y1="367.4" x2="754.6" y2="349.4" stroke="#6e7681" stroke-width="0.9" opacity="0.18" />
  <line x1="698.7" y1="367.4" x2="746.8" y2="342.7" stroke="#6e7681" stroke-width="1.3" opacity="0.41" />
  <line x1="698.7" y1="367.4" x2="748.9" y2="356.2" stroke="#6e7681" stroke-width="1.0" opacity="0.22" />
  <line x1="698.7" y1="367.4" x2="757.0" y2="336.3" stroke="#6e7681" stroke-width="1.1" opacity="0.31" />
  <line x1="698.7" y1="367.4" x2="736.1" y2="364.0" stroke="#6e7681" stroke-width="1.7" opacity="0.66" />
  <line x1="808.4" y1="320.8" x2="828.0" y2="318.9" stroke="#6e7681" stroke-width="1.5" opacity="0.55" />
  <line x1="808.4" y1="320.8" x2="788.4" y2="330.4" stroke="#6e7681" stroke-width="0.9" opacity="0.18" />
  <line x1="808.4" y1="320.8" x2="778.4" y2="322.9" stroke="#6e7681" stroke-width="1.1" opacity="0.28" />
  <line x1="808.4" y1="320.8" x2="746.8" y2="342.7" stroke="#6e7681" stroke-width="0.9" opacity="0.18" />
  <line x1="808.4" y1="320.8" x2="757.0" y2="336.3" stroke="#6e7681" stroke-width="1.1" opacity="0.28" />
  <line x1="808.4" y1="320.8" x2="807.9" y2="308.2" stroke="#6e7681" stroke-width="1.5" opacity="0.55" />
  <line x1="808.4" y1="320.8" x2="771.1" y2="316.3" stroke="#6e7681" stroke-width="1.2" opacity="0.37" />
  <line x1="808.4" y1="320.8" x2="834.8" y2="311.4" stroke="#6e7681" stroke-width="1.5" opacity="0.55" />
  <line x1="808.4" y1="320.8" x2="761.2" y2="320.2" stroke="#6e7681" stroke-width="1.5" opacity="0.55" />
  <line x1="828.0" y1="318.9" x2="778.4" y2="322.9" stroke="#6e7681" stroke-width="1.0" opacity="0.22" />
  <line x1="828.0" y1="318.9" x2="757.0" y2="336.3" stroke="#6e7681" stroke-width="1.0" opacity="0.22" />
  <line x1="828.0" y1="318.9" x2="807.9" y2="308.2" stroke="#6e7681" stroke-width="1.2" opacity="0.37" />
  <line x1="828.0" y1="318.9" x2="771.1" y2="316.3" stroke="#6e7681" stroke-width="1.1" opacity="0.28" />
  <line x1="828.0" y1="318.9" x2="834.8" y2="311.4" stroke="#6e7681" stroke-width="1.2" opacity="0.37" />
  <line x1="828.0" y1="318.9" x2="761.2" y2="320.2" stroke="#6e7681" stroke-width="1.2" opacity="0.37" />
  <line x1="757.5" y1="377.3" x2="746.8" y2="342.7" stroke="#6e7681" stroke-width="0.9" opacity="0.18" />
  <line x1="757.5" y1="377.3" x2="748.9" y2="356.2" stroke="#6e7681" stroke-width="0.9" opacity="0.18" />
  <line x1="757.5" y1="377.3" x2="757.0" y2="336.3" stroke="#6e7681" stroke-width="1.0" opacity="0.22" />
  <line x1="757.5" y1="377.3" x2="736.1" y2="364.0" stroke="#6e7681" stroke-width="1.3" opacity="0.41" />
  <line x1="705.0" y1="355.9" x2="754.6" y2="349.4" stroke="#6e7681" stroke-width="1.1" opacity="0.31" />
  <line x1="705.0" y1="355.9" x2="746.8" y2="342.7" stroke="#6e7681" stroke-width="1.4" opacity="0.47" />
  <line x1="705.0" y1="355.9" x2="748.9" y2="356.2" stroke="#6e7681" stroke-width="0.9" opacity="0.19" />
  <line x1="705.0" y1="355.9" x2="757.0" y2="336.3" stroke="#6e7681" stroke-width="1.0" opacity="0.22" />
  <line x1="754.6" y1="349.4" x2="792.4" y2="349.9" stroke="#6e7681" stroke-width="1.1" opacity="0.29" />
  <line x1="754.6" y1="349.4" x2="788.4" y2="330.4" stroke="#6e7681" stroke-width="0.9" opacity="0.17" />
  <line x1="754.6" y1="349.4" x2="778.4" y2="322.9" stroke="#6e7681" stroke-width="0.9" opacity="0.20" />
  <line x1="754.6" y1="349.4" x2="746.8" y2="342.7" stroke="#6e7681" stroke-width="1.3" opacity="0.40" />
  <line x1="754.6" y1="349.4" x2="748.9" y2="356.2" stroke="#6e7681" stroke-width="1.0" opacity="0.24" />
  <line x1="754.6" y1="349.4" x2="757.0" y2="336.3" stroke="#6e7681" stroke-width="0.9" opacity="0.20" />
  <line x1="754.6" y1="349.4" x2="761.2" y2="320.2" stroke="#6e7681" stroke-width="1.0" opacity="0.24" />
  <line x1="792.4" y1="349.9" x2="778.4" y2="322.9" stroke="#6e7681" stroke-width="0.9" opacity="0.18" />
  <line x1="792.4" y1="349.9" x2="748.9" y2="356.2" stroke="#6e7681" stroke-width="1.0" opacity="0.23" />
  <line x1="792.4" y1="349.9" x2="757.0" y2="336.3" stroke="#6e7681" stroke-width="0.9" opacity="0.18" />
  <line x1="792.4" y1="349.9" x2="812.1" y2="338.4" stroke="#6e7681" stroke-width="1.0" opacity="0.24" />
  <line x1="792.4" y1="349.9" x2="761.2" y2="320.2" stroke="#6e7681" stroke-width="1.0" opacity="0.22" />
  <line x1="788.4" y1="330.4" x2="778.4" y2="322.9" stroke="#6e7681" stroke-width="1.1" opacity="0.28" />
  <line x1="788.4" y1="330.4" x2="746.8" y2="342.7" stroke="#6e7681" stroke-width="1.0" opacity="0.22" />
  <line x1="788.4" y1="330.4" x2="757.0" y2="336.3" stroke="#6e7681" stroke-width="1.1" opacity="0.28" />
  <line x1="788.4" y1="330.4" x2="812.1" y2="338.4" stroke="#6e7681" stroke-width="0.9" opacity="0.20" />
  <line x1="788.4" y1="330.4" x2="761.2" y2="320.2" stroke="#6e7681" stroke-width="1.2" opacity="0.37" />
  <line x1="778.4" y1="322.9" x2="746.8" y2="342.7" stroke="#6e7681" stroke-width="1.1" opacity="0.28" />
  <line x1="778.4" y1="322.9" x2="757.0" y2="336.3" stroke="#6e7681" stroke-width="1.2" opacity="0.37" />
  <line x1="778.4" y1="322.9" x2="807.9" y2="308.2" stroke="#6e7681" stroke-width="1.0" opacity="0.22" />
  <line x1="778.4" y1="322.9" x2="812.1" y2="338.4" stroke="#6e7681" stroke-width="1.0" opacity="0.24" />
  <line x1="778.4" y1="322.9" x2="771.1" y2="316.3" stroke="#6e7681" stroke-width="0.9" opacity="0.18" />
  <line x1="778.4" y1="322.9" x2="834.8" y2="311.4" stroke="#6e7681" stroke-width="1.0" opacity="0.22" />
  <line x1="778.4" y1="322.9" x2="761.2" y2="320.2" stroke="#6e7681" stroke-width="1.5" opacity="0.55" />
  <line x1="746.8" y1="342.7" x2="748.9" y2="356.2" stroke="#6e7681" stroke-width="1.1" opacity="0.29" />
  <line x1="746.8" y1="342.7" x2="757.0" y2="336.3" stroke="#6e7681" stroke-width="1.4" opacity="0.47" />
  <line x1="746.8" y1="342.7" x2="812.1" y2="338.4" stroke="#6e7681" stroke-width="0.9" opacity="0.20" />
  <line x1="746.8" y1="342.7" x2="736.1" y2="364.0" stroke="#6e7681" stroke-width="1.1" opacity="0.31" />
  <line x1="746.8" y1="342.7" x2="771.1" y2="316.3" stroke="#6e7681" stroke-width="1.1" opacity="0.31" />
  <line x1="746.8" y1="342.7" x2="761.2" y2="320.2" stroke="#6e7681" stroke-width="1.2" opacity="0.37" />
  <line x1="748.9" y1="356.2" x2="757.0" y2="336.3" stroke="#6e7681" stroke-width="1.2" opacity="0.34" />
  <line x1="748.9" y1="356.2" x2="736.1" y2="364.0" stroke="#6e7681" stroke-width="1.0" opacity="0.25" />
  <line x1="748.9" y1="356.2" x2="771.1" y2="316.3" stroke="#6e7681" stroke-width="1.0" opacity="0.25" />
  <line x1="748.9" y1="356.2" x2="761.2" y2="320.2" stroke="#6e7681" stroke-width="0.9" opacity="0.17" />
  <line x1="757.0" y1="336.3" x2="807.9" y2="308.2" stroke="#6e7681" stroke-width="1.0" opacity="0.22" />
  <line x1="757.0" y1="336.3" x2="812.1" y2="338.4" stroke="#6e7681" stroke-width="1.0" opacity="0.24" />
  <line x1="757.0" y1="336.3" x2="736.1" y2="364.0" stroke="#6e7681" stroke-width="1.3" opacity="0.44" />
  <line x1="757.0" y1="336.3" x2="771.1" y2="316.3" stroke="#6e7681" stroke-width="1.3" opacity="0.44" />
  <line x1="757.0" y1="336.3" x2="834.8" y2="311.4" stroke="#6e7681" stroke-width="1.0" opacity="0.22" />
  <line x1="757.0" y1="336.3" x2="761.2" y2="320.2" stroke="#6e7681" stroke-width="1.5" opacity="0.55" />
  <line x1="285.7" y1="117.7" x2="245.8" y2="125.0" stroke="#6e7681" stroke-width="1.0" opacity="0.22" />
  <line x1="819.7" y1="271.7" x2="761.2" y2="320.2" stroke="#6e7681" stroke-width="1.0" opacity="0.22" />
  <line x1="807.9" y1="308.2" x2="771.1" y2="316.3" stroke="#6e7681" stroke-width="1.1" opacity="0.28" />
  <line x1="807.9" y1="308.2" x2="834.8" y2="311.4" stroke="#6e7681" stroke-width="1.2" opacity="0.37" />
  <line x1="807.9" y1="308.2" x2="761.2" y2="320.2" stroke="#6e7681" stroke-width="1.2" opacity="0.37" />
  <line x1="871.8" y1="182.1" x2="836.6" y2="173.9" stroke="#6e7681" stroke-width="1.5" opacity="0.55" />
  <line x1="871.8" y1="182.1" x2="859.2" y2="214.5" stroke="#6e7681" stroke-width="1.3" opacity="0.41" />
  <line x1="836.6" y1="173.9" x2="859.2" y2="214.5" stroke="#6e7681" stroke-width="1.0" opacity="0.24" />
  <line x1="812.1" y1="338.4" x2="761.2" y2="320.2" stroke="#6e7681" stroke-width="1.1" opacity="0.31" />
  <line x1="736.1" y1="364.0" x2="771.1" y2="316.3" stroke="#6e7681" stroke-width="1.0" opacity="0.22" />
  <line x1="771.1" y1="316.3" x2="722.2" y2="280.9" stroke="#6e7681" stroke-width="1.2" opacity="0.37" />
  <line x1="771.1" y1="316.3" x2="752.6" y2="262.3" stroke="#6e7681" stroke-width="0.9" opacity="0.18" />
  <line x1="771.1" y1="316.3" x2="834.8" y2="311.4" stroke="#6e7681" stroke-width="1.1" opacity="0.28" />
  <line x1="771.1" y1="316.3" x2="761.2" y2="320.2" stroke="#6e7681" stroke-width="1.1" opacity="0.28" />
  <line x1="722.2" y1="280.9" x2="752.6" y2="262.3" stroke="#6e7681" stroke-width="1.1" opacity="0.28" />
  <line x1="834.8" y1="311.4" x2="907.4" y2="297.2" stroke="#6e7681" stroke-width="1.1" opacity="0.31" />
  <line x1="834.8" y1="311.4" x2="761.2" y2="320.2" stroke="#6e7681" stroke-width="1.2" opacity="0.37" />
  <circle cx="641.1" cy="315.3" r="11.7" fill="#3498db" opacity="0.12" />
  <circle cx="641.1" cy="315.3" r="7.7" fill="#3498db" opacity="0.88" />
  <circle cx="595.2" cy="306.3" r="10.8" fill="#3498db" opacity="0.12" />
  <circle cx="595.2" cy="306.3" r="6.8" fill="#3498db" opacity="0.88" />
  <circle cx="551.4" cy="298.6" r="13.5" fill="#7f8c8d" opacity="0.12" />
  <circle cx="551.4" cy="298.6" r="9.5" fill="#7f8c8d" opacity="0.88" />
  <circle cx="628.5" cy="332.1" r="18.9" fill="#3498db" opacity="0.12" />
  <circle cx="628.5" cy="332.1" r="14.9" fill="#3498db" opacity="0.88" />
  <circle cx="645.1" cy="358.1" r="20" fill="#3498db" opacity="0.12" />
  <circle cx="645.1" cy="358.1" r="16" fill="#3498db" opacity="0.88" />
  <circle cx="689.2" cy="345.4" r="20" fill="#7f8c8d" opacity="0.12" />
  <circle cx="689.2" cy="345.4" r="16" fill="#7f8c8d" opacity="0.88" />
  <circle cx="704.3" cy="331.3" r="16.2" fill="#e67e22" opacity="0.12" />
  <circle cx="704.3" cy="331.3" r="12.2" fill="#e67e22" opacity="0.88" />
  <circle cx="668.3" cy="377.2" r="20" fill="#e74c3c" opacity="0.12" />
  <circle cx="668.3" cy="377.2" r="16" fill="#e74c3c" opacity="0.88" />
  <circle cx="679.2" cy="329.9" r="19.8" fill="#7f8c8d" opacity="0.12" />
  <circle cx="679.2" cy="329.9" r="15.8" fill="#7f8c8d" opacity="0.88" />
  <circle cx="738.1" cy="379.7" r="20" fill="#9b59b6" opacity="0.12" />
  <circle cx="738.1" cy="379.7" r="16" fill="#9b59b6" opacity="0.88" />
  <circle cx="742.7" cy="302.8" r="17.1" fill="#e67e22" opacity="0.12" />
  <circle cx="742.7" cy="302.8" r="13.1" fill="#e67e22" opacity="0.88" />
  <circle cx="722.1" cy="327.8" r="18.0" fill="#3498db" opacity="0.12" />
  <circle cx="722.1" cy="327.8" r="14.0" fill="#3498db" opacity="0.88" />
  <circle cx="702.2" cy="322.0" r="16.2" fill="#3498db" opacity="0.12" />
  <circle cx="702.2" cy="322.0" r="12.2" fill="#3498db" opacity="0.88" />
  <circle cx="700.4" cy="313.4" r="18.0" fill="#3498db" opacity="0.12" />
  <circle cx="700.4" cy="313.4" r="14.0" fill="#3498db" opacity="0.88" />
  <circle cx="659.9" cy="309.1" r="12.6" fill="#2ecc71" opacity="0.12" />
  <circle cx="659.9" cy="309.1" r="8.6" fill="#2ecc71" opacity="0.88" />
  <circle cx="910.0" cy="280.6" r="14.4" fill="#e74c3c" opacity="0.12" />
  <circle cx="910.0" cy="280.6" r="10.4" fill="#e74c3c" opacity="0.88" />
  <circle cx="216.4" cy="463.9" r="16.2" fill="#3498db" opacity="0.12" />
  <circle cx="216.4" cy="463.9" r="12.2" fill="#3498db" opacity="0.88" />
  <circle cx="832.9" cy="298.8" r="14.4" fill="#e74c3c" opacity="0.12" />
  <circle cx="832.9" cy="298.8" r="10.4" fill="#e74c3c" opacity="0.88" />
  <circle cx="589.9" cy="50.0" r="16.2" fill="#3498db" opacity="0.12" />
  <circle cx="589.9" cy="50.0" r="12.2" fill="#3498db" opacity="0.88" />
  <circle cx="599.2" cy="63.9" r="15.3" fill="#3498db" opacity="0.12" />
  <circle cx="599.2" cy="63.9" r="11.3" fill="#3498db" opacity="0.88" />
  <circle cx="536.1" cy="390.1" r="9.9" fill="#3498db" opacity="0.12" />
  <circle cx="536.1" cy="390.1" r="5.9" fill="#3498db" opacity="0.88" />
  <circle cx="777.4" cy="362.1" r="16.2" fill="#9b59b6" opacity="0.12" />
  <circle cx="777.4" cy="362.1" r="12.2" fill="#9b59b6" opacity="0.88" />
  <circle cx="727.2" cy="356.9" r="19.8" fill="#9b59b6" opacity="0.12" />
  <circle cx="727.2" cy="356.9" r="15.8" fill="#9b59b6" opacity="0.88" />
  <circle cx="698.7" cy="367.4" r="12.6" fill="#9b59b6" opacity="0.12" />
  <circle cx="698.7" cy="367.4" r="8.6" fill="#9b59b6" opacity="0.88" />
  <circle cx="808.4" cy="320.8" r="9" fill="#2ecc71" opacity="0.12" />
  <circle cx="808.4" cy="320.8" r="5" fill="#2ecc71" opacity="0.88" />
  <circle cx="828.0" cy="318.9" r="9.9" fill="#7f8c8d" opacity="0.12" />
  <circle cx="828.0" cy="318.9" r="5.9" fill="#7f8c8d" opacity="0.88" />
  <circle cx="757.5" cy="377.3" r="15.3" fill="#e67e22" opacity="0.12" />
  <circle cx="757.5" cy="377.3" r="11.3" fill="#e67e22" opacity="0.88" />
  <circle cx="705.0" cy="355.9" r="20" fill="#2ecc71" opacity="0.12" />
  <circle cx="705.0" cy="355.9" r="16" fill="#2ecc71" opacity="0.88" />
  <circle cx="430.9" cy="389.9" r="10.8" fill="#9b59b6" opacity="0.12" />
  <circle cx="430.9" cy="389.9" r="6.8" fill="#9b59b6" opacity="0.88" />
  <circle cx="50.0" cy="216.3" r="9" fill="#7f8c8d" opacity="0.12" />
  <circle cx="50.0" cy="216.3" r="5" fill="#7f8c8d" opacity="0.88" />
  <circle cx="754.6" cy="349.4" r="16.2" fill="#3498db" opacity="0.12" />
  <circle cx="754.6" cy="349.4" r="12.2" fill="#3498db" opacity="0.88" />
  <circle cx="792.4" cy="349.9" r="17.1" fill="#7f8c8d" opacity="0.12" />
  <circle cx="792.4" cy="349.9" r="13.1" fill="#7f8c8d" opacity="0.88" />
  <circle cx="788.4" cy="330.4" r="13.5" fill="#7f8c8d" opacity="0.12" />
  <circle cx="788.4" cy="330.4" r="9.5" fill="#7f8c8d" opacity="0.88" />
  <circle cx="114.6" cy="400.4" r="9" fill="#7f8c8d" opacity="0.12" />
  <circle cx="114.6" cy="400.4" r="5" fill="#7f8c8d" opacity="0.88" />
  <circle cx="778.4" cy="322.9" r="11.7" fill="#7f8c8d" opacity="0.12" />
  <circle cx="778.4" cy="322.9" r="7.7" fill="#7f8c8d" opacity="0.88" />
  <circle cx="746.8" cy="342.7" r="13.5" fill="#7f8c8d" opacity="0.12" />
  <circle cx="746.8" cy="342.7" r="9.5" fill="#7f8c8d" opacity="0.88" />
  <circle cx="748.9" cy="356.2" r="19.8" fill="#2ecc71" opacity="0.12" />
  <circle cx="748.9" cy="356.2" r="15.8" fill="#2ecc71" opacity="0.88" />
  <circle cx="757.0" cy="336.3" r="11.7" fill="#7f8c8d" opacity="0.12" />
  <circle cx="757.0" cy="336.3" r="7.7" fill="#7f8c8d" opacity="0.88" />
  <circle cx="285.7" cy="117.7" r="11.7" fill="#7f8c8d" opacity="0.12" />
  <circle cx="285.7" cy="117.7" r="7.7" fill="#7f8c8d" opacity="0.88" />
  <circle cx="819.7" cy="271.7" r="11.7" fill="#3498db" opacity="0.12" />
  <circle cx="819.7" cy="271.7" r="7.7" fill="#3498db" opacity="0.88" />
  <circle cx="807.9" cy="308.2" r="9.9" fill="#7f8c8d" opacity="0.12" />
  <circle cx="807.9" cy="308.2" r="5.9" fill="#7f8c8d" opacity="0.88" />
  <circle cx="871.8" cy="182.1" r="10.8" fill="#e67e22" opacity="0.12" />
  <circle cx="871.8" cy="182.1" r="6.8" fill="#e67e22" opacity="0.88" />
  <circle cx="836.6" cy="173.9" r="10.8" fill="#e67e22" opacity="0.12" />
  <circle cx="836.6" cy="173.9" r="6.8" fill="#e67e22" opacity="0.88" />
  <circle cx="812.1" cy="338.4" r="14.4" fill="#7f8c8d" opacity="0.12" />
  <circle cx="812.1" cy="338.4" r="10.4" fill="#7f8c8d" opacity="0.88" />
  <circle cx="859.2" cy="214.5" r="15.3" fill="#e67e22" opacity="0.12" />
  <circle cx="859.2" cy="214.5" r="11.3" fill="#e67e22" opacity="0.88" />
  <circle cx="245.8" cy="125.0" r="9.9" fill="#7f8c8d" opacity="0.12" />
  <circle cx="245.8" cy="125.0" r="5.9" fill="#7f8c8d" opacity="0.88" />
  <circle cx="736.1" cy="364.0" r="10.8" fill="#7f8c8d" opacity="0.12" />
  <circle cx="736.1" cy="364.0" r="6.8" fill="#7f8c8d" opacity="0.88" />
  <circle cx="771.1" cy="316.3" r="10.8" fill="#7f8c8d" opacity="0.12" />
  <circle cx="771.1" cy="316.3" r="6.8" fill="#7f8c8d" opacity="0.88" />
  <circle cx="722.2" cy="280.9" r="9" fill="#2ecc71" opacity="0.12" />
  <circle cx="722.2" cy="280.9" r="5" fill="#2ecc71" opacity="0.88" />
  <circle cx="752.6" cy="262.3" r="11.7" fill="#2ecc71" opacity="0.12" />
  <circle cx="752.6" cy="262.3" r="7.7" fill="#2ecc71" opacity="0.88" />
  <circle cx="834.8" cy="311.4" r="9.9" fill="#e74c3c" opacity="0.12" />
  <circle cx="834.8" cy="311.4" r="5.9" fill="#e74c3c" opacity="0.88" />
  <circle cx="907.4" cy="297.2" r="14.4" fill="#e74c3c" opacity="0.12" />
  <circle cx="907.4" cy="297.2" r="10.4" fill="#e74c3c" opacity="0.88" />
  <circle cx="761.2" cy="320.2" r="9.9" fill="#7f8c8d" opacity="0.12" />
  <circle cx="761.2" cy="320.2" r="5.9" fill="#7f8c8d" opacity="0.88" />
  <circle cx="360.7" cy="500.0" r="9" fill="#7f8c8d" opacity="0.12" />
  <circle cx="360.7" cy="500.0" r="5" fill="#7f8c8d" opacity="0.88" />
  <rect x="650.8" y="344.0" width="16.4" height="15" fill="#0d1117" opacity="0.75" rx="2" />
  <text x="651.8" y="355.0" font-family="system-ui, -apple-system, sans-serif" font-size="12" fill="#e6edf3" text-anchor="start">pp</text>
  <rect x="604.0" y="313.3" width="117.2" height="15" fill="#0d1117" opacity="0.75" rx="2" />
  <text x="605.0" y="324.3" font-family="system-ui, -apple-system, sans-serif" font-size="12" fill="#e6edf3" text-anchor="start">tinyland-cleanup</text>
  <rect x="562.9" y="266.6" width="88.4" height="15" fill="#0d1117" opacity="0.75" rx="2" />
  <text x="563.9" y="277.6" font-family="system-ui, -apple-system, sans-serif" font-size="12" fill="#e6edf3" text-anchor="start">waifu-mirror</text>
  <rect x="645.4" y="360.5" width="102.8" height="15" fill="#0d1117" opacity="0.75" rx="2" />
  <text x="646.4" y="371.5" font-family="system-ui, -apple-system, sans-serif" font-size="12" fill="#e6edf3" text-anchor="start">tinyland-infra</text>
  <rect x="663.1" y="446.6" width="117.2" height="15" fill="#0d1117" opacity="0.75" rx="2" />
  <text x="664.1" y="457.6" font-family="system-ui, -apple-system, sans-serif" font-size="12" fill="#e6edf3" text-anchor="start">GloriousFlywheel</text>
  <rect x="707.2" y="345.3" width="52.4" height="15" fill="#0d1117" opacity="0.75" rx="2" />
  <text x="708.2" y="356.3" font-family="system-ui, -apple-system, sans-serif" font-size="12" fill="#e6edf3" text-anchor="start">LA-Mesh</text>
  <rect x="718.5" y="261.1" width="45.2" height="15" fill="#0d1117" opacity="0.75" rx="2" />
  <text x="719.5" y="272.1" font-family="system-ui, -apple-system, sans-serif" font-size="12" fill="#e6edf3" text-anchor="start">XoxdWM</text>
  <rect x="686.3" y="477.7" width="131.6" height="15" fill="#0d1117" opacity="0.75" rx="2" />
  <text x="687.3" y="488.7" font-family="system-ui, -apple-system, sans-serif" font-size="12" fill="#e6edf3" text-anchor="start">pixelwise-research</text>
  <rect x="697.0" y="271.5" width="124.4" height="15" fill="#0d1117" opacity="0.75" rx="2" />
  <text x="698.0" y="282.5" font-family="system-ui, -apple-system, sans-serif" font-size="12" fill="#e6edf3" text-anchor="start">tinyland-huskycat</text>
  <rect x="756.1" y="415.4" width="95.6" height="15" fill="#0d1117" opacity="0.75" rx="2" />
  <text x="757.1" y="426.4" font-family="system-ui, -apple-system, sans-serif" font-size="12" fill="#e6edf3" text-anchor="start">GIS_Shortcuts</text>
  <rect x="757.8" y="182.6" width="110.0" height="15" fill="#0d1117" opacity="0.75" rx="2" />
  <text x="758.8" y="193.6" font-family="system-ui, -apple-system, sans-serif" font-size="12" fill="#e6edf3" text-anchor="start">hiberpower-ntfs</text>
  <rect x="738.1" y="236.7" width="138.8" height="15" fill="#0d1117" opacity="0.75" rx="2" />
  <text x="739.1" y="247.7" font-family="system-ui, -apple-system, sans-serif" font-size="12" fill="#e6edf3" text-anchor="start">Ansible-DAG-Harness</text>
  <rect x="716.4" y="374.9" width="66.8" height="15" fill="#0d1117" opacity="0.75" rx="2" />
  <text x="717.4" y="385.9" font-family="system-ui, -apple-system, sans-serif" font-size="12" fill="#e6edf3" text-anchor="start">betterkvm</text>
  <rect x="716.4" y="220.4" width="95.6" height="15" fill="#0d1117" opacity="0.75" rx="2" />
  <text x="717.4" y="231.4" font-family="system-ui, -apple-system, sans-serif" font-size="12" fill="#e6edf3" text-anchor="start">DarwinNicUtil</text>
  <rect x="670.5" y="284.9" width="59.6" height="15" fill="#0d1117" opacity="0.75" rx="2" />
  <text x="671.5" y="295.9" font-family="system-ui, -apple-system, sans-serif" font-size="12" fill="#e6edf3" text-anchor="start">gnucashr</text>
  <rect x="830.8" y="204.3" width="66.8" height="15" fill="#0d1117" opacity="0.75" rx="2" />
  <text x="896.6" y="215.3" font-family="system-ui, -apple-system, sans-serif" font-size="12" fill="#e6edf3" text-anchor="end">quickchpl</text>
  <rect x="230.6" y="457.1" width="131.6" height="15" fill="#0d1117" opacity="0.75" rx="2" />
  <text x="231.6" y="468.1" font-family="system-ui, -apple-system, sans-serif" font-size="12" fill="#e6edf3" text-anchor="start">tinyscale-mikrotik</text>
  <rect x="760.9" y="348.0" width="59.6" height="15" fill="#0d1117" opacity="0.75" rx="2" />
  <text x="819.5" y="359.0" font-family="system-ui, -apple-system, sans-serif" font-size="12" fill="#e6edf3" text-anchor="end">aoc-2025</text>
  <rect x="604.1" y="41.7" width="66.8" height="15" fill="#0d1117" opacity="0.75" rx="2" />
  <text x="605.1" y="52.7" font-family="system-ui, -apple-system, sans-serif" font-size="12" fill="#e6edf3" text-anchor="start">searchies</text>
  <rect x="612.5" y="58.7" width="59.6" height="15" fill="#0d1117" opacity="0.75" rx="2" />
  <text x="613.5" y="69.7" font-family="system-ui, -apple-system, sans-serif" font-size="12" fill="#e6edf3" text-anchor="start">ts-caddy</text>
  <rect x="544.0" y="391.7" width="66.8" height="15" fill="#0d1117" opacity="0.75" rx="2" />
  <text x="545.0" y="402.7" font-family="system-ui, -apple-system, sans-serif" font-size="12" fill="#e6edf3" text-anchor="start">HCI-notes</text>
  <rect x="791.6" y="385.5" width="88.4" height="15" fill="#0d1117" opacity="0.75" rx="2" />
  <text x="792.6" y="396.5" font-family="system-ui, -apple-system, sans-serif" font-size="12" fill="#e6edf3" text-anchor="start">FastPhotoAPI</text>
  <rect x="745.0" y="318.0" width="81.2" height="15" fill="#0d1117" opacity="0.75" rx="2" />
  <text x="746.0" y="329.0" font-family="system-ui, -apple-system, sans-serif" font-size="12" fill="#e6edf3" text-anchor="start">timberbuddy</text>
  <rect x="709.3" y="300.8" width="81.2" height="15" fill="#0d1117" opacity="0.75" rx="2" />
  <text x="710.3" y="311.8" font-family="system-ui, -apple-system, sans-serif" font-size="12" fill="#e6edf3" text-anchor="start">tetrahedron</text>
  <rect x="705.8" y="231.9" width="95.6" height="15" fill="#0d1117" opacity="0.75" rx="2" />
  <text x="800.4" y="242.9" font-family="system-ui, -apple-system, sans-serif" font-size="12" fill="#e6edf3" text-anchor="end">AccuWixReport</text>
  <rect x="724.5" y="191.2" width="95.6" height="15" fill="#0d1117" opacity="0.75" rx="2" />
  <text x="819.1" y="202.2" font-family="system-ui, -apple-system, sans-serif" font-size="12" fill="#e6edf3" text-anchor="end">Jess-AOC-2023</text>
  <rect x="770.8" y="506.5" width="81.2" height="15" fill="#0d1117" opacity="0.75" rx="2" />
  <text x="771.8" y="517.5" font-family="system-ui, -apple-system, sans-serif" font-size="12" fill="#e6edf3" text-anchor="start">TurkeyProbe</text>
  <rect x="723.0" y="438.3" width="153.2" height="15" fill="#0d1117" opacity="0.75" rx="2" />
  <text x="724.0" y="449.3" font-family="system-ui, -apple-system, sans-serif" font-size="12" fill="#e6edf3" text-anchor="start">MerlinAI-Interpreters</text>
  <rect x="439.7" y="374.7" width="110.0" height="15" fill="#0d1117" opacity="0.75" rx="2" />
  <text x="440.7" y="385.7" font-family="system-ui, -apple-system, sans-serif" font-size="12" fill="#e6edf3" text-anchor="start">IntroTypeScript</text>
  <rect x="57.0" y="209.5" width="110.0" height="15" fill="#0d1117" opacity="0.75" rx="2" />
  <text x="58.0" y="220.5" font-family="system-ui, -apple-system, sans-serif" font-size="12" fill="#e6edf3" text-anchor="start">IG-3DP-Profiles</text>
  <rect x="768.8" y="460.7" width="66.8" height="15" fill="#0d1117" opacity="0.75" rx="2" />
  <text x="769.8" y="471.7" font-family="system-ui, -apple-system, sans-serif" font-size="12" fill="#e6edf3" text-anchor="start">DLA-Flask</text>
  <rect x="739.3" y="387.6" width="38.0" height="15" fill="#0d1117" opacity="0.75" rx="2" />
  <text x="776.3" y="398.6" font-family="system-ui, -apple-system, sans-serif" font-size="12" fill="#e6edf3" text-anchor="end">USBoN</text>
  <rect x="799.9" y="299.2" width="203.6" height="15" fill="#0d1117" opacity="0.75" rx="2" />
  <text x="800.9" y="310.2" font-family="system-ui, -apple-system, sans-serif" font-size="12" fill="#e6edf3" text-anchor="start">chrome-remote-desktop-budgie</text>
  <rect x="121.6" y="393.6" width="124.4" height="15" fill="#0d1117" opacity="0.75" rx="2" />
  <text x="122.6" y="404.6" font-family="system-ui, -apple-system, sans-serif" font-size="12" fill="#e6edf3" text-anchor="start">OminousBeepingApp</text>
  <rect x="788.1" y="377.3" width="138.8" height="15" fill="#0d1117" opacity="0.75" rx="2" />
  <text x="789.1" y="388.3" font-family="system-ui, -apple-system, sans-serif" font-size="12" fill="#e6edf3" text-anchor="start">mo-image-identifier</text>
  <rect x="758.3" y="313.1" width="196.4" height="15" fill="#0d1117" opacity="0.75" rx="2" />
  <text x="759.3" y="324.1" font-family="system-ui, -apple-system, sans-serif" font-size="12" fill="#e6edf3" text-anchor="start">squirrel-leaflet-annotation</text>
  <rect x="766.7" y="421.3" width="74.0" height="15" fill="#0d1117" opacity="0.75" rx="2" />
  <text x="767.7" y="432.3" font-family="system-ui, -apple-system, sans-serif" font-size="12" fill="#e6edf3" text-anchor="start">Shiny-Apps</text>
  <rect x="766.7" y="345.8" width="138.8" height="15" fill="#0d1117" opacity="0.75" rx="2" />
  <text x="767.7" y="356.8" font-family="system-ui, -apple-system, sans-serif" font-size="12" fill="#e6edf3" text-anchor="start">bbox-jest-puppeteer</text>
  <rect x="295.4" y="106.1" width="88.4" height="15" fill="#0d1117" opacity="0.75" rx="2" />
  <text x="296.4" y="117.1" font-family="system-ui, -apple-system, sans-serif" font-size="12" fill="#e6edf3" text-anchor="start">DoverDisplay</text>
  <rect x="728.8" y="208.2" width="81.2" height="15" fill="#0d1117" opacity="0.75" rx="2" />
  <text x="809.0" y="219.2" font-family="system-ui, -apple-system, sans-serif" font-size="12" fill="#e6edf3" text-anchor="end">LeafletSync</text>
  <rect x="632.4" y="328.8" width="167.6" height="15" fill="#0d1117" opacity="0.75" rx="2" />
  <text x="799.0" y="339.8" font-family="system-ui, -apple-system, sans-serif" font-size="12" fill="#e6edf3" text-anchor="end">misc-roi-distance-notes</text>
  <rect x="724.2" y="136.7" width="138.8" height="15" fill="#0d1117" opacity="0.75" rx="2" />
  <text x="862.0" y="147.7" font-family="system-ui, -apple-system, sans-serif" font-size="12" fill="#e6edf3" text-anchor="end">Arduino_Coil_Winder</text>
  <rect x="797.0" y="123.7" width="30.8" height="15" fill="#0d1117" opacity="0.75" rx="2" />
  <text x="826.8" y="134.7" font-family="system-ui, -apple-system, sans-serif" font-size="12" fill="#e6edf3" text-anchor="end">momo</text>
  <rect x="761.7" y="404.6" width="38.0" height="15" fill="#0d1117" opacity="0.75" rx="2" />
  <text x="798.7" y="415.6" font-family="system-ui, -apple-system, sans-serif" font-size="12" fill="#e6edf3" text-anchor="end">clipi</text>
  <rect x="735.9" y="151.1" width="110.0" height="15" fill="#0d1117" opacity="0.75" rx="2" />
  <text x="844.9" y="162.1" font-family="system-ui, -apple-system, sans-serif" font-size="12" fill="#e6edf3" text-anchor="end">AeroTaz5_hotfix</text>
  <rect x="253.7" y="123.1" width="110.0" height="15" fill="#0d1117" opacity="0.75" rx="2" />
  <text x="254.7" y="134.1" font-family="system-ui, -apple-system, sans-serif" font-size="12" fill="#e6edf3" text-anchor="start">Funmat-HT-Notes</text>
  <rect x="744.9" y="491.8" width="81.2" height="15" fill="#0d1117" opacity="0.75" rx="2" />
  <text x="745.9" y="502.8" font-family="system-ui, -apple-system, sans-serif" font-size="12" fill="#e6edf3" text-anchor="start">static-site</text>
  <rect x="779.9" y="264.2" width="95.6" height="15" fill="#0d1117" opacity="0.75" rx="2" />
  <text x="780.9" y="275.2" font-family="system-ui, -apple-system, sans-serif" font-size="12" fill="#e6edf3" text-anchor="start">Flask-Manager</text>
  <rect x="729.2" y="247.2" width="110.0" height="15" fill="#0d1117" opacity="0.75" rx="2" />
  <text x="730.2" y="258.2" font-family="system-ui, -apple-system, sans-serif" font-size="12" fill="#e6edf3" text-anchor="start">FieldProcessing</text>
  <rect x="762.3" y="168.1" width="81.2" height="15" fill="#0d1117" opacity="0.75" rx="2" />
  <text x="763.3" y="179.1" font-family="system-ui, -apple-system, sans-serif" font-size="12" fill="#e6edf3" text-anchor="start">rJDKmanager</text>
  <rect x="767.3" y="282.2" width="59.6" height="15" fill="#0d1117" opacity="0.75" rx="2" />
  <text x="825.9" y="293.2" font-family="system-ui, -apple-system, sans-serif" font-size="12" fill="#e6edf3" text-anchor="end">tagnotes</text>
  <rect x="813.8" y="219.7" width="81.2" height="15" fill="#0d1117" opacity="0.75" rx="2" />
  <text x="894.0" y="230.7" font-family="system-ui, -apple-system, sans-serif" font-size="12" fill="#e6edf3" text-anchor="end">ChapelTests</text>
  <rect x="769.1" y="360.3" width="88.4" height="15" fill="#0d1117" opacity="0.75" rx="2" />
  <text x="770.1" y="371.3" font-family="system-ui, -apple-system, sans-serif" font-size="12" fill="#e6edf3" text-anchor="start">Xfinity-WiFi</text>
  <rect x="367.7" y="493.2" width="66.8" height="15" fill="#0d1117" opacity="0.75" rx="2" />
  <text x="368.7" y="504.2" font-family="system-ui, -apple-system, sans-serif" font-size="12" fill="#e6edf3" text-anchor="start">home-wiki</text>
  <rect x="793" y="36" width="155" height="120" rx="6" fill="#161b22" stroke="#30363d" stroke-width="1" opacity="0.95" />
  <circle cx="810" cy="52" r="5" fill="#e74c3c" opacity="0.88" />
  <text x="820" y="56" font-family="system-ui, -apple-system, sans-serif" font-size="10" fill="#e6edf3">Languages &amp; Compilers</text>
  <circle cx="810" cy="69" r="5" fill="#3498db" opacity="0.88" />
  <text x="820" y="73" font-family="system-ui, -apple-system, sans-serif" font-size="10" fill="#e6edf3">Infrastructure &amp; DevOps</text>
  <circle cx="810" cy="86" r="5" fill="#e67e22" opacity="0.88" />
  <text x="820" y="90" font-family="system-ui, -apple-system, sans-serif" font-size="10" fill="#e6edf3">Hardware &amp; Maker</text>
  <circle cx="810" cy="103" r="5" fill="#2ecc71" opacity="0.88" />
  <text x="820" y="107" font-family="system-ui, -apple-system, sans-serif" font-size="10" fill="#e6edf3">ML &amp; Data</text>
  <circle cx="810" cy="120" r="5" fill="#9b59b6" opacity="0.88" />
  <text x="820" y="124" font-family="system-ui, -apple-system, sans-serif" font-size="10" fill="#e6edf3">Web &amp; Apps</text>
  <circle cx="810" cy="137" r="5" fill="#7f8c8d" opacity="0.88" />
  <text x="820" y="141" font-family="system-ui, -apple-system, sans-serif" font-size="10" fill="#e6edf3">Other</text>
  <text x="870" y="150" font-family="system-ui, -apple-system, sans-serif" font-size="8" fill="#8b949e" text-anchor="middle">54 repos · 213 edges</text>
</svg>