<svg xmlns="http://www.w3.org/2000/svg" width="960" height="600" viewBox="0 0 960 600">
  <rect width="960" height="600" fill="#0d1117" rx="8" />
  <text x="480" y="24" font-family="system-ui, -apple-system, sans-serif" font-size="13" fill="#8b949e" text-anchor="middle" font-weight="500">Repo Relationship Graph &#x2014; Pairwise Topic &amp; Language Similarity</text>
  <line x1="50" y1="550" x2="910" y2="550" stroke="#484f58" stroke-width="0.5" opacity="0.5" />
  <text x="50" y="570" font-family="system-ui, -apple-system, sans-serif" font-size="9" fill="#8b949e" opacity="0.6">Updated daily by GitHub Actions</text>
  <text x="50" y="588" font-family="system-ui, -apple-system, sans-serif" font-size="9" fill="#8b949e" opacity="0.6">networkx spring_layout · Jaccard similarity &gt; 0.15</text>
  <text x="910" y="570" font-family="system-ui, -apple-system, sans-serif" font-size="9" fill="#8b949e" text-anchor="end" opacity="0.6">57 repos · 226 edges</text>
  <line x1="410.6" y1="207.1" x2="415.3" y2="219.6" stroke="#6e7681" stroke-width="1.0" opacity="0.24" />
  <line x1="410.6" y1="207.1" x2="356.3" y2="203.0" stroke="#6e7681" stroke-width="1.0" opacity="0.22" />
  <line x1="410.6" y1="207.1" x2="395.7" y2="188.6" stroke="#6e7681" stroke-width="1.0" opacity="0.22" />
  <line x1="410.6" y1="207.1" x2="372.4" y2="222.3" stroke="#6e7681" stroke-width="0.9" opacity="0.21" />
  <line x1="410.6" y1="207.1" x2="374.8" y2="196.3" stroke="#6e7681" stroke-width="0.9" opacity="0.21" />
  <line x1="410.6" y1="207.1" x2="435.9" y2="196.9" stroke="#6e7681" stroke-width="1.1" opacity="0.30" />
  <line x1="410.6" y1="207.1" x2="423.5" y2="214.5" stroke="#6e7681" stroke-width="1.0" opacity="0.24" />
  <line x1="410.6" y1="207.1" x2="407.9" y2="227.0" stroke="#6e7681" stroke-width="1.0" opacity="0.22" />
  <line x1="410.6" y1="207.1" x2="415.7" y2="234.6" stroke="#6e7681" stroke-width="1.0" opacity="0.22" />
  <line x1="410.6" y1="207.1" x2="458.3" y2="188.1" stroke="#6e7681" stroke-width="0.9" opacity="0.19" />
  <line x1="410.6" y1="207.1" x2="484.3" y2="209.3" stroke="#6e7681" stroke-width="0.9" opacity="0.21" />
  <line x1="410.6" y1="207.1" x2="482.0" y2="217.4" stroke="#6e7681" stroke-width="1.0" opacity="0.24" />
  <line x1="410.6" y1="207.1" x2="464.7" y2="224.2" stroke="#6e7681" stroke-width="0.9" opacity="0.17" />
  <line x1="415.3" y1="219.6" x2="356.3" y2="203.0" stroke="#6e7681" stroke-width="0.9" opacity="0.18" />
  <line x1="415.3" y1="219.6" x2="395.7" y2="188.6" stroke="#6e7681" stroke-width="0.9" opacity="0.18" />
  <line x1="415.3" y1="219.6" x2="372.4" y2="222.3" stroke="#6e7681" stroke-width="1.0" opacity="0.26" />
  <line x1="415.3" y1="219.6" x2="374.8" y2="196.3" stroke="#6e7681" stroke-width="0.9" opacity="0.18" />
  <line x1="415.3" y1="219.6" x2="435.9" y2="196.9" stroke="#6e7681" stroke-width="1.0" opacity="0.22" />
  <line x1="415.3" y1="219.6" x2="423.5" y2="214.5" stroke="#6e7681" stroke-width="1.1" opacity="0.31" />
  <line x1="415.3" y1="219.6" x2="407.9" y2="227.0" stroke="#6e7681" stroke-width="1.1" opacity="0.28" />
  <line x1="415.3" y1="219.6" x2="415.7" y2="234.6" stroke="#6e7681" stroke-width="1.1" opacity="0.28" />
  <line x1="415.3" y1="219.6" x2="469.2" y2="242.8" stroke="#6e7681" stroke-width="0.9" opacity="0.17" />
  <line x1="415.3" y1="219.6" x2="478.7" y2="234.7" stroke="#6e7681" stroke-width="0.9" opacity="0.20" />
  <line x1="415.3" y1="219.6" x2="484.3" y2="209.3" stroke="#6e7681" stroke-width="0.9" opacity="0.17" />
  <line x1="415.3" y1="219.6" x2="482.0" y2="217.4" stroke="#6e7681" stroke-width="0.9" opacity="0.20" />
  <line x1="415.3" y1="219.6" x2="464.7" y2="224.2" stroke="#6e7681" stroke-width="1.0" opacity="0.24" />
  <line x1="307.2" y1="181.8" x2="356.3" y2="203.0" stroke="#6e7681" stroke-width="1.1" opacity="0.33" />
  <line x1="307.2" y1="181.8" x2="395.7" y2="188.6" stroke="#6e7681" stroke-width="0.9" opacity="0.20" />
  <line x1="307.2" y1="181.8" x2="287.1" y2="203.0" stroke="#6e7681" stroke-width="0.9" opacity="0.18" />
  <line x1="421.6" y1="175.3" x2="374.8" y2="196.3" stroke="#6e7681" stroke-width="1.2" opacity="0.38" />
  <line x1="421.6" y1="175.3" x2="435.9" y2="196.9" stroke="#6e7681" stroke-width="1.2" opacity="0.34" />
  <line x1="421.6" y1="175.3" x2="423.5" y2="214.5" stroke="#6e7681" stroke-width="0.9" opacity="0.18" />
  <line x1="421.6" y1="175.3" x2="455.2" y2="163.1" stroke="#6e7681" stroke-width="1.0" opacity="0.25" />
  <line x1="421.6" y1="175.3" x2="473.1" y2="195.7" stroke="#6e7681" stroke-width="0.9" opacity="0.20" />
  <line x1="421.6" y1="175.3" x2="493.4" y2="179.0" stroke="#6e7681" stroke-width="1.0" opacity="0.22" />
  <line x1="297.2" y1="224.4" x2="356.3" y2="203.0" stroke="#6e7681" stroke-width="0.9" opacity="0.18" />
  <line x1="297.2" y1="224.4" x2="372.4" y2="222.3" stroke="#6e7681" stroke-width="1.2" opacity="0.34" />
  <line x1="297.2" y1="224.4" x2="287.1" y2="203.0" stroke="#6e7681" stroke-width="0.9" opacity="0.17" />
  <line x1="356.3" y1="203.0" x2="395.7" y2="188.6" stroke="#6e7681" stroke-width="1.4" opacity="0.47" />
  <line x1="356.3" y1="203.0" x2="287.1" y2="203.0" stroke="#6e7681" stroke-width="1.3" opacity="0.41" />
  <line x1="356.3" y1="203.0" x2="374.8" y2="196.3" stroke="#6e7681" stroke-width="1.0" opacity="0.24" />
  <line x1="356.3" y1="203.0" x2="435.9" y2="196.9" stroke="#6e7681" stroke-width="0.9" opacity="0.19" />
  <line x1="356.3" y1="203.0" x2="423.5" y2="214.5" stroke="#6e7681" stroke-width="0.9" opacity="0.18" />
  <line x1="356.3" y1="203.0" x2="464.7" y2="224.2" stroke="#6e7681" stroke-width="0.9" opacity="0.18" />
  <line x1="395.7" y1="188.6" x2="374.8" y2="196.3" stroke="#6e7681" stroke-width="1.0" opacity="0.24" />
  <line x1="395.7" y1="188.6" x2="435.9" y2="196.9" stroke="#6e7681" stroke-width="0.9" opacity="0.19" />
  <line x1="395.7" y1="188.6" x2="423.5" y2="214.5" stroke="#6e7681" stroke-width="0.9" opacity="0.18" />
  <line x1="395.7" y1="188.6" x2="497.2" y2="162.5" stroke="#6e7681" stroke-width="1.0" opacity="0.22" />
  <line x1="395.7" y1="188.6" x2="464.7" y2="224.2" stroke="#6e7681" stroke-width="0.9" opacity="0.18" />
  <line x1="372.4" y1="222.3" x2="337.9" y2="219.1" stroke="#6e7681" stroke-width="0.9" opacity="0.19" />
  <line x1="372.4" y1="222.3" x2="374.8" y2="196.3" stroke="#6e7681" stroke-width="1.0" opacity="0.22" />
  <line x1="372.4" y1="222.3" x2="435.9" y2="196.9" stroke="#6e7681" stroke-width="0.9" opacity="0.19" />
  <line x1="372.4" y1="222.3" x2="423.5" y2="214.5" stroke="#6e7681" stroke-width="1.0" opacity="0.26" />
  <line x1="372.4" y1="222.3" x2="407.9" y2="227.0" stroke="#6e7681" stroke-width="1.0" opacity="0.23" />
  <line x1="372.4" y1="222.3" x2="415.7" y2="234.6" stroke="#6e7681" stroke-width="1.0" opacity="0.23" />
  <line x1="372.4" y1="222.3" x2="464.7" y2="224.2" stroke="#6e7681" stroke-width="0.9" opacity="0.18" />
  <line x1="337.9" y1="219.1" x2="287.1" y2="203.0" stroke="#6e7681" stroke-width="0.9" opacity="0.18" />
  <line x1="337.9" y1="219.1" x2="374.8" y2="196.3" stroke="#6e7681" stroke-width="1.0" opacity="0.25" />
  <line x1="337.9" y1="219.1" x2="423.5" y2="214.5" stroke="#6e7681" stroke-width="1.0" opacity="0.22" />
  <line x1="337.9" y1="219.1" x2="407.9" y2="227.0" stroke="#6e7681" stroke-width="0.9" opacity="0.20" />
  <line x1="374.8" y1="196.3" x2="435.9" y2="196.9" stroke="#6e7681" stroke-width="0.9" opacity="0.19" />
  <line x1="374.8" y1="196.3" x2="423.5" y2="214.5" stroke="#6e7681" stroke-width="0.9" opacity="0.18" />
  <line x1="435.9" y1="196.9" x2="423.5" y2="214.5" stroke="#6e7681" stroke-width="1.1" opacity="0.29" />
  <line x1="435.9" y1="196.9" x2="455.2" y2="163.1" stroke="#6e7681" stroke-width="1.2" opacity="0.34" />
  <line x1="435.9" y1="196.9" x2="407.9" y2="227.0" stroke="#6e7681" stroke-width="0.9" opacity="0.20" />
  <line x1="435.9" y1="196.9" x2="415.7" y2="234.6" stroke="#6e7681" stroke-width="0.9" opacity="0.20" />
  <line x1="435.9" y1="196.9" x2="473.1" y2="195.7" stroke="#6e7681" stroke-width="1.2" opacity="0.37" />
  <line x1="435.9" y1="196.9" x2="493.4" y2="179.0" stroke="#6e7681" stroke-width="1.2" opacity="0.37" />
  <line x1="435.9" y1="196.9" x2="458.3" y2="188.1" stroke="#6e7681" stroke-width="1.1" opacity="0.29" />
  <line x1="435.9" y1="196.9" x2="463.4" y2="208.7" stroke="#6e7681" stroke-width="1.0" opacity="0.22" />
  <line x1="435.9" y1="196.9" x2="484.3" y2="209.3" stroke="#6e7681" stroke-width="1.2" opacity="0.34" />
  <line x1="435.9" y1="196.9" x2="491.2" y2="199.0" stroke="#6e7681" stroke-width="1.0" opacity="0.24" />
  <line x1="435.9" y1="196.9" x2="482.0" y2="217.4" stroke="#6e7681" stroke-width="1.1" opacity="0.29" />
  <line x1="435.9" y1="196.9" x2="498.3" y2="187.6" stroke="#6e7681" stroke-width="1.0" opacity="0.22" />
  <line x1="423.5" y1="214.5" x2="442.6" y2="252.6" stroke="#6e7681" stroke-width="0.9" opacity="0.21" />
  <line x1="423.5" y1="214.5" x2="407.9" y2="227.0" stroke="#6e7681" stroke-width="1.1" opacity="0.28" />
  <line x1="423.5" y1="214.5" x2="415.7" y2="234.6" stroke="#6e7681" stroke-width="1.1" opacity="0.28" />
  <line x1="423.5" y1="214.5" x2="473.1" y2="195.7" stroke="#6e7681" stroke-width="0.9" opacity="0.17" />
  <line x1="423.5" y1="214.5" x2="469.2" y2="242.8" stroke="#6e7681" stroke-width="0.9" opacity="0.17" />
  <line x1="423.5" y1="214.5" x2="478.7" y2="234.7" stroke="#6e7681" stroke-width="0.9" opacity="0.20" />
  <line x1="423.5" y1="214.5" x2="484.3" y2="209.3" stroke="#6e7681" stroke-width="0.9" opacity="0.17" />
  <line x1="423.5" y1="214.5" x2="491.2" y2="199.0" stroke="#6e7681" stroke-width="0.9" opacity="0.17" />
  <line x1="423.5" y1="214.5" x2="482.0" y2="217.4" stroke="#6e7681" stroke-width="1.1" opacity="0.33" />
  <line x1="423.5" y1="214.5" x2="464.7" y2="224.2" stroke="#6e7681" stroke-width="1.0" opacity="0.24" />
  <line x1="455.2" y1="163.1" x2="473.1" y2="195.7" stroke="#6e7681" stroke-width="1.0" opacity="0.25" />
  <line x1="455.2" y1="163.1" x2="493.4" y2="179.0" stroke="#6e7681" stroke-width="1.1" opacity="0.29" />
  <line x1="455.2" y1="163.1" x2="498.3" y2="187.6" stroke="#6e7681" stroke-width="0.9" opacity="0.17" />
  <line x1="534.6" y1="188.7" x2="473.1" y2="195.7" stroke="#6e7681" stroke-width="0.9" opacity="0.18" />
  <line x1="534.6" y1="188.7" x2="493.4" y2="179.0" stroke="#6e7681" stroke-width="0.9" opacity="0.18" />
  <line x1="534.6" y1="188.7" x2="484.3" y2="209.3" stroke="#6e7681" stroke-width="0.9" opacity="0.17" />
  <line x1="534.6" y1="188.7" x2="491.2" y2="199.0" stroke="#6e7681" stroke-width="1.3" opacity="0.42" />
  <line x1="534.6" y1="188.7" x2="482.0" y2="217.4" stroke="#6e7681" stroke-width="0.9" opacity="0.19" />
  <line x1="534.6" y1="188.7" x2="498.3" y2="187.6" stroke="#6e7681" stroke-width="0.9" opacity="0.21" />
  <line x1="442.6" y1="252.6" x2="478.7" y2="234.7" stroke="#6e7681" stroke-width="0.9" opacity="0.18" />
  <line x1="442.6" y1="252.6" x2="482.0" y2="217.4" stroke="#6e7681" stroke-width="1.1" opacity="0.30" />
  <line x1="442.6" y1="252.6" x2="464.7" y2="224.2" stroke="#6e7681" stroke-width="1.0" opacity="0.22" />
  <line x1="407.9" y1="227.0" x2="415.7" y2="234.6" stroke="#6e7681" stroke-width="1.0" opacity="0.24" />
  <line x1="407.9" y1="227.0" x2="463.4" y2="208.7" stroke="#6e7681" stroke-width="0.9" opacity="0.19" />
  <line x1="407.9" y1="227.0" x2="452.6" y2="228.9" stroke="#6e7681" stroke-width="0.9" opacity="0.18" />
  <line x1="407.9" y1="227.0" x2="478.7" y2="234.7" stroke="#6e7681" stroke-width="0.9" opacity="0.17" />
  <line x1="407.9" y1="227.0" x2="482.0" y2="217.4" stroke="#6e7681" stroke-width="0.9" opacity="0.17" />
  <line x1="407.9" y1="227.0" x2="464.7" y2="224.2" stroke="#6e7681" stroke-width="0.9" opacity="0.20" />
  <line x1="415.7" y1="234.6" x2="478.7" y2="234.7" stroke="#6e7681" stroke-width="0.9" opacity="0.17" />
  <line x1="415.7" y1="234.6" x2="482.0" y2="217.4" stroke="#6e7681" stroke-width="0.9" opacity="0.17" />
  <line x1="415.7" y1="234.6" x2="464.7" y2="224.2" stroke="#6e7681" stroke-width="0.9" opacity="0.20" />
  <line x1="579.2" y1="291.9" x2="536.4" y2="259.7" stroke="#6e7681" stroke-width="1.3" opacity="0.44" />
  <line x1="579.2" y1="291.9" x2="580.4" y2="274.1" stroke="#6e7681" stroke-width="0.9" opacity="0.18" />
  <line x1="536.4" y1="259.7" x2="531.3" y2="234.1" stroke="#6e7681" stroke-width="1.1" opacity="0.31" />
  <line x1="536.4" y1="259.7" x2="469.2" y2="242.8" stroke="#6e7681" stroke-width="0.9" opacity="0.20" />
  <line x1="536.4" y1="259.7" x2="478.7" y2="234.7" stroke="#6e7681" stroke-width="1.0" opacity="0.24" />
  <line x1="536.4" y1="259.7" x2="484.3" y2="209.3" stroke="#6e7681" stroke-width="0.9" opacity="0.20" />
  <line x1="536.4" y1="259.7" x2="482.0" y2="217.4" stroke="#6e7681" stroke-width="1.0" opacity="0.24" />
  <line x1="536.4" y1="259.7" x2="490.6" y2="242.6" stroke="#6e7681" stroke-width="0.9" opacity="0.18" />
  <line x1="536.4" y1="259.7" x2="657.2" y2="322.2" stroke="#6e7681" stroke-width="0.9" opacity="0.17" />
  <line x1="536.4" y1="259.7" x2="531.3" y2="244.6" stroke="#6e7681" stroke-width="1.1" opacity="0.31" />
  <line x1="536.4" y1="259.7" x2="580.4" y2="274.1" stroke="#6e7681" stroke-width="1.1" opacity="0.30" />
  <line x1="536.4" y1="259.7" x2="464.7" y2="224.2" stroke="#6e7681" stroke-width="1.1" opacity="0.31" />
  <line x1="298.4" y1="496.5" x2="323.7" y2="500.0" stroke="#6e7681" stroke-width="1.6" opacity="0.60" />
  <line x1="611.9" y1="137.8" x2="493.4" y2="179.0" stroke="#6e7681" stroke-width="0.9" opacity="0.18" />
  <line x1="611.9" y1="137.8" x2="685.7" y2="126.4" stroke="#6e7681" stroke-width="1.1" opacity="0.28" />
  <line x1="521.2" y1="196.3" x2="473.1" y2="195.7" stroke="#6e7681" stroke-width="0.9" opacity="0.17" />
  <line x1="521.2" y1="196.3" x2="493.4" y2="179.0" stroke="#6e7681" stroke-width="0.9" opacity="0.18" />
  <line x1="521.2" y1="196.3" x2="463.4" y2="208.7" stroke="#6e7681" stroke-width="1.0" opacity="0.22" />
  <line x1="521.2" y1="196.3" x2="484.3" y2="209.3" stroke="#6e7681" stroke-width="1.1" opacity="0.28" />
  <line x1="521.2" y1="196.3" x2="491.2" y2="199.0" stroke="#6e7681" stroke-width="1.1" opacity="0.32" />
  <line x1="521.2" y1="196.3" x2="482.0" y2="217.4" stroke="#6e7681" stroke-width="0.9" opacity="0.20" />
  <line x1="521.2" y1="196.3" x2="498.3" y2="187.6" stroke="#6e7681" stroke-width="1.0" opacity="0.22" />
  <line x1="521.2" y1="196.3" x2="520.3" y2="208.0" stroke="#6e7681" stroke-width="1.0" opacity="0.22" />
  <line x1="473.1" y1="195.7" x2="493.4" y2="179.0" stroke="#6e7681" stroke-width="1.3" opacity="0.42" />
  <line x1="473.1" y1="195.7" x2="520.1" y2="178.6" stroke="#6e7681" stroke-width="0.9" opacity="0.18" />
  <line x1="473.1" y1="195.7" x2="458.3" y2="188.1" stroke="#6e7681" stroke-width="1.1" opacity="0.31" />
  <line x1="473.1" y1="195.7" x2="463.4" y2="208.7" stroke="#6e7681" stroke-width="1.1" opacity="0.32" />
  <line x1="473.1" y1="195.7" x2="452.6" y2="228.9" stroke="#6e7681" stroke-width="1.0" opacity="0.23" />
  <line x1="473.1" y1="195.7" x2="484.3" y2="209.3" stroke="#6e7681" stroke-width="1.2" opacity="0.39" />
  <line x1="473.1" y1="195.7" x2="491.2" y2="199.0" stroke="#6e7681" stroke-width="1.0" opacity="0.26" />
  <line x1="473.1" y1="195.7" x2="482.0" y2="217.4" stroke="#6e7681" stroke-width="1.2" opacity="0.34" />
  <line x1="473.1" y1="195.7" x2="490.6" y2="242.6" stroke="#6e7681" stroke-width="0.9" opacity="0.19" />
  <line x1="473.1" y1="195.7" x2="498.3" y2="187.6" stroke="#6e7681" stroke-width="1.0" opacity="0.25" />
  <line x1="473.1" y1="195.7" x2="464.7" y2="224.2" stroke="#6e7681" stroke-width="0.9" opacity="0.17" />
  <line x1="493.4" y1="179.0" x2="520.1" y2="178.6" stroke="#6e7681" stroke-width="1.1" opacity="0.33" />
  <line x1="493.4" y1="179.0" x2="458.3" y2="188.1" stroke="#6e7681" stroke-width="0.9" opacity="0.21" />
  <line x1="493.4" y1="179.0" x2="463.4" y2="208.7" stroke="#6e7681" stroke-width="0.9" opacity="0.18" />
  <line x1="493.4" y1="179.0" x2="484.3" y2="209.3" stroke="#6e7681" stroke-width="1.3" opacity="0.41" />
  <line x1="493.4" y1="179.0" x2="491.2" y2="199.0" stroke="#6e7681" stroke-width="1.0" opacity="0.22" />
  <line x1="493.4" y1="179.0" x2="482.0" y2="217.4" stroke="#6e7681" stroke-width="1.1" opacity="0.31" />
  <line x1="493.4" y1="179.0" x2="498.3" y2="187.6" stroke="#6e7681" stroke-width="1.7" opacity="0.66" />
  <line x1="512.1" y1="230.6" x2="531.3" y2="234.1" stroke="#6e7681" stroke-width="1.5" opacity="0.55" />
  <line x1="512.1" y1="230.6" x2="469.2" y2="242.8" stroke="#6e7681" stroke-width="0.9" opacity="0.18" />
  <line x1="512.1" y1="230.6" x2="478.7" y2="234.7" stroke="#6e7681" stroke-width="1.1" opacity="0.28" />
  <line x1="512.1" y1="230.6" x2="484.3" y2="209.3" stroke="#6e7681" stroke-width="0.9" opacity="0.18" />
  <line x1="512.1" y1="230.6" x2="482.0" y2="217.4" stroke="#6e7681" stroke-width="1.1" opacity="0.28" />
  <line x1="512.1" y1="230.6" x2="515.1" y2="240.4" stroke="#6e7681" stroke-width="1.5" opacity="0.55" />
  <line x1="512.1" y1="230.6" x2="520.3" y2="208.0" stroke="#6e7681" stroke-width="1.2" opacity="0.37" />
  <line x1="512.1" y1="230.6" x2="531.3" y2="244.6" stroke="#6e7681" stroke-width="1.5" opacity="0.55" />
  <line x1="512.1" y1="230.6" x2="464.7" y2="224.2" stroke="#6e7681" stroke-width="1.5" opacity="0.55" />
  <line x1="531.3" y1="234.1" x2="478.7" y2="234.7" stroke="#6e7681" stroke-width="1.0" opacity="0.22" />
  <line x1="531.3" y1="234.1" x2="482.0" y2="217.4" stroke="#6e7681" stroke-width="1.0" opacity="0.22" />
  <line x1="531.3" y1="234.1" x2="515.1" y2="240.4" stroke="#6e7681" stroke-width="1.2" opacity="0.37" />
  <line x1="531.3" y1="234.1" x2="520.3" y2="208.0" stroke="#6e7681" stroke-width="1.1" opacity="0.28" />
  <line x1="531.3" y1="234.1" x2="531.3" y2="244.6" stroke="#6e7681" stroke-width="1.2" opacity="0.37" />
  <line x1="531.3" y1="234.1" x2="464.7" y2="224.2" stroke="#6e7681" stroke-width="1.2" opacity="0.37" />
  <line x1="520.1" y1="178.6" x2="484.3" y2="209.3" stroke="#6e7681" stroke-width="0.9" opacity="0.18" />
  <line x1="520.1" y1="178.6" x2="491.2" y2="199.0" stroke="#6e7681" stroke-width="0.9" opacity="0.18" />
  <line x1="520.1" y1="178.6" x2="482.0" y2="217.4" stroke="#6e7681" stroke-width="1.0" opacity="0.22" />
  <line x1="520.1" y1="178.6" x2="498.3" y2="187.6" stroke="#6e7681" stroke-width="1.3" opacity="0.41" />
  <line x1="458.3" y1="188.1" x2="463.4" y2="208.7" stroke="#6e7681" stroke-width="1.1" opacity="0.31" />
  <line x1="458.3" y1="188.1" x2="484.3" y2="209.3" stroke="#6e7681" stroke-width="1.4" opacity="0.47" />
  <line x1="458.3" y1="188.1" x2="491.2" y2="199.0" stroke="#6e7681" stroke-width="0.9" opacity="0.19" />
  <line x1="458.3" y1="188.1" x2="482.0" y2="217.4" stroke="#6e7681" stroke-width="1.0" opacity="0.22" />
  <line x1="463.4" y1="208.7" x2="452.6" y2="228.9" stroke="#6e7681" stroke-width="1.1" opacity="0.29" />
  <line x1="463.4" y1="208.7" x2="469.2" y2="242.8" stroke="#6e7681" stroke-width="0.9" opacity="0.17" />
  <line x1="463.4" y1="208.7" x2="478.7" y2="234.7" stroke="#6e7681" stroke-width="0.9" opacity="0.20" />
  <line x1="463.4" y1="208.7" x2="484.3" y2="209.3" stroke="#6e7681" stroke-width="1.3" opacity="0.40" />
  <line x1="463.4" y1="208.7" x2="491.2" y2="199.0" stroke="#6e7681" stroke-width="1.0" opacity="0.24" />
  <line x1="463.4" y1="208.7" x2="482.0" y2="217.4" stroke="#6e7681" stroke-width="0.9" opacity="0.20" />
  <line x1="463.4" y1="208.7" x2="464.7" y2="224.2" stroke="#6e7681" stroke-width="1.0" opacity="0.24" />
  <line x1="452.6" y1="228.9" x2="478.7" y2="234.7" stroke="#6e7681" stroke-width="0.9" opacity="0.18" />
  <line x1="452.6" y1="228.9" x2="491.2" y2="199.0" stroke="#6e7681" stroke-width="1.0" opacity="0.23" />
  <line x1="452.6" y1="228.9" x2="482.0" y2="217.4" stroke="#6e7681" stroke-width="0.9" opacity="0.18" />
  <line x1="452.6" y1="228.9" x2="490.6" y2="242.6" stroke="#6e7681" stroke-width="1.0" opacity="0.24" />
  <line x1="452.6" y1="228.9" x2="464.7" y2="224.2" stroke="#6e7681" stroke-width="1.0" opacity="0.22" />
  <line x1="469.2" y1="242.8" x2="478.7" y2="234.7" stroke="#6e7681" stroke-width="1.1" opacity="0.28" />
  <line x1="469.2" y1="242.8" x2="484.3" y2="209.3" stroke="#6e7681" stroke-width="1.0" opacity="0.22" />
  <line x1="469.2" y1="242.8" x2="482.0" y2="217.4" stroke="#6e7681" stroke-width="1.1" opacity="0.28" />
  <line x1="469.2" y1="242.8" x2="490.6" y2="242.6" stroke="#6e7681" stroke-width="0.9" opacity="0.20" />
  <line x1="469.2" y1="242.8" x2="464.7" y2="224.2" stroke="#6e7681" stroke-width="1.2" opacity="0.37" />
  <line x1="478.7" y1="234.7" x2="484.3" y2="209.3" stroke="#6e7681" stroke-width="1.1" opacity="0.28" />
  <line x1="478.7" y1="234.7" x2="482.0" y2="217.4" stroke="#6e7681" stroke-width="1.2" opacity="0.37" />
  <line x1="478.7" y1="234.7" x2="515.1" y2="240.4" stroke="#6e7681" stroke-width="1.0" opacity="0.22" />
  <line x1="478.7" y1="234.7" x2="490.6" y2="242.6" stroke="#6e7681" stroke-width="1.0" opacity="0.24" />
  <line x1="478.7" y1="234.7" x2="520.3" y2="208.0" stroke="#6e7681" stroke-width="0.9" opacity="0.18" />
  <line x1="478.7" y1="234.7" x2="531.3" y2="244.6" stroke="#6e7681" stroke-width="1.0" opacity="0.22" />
  <line x1="478.7" y1="234.7" x2="464.7" y2="224.2" stroke="#6e7681" stroke-width="1.5" opacity="0.55" />
  <line x1="484.3" y1="209.3" x2="491.2" y2="199.0" stroke="#6e7681" stroke-width="1.1" opacity="0.29" />
  <line x1="484.3" y1="209.3" x2="482.0" y2="217.4" stroke="#6e7681" stroke-width="1.4" opacity="0.47" />
  <line x1="484.3" y1="209.3" x2="490.6" y2="242.6" stroke="#6e7681" stroke-width="0.9" opacity="0.20" />
  <line x1="484.3" y1="209.3" x2="498.3" y2="187.6" stroke="#6e7681" stroke-width="1.1" opacity="0.31" />
  <line x1="484.3" y1="209.3" x2="520.3" y2="208.0" stroke="#6e7681" stroke-width="1.1" opacity="0.31" />
  <line x1="484.3" y1="209.3" x2="464.7" y2="224.2" stroke="#6e7681" stroke-width="1.2" opacity="0.37" />
  <line x1="491.2" y1="199.0" x2="482.0" y2="217.4" stroke="#6e7681" stroke-width="1.2" opacity="0.34" />
  <line x1="491.2" y1="199.0" x2="498.3" y2="187.6" stroke="#6e7681" stroke-width="1.0" opacity="0.25" />
  <line x1="491.2" y1="199.0" x2="520.3" y2="208.0" stroke="#6e7681" stroke-width="1.0" opacity="0.25" />
  <line x1="491.2" y1="199.0" x2="464.7" y2="224.2" stroke="#6e7681" stroke-width="0.9" opacity="0.17" />
  <line x1="482.0" y1="217.4" x2="515.1" y2="240.4" stroke="#6e7681" stroke-width="1.0" opacity="0.22" />
  <line x1="482.0" y1="217.4" x2="490.6" y2="242.6" stroke="#6e7681" stroke-width="1.0" opacity="0.24" />
  <line x1="482.0" y1="217.4" x2="498.3" y2="187.6" stroke="#6e7681" stroke-width="1.3" opacity="0.44" />
  <line x1="482.0" y1="217.4" x2="520.3" y2="208.0" stroke="#6e7681" stroke-width="1.3" opacity="0.44" />
  <line x1="482.0" y1="217.4" x2="531.3" y2="244.6" stroke="#6e7681" stroke-width="1.0" opacity="0.22" />
  <line x1="482.0" y1="217.4" x2="464.7" y2="224.2" stroke="#6e7681" stroke-width="1.5" opacity="0.55" />
  <line x1="750.1" y1="50.0" x2="777.3" y2="65.3" stroke="#6e7681" stroke-width="1.0" opacity="0.22" />
  <line x1="392.3" y1="167.9" x2="464.7" y2="224.2" stroke="#6e7681" stroke-width="1.0" opacity="0.22" />
  <line x1="515.1" y1="240.4" x2="520.3" y2="208.0" stroke="#6e7681" stroke-width="1.1" opacity="0.28" />
  <line x1="515.1" y1="240.4" x2="531.3" y2="244.6" stroke="#6e7681" stroke-width="1.2" opacity="0.37" />
  <line x1="515.1" y1="240.4" x2="464.7" y2="224.2" stroke="#6e7681" stroke-width="1.2" opacity="0.37" />
  <line x1="702.6" y1="344.1" x2="718.5" y2="353.0" stroke="#6e7681" stroke-width="1.5" opacity="0.55" />
  <line x1="702.6" y1="344.1" x2="657.2" y2="322.2" stroke="#6e7681" stroke-width="1.3" opacity="0.41" />
  <line x1="718.5" y1="353.0" x2="657.2" y2="322.2" stroke="#6e7681" stroke-width="1.0" opacity="0.24" />
  <line x1="490.6" y1="242.6" x2="464.7" y2="224.2" stroke="#6e7681" stroke-width="1.1" opacity="0.31" />
  <line x1="498.3" y1="187.6" x2="520.3" y2="208.0" stroke="#6e7681" stroke-width="1.0" opacity="0.22" />
  <line x1="520.3" y1="208.0" x2="497.2" y2="162.5" stroke="#6e7681" stroke-width="1.2" opacity="0.37" />
  <line x1="520.3" y1="208.0" x2="556.5" y2="153.7" stroke="#6e7681" stroke-width="0.9" opacity="0.18" />
  <line x1="520.3" y1="208.0" x2="531.3" y2="244.6" stroke="#6e7681" stroke-width="1.1" opacity="0.28" />
  <line x1="520.3" y1="208.0" x2="464.7" y2="224.2" stroke="#6e7681" stroke-width="1.1" opacity="0.28" />
  <line x1="497.2" y1="162.5" x2="556.5" y2="153.7" stroke="#6e7681" stroke-width="1.1" opacity="0.28" />
  <line x1="531.3" y1="244.6" x2="580.4" y2="274.1" stroke="#6e7681" stroke-width="1.1" opacity="0.31" />
  <line x1="531.3" y1="244.6" x2="464.7" y2="224.2" stroke="#6e7681" stroke-width="1.2" opacity="0.37" />
  <circle cx="410.6" cy="207.1" r="19.8" fill="#7f8c8d" opacity="0.12" />
  <circle cx="410.6" cy="207.1" r="15.8" fill="#7f8c8d" opacity="0.88" />
  <circle cx="415.3" cy="219.6" r="16.2" fill="#3498db" opacity="0.12" />
  <circle cx="415.3" cy="219.6" r="12.2" fill="#3498db" opacity="0.88" />
  <circle cx="307.2" cy="181.8" r="15.3" fill="#3498db" opacity="0.12" />
  <circle cx="307.2" cy="181.8" r="11.3" fill="#3498db" opacity="0.88" />
  <circle cx="421.6" cy="175.3" r="20" fill="#3498db" opacity="0.12" />
  <circle cx="421.6" cy="175.3" r="16" fill="#3498db" opacity="0.88" />
  <circle cx="297.2" cy="224.4" r="16.2" fill="#7f8c8d" opacity="0.12" />
  <circle cx="297.2" cy="224.4" r="12.2" fill="#7f8c8d" opacity="0.88" />
  <circle cx="356.3" cy="203.0" r="12.6" fill="#3498db" opacity="0.12" />
  <circle cx="356.3" cy="203.0" r="8.6" fill="#3498db" opacity="0.88" />
  <circle cx="395.7" cy="188.6" r="12.6" fill="#2ecc71" opacity="0.12" />
  <circle cx="395.7" cy="188.6" r="8.6" fill="#2ecc71" opacity="0.88" />
  <circle cx="372.4" cy="222.3" r="18.9" fill="#7f8c8d" opacity="0.12" />
  <circle cx="372.4" cy="222.3" r="14.9" fill="#7f8c8d" opacity="0.88" />
  <circle cx="337.9" cy="219.1" r="20" fill="#7f8c8d" opacity="0.12" />
  <circle cx="337.9" cy="219.1" r="16" fill="#7f8c8d" opacity="0.88" />
  <circle cx="287.1" cy="203.0" r="13.5" fill="#7f8c8d" opacity="0.12" />
  <circle cx="287.1" cy="203.0" r="9.5" fill="#7f8c8d" opacity="0.88" />
  <circle cx="374.8" cy="196.3" r="18.9" fill="#3498db" opacity="0.12" />
  <circle cx="374.8" cy="196.3" r="14.9" fill="#3498db" opacity="0.88" />
  <circle cx="435.9" cy="196.9" r="20" fill="#7f8c8d" opacity="0.12" />
  <circle cx="435.9" cy="196.9" r="16" fill="#7f8c8d" opacity="0.88" />
  <circle cx="423.5" cy="214.5" r="16.2" fill="#e67e22" opacity="0.12" />
  <circle cx="423.5" cy="214.5" r="12.2" fill="#e67e22" opacity="0.88" />
  <circle cx="455.2" cy="163.1" r="20" fill="#e74c3c" opacity="0.12" />
  <circle cx="455.2" cy="163.1" r="16" fill="#e74c3c" opacity="0.88" />
  <circle cx="534.6" cy="188.7" r="20" fill="#9b59b6" opacity="0.12" />
  <circle cx="534.6" cy="188.7" r="16" fill="#9b59b6" opacity="0.88" />
  <circle cx="442.6" cy="252.6" r="17.1" fill="#e67e22" opacity="0.12" />
  <circle cx="442.6" cy="252.6" r="13.1" fill="#e67e22" opacity="0.88" />
  <circle cx="407.9" cy="227.0" r="18.0" fill="#3498db" opacity="0.12" />
  <circle cx="407.9" cy="227.0" r="14.0" fill="#3498db" opacity="0.88" />
  <circle cx="415.7" cy="234.6" r="18.0" fill="#3498db" opacity="0.12" />
  <circle cx="415.7" cy="234.6" r="14.0" fill="#3498db" opacity="0.88" />
  <circle cx="579.2" cy="291.9" r="14.4" fill="#e74c3c" opacity="0.12" />
  <circle cx="579.2" cy="291.9" r="10.4" fill="#e74c3c" opacity="0.88" />
  <circle cx="910.0" cy="140.8" r="16.2" fill="#3498db" opacity="0.12" />
  <circle cx="910.0" cy="140.8" r="12.2" fill="#3498db" opacity="0.88" />
  <circle cx="536.4" cy="259.7" r="14.4" fill="#e74c3c" opacity="0.12" />
  <circle cx="536.4" cy="259.7" r="10.4" fill="#e74c3c" opacity="0.88" />
  <circle cx="298.4" cy="496.5" r="16.2" fill="#3498db" opacity="0.12" />
  <circle cx="298.4" cy="496.5" r="12.2" fill="#3498db" opacity="0.88" />
  <circle cx="323.7" cy="500.0" r="15.3" fill="#3498db" opacity="0.12" />
  <circle cx="323.7" cy="500.0" r="11.3" fill="#3498db" opacity="0.88" />
  <circle cx="611.9" cy="137.8" r="9.9" fill="#3498db" opacity="0.12" />
  <circle cx="611.9" cy="137.8" r="5.9" fill="#3498db" opacity="0.88" />
  <circle cx="521.2" cy="196.3" r="16.2" fill="#9b59b6" opacity="0.12" />
  <circle cx="521.2" cy="196.3" r="12.2" fill="#9b59b6" opacity="0.88" />
  <circle cx="473.1" cy="195.7" r="19.8" fill="#9b59b6" opacity="0.12" />
  <circle cx="473.1" cy="195.7" r="15.8" fill="#9b59b6" opacity="0.88" />
  <circle cx="493.4" cy="179.0" r="12.6" fill="#9b59b6" opacity="0.12" />
  <circle cx="493.4" cy="179.0" r="8.6" fill="#9b59b6" opacity="0.88" />
  <circle cx="512.1" cy="230.6" r="9" fill="#2ecc71" opacity="0.12" />
  <circle cx="512.1" cy="230.6" r="5" fill="#2ecc71" opacity="0.88" />
  <circle cx="531.3" cy="234.1" r="9.9" fill="#7f8c8d" opacity="0.12" />
  <circle cx="531.3" cy="234.1" r="5.9" fill="#7f8c8d" opacity="0.88" />
  <circle cx="520.1" cy="178.6" r="15.3" fill="#e67e22" opacity="0.12" />
  <circle cx="520.1" cy="178.6" r="11.3" fill="#e67e22" opacity="0.88" />
  <circle cx="458.3" cy="188.1" r="20" fill="#2ecc71" opacity="0.12" />
  <circle cx="458.3" cy="188.1" r="16" fill="#2ecc71" opacity="0.88" />
  <circle cx="685.7" cy="126.4" r="10.8" fill="#9b59b6" opacity="0.12" />
  <circle cx="685.7" cy="126.4" r="6.8" fill="#9b59b6" opacity="0.88" />
  <circle cx="131.6" cy="411.4" r="9" fill="#7f8c8d" opacity="0.12" />
  <circle cx="131.6" cy="411.4" r="5" fill="#7f8c8d" opacity="0.88" />
  <circle cx="463.4" cy="208.7" r="16.2" fill="#3498db" opacity="0.12" />
  <circle cx="463.4" cy="208.7" r="12.2" fill="#3498db" opacity="0.88" />
  <circle cx="452.6" cy="228.9" r="17.1" fill="#7f8c8d" opacity="0.12" />
  <circle cx="452.6" cy="228.9" r="13.1" fill="#7f8c8d" opacity="0.88" />
  <circle cx="469.2" cy="242.8" r="13.5" fill="#7f8c8d" opacity="0.12" />
  <circle cx="469.2" cy="242.8" r="9.5" fill="#7f8c8d" opacity="0.88" />
  <circle cx="50.0" cy="341.6" r="9" fill="#7f8c8d" opacity="0.12" />
  <circle cx="50.0" cy="341.6" r="5" fill="#7f8c8d" opacity="0.88" />
  <circle cx="478.7" cy="234.7" r="11.7" fill="#7f8c8d" opacity="0.12" />
  <circle cx="478.7" cy="234.7" r="7.7" fill="#7f8c8d" opacity="0.88" />
  <circle cx="484.3" cy="209.3" r="13.5" fill="#7f8c8d" opacity="0.12" />
  <circle cx="484.3" cy="209.3" r="9.5" fill="#7f8c8d" opacity="0.88" />
  <circle cx="491.2" cy="199.0" r="19.8" fill="#2ecc71" opacity="0.12" />
  <circle cx="491.2" cy="199.0" r="15.8" fill="#2ecc71" opacity="0.88" />
  <circle cx="482.0" cy="217.4" r="11.7" fill="#7f8c8d" opacity="0.12" />
  <circle cx="482.0" cy="217.4" r="7.7" fill="#7f8c8d" opacity="0.88" />
  <circle cx="750.1" cy="50.0" r="11.7" fill="#7f8c8d" opacity="0.12" />
  <circle cx="750.1" cy="50.0" r="7.7" fill="#7f8c8d" opacity="0.88" />
  <circle cx="392.3" cy="167.9" r="11.7" fill="#3498db" opacity="0.12" />
  <circle cx="392.3" cy="167.9" r="7.7" fill="#3498db" opacity="0.88" />
  <circle cx="515.1" cy="240.4" r="9.9" fill="#7f8c8d" opacity="0.12" />
  <circle cx="515.1" cy="240.4" r="5.9" fill="#7f8c8d" opacity="0.88" />
  <circle cx="702.6" cy="344.1" r="10.8" fill="#e67e22" opacity="0.12" />
  <circle cx="702.6" cy="344.1" r="6.8" fill="#e67e22" opacity="0.88" />
  <circle cx="718.5" cy="353.0" r="10.8" fill="#e67e22" opacity="0.12" />
  <circle cx="718.5" cy="353.0" r="6.8" fill="#e67e22" opacity="0.88" />
  <circle cx="490.6" cy="242.6" r="14.4" fill="#7f8c8d" opacity="0.12" />
  <circle cx="490.6" cy="242.6" r="10.4" fill="#7f8c8d" opacity="0.88" />
  <circle cx="657.2" cy="322.2" r="15.3" fill="#e67e22" opacity="0.12" />
  <circle cx="657.2" cy="322.2" r="11.3" fill="#e67e22" opacity="0.88" />
  <circle cx="777.3" cy="65.3" r="9.9" fill="#7f8c8d" opacity="0.12" />
  <circle cx="777.3" cy="65.3" r="5.9" fill="#7f8c8d" opacity="0.88" />
  <circle cx="498.3" cy="187.6" r="10.8" fill="#7f8c8d" opacity="0.12" />
  <circle cx="498.3" cy="187.6" r="6.8" fill="#7f8c8d" opacity="0.88" />
  <circle cx="520.3" cy="208.0" r="10.8" fill="#7f8c8d" opacity="0.12" />
  <circle cx="520.3" cy="208.0" r="6.8" fill="#7f8c8d" opacity="0.88" />
  <circle cx="497.2" cy="162.5" r="9" fill="#2ecc71" opacity="0.12" />
  <circle cx="497.2" cy="162.5" r="5" fill="#2ecc71" opacity="0.88" />
  <circle cx="556.5" cy="153.7" r="11.7" fill="#2ecc71" opacity="0.12" />
  <circle cx="556.5" cy="153.7" r="7.7" fill="#2ecc71" opacity="0.88" />
  <circle cx="531.3" cy="244.6" r="9.9" fill="#e74c3c" opacity="0.12" />
  <circle cx="531.3" cy="244.6" r="5.9" fill="#e74c3c" opacity="0.88" />
  <circle cx="580.4" cy="274.1" r="14.4" fill="#e74c3c" opacity="0.12" />
  <circle cx="580.4" cy="274.1" r="10.4" fill="#e74c3c" opacity="0.88" />
  <circle cx="464.7" cy="224.2" r="9.9" fill="#7f8c8d" opacity="0.12" />
  <circle cx="464.7" cy="224.2" r="5.9" fill="#7f8c8d" opacity="0.88" />
  <circle cx="774.0" cy="479.9" r="9" fill="#7f8c8d" opacity="0.12" />
  <circle cx="774.0" cy="479.9" r="5" fill="#7f8c8d" opacity="0.88" />
  <rect x="428.4" y="351.0" width="124.4" height="15" fill="#0d1117" opacity="0.75" rx="2" />
  <text x="429.4" y="362.0" font-family="system-ui, -apple-system, sans-serif" font-size="12" fill="#e6edf3" text-anchor="start">tinyland-huskycat</text>
  <rect x="429.5" y="246.9" width="66.8" height="15" fill="#0d1117" opacity="0.75" rx="2" />
  <text x="430.5" y="257.9" font-family="system-ui, -apple-system, sans-serif" font-size="12" fill="#e6edf3" text-anchor="start">betterkvm</text>
  <rect x="320.5" y="176.8" width="117.2" height="15" fill="#0d1117" opacity="0.75" rx="2" />
  <text x="321.5" y="187.8" font-family="system-ui, -apple-system, sans-serif" font-size="12" fill="#e6edf3" text-anchor="start">tinyland-cleanup</text>
  <rect x="439.6" y="199.9" width="117.2" height="15" fill="#0d1117" opacity="0.75" rx="2" />
  <text x="440.6" y="210.9" font-family="system-ui, -apple-system, sans-serif" font-size="12" fill="#e6edf3" text-anchor="start">GloriousFlywheel</text>
  <rect x="311.4" y="276.8" width="131.6" height="15" fill="#0d1117" opacity="0.75" rx="2" />
  <text x="312.4" y="287.8" font-family="system-ui, -apple-system, sans-serif" font-size="12" fill="#e6edf3" text-anchor="start">aperture-bootstrap</text>
  <rect x="366.9" y="191.3" width="16.4" height="15" fill="#0d1117" opacity="0.75" rx="2" />
  <text x="367.9" y="202.3" font-family="system-ui, -apple-system, sans-serif" font-size="12" fill="#e6edf3" text-anchor="start">pp</text>
  <rect x="406.3" y="123.2" width="59.6" height="15" fill="#0d1117" opacity="0.75" rx="2" />
  <text x="407.3" y="134.2" font-family="system-ui, -apple-system, sans-serif" font-size="12" fill="#e6edf3" text-anchor="start">gnucashr</text>
  <rect x="389.3" y="222.1" width="81.2" height="15" fill="#0d1117" opacity="0.75" rx="2" />
  <text x="390.3" y="233.1" font-family="system-ui, -apple-system, sans-serif" font-size="12" fill="#e6edf3" text-anchor="start">tailnet-acl</text>
  <rect x="355.9" y="206.8" width="74.0" height="15" fill="#0d1117" opacity="0.75" rx="2" />
  <text x="356.9" y="217.8" font-family="system-ui, -apple-system, sans-serif" font-size="12" fill="#e6edf3" text-anchor="start">tummycrypt</text>
  <rect x="298.6" y="225.5" width="88.4" height="15" fill="#0d1117" opacity="0.75" rx="2" />
  <text x="299.6" y="236.5" font-family="system-ui, -apple-system, sans-serif" font-size="12" fill="#e6edf3" text-anchor="start">waifu-mirror</text>
  <rect x="391.7" y="108.2" width="102.8" height="15" fill="#0d1117" opacity="0.75" rx="2" />
  <text x="392.7" y="119.2" font-family="system-ui, -apple-system, sans-serif" font-size="12" fill="#e6edf3" text-anchor="start">tinyland-infra</text>
  <rect x="453.9" y="188.5" width="52.4" height="15" fill="#0d1117" opacity="0.75" rx="2" />
  <text x="454.9" y="199.5" font-family="system-ui, -apple-system, sans-serif" font-size="12" fill="#e6edf3" text-anchor="start">LA-Mesh</text>
  <rect x="437.7" y="261.8" width="45.2" height="15" fill="#0d1117" opacity="0.75" rx="2" />
  <text x="438.7" y="272.8" font-family="system-ui, -apple-system, sans-serif" font-size="12" fill="#e6edf3" text-anchor="start">XoxdWM</text>
  <rect x="473.2" y="232.1" width="131.6" height="15" fill="#0d1117" opacity="0.75" rx="2" />
  <text x="474.2" y="243.1" font-family="system-ui, -apple-system, sans-serif" font-size="12" fill="#e6edf3" text-anchor="start">pixelwise-research</text>
  <rect x="552.6" y="123.4" width="95.6" height="15" fill="#0d1117" opacity="0.75" rx="2" />
  <text x="553.6" y="134.4" font-family="system-ui, -apple-system, sans-serif" font-size="12" fill="#e6edf3" text-anchor="start">GIS_Shortcuts</text>
  <rect x="457.7" y="301.3" width="110.0" height="15" fill="#0d1117" opacity="0.75" rx="2" />
  <text x="458.7" y="312.3" font-family="system-ui, -apple-system, sans-serif" font-size="12" fill="#e6edf3" text-anchor="start">hiberpower-ntfs</text>
  <rect x="423.9" y="308.5" width="138.8" height="15" fill="#0d1117" opacity="0.75" rx="2" />
  <text x="424.9" y="319.5" font-family="system-ui, -apple-system, sans-serif" font-size="12" fill="#e6edf3" text-anchor="start">Ansible-DAG-Harness</text>
  <rect x="431.7" y="137.9" width="95.6" height="15" fill="#0d1117" opacity="0.75" rx="2" />
  <text x="432.7" y="148.9" font-family="system-ui, -apple-system, sans-serif" font-size="12" fill="#e6edf3" text-anchor="start">DarwinNicUtil</text>
  <rect x="591.6" y="351.1" width="66.8" height="15" fill="#0d1117" opacity="0.75" rx="2" />
  <text x="592.6" y="362.1" font-family="system-ui, -apple-system, sans-serif" font-size="12" fill="#e6edf3" text-anchor="start">quickchpl</text>
  <rect x="764.2" y="134.0" width="131.6" height="15" fill="#0d1117" opacity="0.75" rx="2" />
  <text x="894.8" y="145.0" font-family="system-ui, -apple-system, sans-serif" font-size="12" fill="#e6edf3" text-anchor="end">tinyscale-mikrotik</text>
  <rect x="548.8" y="257.6" width="59.6" height="15" fill="#0d1117" opacity="0.75" rx="2" />
  <text x="549.8" y="268.6" font-family="system-ui, -apple-system, sans-serif" font-size="12" fill="#e6edf3" text-anchor="start">aoc-2025</text>
  <rect x="312.6" y="482.9" width="66.8" height="15" fill="#0d1117" opacity="0.75" rx="2" />
  <text x="313.6" y="493.9" font-family="system-ui, -apple-system, sans-serif" font-size="12" fill="#e6edf3" text-anchor="start">searchies</text>
  <rect x="337.0" y="499.9" width="59.6" height="15" fill="#0d1117" opacity="0.75" rx="2" />
  <text x="338.0" y="510.9" font-family="system-ui, -apple-system, sans-serif" font-size="12" fill="#e6edf3" text-anchor="start">ts-caddy</text>
  <rect x="619.8" y="48.6" width="66.8" height="15" fill="#0d1117" opacity="0.75" rx="2" />
  <text x="620.8" y="59.6" font-family="system-ui, -apple-system, sans-serif" font-size="12" fill="#e6edf3" text-anchor="start">HCI-notes</text>
  <rect x="535.4" y="137.9" width="88.4" height="15" fill="#0d1117" opacity="0.75" rx="2" />
  <text x="536.4" y="148.9" font-family="system-ui, -apple-system, sans-serif" font-size="12" fill="#e6edf3" text-anchor="start">FastPhotoAPI</text>
  <rect x="490.9" y="48.5" width="81.2" height="15" fill="#0d1117" opacity="0.75" rx="2" />
  <text x="491.9" y="59.5" font-family="system-ui, -apple-system, sans-serif" font-size="12" fill="#e6edf3" text-anchor="start">timberbuddy</text>
  <rect x="504.0" y="173.9" width="81.2" height="15" fill="#0d1117" opacity="0.75" rx="2" />
  <text x="505.0" y="184.9" font-family="system-ui, -apple-system, sans-serif" font-size="12" fill="#e6edf3" text-anchor="start">tetrahedron</text>
  <rect x="519.1" y="147.4" width="95.6" height="15" fill="#0d1117" opacity="0.75" rx="2" />
  <text x="520.1" y="158.4" font-family="system-ui, -apple-system, sans-serif" font-size="12" fill="#e6edf3" text-anchor="start">AccuWixReport</text>
  <rect x="539.2" y="177.9" width="95.6" height="15" fill="#0d1117" opacity="0.75" rx="2" />
  <text x="540.2" y="188.9" font-family="system-ui, -apple-system, sans-serif" font-size="12" fill="#e6edf3" text-anchor="start">Jess-AOC-2023</text>
  <rect x="533.4" y="164.4" width="81.2" height="15" fill="#0d1117" opacity="0.75" rx="2" />
  <text x="534.4" y="175.4" font-family="system-ui, -apple-system, sans-serif" font-size="12" fill="#e6edf3" text-anchor="start">TurkeyProbe</text>
  <rect x="476.3" y="226.1" width="153.2" height="15" fill="#0d1117" opacity="0.75" rx="2" />
  <text x="477.3" y="237.1" font-family="system-ui, -apple-system, sans-serif" font-size="12" fill="#e6edf3" text-anchor="start">MerlinAI-Interpreters</text>
  <rect x="694.5" y="119.6" width="110.0" height="15" fill="#0d1117" opacity="0.75" rx="2" />
  <text x="695.5" y="130.6" font-family="system-ui, -apple-system, sans-serif" font-size="12" fill="#e6edf3" text-anchor="start">IntroTypeScript</text>
  <rect x="138.6" y="404.6" width="110.0" height="15" fill="#0d1117" opacity="0.75" rx="2" />
  <text x="139.6" y="415.6" font-family="system-ui, -apple-system, sans-serif" font-size="12" fill="#e6edf3" text-anchor="start">IG-3DP-Profiles</text>
  <rect x="477.6" y="123.5" width="66.8" height="15" fill="#0d1117" opacity="0.75" rx="2" />
  <text x="478.6" y="134.5" font-family="system-ui, -apple-system, sans-serif" font-size="12" fill="#e6edf3" text-anchor="start">DLA-Flask</text>
  <rect x="467.7" y="171.9" width="38.0" height="15" fill="#0d1117" opacity="0.75" rx="2" />
  <text x="468.7" y="182.9" font-family="system-ui, -apple-system, sans-serif" font-size="12" fill="#e6edf3" text-anchor="start">USBoN</text>
  <rect x="480.7" y="337.7" width="203.6" height="15" fill="#0d1117" opacity="0.75" rx="2" />
  <text x="481.7" y="348.7" font-family="system-ui, -apple-system, sans-serif" font-size="12" fill="#e6edf3" text-anchor="start">chrome-remote-desktop-budgie</text>
  <rect x="57.0" y="334.8" width="124.4" height="15" fill="#0d1117" opacity="0.75" rx="2" />
  <text x="58.0" y="345.8" font-family="system-ui, -apple-system, sans-serif" font-size="12" fill="#e6edf3" text-anchor="start">OminousBeepingApp</text>
  <rect x="488.4" y="290.0" width="138.8" height="15" fill="#0d1117" opacity="0.75" rx="2" />
  <text x="489.4" y="301.0" font-family="system-ui, -apple-system, sans-serif" font-size="12" fill="#e6edf3" text-anchor="start">mo-image-identifier</text>
  <rect x="495.8" y="109.1" width="196.4" height="15" fill="#0d1117" opacity="0.75" rx="2" />
  <text x="496.8" y="120.1" font-family="system-ui, -apple-system, sans-serif" font-size="12" fill="#e6edf3" text-anchor="start">squirrel-leaflet-annotation</text>
  <rect x="509.0" y="194.9" width="74.0" height="15" fill="#0d1117" opacity="0.75" rx="2" />
  <text x="510.0" y="205.9" font-family="system-ui, -apple-system, sans-serif" font-size="12" fill="#e6edf3" text-anchor="start">Shiny-Apps</text>
  <rect x="491.7" y="262.0" width="138.8" height="15" fill="#0d1117" opacity="0.75" rx="2" />
  <text x="492.7" y="273.0" font-family="system-ui, -apple-system, sans-serif" font-size="12" fill="#e6edf3" text-anchor="start">bbox-jest-puppeteer</text>
  <rect x="759.8" y="43.2" width="88.4" height="15" fill="#0d1117" opacity="0.75" rx="2" />
  <text x="760.8" y="54.2" font-family="system-ui, -apple-system, sans-serif" font-size="12" fill="#e6edf3" text-anchor="start">DoverDisplay</text>
  <rect x="402.0" y="93.1" width="81.2" height="15" fill="#0d1117" opacity="0.75" rx="2" />
  <text x="403.0" y="104.1" font-family="system-ui, -apple-system, sans-serif" font-size="12" fill="#e6edf3" text-anchor="start">LeafletSync</text>
  <rect x="523.0" y="322.3" width="167.6" height="15" fill="#0d1117" opacity="0.75" rx="2" />
  <text x="524.0" y="333.3" font-family="system-ui, -apple-system, sans-serif" font-size="12" fill="#e6edf3" text-anchor="start">misc-roi-distance-notes</text>
  <rect x="711.4" y="369.8" width="138.8" height="15" fill="#0d1117" opacity="0.75" rx="2" />
  <text x="712.4" y="380.8" font-family="system-ui, -apple-system, sans-serif" font-size="12" fill="#e6edf3" text-anchor="start">Arduino_Coil_Winder</text>
  <rect x="727.3" y="383.0" width="30.8" height="15" fill="#0d1117" opacity="0.75" rx="2" />
  <text x="728.3" y="394.0" font-family="system-ui, -apple-system, sans-serif" font-size="12" fill="#e6edf3" text-anchor="start">momo</text>
  <rect x="503.0" y="251.5" width="38.0" height="15" fill="#0d1117" opacity="0.75" rx="2" />
  <text x="504.0" y="262.5" font-family="system-ui, -apple-system, sans-serif" font-size="12" fill="#e6edf3" text-anchor="start">clipi</text>
  <rect x="670.5" y="352.8" width="110.0" height="15" fill="#0d1117" opacity="0.75" rx="2" />
  <text x="671.5" y="363.8" font-family="system-ui, -apple-system, sans-serif" font-size="12" fill="#e6edf3" text-anchor="start">AeroTaz5_hotfix</text>
  <rect x="785.2" y="58.5" width="110.0" height="15" fill="#0d1117" opacity="0.75" rx="2" />
  <text x="786.2" y="69.5" font-family="system-ui, -apple-system, sans-serif" font-size="12" fill="#e6edf3" text-anchor="start">Funmat-HT-Notes</text>
  <rect x="507.1" y="80.3" width="81.2" height="15" fill="#0d1117" opacity="0.75" rx="2" />
  <text x="508.1" y="91.3" font-family="system-ui, -apple-system, sans-serif" font-size="12" fill="#e6edf3" text-anchor="start">static-site</text>
  <rect x="529.1" y="279.0" width="95.6" height="15" fill="#0d1117" opacity="0.75" rx="2" />
  <text x="530.1" y="290.0" font-family="system-ui, -apple-system, sans-serif" font-size="12" fill="#e6edf3" text-anchor="start">Flask-Manager</text>
  <rect x="504.2" y="95.0" width="110.0" height="15" fill="#0d1117" opacity="0.75" rx="2" />
  <text x="505.2" y="106.0" font-family="system-ui, -apple-system, sans-serif" font-size="12" fill="#e6edf3" text-anchor="start">FieldProcessing</text>
  <rect x="566.2" y="63.3" width="81.2" height="15" fill="#0d1117" opacity="0.75" rx="2" />
  <text x="567.2" y="74.3" font-family="system-ui, -apple-system, sans-serif" font-size="12" fill="#e6edf3" text-anchor="start">rJDKmanager</text>
  <rect x="539.2" y="240.6" width="59.6" height="15" fill="#0d1117" opacity="0.75" rx="2" />
  <text x="540.2" y="251.6" font-family="system-ui, -apple-system, sans-serif" font-size="12" fill="#e6edf3" text-anchor="start">tagnotes</text>
  <rect x="592.8" y="304.6" width="81.2" height="15" fill="#0d1117" opacity="0.75" rx="2" />
  <text x="593.8" y="315.6" font-family="system-ui, -apple-system, sans-serif" font-size="12" fill="#e6edf3" text-anchor="start">ChapelTests</text>
  <rect x="472.6" y="209.1" width="88.4" height="15" fill="#0d1117" opacity="0.75" rx="2" />
  <text x="473.6" y="220.1" font-family="system-ui, -apple-system, sans-serif" font-size="12" fill="#e6edf3" text-anchor="start">Xfinity-WiFi</text>
  <rect x="781.0" y="473.1" width="66.8" height="15" fill="#0d1117" opacity="0.75" rx="2" />
  <text x="782.0" y="484.1" font-family="system-ui, -apple-system, sans-serif" font-size="12" fill="#e6edf3" text-anchor="start">home-wiki</text>
  <rect x="793" y="36" width="155" height="120" rx="6" fill="#161b22" stroke="#30363d" stroke-width="1" opacity="0.95" />
  <circle cx="810" cy="52" r="5" fill="#e74c3c" opacity="0.88" />
  <text x="820" y="56" font-family="system-ui, -apple-system, sans-serif" font-size="10" fill="#e6edf3">Languages &amp; Compilers</text>
  <circle cx="810" cy="69" r="5" fill="#3498db" opacity="0.88" />
  <text x="820" y="73" font-family="system-ui, -apple-system, sans-serif" font-size="10" fill="#e6edf3">Infrastructure &amp; DevOps</text>
  <circle cx="810" cy="86" r="5" fill="#e67e22" opacity="0.88" />
  <text x="820" y="90" font-family="system-ui, -apple-system, sans-serif" font-size="10" fill="#e6edf3">Hardware &amp; Maker</text>
  <circle cx="810" cy="103" r="5" fill="#2ecc71" opacity="0.88" />
  <text x="820" y="107" font-family="system-ui, -apple-system, sans-serif" font-size="10" fill="#e6edf3">ML &amp; Data</text>
  <circle cx="810" cy="120" r="5" fill="#9b59b6" opacity="0.88" />
  <text x="820" y="124" font-family="system-ui, -apple-system, sans-serif" font-size="10" fill="#e6edf3">Web &amp; Apps</text>
  <circle cx="810" cy="137" r="5" fill="#7f8c8d" opacity="0.88" />
  <text x="820" y="141" font-family="system-ui, -apple-system, sans-serif" font-size="10" fill="#e6edf3">Other</text>
  <text x="870" y="150" font-family="system-ui, -apple-system, sans-serif" font-size="8" fill="#8b949e" text-anchor="middle">57 repos · 226 edges</text>
</svg>