<svg xmlns="http://www.w3.org/2000/svg" width="960" height="600" viewBox="0 0 960 600">
  <rect width="960" height="600" fill="#ffffff" rx="8" />
  <text x="480" y="24" font-family="system-ui, -apple-system, sans-serif" font-size="13" fill="#656d76" text-anchor="middle" font-weight="500">Repo Relationship Graph &#x2014; Pairwise Topic &amp; Language Similarity</text>
  <line x1="50" y1="550" x2="910" y2="550" stroke="#d0d7de" stroke-width="0.5" opacity="0.5" />
  <text x="50" y="570" font-family="system-ui, -apple-system, sans-serif" font-size="9" fill="#656d76" opacity="0.6">Updated daily by GitHub Actions</text>
  <text x="50" y="588" font-family="system-ui, -apple-system, sans-serif" font-size="9" fill="#656d76" opacity="0.6">networkx spring_layout · Jaccard similarity &gt; 0.15</text>
  <text x="910" y="570" font-family="system-ui, -apple-system, sans-serif" font-size="9" fill="#656d76" text-anchor="end" opacity="0.6">57 repos · 219 edges</text>
  <line x1="568.7" y1="305.0" x2="542.2" y2="305.9" stroke="#bcc3cd" stroke-width="1.0" opacity="0.23" />
  <line x1="568.7" y1="305.0" x2="558.5" y2="341.2" stroke="#bcc3cd" stroke-width="1.0" opacity="0.22" />
  <line x1="568.7" y1="305.0" x2="632.4" y2="332.4" stroke="#bcc3cd" stroke-width="0.9" opacity="0.18" />
  <line x1="568.7" y1="305.0" x2="544.6" y2="295.7" stroke="#bcc3cd" stroke-width="1.0" opacity="0.24" />
  <line x1="568.7" y1="305.0" x2="542.0" y2="325.1" stroke="#bcc3cd" stroke-width="0.9" opacity="0.21" />
  <line x1="568.7" y1="305.0" x2="583.5" y2="328.3" stroke="#bcc3cd" stroke-width="0.9" opacity="0.21" />
  <line x1="568.7" y1="305.0" x2="589.7" y2="292.1" stroke="#bcc3cd" stroke-width="1.1" opacity="0.30" />
  <line x1="568.7" y1="305.0" x2="528.1" y2="300.8" stroke="#bcc3cd" stroke-width="1.0" opacity="0.22" />
  <line x1="568.7" y1="305.0" x2="512.6" y2="298.8" stroke="#bcc3cd" stroke-width="1.0" opacity="0.22" />
  <line x1="568.7" y1="305.0" x2="607.9" y2="278.9" stroke="#bcc3cd" stroke-width="0.9" opacity="0.19" />
  <line x1="568.7" y1="305.0" x2="575.3" y2="260.2" stroke="#bcc3cd" stroke-width="0.9" opacity="0.21" />
  <line x1="568.7" y1="305.0" x2="555.2" y2="262.3" stroke="#bcc3cd" stroke-width="1.0" opacity="0.24" />
  <line x1="568.7" y1="305.0" x2="522.9" y2="269.1" stroke="#bcc3cd" stroke-width="0.9" opacity="0.17" />
  <line x1="526.0" y1="346.2" x2="542.2" y2="305.9" stroke="#bcc3cd" stroke-width="0.9" opacity="0.20" />
  <line x1="526.0" y1="346.2" x2="542.0" y2="325.1" stroke="#bcc3cd" stroke-width="0.9" opacity="0.18" />
  <line x1="526.0" y1="346.2" x2="540.2" y2="379.3" stroke="#bcc3cd" stroke-width="0.9" opacity="0.17" />
  <line x1="526.0" y1="346.2" x2="583.5" y2="328.3" stroke="#bcc3cd" stroke-width="1.0" opacity="0.24" />
  <line x1="526.0" y1="346.2" x2="528.1" y2="300.8" stroke="#bcc3cd" stroke-width="0.9" opacity="0.19" />
  <line x1="542.2" y1="305.9" x2="480.0" y2="282.0" stroke="#bcc3cd" stroke-width="0.9" opacity="0.19" />
  <line x1="542.2" y1="305.9" x2="558.5" y2="341.2" stroke="#bcc3cd" stroke-width="0.9" opacity="0.17" />
  <line x1="542.2" y1="305.9" x2="544.6" y2="295.7" stroke="#bcc3cd" stroke-width="1.1" opacity="0.29" />
  <line x1="542.2" y1="305.9" x2="624.1" y2="304.8" stroke="#bcc3cd" stroke-width="0.9" opacity="0.18" />
  <line x1="542.2" y1="305.9" x2="542.0" y2="325.1" stroke="#bcc3cd" stroke-width="1.0" opacity="0.24" />
  <line x1="542.2" y1="305.9" x2="583.5" y2="328.3" stroke="#bcc3cd" stroke-width="0.9" opacity="0.17" />
  <line x1="542.2" y1="305.9" x2="589.7" y2="292.1" stroke="#bcc3cd" stroke-width="1.1" opacity="0.28" />
  <line x1="542.2" y1="305.9" x2="528.1" y2="300.8" stroke="#bcc3cd" stroke-width="1.0" opacity="0.26" />
  <line x1="542.2" y1="305.9" x2="512.6" y2="298.8" stroke="#bcc3cd" stroke-width="1.0" opacity="0.26" />
  <line x1="542.2" y1="305.9" x2="518.0" y2="262.2" stroke="#bcc3cd" stroke-width="0.9" opacity="0.18" />
  <line x1="542.2" y1="305.9" x2="555.2" y2="262.3" stroke="#bcc3cd" stroke-width="1.1" opacity="0.30" />
  <line x1="542.2" y1="305.9" x2="522.9" y2="269.1" stroke="#bcc3cd" stroke-width="1.0" opacity="0.22" />
  <line x1="480.0" y1="282.0" x2="518.0" y2="262.2" stroke="#bcc3cd" stroke-width="0.9" opacity="0.18" />
  <line x1="480.0" y1="282.0" x2="555.2" y2="262.3" stroke="#bcc3cd" stroke-width="1.1" opacity="0.30" />
  <line x1="480.0" y1="282.0" x2="522.9" y2="269.1" stroke="#bcc3cd" stroke-width="1.0" opacity="0.22" />
  <line x1="558.5" y1="341.2" x2="567.7" y2="390.3" stroke="#bcc3cd" stroke-width="1.1" opacity="0.33" />
  <line x1="558.5" y1="341.2" x2="632.4" y2="332.4" stroke="#bcc3cd" stroke-width="0.9" opacity="0.19" />
  <line x1="558.5" y1="341.2" x2="544.6" y2="295.7" stroke="#bcc3cd" stroke-width="0.9" opacity="0.18" />
  <line x1="558.5" y1="341.2" x2="514.5" y2="366.8" stroke="#bcc3cd" stroke-width="0.9" opacity="0.18" />
  <line x1="558.5" y1="341.2" x2="540.2" y2="379.3" stroke="#bcc3cd" stroke-width="1.3" opacity="0.41" />
  <line x1="558.5" y1="341.2" x2="583.5" y2="328.3" stroke="#bcc3cd" stroke-width="1.0" opacity="0.24" />
  <line x1="558.5" y1="341.2" x2="589.7" y2="292.1" stroke="#bcc3cd" stroke-width="0.9" opacity="0.19" />
  <line x1="558.5" y1="341.2" x2="522.9" y2="269.1" stroke="#bcc3cd" stroke-width="0.9" opacity="0.18" />
  <line x1="567.7" y1="390.3" x2="540.2" y2="379.3" stroke="#bcc3cd" stroke-width="0.9" opacity="0.18" />
  <line x1="632.4" y1="332.4" x2="542.0" y2="325.1" stroke="#bcc3cd" stroke-width="0.9" opacity="0.19" />
  <line x1="632.4" y1="332.4" x2="583.5" y2="328.3" stroke="#bcc3cd" stroke-width="0.9" opacity="0.19" />
  <line x1="632.4" y1="332.4" x2="589.7" y2="292.1" stroke="#bcc3cd" stroke-width="0.9" opacity="0.17" />
  <line x1="632.4" y1="332.4" x2="741.9" y2="318.1" stroke="#bcc3cd" stroke-width="1.0" opacity="0.22" />
  <line x1="544.6" y1="295.7" x2="542.0" y2="325.1" stroke="#bcc3cd" stroke-width="1.0" opacity="0.26" />
  <line x1="544.6" y1="295.7" x2="583.5" y2="328.3" stroke="#bcc3cd" stroke-width="0.9" opacity="0.18" />
  <line x1="544.6" y1="295.7" x2="589.7" y2="292.1" stroke="#bcc3cd" stroke-width="1.0" opacity="0.22" />
  <line x1="544.6" y1="295.7" x2="528.1" y2="300.8" stroke="#bcc3cd" stroke-width="1.1" opacity="0.28" />
  <line x1="544.6" y1="295.7" x2="512.6" y2="298.8" stroke="#bcc3cd" stroke-width="1.1" opacity="0.28" />
  <line x1="544.6" y1="295.7" x2="527.8" y2="253.4" stroke="#bcc3cd" stroke-width="0.9" opacity="0.17" />
  <line x1="544.6" y1="295.7" x2="518.0" y2="262.2" stroke="#bcc3cd" stroke-width="0.9" opacity="0.20" />
  <line x1="544.6" y1="295.7" x2="575.3" y2="260.2" stroke="#bcc3cd" stroke-width="0.9" opacity="0.17" />
  <line x1="544.6" y1="295.7" x2="555.2" y2="262.3" stroke="#bcc3cd" stroke-width="0.9" opacity="0.20" />
  <line x1="544.6" y1="295.7" x2="522.9" y2="269.1" stroke="#bcc3cd" stroke-width="1.0" opacity="0.24" />
  <line x1="624.1" y1="304.8" x2="583.5" y2="328.3" stroke="#bcc3cd" stroke-width="1.2" opacity="0.38" />
  <line x1="624.1" y1="304.8" x2="589.7" y2="292.1" stroke="#bcc3cd" stroke-width="1.2" opacity="0.34" />
  <line x1="624.1" y1="304.8" x2="653.0" y2="284.5" stroke="#bcc3cd" stroke-width="1.0" opacity="0.25" />
  <line x1="624.1" y1="304.8" x2="603.1" y2="267.6" stroke="#bcc3cd" stroke-width="0.9" opacity="0.20" />
  <line x1="624.1" y1="304.8" x2="635.6" y2="263.3" stroke="#bcc3cd" stroke-width="1.0" opacity="0.22" />
  <line x1="514.5" y1="366.8" x2="542.0" y2="325.1" stroke="#bcc3cd" stroke-width="1.2" opacity="0.34" />
  <line x1="514.5" y1="366.8" x2="540.2" y2="379.3" stroke="#bcc3cd" stroke-width="0.9" opacity="0.17" />
  <line x1="542.0" y1="325.1" x2="583.5" y2="328.3" stroke="#bcc3cd" stroke-width="1.0" opacity="0.22" />
  <line x1="542.0" y1="325.1" x2="589.7" y2="292.1" stroke="#bcc3cd" stroke-width="0.9" opacity="0.19" />
  <line x1="542.0" y1="325.1" x2="528.1" y2="300.8" stroke="#bcc3cd" stroke-width="1.0" opacity="0.23" />
  <line x1="542.0" y1="325.1" x2="512.6" y2="298.8" stroke="#bcc3cd" stroke-width="1.0" opacity="0.23" />
  <line x1="542.0" y1="325.1" x2="522.9" y2="269.1" stroke="#bcc3cd" stroke-width="0.9" opacity="0.18" />
  <line x1="583.5" y1="328.3" x2="589.7" y2="292.1" stroke="#bcc3cd" stroke-width="0.9" opacity="0.19" />
  <line x1="589.7" y1="292.1" x2="653.0" y2="284.5" stroke="#bcc3cd" stroke-width="1.2" opacity="0.34" />
  <line x1="589.7" y1="292.1" x2="528.1" y2="300.8" stroke="#bcc3cd" stroke-width="0.9" opacity="0.20" />
  <line x1="589.7" y1="292.1" x2="512.6" y2="298.8" stroke="#bcc3cd" stroke-width="0.9" opacity="0.20" />
  <line x1="589.7" y1="292.1" x2="603.1" y2="267.6" stroke="#bcc3cd" stroke-width="1.2" opacity="0.37" />
  <line x1="589.7" y1="292.1" x2="635.6" y2="263.3" stroke="#bcc3cd" stroke-width="1.2" opacity="0.37" />
  <line x1="589.7" y1="292.1" x2="607.9" y2="278.9" stroke="#bcc3cd" stroke-width="1.1" opacity="0.29" />
  <line x1="589.7" y1="292.1" x2="573.6" y2="271.6" stroke="#bcc3cd" stroke-width="1.0" opacity="0.22" />
  <line x1="589.7" y1="292.1" x2="575.3" y2="260.2" stroke="#bcc3cd" stroke-width="1.2" opacity="0.34" />
  <line x1="589.7" y1="292.1" x2="591.0" y2="253.6" stroke="#bcc3cd" stroke-width="1.0" opacity="0.24" />
  <line x1="589.7" y1="292.1" x2="555.2" y2="262.3" stroke="#bcc3cd" stroke-width="1.1" opacity="0.29" />
  <line x1="589.7" y1="292.1" x2="610.6" y2="253.2" stroke="#bcc3cd" stroke-width="1.0" opacity="0.22" />
  <line x1="653.0" y1="284.5" x2="603.1" y2="267.6" stroke="#bcc3cd" stroke-width="1.0" opacity="0.25" />
  <line x1="653.0" y1="284.5" x2="635.6" y2="263.3" stroke="#bcc3cd" stroke-width="1.1" opacity="0.29" />
  <line x1="653.0" y1="284.5" x2="610.6" y2="253.2" stroke="#bcc3cd" stroke-width="0.9" opacity="0.17" />
  <line x1="638.9" y1="246.4" x2="603.1" y2="267.6" stroke="#bcc3cd" stroke-width="0.9" opacity="0.18" />
  <line x1="638.9" y1="246.4" x2="635.6" y2="263.3" stroke="#bcc3cd" stroke-width="0.9" opacity="0.18" />
  <line x1="638.9" y1="246.4" x2="575.3" y2="260.2" stroke="#bcc3cd" stroke-width="0.9" opacity="0.17" />
  <line x1="638.9" y1="246.4" x2="591.0" y2="253.6" stroke="#bcc3cd" stroke-width="1.3" opacity="0.42" />
  <line x1="638.9" y1="246.4" x2="555.2" y2="262.3" stroke="#bcc3cd" stroke-width="0.9" opacity="0.19" />
  <line x1="638.9" y1="246.4" x2="610.6" y2="253.2" stroke="#bcc3cd" stroke-width="0.9" opacity="0.21" />
  <line x1="528.1" y1="300.8" x2="512.6" y2="298.8" stroke="#bcc3cd" stroke-width="1.0" opacity="0.24" />
  <line x1="528.1" y1="300.8" x2="573.6" y2="271.6" stroke="#bcc3cd" stroke-width="0.9" opacity="0.19" />
  <line x1="528.1" y1="300.8" x2="547.0" y2="274.4" stroke="#bcc3cd" stroke-width="0.9" opacity="0.18" />
  <line x1="528.1" y1="300.8" x2="518.0" y2="262.2" stroke="#bcc3cd" stroke-width="0.9" opacity="0.17" />
  <line x1="528.1" y1="300.8" x2="555.2" y2="262.3" stroke="#bcc3cd" stroke-width="0.9" opacity="0.17" />
  <line x1="528.1" y1="300.8" x2="522.9" y2="269.1" stroke="#bcc3cd" stroke-width="0.9" opacity="0.20" />
  <line x1="512.6" y1="298.8" x2="518.0" y2="262.2" stroke="#bcc3cd" stroke-width="0.9" opacity="0.17" />
  <line x1="512.6" y1="298.8" x2="555.2" y2="262.3" stroke="#bcc3cd" stroke-width="0.9" opacity="0.17" />
  <line x1="512.6" y1="298.8" x2="522.9" y2="269.1" stroke="#bcc3cd" stroke-width="0.9" opacity="0.20" />
  <line x1="573.5" y1="185.9" x2="564.9" y2="230.3" stroke="#bcc3cd" stroke-width="1.3" opacity="0.44" />
  <line x1="573.5" y1="185.9" x2="532.8" y2="192.4" stroke="#bcc3cd" stroke-width="0.9" opacity="0.18" />
  <line x1="564.9" y1="230.3" x2="501.1" y2="237.0" stroke="#bcc3cd" stroke-width="1.1" opacity="0.31" />
  <line x1="564.9" y1="230.3" x2="527.8" y2="253.4" stroke="#bcc3cd" stroke-width="0.9" opacity="0.20" />
  <line x1="564.9" y1="230.3" x2="518.0" y2="262.2" stroke="#bcc3cd" stroke-width="1.0" opacity="0.24" />
  <line x1="564.9" y1="230.3" x2="575.3" y2="260.2" stroke="#bcc3cd" stroke-width="0.9" opacity="0.20" />
  <line x1="564.9" y1="230.3" x2="555.2" y2="262.3" stroke="#bcc3cd" stroke-width="1.0" opacity="0.24" />
  <line x1="564.9" y1="230.3" x2="547.5" y2="246.4" stroke="#bcc3cd" stroke-width="0.9" opacity="0.18" />
  <line x1="564.9" y1="230.3" x2="721.5" y2="278.9" stroke="#bcc3cd" stroke-width="0.9" opacity="0.17" />
  <line x1="564.9" y1="230.3" x2="509.9" y2="228.9" stroke="#bcc3cd" stroke-width="1.1" opacity="0.31" />
  <line x1="564.9" y1="230.3" x2="532.8" y2="192.4" stroke="#bcc3cd" stroke-width="1.1" opacity="0.30" />
  <line x1="564.9" y1="230.3" x2="522.9" y2="269.1" stroke="#bcc3cd" stroke-width="1.1" opacity="0.31" />
  <line x1="228.0" y1="496.0" x2="255.4" y2="500.0" stroke="#bcc3cd" stroke-width="1.6" opacity="0.60" />
  <line x1="781.8" y1="237.6" x2="635.6" y2="263.3" stroke="#bcc3cd" stroke-width="0.9" opacity="0.18" />
  <line x1="781.8" y1="237.6" x2="864.4" y2="224.6" stroke="#bcc3cd" stroke-width="1.1" opacity="0.28" />
  <line x1="594.8" y1="237.9" x2="603.1" y2="267.6" stroke="#bcc3cd" stroke-width="0.9" opacity="0.17" />
  <line x1="594.8" y1="237.9" x2="635.6" y2="263.3" stroke="#bcc3cd" stroke-width="0.9" opacity="0.18" />
  <line x1="594.8" y1="237.9" x2="573.6" y2="271.6" stroke="#bcc3cd" stroke-width="1.0" opacity="0.22" />
  <line x1="594.8" y1="237.9" x2="575.3" y2="260.2" stroke="#bcc3cd" stroke-width="1.1" opacity="0.28" />
  <line x1="594.8" y1="237.9" x2="591.0" y2="253.6" stroke="#bcc3cd" stroke-width="1.1" opacity="0.32" />
  <line x1="594.8" y1="237.9" x2="555.2" y2="262.3" stroke="#bcc3cd" stroke-width="0.9" opacity="0.20" />
  <line x1="594.8" y1="237.9" x2="610.6" y2="253.2" stroke="#bcc3cd" stroke-width="1.0" opacity="0.22" />
  <line x1="594.8" y1="237.9" x2="529.6" y2="229.3" stroke="#bcc3cd" stroke-width="1.0" opacity="0.22" />
  <line x1="603.1" y1="267.6" x2="635.6" y2="263.3" stroke="#bcc3cd" stroke-width="1.3" opacity="0.42" />
  <line x1="603.1" y1="267.6" x2="627.0" y2="238.5" stroke="#bcc3cd" stroke-width="0.9" opacity="0.18" />
  <line x1="603.1" y1="267.6" x2="607.9" y2="278.9" stroke="#bcc3cd" stroke-width="1.1" opacity="0.31" />
  <line x1="603.1" y1="267.6" x2="573.6" y2="271.6" stroke="#bcc3cd" stroke-width="1.1" opacity="0.32" />
  <line x1="603.1" y1="267.6" x2="547.0" y2="274.4" stroke="#bcc3cd" stroke-width="1.0" opacity="0.23" />
  <line x1="603.1" y1="267.6" x2="575.3" y2="260.2" stroke="#bcc3cd" stroke-width="1.2" opacity="0.39" />
  <line x1="603.1" y1="267.6" x2="591.0" y2="253.6" stroke="#bcc3cd" stroke-width="1.0" opacity="0.26" />
  <line x1="603.1" y1="267.6" x2="555.2" y2="262.3" stroke="#bcc3cd" stroke-width="1.2" opacity="0.34" />
  <line x1="603.1" y1="267.6" x2="547.5" y2="246.4" stroke="#bcc3cd" stroke-width="0.9" opacity="0.19" />
  <line x1="603.1" y1="267.6" x2="610.6" y2="253.2" stroke="#bcc3cd" stroke-width="1.0" opacity="0.25" />
  <line x1="603.1" y1="267.6" x2="522.9" y2="269.1" stroke="#bcc3cd" stroke-width="0.9" opacity="0.17" />
  <line x1="635.6" y1="263.3" x2="627.0" y2="238.5" stroke="#bcc3cd" stroke-width="1.1" opacity="0.33" />
  <line x1="635.6" y1="263.3" x2="607.9" y2="278.9" stroke="#bcc3cd" stroke-width="0.9" opacity="0.21" />
  <line x1="635.6" y1="263.3" x2="573.6" y2="271.6" stroke="#bcc3cd" stroke-width="0.9" opacity="0.18" />
  <line x1="635.6" y1="263.3" x2="575.3" y2="260.2" stroke="#bcc3cd" stroke-width="1.3" opacity="0.41" />
  <line x1="635.6" y1="263.3" x2="591.0" y2="253.6" stroke="#bcc3cd" stroke-width="1.0" opacity="0.22" />
  <line x1="635.6" y1="263.3" x2="555.2" y2="262.3" stroke="#bcc3cd" stroke-width="1.1" opacity="0.31" />
  <line x1="635.6" y1="263.3" x2="610.6" y2="253.2" stroke="#bcc3cd" stroke-width="1.7" opacity="0.66" />
  <line x1="502.6" y1="246.7" x2="501.1" y2="237.0" stroke="#bcc3cd" stroke-width="1.5" opacity="0.55" />
  <line x1="502.6" y1="246.7" x2="527.8" y2="253.4" stroke="#bcc3cd" stroke-width="0.9" opacity="0.18" />
  <line x1="502.6" y1="246.7" x2="518.0" y2="262.2" stroke="#bcc3cd" stroke-width="1.1" opacity="0.28" />
  <line x1="502.6" y1="246.7" x2="575.3" y2="260.2" stroke="#bcc3cd" stroke-width="0.9" opacity="0.18" />
  <line x1="502.6" y1="246.7" x2="555.2" y2="262.3" stroke="#bcc3cd" stroke-width="1.1" opacity="0.28" />
  <line x1="502.6" y1="246.7" x2="480.7" y2="243.7" stroke="#bcc3cd" stroke-width="1.5" opacity="0.55" />
  <line x1="502.6" y1="246.7" x2="529.6" y2="229.3" stroke="#bcc3cd" stroke-width="1.2" opacity="0.37" />
  <line x1="502.6" y1="246.7" x2="509.9" y2="228.9" stroke="#bcc3cd" stroke-width="1.5" opacity="0.55" />
  <line x1="502.6" y1="246.7" x2="522.9" y2="269.1" stroke="#bcc3cd" stroke-width="1.5" opacity="0.55" />
  <line x1="501.1" y1="237.0" x2="518.0" y2="262.2" stroke="#bcc3cd" stroke-width="1.0" opacity="0.22" />
  <line x1="501.1" y1="237.0" x2="555.2" y2="262.3" stroke="#bcc3cd" stroke-width="1.0" opacity="0.22" />
  <line x1="501.1" y1="237.0" x2="480.7" y2="243.7" stroke="#bcc3cd" stroke-width="1.2" opacity="0.37" />
  <line x1="501.1" y1="237.0" x2="529.6" y2="229.3" stroke="#bcc3cd" stroke-width="1.1" opacity="0.28" />
  <line x1="501.1" y1="237.0" x2="509.9" y2="228.9" stroke="#bcc3cd" stroke-width="1.2" opacity="0.37" />
  <line x1="501.1" y1="237.0" x2="522.9" y2="269.1" stroke="#bcc3cd" stroke-width="1.2" opacity="0.37" />
  <line x1="627.0" y1="238.5" x2="575.3" y2="260.2" stroke="#bcc3cd" stroke-width="0.9" opacity="0.18" />
  <line x1="627.0" y1="238.5" x2="591.0" y2="253.6" stroke="#bcc3cd" stroke-width="0.9" opacity="0.18" />
  <line x1="627.0" y1="238.5" x2="555.2" y2="262.3" stroke="#bcc3cd" stroke-width="1.0" opacity="0.22" />
  <line x1="627.0" y1="238.5" x2="610.6" y2="253.2" stroke="#bcc3cd" stroke-width="1.3" opacity="0.41" />
  <line x1="607.9" y1="278.9" x2="573.6" y2="271.6" stroke="#bcc3cd" stroke-width="1.1" opacity="0.31" />
  <line x1="607.9" y1="278.9" x2="575.3" y2="260.2" stroke="#bcc3cd" stroke-width="1.4" opacity="0.47" />
  <line x1="607.9" y1="278.9" x2="591.0" y2="253.6" stroke="#bcc3cd" stroke-width="0.9" opacity="0.19" />
  <line x1="607.9" y1="278.9" x2="555.2" y2="262.3" stroke="#bcc3cd" stroke-width="1.0" opacity="0.22" />
  <line x1="573.6" y1="271.6" x2="547.0" y2="274.4" stroke="#bcc3cd" stroke-width="1.1" opacity="0.29" />
  <line x1="573.6" y1="271.6" x2="527.8" y2="253.4" stroke="#bcc3cd" stroke-width="0.9" opacity="0.17" />
  <line x1="573.6" y1="271.6" x2="518.0" y2="262.2" stroke="#bcc3cd" stroke-width="0.9" opacity="0.20" />
  <line x1="573.6" y1="271.6" x2="575.3" y2="260.2" stroke="#bcc3cd" stroke-width="1.3" opacity="0.40" />
  <line x1="573.6" y1="271.6" x2="591.0" y2="253.6" stroke="#bcc3cd" stroke-width="1.0" opacity="0.24" />
  <line x1="573.6" y1="271.6" x2="555.2" y2="262.3" stroke="#bcc3cd" stroke-width="0.9" opacity="0.20" />
  <line x1="573.6" y1="271.6" x2="522.9" y2="269.1" stroke="#bcc3cd" stroke-width="1.0" opacity="0.24" />
  <line x1="547.0" y1="274.4" x2="518.0" y2="262.2" stroke="#bcc3cd" stroke-width="0.9" opacity="0.18" />
  <line x1="547.0" y1="274.4" x2="591.0" y2="253.6" stroke="#bcc3cd" stroke-width="1.0" opacity="0.23" />
  <line x1="547.0" y1="274.4" x2="555.2" y2="262.3" stroke="#bcc3cd" stroke-width="0.9" opacity="0.18" />
  <line x1="547.0" y1="274.4" x2="547.5" y2="246.4" stroke="#bcc3cd" stroke-width="1.0" opacity="0.24" />
  <line x1="547.0" y1="274.4" x2="522.9" y2="269.1" stroke="#bcc3cd" stroke-width="1.0" opacity="0.22" />
  <line x1="527.8" y1="253.4" x2="518.0" y2="262.2" stroke="#bcc3cd" stroke-width="1.1" opacity="0.28" />
  <line x1="527.8" y1="253.4" x2="575.3" y2="260.2" stroke="#bcc3cd" stroke-width="1.0" opacity="0.22" />
  <line x1="527.8" y1="253.4" x2="555.2" y2="262.3" stroke="#bcc3cd" stroke-width="1.1" opacity="0.28" />
  <line x1="527.8" y1="253.4" x2="547.5" y2="246.4" stroke="#bcc3cd" stroke-width="0.9" opacity="0.20" />
  <line x1="527.8" y1="253.4" x2="522.9" y2="269.1" stroke="#bcc3cd" stroke-width="1.2" opacity="0.37" />
  <line x1="518.0" y1="262.2" x2="575.3" y2="260.2" stroke="#bcc3cd" stroke-width="1.1" opacity="0.28" />
  <line x1="518.0" y1="262.2" x2="555.2" y2="262.3" stroke="#bcc3cd" stroke-width="1.2" opacity="0.37" />
  <line x1="518.0" y1="262.2" x2="480.7" y2="243.7" stroke="#bcc3cd" stroke-width="1.0" opacity="0.22" />
  <line x1="518.0" y1="262.2" x2="547.5" y2="246.4" stroke="#bcc3cd" stroke-width="1.0" opacity="0.24" />
  <line x1="518.0" y1="262.2" x2="529.6" y2="229.3" stroke="#bcc3cd" stroke-width="0.9" opacity="0.18" />
  <line x1="518.0" y1="262.2" x2="509.9" y2="228.9" stroke="#bcc3cd" stroke-width="1.0" opacity="0.22" />
  <line x1="518.0" y1="262.2" x2="522.9" y2="269.1" stroke="#bcc3cd" stroke-width="1.5" opacity="0.55" />
  <line x1="575.3" y1="260.2" x2="591.0" y2="253.6" stroke="#bcc3cd" stroke-width="1.1" opacity="0.29" />
  <line x1="575.3" y1="260.2" x2="555.2" y2="262.3" stroke="#bcc3cd" stroke-width="1.4" opacity="0.47" />
  <line x1="575.3" y1="260.2" x2="547.5" y2="246.4" stroke="#bcc3cd" stroke-width="0.9" opacity="0.20" />
  <line x1="575.3" y1="260.2" x2="610.6" y2="253.2" stroke="#bcc3cd" stroke-width="1.1" opacity="0.31" />
  <line x1="575.3" y1="260.2" x2="529.6" y2="229.3" stroke="#bcc3cd" stroke-width="1.1" opacity="0.31" />
  <line x1="575.3" y1="260.2" x2="522.9" y2="269.1" stroke="#bcc3cd" stroke-width="1.2" opacity="0.37" />
  <line x1="591.0" y1="253.6" x2="555.2" y2="262.3" stroke="#bcc3cd" stroke-width="1.2" opacity="0.34" />
  <line x1="591.0" y1="253.6" x2="610.6" y2="253.2" stroke="#bcc3cd" stroke-width="1.0" opacity="0.25" />
  <line x1="591.0" y1="253.6" x2="529.6" y2="229.3" stroke="#bcc3cd" stroke-width="1.0" opacity="0.25" />
  <line x1="591.0" y1="253.6" x2="522.9" y2="269.1" stroke="#bcc3cd" stroke-width="0.9" opacity="0.17" />
  <line x1="555.2" y1="262.3" x2="480.7" y2="243.7" stroke="#bcc3cd" stroke-width="1.0" opacity="0.22" />
  <line x1="555.2" y1="262.3" x2="547.5" y2="246.4" stroke="#bcc3cd" stroke-width="1.0" opacity="0.24" />
  <line x1="555.2" y1="262.3" x2="610.6" y2="253.2" stroke="#bcc3cd" stroke-width="1.3" opacity="0.44" />
  <line x1="555.2" y1="262.3" x2="529.6" y2="229.3" stroke="#bcc3cd" stroke-width="1.3" opacity="0.44" />
  <line x1="555.2" y1="262.3" x2="509.9" y2="228.9" stroke="#bcc3cd" stroke-width="1.0" opacity="0.22" />
  <line x1="555.2" y1="262.3" x2="522.9" y2="269.1" stroke="#bcc3cd" stroke-width="1.5" opacity="0.55" />
  <line x1="781.2" y1="50.0" x2="808.2" y2="66.4" stroke="#bcc3cd" stroke-width="1.0" opacity="0.22" />
  <line x1="403.7" y1="269.4" x2="522.9" y2="269.1" stroke="#bcc3cd" stroke-width="1.0" opacity="0.22" />
  <line x1="480.7" y1="243.7" x2="529.6" y2="229.3" stroke="#bcc3cd" stroke-width="1.1" opacity="0.28" />
  <line x1="480.7" y1="243.7" x2="509.9" y2="228.9" stroke="#bcc3cd" stroke-width="1.2" opacity="0.37" />
  <line x1="480.7" y1="243.7" x2="522.9" y2="269.1" stroke="#bcc3cd" stroke-width="1.2" opacity="0.37" />
  <line x1="778.1" y1="303.0" x2="741.9" y2="318.1" stroke="#bcc3cd" stroke-width="1.5" opacity="0.55" />
  <line x1="778.1" y1="303.0" x2="721.5" y2="278.9" stroke="#bcc3cd" stroke-width="1.3" opacity="0.41" />
  <line x1="741.9" y1="318.1" x2="721.5" y2="278.9" stroke="#bcc3cd" stroke-width="1.0" opacity="0.24" />
  <line x1="547.5" y1="246.4" x2="522.9" y2="269.1" stroke="#bcc3cd" stroke-width="1.1" opacity="0.31" />
  <line x1="610.6" y1="253.2" x2="529.6" y2="229.3" stroke="#bcc3cd" stroke-width="1.0" opacity="0.22" />
  <line x1="529.6" y1="229.3" x2="478.6" y2="188.1" stroke="#bcc3cd" stroke-width="1.2" opacity="0.37" />
  <line x1="529.6" y1="229.3" x2="464.4" y2="172.1" stroke="#bcc3cd" stroke-width="0.9" opacity="0.18" />
  <line x1="529.6" y1="229.3" x2="509.9" y2="228.9" stroke="#bcc3cd" stroke-width="1.1" opacity="0.28" />
  <line x1="529.6" y1="229.3" x2="522.9" y2="269.1" stroke="#bcc3cd" stroke-width="1.1" opacity="0.28" />
  <line x1="478.6" y1="188.1" x2="464.4" y2="172.1" stroke="#bcc3cd" stroke-width="1.1" opacity="0.28" />
  <line x1="509.9" y1="228.9" x2="532.8" y2="192.4" stroke="#bcc3cd" stroke-width="1.1" opacity="0.31" />
  <line x1="509.9" y1="228.9" x2="522.9" y2="269.1" stroke="#bcc3cd" stroke-width="1.2" opacity="0.37" />
  <circle cx="568.7" cy="305.0" r="15.8" fill="#7f8c8d" opacity="0.88" />
  <circle cx="526.0" cy="346.2" r="16" fill="#7f8c8d" opacity="0.88" />
  <circle cx="542.2" cy="305.9" r="13.1" fill="#e67e22" opacity="0.88" />
  <circle cx="480.0" cy="282.0" r="13.1" fill="#e67e22" opacity="0.88" />
  <circle cx="558.5" cy="341.2" r="8.6" fill="#3498db" opacity="0.88" />
  <circle cx="567.7" cy="390.3" r="11.3" fill="#3498db" opacity="0.88" />
  <circle cx="632.4" cy="332.4" r="16" fill="#2ecc71" opacity="0.88" />
  <circle cx="544.6" cy="295.7" r="12.2" fill="#3498db" opacity="0.88" />
  <circle cx="624.1" cy="304.8" r="16" fill="#3498db" opacity="0.88" />
  <circle cx="514.5" cy="366.8" r="12.2" fill="#7f8c8d" opacity="0.88" />
  <circle cx="542.0" cy="325.1" r="14.9" fill="#7f8c8d" opacity="0.88" />
  <circle cx="540.2" cy="379.3" r="9.5" fill="#7f8c8d" opacity="0.88" />
  <circle cx="583.5" cy="328.3" r="14.9" fill="#3498db" opacity="0.88" />
  <circle cx="589.7" cy="292.1" r="16" fill="#7f8c8d" opacity="0.88" />
  <circle cx="653.0" cy="284.5" r="16" fill="#e74c3c" opacity="0.88" />
  <circle cx="638.9" cy="246.4" r="16" fill="#9b59b6" opacity="0.88" />
  <circle cx="528.1" cy="300.8" r="14.0" fill="#3498db" opacity="0.88" />
  <circle cx="512.6" cy="298.8" r="14.0" fill="#3498db" opacity="0.88" />
  <circle cx="573.5" cy="185.9" r="10.4" fill="#e74c3c" opacity="0.88" />
  <circle cx="910.0" cy="97.0" r="12.2" fill="#3498db" opacity="0.88" />
  <circle cx="564.9" cy="230.3" r="10.4" fill="#e74c3c" opacity="0.88" />
  <circle cx="228.0" cy="496.0" r="12.2" fill="#3498db" opacity="0.88" />
  <circle cx="255.4" cy="500.0" r="11.3" fill="#3498db" opacity="0.88" />
  <circle cx="781.8" cy="237.6" r="5.9" fill="#3498db" opacity="0.88" />
  <circle cx="594.8" cy="237.9" r="12.2" fill="#9b59b6" opacity="0.88" />
  <circle cx="603.1" cy="267.6" r="15.8" fill="#9b59b6" opacity="0.88" />
  <circle cx="635.6" cy="263.3" r="8.6" fill="#9b59b6" opacity="0.88" />
  <circle cx="502.6" cy="246.7" r="5" fill="#2ecc71" opacity="0.88" />
  <circle cx="501.1" cy="237.0" r="5.9" fill="#7f8c8d" opacity="0.88" />
  <circle cx="627.0" cy="238.5" r="11.3" fill="#e67e22" opacity="0.88" />
  <circle cx="607.9" cy="278.9" r="16" fill="#2ecc71" opacity="0.88" />
  <circle cx="864.4" cy="224.6" r="6.8" fill="#9b59b6" opacity="0.88" />
  <circle cx="99.8" cy="392.5" r="5" fill="#7f8c8d" opacity="0.88" />
  <circle cx="573.6" cy="271.6" r="12.2" fill="#3498db" opacity="0.88" />
  <circle cx="547.0" cy="274.4" r="13.1" fill="#7f8c8d" opacity="0.88" />
  <circle cx="527.8" cy="253.4" r="9.5" fill="#7f8c8d" opacity="0.88" />
  <circle cx="50.0" cy="313.9" r="5" fill="#7f8c8d" opacity="0.88" />
  <circle cx="518.0" cy="262.2" r="7.7" fill="#7f8c8d" opacity="0.88" />
  <circle cx="575.3" cy="260.2" r="9.5" fill="#7f8c8d" opacity="0.88" />
  <circle cx="591.0" cy="253.6" r="15.8" fill="#2ecc71" opacity="0.88" />
  <circle cx="555.2" cy="262.3" r="7.7" fill="#7f8c8d" opacity="0.88" />
  <circle cx="781.2" cy="50.0" r="7.7" fill="#7f8c8d" opacity="0.88" />
  <circle cx="403.7" cy="269.4" r="7.7" fill="#3498db" opacity="0.88" />
  <circle cx="480.7" cy="243.7" r="5.9" fill="#7f8c8d" opacity="0.88" />
  <circle cx="778.1" cy="303.0" r="6.8" fill="#e67e22" opacity="0.88" />
  <circle cx="741.9" cy="318.1" r="6.8" fill="#e67e22" opacity="0.88" />
  <circle cx="547.5" cy="246.4" r="10.4" fill="#7f8c8d" opacity="0.88" />
  <circle cx="721.5" cy="278.9" r="11.3" fill="#e67e22" opacity="0.88" />
  <circle cx="808.2" cy="66.4" r="5.9" fill="#7f8c8d" opacity="0.88" />
  <circle cx="610.6" cy="253.2" r="6.8" fill="#7f8c8d" opacity="0.88" />
  <circle cx="529.6" cy="229.3" r="6.8" fill="#7f8c8d" opacity="0.88" />
  <circle cx="478.6" cy="188.1" r="5" fill="#2ecc71" opacity="0.88" />
  <circle cx="464.4" cy="172.1" r="7.7" fill="#2ecc71" opacity="0.88" />
  <circle cx="509.9" cy="228.9" r="5.9" fill="#e74c3c" opacity="0.88" />
  <circle cx="532.8" cy="192.4" r="10.4" fill="#e74c3c" opacity="0.88" />
  <circle cx="522.9" cy="269.1" r="5.9" fill="#7f8c8d" opacity="0.88" />
  <circle cx="903.6" cy="493.2" r="5" fill="#7f8c8d" opacity="0.88" />
  <rect x="586.5" y="360.9" width="124.4" height="15" fill="#ffffff" opacity="0.75" rx="2" />
  <text x="587.5" y="371.9" font-family="system-ui, -apple-system, sans-serif" font-size="12" fill="#1f2328" text-anchor="start">tinyland-huskycat</text>
  <rect x="544.0" y="402.3" width="74.0" height="15" fill="#ffffff" opacity="0.75" rx="2" />
  <text x="545.0" y="413.3" font-family="system-ui, -apple-system, sans-serif" font-size="12" fill="#1f2328" text-anchor="start">tummycrypt</text>
  <rect x="557.3" y="207.8" width="45.2" height="15" fill="#ffffff" opacity="0.75" rx="2" />
  <text x="558.3" y="218.8" font-family="system-ui, -apple-system, sans-serif" font-size="12" fill="#1f2328" text-anchor="start">XoxdWM</text>
  <rect x="495.1" y="288.9" width="110.0" height="15" fill="#ffffff" opacity="0.75" rx="2" />
  <text x="496.1" y="299.9" font-family="system-ui, -apple-system, sans-serif" font-size="12" fill="#1f2328" text-anchor="start">hiberpower-ntfs</text>
  <rect x="569.1" y="391.5" width="16.4" height="15" fill="#ffffff" opacity="0.75" rx="2" />
  <text x="570.1" y="402.5" font-family="system-ui, -apple-system, sans-serif" font-size="12" fill="#1f2328" text-anchor="start">pp</text>
  <rect x="581.0" y="448.1" width="117.2" height="15" fill="#ffffff" opacity="0.75" rx="2" />
  <text x="582.0" y="459.1" font-family="system-ui, -apple-system, sans-serif" font-size="12" fill="#1f2328" text-anchor="start">tinyland-cleanup</text>
  <rect x="650.4" y="396.9" width="59.6" height="15" fill="#ffffff" opacity="0.75" rx="2" />
  <text x="651.4" y="407.9" font-family="system-ui, -apple-system, sans-serif" font-size="12" fill="#1f2328" text-anchor="start">gnucashr</text>
  <rect x="558.8" y="355.9" width="66.8" height="15" fill="#ffffff" opacity="0.75" rx="2" />
  <text x="559.8" y="366.9" font-family="system-ui, -apple-system, sans-serif" font-size="12" fill="#1f2328" text-anchor="start">betterkvm</text>
  <rect x="642.1" y="381.8" width="117.2" height="15" fill="#ffffff" opacity="0.75" rx="2" />
  <text x="643.1" y="392.8" font-family="system-ui, -apple-system, sans-serif" font-size="12" fill="#1f2328" text-anchor="start">GloriousFlywheel</text>
  <rect x="528.7" y="419.3" width="131.6" height="15" fill="#ffffff" opacity="0.75" rx="2" />
  <text x="529.7" y="430.3" font-family="system-ui, -apple-system, sans-serif" font-size="12" fill="#1f2328" text-anchor="start">aperture-bootstrap</text>
  <rect x="558.9" y="374.5" width="81.2" height="15" fill="#ffffff" opacity="0.75" rx="2" />
  <text x="559.9" y="385.5" font-family="system-ui, -apple-system, sans-serif" font-size="12" fill="#1f2328" text-anchor="start">tailnet-acl</text>
  <rect x="551.7" y="433.5" width="88.4" height="15" fill="#ffffff" opacity="0.75" rx="2" />
  <text x="552.7" y="444.5" font-family="system-ui, -apple-system, sans-serif" font-size="12" fill="#1f2328" text-anchor="start">waifu-mirror</text>
  <rect x="600.4" y="241.9" width="102.8" height="15" fill="#ffffff" opacity="0.75" rx="2" />
  <text x="601.4" y="252.9" font-family="system-ui, -apple-system, sans-serif" font-size="12" fill="#1f2328" text-anchor="start">tinyland-infra</text>
  <rect x="607.7" y="315.0" width="52.4" height="15" fill="#ffffff" opacity="0.75" rx="2" />
  <text x="608.7" y="326.0" font-family="system-ui, -apple-system, sans-serif" font-size="12" fill="#1f2328" text-anchor="start">LA-Mesh</text>
  <rect x="671.0" y="316.9" width="131.6" height="15" fill="#ffffff" opacity="0.75" rx="2" />
  <text x="672.0" y="327.9" font-family="system-ui, -apple-system, sans-serif" font-size="12" fill="#1f2328" text-anchor="start">pixelwise-research</text>
  <rect x="656.9" y="134.3" width="95.6" height="15" fill="#ffffff" opacity="0.75" rx="2" />
  <text x="657.9" y="145.3" font-family="system-ui, -apple-system, sans-serif" font-size="12" fill="#1f2328" text-anchor="start">GIS_Shortcuts</text>
  <rect x="544.1" y="345.4" width="138.8" height="15" fill="#ffffff" opacity="0.75" rx="2" />
  <text x="545.1" y="356.4" font-family="system-ui, -apple-system, sans-serif" font-size="12" fill="#1f2328" text-anchor="start">Ansible-DAG-Harness</text>
  <rect x="528.6" y="284.2" width="95.6" height="15" fill="#ffffff" opacity="0.75" rx="2" />
  <text x="529.6" y="295.2" font-family="system-ui, -apple-system, sans-serif" font-size="12" fill="#1f2328" text-anchor="start">DarwinNicUtil</text>
  <rect x="585.9" y="102.7" width="66.8" height="15" fill="#ffffff" opacity="0.75" rx="2" />
  <text x="586.9" y="113.7" font-family="system-ui, -apple-system, sans-serif" font-size="12" fill="#1f2328" text-anchor="start">quickchpl</text>
  <rect x="764.2" y="90.2" width="131.6" height="15" fill="#ffffff" opacity="0.75" rx="2" />
  <text x="894.8" y="101.2" font-family="system-ui, -apple-system, sans-serif" font-size="12" fill="#1f2328" text-anchor="end">tinyscale-mikrotik</text>
  <rect x="577.3" y="148.0" width="59.6" height="15" fill="#ffffff" opacity="0.75" rx="2" />
  <text x="578.3" y="159.0" font-family="system-ui, -apple-system, sans-serif" font-size="12" fill="#1f2328" text-anchor="start">aoc-2025</text>
  <rect x="242.2" y="482.7" width="66.8" height="15" fill="#ffffff" opacity="0.75" rx="2" />
  <text x="243.2" y="493.7" font-family="system-ui, -apple-system, sans-serif" font-size="12" fill="#1f2328" text-anchor="start">searchies</text>
  <rect x="268.7" y="499.7" width="59.6" height="15" fill="#ffffff" opacity="0.75" rx="2" />
  <text x="269.7" y="510.7" font-family="system-ui, -apple-system, sans-serif" font-size="12" fill="#1f2328" text-anchor="start">ts-caddy</text>
  <rect x="789.7" y="232.8" width="66.8" height="15" fill="#ffffff" opacity="0.75" rx="2" />
  <text x="790.7" y="243.8" font-family="system-ui, -apple-system, sans-serif" font-size="12" fill="#1f2328" text-anchor="start">HCI-notes</text>
  <rect x="609.0" y="201.9" width="88.4" height="15" fill="#ffffff" opacity="0.75" rx="2" />
  <text x="610.0" y="212.9" font-family="system-ui, -apple-system, sans-serif" font-size="12" fill="#1f2328" text-anchor="start">FastPhotoAPI</text>
  <rect x="620.9" y="211.8" width="81.2" height="15" fill="#ffffff" opacity="0.75" rx="2" />
  <text x="621.9" y="222.8" font-family="system-ui, -apple-system, sans-serif" font-size="12" fill="#1f2328" text-anchor="start">timberbuddy</text>
  <rect x="646.2" y="271.1" width="81.2" height="15" fill="#ffffff" opacity="0.75" rx="2" />
  <text x="647.2" y="282.1" font-family="system-ui, -apple-system, sans-serif" font-size="12" fill="#1f2328" text-anchor="start">tetrahedron</text>
  <rect x="509.6" y="311.2" width="95.6" height="15" fill="#ffffff" opacity="0.75" rx="2" />
  <text x="510.6" y="322.2" font-family="system-ui, -apple-system, sans-serif" font-size="12" fill="#1f2328" text-anchor="start">AccuWixReport</text>
  <rect x="509.0" y="198.4" width="95.6" height="15" fill="#ffffff" opacity="0.75" rx="2" />
  <text x="510.0" y="209.4" font-family="system-ui, -apple-system, sans-serif" font-size="12" fill="#1f2328" text-anchor="start">Jess-AOC-2023</text>
  <rect x="640.3" y="149.3" width="81.2" height="15" fill="#ffffff" opacity="0.75" rx="2" />
  <text x="641.3" y="160.3" font-family="system-ui, -apple-system, sans-serif" font-size="12" fill="#1f2328" text-anchor="start">TurkeyProbe</text>
  <rect x="625.9" y="283.3" width="153.2" height="15" fill="#ffffff" opacity="0.75" rx="2" />
  <text x="626.9" y="294.3" font-family="system-ui, -apple-system, sans-serif" font-size="12" fill="#1f2328" text-anchor="start">MerlinAI-Interpreters</text>
  <rect x="745.6" y="217.7" width="110.0" height="15" fill="#ffffff" opacity="0.75" rx="2" />
  <text x="854.6" y="228.7" font-family="system-ui, -apple-system, sans-serif" font-size="12" fill="#1f2328" text-anchor="end">IntroTypeScript</text>
  <rect x="106.8" y="385.7" width="110.0" height="15" fill="#ffffff" opacity="0.75" rx="2" />
  <text x="107.8" y="396.7" font-family="system-ui, -apple-system, sans-serif" font-size="12" fill="#1f2328" text-anchor="start">IG-3DP-Profiles</text>
  <rect x="587.8" y="256.6" width="66.8" height="15" fill="#ffffff" opacity="0.75" rx="2" />
  <text x="588.8" y="267.6" font-family="system-ui, -apple-system, sans-serif" font-size="12" fill="#1f2328" text-anchor="start">DLA-Flask</text>
  <rect x="562.1" y="222.7" width="38.0" height="15" fill="#ffffff" opacity="0.75" rx="2" />
  <text x="563.1" y="233.7" font-family="system-ui, -apple-system, sans-serif" font-size="12" fill="#1f2328" text-anchor="start">USBoN</text>
  <rect x="539.3" y="117.2" width="203.6" height="15" fill="#ffffff" opacity="0.75" rx="2" />
  <text x="540.3" y="128.2" font-family="system-ui, -apple-system, sans-serif" font-size="12" fill="#1f2328" text-anchor="start">chrome-remote-desktop-budgie</text>
  <rect x="57.0" y="307.1" width="124.4" height="15" fill="#ffffff" opacity="0.75" rx="2" />
  <text x="58.0" y="318.1" font-family="system-ui, -apple-system, sans-serif" font-size="12" fill="#1f2328" text-anchor="start">OminousBeepingApp</text>
  <rect x="527.7" y="162.6" width="138.8" height="15" fill="#ffffff" opacity="0.75" rx="2" />
  <text x="528.7" y="173.6" font-family="system-ui, -apple-system, sans-serif" font-size="12" fill="#1f2328" text-anchor="start">mo-image-identifier</text>
  <rect x="586.8" y="230.5" width="196.4" height="15" fill="#ffffff" opacity="0.75" rx="2" />
  <text x="587.8" y="241.5" font-family="system-ui, -apple-system, sans-serif" font-size="12" fill="#1f2328" text-anchor="start">squirrel-leaflet-annotation</text>
  <rect x="608.8" y="228.8" width="74.0" height="15" fill="#ffffff" opacity="0.75" rx="2" />
  <text x="609.8" y="239.8" font-family="system-ui, -apple-system, sans-serif" font-size="12" fill="#1f2328" text-anchor="start">Shiny-Apps</text>
  <rect x="564.9" y="300.3" width="138.8" height="15" fill="#ffffff" opacity="0.75" rx="2" />
  <text x="565.9" y="311.3" font-family="system-ui, -apple-system, sans-serif" font-size="12" fill="#1f2328" text-anchor="start">bbox-jest-puppeteer</text>
  <rect x="790.9" y="43.2" width="88.4" height="15" fill="#ffffff" opacity="0.75" rx="2" />
  <text x="791.9" y="54.2" font-family="system-ui, -apple-system, sans-serif" font-size="12" fill="#1f2328" text-anchor="start">DoverDisplay</text>
  <rect x="413.4" y="285.8" width="81.2" height="15" fill="#ffffff" opacity="0.75" rx="2" />
  <text x="414.4" y="296.8" font-family="system-ui, -apple-system, sans-serif" font-size="12" fill="#1f2328" text-anchor="start">LeafletSync</text>
  <rect x="488.6" y="187.5" width="167.6" height="15" fill="#ffffff" opacity="0.75" rx="2" />
  <text x="489.6" y="198.5" font-family="system-ui, -apple-system, sans-serif" font-size="12" fill="#1f2328" text-anchor="start">misc-roi-distance-notes</text>
  <rect x="786.9" y="332.0" width="138.8" height="15" fill="#ffffff" opacity="0.75" rx="2" />
  <text x="787.9" y="343.0" font-family="system-ui, -apple-system, sans-serif" font-size="12" fill="#1f2328" text-anchor="start">Arduino_Coil_Winder</text>
  <rect x="750.7" y="332.0" width="30.8" height="15" fill="#ffffff" opacity="0.75" rx="2" />
  <text x="751.7" y="343.0" font-family="system-ui, -apple-system, sans-serif" font-size="12" fill="#1f2328" text-anchor="start">momo</text>
  <rect x="559.9" y="328.2" width="38.0" height="15" fill="#ffffff" opacity="0.75" rx="2" />
  <text x="560.9" y="339.2" font-family="system-ui, -apple-system, sans-serif" font-size="12" fill="#1f2328" text-anchor="start">clipi</text>
  <rect x="734.8" y="255.3" width="110.0" height="15" fill="#ffffff" opacity="0.75" rx="2" />
  <text x="735.8" y="266.3" font-family="system-ui, -apple-system, sans-serif" font-size="12" fill="#1f2328" text-anchor="start">AeroTaz5_hotfix</text>
  <rect x="690.3" y="59.6" width="110.0" height="15" fill="#ffffff" opacity="0.75" rx="2" />
  <text x="799.3" y="70.6" font-family="system-ui, -apple-system, sans-serif" font-size="12" fill="#1f2328" text-anchor="end">Funmat-HT-Notes</text>
  <rect x="619.4" y="328.4" width="81.2" height="15" fill="#ffffff" opacity="0.75" rx="2" />
  <text x="620.4" y="339.4" font-family="system-ui, -apple-system, sans-serif" font-size="12" fill="#1f2328" text-anchor="start">static-site</text>
  <rect x="538.4" y="170.5" width="95.6" height="15" fill="#ffffff" opacity="0.75" rx="2" />
  <text x="539.4" y="181.5" font-family="system-ui, -apple-system, sans-serif" font-size="12" fill="#1f2328" text-anchor="start">Flask-Manager</text>
  <rect x="485.6" y="247.5" width="110.0" height="15" fill="#ffffff" opacity="0.75" rx="2" />
  <text x="486.6" y="258.5" font-family="system-ui, -apple-system, sans-serif" font-size="12" fill="#1f2328" text-anchor="start">FieldProcessing</text>
  <rect x="474.1" y="104.6" width="81.2" height="15" fill="#ffffff" opacity="0.75" rx="2" />
  <text x="475.1" y="115.6" font-family="system-ui, -apple-system, sans-serif" font-size="12" fill="#1f2328" text-anchor="start">rJDKmanager</text>
  <rect x="517.8" y="148.4" width="59.6" height="15" fill="#ffffff" opacity="0.75" rx="2" />
  <text x="518.8" y="159.4" font-family="system-ui, -apple-system, sans-serif" font-size="12" fill="#1f2328" text-anchor="start">tagnotes</text>
  <rect x="545.2" y="131.4" width="81.2" height="15" fill="#ffffff" opacity="0.75" rx="2" />
  <text x="546.2" y="142.4" font-family="system-ui, -apple-system, sans-serif" font-size="12" fill="#1f2328" text-anchor="start">ChapelTests</text>
  <rect x="530.8" y="273.6" width="88.4" height="15" fill="#ffffff" opacity="0.75" rx="2" />
  <text x="531.8" y="284.6" font-family="system-ui, -apple-system, sans-serif" font-size="12" fill="#1f2328" text-anchor="start">Xfinity-WiFi</text>
  <rect x="829.8" y="486.4" width="66.8" height="15" fill="#ffffff" opacity="0.75" rx="2" />
  <text x="895.6" y="497.4" font-family="system-ui, -apple-system, sans-serif" font-size="12" fill="#1f2328" text-anchor="end">home-wiki</text>
  <rect x="793" y="36" width="155" height="120" rx="6" fill="#f6f8fa" stroke="#d0d7de" stroke-width="1" opacity="0.95" />
  <circle cx="810" cy="52" r="5" fill="#e74c3c" opacity="0.88" />
  <text x="820" y="56" font-family="system-ui, -apple-system, sans-serif" font-size="10" fill="#1f2328">Languages &amp; Compilers</text>
  <circle cx="810" cy="69" r="5" fill="#3498db" opacity="0.88" />
  <text x="820" y="73" font-family="system-ui, -apple-system, sans-serif" font-size="10" fill="#1f2328">Infrastructure &amp; DevOps</text>
  <circle cx="810" cy="86" r="5" fill="#e67e22" opacity="0.88" />
  <text x="820" y="90" font-family="system-ui, -apple-system, sans-serif" font-size="10" fill="#1f2328">Hardware &amp; Maker</text>
  <circle cx="810" cy="103" r="5" fill="#2ecc71" opacity="0.88" />
  <text x="820" y="107" font-family="system-ui, -apple-system, sans-serif" font-size="10" fill="#1f2328">ML &amp; Data</text>
  <circle cx="810" cy="120" r="5" fill="#9b59b6" opacity="0.88" />
  <text x="820" y="124" font-family="system-ui, -apple-system, sans-serif" font-size="10" fill="#1f2328">Web &amp; Apps</text>
  <circle cx="810" cy="137" r="5" fill="#7f8c8d" opacity="0.88" />
  <text x="820" y="141" font-family="system-ui, -apple-system, sans-serif" font-size="10" fill="#1f2328">Other</text>
  <text x="870" y="150" font-family="system-ui, -apple-system, sans-serif" font-size="8" fill="#656d76" text-anchor="middle">57 repos · 219 edges</text>
</svg>