<svg xmlns="http://www.w3.org/2000/svg" width="960" height="600" viewBox="0 0 960 600">
  <rect width="960" height="600" fill="#ffffff" rx="8" />
  <text x="480" y="24" font-family="system-ui, -apple-system, sans-serif" font-size="13" fill="#656d76" text-anchor="middle" font-weight="500">Repo Relationship Graph &#x2014; Pairwise Topic &amp; Language Similarity</text>
  <line x1="50" y1="550" x2="910" y2="550" stroke="#d0d7de" stroke-width="0.5" opacity="0.5" />
  <text x="50" y="570" font-family="system-ui, -apple-system, sans-serif" font-size="9" fill="#656d76" opacity="0.6">Updated daily by GitHub Actions</text>
  <text x="50" y="588" font-family="system-ui, -apple-system, sans-serif" font-size="9" fill="#656d76" opacity="0.6">networkx spring_layout · Jaccard similarity &gt; 0.15</text>
  <text x="910" y="570" font-family="system-ui, -apple-system, sans-serif" font-size="9" fill="#656d76" text-anchor="end" opacity="0.6">58 repos · 231 edges</text>
  <line x1="660.4" y1="199.1" x2="619.3" y2="228.4" stroke="#bcc3cd" stroke-width="1.0" opacity="0.22" />
  <line x1="660.4" y1="199.1" x2="588.1" y2="212.4" stroke="#bcc3cd" stroke-width="0.9" opacity="0.18" />
  <line x1="660.4" y1="199.1" x2="687.5" y2="199.9" stroke="#bcc3cd" stroke-width="1.0" opacity="0.24" />
  <line x1="660.4" y1="199.1" x2="667.8" y2="224.8" stroke="#bcc3cd" stroke-width="0.9" opacity="0.20" />
  <line x1="660.4" y1="199.1" x2="654.7" y2="221.7" stroke="#bcc3cd" stroke-width="0.9" opacity="0.21" />
  <line x1="660.4" y1="199.1" x2="620.1" y2="208.0" stroke="#bcc3cd" stroke-width="0.9" opacity="0.21" />
  <line x1="660.4" y1="199.1" x2="660.5" y2="181.8" stroke="#bcc3cd" stroke-width="1.1" opacity="0.30" />
  <line x1="660.4" y1="199.1" x2="679.0" y2="207.8" stroke="#bcc3cd" stroke-width="1.0" opacity="0.23" />
  <line x1="660.4" y1="199.1" x2="700.3" y2="205.3" stroke="#bcc3cd" stroke-width="1.0" opacity="0.22" />
  <line x1="660.4" y1="199.1" x2="706.6" y2="214.5" stroke="#bcc3cd" stroke-width="1.0" opacity="0.22" />
  <line x1="660.4" y1="199.1" x2="662.4" y2="163.7" stroke="#bcc3cd" stroke-width="0.9" opacity="0.19" />
  <line x1="660.4" y1="199.1" x2="709.2" y2="162.6" stroke="#bcc3cd" stroke-width="0.9" opacity="0.21" />
  <line x1="660.4" y1="199.1" x2="720.8" y2="171.1" stroke="#bcc3cd" stroke-width="1.0" opacity="0.24" />
  <line x1="660.4" y1="199.1" x2="735.1" y2="188.5" stroke="#bcc3cd" stroke-width="0.9" opacity="0.17" />
  <line x1="619.3" y1="228.4" x2="537.9" y2="255.6" stroke="#bcc3cd" stroke-width="1.1" opacity="0.33" />
  <line x1="619.3" y1="228.4" x2="588.1" y2="212.4" stroke="#bcc3cd" stroke-width="0.9" opacity="0.19" />
  <line x1="619.3" y1="228.4" x2="687.5" y2="199.9" stroke="#bcc3cd" stroke-width="0.9" opacity="0.18" />
  <line x1="619.3" y1="228.4" x2="631.3" y2="259.4" stroke="#bcc3cd" stroke-width="0.9" opacity="0.18" />
  <line x1="619.3" y1="228.4" x2="584.4" y2="262.0" stroke="#bcc3cd" stroke-width="1.3" opacity="0.41" />
  <line x1="619.3" y1="228.4" x2="620.1" y2="208.0" stroke="#bcc3cd" stroke-width="1.0" opacity="0.24" />
  <line x1="619.3" y1="228.4" x2="660.5" y2="181.8" stroke="#bcc3cd" stroke-width="0.9" opacity="0.19" />
  <line x1="619.3" y1="228.4" x2="679.0" y2="207.8" stroke="#bcc3cd" stroke-width="0.9" opacity="0.17" />
  <line x1="619.3" y1="228.4" x2="735.1" y2="188.5" stroke="#bcc3cd" stroke-width="0.9" opacity="0.18" />
  <line x1="537.9" y1="255.6" x2="584.4" y2="262.0" stroke="#bcc3cd" stroke-width="0.9" opacity="0.18" />
  <line x1="588.1" y1="212.4" x2="667.8" y2="224.8" stroke="#bcc3cd" stroke-width="1.0" opacity="0.24" />
  <line x1="588.1" y1="212.4" x2="654.7" y2="221.7" stroke="#bcc3cd" stroke-width="0.9" opacity="0.19" />
  <line x1="588.1" y1="212.4" x2="634.3" y2="238.1" stroke="#bcc3cd" stroke-width="0.9" opacity="0.17" />
  <line x1="588.1" y1="212.4" x2="620.1" y2="208.0" stroke="#bcc3cd" stroke-width="0.9" opacity="0.19" />
  <line x1="588.1" y1="212.4" x2="660.5" y2="181.8" stroke="#bcc3cd" stroke-width="0.9" opacity="0.17" />
  <line x1="588.1" y1="212.4" x2="491.5" y2="185.1" stroke="#bcc3cd" stroke-width="1.0" opacity="0.22" />
  <line x1="687.5" y1="199.9" x2="667.8" y2="224.8" stroke="#bcc3cd" stroke-width="1.0" opacity="0.24" />
  <line x1="687.5" y1="199.9" x2="654.7" y2="221.7" stroke="#bcc3cd" stroke-width="1.0" opacity="0.26" />
  <line x1="687.5" y1="199.9" x2="620.1" y2="208.0" stroke="#bcc3cd" stroke-width="0.9" opacity="0.18" />
  <line x1="687.5" y1="199.9" x2="660.5" y2="181.8" stroke="#bcc3cd" stroke-width="1.0" opacity="0.22" />
  <line x1="687.5" y1="199.9" x2="679.0" y2="207.8" stroke="#bcc3cd" stroke-width="1.1" opacity="0.29" />
  <line x1="687.5" y1="199.9" x2="700.3" y2="205.3" stroke="#bcc3cd" stroke-width="1.1" opacity="0.28" />
  <line x1="687.5" y1="199.9" x2="706.6" y2="214.5" stroke="#bcc3cd" stroke-width="1.1" opacity="0.28" />
  <line x1="687.5" y1="199.9" x2="757.4" y2="176.3" stroke="#bcc3cd" stroke-width="0.9" opacity="0.17" />
  <line x1="687.5" y1="199.9" x2="750.1" y2="185.1" stroke="#bcc3cd" stroke-width="0.9" opacity="0.20" />
  <line x1="687.5" y1="199.9" x2="709.2" y2="162.6" stroke="#bcc3cd" stroke-width="0.9" opacity="0.17" />
  <line x1="687.5" y1="199.9" x2="720.8" y2="171.1" stroke="#bcc3cd" stroke-width="0.9" opacity="0.20" />
  <line x1="687.5" y1="199.9" x2="735.1" y2="188.5" stroke="#bcc3cd" stroke-width="1.0" opacity="0.24" />
  <line x1="667.8" y1="224.8" x2="631.3" y2="259.4" stroke="#bcc3cd" stroke-width="0.9" opacity="0.17" />
  <line x1="667.8" y1="224.8" x2="654.7" y2="221.7" stroke="#bcc3cd" stroke-width="1.1" opacity="0.28" />
  <line x1="667.8" y1="224.8" x2="634.3" y2="238.1" stroke="#bcc3cd" stroke-width="1.0" opacity="0.24" />
  <line x1="667.8" y1="224.8" x2="660.5" y2="181.8" stroke="#bcc3cd" stroke-width="0.9" opacity="0.18" />
  <line x1="667.8" y1="224.8" x2="679.0" y2="207.8" stroke="#bcc3cd" stroke-width="1.0" opacity="0.23" />
  <line x1="667.8" y1="224.8" x2="700.3" y2="205.3" stroke="#bcc3cd" stroke-width="1.0" opacity="0.22" />
  <line x1="667.8" y1="224.8" x2="706.6" y2="214.5" stroke="#bcc3cd" stroke-width="1.0" opacity="0.22" />
  <line x1="667.8" y1="224.8" x2="735.1" y2="188.5" stroke="#bcc3cd" stroke-width="0.9" opacity="0.17" />
  <line x1="618.4" y1="175.7" x2="620.1" y2="208.0" stroke="#bcc3cd" stroke-width="1.2" opacity="0.38" />
  <line x1="618.4" y1="175.7" x2="660.5" y2="181.8" stroke="#bcc3cd" stroke-width="1.2" opacity="0.34" />
  <line x1="618.4" y1="175.7" x2="679.0" y2="207.8" stroke="#bcc3cd" stroke-width="0.9" opacity="0.18" />
  <line x1="618.4" y1="175.7" x2="621.7" y2="150.1" stroke="#bcc3cd" stroke-width="1.0" opacity="0.25" />
  <line x1="618.4" y1="175.7" x2="680.8" y2="156.5" stroke="#bcc3cd" stroke-width="0.9" opacity="0.20" />
  <line x1="618.4" y1="175.7" x2="659.6" y2="143.1" stroke="#bcc3cd" stroke-width="1.0" opacity="0.22" />
  <line x1="631.3" y1="259.4" x2="654.7" y2="221.7" stroke="#bcc3cd" stroke-width="1.2" opacity="0.34" />
  <line x1="631.3" y1="259.4" x2="584.4" y2="262.0" stroke="#bcc3cd" stroke-width="0.9" opacity="0.17" />
  <line x1="654.7" y1="221.7" x2="634.3" y2="238.1" stroke="#bcc3cd" stroke-width="0.9" opacity="0.19" />
  <line x1="654.7" y1="221.7" x2="620.1" y2="208.0" stroke="#bcc3cd" stroke-width="1.0" opacity="0.22" />
  <line x1="654.7" y1="221.7" x2="660.5" y2="181.8" stroke="#bcc3cd" stroke-width="0.9" opacity="0.19" />
  <line x1="654.7" y1="221.7" x2="679.0" y2="207.8" stroke="#bcc3cd" stroke-width="1.0" opacity="0.24" />
  <line x1="654.7" y1="221.7" x2="700.3" y2="205.3" stroke="#bcc3cd" stroke-width="1.0" opacity="0.23" />
  <line x1="654.7" y1="221.7" x2="706.6" y2="214.5" stroke="#bcc3cd" stroke-width="1.0" opacity="0.23" />
  <line x1="654.7" y1="221.7" x2="735.1" y2="188.5" stroke="#bcc3cd" stroke-width="0.9" opacity="0.18" />
  <line x1="634.3" y1="238.1" x2="584.4" y2="262.0" stroke="#bcc3cd" stroke-width="0.9" opacity="0.18" />
  <line x1="634.3" y1="238.1" x2="620.1" y2="208.0" stroke="#bcc3cd" stroke-width="1.0" opacity="0.25" />
  <line x1="634.3" y1="238.1" x2="679.0" y2="207.8" stroke="#bcc3cd" stroke-width="0.9" opacity="0.21" />
  <line x1="634.3" y1="238.1" x2="700.3" y2="205.3" stroke="#bcc3cd" stroke-width="0.9" opacity="0.20" />
  <line x1="620.1" y1="208.0" x2="660.5" y2="181.8" stroke="#bcc3cd" stroke-width="0.9" opacity="0.19" />
  <line x1="620.1" y1="208.0" x2="679.0" y2="207.8" stroke="#bcc3cd" stroke-width="0.9" opacity="0.17" />
  <line x1="660.5" y1="181.8" x2="679.0" y2="207.8" stroke="#bcc3cd" stroke-width="1.1" opacity="0.28" />
  <line x1="660.5" y1="181.8" x2="621.7" y2="150.1" stroke="#bcc3cd" stroke-width="1.2" opacity="0.34" />
  <line x1="660.5" y1="181.8" x2="700.3" y2="205.3" stroke="#bcc3cd" stroke-width="0.9" opacity="0.20" />
  <line x1="660.5" y1="181.8" x2="706.6" y2="214.5" stroke="#bcc3cd" stroke-width="0.9" opacity="0.20" />
  <line x1="660.5" y1="181.8" x2="680.8" y2="156.5" stroke="#bcc3cd" stroke-width="1.2" opacity="0.37" />
  <line x1="660.5" y1="181.8" x2="659.6" y2="143.1" stroke="#bcc3cd" stroke-width="1.2" opacity="0.37" />
  <line x1="660.5" y1="181.8" x2="662.4" y2="163.7" stroke="#bcc3cd" stroke-width="1.1" opacity="0.29" />
  <line x1="660.5" y1="181.8" x2="698.9" y2="169.7" stroke="#bcc3cd" stroke-width="1.0" opacity="0.22" />
  <line x1="660.5" y1="181.8" x2="709.2" y2="162.6" stroke="#bcc3cd" stroke-width="1.2" opacity="0.34" />
  <line x1="660.5" y1="181.8" x2="709.9" y2="150.0" stroke="#bcc3cd" stroke-width="1.0" opacity="0.24" />
  <line x1="660.5" y1="181.8" x2="720.8" y2="171.1" stroke="#bcc3cd" stroke-width="1.1" opacity="0.29" />
  <line x1="660.5" y1="181.8" x2="692.9" y2="144.0" stroke="#bcc3cd" stroke-width="1.0" opacity="0.22" />
  <line x1="679.0" y1="207.8" x2="758.6" y2="211.5" stroke="#bcc3cd" stroke-width="0.9" opacity="0.19" />
  <line x1="679.0" y1="207.8" x2="700.3" y2="205.3" stroke="#bcc3cd" stroke-width="1.0" opacity="0.26" />
  <line x1="679.0" y1="207.8" x2="706.6" y2="214.5" stroke="#bcc3cd" stroke-width="1.0" opacity="0.26" />
  <line x1="679.0" y1="207.8" x2="750.1" y2="185.1" stroke="#bcc3cd" stroke-width="0.9" opacity="0.18" />
  <line x1="679.0" y1="207.8" x2="720.8" y2="171.1" stroke="#bcc3cd" stroke-width="1.1" opacity="0.30" />
  <line x1="679.0" y1="207.8" x2="735.1" y2="188.5" stroke="#bcc3cd" stroke-width="1.0" opacity="0.22" />
  <line x1="621.7" y1="150.1" x2="680.8" y2="156.5" stroke="#bcc3cd" stroke-width="1.0" opacity="0.25" />
  <line x1="621.7" y1="150.1" x2="659.6" y2="143.1" stroke="#bcc3cd" stroke-width="1.1" opacity="0.29" />
  <line x1="621.7" y1="150.1" x2="692.9" y2="144.0" stroke="#bcc3cd" stroke-width="0.9" opacity="0.17" />
  <line x1="701.7" y1="126.3" x2="680.8" y2="156.5" stroke="#bcc3cd" stroke-width="0.9" opacity="0.18" />
  <line x1="701.7" y1="126.3" x2="659.6" y2="143.1" stroke="#bcc3cd" stroke-width="0.9" opacity="0.18" />
  <line x1="701.7" y1="126.3" x2="709.2" y2="162.6" stroke="#bcc3cd" stroke-width="0.9" opacity="0.17" />
  <line x1="701.7" y1="126.3" x2="709.9" y2="150.0" stroke="#bcc3cd" stroke-width="1.3" opacity="0.42" />
  <line x1="701.7" y1="126.3" x2="720.8" y2="171.1" stroke="#bcc3cd" stroke-width="0.9" opacity="0.19" />
  <line x1="701.7" y1="126.3" x2="692.9" y2="144.0" stroke="#bcc3cd" stroke-width="0.9" opacity="0.21" />
  <line x1="758.6" y1="211.5" x2="750.1" y2="185.1" stroke="#bcc3cd" stroke-width="0.9" opacity="0.18" />
  <line x1="758.6" y1="211.5" x2="720.8" y2="171.1" stroke="#bcc3cd" stroke-width="1.1" opacity="0.30" />
  <line x1="758.6" y1="211.5" x2="735.1" y2="188.5" stroke="#bcc3cd" stroke-width="1.0" opacity="0.22" />
  <line x1="700.3" y1="205.3" x2="706.6" y2="214.5" stroke="#bcc3cd" stroke-width="1.0" opacity="0.24" />
  <line x1="700.3" y1="205.3" x2="698.9" y2="169.7" stroke="#bcc3cd" stroke-width="0.9" opacity="0.19" />
  <line x1="700.3" y1="205.3" x2="739.3" y2="165.0" stroke="#bcc3cd" stroke-width="0.9" opacity="0.18" />
  <line x1="700.3" y1="205.3" x2="750.1" y2="185.1" stroke="#bcc3cd" stroke-width="0.9" opacity="0.17" />
  <line x1="700.3" y1="205.3" x2="720.8" y2="171.1" stroke="#bcc3cd" stroke-width="0.9" opacity="0.17" />
  <line x1="700.3" y1="205.3" x2="735.1" y2="188.5" stroke="#bcc3cd" stroke-width="0.9" opacity="0.20" />
  <line x1="706.6" y1="214.5" x2="750.1" y2="185.1" stroke="#bcc3cd" stroke-width="0.9" opacity="0.17" />
  <line x1="706.6" y1="214.5" x2="720.8" y2="171.1" stroke="#bcc3cd" stroke-width="0.9" opacity="0.17" />
  <line x1="706.6" y1="214.5" x2="735.1" y2="188.5" stroke="#bcc3cd" stroke-width="0.9" opacity="0.20" />
  <line x1="734.8" y1="104.4" x2="731.7" y2="147.8" stroke="#bcc3cd" stroke-width="1.3" opacity="0.44" />
  <line x1="734.8" y1="104.4" x2="790.6" y2="117.4" stroke="#bcc3cd" stroke-width="0.9" opacity="0.18" />
  <line x1="731.7" y1="147.8" x2="790.1" y2="169.4" stroke="#bcc3cd" stroke-width="1.1" opacity="0.31" />
  <line x1="731.7" y1="147.8" x2="757.4" y2="176.3" stroke="#bcc3cd" stroke-width="0.9" opacity="0.20" />
  <line x1="731.7" y1="147.8" x2="750.1" y2="185.1" stroke="#bcc3cd" stroke-width="1.0" opacity="0.24" />
  <line x1="731.7" y1="147.8" x2="709.2" y2="162.6" stroke="#bcc3cd" stroke-width="0.9" opacity="0.20" />
  <line x1="731.7" y1="147.8" x2="720.8" y2="171.1" stroke="#bcc3cd" stroke-width="1.0" opacity="0.24" />
  <line x1="731.7" y1="147.8" x2="736.0" y2="177.1" stroke="#bcc3cd" stroke-width="0.9" opacity="0.18" />
  <line x1="731.7" y1="147.8" x2="540.4" y2="158.6" stroke="#bcc3cd" stroke-width="0.9" opacity="0.17" />
  <line x1="731.7" y1="147.8" x2="781.4" y2="155.9" stroke="#bcc3cd" stroke-width="1.1" opacity="0.31" />
  <line x1="731.7" y1="147.8" x2="790.6" y2="117.4" stroke="#bcc3cd" stroke-width="1.1" opacity="0.30" />
  <line x1="731.7" y1="147.8" x2="735.1" y2="188.5" stroke="#bcc3cd" stroke-width="1.1" opacity="0.31" />
  <line x1="357.8" y1="479.3" x2="385.9" y2="476.2" stroke="#bcc3cd" stroke-width="1.6" opacity="0.60" />
  <line x1="565.7" y1="79.9" x2="659.6" y2="143.1" stroke="#bcc3cd" stroke-width="0.9" opacity="0.18" />
  <line x1="565.7" y1="79.9" x2="504.3" y2="50.0" stroke="#bcc3cd" stroke-width="1.1" opacity="0.28" />
  <line x1="728.6" y1="137.2" x2="680.8" y2="156.5" stroke="#bcc3cd" stroke-width="0.9" opacity="0.17" />
  <line x1="728.6" y1="137.2" x2="659.6" y2="143.1" stroke="#bcc3cd" stroke-width="0.9" opacity="0.18" />
  <line x1="728.6" y1="137.2" x2="698.9" y2="169.7" stroke="#bcc3cd" stroke-width="1.0" opacity="0.22" />
  <line x1="728.6" y1="137.2" x2="709.2" y2="162.6" stroke="#bcc3cd" stroke-width="1.1" opacity="0.28" />
  <line x1="728.6" y1="137.2" x2="709.9" y2="150.0" stroke="#bcc3cd" stroke-width="1.1" opacity="0.32" />
  <line x1="728.6" y1="137.2" x2="720.8" y2="171.1" stroke="#bcc3cd" stroke-width="0.9" opacity="0.20" />
  <line x1="728.6" y1="137.2" x2="692.9" y2="144.0" stroke="#bcc3cd" stroke-width="1.0" opacity="0.22" />
  <line x1="728.6" y1="137.2" x2="789.7" y2="160.4" stroke="#bcc3cd" stroke-width="1.0" opacity="0.22" />
  <line x1="680.8" y1="156.5" x2="659.6" y2="143.1" stroke="#bcc3cd" stroke-width="1.3" opacity="0.42" />
  <line x1="680.8" y1="156.5" x2="677.2" y2="128.9" stroke="#bcc3cd" stroke-width="0.9" opacity="0.18" />
  <line x1="680.8" y1="156.5" x2="662.4" y2="163.7" stroke="#bcc3cd" stroke-width="1.1" opacity="0.31" />
  <line x1="680.8" y1="156.5" x2="698.9" y2="169.7" stroke="#bcc3cd" stroke-width="1.1" opacity="0.32" />
  <line x1="680.8" y1="156.5" x2="739.3" y2="165.0" stroke="#bcc3cd" stroke-width="1.0" opacity="0.23" />
  <line x1="680.8" y1="156.5" x2="709.2" y2="162.6" stroke="#bcc3cd" stroke-width="1.2" opacity="0.39" />
  <line x1="680.8" y1="156.5" x2="709.9" y2="150.0" stroke="#bcc3cd" stroke-width="1.0" opacity="0.26" />
  <line x1="680.8" y1="156.5" x2="720.8" y2="171.1" stroke="#bcc3cd" stroke-width="1.2" opacity="0.34" />
  <line x1="680.8" y1="156.5" x2="736.0" y2="177.1" stroke="#bcc3cd" stroke-width="0.9" opacity="0.19" />
  <line x1="680.8" y1="156.5" x2="692.9" y2="144.0" stroke="#bcc3cd" stroke-width="1.0" opacity="0.25" />
  <line x1="680.8" y1="156.5" x2="735.1" y2="188.5" stroke="#bcc3cd" stroke-width="0.9" opacity="0.17" />
  <line x1="659.6" y1="143.1" x2="677.2" y2="128.9" stroke="#bcc3cd" stroke-width="1.1" opacity="0.33" />
  <line x1="659.6" y1="143.1" x2="662.4" y2="163.7" stroke="#bcc3cd" stroke-width="0.9" opacity="0.21" />
  <line x1="659.6" y1="143.1" x2="698.9" y2="169.7" stroke="#bcc3cd" stroke-width="0.9" opacity="0.18" />
  <line x1="659.6" y1="143.1" x2="709.2" y2="162.6" stroke="#bcc3cd" stroke-width="1.3" opacity="0.41" />
  <line x1="659.6" y1="143.1" x2="709.9" y2="150.0" stroke="#bcc3cd" stroke-width="1.0" opacity="0.22" />
  <line x1="659.6" y1="143.1" x2="720.8" y2="171.1" stroke="#bcc3cd" stroke-width="1.1" opacity="0.31" />
  <line x1="659.6" y1="143.1" x2="692.9" y2="144.0" stroke="#bcc3cd" stroke-width="1.7" opacity="0.66" />
  <line x1="782.3" y1="177.5" x2="790.1" y2="169.4" stroke="#bcc3cd" stroke-width="1.5" opacity="0.55" />
  <line x1="782.3" y1="177.5" x2="757.4" y2="176.3" stroke="#bcc3cd" stroke-width="0.9" opacity="0.18" />
  <line x1="782.3" y1="177.5" x2="750.1" y2="185.1" stroke="#bcc3cd" stroke-width="1.1" opacity="0.28" />
  <line x1="782.3" y1="177.5" x2="709.2" y2="162.6" stroke="#bcc3cd" stroke-width="0.9" opacity="0.18" />
  <line x1="782.3" y1="177.5" x2="720.8" y2="171.1" stroke="#bcc3cd" stroke-width="1.1" opacity="0.28" />
  <line x1="782.3" y1="177.5" x2="803.3" y2="180.3" stroke="#bcc3cd" stroke-width="1.5" opacity="0.55" />
  <line x1="782.3" y1="177.5" x2="789.7" y2="160.4" stroke="#bcc3cd" stroke-width="1.2" opacity="0.37" />
  <line x1="782.3" y1="177.5" x2="781.4" y2="155.9" stroke="#bcc3cd" stroke-width="1.5" opacity="0.55" />
  <line x1="782.3" y1="177.5" x2="735.1" y2="188.5" stroke="#bcc3cd" stroke-width="1.5" opacity="0.55" />
  <line x1="790.1" y1="169.4" x2="750.1" y2="185.1" stroke="#bcc3cd" stroke-width="1.0" opacity="0.22" />
  <line x1="790.1" y1="169.4" x2="720.8" y2="171.1" stroke="#bcc3cd" stroke-width="1.0" opacity="0.22" />
  <line x1="790.1" y1="169.4" x2="803.3" y2="180.3" stroke="#bcc3cd" stroke-width="1.2" opacity="0.37" />
  <line x1="790.1" y1="169.4" x2="789.7" y2="160.4" stroke="#bcc3cd" stroke-width="1.1" opacity="0.28" />
  <line x1="790.1" y1="169.4" x2="781.4" y2="155.9" stroke="#bcc3cd" stroke-width="1.2" opacity="0.37" />
  <line x1="790.1" y1="169.4" x2="735.1" y2="188.5" stroke="#bcc3cd" stroke-width="1.2" opacity="0.37" />
  <line x1="677.2" y1="128.9" x2="709.2" y2="162.6" stroke="#bcc3cd" stroke-width="0.9" opacity="0.18" />
  <line x1="677.2" y1="128.9" x2="709.9" y2="150.0" stroke="#bcc3cd" stroke-width="0.9" opacity="0.18" />
  <line x1="677.2" y1="128.9" x2="720.8" y2="171.1" stroke="#bcc3cd" stroke-width="1.0" opacity="0.22" />
  <line x1="677.2" y1="128.9" x2="692.9" y2="144.0" stroke="#bcc3cd" stroke-width="1.3" opacity="0.41" />
  <line x1="662.4" y1="163.7" x2="698.9" y2="169.7" stroke="#bcc3cd" stroke-width="1.1" opacity="0.31" />
  <line x1="662.4" y1="163.7" x2="709.2" y2="162.6" stroke="#bcc3cd" stroke-width="1.4" opacity="0.47" />
  <line x1="662.4" y1="163.7" x2="709.9" y2="150.0" stroke="#bcc3cd" stroke-width="0.9" opacity="0.19" />
  <line x1="662.4" y1="163.7" x2="720.8" y2="171.1" stroke="#bcc3cd" stroke-width="1.0" opacity="0.22" />
  <line x1="698.9" y1="169.7" x2="739.3" y2="165.0" stroke="#bcc3cd" stroke-width="1.1" opacity="0.29" />
  <line x1="698.9" y1="169.7" x2="757.4" y2="176.3" stroke="#bcc3cd" stroke-width="0.9" opacity="0.17" />
  <line x1="698.9" y1="169.7" x2="750.1" y2="185.1" stroke="#bcc3cd" stroke-width="0.9" opacity="0.20" />
  <line x1="698.9" y1="169.7" x2="709.2" y2="162.6" stroke="#bcc3cd" stroke-width="1.3" opacity="0.40" />
  <line x1="698.9" y1="169.7" x2="709.9" y2="150.0" stroke="#bcc3cd" stroke-width="1.0" opacity="0.24" />
  <line x1="698.9" y1="169.7" x2="720.8" y2="171.1" stroke="#bcc3cd" stroke-width="0.9" opacity="0.20" />
  <line x1="698.9" y1="169.7" x2="735.1" y2="188.5" stroke="#bcc3cd" stroke-width="1.0" opacity="0.24" />
  <line x1="739.3" y1="165.0" x2="750.1" y2="185.1" stroke="#bcc3cd" stroke-width="0.9" opacity="0.18" />
  <line x1="739.3" y1="165.0" x2="709.9" y2="150.0" stroke="#bcc3cd" stroke-width="1.0" opacity="0.23" />
  <line x1="739.3" y1="165.0" x2="720.8" y2="171.1" stroke="#bcc3cd" stroke-width="0.9" opacity="0.18" />
  <line x1="739.3" y1="165.0" x2="736.0" y2="177.1" stroke="#bcc3cd" stroke-width="1.0" opacity="0.24" />
  <line x1="739.3" y1="165.0" x2="735.1" y2="188.5" stroke="#bcc3cd" stroke-width="1.0" opacity="0.22" />
  <line x1="757.4" y1="176.3" x2="750.1" y2="185.1" stroke="#bcc3cd" stroke-width="1.1" opacity="0.28" />
  <line x1="757.4" y1="176.3" x2="709.2" y2="162.6" stroke="#bcc3cd" stroke-width="1.0" opacity="0.22" />
  <line x1="757.4" y1="176.3" x2="720.8" y2="171.1" stroke="#bcc3cd" stroke-width="1.1" opacity="0.28" />
  <line x1="757.4" y1="176.3" x2="736.0" y2="177.1" stroke="#bcc3cd" stroke-width="0.9" opacity="0.20" />
  <line x1="757.4" y1="176.3" x2="735.1" y2="188.5" stroke="#bcc3cd" stroke-width="1.2" opacity="0.37" />
  <line x1="750.1" y1="185.1" x2="709.2" y2="162.6" stroke="#bcc3cd" stroke-width="1.1" opacity="0.28" />
  <line x1="750.1" y1="185.1" x2="720.8" y2="171.1" stroke="#bcc3cd" stroke-width="1.2" opacity="0.37" />
  <line x1="750.1" y1="185.1" x2="803.3" y2="180.3" stroke="#bcc3cd" stroke-width="1.0" opacity="0.22" />
  <line x1="750.1" y1="185.1" x2="736.0" y2="177.1" stroke="#bcc3cd" stroke-width="1.0" opacity="0.24" />
  <line x1="750.1" y1="185.1" x2="789.7" y2="160.4" stroke="#bcc3cd" stroke-width="0.9" opacity="0.18" />
  <line x1="750.1" y1="185.1" x2="781.4" y2="155.9" stroke="#bcc3cd" stroke-width="1.0" opacity="0.22" />
  <line x1="750.1" y1="185.1" x2="735.1" y2="188.5" stroke="#bcc3cd" stroke-width="1.5" opacity="0.55" />
  <line x1="709.2" y1="162.6" x2="709.9" y2="150.0" stroke="#bcc3cd" stroke-width="1.1" opacity="0.29" />
  <line x1="709.2" y1="162.6" x2="720.8" y2="171.1" stroke="#bcc3cd" stroke-width="1.4" opacity="0.47" />
  <line x1="709.2" y1="162.6" x2="736.0" y2="177.1" stroke="#bcc3cd" stroke-width="0.9" opacity="0.20" />
  <line x1="709.2" y1="162.6" x2="692.9" y2="144.0" stroke="#bcc3cd" stroke-width="1.1" opacity="0.31" />
  <line x1="709.2" y1="162.6" x2="789.7" y2="160.4" stroke="#bcc3cd" stroke-width="1.1" opacity="0.31" />
  <line x1="709.2" y1="162.6" x2="735.1" y2="188.5" stroke="#bcc3cd" stroke-width="1.2" opacity="0.37" />
  <line x1="709.9" y1="150.0" x2="720.8" y2="171.1" stroke="#bcc3cd" stroke-width="1.2" opacity="0.34" />
  <line x1="709.9" y1="150.0" x2="692.9" y2="144.0" stroke="#bcc3cd" stroke-width="1.0" opacity="0.25" />
  <line x1="709.9" y1="150.0" x2="789.7" y2="160.4" stroke="#bcc3cd" stroke-width="1.0" opacity="0.25" />
  <line x1="709.9" y1="150.0" x2="735.1" y2="188.5" stroke="#bcc3cd" stroke-width="0.9" opacity="0.17" />
  <line x1="720.8" y1="171.1" x2="803.3" y2="180.3" stroke="#bcc3cd" stroke-width="1.0" opacity="0.22" />
  <line x1="720.8" y1="171.1" x2="736.0" y2="177.1" stroke="#bcc3cd" stroke-width="1.0" opacity="0.24" />
  <line x1="720.8" y1="171.1" x2="692.9" y2="144.0" stroke="#bcc3cd" stroke-width="1.3" opacity="0.44" />
  <line x1="720.8" y1="171.1" x2="789.7" y2="160.4" stroke="#bcc3cd" stroke-width="1.3" opacity="0.44" />
  <line x1="720.8" y1="171.1" x2="781.4" y2="155.9" stroke="#bcc3cd" stroke-width="1.0" opacity="0.22" />
  <line x1="720.8" y1="171.1" x2="735.1" y2="188.5" stroke="#bcc3cd" stroke-width="1.5" opacity="0.55" />
  <line x1="126.5" y1="94.7" x2="94.3" y2="108.1" stroke="#bcc3cd" stroke-width="1.0" opacity="0.22" />
  <line x1="829.8" y1="229.4" x2="735.1" y2="188.5" stroke="#bcc3cd" stroke-width="1.0" opacity="0.22" />
  <line x1="803.3" y1="180.3" x2="789.7" y2="160.4" stroke="#bcc3cd" stroke-width="1.1" opacity="0.28" />
  <line x1="803.3" y1="180.3" x2="781.4" y2="155.9" stroke="#bcc3cd" stroke-width="1.2" opacity="0.37" />
  <line x1="803.3" y1="180.3" x2="735.1" y2="188.5" stroke="#bcc3cd" stroke-width="1.2" opacity="0.37" />
  <line x1="460.6" y1="170.9" x2="491.5" y2="185.1" stroke="#bcc3cd" stroke-width="1.5" opacity="0.55" />
  <line x1="460.6" y1="170.9" x2="540.4" y2="158.6" stroke="#bcc3cd" stroke-width="1.3" opacity="0.41" />
  <line x1="491.5" y1="185.1" x2="540.4" y2="158.6" stroke="#bcc3cd" stroke-width="1.0" opacity="0.24" />
  <line x1="736.0" y1="177.1" x2="735.1" y2="188.5" stroke="#bcc3cd" stroke-width="1.1" opacity="0.31" />
  <line x1="692.9" y1="144.0" x2="789.7" y2="160.4" stroke="#bcc3cd" stroke-width="1.0" opacity="0.22" />
  <line x1="789.7" y1="160.4" x2="885.5" y2="154.6" stroke="#bcc3cd" stroke-width="1.2" opacity="0.37" />
  <line x1="789.7" y1="160.4" x2="910.0" y2="174.9" stroke="#bcc3cd" stroke-width="0.9" opacity="0.18" />
  <line x1="789.7" y1="160.4" x2="781.4" y2="155.9" stroke="#bcc3cd" stroke-width="1.1" opacity="0.28" />
  <line x1="789.7" y1="160.4" x2="735.1" y2="188.5" stroke="#bcc3cd" stroke-width="1.1" opacity="0.28" />
  <line x1="885.5" y1="154.6" x2="910.0" y2="174.9" stroke="#bcc3cd" stroke-width="1.1" opacity="0.28" />
  <line x1="781.4" y1="155.9" x2="790.6" y2="117.4" stroke="#bcc3cd" stroke-width="1.1" opacity="0.31" />
  <line x1="781.4" y1="155.9" x2="735.1" y2="188.5" stroke="#bcc3cd" stroke-width="1.2" opacity="0.37" />
  <circle cx="660.4" cy="199.1" r="15.8" fill="#7f8c8d" opacity="0.88" />
  <circle cx="619.3" cy="228.4" r="8.6" fill="#3498db" opacity="0.88" />
  <circle cx="537.9" cy="255.6" r="11.3" fill="#3498db" opacity="0.88" />
  <circle cx="588.1" cy="212.4" r="16" fill="#2ecc71" opacity="0.88" />
  <circle cx="687.5" cy="199.9" r="12.2" fill="#3498db" opacity="0.88" />
  <circle cx="667.8" cy="224.8" r="15.8" fill="#7f8c8d" opacity="0.88" />
  <circle cx="618.4" cy="175.7" r="16" fill="#3498db" opacity="0.88" />
  <circle cx="631.3" cy="259.4" r="12.2" fill="#7f8c8d" opacity="0.88" />
  <circle cx="654.7" cy="221.7" r="14.9" fill="#7f8c8d" opacity="0.88" />
  <circle cx="634.3" cy="238.1" r="16" fill="#7f8c8d" opacity="0.88" />
  <circle cx="584.4" cy="262.0" r="9.5" fill="#7f8c8d" opacity="0.88" />
  <circle cx="620.1" cy="208.0" r="14.9" fill="#3498db" opacity="0.88" />
  <circle cx="660.5" cy="181.8" r="16" fill="#7f8c8d" opacity="0.88" />
  <circle cx="679.0" cy="207.8" r="13.1" fill="#e67e22" opacity="0.88" />
  <circle cx="621.7" cy="150.1" r="16" fill="#e74c3c" opacity="0.88" />
  <circle cx="701.7" cy="126.3" r="16" fill="#9b59b6" opacity="0.88" />
  <circle cx="758.6" cy="211.5" r="13.1" fill="#e67e22" opacity="0.88" />
  <circle cx="700.3" cy="205.3" r="14.0" fill="#3498db" opacity="0.88" />
  <circle cx="706.6" cy="214.5" r="14.0" fill="#3498db" opacity="0.88" />
  <circle cx="734.8" cy="104.4" r="10.4" fill="#e74c3c" opacity="0.88" />
  <circle cx="50.0" cy="266.8" r="12.2" fill="#3498db" opacity="0.88" />
  <circle cx="731.7" cy="147.8" r="10.4" fill="#e74c3c" opacity="0.88" />
  <circle cx="357.8" cy="479.3" r="12.2" fill="#3498db" opacity="0.88" />
  <circle cx="385.9" cy="476.2" r="11.3" fill="#3498db" opacity="0.88" />
  <circle cx="565.7" cy="79.9" r="5.9" fill="#3498db" opacity="0.88" />
  <circle cx="728.6" cy="137.2" r="12.2" fill="#9b59b6" opacity="0.88" />
  <circle cx="680.8" cy="156.5" r="15.8" fill="#9b59b6" opacity="0.88" />
  <circle cx="659.6" cy="143.1" r="8.6" fill="#9b59b6" opacity="0.88" />
  <circle cx="782.3" cy="177.5" r="5" fill="#2ecc71" opacity="0.88" />
  <circle cx="790.1" cy="169.4" r="5.9" fill="#7f8c8d" opacity="0.88" />
  <circle cx="677.2" cy="128.9" r="11.3" fill="#e67e22" opacity="0.88" />
  <circle cx="662.4" cy="163.7" r="16" fill="#2ecc71" opacity="0.88" />
  <circle cx="504.3" cy="50.0" r="6.8" fill="#9b59b6" opacity="0.88" />
  <circle cx="177.8" cy="415.8" r="5" fill="#7f8c8d" opacity="0.88" />
  <circle cx="698.9" cy="169.7" r="12.2" fill="#3498db" opacity="0.88" />
  <circle cx="739.3" cy="165.0" r="13.1" fill="#7f8c8d" opacity="0.88" />
  <circle cx="757.4" cy="176.3" r="9.5" fill="#7f8c8d" opacity="0.88" />
  <circle cx="807.4" cy="473.5" r="5" fill="#7f8c8d" opacity="0.88" />
  <circle cx="750.1" cy="185.1" r="7.7" fill="#7f8c8d" opacity="0.88" />
  <circle cx="709.2" cy="162.6" r="9.5" fill="#7f8c8d" opacity="0.88" />
  <circle cx="709.9" cy="150.0" r="15.8" fill="#2ecc71" opacity="0.88" />
  <circle cx="720.8" cy="171.1" r="7.7" fill="#7f8c8d" opacity="0.88" />
  <circle cx="126.5" cy="94.7" r="7.7" fill="#7f8c8d" opacity="0.88" />
  <circle cx="829.8" cy="229.4" r="7.7" fill="#3498db" opacity="0.88" />
  <circle cx="803.3" cy="180.3" r="5.9" fill="#7f8c8d" opacity="0.88" />
  <circle cx="460.6" cy="170.9" r="6.8" fill="#e67e22" opacity="0.88" />
  <circle cx="491.5" cy="185.1" r="6.8" fill="#e67e22" opacity="0.88" />
  <circle cx="736.0" cy="177.1" r="10.4" fill="#7f8c8d" opacity="0.88" />
  <circle cx="540.4" cy="158.6" r="11.3" fill="#e67e22" opacity="0.88" />
  <circle cx="94.3" cy="108.1" r="5.9" fill="#7f8c8d" opacity="0.88" />
  <circle cx="692.9" cy="144.0" r="6.8" fill="#7f8c8d" opacity="0.88" />
  <circle cx="789.7" cy="160.4" r="6.8" fill="#7f8c8d" opacity="0.88" />
  <circle cx="885.5" cy="154.6" r="5" fill="#2ecc71" opacity="0.88" />
  <circle cx="910.0" cy="174.9" r="7.7" fill="#2ecc71" opacity="0.88" />
  <circle cx="781.4" cy="155.9" r="5.9" fill="#e74c3c" opacity="0.88" />
  <circle cx="790.6" cy="117.4" r="10.4" fill="#e74c3c" opacity="0.88" />
  <circle cx="735.1" cy="188.5" r="5.9" fill="#7f8c8d" opacity="0.88" />
  <circle cx="654.0" cy="500.0" r="5" fill="#7f8c8d" opacity="0.88" />
  <rect x="678.2" y="238.1" width="124.4" height="15" fill="#ffffff" opacity="0.75" rx="2" />
  <text x="679.2" y="249.1" font-family="system-ui, -apple-system, sans-serif" font-size="12" fill="#1f2328" text-anchor="start">tinyland-huskycat</text>
  <rect x="629.9" y="222.7" width="16.4" height="15" fill="#ffffff" opacity="0.75" rx="2" />
  <text x="630.9" y="233.7" font-family="system-ui, -apple-system, sans-serif" font-size="12" fill="#1f2328" text-anchor="start">pp</text>
  <rect x="551.2" y="285.4" width="117.2" height="15" fill="#ffffff" opacity="0.75" rx="2" />
  <text x="552.2" y="296.4" font-family="system-ui, -apple-system, sans-serif" font-size="12" fill="#1f2328" text-anchor="start">tinyland-cleanup</text>
  <rect x="606.1" y="205.7" width="59.6" height="15" fill="#ffffff" opacity="0.75" rx="2" />
  <text x="607.1" y="216.7" font-family="system-ui, -apple-system, sans-serif" font-size="12" fill="#1f2328" text-anchor="start">gnucashr</text>
  <rect x="701.7" y="243.6" width="66.8" height="15" fill="#ffffff" opacity="0.75" rx="2" />
  <text x="702.7" y="254.6" font-family="system-ui, -apple-system, sans-serif" font-size="12" fill="#1f2328" text-anchor="start">betterkvm</text>
  <rect x="685.6" y="307.8" width="66.8" height="15" fill="#ffffff" opacity="0.75" rx="2" />
  <text x="686.6" y="318.8" font-family="system-ui, -apple-system, sans-serif" font-size="12" fill="#1f2328" text-anchor="start">outbot-ci</text>
  <rect x="636.4" y="66.3" width="117.2" height="15" fill="#ffffff" opacity="0.75" rx="2" />
  <text x="637.4" y="77.3" font-family="system-ui, -apple-system, sans-serif" font-size="12" fill="#1f2328" text-anchor="start">GloriousFlywheel</text>
  <rect x="645.5" y="336.9" width="131.6" height="15" fill="#ffffff" opacity="0.75" rx="2" />
  <text x="646.5" y="347.9" font-family="system-ui, -apple-system, sans-serif" font-size="12" fill="#1f2328" text-anchor="start">aperture-bootstrap</text>
  <rect x="671.6" y="294.0" width="81.2" height="15" fill="#ffffff" opacity="0.75" rx="2" />
  <text x="672.6" y="305.0" font-family="system-ui, -apple-system, sans-serif" font-size="12" fill="#1f2328" text-anchor="start">tailnet-acl</text>
  <rect x="652.3" y="123.0" width="74.0" height="15" fill="#ffffff" opacity="0.75" rx="2" />
  <text x="653.3" y="134.0" font-family="system-ui, -apple-system, sans-serif" font-size="12" fill="#1f2328" text-anchor="start">tummycrypt</text>
  <rect x="595.9" y="305.3" width="88.4" height="15" fill="#ffffff" opacity="0.75" rx="2" />
  <text x="596.9" y="316.3" font-family="system-ui, -apple-system, sans-serif" font-size="12" fill="#1f2328" text-anchor="start">waifu-mirror</text>
  <rect x="637.0" y="107.9" width="102.8" height="15" fill="#ffffff" opacity="0.75" rx="2" />
  <text x="638.0" y="118.9" font-family="system-ui, -apple-system, sans-serif" font-size="12" fill="#1f2328" text-anchor="start">tinyland-infra</text>
  <rect x="678.5" y="208.6" width="52.4" height="15" fill="#ffffff" opacity="0.75" rx="2" />
  <text x="679.5" y="219.6" font-family="system-ui, -apple-system, sans-serif" font-size="12" fill="#1f2328" text-anchor="start">LA-Mesh</text>
  <rect x="694.1" y="221.8" width="45.2" height="15" fill="#ffffff" opacity="0.75" rx="2" />
  <text x="695.1" y="232.8" font-family="system-ui, -apple-system, sans-serif" font-size="12" fill="#1f2328" text-anchor="start">XoxdWM</text>
  <rect x="639.7" y="171.2" width="131.6" height="15" fill="#ffffff" opacity="0.75" rx="2" />
  <text x="640.7" y="182.2" font-family="system-ui, -apple-system, sans-serif" font-size="12" fill="#1f2328" text-anchor="start">pixelwise-research</text>
  <rect x="719.7" y="144.6" width="95.6" height="15" fill="#ffffff" opacity="0.75" rx="2" />
  <text x="720.7" y="155.6" font-family="system-ui, -apple-system, sans-serif" font-size="12" fill="#1f2328" text-anchor="start">GIS_Shortcuts</text>
  <rect x="773.7" y="307.0" width="110.0" height="15" fill="#ffffff" opacity="0.75" rx="2" />
  <text x="774.7" y="318.0" font-family="system-ui, -apple-system, sans-serif" font-size="12" fill="#1f2328" text-anchor="start">hiberpower-ntfs</text>
  <rect x="716.3" y="321.9" width="138.8" height="15" fill="#ffffff" opacity="0.75" rx="2" />
  <text x="717.3" y="332.9" font-family="system-ui, -apple-system, sans-serif" font-size="12" fill="#1f2328" text-anchor="start">Ansible-DAG-Harness</text>
  <rect x="722.6" y="42.3" width="95.6" height="15" fill="#ffffff" opacity="0.75" rx="2" />
  <text x="723.6" y="53.3" font-family="system-ui, -apple-system, sans-serif" font-size="12" fill="#1f2328" text-anchor="start">DarwinNicUtil</text>
  <rect x="747.2" y="-4.2" width="66.8" height="15" fill="#ffffff" opacity="0.75" rx="2" />
  <text x="748.2" y="6.8" font-family="system-ui, -apple-system, sans-serif" font-size="12" fill="#1f2328" text-anchor="start">quickchpl</text>
  <rect x="64.2" y="260.0" width="131.6" height="15" fill="#ffffff" opacity="0.75" rx="2" />
  <text x="65.2" y="271.0" font-family="system-ui, -apple-system, sans-serif" font-size="12" fill="#1f2328" text-anchor="start">tinyscale-mikrotik</text>
  <rect x="744.1" y="228.5" width="59.6" height="15" fill="#ffffff" opacity="0.75" rx="2" />
  <text x="745.1" y="239.5" font-family="system-ui, -apple-system, sans-serif" font-size="12" fill="#1f2328" text-anchor="start">aoc-2025</text>
  <rect x="372.0" y="479.4" width="66.8" height="15" fill="#ffffff" opacity="0.75" rx="2" />
  <text x="373.0" y="490.4" font-family="system-ui, -apple-system, sans-serif" font-size="12" fill="#1f2328" text-anchor="start">searchies</text>
  <rect x="399.2" y="462.4" width="59.6" height="15" fill="#ffffff" opacity="0.75" rx="2" />
  <text x="400.2" y="473.4" font-family="system-ui, -apple-system, sans-serif" font-size="12" fill="#1f2328" text-anchor="start">ts-caddy</text>
  <rect x="573.6" y="51.6" width="66.8" height="15" fill="#ffffff" opacity="0.75" rx="2" />
  <text x="574.6" y="62.6" font-family="system-ui, -apple-system, sans-serif" font-size="12" fill="#1f2328" text-anchor="start">HCI-notes</text>
  <rect x="742.8" y="202.6" width="88.4" height="15" fill="#ffffff" opacity="0.75" rx="2" />
  <text x="743.8" y="213.6" font-family="system-ui, -apple-system, sans-serif" font-size="12" fill="#1f2328" text-anchor="start">FastPhotoAPI</text>
  <rect x="698.6" y="54.4" width="81.2" height="15" fill="#ffffff" opacity="0.75" rx="2" />
  <text x="699.6" y="65.4" font-family="system-ui, -apple-system, sans-serif" font-size="12" fill="#1f2328" text-anchor="start">timberbuddy</text>
  <rect x="670.2" y="24.4" width="81.2" height="15" fill="#ffffff" opacity="0.75" rx="2" />
  <text x="671.2" y="35.4" font-family="system-ui, -apple-system, sans-serif" font-size="12" fill="#1f2328" text-anchor="start">tetrahedron</text>
  <rect x="789.3" y="175.4" width="95.6" height="15" fill="#ffffff" opacity="0.75" rx="2" />
  <text x="790.3" y="186.4" font-family="system-ui, -apple-system, sans-serif" font-size="12" fill="#1f2328" text-anchor="start">AccuWixReport</text>
  <rect x="686.6" y="281.1" width="95.6" height="15" fill="#ffffff" opacity="0.75" rx="2" />
  <text x="781.2" y="292.1" font-family="system-ui, -apple-system, sans-serif" font-size="12" fill="#1f2328" text-anchor="end">Jess-AOC-2023</text>
  <rect x="690.5" y="195.6" width="81.2" height="15" fill="#ffffff" opacity="0.75" rx="2" />
  <text x="691.5" y="206.6" font-family="system-ui, -apple-system, sans-serif" font-size="12" fill="#1f2328" text-anchor="start">TurkeyProbe</text>
  <rect x="680.4" y="139.2" width="153.2" height="15" fill="#ffffff" opacity="0.75" rx="2" />
  <text x="681.4" y="150.2" font-family="system-ui, -apple-system, sans-serif" font-size="12" fill="#1f2328" text-anchor="start">MerlinAI-Interpreters</text>
  <rect x="513.1" y="36.4" width="110.0" height="15" fill="#ffffff" opacity="0.75" rx="2" />
  <text x="514.1" y="47.4" font-family="system-ui, -apple-system, sans-serif" font-size="12" fill="#1f2328" text-anchor="start">IntroTypeScript</text>
  <rect x="184.8" y="409.0" width="110.0" height="15" fill="#ffffff" opacity="0.75" rx="2" />
  <text x="185.8" y="420.0" font-family="system-ui, -apple-system, sans-serif" font-size="12" fill="#1f2328" text-anchor="start">IG-3DP-Profiles</text>
  <rect x="713.1" y="165.5" width="66.8" height="15" fill="#ffffff" opacity="0.75" rx="2" />
  <text x="714.1" y="176.5" font-family="system-ui, -apple-system, sans-serif" font-size="12" fill="#1f2328" text-anchor="start">DLA-Flask</text>
  <rect x="754.4" y="217.0" width="38.0" height="15" fill="#ffffff" opacity="0.75" rx="2" />
  <text x="755.4" y="228.0" font-family="system-ui, -apple-system, sans-serif" font-size="12" fill="#1f2328" text-anchor="start">USBoN</text>
  <rect x="768.9" y="25.3" width="203.6" height="15" fill="#ffffff" opacity="0.75" rx="2" />
  <text x="769.9" y="36.3" font-family="system-ui, -apple-system, sans-serif" font-size="12" fill="#1f2328" text-anchor="start">chrome-remote-desktop-budgie</text>
  <rect x="676.0" y="466.7" width="124.4" height="15" fill="#ffffff" opacity="0.75" rx="2" />
  <text x="799.4" y="477.7" font-family="system-ui, -apple-system, sans-serif" font-size="12" fill="#1f2328" text-anchor="end">OminousBeepingApp</text>
  <rect x="759.8" y="292.0" width="138.8" height="15" fill="#ffffff" opacity="0.75" rx="2" />
  <text x="760.8" y="303.0" font-family="system-ui, -apple-system, sans-serif" font-size="12" fill="#1f2328" text-anchor="start">mo-image-identifier</text>
  <rect x="720.7" y="152.5" width="196.4" height="15" fill="#ffffff" opacity="0.75" rx="2" />
  <text x="721.7" y="163.5" font-family="system-ui, -apple-system, sans-serif" font-size="12" fill="#1f2328" text-anchor="start">squirrel-leaflet-annotation</text>
  <rect x="727.7" y="253.8" width="74.0" height="15" fill="#ffffff" opacity="0.75" rx="2" />
  <text x="728.7" y="264.8" font-family="system-ui, -apple-system, sans-serif" font-size="12" fill="#1f2328" text-anchor="start">Shiny-Apps</text>
  <rect x="730.5" y="130.8" width="138.8" height="15" fill="#ffffff" opacity="0.75" rx="2" />
  <text x="731.5" y="141.8" font-family="system-ui, -apple-system, sans-serif" font-size="12" fill="#1f2328" text-anchor="start">bbox-jest-puppeteer</text>
  <rect x="136.2" y="86.1" width="88.4" height="15" fill="#ffffff" opacity="0.75" rx="2" />
  <text x="137.2" y="97.1" font-family="system-ui, -apple-system, sans-serif" font-size="12" fill="#1f2328" text-anchor="start">DoverDisplay</text>
  <rect x="738.9" y="106.0" width="81.2" height="15" fill="#ffffff" opacity="0.75" rx="2" />
  <text x="819.1" y="117.0" font-family="system-ui, -apple-system, sans-serif" font-size="12" fill="#1f2328" text-anchor="end">LeafletSync</text>
  <rect x="627.8" y="270.8" width="167.6" height="15" fill="#ffffff" opacity="0.75" rx="2" />
  <text x="794.4" y="281.8" font-family="system-ui, -apple-system, sans-serif" font-size="12" fill="#1f2328" text-anchor="end">misc-roi-distance-notes</text>
  <rect x="469.4" y="163.4" width="138.8" height="15" fill="#ffffff" opacity="0.75" rx="2" />
  <text x="470.4" y="174.4" font-family="system-ui, -apple-system, sans-serif" font-size="12" fill="#1f2328" text-anchor="start">Arduino_Coil_Winder</text>
  <rect x="500.3" y="180.4" width="30.8" height="15" fill="#ffffff" opacity="0.75" rx="2" />
  <text x="501.3" y="191.4" font-family="system-ui, -apple-system, sans-serif" font-size="12" fill="#1f2328" text-anchor="start">momo</text>
  <rect x="748.4" y="117.5" width="38.0" height="15" fill="#ffffff" opacity="0.75" rx="2" />
  <text x="749.4" y="128.5" font-family="system-ui, -apple-system, sans-serif" font-size="12" fill="#1f2328" text-anchor="start">clipi</text>
  <rect x="553.7" y="92.8" width="110.0" height="15" fill="#ffffff" opacity="0.75" rx="2" />
  <text x="554.7" y="103.8" font-family="system-ui, -apple-system, sans-serif" font-size="12" fill="#1f2328" text-anchor="start">AeroTaz5_hotfix</text>
  <rect x="102.2" y="103.1" width="110.0" height="15" fill="#ffffff" opacity="0.75" rx="2" />
  <text x="103.2" y="114.1" font-family="system-ui, -apple-system, sans-serif" font-size="12" fill="#1f2328" text-anchor="start">Funmat-HT-Notes</text>
  <rect x="701.7" y="182.5" width="81.2" height="15" fill="#ffffff" opacity="0.75" rx="2" />
  <text x="702.7" y="193.5" font-family="system-ui, -apple-system, sans-serif" font-size="12" fill="#1f2328" text-anchor="start">static-site</text>
  <rect x="798.5" y="11.0" width="95.6" height="15" fill="#ffffff" opacity="0.75" rx="2" />
  <text x="799.5" y="22.0" font-family="system-ui, -apple-system, sans-serif" font-size="12" fill="#1f2328" text-anchor="start">Flask-Manager</text>
  <rect x="768.5" y="68.9" width="110.0" height="15" fill="#ffffff" opacity="0.75" rx="2" />
  <text x="877.5" y="79.9" font-family="system-ui, -apple-system, sans-serif" font-size="12" fill="#1f2328" text-anchor="end">FieldProcessing</text>
  <rect x="819.1" y="218.4" width="81.2" height="15" fill="#ffffff" opacity="0.75" rx="2" />
  <text x="899.3" y="229.4" font-family="system-ui, -apple-system, sans-serif" font-size="12" fill="#1f2328" text-anchor="end">rJDKmanager</text>
  <rect x="789.3" y="115.6" width="59.6" height="15" fill="#ffffff" opacity="0.75" rx="2" />
  <text x="790.3" y="126.6" font-family="system-ui, -apple-system, sans-serif" font-size="12" fill="#1f2328" text-anchor="start">tagnotes</text>
  <rect x="697.0" y="78.9" width="81.2" height="15" fill="#ffffff" opacity="0.75" rx="2" />
  <text x="777.2" y="89.9" font-family="system-ui, -apple-system, sans-serif" font-size="12" fill="#1f2328" text-anchor="end">ChapelTests</text>
  <rect x="743.0" y="95.9" width="88.4" height="15" fill="#ffffff" opacity="0.75" rx="2" />
  <text x="744.0" y="106.9" font-family="system-ui, -apple-system, sans-serif" font-size="12" fill="#1f2328" text-anchor="start">Xfinity-WiFi</text>
  <rect x="661.0" y="493.2" width="66.8" height="15" fill="#ffffff" opacity="0.75" rx="2" />
  <text x="662.0" y="504.2" font-family="system-ui, -apple-system, sans-serif" font-size="12" fill="#1f2328" text-anchor="start">home-wiki</text>
  <rect x="793" y="36" width="155" height="120" rx="6" fill="#f6f8fa" stroke="#d0d7de" stroke-width="1" opacity="0.95" />
  <circle cx="810" cy="52" r="5" fill="#e74c3c" opacity="0.88" />
  <text x="820" y="56" font-family="system-ui, -apple-system, sans-serif" font-size="10" fill="#1f2328">Languages &amp; Compilers</text>
  <circle cx="810" cy="69" r="5" fill="#3498db" opacity="0.88" />
  <text x="820" y="73" font-family="system-ui, -apple-system, sans-serif" font-size="10" fill="#1f2328">Infrastructure &amp; DevOps</text>
  <circle cx="810" cy="86" r="5" fill="#e67e22" opacity="0.88" />
  <text x="820" y="90" font-family="system-ui, -apple-system, sans-serif" font-size="10" fill="#1f2328">Hardware &amp; Maker</text>
  <circle cx="810" cy="103" r="5" fill="#2ecc71" opacity="0.88" />
  <text x="820" y="107" font-family="system-ui, -apple-system, sans-serif" font-size="10" fill="#1f2328">ML &amp; Data</text>
  <circle cx="810" cy="120" r="5" fill="#9b59b6" opacity="0.88" />
  <text x="820" y="124" font-family="system-ui, -apple-system, sans-serif" font-size="10" fill="#1f2328">Web &amp; Apps</text>
  <circle cx="810" cy="137" r="5" fill="#7f8c8d" opacity="0.88" />
  <text x="820" y="141" font-family="system-ui, -apple-system, sans-serif" font-size="10" fill="#1f2328">Other</text>
  <text x="870" y="150" font-family="system-ui, -apple-system, sans-serif" font-size="8" fill="#656d76" text-anchor="middle">58 repos · 231 edges</text>
</svg>