<svg xmlns="http://www.w3.org/2000/svg" width="960" height="600" viewBox="0 0 960 600">
  <rect width="960" height="600" fill="#0d1117" rx="8" />
  <text x="480" y="24" font-family="system-ui, -apple-system, sans-serif" font-size="13" fill="#8b949e" text-anchor="middle" font-weight="500">Repo Relationship Graph &#x2014; Pairwise Topic &amp; Language Similarity</text>
  <line x1="50" y1="550" x2="910" y2="550" stroke="#484f58" stroke-width="0.5" opacity="0.5" />
  <text x="50" y="570" font-family="system-ui, -apple-system, sans-serif" font-size="9" fill="#8b949e" opacity="0.6">Updated daily by GitHub Actions</text>
  <text x="50" y="588" font-family="system-ui, -apple-system, sans-serif" font-size="9" fill="#8b949e" opacity="0.6">networkx spring_layout · Jaccard similarity &gt; 0.15</text>
  <text x="910" y="570" font-family="system-ui, -apple-system, sans-serif" font-size="9" fill="#8b949e" text-anchor="end" opacity="0.6">57 repos · 222 edges</text>
  <line x1="491.2" y1="294.1" x2="501.9" y2="302.5" stroke="#6e7681" stroke-width="1.0" opacity="0.23" />
  <line x1="491.2" y1="294.1" x2="551.8" y2="321.3" stroke="#6e7681" stroke-width="0.9" opacity="0.18" />
  <line x1="491.2" y1="294.1" x2="468.3" y2="316.3" stroke="#6e7681" stroke-width="1.0" opacity="0.25" />
  <line x1="491.2" y1="294.1" x2="467.3" y2="260.0" stroke="#6e7681" stroke-width="0.9" opacity="0.19" />
  <line x1="491.2" y1="294.1" x2="434.2" y2="310.5" stroke="#6e7681" stroke-width="0.9" opacity="0.17" />
  <line x1="491.2" y1="294.1" x2="490.5" y2="284.7" stroke="#6e7681" stroke-width="1.1" opacity="0.29" />
  <line x1="491.2" y1="294.1" x2="460.4" y2="304.0" stroke="#6e7681" stroke-width="1.0" opacity="0.24" />
  <line x1="491.2" y1="294.1" x2="493.7" y2="324.2" stroke="#6e7681" stroke-width="0.9" opacity="0.17" />
  <line x1="491.2" y1="294.1" x2="534.3" y2="298.5" stroke="#6e7681" stroke-width="1.1" opacity="0.28" />
  <line x1="491.2" y1="294.1" x2="505.7" y2="288.5" stroke="#6e7681" stroke-width="1.0" opacity="0.26" />
  <line x1="491.2" y1="294.1" x2="474.9" y2="284.3" stroke="#6e7681" stroke-width="1.0" opacity="0.26" />
  <line x1="491.2" y1="294.1" x2="513.2" y2="254.1" stroke="#6e7681" stroke-width="0.9" opacity="0.18" />
  <line x1="491.2" y1="294.1" x2="539.0" y2="263.5" stroke="#6e7681" stroke-width="1.1" opacity="0.30" />
  <line x1="491.2" y1="294.1" x2="504.7" y2="258.7" stroke="#6e7681" stroke-width="1.0" opacity="0.22" />
  <line x1="501.9" y1="302.5" x2="468.3" y2="316.3" stroke="#6e7681" stroke-width="0.9" opacity="0.17" />
  <line x1="501.9" y1="302.5" x2="434.2" y2="310.5" stroke="#6e7681" stroke-width="1.0" opacity="0.22" />
  <line x1="501.9" y1="302.5" x2="463.8" y2="339.3" stroke="#6e7681" stroke-width="0.9" opacity="0.18" />
  <line x1="501.9" y1="302.5" x2="490.5" y2="284.7" stroke="#6e7681" stroke-width="1.0" opacity="0.24" />
  <line x1="501.9" y1="302.5" x2="460.4" y2="304.0" stroke="#6e7681" stroke-width="0.9" opacity="0.21" />
  <line x1="501.9" y1="302.5" x2="493.7" y2="324.2" stroke="#6e7681" stroke-width="0.9" opacity="0.21" />
  <line x1="501.9" y1="302.5" x2="534.3" y2="298.5" stroke="#6e7681" stroke-width="1.1" opacity="0.30" />
  <line x1="501.9" y1="302.5" x2="505.7" y2="288.5" stroke="#6e7681" stroke-width="1.0" opacity="0.22" />
  <line x1="501.9" y1="302.5" x2="474.9" y2="284.3" stroke="#6e7681" stroke-width="1.0" opacity="0.22" />
  <line x1="501.9" y1="302.5" x2="565.6" y2="294.4" stroke="#6e7681" stroke-width="0.9" opacity="0.19" />
  <line x1="501.9" y1="302.5" x2="554.9" y2="267.2" stroke="#6e7681" stroke-width="0.9" opacity="0.21" />
  <line x1="501.9" y1="302.5" x2="539.0" y2="263.5" stroke="#6e7681" stroke-width="1.0" opacity="0.24" />
  <line x1="501.9" y1="302.5" x2="504.7" y2="258.7" stroke="#6e7681" stroke-width="0.9" opacity="0.17" />
  <line x1="551.8" y1="321.3" x2="493.7" y2="324.2" stroke="#6e7681" stroke-width="1.2" opacity="0.38" />
  <line x1="551.8" y1="321.3" x2="534.3" y2="298.5" stroke="#6e7681" stroke-width="1.2" opacity="0.34" />
  <line x1="551.8" y1="321.3" x2="593.0" y2="314.4" stroke="#6e7681" stroke-width="1.0" opacity="0.25" />
  <line x1="551.8" y1="321.3" x2="573.7" y2="283.1" stroke="#6e7681" stroke-width="0.9" opacity="0.20" />
  <line x1="551.8" y1="321.3" x2="599.0" y2="290.8" stroke="#6e7681" stroke-width="1.0" opacity="0.22" />
  <line x1="468.3" y1="316.3" x2="463.8" y2="339.3" stroke="#6e7681" stroke-width="0.9" opacity="0.20" />
  <line x1="468.3" y1="316.3" x2="490.5" y2="284.7" stroke="#6e7681" stroke-width="0.9" opacity="0.20" />
  <line x1="468.3" y1="316.3" x2="460.4" y2="304.0" stroke="#6e7681" stroke-width="1.0" opacity="0.23" />
  <line x1="468.3" y1="316.3" x2="493.7" y2="324.2" stroke="#6e7681" stroke-width="1.0" opacity="0.23" />
  <line x1="468.3" y1="316.3" x2="505.7" y2="288.5" stroke="#6e7681" stroke-width="1.0" opacity="0.24" />
  <line x1="468.3" y1="316.3" x2="474.9" y2="284.3" stroke="#6e7681" stroke-width="0.9" opacity="0.18" />
  <line x1="467.3" y1="260.0" x2="513.2" y2="254.1" stroke="#6e7681" stroke-width="0.9" opacity="0.18" />
  <line x1="467.3" y1="260.0" x2="539.0" y2="263.5" stroke="#6e7681" stroke-width="1.1" opacity="0.30" />
  <line x1="467.3" y1="260.0" x2="504.7" y2="258.7" stroke="#6e7681" stroke-width="1.0" opacity="0.22" />
  <line x1="434.2" y1="310.5" x2="350.0" y2="318.2" stroke="#6e7681" stroke-width="1.1" opacity="0.33" />
  <line x1="434.2" y1="310.5" x2="463.8" y2="339.3" stroke="#6e7681" stroke-width="0.9" opacity="0.19" />
  <line x1="434.2" y1="310.5" x2="490.5" y2="284.7" stroke="#6e7681" stroke-width="0.9" opacity="0.18" />
  <line x1="434.2" y1="310.5" x2="390.5" y2="316.1" stroke="#6e7681" stroke-width="0.9" opacity="0.18" />
  <line x1="434.2" y1="310.5" x2="368.6" y2="330.3" stroke="#6e7681" stroke-width="1.3" opacity="0.41" />
  <line x1="434.2" y1="310.5" x2="493.7" y2="324.2" stroke="#6e7681" stroke-width="1.0" opacity="0.24" />
  <line x1="434.2" y1="310.5" x2="534.3" y2="298.5" stroke="#6e7681" stroke-width="0.9" opacity="0.19" />
  <line x1="434.2" y1="310.5" x2="504.7" y2="258.7" stroke="#6e7681" stroke-width="0.9" opacity="0.18" />
  <line x1="350.0" y1="318.2" x2="368.6" y2="330.3" stroke="#6e7681" stroke-width="0.9" opacity="0.18" />
  <line x1="463.8" y1="339.3" x2="460.4" y2="304.0" stroke="#6e7681" stroke-width="0.9" opacity="0.19" />
  <line x1="463.8" y1="339.3" x2="493.7" y2="324.2" stroke="#6e7681" stroke-width="0.9" opacity="0.19" />
  <line x1="463.8" y1="339.3" x2="534.3" y2="298.5" stroke="#6e7681" stroke-width="0.9" opacity="0.17" />
  <line x1="463.8" y1="339.3" x2="418.3" y2="378.6" stroke="#6e7681" stroke-width="1.0" opacity="0.22" />
  <line x1="490.5" y1="284.7" x2="460.4" y2="304.0" stroke="#6e7681" stroke-width="1.0" opacity="0.26" />
  <line x1="490.5" y1="284.7" x2="493.7" y2="324.2" stroke="#6e7681" stroke-width="0.9" opacity="0.18" />
  <line x1="490.5" y1="284.7" x2="534.3" y2="298.5" stroke="#6e7681" stroke-width="1.0" opacity="0.22" />
  <line x1="490.5" y1="284.7" x2="505.7" y2="288.5" stroke="#6e7681" stroke-width="1.1" opacity="0.28" />
  <line x1="490.5" y1="284.7" x2="474.9" y2="284.3" stroke="#6e7681" stroke-width="1.1" opacity="0.28" />
  <line x1="490.5" y1="284.7" x2="516.5" y2="245.9" stroke="#6e7681" stroke-width="0.9" opacity="0.17" />
  <line x1="490.5" y1="284.7" x2="513.2" y2="254.1" stroke="#6e7681" stroke-width="0.9" opacity="0.20" />
  <line x1="490.5" y1="284.7" x2="554.9" y2="267.2" stroke="#6e7681" stroke-width="0.9" opacity="0.17" />
  <line x1="490.5" y1="284.7" x2="539.0" y2="263.5" stroke="#6e7681" stroke-width="0.9" opacity="0.20" />
  <line x1="490.5" y1="284.7" x2="504.7" y2="258.7" stroke="#6e7681" stroke-width="1.0" opacity="0.24" />
  <line x1="390.5" y1="316.1" x2="460.4" y2="304.0" stroke="#6e7681" stroke-width="1.2" opacity="0.34" />
  <line x1="390.5" y1="316.1" x2="368.6" y2="330.3" stroke="#6e7681" stroke-width="0.9" opacity="0.17" />
  <line x1="460.4" y1="304.0" x2="493.7" y2="324.2" stroke="#6e7681" stroke-width="1.0" opacity="0.22" />
  <line x1="460.4" y1="304.0" x2="534.3" y2="298.5" stroke="#6e7681" stroke-width="0.9" opacity="0.19" />
  <line x1="460.4" y1="304.0" x2="505.7" y2="288.5" stroke="#6e7681" stroke-width="1.0" opacity="0.23" />
  <line x1="460.4" y1="304.0" x2="474.9" y2="284.3" stroke="#6e7681" stroke-width="1.0" opacity="0.23" />
  <line x1="460.4" y1="304.0" x2="504.7" y2="258.7" stroke="#6e7681" stroke-width="0.9" opacity="0.18" />
  <line x1="493.7" y1="324.2" x2="534.3" y2="298.5" stroke="#6e7681" stroke-width="0.9" opacity="0.19" />
  <line x1="534.3" y1="298.5" x2="593.0" y2="314.4" stroke="#6e7681" stroke-width="1.2" opacity="0.34" />
  <line x1="534.3" y1="298.5" x2="505.7" y2="288.5" stroke="#6e7681" stroke-width="0.9" opacity="0.20" />
  <line x1="534.3" y1="298.5" x2="474.9" y2="284.3" stroke="#6e7681" stroke-width="0.9" opacity="0.20" />
  <line x1="534.3" y1="298.5" x2="573.7" y2="283.1" stroke="#6e7681" stroke-width="1.2" opacity="0.37" />
  <line x1="534.3" y1="298.5" x2="599.0" y2="290.8" stroke="#6e7681" stroke-width="1.2" opacity="0.37" />
  <line x1="534.3" y1="298.5" x2="565.6" y2="294.4" stroke="#6e7681" stroke-width="1.1" opacity="0.29" />
  <line x1="534.3" y1="298.5" x2="554.7" y2="276.3" stroke="#6e7681" stroke-width="1.0" opacity="0.22" />
  <line x1="534.3" y1="298.5" x2="554.9" y2="267.2" stroke="#6e7681" stroke-width="1.2" opacity="0.34" />
  <line x1="534.3" y1="298.5" x2="579.2" y2="266.8" stroke="#6e7681" stroke-width="1.0" opacity="0.24" />
  <line x1="534.3" y1="298.5" x2="539.0" y2="263.5" stroke="#6e7681" stroke-width="1.1" opacity="0.29" />
  <line x1="534.3" y1="298.5" x2="592.4" y2="273.9" stroke="#6e7681" stroke-width="1.0" opacity="0.22" />
  <line x1="593.0" y1="314.4" x2="573.7" y2="283.1" stroke="#6e7681" stroke-width="1.0" opacity="0.25" />
  <line x1="593.0" y1="314.4" x2="599.0" y2="290.8" stroke="#6e7681" stroke-width="1.1" opacity="0.29" />
  <line x1="593.0" y1="314.4" x2="592.4" y2="273.9" stroke="#6e7681" stroke-width="0.9" opacity="0.17" />
  <line x1="619.3" y1="276.9" x2="573.7" y2="283.1" stroke="#6e7681" stroke-width="0.9" opacity="0.18" />
  <line x1="619.3" y1="276.9" x2="599.0" y2="290.8" stroke="#6e7681" stroke-width="0.9" opacity="0.18" />
  <line x1="619.3" y1="276.9" x2="554.9" y2="267.2" stroke="#6e7681" stroke-width="0.9" opacity="0.17" />
  <line x1="619.3" y1="276.9" x2="579.2" y2="266.8" stroke="#6e7681" stroke-width="1.3" opacity="0.42" />
  <line x1="619.3" y1="276.9" x2="539.0" y2="263.5" stroke="#6e7681" stroke-width="0.9" opacity="0.19" />
  <line x1="619.3" y1="276.9" x2="592.4" y2="273.9" stroke="#6e7681" stroke-width="0.9" opacity="0.21" />
  <line x1="505.7" y1="288.5" x2="474.9" y2="284.3" stroke="#6e7681" stroke-width="1.0" opacity="0.24" />
  <line x1="505.7" y1="288.5" x2="554.7" y2="276.3" stroke="#6e7681" stroke-width="0.9" opacity="0.19" />
  <line x1="505.7" y1="288.5" x2="536.4" y2="273.4" stroke="#6e7681" stroke-width="0.9" opacity="0.18" />
  <line x1="505.7" y1="288.5" x2="513.2" y2="254.1" stroke="#6e7681" stroke-width="0.9" opacity="0.17" />
  <line x1="505.7" y1="288.5" x2="539.0" y2="263.5" stroke="#6e7681" stroke-width="0.9" opacity="0.17" />
  <line x1="505.7" y1="288.5" x2="504.7" y2="258.7" stroke="#6e7681" stroke-width="0.9" opacity="0.20" />
  <line x1="474.9" y1="284.3" x2="513.2" y2="254.1" stroke="#6e7681" stroke-width="0.9" opacity="0.17" />
  <line x1="474.9" y1="284.3" x2="539.0" y2="263.5" stroke="#6e7681" stroke-width="0.9" opacity="0.17" />
  <line x1="474.9" y1="284.3" x2="504.7" y2="258.7" stroke="#6e7681" stroke-width="0.9" opacity="0.20" />
  <line x1="445.5" y1="199.1" x2="474.8" y2="245.5" stroke="#6e7681" stroke-width="1.3" opacity="0.44" />
  <line x1="445.5" y1="199.1" x2="444.9" y2="209.2" stroke="#6e7681" stroke-width="0.9" opacity="0.18" />
  <line x1="474.8" y1="245.5" x2="511.7" y2="227.6" stroke="#6e7681" stroke-width="1.1" opacity="0.31" />
  <line x1="474.8" y1="245.5" x2="516.5" y2="245.9" stroke="#6e7681" stroke-width="0.9" opacity="0.20" />
  <line x1="474.8" y1="245.5" x2="513.2" y2="254.1" stroke="#6e7681" stroke-width="1.0" opacity="0.24" />
  <line x1="474.8" y1="245.5" x2="554.9" y2="267.2" stroke="#6e7681" stroke-width="0.9" opacity="0.20" />
  <line x1="474.8" y1="245.5" x2="539.0" y2="263.5" stroke="#6e7681" stroke-width="1.0" opacity="0.24" />
  <line x1="474.8" y1="245.5" x2="542.2" y2="247.5" stroke="#6e7681" stroke-width="0.9" opacity="0.18" />
  <line x1="474.8" y1="245.5" x2="426.4" y2="346.5" stroke="#6e7681" stroke-width="0.9" opacity="0.17" />
  <line x1="474.8" y1="245.5" x2="497.9" y2="225.4" stroke="#6e7681" stroke-width="1.1" opacity="0.31" />
  <line x1="474.8" y1="245.5" x2="444.9" y2="209.2" stroke="#6e7681" stroke-width="1.1" opacity="0.30" />
  <line x1="474.8" y1="245.5" x2="504.7" y2="258.7" stroke="#6e7681" stroke-width="1.1" opacity="0.31" />
  <line x1="197.5" y1="499.7" x2="222.9" y2="499.6" stroke="#6e7681" stroke-width="1.6" opacity="0.60" />
  <line x1="720.3" y1="325.9" x2="599.0" y2="290.8" stroke="#6e7681" stroke-width="0.9" opacity="0.18" />
  <line x1="720.3" y1="325.9" x2="788.3" y2="345.6" stroke="#6e7681" stroke-width="1.1" opacity="0.28" />
  <line x1="597.4" y1="254.7" x2="573.7" y2="283.1" stroke="#6e7681" stroke-width="0.9" opacity="0.17" />
  <line x1="597.4" y1="254.7" x2="599.0" y2="290.8" stroke="#6e7681" stroke-width="0.9" opacity="0.18" />
  <line x1="597.4" y1="254.7" x2="554.7" y2="276.3" stroke="#6e7681" stroke-width="1.0" opacity="0.22" />
  <line x1="597.4" y1="254.7" x2="554.9" y2="267.2" stroke="#6e7681" stroke-width="1.1" opacity="0.28" />
  <line x1="597.4" y1="254.7" x2="579.2" y2="266.8" stroke="#6e7681" stroke-width="1.1" opacity="0.32" />
  <line x1="597.4" y1="254.7" x2="539.0" y2="263.5" stroke="#6e7681" stroke-width="0.9" opacity="0.20" />
  <line x1="597.4" y1="254.7" x2="592.4" y2="273.9" stroke="#6e7681" stroke-width="1.0" opacity="0.22" />
  <line x1="597.4" y1="254.7" x2="562.4" y2="230.3" stroke="#6e7681" stroke-width="1.0" opacity="0.22" />
  <line x1="573.7" y1="283.1" x2="599.0" y2="290.8" stroke="#6e7681" stroke-width="1.3" opacity="0.42" />
  <line x1="573.7" y1="283.1" x2="617.5" y2="266.3" stroke="#6e7681" stroke-width="0.9" opacity="0.18" />
  <line x1="573.7" y1="283.1" x2="565.6" y2="294.4" stroke="#6e7681" stroke-width="1.1" opacity="0.31" />
  <line x1="573.7" y1="283.1" x2="554.7" y2="276.3" stroke="#6e7681" stroke-width="1.1" opacity="0.32" />
  <line x1="573.7" y1="283.1" x2="536.4" y2="273.4" stroke="#6e7681" stroke-width="1.0" opacity="0.23" />
  <line x1="573.7" y1="283.1" x2="554.9" y2="267.2" stroke="#6e7681" stroke-width="1.2" opacity="0.39" />
  <line x1="573.7" y1="283.1" x2="579.2" y2="266.8" stroke="#6e7681" stroke-width="1.0" opacity="0.26" />
  <line x1="573.7" y1="283.1" x2="539.0" y2="263.5" stroke="#6e7681" stroke-width="1.2" opacity="0.34" />
  <line x1="573.7" y1="283.1" x2="542.2" y2="247.5" stroke="#6e7681" stroke-width="0.9" opacity="0.19" />
  <line x1="573.7" y1="283.1" x2="592.4" y2="273.9" stroke="#6e7681" stroke-width="1.0" opacity="0.25" />
  <line x1="573.7" y1="283.1" x2="504.7" y2="258.7" stroke="#6e7681" stroke-width="0.9" opacity="0.17" />
  <line x1="599.0" y1="290.8" x2="617.5" y2="266.3" stroke="#6e7681" stroke-width="1.1" opacity="0.33" />
  <line x1="599.0" y1="290.8" x2="565.6" y2="294.4" stroke="#6e7681" stroke-width="0.9" opacity="0.21" />
  <line x1="599.0" y1="290.8" x2="554.7" y2="276.3" stroke="#6e7681" stroke-width="0.9" opacity="0.18" />
  <line x1="599.0" y1="290.8" x2="554.9" y2="267.2" stroke="#6e7681" stroke-width="1.3" opacity="0.41" />
  <line x1="599.0" y1="290.8" x2="579.2" y2="266.8" stroke="#6e7681" stroke-width="1.0" opacity="0.22" />
  <line x1="599.0" y1="290.8" x2="539.0" y2="263.5" stroke="#6e7681" stroke-width="1.1" opacity="0.31" />
  <line x1="599.0" y1="290.8" x2="592.4" y2="273.9" stroke="#6e7681" stroke-width="1.7" opacity="0.66" />
  <line x1="528.3" y1="233.1" x2="511.7" y2="227.6" stroke="#6e7681" stroke-width="1.5" opacity="0.55" />
  <line x1="528.3" y1="233.1" x2="516.5" y2="245.9" stroke="#6e7681" stroke-width="0.9" opacity="0.18" />
  <line x1="528.3" y1="233.1" x2="513.2" y2="254.1" stroke="#6e7681" stroke-width="1.1" opacity="0.28" />
  <line x1="528.3" y1="233.1" x2="554.9" y2="267.2" stroke="#6e7681" stroke-width="0.9" opacity="0.18" />
  <line x1="528.3" y1="233.1" x2="539.0" y2="263.5" stroke="#6e7681" stroke-width="1.1" opacity="0.28" />
  <line x1="528.3" y1="233.1" x2="527.7" y2="221.6" stroke="#6e7681" stroke-width="1.5" opacity="0.55" />
  <line x1="528.3" y1="233.1" x2="562.4" y2="230.3" stroke="#6e7681" stroke-width="1.2" opacity="0.37" />
  <line x1="528.3" y1="233.1" x2="497.9" y2="225.4" stroke="#6e7681" stroke-width="1.5" opacity="0.55" />
  <line x1="528.3" y1="233.1" x2="504.7" y2="258.7" stroke="#6e7681" stroke-width="1.5" opacity="0.55" />
  <line x1="511.7" y1="227.6" x2="513.2" y2="254.1" stroke="#6e7681" stroke-width="1.0" opacity="0.22" />
  <line x1="511.7" y1="227.6" x2="539.0" y2="263.5" stroke="#6e7681" stroke-width="1.0" opacity="0.22" />
  <line x1="511.7" y1="227.6" x2="527.7" y2="221.6" stroke="#6e7681" stroke-width="1.2" opacity="0.37" />
  <line x1="511.7" y1="227.6" x2="562.4" y2="230.3" stroke="#6e7681" stroke-width="1.1" opacity="0.28" />
  <line x1="511.7" y1="227.6" x2="497.9" y2="225.4" stroke="#6e7681" stroke-width="1.2" opacity="0.37" />
  <line x1="511.7" y1="227.6" x2="504.7" y2="258.7" stroke="#6e7681" stroke-width="1.2" opacity="0.37" />
  <line x1="617.5" y1="266.3" x2="554.9" y2="267.2" stroke="#6e7681" stroke-width="0.9" opacity="0.18" />
  <line x1="617.5" y1="266.3" x2="579.2" y2="266.8" stroke="#6e7681" stroke-width="0.9" opacity="0.18" />
  <line x1="617.5" y1="266.3" x2="539.0" y2="263.5" stroke="#6e7681" stroke-width="1.0" opacity="0.22" />
  <line x1="617.5" y1="266.3" x2="592.4" y2="273.9" stroke="#6e7681" stroke-width="1.3" opacity="0.41" />
  <line x1="565.6" y1="294.4" x2="554.7" y2="276.3" stroke="#6e7681" stroke-width="1.1" opacity="0.31" />
  <line x1="565.6" y1="294.4" x2="554.9" y2="267.2" stroke="#6e7681" stroke-width="1.4" opacity="0.47" />
  <line x1="565.6" y1="294.4" x2="579.2" y2="266.8" stroke="#6e7681" stroke-width="0.9" opacity="0.19" />
  <line x1="565.6" y1="294.4" x2="539.0" y2="263.5" stroke="#6e7681" stroke-width="1.0" opacity="0.22" />
  <line x1="554.7" y1="276.3" x2="536.4" y2="273.4" stroke="#6e7681" stroke-width="1.1" opacity="0.29" />
  <line x1="554.7" y1="276.3" x2="516.5" y2="245.9" stroke="#6e7681" stroke-width="0.9" opacity="0.17" />
  <line x1="554.7" y1="276.3" x2="513.2" y2="254.1" stroke="#6e7681" stroke-width="0.9" opacity="0.20" />
  <line x1="554.7" y1="276.3" x2="554.9" y2="267.2" stroke="#6e7681" stroke-width="1.3" opacity="0.40" />
  <line x1="554.7" y1="276.3" x2="579.2" y2="266.8" stroke="#6e7681" stroke-width="1.0" opacity="0.24" />
  <line x1="554.7" y1="276.3" x2="539.0" y2="263.5" stroke="#6e7681" stroke-width="0.9" opacity="0.20" />
  <line x1="554.7" y1="276.3" x2="504.7" y2="258.7" stroke="#6e7681" stroke-width="1.0" opacity="0.24" />
  <line x1="536.4" y1="273.4" x2="513.2" y2="254.1" stroke="#6e7681" stroke-width="0.9" opacity="0.18" />
  <line x1="536.4" y1="273.4" x2="579.2" y2="266.8" stroke="#6e7681" stroke-width="1.0" opacity="0.23" />
  <line x1="536.4" y1="273.4" x2="539.0" y2="263.5" stroke="#6e7681" stroke-width="0.9" opacity="0.18" />
  <line x1="536.4" y1="273.4" x2="542.2" y2="247.5" stroke="#6e7681" stroke-width="1.0" opacity="0.24" />
  <line x1="536.4" y1="273.4" x2="504.7" y2="258.7" stroke="#6e7681" stroke-width="1.0" opacity="0.22" />
  <line x1="516.5" y1="245.9" x2="513.2" y2="254.1" stroke="#6e7681" stroke-width="1.1" opacity="0.28" />
  <line x1="516.5" y1="245.9" x2="554.9" y2="267.2" stroke="#6e7681" stroke-width="1.0" opacity="0.22" />
  <line x1="516.5" y1="245.9" x2="539.0" y2="263.5" stroke="#6e7681" stroke-width="1.1" opacity="0.28" />
  <line x1="516.5" y1="245.9" x2="542.2" y2="247.5" stroke="#6e7681" stroke-width="0.9" opacity="0.20" />
  <line x1="516.5" y1="245.9" x2="504.7" y2="258.7" stroke="#6e7681" stroke-width="1.2" opacity="0.37" />
  <line x1="513.2" y1="254.1" x2="554.9" y2="267.2" stroke="#6e7681" stroke-width="1.1" opacity="0.28" />
  <line x1="513.2" y1="254.1" x2="539.0" y2="263.5" stroke="#6e7681" stroke-width="1.2" opacity="0.37" />
  <line x1="513.2" y1="254.1" x2="527.7" y2="221.6" stroke="#6e7681" stroke-width="1.0" opacity="0.22" />
  <line x1="513.2" y1="254.1" x2="542.2" y2="247.5" stroke="#6e7681" stroke-width="1.0" opacity="0.24" />
  <line x1="513.2" y1="254.1" x2="562.4" y2="230.3" stroke="#6e7681" stroke-width="0.9" opacity="0.18" />
  <line x1="513.2" y1="254.1" x2="497.9" y2="225.4" stroke="#6e7681" stroke-width="1.0" opacity="0.22" />
  <line x1="513.2" y1="254.1" x2="504.7" y2="258.7" stroke="#6e7681" stroke-width="1.5" opacity="0.55" />
  <line x1="554.9" y1="267.2" x2="579.2" y2="266.8" stroke="#6e7681" stroke-width="1.1" opacity="0.29" />
  <line x1="554.9" y1="267.2" x2="539.0" y2="263.5" stroke="#6e7681" stroke-width="1.4" opacity="0.47" />
  <line x1="554.9" y1="267.2" x2="542.2" y2="247.5" stroke="#6e7681" stroke-width="0.9" opacity="0.20" />
  <line x1="554.9" y1="267.2" x2="592.4" y2="273.9" stroke="#6e7681" stroke-width="1.1" opacity="0.31" />
  <line x1="554.9" y1="267.2" x2="562.4" y2="230.3" stroke="#6e7681" stroke-width="1.1" opacity="0.31" />
  <line x1="554.9" y1="267.2" x2="504.7" y2="258.7" stroke="#6e7681" stroke-width="1.2" opacity="0.37" />
  <line x1="579.2" y1="266.8" x2="539.0" y2="263.5" stroke="#6e7681" stroke-width="1.2" opacity="0.34" />
  <line x1="579.2" y1="266.8" x2="592.4" y2="273.9" stroke="#6e7681" stroke-width="1.0" opacity="0.25" />
  <line x1="579.2" y1="266.8" x2="562.4" y2="230.3" stroke="#6e7681" stroke-width="1.0" opacity="0.25" />
  <line x1="579.2" y1="266.8" x2="504.7" y2="258.7" stroke="#6e7681" stroke-width="0.9" opacity="0.17" />
  <line x1="539.0" y1="263.5" x2="527.7" y2="221.6" stroke="#6e7681" stroke-width="1.0" opacity="0.22" />
  <line x1="539.0" y1="263.5" x2="542.2" y2="247.5" stroke="#6e7681" stroke-width="1.0" opacity="0.24" />
  <line x1="539.0" y1="263.5" x2="592.4" y2="273.9" stroke="#6e7681" stroke-width="1.3" opacity="0.44" />
  <line x1="539.0" y1="263.5" x2="562.4" y2="230.3" stroke="#6e7681" stroke-width="1.3" opacity="0.44" />
  <line x1="539.0" y1="263.5" x2="497.9" y2="225.4" stroke="#6e7681" stroke-width="1.0" opacity="0.22" />
  <line x1="539.0" y1="263.5" x2="504.7" y2="258.7" stroke="#6e7681" stroke-width="1.5" opacity="0.55" />
  <line x1="714.1" y1="50.0" x2="738.1" y2="67.6" stroke="#6e7681" stroke-width="1.0" opacity="0.22" />
  <line x1="410.3" y1="227.4" x2="504.7" y2="258.7" stroke="#6e7681" stroke-width="1.0" opacity="0.22" />
  <line x1="527.7" y1="221.6" x2="562.4" y2="230.3" stroke="#6e7681" stroke-width="1.1" opacity="0.28" />
  <line x1="527.7" y1="221.6" x2="497.9" y2="225.4" stroke="#6e7681" stroke-width="1.2" opacity="0.37" />
  <line x1="527.7" y1="221.6" x2="504.7" y2="258.7" stroke="#6e7681" stroke-width="1.2" opacity="0.37" />
  <line x1="420.9" y1="391.1" x2="418.3" y2="378.6" stroke="#6e7681" stroke-width="1.5" opacity="0.55" />
  <line x1="420.9" y1="391.1" x2="426.4" y2="346.5" stroke="#6e7681" stroke-width="1.3" opacity="0.41" />
  <line x1="418.3" y1="378.6" x2="426.4" y2="346.5" stroke="#6e7681" stroke-width="1.0" opacity="0.24" />
  <line x1="542.2" y1="247.5" x2="504.7" y2="258.7" stroke="#6e7681" stroke-width="1.1" opacity="0.31" />
  <line x1="592.4" y1="273.9" x2="562.4" y2="230.3" stroke="#6e7681" stroke-width="1.0" opacity="0.22" />
  <line x1="562.4" y1="230.3" x2="602.1" y2="188.8" stroke="#6e7681" stroke-width="1.2" opacity="0.37" />
  <line x1="562.4" y1="230.3" x2="614.6" y2="172.9" stroke="#6e7681" stroke-width="0.9" opacity="0.18" />
  <line x1="562.4" y1="230.3" x2="497.9" y2="225.4" stroke="#6e7681" stroke-width="1.1" opacity="0.28" />
  <line x1="562.4" y1="230.3" x2="504.7" y2="258.7" stroke="#6e7681" stroke-width="1.1" opacity="0.28" />
  <line x1="602.1" y1="188.8" x2="614.6" y2="172.9" stroke="#6e7681" stroke-width="1.1" opacity="0.28" />
  <line x1="497.9" y1="225.4" x2="444.9" y2="209.2" stroke="#6e7681" stroke-width="1.1" opacity="0.31" />
  <line x1="497.9" y1="225.4" x2="504.7" y2="258.7" stroke="#6e7681" stroke-width="1.2" opacity="0.37" />
  <circle cx="491.2" cy="294.1" r="17.1" fill="#e67e22" opacity="0.12" />
  <circle cx="491.2" cy="294.1" r="13.1" fill="#e67e22" opacity="0.88" />
  <circle cx="501.9" cy="302.5" r="19.8" fill="#7f8c8d" opacity="0.12" />
  <circle cx="501.9" cy="302.5" r="15.8" fill="#7f8c8d" opacity="0.88" />
  <circle cx="551.8" cy="321.3" r="20" fill="#3498db" opacity="0.12" />
  <circle cx="551.8" cy="321.3" r="16" fill="#3498db" opacity="0.88" />
  <circle cx="468.3" cy="316.3" r="20" fill="#7f8c8d" opacity="0.12" />
  <circle cx="468.3" cy="316.3" r="16" fill="#7f8c8d" opacity="0.88" />
  <circle cx="467.3" cy="260.0" r="17.1" fill="#e67e22" opacity="0.12" />
  <circle cx="467.3" cy="260.0" r="13.1" fill="#e67e22" opacity="0.88" />
  <circle cx="434.2" cy="310.5" r="12.6" fill="#3498db" opacity="0.12" />
  <circle cx="434.2" cy="310.5" r="8.6" fill="#3498db" opacity="0.88" />
  <circle cx="350.0" cy="318.2" r="15.3" fill="#3498db" opacity="0.12" />
  <circle cx="350.0" cy="318.2" r="11.3" fill="#3498db" opacity="0.88" />
  <circle cx="463.8" cy="339.3" r="20" fill="#2ecc71" opacity="0.12" />
  <circle cx="463.8" cy="339.3" r="16" fill="#2ecc71" opacity="0.88" />
  <circle cx="490.5" cy="284.7" r="16.2" fill="#3498db" opacity="0.12" />
  <circle cx="490.5" cy="284.7" r="12.2" fill="#3498db" opacity="0.88" />
  <circle cx="390.5" cy="316.1" r="16.2" fill="#7f8c8d" opacity="0.12" />
  <circle cx="390.5" cy="316.1" r="12.2" fill="#7f8c8d" opacity="0.88" />
  <circle cx="460.4" cy="304.0" r="18.9" fill="#7f8c8d" opacity="0.12" />
  <circle cx="460.4" cy="304.0" r="14.9" fill="#7f8c8d" opacity="0.88" />
  <circle cx="368.6" cy="330.3" r="13.5" fill="#7f8c8d" opacity="0.12" />
  <circle cx="368.6" cy="330.3" r="9.5" fill="#7f8c8d" opacity="0.88" />
  <circle cx="493.7" cy="324.2" r="18.9" fill="#3498db" opacity="0.12" />
  <circle cx="493.7" cy="324.2" r="14.9" fill="#3498db" opacity="0.88" />
  <circle cx="534.3" cy="298.5" r="20" fill="#7f8c8d" opacity="0.12" />
  <circle cx="534.3" cy="298.5" r="16" fill="#7f8c8d" opacity="0.88" />
  <circle cx="593.0" cy="314.4" r="20" fill="#e74c3c" opacity="0.12" />
  <circle cx="593.0" cy="314.4" r="16" fill="#e74c3c" opacity="0.88" />
  <circle cx="619.3" cy="276.9" r="20" fill="#9b59b6" opacity="0.12" />
  <circle cx="619.3" cy="276.9" r="16" fill="#9b59b6" opacity="0.88" />
  <circle cx="505.7" cy="288.5" r="18.0" fill="#3498db" opacity="0.12" />
  <circle cx="505.7" cy="288.5" r="14.0" fill="#3498db" opacity="0.88" />
  <circle cx="474.9" cy="284.3" r="18.0" fill="#3498db" opacity="0.12" />
  <circle cx="474.9" cy="284.3" r="14.0" fill="#3498db" opacity="0.88" />
  <circle cx="445.5" cy="199.1" r="14.4" fill="#e74c3c" opacity="0.12" />
  <circle cx="445.5" cy="199.1" r="10.4" fill="#e74c3c" opacity="0.88" />
  <circle cx="910.0" cy="163.3" r="16.2" fill="#3498db" opacity="0.12" />
  <circle cx="910.0" cy="163.3" r="12.2" fill="#3498db" opacity="0.88" />
  <circle cx="474.8" cy="245.5" r="14.4" fill="#e74c3c" opacity="0.12" />
  <circle cx="474.8" cy="245.5" r="10.4" fill="#e74c3c" opacity="0.88" />
  <circle cx="197.5" cy="499.7" r="16.2" fill="#3498db" opacity="0.12" />
  <circle cx="197.5" cy="499.7" r="12.2" fill="#3498db" opacity="0.88" />
  <circle cx="222.9" cy="499.6" r="15.3" fill="#3498db" opacity="0.12" />
  <circle cx="222.9" cy="499.6" r="11.3" fill="#3498db" opacity="0.88" />
  <circle cx="720.3" cy="325.9" r="9.9" fill="#3498db" opacity="0.12" />
  <circle cx="720.3" cy="325.9" r="5.9" fill="#3498db" opacity="0.88" />
  <circle cx="597.4" cy="254.7" r="16.2" fill="#9b59b6" opacity="0.12" />
  <circle cx="597.4" cy="254.7" r="12.2" fill="#9b59b6" opacity="0.88" />
  <circle cx="573.7" cy="283.1" r="19.8" fill="#9b59b6" opacity="0.12" />
  <circle cx="573.7" cy="283.1" r="15.8" fill="#9b59b6" opacity="0.88" />
  <circle cx="599.0" cy="290.8" r="12.6" fill="#9b59b6" opacity="0.12" />
  <circle cx="599.0" cy="290.8" r="8.6" fill="#9b59b6" opacity="0.88" />
  <circle cx="528.3" cy="233.1" r="9" fill="#2ecc71" opacity="0.12" />
  <circle cx="528.3" cy="233.1" r="5" fill="#2ecc71" opacity="0.88" />
  <circle cx="511.7" cy="227.6" r="9.9" fill="#7f8c8d" opacity="0.12" />
  <circle cx="511.7" cy="227.6" r="5.9" fill="#7f8c8d" opacity="0.88" />
  <circle cx="617.5" cy="266.3" r="15.3" fill="#e67e22" opacity="0.12" />
  <circle cx="617.5" cy="266.3" r="11.3" fill="#e67e22" opacity="0.88" />
  <circle cx="565.6" cy="294.4" r="20" fill="#2ecc71" opacity="0.12" />
  <circle cx="565.6" cy="294.4" r="16" fill="#2ecc71" opacity="0.88" />
  <circle cx="788.3" cy="345.6" r="10.8" fill="#9b59b6" opacity="0.12" />
  <circle cx="788.3" cy="345.6" r="6.8" fill="#9b59b6" opacity="0.88" />
  <circle cx="92.8" cy="397.3" r="9" fill="#7f8c8d" opacity="0.12" />
  <circle cx="92.8" cy="397.3" r="5" fill="#7f8c8d" opacity="0.88" />
  <circle cx="554.7" cy="276.3" r="16.2" fill="#3498db" opacity="0.12" />
  <circle cx="554.7" cy="276.3" r="12.2" fill="#3498db" opacity="0.88" />
  <circle cx="536.4" cy="273.4" r="17.1" fill="#7f8c8d" opacity="0.12" />
  <circle cx="536.4" cy="273.4" r="13.1" fill="#7f8c8d" opacity="0.88" />
  <circle cx="516.5" cy="245.9" r="13.5" fill="#7f8c8d" opacity="0.12" />
  <circle cx="516.5" cy="245.9" r="9.5" fill="#7f8c8d" opacity="0.88" />
  <circle cx="50.0" cy="317.6" r="9" fill="#7f8c8d" opacity="0.12" />
  <circle cx="50.0" cy="317.6" r="5" fill="#7f8c8d" opacity="0.88" />
  <circle cx="513.2" cy="254.1" r="11.7" fill="#7f8c8d" opacity="0.12" />
  <circle cx="513.2" cy="254.1" r="7.7" fill="#7f8c8d" opacity="0.88" />
  <circle cx="554.9" cy="267.2" r="13.5" fill="#7f8c8d" opacity="0.12" />
  <circle cx="554.9" cy="267.2" r="9.5" fill="#7f8c8d" opacity="0.88" />
  <circle cx="579.2" cy="266.8" r="19.8" fill="#2ecc71" opacity="0.12" />
  <circle cx="579.2" cy="266.8" r="15.8" fill="#2ecc71" opacity="0.88" />
  <circle cx="539.0" cy="263.5" r="11.7" fill="#7f8c8d" opacity="0.12" />
  <circle cx="539.0" cy="263.5" r="7.7" fill="#7f8c8d" opacity="0.88" />
  <circle cx="714.1" cy="50.0" r="11.7" fill="#7f8c8d" opacity="0.12" />
  <circle cx="714.1" cy="50.0" r="7.7" fill="#7f8c8d" opacity="0.88" />
  <circle cx="410.3" cy="227.4" r="11.7" fill="#3498db" opacity="0.12" />
  <circle cx="410.3" cy="227.4" r="7.7" fill="#3498db" opacity="0.88" />
  <circle cx="527.7" cy="221.6" r="9.9" fill="#7f8c8d" opacity="0.12" />
  <circle cx="527.7" cy="221.6" r="5.9" fill="#7f8c8d" opacity="0.88" />
  <circle cx="420.9" cy="391.1" r="10.8" fill="#e67e22" opacity="0.12" />
  <circle cx="420.9" cy="391.1" r="6.8" fill="#e67e22" opacity="0.88" />
  <circle cx="418.3" cy="378.6" r="10.8" fill="#e67e22" opacity="0.12" />
  <circle cx="418.3" cy="378.6" r="6.8" fill="#e67e22" opacity="0.88" />
  <circle cx="542.2" cy="247.5" r="14.4" fill="#7f8c8d" opacity="0.12" />
  <circle cx="542.2" cy="247.5" r="10.4" fill="#7f8c8d" opacity="0.88" />
  <circle cx="426.4" cy="346.5" r="15.3" fill="#e67e22" opacity="0.12" />
  <circle cx="426.4" cy="346.5" r="11.3" fill="#e67e22" opacity="0.88" />
  <circle cx="738.1" cy="67.6" r="9.9" fill="#7f8c8d" opacity="0.12" />
  <circle cx="738.1" cy="67.6" r="5.9" fill="#7f8c8d" opacity="0.88" />
  <circle cx="592.4" cy="273.9" r="10.8" fill="#7f8c8d" opacity="0.12" />
  <circle cx="592.4" cy="273.9" r="6.8" fill="#7f8c8d" opacity="0.88" />
  <circle cx="562.4" cy="230.3" r="10.8" fill="#7f8c8d" opacity="0.12" />
  <circle cx="562.4" cy="230.3" r="6.8" fill="#7f8c8d" opacity="0.88" />
  <circle cx="602.1" cy="188.8" r="9" fill="#2ecc71" opacity="0.12" />
  <circle cx="602.1" cy="188.8" r="5" fill="#2ecc71" opacity="0.88" />
  <circle cx="614.6" cy="172.9" r="11.7" fill="#2ecc71" opacity="0.12" />
  <circle cx="614.6" cy="172.9" r="7.7" fill="#2ecc71" opacity="0.88" />
  <circle cx="497.9" cy="225.4" r="9.9" fill="#e74c3c" opacity="0.12" />
  <circle cx="497.9" cy="225.4" r="5.9" fill="#e74c3c" opacity="0.88" />
  <circle cx="444.9" cy="209.2" r="14.4" fill="#e74c3c" opacity="0.12" />
  <circle cx="444.9" cy="209.2" r="10.4" fill="#e74c3c" opacity="0.88" />
  <circle cx="504.7" cy="258.7" r="9.9" fill="#7f8c8d" opacity="0.12" />
  <circle cx="504.7" cy="258.7" r="5.9" fill="#7f8c8d" opacity="0.88" />
  <circle cx="816.4" cy="500.0" r="9" fill="#7f8c8d" opacity="0.12" />
  <circle cx="816.4" cy="500.0" r="5" fill="#7f8c8d" opacity="0.88" />
  <rect x="506.3" y="289.3" width="45.2" height="15" fill="#0d1117" opacity="0.75" rx="2" />
  <text x="507.3" y="300.3" font-family="system-ui, -apple-system, sans-serif" font-size="12" fill="#e6edf3" text-anchor="start">XoxdWM</text>
  <rect x="519.7" y="371.5" width="124.4" height="15" fill="#0d1117" opacity="0.75" rx="2" />
  <text x="520.7" y="382.5" font-family="system-ui, -apple-system, sans-serif" font-size="12" fill="#e6edf3" text-anchor="start">tinyland-huskycat</text>
  <rect x="569.8" y="284.7" width="117.2" height="15" fill="#0d1117" opacity="0.75" rx="2" />
  <text x="570.8" y="295.7" font-family="system-ui, -apple-system, sans-serif" font-size="12" fill="#e6edf3" text-anchor="start">GloriousFlywheel</text>
  <rect x="486.3" y="309.6" width="74.0" height="15" fill="#0d1117" opacity="0.75" rx="2" />
  <text x="487.3" y="320.6" font-family="system-ui, -apple-system, sans-serif" font-size="12" fill="#e6edf3" text-anchor="start">tummycrypt</text>
  <rect x="482.4" y="403.1" width="110.0" height="15" fill="#0d1117" opacity="0.75" rx="2" />
  <text x="483.4" y="414.1" font-family="system-ui, -apple-system, sans-serif" font-size="12" fill="#e6edf3" text-anchor="start">hiberpower-ntfs</text>
  <rect x="444.8" y="312.0" width="16.4" height="15" fill="#0d1117" opacity="0.75" rx="2" />
  <text x="445.8" y="323.0" font-family="system-ui, -apple-system, sans-serif" font-size="12" fill="#e6edf3" text-anchor="start">pp</text>
  <rect x="363.3" y="327.5" width="117.2" height="15" fill="#0d1117" opacity="0.75" rx="2" />
  <text x="364.3" y="338.5" font-family="system-ui, -apple-system, sans-serif" font-size="12" fill="#e6edf3" text-anchor="start">tinyland-cleanup</text>
  <rect x="481.8" y="430.4" width="59.6" height="15" fill="#0d1117" opacity="0.75" rx="2" />
  <text x="482.8" y="441.4" font-family="system-ui, -apple-system, sans-serif" font-size="12" fill="#e6edf3" text-anchor="start">gnucashr</text>
  <rect x="504.7" y="265.8" width="66.8" height="15" fill="#0d1117" opacity="0.75" rx="2" />
  <text x="505.7" y="276.8" font-family="system-ui, -apple-system, sans-serif" font-size="12" fill="#e6edf3" text-anchor="start">betterkvm</text>
  <rect x="404.7" y="296.7" width="131.6" height="15" fill="#0d1117" opacity="0.75" rx="2" />
  <text x="405.7" y="307.7" font-family="system-ui, -apple-system, sans-serif" font-size="12" fill="#e6edf3" text-anchor="start">aperture-bootstrap</text>
  <rect x="477.3" y="277.7" width="81.2" height="15" fill="#0d1117" opacity="0.75" rx="2" />
  <text x="478.3" y="288.7" font-family="system-ui, -apple-system, sans-serif" font-size="12" fill="#e6edf3" text-anchor="start">tailnet-acl</text>
  <rect x="380.1" y="342.9" width="88.4" height="15" fill="#0d1117" opacity="0.75" rx="2" />
  <text x="381.1" y="353.9" font-family="system-ui, -apple-system, sans-serif" font-size="12" fill="#e6edf3" text-anchor="start">waifu-mirror</text>
  <rect x="510.6" y="415.6" width="102.8" height="15" fill="#0d1117" opacity="0.75" rx="2" />
  <text x="511.6" y="426.6" font-family="system-ui, -apple-system, sans-serif" font-size="12" fill="#e6edf3" text-anchor="start">tinyland-infra</text>
  <rect x="552.3" y="211.4" width="52.4" height="15" fill="#0d1117" opacity="0.75" rx="2" />
  <text x="553.3" y="222.4" font-family="system-ui, -apple-system, sans-serif" font-size="12" fill="#e6edf3" text-anchor="start">LA-Mesh</text>
  <rect x="611.0" y="253.8" width="131.6" height="15" fill="#0d1117" opacity="0.75" rx="2" />
  <text x="612.0" y="264.8" font-family="system-ui, -apple-system, sans-serif" font-size="12" fill="#e6edf3" text-anchor="start">pixelwise-research</text>
  <rect x="637.3" y="196.4" width="95.6" height="15" fill="#0d1117" opacity="0.75" rx="2" />
  <text x="638.3" y="207.4" font-family="system-ui, -apple-system, sans-serif" font-size="12" fill="#e6edf3" text-anchor="start">GIS_Shortcuts</text>
  <rect x="521.7" y="363.7" width="138.8" height="15" fill="#0d1117" opacity="0.75" rx="2" />
  <text x="522.7" y="374.7" font-family="system-ui, -apple-system, sans-serif" font-size="12" fill="#e6edf3" text-anchor="start">Ansible-DAG-Harness</text>
  <rect x="490.9" y="241.0" width="95.6" height="15" fill="#0d1117" opacity="0.75" rx="2" />
  <text x="491.9" y="252.0" font-family="system-ui, -apple-system, sans-serif" font-size="12" fill="#e6edf3" text-anchor="start">DarwinNicUtil</text>
  <rect x="457.9" y="127.8" width="66.8" height="15" fill="#0d1117" opacity="0.75" rx="2" />
  <text x="458.9" y="138.8" font-family="system-ui, -apple-system, sans-serif" font-size="12" fill="#e6edf3" text-anchor="start">quickchpl</text>
  <rect x="764.2" y="156.5" width="131.6" height="15" fill="#0d1117" opacity="0.75" rx="2" />
  <text x="894.8" y="167.5" font-family="system-ui, -apple-system, sans-serif" font-size="12" fill="#e6edf3" text-anchor="end">tinyscale-mikrotik</text>
  <rect x="487.2" y="208.6" width="59.6" height="15" fill="#0d1117" opacity="0.75" rx="2" />
  <text x="488.2" y="219.6" font-family="system-ui, -apple-system, sans-serif" font-size="12" fill="#e6edf3" text-anchor="start">aoc-2025</text>
  <rect x="211.7" y="501.4" width="66.8" height="15" fill="#0d1117" opacity="0.75" rx="2" />
  <text x="212.7" y="512.4" font-family="system-ui, -apple-system, sans-serif" font-size="12" fill="#e6edf3" text-anchor="start">searchies</text>
  <rect x="236.2" y="484.4" width="59.6" height="15" fill="#0d1117" opacity="0.75" rx="2" />
  <text x="237.2" y="495.4" font-family="system-ui, -apple-system, sans-serif" font-size="12" fill="#e6edf3" text-anchor="start">ts-caddy</text>
  <rect x="728.2" y="334.1" width="66.8" height="15" fill="#0d1117" opacity="0.75" rx="2" />
  <text x="729.2" y="345.1" font-family="system-ui, -apple-system, sans-serif" font-size="12" fill="#e6edf3" text-anchor="start">HCI-notes</text>
  <rect x="611.6" y="242.6" width="88.4" height="15" fill="#0d1117" opacity="0.75" rx="2" />
  <text x="612.6" y="253.6" font-family="system-ui, -apple-system, sans-serif" font-size="12" fill="#e6edf3" text-anchor="start">FastPhotoAPI</text>
  <rect x="591.5" y="295.7" width="81.2" height="15" fill="#0d1117" opacity="0.75" rx="2" />
  <text x="592.5" y="306.7" font-family="system-ui, -apple-system, sans-serif" font-size="12" fill="#e6edf3" text-anchor="start">timberbuddy</text>
  <rect x="609.6" y="210.2" width="81.2" height="15" fill="#0d1117" opacity="0.75" rx="2" />
  <text x="610.6" y="221.2" font-family="system-ui, -apple-system, sans-serif" font-size="12" fill="#e6edf3" text-anchor="start">tetrahedron</text>
  <rect x="535.3" y="157.1" width="95.6" height="15" fill="#0d1117" opacity="0.75" rx="2" />
  <text x="536.3" y="168.1" font-family="system-ui, -apple-system, sans-serif" font-size="12" fill="#e6edf3" text-anchor="start">AccuWixReport</text>
  <rect x="519.6" y="323.4" width="95.6" height="15" fill="#0d1117" opacity="0.75" rx="2" />
  <text x="520.6" y="334.4" font-family="system-ui, -apple-system, sans-serif" font-size="12" fill="#e6edf3" text-anchor="start">Jess-AOC-2023</text>
  <rect x="630.8" y="324.9" width="81.2" height="15" fill="#0d1117" opacity="0.75" rx="2" />
  <text x="631.8" y="335.9" font-family="system-ui, -apple-system, sans-serif" font-size="12" fill="#e6edf3" text-anchor="start">TurkeyProbe</text>
  <rect x="583.6" y="270.8" width="153.2" height="15" fill="#0d1117" opacity="0.75" rx="2" />
  <text x="584.6" y="281.8" font-family="system-ui, -apple-system, sans-serif" font-size="12" fill="#e6edf3" text-anchor="start">MerlinAI-Interpreters</text>
  <rect x="797.1" y="338.8" width="110.0" height="15" fill="#0d1117" opacity="0.75" rx="2" />
  <text x="798.1" y="349.8" font-family="system-ui, -apple-system, sans-serif" font-size="12" fill="#e6edf3" text-anchor="start">IntroTypeScript</text>
  <rect x="99.8" y="390.5" width="110.0" height="15" fill="#0d1117" opacity="0.75" rx="2" />
  <text x="100.8" y="401.5" font-family="system-ui, -apple-system, sans-serif" font-size="12" fill="#e6edf3" text-anchor="start">IG-3DP-Profiles</text>
  <rect x="568.9" y="386.1" width="66.8" height="15" fill="#0d1117" opacity="0.75" rx="2" />
  <text x="569.9" y="397.1" font-family="system-ui, -apple-system, sans-serif" font-size="12" fill="#e6edf3" text-anchor="start">DLA-Flask</text>
  <rect x="551.5" y="253.6" width="38.0" height="15" fill="#0d1117" opacity="0.75" rx="2" />
  <text x="552.5" y="264.6" font-family="system-ui, -apple-system, sans-serif" font-size="12" fill="#e6edf3" text-anchor="start">USBoN</text>
  <rect x="528.0" y="179.2" width="203.6" height="15" fill="#0d1117" opacity="0.75" rx="2" />
  <text x="529.0" y="190.2" font-family="system-ui, -apple-system, sans-serif" font-size="12" fill="#e6edf3" text-anchor="start">chrome-remote-desktop-budgie</text>
  <rect x="57.0" y="310.8" width="124.4" height="15" fill="#0d1117" opacity="0.75" rx="2" />
  <text x="58.0" y="321.8" font-family="system-ui, -apple-system, sans-serif" font-size="12" fill="#e6edf3" text-anchor="start">OminousBeepingApp</text>
  <rect x="522.9" y="127.5" width="138.8" height="15" fill="#0d1117" opacity="0.75" rx="2" />
  <text x="523.9" y="138.5" font-family="system-ui, -apple-system, sans-serif" font-size="12" fill="#e6edf3" text-anchor="start">mo-image-identifier</text>
  <rect x="566.4" y="167.3" width="196.4" height="15" fill="#0d1117" opacity="0.75" rx="2" />
  <text x="567.4" y="178.3" font-family="system-ui, -apple-system, sans-serif" font-size="12" fill="#e6edf3" text-anchor="start">squirrel-leaflet-annotation</text>
  <rect x="597.0" y="309.4" width="74.0" height="15" fill="#0d1117" opacity="0.75" rx="2" />
  <text x="598.0" y="320.4" font-family="system-ui, -apple-system, sans-serif" font-size="12" fill="#e6edf3" text-anchor="start">Shiny-Apps</text>
  <rect x="548.7" y="352.8" width="138.8" height="15" fill="#0d1117" opacity="0.75" rx="2" />
  <text x="549.7" y="363.8" font-family="system-ui, -apple-system, sans-serif" font-size="12" fill="#e6edf3" text-anchor="start">bbox-jest-puppeteer</text>
  <rect x="723.8" y="43.2" width="88.4" height="15" fill="#0d1117" opacity="0.75" rx="2" />
  <text x="724.8" y="54.2" font-family="system-ui, -apple-system, sans-serif" font-size="12" fill="#e6edf3" text-anchor="start">DoverDisplay</text>
  <rect x="420.0" y="224.0" width="81.2" height="15" fill="#0d1117" opacity="0.75" rx="2" />
  <text x="421.0" y="235.0" font-family="system-ui, -apple-system, sans-serif" font-size="12" fill="#e6edf3" text-anchor="start">LeafletSync</text>
  <rect x="535.6" y="335.8" width="167.6" height="15" fill="#0d1117" opacity="0.75" rx="2" />
  <text x="536.6" y="346.8" font-family="system-ui, -apple-system, sans-serif" font-size="12" fill="#e6edf3" text-anchor="start">misc-roi-distance-notes</text>
  <rect x="429.7" y="447.4" width="138.8" height="15" fill="#0d1117" opacity="0.75" rx="2" />
  <text x="430.7" y="458.4" font-family="system-ui, -apple-system, sans-serif" font-size="12" fill="#e6edf3" text-anchor="start">Arduino_Coil_Winder</text>
  <rect x="427.1" y="401.1" width="30.8" height="15" fill="#0d1117" opacity="0.75" rx="2" />
  <text x="428.1" y="412.1" font-family="system-ui, -apple-system, sans-serif" font-size="12" fill="#e6edf3" text-anchor="start">momo</text>
  <rect x="554.6" y="199.2" width="38.0" height="15" fill="#0d1117" opacity="0.75" rx="2" />
  <text x="555.6" y="210.2" font-family="system-ui, -apple-system, sans-serif" font-size="12" fill="#e6edf3" text-anchor="start">clipi</text>
  <rect x="439.7" y="386.1" width="110.0" height="15" fill="#0d1117" opacity="0.75" rx="2" />
  <text x="440.7" y="397.1" font-family="system-ui, -apple-system, sans-serif" font-size="12" fill="#e6edf3" text-anchor="start">AeroTaz5_hotfix</text>
  <rect x="746.0" y="60.8" width="110.0" height="15" fill="#0d1117" opacity="0.75" rx="2" />
  <text x="747.0" y="71.8" font-family="system-ui, -apple-system, sans-serif" font-size="12" fill="#e6edf3" text-anchor="start">Funmat-HT-Notes</text>
  <rect x="601.2" y="227.2" width="81.2" height="15" fill="#0d1117" opacity="0.75" rx="2" />
  <text x="602.2" y="238.2" font-family="system-ui, -apple-system, sans-serif" font-size="12" fill="#e6edf3" text-anchor="start">static-site</text>
  <rect x="571.2" y="142.3" width="95.6" height="15" fill="#0d1117" opacity="0.75" rx="2" />
  <text x="572.2" y="153.3" font-family="system-ui, -apple-system, sans-serif" font-size="12" fill="#e6edf3" text-anchor="start">Flask-Manager</text>
  <rect x="609.1" y="110.5" width="110.0" height="15" fill="#0d1117" opacity="0.75" rx="2" />
  <text x="610.1" y="121.5" font-family="system-ui, -apple-system, sans-serif" font-size="12" fill="#e6edf3" text-anchor="start">FieldProcessing</text>
  <rect x="624.3" y="95.7" width="81.2" height="15" fill="#0d1117" opacity="0.75" rx="2" />
  <text x="625.3" y="106.7" font-family="system-ui, -apple-system, sans-serif" font-size="12" fill="#e6edf3" text-anchor="start">rJDKmanager</text>
  <rect x="505.8" y="142.3" width="59.6" height="15" fill="#0d1117" opacity="0.75" rx="2" />
  <text x="506.8" y="153.3" font-family="system-ui, -apple-system, sans-serif" font-size="12" fill="#e6edf3" text-anchor="start">tagnotes</text>
  <rect x="457.3" y="196.2" width="81.2" height="15" fill="#0d1117" opacity="0.75" rx="2" />
  <text x="458.3" y="207.2" font-family="system-ui, -apple-system, sans-serif" font-size="12" fill="#e6edf3" text-anchor="start">ChapelTests</text>
  <rect x="512.6" y="225.6" width="88.4" height="15" fill="#0d1117" opacity="0.75" rx="2" />
  <text x="513.6" y="236.6" font-family="system-ui, -apple-system, sans-serif" font-size="12" fill="#e6edf3" text-anchor="start">Xfinity-WiFi</text>
  <rect x="742.6" y="493.2" width="66.8" height="15" fill="#0d1117" opacity="0.75" rx="2" />
  <text x="808.4" y="504.2" font-family="system-ui, -apple-system, sans-serif" font-size="12" fill="#e6edf3" text-anchor="end">home-wiki</text>
  <rect x="793" y="36" width="155" height="120" rx="6" fill="#161b22" stroke="#30363d" stroke-width="1" opacity="0.95" />
  <circle cx="810" cy="52" r="5" fill="#e74c3c" opacity="0.88" />
  <text x="820" y="56" font-family="system-ui, -apple-system, sans-serif" font-size="10" fill="#e6edf3">Languages &amp; Compilers</text>
  <circle cx="810" cy="69" r="5" fill="#3498db" opacity="0.88" />
  <text x="820" y="73" font-family="system-ui, -apple-system, sans-serif" font-size="10" fill="#e6edf3">Infrastructure &amp; DevOps</text>
  <circle cx="810" cy="86" r="5" fill="#e67e22" opacity="0.88" />
  <text x="820" y="90" font-family="system-ui, -apple-system, sans-serif" font-size="10" fill="#e6edf3">Hardware &amp; Maker</text>
  <circle cx="810" cy="103" r="5" fill="#2ecc71" opacity="0.88" />
  <text x="820" y="107" font-family="system-ui, -apple-system, sans-serif" font-size="10" fill="#e6edf3">ML &amp; Data</text>
  <circle cx="810" cy="120" r="5" fill="#9b59b6" opacity="0.88" />
  <text x="820" y="124" font-family="system-ui, -apple-system, sans-serif" font-size="10" fill="#e6edf3">Web &amp; Apps</text>
  <circle cx="810" cy="137" r="5" fill="#7f8c8d" opacity="0.88" />
  <text x="820" y="141" font-family="system-ui, -apple-system, sans-serif" font-size="10" fill="#e6edf3">Other</text>
  <text x="870" y="150" font-family="system-ui, -apple-system, sans-serif" font-size="8" fill="#8b949e" text-anchor="middle">57 repos · 222 edges</text>
</svg>