<svg xmlns="http://www.w3.org/2000/svg" width="960" height="600" viewBox="0 0 960 600">
  <rect width="960" height="600" fill="#ffffff" rx="8" />
  <text x="480" y="24" font-family="system-ui, -apple-system, sans-serif" font-size="13" fill="#656d76" text-anchor="middle" font-weight="500">Repo Relationship Graph &#x2014; Pairwise Topic &amp; Language Similarity</text>
  <line x1="50" y1="550" x2="910" y2="550" stroke="#d0d7de" stroke-width="0.5" opacity="0.5" />
  <text x="50" y="570" font-family="system-ui, -apple-system, sans-serif" font-size="9" fill="#656d76" opacity="0.6">Updated daily by GitHub Actions</text>
  <text x="50" y="588" font-family="system-ui, -apple-system, sans-serif" font-size="9" fill="#656d76" opacity="0.6">networkx spring_layout · Jaccard similarity &gt; 0.15</text>
  <text x="910" y="570" font-family="system-ui, -apple-system, sans-serif" font-size="9" fill="#656d76" text-anchor="end" opacity="0.6">58 repos · 251 edges</text>
  <line x1="660.7" y1="160.8" x2="659.9" y2="137.0" stroke="#bcc3cd" stroke-width="0.9" opacity="0.21" />
  <line x1="660.7" y1="160.8" x2="685.9" y2="156.4" stroke="#bcc3cd" stroke-width="1.0" opacity="0.26" />
  <line x1="660.7" y1="160.8" x2="629.3" y2="159.8" stroke="#bcc3cd" stroke-width="0.9" opacity="0.17" />
  <line x1="660.7" y1="160.8" x2="599.4" y2="146.9" stroke="#bcc3cd" stroke-width="1.0" opacity="0.22" />
  <line x1="660.7" y1="160.8" x2="597.4" y2="168.8" stroke="#bcc3cd" stroke-width="0.9" opacity="0.18" />
  <line x1="660.7" y1="160.8" x2="669.3" y2="147.8" stroke="#bcc3cd" stroke-width="1.0" opacity="0.24" />
  <line x1="660.7" y1="160.8" x2="638.3" y2="148.6" stroke="#bcc3cd" stroke-width="0.9" opacity="0.21" />
  <line x1="660.7" y1="160.8" x2="628.5" y2="178.4" stroke="#bcc3cd" stroke-width="0.9" opacity="0.21" />
  <line x1="660.7" y1="160.8" x2="683.1" y2="170.3" stroke="#bcc3cd" stroke-width="1.1" opacity="0.30" />
  <line x1="660.7" y1="160.8" x2="689.3" y2="146.7" stroke="#bcc3cd" stroke-width="1.0" opacity="0.22" />
  <line x1="660.7" y1="160.8" x2="674.0" y2="136.9" stroke="#bcc3cd" stroke-width="1.0" opacity="0.22" />
  <line x1="660.7" y1="160.8" x2="711.8" y2="182.2" stroke="#bcc3cd" stroke-width="0.9" opacity="0.19" />
  <line x1="660.7" y1="160.8" x2="734.5" y2="155.9" stroke="#bcc3cd" stroke-width="0.9" opacity="0.21" />
  <line x1="660.7" y1="160.8" x2="731.0" y2="147.3" stroke="#bcc3cd" stroke-width="1.0" opacity="0.24" />
  <line x1="660.7" y1="160.8" x2="723.9" y2="132.3" stroke="#bcc3cd" stroke-width="0.9" opacity="0.17" />
  <line x1="659.9" y1="137.0" x2="685.9" y2="156.4" stroke="#bcc3cd" stroke-width="1.4" opacity="0.47" />
  <line x1="659.9" y1="137.0" x2="629.3" y2="159.8" stroke="#bcc3cd" stroke-width="1.0" opacity="0.23" />
  <line x1="659.9" y1="137.0" x2="688.1" y2="118.7" stroke="#bcc3cd" stroke-width="0.9" opacity="0.17" />
  <line x1="659.9" y1="137.0" x2="597.4" y2="168.8" stroke="#bcc3cd" stroke-width="0.9" opacity="0.19" />
  <line x1="659.9" y1="137.0" x2="669.3" y2="147.8" stroke="#bcc3cd" stroke-width="1.0" opacity="0.26" />
  <line x1="659.9" y1="137.0" x2="597.6" y2="131.9" stroke="#bcc3cd" stroke-width="0.9" opacity="0.18" />
  <line x1="659.9" y1="137.0" x2="638.3" y2="148.6" stroke="#bcc3cd" stroke-width="1.1" opacity="0.29" />
  <line x1="659.9" y1="137.0" x2="683.1" y2="170.3" stroke="#bcc3cd" stroke-width="1.0" opacity="0.25" />
  <line x1="659.9" y1="137.0" x2="689.3" y2="146.7" stroke="#bcc3cd" stroke-width="1.0" opacity="0.23" />
  <line x1="659.9" y1="137.0" x2="674.0" y2="136.9" stroke="#bcc3cd" stroke-width="1.0" opacity="0.23" />
  <line x1="659.9" y1="137.0" x2="692.1" y2="109.9" stroke="#bcc3cd" stroke-width="0.9" opacity="0.21" />
  <line x1="659.9" y1="137.0" x2="731.0" y2="147.3" stroke="#bcc3cd" stroke-width="1.0" opacity="0.25" />
  <line x1="659.9" y1="137.0" x2="742.9" y2="107.3" stroke="#bcc3cd" stroke-width="0.9" opacity="0.18" />
  <line x1="659.9" y1="137.0" x2="723.9" y2="132.3" stroke="#bcc3cd" stroke-width="0.9" opacity="0.18" />
  <line x1="668.9" y1="196.0" x2="685.9" y2="156.4" stroke="#bcc3cd" stroke-width="1.0" opacity="0.25" />
  <line x1="668.9" y1="196.0" x2="628.5" y2="178.4" stroke="#bcc3cd" stroke-width="1.2" opacity="0.38" />
  <line x1="668.9" y1="196.0" x2="683.1" y2="170.3" stroke="#bcc3cd" stroke-width="1.2" opacity="0.34" />
  <line x1="668.9" y1="196.0" x2="702.4" y2="200.9" stroke="#bcc3cd" stroke-width="1.0" opacity="0.25" />
  <line x1="668.9" y1="196.0" x2="729.5" y2="175.3" stroke="#bcc3cd" stroke-width="0.9" opacity="0.20" />
  <line x1="668.9" y1="196.0" x2="711.5" y2="169.7" stroke="#bcc3cd" stroke-width="1.0" opacity="0.22" />
  <line x1="685.9" y1="156.4" x2="629.3" y2="159.8" stroke="#bcc3cd" stroke-width="1.1" opacity="0.28" />
  <line x1="685.9" y1="156.4" x2="688.1" y2="118.7" stroke="#bcc3cd" stroke-width="1.0" opacity="0.22" />
  <line x1="685.9" y1="156.4" x2="599.4" y2="146.9" stroke="#bcc3cd" stroke-width="0.9" opacity="0.20" />
  <line x1="685.9" y1="156.4" x2="597.4" y2="168.8" stroke="#bcc3cd" stroke-width="1.0" opacity="0.23" />
  <line x1="685.9" y1="156.4" x2="669.3" y2="147.8" stroke="#bcc3cd" stroke-width="1.2" opacity="0.34" />
  <line x1="685.9" y1="156.4" x2="597.6" y2="131.9" stroke="#bcc3cd" stroke-width="1.0" opacity="0.24" />
  <line x1="685.9" y1="156.4" x2="638.3" y2="148.6" stroke="#bcc3cd" stroke-width="1.2" opacity="0.37" />
  <line x1="685.9" y1="156.4" x2="628.5" y2="178.4" stroke="#bcc3cd" stroke-width="0.9" opacity="0.19" />
  <line x1="685.9" y1="156.4" x2="683.1" y2="170.3" stroke="#bcc3cd" stroke-width="1.2" opacity="0.39" />
  <line x1="685.9" y1="156.4" x2="702.4" y2="200.9" stroke="#bcc3cd" stroke-width="0.9" opacity="0.19" />
  <line x1="685.9" y1="156.4" x2="689.3" y2="146.7" stroke="#bcc3cd" stroke-width="1.2" opacity="0.39" />
  <line x1="685.9" y1="156.4" x2="674.0" y2="136.9" stroke="#bcc3cd" stroke-width="1.1" opacity="0.29" />
  <line x1="685.9" y1="156.4" x2="692.1" y2="109.9" stroke="#bcc3cd" stroke-width="0.9" opacity="0.17" />
  <line x1="685.9" y1="156.4" x2="729.5" y2="175.3" stroke="#bcc3cd" stroke-width="1.2" opacity="0.34" />
  <line x1="685.9" y1="156.4" x2="711.5" y2="169.7" stroke="#bcc3cd" stroke-width="0.9" opacity="0.20" />
  <line x1="685.9" y1="156.4" x2="711.8" y2="182.2" stroke="#bcc3cd" stroke-width="1.0" opacity="0.24" />
  <line x1="685.9" y1="156.4" x2="729.9" y2="161.9" stroke="#bcc3cd" stroke-width="1.2" opacity="0.34" />
  <line x1="685.9" y1="156.4" x2="760.7" y2="152.9" stroke="#bcc3cd" stroke-width="1.0" opacity="0.22" />
  <line x1="685.9" y1="156.4" x2="718.8" y2="124.1" stroke="#bcc3cd" stroke-width="0.9" opacity="0.18" />
  <line x1="685.9" y1="156.4" x2="736.4" y2="129.3" stroke="#bcc3cd" stroke-width="1.0" opacity="0.22" />
  <line x1="685.9" y1="156.4" x2="734.5" y2="155.9" stroke="#bcc3cd" stroke-width="1.1" opacity="0.30" />
  <line x1="685.9" y1="156.4" x2="754.7" y2="169.0" stroke="#bcc3cd" stroke-width="1.0" opacity="0.26" />
  <line x1="685.9" y1="156.4" x2="731.0" y2="147.3" stroke="#bcc3cd" stroke-width="1.2" opacity="0.37" />
  <line x1="685.9" y1="156.4" x2="754.6" y2="137.0" stroke="#bcc3cd" stroke-width="0.9" opacity="0.17" />
  <line x1="685.9" y1="156.4" x2="747.2" y2="177.5" stroke="#bcc3cd" stroke-width="1.0" opacity="0.24" />
  <line x1="685.9" y1="156.4" x2="723.9" y2="132.3" stroke="#bcc3cd" stroke-width="1.1" opacity="0.28" />
  <line x1="629.3" y1="159.8" x2="597.4" y2="168.8" stroke="#bcc3cd" stroke-width="0.9" opacity="0.20" />
  <line x1="629.3" y1="159.8" x2="669.3" y2="147.8" stroke="#bcc3cd" stroke-width="0.9" opacity="0.20" />
  <line x1="629.3" y1="159.8" x2="638.3" y2="148.6" stroke="#bcc3cd" stroke-width="1.0" opacity="0.23" />
  <line x1="629.3" y1="159.8" x2="628.5" y2="178.4" stroke="#bcc3cd" stroke-width="1.0" opacity="0.23" />
  <line x1="629.3" y1="159.8" x2="689.3" y2="146.7" stroke="#bcc3cd" stroke-width="1.0" opacity="0.24" />
  <line x1="629.3" y1="159.8" x2="674.0" y2="136.9" stroke="#bcc3cd" stroke-width="0.9" opacity="0.18" />
  <line x1="688.1" y1="118.7" x2="736.4" y2="129.3" stroke="#bcc3cd" stroke-width="0.9" opacity="0.18" />
  <line x1="688.1" y1="118.7" x2="731.0" y2="147.3" stroke="#bcc3cd" stroke-width="1.1" opacity="0.30" />
  <line x1="688.1" y1="118.7" x2="723.9" y2="132.3" stroke="#bcc3cd" stroke-width="1.0" opacity="0.22" />
  <line x1="599.4" y1="146.9" x2="506.9" y2="134.3" stroke="#bcc3cd" stroke-width="1.1" opacity="0.33" />
  <line x1="599.4" y1="146.9" x2="597.4" y2="168.8" stroke="#bcc3cd" stroke-width="0.9" opacity="0.19" />
  <line x1="599.4" y1="146.9" x2="669.3" y2="147.8" stroke="#bcc3cd" stroke-width="0.9" opacity="0.18" />
  <line x1="599.4" y1="146.9" x2="597.6" y2="131.9" stroke="#bcc3cd" stroke-width="0.9" opacity="0.18" />
  <line x1="599.4" y1="146.9" x2="535.5" y2="127.4" stroke="#bcc3cd" stroke-width="1.3" opacity="0.41" />
  <line x1="599.4" y1="146.9" x2="628.5" y2="178.4" stroke="#bcc3cd" stroke-width="1.0" opacity="0.24" />
  <line x1="599.4" y1="146.9" x2="683.1" y2="170.3" stroke="#bcc3cd" stroke-width="0.9" opacity="0.19" />
  <line x1="599.4" y1="146.9" x2="723.9" y2="132.3" stroke="#bcc3cd" stroke-width="0.9" opacity="0.18" />
  <line x1="506.9" y1="134.3" x2="535.5" y2="127.4" stroke="#bcc3cd" stroke-width="0.9" opacity="0.18" />
  <line x1="597.4" y1="168.8" x2="638.3" y2="148.6" stroke="#bcc3cd" stroke-width="0.9" opacity="0.19" />
  <line x1="597.4" y1="168.8" x2="628.5" y2="178.4" stroke="#bcc3cd" stroke-width="0.9" opacity="0.19" />
  <line x1="597.4" y1="168.8" x2="683.1" y2="170.3" stroke="#bcc3cd" stroke-width="0.9" opacity="0.17" />
  <line x1="597.4" y1="168.8" x2="491.5" y2="180.3" stroke="#bcc3cd" stroke-width="1.0" opacity="0.22" />
  <line x1="669.3" y1="147.8" x2="638.3" y2="148.6" stroke="#bcc3cd" stroke-width="1.0" opacity="0.26" />
  <line x1="669.3" y1="147.8" x2="628.5" y2="178.4" stroke="#bcc3cd" stroke-width="0.9" opacity="0.18" />
  <line x1="669.3" y1="147.8" x2="683.1" y2="170.3" stroke="#bcc3cd" stroke-width="1.0" opacity="0.22" />
  <line x1="669.3" y1="147.8" x2="689.3" y2="146.7" stroke="#bcc3cd" stroke-width="1.1" opacity="0.28" />
  <line x1="669.3" y1="147.8" x2="674.0" y2="136.9" stroke="#bcc3cd" stroke-width="1.1" opacity="0.28" />
  <line x1="669.3" y1="147.8" x2="718.8" y2="124.1" stroke="#bcc3cd" stroke-width="0.9" opacity="0.17" />
  <line x1="669.3" y1="147.8" x2="736.4" y2="129.3" stroke="#bcc3cd" stroke-width="0.9" opacity="0.20" />
  <line x1="669.3" y1="147.8" x2="734.5" y2="155.9" stroke="#bcc3cd" stroke-width="0.9" opacity="0.17" />
  <line x1="669.3" y1="147.8" x2="731.0" y2="147.3" stroke="#bcc3cd" stroke-width="0.9" opacity="0.20" />
  <line x1="669.3" y1="147.8" x2="723.9" y2="132.3" stroke="#bcc3cd" stroke-width="1.0" opacity="0.24" />
  <line x1="597.6" y1="131.9" x2="638.3" y2="148.6" stroke="#bcc3cd" stroke-width="1.2" opacity="0.34" />
  <line x1="597.6" y1="131.9" x2="535.5" y2="127.4" stroke="#bcc3cd" stroke-width="0.9" opacity="0.17" />
  <line x1="638.3" y1="148.6" x2="628.5" y2="178.4" stroke="#bcc3cd" stroke-width="1.0" opacity="0.22" />
  <line x1="638.3" y1="148.6" x2="683.1" y2="170.3" stroke="#bcc3cd" stroke-width="0.9" opacity="0.19" />
  <line x1="638.3" y1="148.6" x2="689.3" y2="146.7" stroke="#bcc3cd" stroke-width="1.0" opacity="0.23" />
  <line x1="638.3" y1="148.6" x2="674.0" y2="136.9" stroke="#bcc3cd" stroke-width="1.0" opacity="0.23" />
  <line x1="638.3" y1="148.6" x2="723.9" y2="132.3" stroke="#bcc3cd" stroke-width="0.9" opacity="0.18" />
  <line x1="628.5" y1="178.4" x2="683.1" y2="170.3" stroke="#bcc3cd" stroke-width="0.9" opacity="0.19" />
  <line x1="683.1" y1="170.3" x2="702.4" y2="200.9" stroke="#bcc3cd" stroke-width="1.2" opacity="0.34" />
  <line x1="683.1" y1="170.3" x2="689.3" y2="146.7" stroke="#bcc3cd" stroke-width="0.9" opacity="0.20" />
  <line x1="683.1" y1="170.3" x2="674.0" y2="136.9" stroke="#bcc3cd" stroke-width="0.9" opacity="0.20" />
  <line x1="683.1" y1="170.3" x2="729.5" y2="175.3" stroke="#bcc3cd" stroke-width="1.2" opacity="0.37" />
  <line x1="683.1" y1="170.3" x2="711.5" y2="169.7" stroke="#bcc3cd" stroke-width="1.2" opacity="0.37" />
  <line x1="683.1" y1="170.3" x2="711.8" y2="182.2" stroke="#bcc3cd" stroke-width="1.1" opacity="0.29" />
  <line x1="683.1" y1="170.3" x2="729.9" y2="161.9" stroke="#bcc3cd" stroke-width="1.0" opacity="0.22" />
  <line x1="683.1" y1="170.3" x2="734.5" y2="155.9" stroke="#bcc3cd" stroke-width="1.2" opacity="0.34" />
  <line x1="683.1" y1="170.3" x2="754.7" y2="169.0" stroke="#bcc3cd" stroke-width="1.0" opacity="0.24" />
  <line x1="683.1" y1="170.3" x2="731.0" y2="147.3" stroke="#bcc3cd" stroke-width="1.1" opacity="0.29" />
  <line x1="683.1" y1="170.3" x2="747.2" y2="177.5" stroke="#bcc3cd" stroke-width="1.0" opacity="0.22" />
  <line x1="702.4" y1="200.9" x2="729.5" y2="175.3" stroke="#bcc3cd" stroke-width="1.0" opacity="0.25" />
  <line x1="702.4" y1="200.9" x2="711.5" y2="169.7" stroke="#bcc3cd" stroke-width="1.1" opacity="0.29" />
  <line x1="702.4" y1="200.9" x2="747.2" y2="177.5" stroke="#bcc3cd" stroke-width="0.9" opacity="0.17" />
  <line x1="763.1" y1="194.5" x2="729.5" y2="175.3" stroke="#bcc3cd" stroke-width="0.9" opacity="0.18" />
  <line x1="763.1" y1="194.5" x2="711.5" y2="169.7" stroke="#bcc3cd" stroke-width="0.9" opacity="0.18" />
  <line x1="763.1" y1="194.5" x2="734.5" y2="155.9" stroke="#bcc3cd" stroke-width="0.9" opacity="0.17" />
  <line x1="763.1" y1="194.5" x2="754.7" y2="169.0" stroke="#bcc3cd" stroke-width="1.3" opacity="0.42" />
  <line x1="763.1" y1="194.5" x2="731.0" y2="147.3" stroke="#bcc3cd" stroke-width="0.9" opacity="0.19" />
  <line x1="763.1" y1="194.5" x2="747.2" y2="177.5" stroke="#bcc3cd" stroke-width="0.9" opacity="0.21" />
  <line x1="689.3" y1="146.7" x2="674.0" y2="136.9" stroke="#bcc3cd" stroke-width="1.0" opacity="0.24" />
  <line x1="689.3" y1="146.7" x2="729.9" y2="161.9" stroke="#bcc3cd" stroke-width="0.9" opacity="0.19" />
  <line x1="689.3" y1="146.7" x2="760.7" y2="152.9" stroke="#bcc3cd" stroke-width="0.9" opacity="0.18" />
  <line x1="689.3" y1="146.7" x2="736.4" y2="129.3" stroke="#bcc3cd" stroke-width="0.9" opacity="0.17" />
  <line x1="689.3" y1="146.7" x2="731.0" y2="147.3" stroke="#bcc3cd" stroke-width="0.9" opacity="0.17" />
  <line x1="689.3" y1="146.7" x2="723.9" y2="132.3" stroke="#bcc3cd" stroke-width="0.9" opacity="0.20" />
  <line x1="674.0" y1="136.9" x2="736.4" y2="129.3" stroke="#bcc3cd" stroke-width="0.9" opacity="0.17" />
  <line x1="674.0" y1="136.9" x2="731.0" y2="147.3" stroke="#bcc3cd" stroke-width="0.9" opacity="0.17" />
  <line x1="674.0" y1="136.9" x2="723.9" y2="132.3" stroke="#bcc3cd" stroke-width="0.9" opacity="0.20" />
  <line x1="686.0" y1="62.7" x2="692.1" y2="109.9" stroke="#bcc3cd" stroke-width="1.3" opacity="0.44" />
  <line x1="686.0" y1="62.7" x2="724.1" y2="68.4" stroke="#bcc3cd" stroke-width="0.9" opacity="0.18" />
  <line x1="692.1" y1="109.9" x2="762.4" y2="109.9" stroke="#bcc3cd" stroke-width="1.1" opacity="0.31" />
  <line x1="692.1" y1="109.9" x2="718.8" y2="124.1" stroke="#bcc3cd" stroke-width="0.9" opacity="0.20" />
  <line x1="692.1" y1="109.9" x2="736.4" y2="129.3" stroke="#bcc3cd" stroke-width="1.0" opacity="0.24" />
  <line x1="692.1" y1="109.9" x2="734.5" y2="155.9" stroke="#bcc3cd" stroke-width="0.9" opacity="0.20" />
  <line x1="692.1" y1="109.9" x2="731.0" y2="147.3" stroke="#bcc3cd" stroke-width="1.0" opacity="0.24" />
  <line x1="692.1" y1="109.9" x2="754.6" y2="137.0" stroke="#bcc3cd" stroke-width="0.9" opacity="0.18" />
  <line x1="692.1" y1="109.9" x2="523.3" y2="155.1" stroke="#bcc3cd" stroke-width="0.9" opacity="0.17" />
  <line x1="692.1" y1="109.9" x2="742.9" y2="107.3" stroke="#bcc3cd" stroke-width="1.1" opacity="0.31" />
  <line x1="692.1" y1="109.9" x2="724.1" y2="68.4" stroke="#bcc3cd" stroke-width="1.1" opacity="0.30" />
  <line x1="692.1" y1="109.9" x2="723.9" y2="132.3" stroke="#bcc3cd" stroke-width="1.1" opacity="0.31" />
  <line x1="305.2" y1="465.9" x2="333.0" y2="465.2" stroke="#bcc3cd" stroke-width="1.6" opacity="0.60" />
  <line x1="605.8" y1="92.1" x2="711.5" y2="169.7" stroke="#bcc3cd" stroke-width="0.9" opacity="0.18" />
  <line x1="605.8" y1="92.1" x2="547.1" y2="50.0" stroke="#bcc3cd" stroke-width="1.1" opacity="0.28" />
  <line x1="785.5" y1="169.6" x2="729.5" y2="175.3" stroke="#bcc3cd" stroke-width="0.9" opacity="0.17" />
  <line x1="785.5" y1="169.6" x2="711.5" y2="169.7" stroke="#bcc3cd" stroke-width="0.9" opacity="0.18" />
  <line x1="785.5" y1="169.6" x2="729.9" y2="161.9" stroke="#bcc3cd" stroke-width="1.0" opacity="0.22" />
  <line x1="785.5" y1="169.6" x2="734.5" y2="155.9" stroke="#bcc3cd" stroke-width="1.1" opacity="0.28" />
  <line x1="785.5" y1="169.6" x2="754.7" y2="169.0" stroke="#bcc3cd" stroke-width="1.1" opacity="0.32" />
  <line x1="785.5" y1="169.6" x2="731.0" y2="147.3" stroke="#bcc3cd" stroke-width="0.9" opacity="0.20" />
  <line x1="785.5" y1="169.6" x2="747.2" y2="177.5" stroke="#bcc3cd" stroke-width="1.0" opacity="0.22" />
  <line x1="785.5" y1="169.6" x2="796.7" y2="139.6" stroke="#bcc3cd" stroke-width="1.0" opacity="0.22" />
  <line x1="729.5" y1="175.3" x2="711.5" y2="169.7" stroke="#bcc3cd" stroke-width="1.3" opacity="0.42" />
  <line x1="729.5" y1="175.3" x2="774.3" y2="185.6" stroke="#bcc3cd" stroke-width="0.9" opacity="0.18" />
  <line x1="729.5" y1="175.3" x2="711.8" y2="182.2" stroke="#bcc3cd" stroke-width="1.1" opacity="0.31" />
  <line x1="729.5" y1="175.3" x2="729.9" y2="161.9" stroke="#bcc3cd" stroke-width="1.1" opacity="0.32" />
  <line x1="729.5" y1="175.3" x2="760.7" y2="152.9" stroke="#bcc3cd" stroke-width="1.0" opacity="0.23" />
  <line x1="729.5" y1="175.3" x2="734.5" y2="155.9" stroke="#bcc3cd" stroke-width="1.2" opacity="0.39" />
  <line x1="729.5" y1="175.3" x2="754.7" y2="169.0" stroke="#bcc3cd" stroke-width="1.0" opacity="0.26" />
  <line x1="729.5" y1="175.3" x2="731.0" y2="147.3" stroke="#bcc3cd" stroke-width="1.2" opacity="0.34" />
  <line x1="729.5" y1="175.3" x2="754.6" y2="137.0" stroke="#bcc3cd" stroke-width="0.9" opacity="0.19" />
  <line x1="729.5" y1="175.3" x2="747.2" y2="177.5" stroke="#bcc3cd" stroke-width="1.0" opacity="0.25" />
  <line x1="729.5" y1="175.3" x2="723.9" y2="132.3" stroke="#bcc3cd" stroke-width="0.9" opacity="0.17" />
  <line x1="711.5" y1="169.7" x2="774.3" y2="185.6" stroke="#bcc3cd" stroke-width="1.1" opacity="0.33" />
  <line x1="711.5" y1="169.7" x2="711.8" y2="182.2" stroke="#bcc3cd" stroke-width="0.9" opacity="0.21" />
  <line x1="711.5" y1="169.7" x2="729.9" y2="161.9" stroke="#bcc3cd" stroke-width="0.9" opacity="0.18" />
  <line x1="711.5" y1="169.7" x2="734.5" y2="155.9" stroke="#bcc3cd" stroke-width="1.3" opacity="0.41" />
  <line x1="711.5" y1="169.7" x2="754.7" y2="169.0" stroke="#bcc3cd" stroke-width="1.0" opacity="0.22" />
  <line x1="711.5" y1="169.7" x2="731.0" y2="147.3" stroke="#bcc3cd" stroke-width="1.1" opacity="0.31" />
  <line x1="711.5" y1="169.7" x2="747.2" y2="177.5" stroke="#bcc3cd" stroke-width="1.7" opacity="0.66" />
  <line x1="768.8" y1="122.1" x2="762.4" y2="109.9" stroke="#bcc3cd" stroke-width="1.5" opacity="0.55" />
  <line x1="768.8" y1="122.1" x2="718.8" y2="124.1" stroke="#bcc3cd" stroke-width="0.9" opacity="0.18" />
  <line x1="768.8" y1="122.1" x2="736.4" y2="129.3" stroke="#bcc3cd" stroke-width="1.1" opacity="0.28" />
  <line x1="768.8" y1="122.1" x2="734.5" y2="155.9" stroke="#bcc3cd" stroke-width="0.9" opacity="0.18" />
  <line x1="768.8" y1="122.1" x2="731.0" y2="147.3" stroke="#bcc3cd" stroke-width="1.1" opacity="0.28" />
  <line x1="768.8" y1="122.1" x2="785.1" y2="115.0" stroke="#bcc3cd" stroke-width="1.5" opacity="0.55" />
  <line x1="768.8" y1="122.1" x2="796.7" y2="139.6" stroke="#bcc3cd" stroke-width="1.2" opacity="0.37" />
  <line x1="768.8" y1="122.1" x2="742.9" y2="107.3" stroke="#bcc3cd" stroke-width="1.5" opacity="0.55" />
  <line x1="768.8" y1="122.1" x2="723.9" y2="132.3" stroke="#bcc3cd" stroke-width="1.5" opacity="0.55" />
  <line x1="762.4" y1="109.9" x2="736.4" y2="129.3" stroke="#bcc3cd" stroke-width="1.0" opacity="0.22" />
  <line x1="762.4" y1="109.9" x2="731.0" y2="147.3" stroke="#bcc3cd" stroke-width="1.0" opacity="0.22" />
  <line x1="762.4" y1="109.9" x2="785.1" y2="115.0" stroke="#bcc3cd" stroke-width="1.2" opacity="0.37" />
  <line x1="762.4" y1="109.9" x2="796.7" y2="139.6" stroke="#bcc3cd" stroke-width="1.1" opacity="0.28" />
  <line x1="762.4" y1="109.9" x2="742.9" y2="107.3" stroke="#bcc3cd" stroke-width="1.2" opacity="0.37" />
  <line x1="762.4" y1="109.9" x2="723.9" y2="132.3" stroke="#bcc3cd" stroke-width="1.2" opacity="0.37" />
  <line x1="774.3" y1="185.6" x2="734.5" y2="155.9" stroke="#bcc3cd" stroke-width="0.9" opacity="0.18" />
  <line x1="774.3" y1="185.6" x2="754.7" y2="169.0" stroke="#bcc3cd" stroke-width="0.9" opacity="0.18" />
  <line x1="774.3" y1="185.6" x2="731.0" y2="147.3" stroke="#bcc3cd" stroke-width="1.0" opacity="0.22" />
  <line x1="774.3" y1="185.6" x2="747.2" y2="177.5" stroke="#bcc3cd" stroke-width="1.3" opacity="0.41" />
  <line x1="711.8" y1="182.2" x2="729.9" y2="161.9" stroke="#bcc3cd" stroke-width="1.1" opacity="0.31" />
  <line x1="711.8" y1="182.2" x2="734.5" y2="155.9" stroke="#bcc3cd" stroke-width="1.4" opacity="0.47" />
  <line x1="711.8" y1="182.2" x2="754.7" y2="169.0" stroke="#bcc3cd" stroke-width="0.9" opacity="0.19" />
  <line x1="711.8" y1="182.2" x2="731.0" y2="147.3" stroke="#bcc3cd" stroke-width="1.0" opacity="0.22" />
  <line x1="729.9" y1="161.9" x2="760.7" y2="152.9" stroke="#bcc3cd" stroke-width="1.1" opacity="0.29" />
  <line x1="729.9" y1="161.9" x2="718.8" y2="124.1" stroke="#bcc3cd" stroke-width="0.9" opacity="0.17" />
  <line x1="729.9" y1="161.9" x2="736.4" y2="129.3" stroke="#bcc3cd" stroke-width="0.9" opacity="0.20" />
  <line x1="729.9" y1="161.9" x2="734.5" y2="155.9" stroke="#bcc3cd" stroke-width="1.3" opacity="0.40" />
  <line x1="729.9" y1="161.9" x2="754.7" y2="169.0" stroke="#bcc3cd" stroke-width="1.0" opacity="0.24" />
  <line x1="729.9" y1="161.9" x2="731.0" y2="147.3" stroke="#bcc3cd" stroke-width="0.9" opacity="0.20" />
  <line x1="729.9" y1="161.9" x2="723.9" y2="132.3" stroke="#bcc3cd" stroke-width="1.0" opacity="0.24" />
  <line x1="760.7" y1="152.9" x2="736.4" y2="129.3" stroke="#bcc3cd" stroke-width="0.9" opacity="0.18" />
  <line x1="760.7" y1="152.9" x2="754.7" y2="169.0" stroke="#bcc3cd" stroke-width="1.0" opacity="0.23" />
  <line x1="760.7" y1="152.9" x2="731.0" y2="147.3" stroke="#bcc3cd" stroke-width="0.9" opacity="0.18" />
  <line x1="760.7" y1="152.9" x2="754.6" y2="137.0" stroke="#bcc3cd" stroke-width="1.0" opacity="0.24" />
  <line x1="760.7" y1="152.9" x2="723.9" y2="132.3" stroke="#bcc3cd" stroke-width="1.0" opacity="0.22" />
  <line x1="718.8" y1="124.1" x2="736.4" y2="129.3" stroke="#bcc3cd" stroke-width="1.1" opacity="0.28" />
  <line x1="718.8" y1="124.1" x2="734.5" y2="155.9" stroke="#bcc3cd" stroke-width="1.0" opacity="0.22" />
  <line x1="718.8" y1="124.1" x2="731.0" y2="147.3" stroke="#bcc3cd" stroke-width="1.1" opacity="0.28" />
  <line x1="718.8" y1="124.1" x2="754.6" y2="137.0" stroke="#bcc3cd" stroke-width="0.9" opacity="0.20" />
  <line x1="718.8" y1="124.1" x2="723.9" y2="132.3" stroke="#bcc3cd" stroke-width="1.2" opacity="0.37" />
  <line x1="736.4" y1="129.3" x2="734.5" y2="155.9" stroke="#bcc3cd" stroke-width="1.1" opacity="0.28" />
  <line x1="736.4" y1="129.3" x2="731.0" y2="147.3" stroke="#bcc3cd" stroke-width="1.2" opacity="0.37" />
  <line x1="736.4" y1="129.3" x2="785.1" y2="115.0" stroke="#bcc3cd" stroke-width="1.0" opacity="0.22" />
  <line x1="736.4" y1="129.3" x2="754.6" y2="137.0" stroke="#bcc3cd" stroke-width="1.0" opacity="0.24" />
  <line x1="736.4" y1="129.3" x2="796.7" y2="139.6" stroke="#bcc3cd" stroke-width="0.9" opacity="0.18" />
  <line x1="736.4" y1="129.3" x2="742.9" y2="107.3" stroke="#bcc3cd" stroke-width="1.0" opacity="0.22" />
  <line x1="736.4" y1="129.3" x2="723.9" y2="132.3" stroke="#bcc3cd" stroke-width="1.5" opacity="0.55" />
  <line x1="734.5" y1="155.9" x2="754.7" y2="169.0" stroke="#bcc3cd" stroke-width="1.1" opacity="0.29" />
  <line x1="734.5" y1="155.9" x2="731.0" y2="147.3" stroke="#bcc3cd" stroke-width="1.4" opacity="0.47" />
  <line x1="734.5" y1="155.9" x2="754.6" y2="137.0" stroke="#bcc3cd" stroke-width="0.9" opacity="0.20" />
  <line x1="734.5" y1="155.9" x2="747.2" y2="177.5" stroke="#bcc3cd" stroke-width="1.1" opacity="0.31" />
  <line x1="734.5" y1="155.9" x2="796.7" y2="139.6" stroke="#bcc3cd" stroke-width="1.1" opacity="0.31" />
  <line x1="734.5" y1="155.9" x2="723.9" y2="132.3" stroke="#bcc3cd" stroke-width="1.2" opacity="0.37" />
  <line x1="754.7" y1="169.0" x2="731.0" y2="147.3" stroke="#bcc3cd" stroke-width="1.2" opacity="0.34" />
  <line x1="754.7" y1="169.0" x2="747.2" y2="177.5" stroke="#bcc3cd" stroke-width="1.0" opacity="0.25" />
  <line x1="754.7" y1="169.0" x2="796.7" y2="139.6" stroke="#bcc3cd" stroke-width="1.0" opacity="0.25" />
  <line x1="754.7" y1="169.0" x2="723.9" y2="132.3" stroke="#bcc3cd" stroke-width="0.9" opacity="0.17" />
  <line x1="731.0" y1="147.3" x2="785.1" y2="115.0" stroke="#bcc3cd" stroke-width="1.0" opacity="0.22" />
  <line x1="731.0" y1="147.3" x2="754.6" y2="137.0" stroke="#bcc3cd" stroke-width="1.0" opacity="0.24" />
  <line x1="731.0" y1="147.3" x2="747.2" y2="177.5" stroke="#bcc3cd" stroke-width="1.3" opacity="0.44" />
  <line x1="731.0" y1="147.3" x2="796.7" y2="139.6" stroke="#bcc3cd" stroke-width="1.3" opacity="0.44" />
  <line x1="731.0" y1="147.3" x2="742.9" y2="107.3" stroke="#bcc3cd" stroke-width="1.0" opacity="0.22" />
  <line x1="731.0" y1="147.3" x2="723.9" y2="132.3" stroke="#bcc3cd" stroke-width="1.5" opacity="0.55" />
  <line x1="122.9" y1="78.8" x2="91.6" y2="92.7" stroke="#bcc3cd" stroke-width="1.0" opacity="0.22" />
  <line x1="800.5" y1="76.5" x2="723.9" y2="132.3" stroke="#bcc3cd" stroke-width="1.0" opacity="0.22" />
  <line x1="785.1" y1="115.0" x2="796.7" y2="139.6" stroke="#bcc3cd" stroke-width="1.1" opacity="0.28" />
  <line x1="785.1" y1="115.0" x2="742.9" y2="107.3" stroke="#bcc3cd" stroke-width="1.2" opacity="0.37" />
  <line x1="785.1" y1="115.0" x2="723.9" y2="132.3" stroke="#bcc3cd" stroke-width="1.2" opacity="0.37" />
  <line x1="454.0" y1="179.3" x2="491.5" y2="180.3" stroke="#bcc3cd" stroke-width="1.5" opacity="0.55" />
  <line x1="454.0" y1="179.3" x2="523.3" y2="155.1" stroke="#bcc3cd" stroke-width="1.3" opacity="0.41" />
  <line x1="491.5" y1="180.3" x2="523.3" y2="155.1" stroke="#bcc3cd" stroke-width="1.0" opacity="0.24" />
  <line x1="754.6" y1="137.0" x2="723.9" y2="132.3" stroke="#bcc3cd" stroke-width="1.1" opacity="0.31" />
  <line x1="747.2" y1="177.5" x2="796.7" y2="139.6" stroke="#bcc3cd" stroke-width="1.0" opacity="0.22" />
  <line x1="796.7" y1="139.6" x2="887.5" y2="135.4" stroke="#bcc3cd" stroke-width="1.2" opacity="0.37" />
  <line x1="796.7" y1="139.6" x2="910.0" y2="151.0" stroke="#bcc3cd" stroke-width="0.9" opacity="0.18" />
  <line x1="796.7" y1="139.6" x2="742.9" y2="107.3" stroke="#bcc3cd" stroke-width="1.1" opacity="0.28" />
  <line x1="796.7" y1="139.6" x2="723.9" y2="132.3" stroke="#bcc3cd" stroke-width="1.1" opacity="0.28" />
  <line x1="887.5" y1="135.4" x2="910.0" y2="151.0" stroke="#bcc3cd" stroke-width="1.1" opacity="0.28" />
  <line x1="742.9" y1="107.3" x2="724.1" y2="68.4" stroke="#bcc3cd" stroke-width="1.1" opacity="0.31" />
  <line x1="742.9" y1="107.3" x2="723.9" y2="132.3" stroke="#bcc3cd" stroke-width="1.2" opacity="0.37" />
  <circle cx="660.7" cy="160.8" r="15.8" fill="#7f8c8d" opacity="0.88" />
  <circle cx="659.9" cy="137.0" r="14.9" fill="#e67e22" opacity="0.88" />
  <circle cx="668.9" cy="196.0" r="16" fill="#3498db" opacity="0.88" />
  <circle cx="685.9" cy="156.4" r="11.3" fill="#3498db" opacity="0.88" />
  <circle cx="629.3" cy="159.8" r="16" fill="#3498db" opacity="0.88" />
  <circle cx="688.1" cy="118.7" r="13.1" fill="#e67e22" opacity="0.88" />
  <circle cx="599.4" cy="146.9" r="8.6" fill="#3498db" opacity="0.88" />
  <circle cx="506.9" cy="134.3" r="11.3" fill="#3498db" opacity="0.88" />
  <circle cx="597.4" cy="168.8" r="16" fill="#2ecc71" opacity="0.88" />
  <circle cx="669.3" cy="147.8" r="12.2" fill="#3498db" opacity="0.88" />
  <circle cx="597.6" cy="131.9" r="12.2" fill="#3498db" opacity="0.88" />
  <circle cx="638.3" cy="148.6" r="14.9" fill="#7f8c8d" opacity="0.88" />
  <circle cx="535.5" cy="127.4" r="9.5" fill="#7f8c8d" opacity="0.88" />
  <circle cx="628.5" cy="178.4" r="14.9" fill="#3498db" opacity="0.88" />
  <circle cx="683.1" cy="170.3" r="16" fill="#9b59b6" opacity="0.88" />
  <circle cx="702.4" cy="200.9" r="16" fill="#e74c3c" opacity="0.88" />
  <circle cx="763.1" cy="194.5" r="16" fill="#9b59b6" opacity="0.88" />
  <circle cx="689.3" cy="146.7" r="14.0" fill="#3498db" opacity="0.88" />
  <circle cx="674.0" cy="136.9" r="14.0" fill="#3498db" opacity="0.88" />
  <circle cx="686.0" cy="62.7" r="10.4" fill="#e74c3c" opacity="0.88" />
  <circle cx="50.0" cy="249.3" r="12.2" fill="#3498db" opacity="0.88" />
  <circle cx="692.1" cy="109.9" r="10.4" fill="#e74c3c" opacity="0.88" />
  <circle cx="305.2" cy="465.9" r="12.2" fill="#3498db" opacity="0.88" />
  <circle cx="333.0" cy="465.2" r="11.3" fill="#3498db" opacity="0.88" />
  <circle cx="605.8" cy="92.1" r="5.9" fill="#3498db" opacity="0.88" />
  <circle cx="785.5" cy="169.6" r="12.2" fill="#9b59b6" opacity="0.88" />
  <circle cx="729.5" cy="175.3" r="15.8" fill="#9b59b6" opacity="0.88" />
  <circle cx="711.5" cy="169.7" r="8.6" fill="#9b59b6" opacity="0.88" />
  <circle cx="768.8" cy="122.1" r="5" fill="#2ecc71" opacity="0.88" />
  <circle cx="762.4" cy="109.9" r="5.9" fill="#e74c3c" opacity="0.88" />
  <circle cx="774.3" cy="185.6" r="11.3" fill="#e67e22" opacity="0.88" />
  <circle cx="711.8" cy="182.2" r="16" fill="#2ecc71" opacity="0.88" />
  <circle cx="547.1" cy="50.0" r="6.8" fill="#9b59b6" opacity="0.88" />
  <circle cx="156.2" cy="398.7" r="5" fill="#7f8c8d" opacity="0.88" />
  <circle cx="729.9" cy="161.9" r="12.2" fill="#3498db" opacity="0.88" />
  <circle cx="760.7" cy="152.9" r="13.1" fill="#9b59b6" opacity="0.88" />
  <circle cx="718.8" cy="124.1" r="9.5" fill="#7f8c8d" opacity="0.88" />
  <circle cx="794.6" cy="469.5" r="5" fill="#7f8c8d" opacity="0.88" />
  <circle cx="736.4" cy="129.3" r="7.7" fill="#7f8c8d" opacity="0.88" />
  <circle cx="734.5" cy="155.9" r="9.5" fill="#9b59b6" opacity="0.88" />
  <circle cx="754.7" cy="169.0" r="15.8" fill="#2ecc71" opacity="0.88" />
  <circle cx="731.0" cy="147.3" r="7.7" fill="#9b59b6" opacity="0.88" />
  <circle cx="122.9" cy="78.8" r="7.7" fill="#e67e22" opacity="0.88" />
  <circle cx="800.5" cy="76.5" r="7.7" fill="#3498db" opacity="0.88" />
  <circle cx="785.1" cy="115.0" r="5.9" fill="#7f8c8d" opacity="0.88" />
  <circle cx="454.0" cy="179.3" r="6.8" fill="#e67e22" opacity="0.88" />
  <circle cx="491.5" cy="180.3" r="6.8" fill="#e67e22" opacity="0.88" />
  <circle cx="754.6" cy="137.0" r="10.4" fill="#7f8c8d" opacity="0.88" />
  <circle cx="523.3" cy="155.1" r="11.3" fill="#e67e22" opacity="0.88" />
  <circle cx="91.6" cy="92.7" r="5.9" fill="#e67e22" opacity="0.88" />
  <circle cx="747.2" cy="177.5" r="6.8" fill="#9b59b6" opacity="0.88" />
  <circle cx="796.7" cy="139.6" r="6.8" fill="#7f8c8d" opacity="0.88" />
  <circle cx="887.5" cy="135.4" r="5" fill="#2ecc71" opacity="0.88" />
  <circle cx="910.0" cy="151.0" r="7.7" fill="#2ecc71" opacity="0.88" />
  <circle cx="742.9" cy="107.3" r="5.9" fill="#e74c3c" opacity="0.88" />
  <circle cx="724.1" cy="68.4" r="10.4" fill="#e74c3c" opacity="0.88" />
  <circle cx="723.9" cy="132.3" r="5.9" fill="#7f8c8d" opacity="0.88" />
  <circle cx="634.1" cy="500.0" r="5" fill="#7f8c8d" opacity="0.88" />
  <rect x="678.5" y="198.8" width="124.4" height="15" fill="#ffffff" opacity="0.75" rx="2" />
  <text x="679.5" y="209.8" font-family="system-ui, -apple-system, sans-serif" font-size="12" fill="#1f2328" text-anchor="start">tinyland-huskycat</text>
  <rect x="676.8" y="132.1" width="45.2" height="15" fill="#ffffff" opacity="0.75" rx="2" />
  <text x="677.8" y="143.1" font-family="system-ui, -apple-system, sans-serif" font-size="12" fill="#1f2328" text-anchor="start">XoxdWM</text>
  <rect x="686.9" y="49.9" width="117.2" height="15" fill="#ffffff" opacity="0.75" rx="2" />
  <text x="687.9" y="60.9" font-family="system-ui, -apple-system, sans-serif" font-size="12" fill="#1f2328" text-anchor="start">GloriousFlywheel</text>
  <rect x="699.2" y="75.6" width="203.6" height="15" fill="#ffffff" opacity="0.75" rx="2" />
  <text x="700.2" y="86.6" font-family="system-ui, -apple-system, sans-serif" font-size="12" fill="#1f2328" text-anchor="start">winrm-molecule-forkbomb-demo</text>
  <rect x="647.3" y="162.7" width="74.0" height="15" fill="#ffffff" opacity="0.75" rx="2" />
  <text x="648.3" y="173.7" font-family="system-ui, -apple-system, sans-serif" font-size="12" fill="#1f2328" text-anchor="start">tummycrypt</text>
  <rect x="703.2" y="116.7" width="110.0" height="15" fill="#ffffff" opacity="0.75" rx="2" />
  <text x="704.2" y="127.7" font-family="system-ui, -apple-system, sans-serif" font-size="12" fill="#1f2328" text-anchor="start">hiberpower-ntfs</text>
  <rect x="610.0" y="141.3" width="16.4" height="15" fill="#ffffff" opacity="0.75" rx="2" />
  <text x="611.0" y="152.3" font-family="system-ui, -apple-system, sans-serif" font-size="12" fill="#1f2328" text-anchor="start">pp</text>
  <rect x="520.2" y="126.6" width="117.2" height="15" fill="#ffffff" opacity="0.75" rx="2" />
  <text x="521.2" y="137.6" font-family="system-ui, -apple-system, sans-serif" font-size="12" fill="#1f2328" text-anchor="start">tinyland-cleanup</text>
  <rect x="615.4" y="225.5" width="59.6" height="15" fill="#ffffff" opacity="0.75" rx="2" />
  <text x="616.4" y="236.5" font-family="system-ui, -apple-system, sans-serif" font-size="12" fill="#1f2328" text-anchor="start">gnucashr</text>
  <rect x="683.5" y="307.6" width="66.8" height="15" fill="#ffffff" opacity="0.75" rx="2" />
  <text x="684.5" y="318.6" font-family="system-ui, -apple-system, sans-serif" font-size="12" fill="#1f2328" text-anchor="start">betterkvm</text>
  <rect x="611.8" y="17.7" width="131.6" height="15" fill="#ffffff" opacity="0.75" rx="2" />
  <text x="612.8" y="28.7" font-family="system-ui, -apple-system, sans-serif" font-size="12" fill="#1f2328" text-anchor="start">aperture-bootstrap</text>
  <rect x="655.2" y="147.4" width="81.2" height="15" fill="#ffffff" opacity="0.75" rx="2" />
  <text x="656.2" y="158.4" font-family="system-ui, -apple-system, sans-serif" font-size="12" fill="#1f2328" text-anchor="start">tailnet-acl</text>
  <rect x="547.0" y="111.9" width="88.4" height="15" fill="#ffffff" opacity="0.75" rx="2" />
  <text x="548.0" y="122.9" font-family="system-ui, -apple-system, sans-serif" font-size="12" fill="#1f2328" text-anchor="start">waifu-mirror</text>
  <rect x="645.4" y="203.7" width="102.8" height="15" fill="#ffffff" opacity="0.75" rx="2" />
  <text x="646.4" y="214.7" font-family="system-ui, -apple-system, sans-serif" font-size="12" fill="#1f2328" text-anchor="start">tinyland-infra</text>
  <rect x="701.1" y="236.7" width="52.4" height="15" fill="#ffffff" opacity="0.75" rx="2" />
  <text x="702.1" y="247.7" font-family="system-ui, -apple-system, sans-serif" font-size="12" fill="#1f2328" text-anchor="start">LA-Mesh</text>
  <rect x="720.4" y="322.3" width="131.6" height="15" fill="#ffffff" opacity="0.75" rx="2" />
  <text x="721.4" y="333.3" font-family="system-ui, -apple-system, sans-serif" font-size="12" fill="#1f2328" text-anchor="start">pixelwise-research</text>
  <rect x="781.1" y="242.7" width="95.6" height="15" fill="#ffffff" opacity="0.75" rx="2" />
  <text x="782.1" y="253.7" font-family="system-ui, -apple-system, sans-serif" font-size="12" fill="#1f2328" text-anchor="start">GIS_Shortcuts</text>
  <rect x="705.3" y="70.3" width="138.8" height="15" fill="#ffffff" opacity="0.75" rx="2" />
  <text x="706.3" y="81.3" font-family="system-ui, -apple-system, sans-serif" font-size="12" fill="#1f2328" text-anchor="start">Ansible-DAG-Harness</text>
  <rect x="690.0" y="178.2" width="95.6" height="15" fill="#ffffff" opacity="0.75" rx="2" />
  <text x="691.0" y="189.2" font-family="system-ui, -apple-system, sans-serif" font-size="12" fill="#1f2328" text-anchor="start">DarwinNicUtil</text>
  <rect x="698.4" y="-33.1" width="66.8" height="15" fill="#ffffff" opacity="0.75" rx="2" />
  <text x="699.4" y="-22.1" font-family="system-ui, -apple-system, sans-serif" font-size="12" fill="#1f2328" text-anchor="start">quickchpl</text>
  <rect x="64.2" y="242.5" width="131.6" height="15" fill="#ffffff" opacity="0.75" rx="2" />
  <text x="65.2" y="253.5" font-family="system-ui, -apple-system, sans-serif" font-size="12" fill="#1f2328" text-anchor="start">tinyscale-mikrotik</text>
  <rect x="704.5" y="88.2" width="59.6" height="15" fill="#ffffff" opacity="0.75" rx="2" />
  <text x="705.5" y="99.2" font-family="system-ui, -apple-system, sans-serif" font-size="12" fill="#1f2328" text-anchor="start">aoc-2025</text>
  <rect x="319.4" y="467.2" width="66.8" height="15" fill="#ffffff" opacity="0.75" rx="2" />
  <text x="320.4" y="478.2" font-family="system-ui, -apple-system, sans-serif" font-size="12" fill="#1f2328" text-anchor="start">searchies</text>
  <rect x="346.3" y="450.2" width="59.6" height="15" fill="#ffffff" opacity="0.75" rx="2" />
  <text x="347.3" y="461.2" font-family="system-ui, -apple-system, sans-serif" font-size="12" fill="#1f2328" text-anchor="start">ts-caddy</text>
  <rect x="613.7" y="90.2" width="66.8" height="15" fill="#ffffff" opacity="0.75" rx="2" />
  <text x="614.7" y="101.2" font-family="system-ui, -apple-system, sans-serif" font-size="12" fill="#1f2328" text-anchor="start">HCI-notes</text>
  <rect x="799.7" y="176.2" width="88.4" height="15" fill="#ffffff" opacity="0.75" rx="2" />
  <text x="800.7" y="187.2" font-family="system-ui, -apple-system, sans-serif" font-size="12" fill="#1f2328" text-anchor="start">FastPhotoAPI</text>
  <rect x="747.3" y="191.3" width="81.2" height="15" fill="#ffffff" opacity="0.75" rx="2" />
  <text x="748.3" y="202.3" font-family="system-ui, -apple-system, sans-serif" font-size="12" fill="#1f2328" text-anchor="start">timberbuddy</text>
  <rect x="722.1" y="-1.7" width="81.2" height="15" fill="#ffffff" opacity="0.75" rx="2" />
  <text x="723.1" y="9.3" font-family="system-ui, -apple-system, sans-serif" font-size="12" fill="#1f2328" text-anchor="start">tetrahedron</text>
  <rect x="775.8" y="87.6" width="95.6" height="15" fill="#ffffff" opacity="0.75" rx="2" />
  <text x="776.8" y="98.6" font-family="system-ui, -apple-system, sans-serif" font-size="12" fill="#1f2328" text-anchor="start">AccuWixReport</text>
  <rect x="770.3" y="25.9" width="95.6" height="15" fill="#ffffff" opacity="0.75" rx="2" />
  <text x="771.3" y="36.9" font-family="system-ui, -apple-system, sans-serif" font-size="12" fill="#1f2328" text-anchor="start">Jess-AOC-2023</text>
  <rect x="787.6" y="249.9" width="81.2" height="15" fill="#ffffff" opacity="0.75" rx="2" />
  <text x="788.6" y="260.9" font-family="system-ui, -apple-system, sans-serif" font-size="12" fill="#1f2328" text-anchor="start">TurkeyProbe</text>
  <rect x="729.8" y="214.7" width="153.2" height="15" fill="#ffffff" opacity="0.75" rx="2" />
  <text x="730.8" y="225.7" font-family="system-ui, -apple-system, sans-serif" font-size="12" fill="#1f2328" text-anchor="start">MerlinAI-Interpreters</text>
  <rect x="555.9" y="2.5" width="110.0" height="15" fill="#ffffff" opacity="0.75" rx="2" />
  <text x="556.9" y="13.5" font-family="system-ui, -apple-system, sans-serif" font-size="12" fill="#1f2328" text-anchor="start">IntroTypeScript</text>
  <rect x="163.2" y="391.9" width="110.0" height="15" fill="#ffffff" opacity="0.75" rx="2" />
  <text x="164.2" y="402.9" font-family="system-ui, -apple-system, sans-serif" font-size="12" fill="#1f2328" text-anchor="start">IG-3DP-Profiles</text>
  <rect x="744.1" y="263.2" width="66.8" height="15" fill="#ffffff" opacity="0.75" rx="2" />
  <text x="745.1" y="274.2" font-family="system-ui, -apple-system, sans-serif" font-size="12" fill="#1f2328" text-anchor="start">DLA-Flask</text>
  <rect x="775.8" y="142.8" width="38.0" height="15" fill="#ffffff" opacity="0.75" rx="2" />
  <text x="776.8" y="153.8" font-family="system-ui, -apple-system, sans-serif" font-size="12" fill="#1f2328" text-anchor="start">USBoN</text>
  <rect x="730.3" y="53.3" width="203.6" height="15" fill="#ffffff" opacity="0.75" rx="2" />
  <text x="731.3" y="64.3" font-family="system-ui, -apple-system, sans-serif" font-size="12" fill="#1f2328" text-anchor="start">chrome-remote-desktop-budgie</text>
  <rect x="663.2" y="462.7" width="124.4" height="15" fill="#ffffff" opacity="0.75" rx="2" />
  <text x="786.6" y="473.7" font-family="system-ui, -apple-system, sans-serif" font-size="12" fill="#1f2328" text-anchor="end">OminousBeepingApp</text>
  <rect x="746.1" y="137.2" width="138.8" height="15" fill="#ffffff" opacity="0.75" rx="2" />
  <text x="747.1" y="148.2" font-family="system-ui, -apple-system, sans-serif" font-size="12" fill="#1f2328" text-anchor="start">mo-image-identifier</text>
  <rect x="746.0" y="150.0" width="196.4" height="15" fill="#ffffff" opacity="0.75" rx="2" />
  <text x="747.0" y="161.0" font-family="system-ui, -apple-system, sans-serif" font-size="12" fill="#1f2328" text-anchor="start">squirrel-leaflet-annotation</text>
  <rect x="772.5" y="-33.9" width="74.0" height="15" fill="#ffffff" opacity="0.75" rx="2" />
  <text x="773.5" y="-22.9" font-family="system-ui, -apple-system, sans-serif" font-size="12" fill="#1f2328" text-anchor="start">Shiny-Apps</text>
  <rect x="740.7" y="295.4" width="138.8" height="15" fill="#ffffff" opacity="0.75" rx="2" />
  <text x="741.7" y="306.4" font-family="system-ui, -apple-system, sans-serif" font-size="12" fill="#1f2328" text-anchor="start">bbox-jest-puppeteer</text>
  <rect x="132.6" y="70.4" width="88.4" height="15" fill="#ffffff" opacity="0.75" rx="2" />
  <text x="133.6" y="81.4" font-family="system-ui, -apple-system, sans-serif" font-size="12" fill="#1f2328" text-anchor="start">DoverDisplay</text>
  <rect x="709.6" y="39.1" width="81.2" height="15" fill="#ffffff" opacity="0.75" rx="2" />
  <text x="789.8" y="50.1" font-family="system-ui, -apple-system, sans-serif" font-size="12" fill="#1f2328" text-anchor="end">LeafletSync</text>
  <rect x="793.0" y="104.6" width="167.6" height="15" fill="#ffffff" opacity="0.75" rx="2" />
  <text x="794.0" y="115.6" font-family="system-ui, -apple-system, sans-serif" font-size="12" fill="#1f2328" text-anchor="start">misc-roi-distance-notes</text>
  <rect x="462.8" y="173.0" width="138.8" height="15" fill="#ffffff" opacity="0.75" rx="2" />
  <text x="463.8" y="184.0" font-family="system-ui, -apple-system, sans-serif" font-size="12" fill="#1f2328" text-anchor="start">Arduino_Coil_Winder</text>
  <rect x="500.3" y="187.7" width="30.8" height="15" fill="#ffffff" opacity="0.75" rx="2" />
  <text x="501.3" y="198.7" font-family="system-ui, -apple-system, sans-serif" font-size="12" fill="#1f2328" text-anchor="start">momo</text>
  <rect x="767.0" y="120.2" width="38.0" height="15" fill="#ffffff" opacity="0.75" rx="2" />
  <text x="768.0" y="131.2" font-family="system-ui, -apple-system, sans-serif" font-size="12" fill="#1f2328" text-anchor="start">clipi</text>
  <rect x="536.6" y="158.3" width="110.0" height="15" fill="#ffffff" opacity="0.75" rx="2" />
  <text x="537.6" y="169.3" font-family="system-ui, -apple-system, sans-serif" font-size="12" fill="#1f2328" text-anchor="start">AeroTaz5_hotfix</text>
  <rect x="99.5" y="87.4" width="110.0" height="15" fill="#ffffff" opacity="0.75" rx="2" />
  <text x="100.5" y="98.4" font-family="system-ui, -apple-system, sans-serif" font-size="12" fill="#1f2328" text-anchor="start">Funmat-HT-Notes</text>
  <rect x="756.0" y="8.9" width="81.2" height="15" fill="#ffffff" opacity="0.75" rx="2" />
  <text x="757.0" y="19.9" font-family="system-ui, -apple-system, sans-serif" font-size="12" fill="#1f2328" text-anchor="start">static-site</text>
  <rect x="692.3" y="105.2" width="95.6" height="15" fill="#ffffff" opacity="0.75" rx="2" />
  <text x="786.9" y="116.2" font-family="system-ui, -apple-system, sans-serif" font-size="12" fill="#1f2328" text-anchor="end">Flask-Manager</text>
  <rect x="770.5" y="231.7" width="110.0" height="15" fill="#ffffff" opacity="0.75" rx="2" />
  <text x="879.5" y="242.7" font-family="system-ui, -apple-system, sans-serif" font-size="12" fill="#1f2328" text-anchor="end">FieldProcessing</text>
  <rect x="819.1" y="121.8" width="81.2" height="15" fill="#ffffff" opacity="0.75" rx="2" />
  <text x="899.3" y="132.8" font-family="system-ui, -apple-system, sans-serif" font-size="12" fill="#1f2328" text-anchor="end">rJDKmanager</text>
  <rect x="750.8" y="167.0" width="59.6" height="15" fill="#ffffff" opacity="0.75" rx="2" />
  <text x="751.8" y="178.0" font-family="system-ui, -apple-system, sans-serif" font-size="12" fill="#1f2328" text-anchor="start">tagnotes</text>
  <rect x="736.5" y="-16.9" width="81.2" height="15" fill="#ffffff" opacity="0.75" rx="2" />
  <text x="737.5" y="-5.9" font-family="system-ui, -apple-system, sans-serif" font-size="12" fill="#1f2328" text-anchor="start">ChapelTests</text>
  <rect x="731.8" y="278.4" width="88.4" height="15" fill="#ffffff" opacity="0.75" rx="2" />
  <text x="732.8" y="289.4" font-family="system-ui, -apple-system, sans-serif" font-size="12" fill="#1f2328" text-anchor="start">Xfinity-WiFi</text>
  <rect x="641.1" y="493.2" width="66.8" height="15" fill="#ffffff" opacity="0.75" rx="2" />
  <text x="642.1" y="504.2" font-family="system-ui, -apple-system, sans-serif" font-size="12" fill="#1f2328" text-anchor="start">home-wiki</text>
  <rect x="793" y="36" width="155" height="120" rx="6" fill="#f6f8fa" stroke="#d0d7de" stroke-width="1" opacity="0.95" />
  <circle cx="810" cy="52" r="5" fill="#e74c3c" opacity="0.88" />
  <text x="820" y="56" font-family="system-ui, -apple-system, sans-serif" font-size="10" fill="#1f2328">Languages &amp; Compilers</text>
  <circle cx="810" cy="69" r="5" fill="#3498db" opacity="0.88" />
  <text x="820" y="73" font-family="system-ui, -apple-system, sans-serif" font-size="10" fill="#1f2328">Infrastructure &amp; DevOps</text>
  <circle cx="810" cy="86" r="5" fill="#e67e22" opacity="0.88" />
  <text x="820" y="90" font-family="system-ui, -apple-system, sans-serif" font-size="10" fill="#1f2328">Hardware &amp; Maker</text>
  <circle cx="810" cy="103" r="5" fill="#2ecc71" opacity="0.88" />
  <text x="820" y="107" font-family="system-ui, -apple-system, sans-serif" font-size="10" fill="#1f2328">ML &amp; Data</text>
  <circle cx="810" cy="120" r="5" fill="#9b59b6" opacity="0.88" />
  <text x="820" y="124" font-family="system-ui, -apple-system, sans-serif" font-size="10" fill="#1f2328">Web &amp; Apps</text>
  <circle cx="810" cy="137" r="5" fill="#7f8c8d" opacity="0.88" />
  <text x="820" y="141" font-family="system-ui, -apple-system, sans-serif" font-size="10" fill="#1f2328">Other</text>
  <text x="870" y="150" font-family="system-ui, -apple-system, sans-serif" font-size="8" fill="#656d76" text-anchor="middle">58 repos · 251 edges</text>
</svg>