<svg xmlns="http://www.w3.org/2000/svg" width="960" height="600" viewBox="0 0 960 600">
  <rect width="960" height="600" fill="#ffffff" rx="8" />
  <text x="480" y="24" font-family="system-ui, -apple-system, sans-serif" font-size="13" fill="#656d76" text-anchor="middle" font-weight="500">Repo Relationship Graph &#x2014; Pairwise Topic &amp; Language Similarity</text>
  <line x1="50" y1="550" x2="910" y2="550" stroke="#d0d7de" stroke-width="0.5" opacity="0.5" />
  <text x="50" y="570" font-family="system-ui, -apple-system, sans-serif" font-size="9" fill="#656d76" opacity="0.6">Updated daily by GitHub Actions</text>
  <text x="50" y="588" font-family="system-ui, -apple-system, sans-serif" font-size="9" fill="#656d76" opacity="0.6">networkx spring_layout · Jaccard similarity &gt; 0.15</text>
  <text x="910" y="570" font-family="system-ui, -apple-system, sans-serif" font-size="9" fill="#656d76" text-anchor="end" opacity="0.6">56 repos · 223 edges</text>
  <line x1="354.1" y1="414.5" x2="340.7" y2="448.4" stroke="#bcc3cd" stroke-width="1.2" opacity="0.38" />
  <line x1="354.1" y1="414.5" x2="389.5" y2="430.9" stroke="#bcc3cd" stroke-width="1.2" opacity="0.34" />
  <line x1="354.1" y1="414.5" x2="396.8" y2="452.5" stroke="#bcc3cd" stroke-width="0.9" opacity="0.18" />
  <line x1="354.1" y1="414.5" x2="371.0" y2="392.6" stroke="#bcc3cd" stroke-width="1.0" opacity="0.25" />
  <line x1="354.1" y1="414.5" x2="416.2" y2="418.7" stroke="#bcc3cd" stroke-width="0.9" opacity="0.20" />
  <line x1="354.1" y1="414.5" x2="412.2" y2="394.7" stroke="#bcc3cd" stroke-width="1.0" opacity="0.22" />
  <line x1="337.8" y1="460.2" x2="281.9" y2="455.7" stroke="#bcc3cd" stroke-width="1.1" opacity="0.33" />
  <line x1="337.8" y1="460.2" x2="361.0" y2="434.1" stroke="#bcc3cd" stroke-width="1.4" opacity="0.47" />
  <line x1="337.8" y1="460.2" x2="381.2" y2="450.0" stroke="#bcc3cd" stroke-width="1.0" opacity="0.22" />
  <line x1="337.8" y1="460.2" x2="279.4" y2="481.9" stroke="#bcc3cd" stroke-width="1.3" opacity="0.41" />
  <line x1="337.8" y1="460.2" x2="340.7" y2="448.4" stroke="#bcc3cd" stroke-width="1.0" opacity="0.24" />
  <line x1="337.8" y1="460.2" x2="389.5" y2="430.9" stroke="#bcc3cd" stroke-width="0.9" opacity="0.19" />
  <line x1="337.8" y1="460.2" x2="396.8" y2="452.5" stroke="#bcc3cd" stroke-width="0.9" opacity="0.18" />
  <line x1="337.8" y1="460.2" x2="398.5" y2="460.4" stroke="#bcc3cd" stroke-width="0.9" opacity="0.18" />
  <line x1="337.8" y1="460.2" x2="448.1" y2="454.0" stroke="#bcc3cd" stroke-width="0.9" opacity="0.18" />
  <line x1="281.9" y1="455.7" x2="361.0" y2="434.1" stroke="#bcc3cd" stroke-width="0.9" opacity="0.20" />
  <line x1="281.9" y1="455.7" x2="279.4" y2="481.9" stroke="#bcc3cd" stroke-width="0.9" opacity="0.18" />
  <line x1="361.0" y1="434.1" x2="381.2" y2="450.0" stroke="#bcc3cd" stroke-width="1.0" opacity="0.22" />
  <line x1="361.0" y1="434.1" x2="340.7" y2="448.4" stroke="#bcc3cd" stroke-width="1.0" opacity="0.24" />
  <line x1="361.0" y1="434.1" x2="389.5" y2="430.9" stroke="#bcc3cd" stroke-width="0.9" opacity="0.19" />
  <line x1="361.0" y1="434.1" x2="396.8" y2="452.5" stroke="#bcc3cd" stroke-width="0.9" opacity="0.18" />
  <line x1="361.0" y1="434.1" x2="398.5" y2="460.4" stroke="#bcc3cd" stroke-width="0.9" opacity="0.18" />
  <line x1="361.0" y1="434.1" x2="441.1" y2="375.0" stroke="#bcc3cd" stroke-width="1.0" opacity="0.22" />
  <line x1="361.0" y1="434.1" x2="448.1" y2="454.0" stroke="#bcc3cd" stroke-width="0.9" opacity="0.18" />
  <line x1="370.0" y1="473.7" x2="331.1" y2="483.8" stroke="#bcc3cd" stroke-width="0.9" opacity="0.19" />
  <line x1="370.0" y1="473.7" x2="381.2" y2="450.0" stroke="#bcc3cd" stroke-width="0.9" opacity="0.21" />
  <line x1="370.0" y1="473.7" x2="340.7" y2="448.4" stroke="#bcc3cd" stroke-width="1.0" opacity="0.22" />
  <line x1="370.0" y1="473.7" x2="389.5" y2="430.9" stroke="#bcc3cd" stroke-width="0.9" opacity="0.19" />
  <line x1="370.0" y1="473.7" x2="396.8" y2="452.5" stroke="#bcc3cd" stroke-width="1.0" opacity="0.26" />
  <line x1="370.0" y1="473.7" x2="395.4" y2="470.3" stroke="#bcc3cd" stroke-width="1.0" opacity="0.23" />
  <line x1="370.0" y1="473.7" x2="398.5" y2="460.4" stroke="#bcc3cd" stroke-width="1.0" opacity="0.26" />
  <line x1="370.0" y1="473.7" x2="408.6" y2="475.7" stroke="#bcc3cd" stroke-width="1.0" opacity="0.23" />
  <line x1="370.0" y1="473.7" x2="448.1" y2="454.0" stroke="#bcc3cd" stroke-width="0.9" opacity="0.18" />
  <line x1="331.1" y1="483.8" x2="279.4" y2="481.9" stroke="#bcc3cd" stroke-width="0.9" opacity="0.18" />
  <line x1="331.1" y1="483.8" x2="340.7" y2="448.4" stroke="#bcc3cd" stroke-width="1.0" opacity="0.25" />
  <line x1="331.1" y1="483.8" x2="396.8" y2="452.5" stroke="#bcc3cd" stroke-width="1.0" opacity="0.22" />
  <line x1="331.1" y1="483.8" x2="395.4" y2="470.3" stroke="#bcc3cd" stroke-width="0.9" opacity="0.20" />
  <line x1="381.2" y1="450.0" x2="340.7" y2="448.4" stroke="#bcc3cd" stroke-width="0.9" opacity="0.21" />
  <line x1="381.2" y1="450.0" x2="389.5" y2="430.9" stroke="#bcc3cd" stroke-width="1.1" opacity="0.30" />
  <line x1="381.2" y1="450.0" x2="396.8" y2="452.5" stroke="#bcc3cd" stroke-width="1.0" opacity="0.24" />
  <line x1="381.2" y1="450.0" x2="395.4" y2="470.3" stroke="#bcc3cd" stroke-width="1.0" opacity="0.22" />
  <line x1="381.2" y1="450.0" x2="398.5" y2="460.4" stroke="#bcc3cd" stroke-width="1.0" opacity="0.24" />
  <line x1="381.2" y1="450.0" x2="408.6" y2="475.7" stroke="#bcc3cd" stroke-width="1.0" opacity="0.22" />
  <line x1="381.2" y1="450.0" x2="398.6" y2="415.9" stroke="#bcc3cd" stroke-width="0.9" opacity="0.19" />
  <line x1="381.2" y1="450.0" x2="439.6" y2="428.5" stroke="#bcc3cd" stroke-width="0.9" opacity="0.21" />
  <line x1="381.2" y1="450.0" x2="445.3" y2="437.2" stroke="#bcc3cd" stroke-width="1.0" opacity="0.24" />
  <line x1="381.2" y1="450.0" x2="448.1" y2="454.0" stroke="#bcc3cd" stroke-width="0.9" opacity="0.17" />
  <line x1="340.7" y1="448.4" x2="389.5" y2="430.9" stroke="#bcc3cd" stroke-width="0.9" opacity="0.19" />
  <line x1="340.7" y1="448.4" x2="396.8" y2="452.5" stroke="#bcc3cd" stroke-width="0.9" opacity="0.18" />
  <line x1="340.7" y1="448.4" x2="398.5" y2="460.4" stroke="#bcc3cd" stroke-width="0.9" opacity="0.18" />
  <line x1="389.5" y1="430.9" x2="396.8" y2="452.5" stroke="#bcc3cd" stroke-width="1.1" opacity="0.29" />
  <line x1="389.5" y1="430.9" x2="371.0" y2="392.6" stroke="#bcc3cd" stroke-width="1.2" opacity="0.34" />
  <line x1="389.5" y1="430.9" x2="395.4" y2="470.3" stroke="#bcc3cd" stroke-width="0.9" opacity="0.20" />
  <line x1="389.5" y1="430.9" x2="398.5" y2="460.4" stroke="#bcc3cd" stroke-width="1.0" opacity="0.22" />
  <line x1="389.5" y1="430.9" x2="408.6" y2="475.7" stroke="#bcc3cd" stroke-width="0.9" opacity="0.20" />
  <line x1="389.5" y1="430.9" x2="416.2" y2="418.7" stroke="#bcc3cd" stroke-width="1.2" opacity="0.37" />
  <line x1="389.5" y1="430.9" x2="412.2" y2="394.7" stroke="#bcc3cd" stroke-width="1.2" opacity="0.37" />
  <line x1="389.5" y1="430.9" x2="398.6" y2="415.9" stroke="#bcc3cd" stroke-width="1.1" opacity="0.29" />
  <line x1="389.5" y1="430.9" x2="422.6" y2="434.8" stroke="#bcc3cd" stroke-width="1.0" opacity="0.22" />
  <line x1="389.5" y1="430.9" x2="439.6" y2="428.5" stroke="#bcc3cd" stroke-width="1.2" opacity="0.34" />
  <line x1="389.5" y1="430.9" x2="434.6" y2="415.8" stroke="#bcc3cd" stroke-width="1.0" opacity="0.24" />
  <line x1="389.5" y1="430.9" x2="445.3" y2="437.2" stroke="#bcc3cd" stroke-width="1.1" opacity="0.29" />
  <line x1="389.5" y1="430.9" x2="427.9" y2="402.8" stroke="#bcc3cd" stroke-width="1.0" opacity="0.22" />
  <line x1="396.8" y1="452.5" x2="441.3" y2="486.0" stroke="#bcc3cd" stroke-width="0.9" opacity="0.21" />
  <line x1="396.8" y1="452.5" x2="395.4" y2="470.3" stroke="#bcc3cd" stroke-width="1.1" opacity="0.28" />
  <line x1="396.8" y1="452.5" x2="398.5" y2="460.4" stroke="#bcc3cd" stroke-width="1.1" opacity="0.31" />
  <line x1="396.8" y1="452.5" x2="408.6" y2="475.7" stroke="#bcc3cd" stroke-width="1.1" opacity="0.28" />
  <line x1="396.8" y1="452.5" x2="416.2" y2="418.7" stroke="#bcc3cd" stroke-width="0.9" opacity="0.17" />
  <line x1="396.8" y1="452.5" x2="457.7" y2="467.8" stroke="#bcc3cd" stroke-width="0.9" opacity="0.17" />
  <line x1="396.8" y1="452.5" x2="460.5" y2="455.8" stroke="#bcc3cd" stroke-width="0.9" opacity="0.20" />
  <line x1="396.8" y1="452.5" x2="439.6" y2="428.5" stroke="#bcc3cd" stroke-width="0.9" opacity="0.17" />
  <line x1="396.8" y1="452.5" x2="434.6" y2="415.8" stroke="#bcc3cd" stroke-width="0.9" opacity="0.17" />
  <line x1="396.8" y1="452.5" x2="445.3" y2="437.2" stroke="#bcc3cd" stroke-width="1.1" opacity="0.33" />
  <line x1="396.8" y1="452.5" x2="448.1" y2="454.0" stroke="#bcc3cd" stroke-width="1.0" opacity="0.24" />
  <line x1="371.0" y1="392.6" x2="416.2" y2="418.7" stroke="#bcc3cd" stroke-width="1.0" opacity="0.25" />
  <line x1="371.0" y1="392.6" x2="412.2" y2="394.7" stroke="#bcc3cd" stroke-width="1.1" opacity="0.29" />
  <line x1="371.0" y1="392.6" x2="427.9" y2="402.8" stroke="#bcc3cd" stroke-width="0.9" opacity="0.17" />
  <line x1="453.0" y1="391.2" x2="416.2" y2="418.7" stroke="#bcc3cd" stroke-width="0.9" opacity="0.18" />
  <line x1="453.0" y1="391.2" x2="412.2" y2="394.7" stroke="#bcc3cd" stroke-width="0.9" opacity="0.18" />
  <line x1="453.0" y1="391.2" x2="439.6" y2="428.5" stroke="#bcc3cd" stroke-width="0.9" opacity="0.17" />
  <line x1="453.0" y1="391.2" x2="434.6" y2="415.8" stroke="#bcc3cd" stroke-width="1.3" opacity="0.42" />
  <line x1="453.0" y1="391.2" x2="445.3" y2="437.2" stroke="#bcc3cd" stroke-width="0.9" opacity="0.19" />
  <line x1="453.0" y1="391.2" x2="427.9" y2="402.8" stroke="#bcc3cd" stroke-width="0.9" opacity="0.21" />
  <line x1="441.3" y1="486.0" x2="460.5" y2="455.8" stroke="#bcc3cd" stroke-width="0.9" opacity="0.18" />
  <line x1="441.3" y1="486.0" x2="445.3" y2="437.2" stroke="#bcc3cd" stroke-width="1.1" opacity="0.30" />
  <line x1="441.3" y1="486.0" x2="448.1" y2="454.0" stroke="#bcc3cd" stroke-width="1.0" opacity="0.22" />
  <line x1="395.4" y1="470.3" x2="398.5" y2="460.4" stroke="#bcc3cd" stroke-width="1.1" opacity="0.28" />
  <line x1="395.4" y1="470.3" x2="408.6" y2="475.7" stroke="#bcc3cd" stroke-width="1.0" opacity="0.24" />
  <line x1="395.4" y1="470.3" x2="422.6" y2="434.8" stroke="#bcc3cd" stroke-width="0.9" opacity="0.19" />
  <line x1="395.4" y1="470.3" x2="429.7" y2="453.5" stroke="#bcc3cd" stroke-width="0.9" opacity="0.18" />
  <line x1="395.4" y1="470.3" x2="460.5" y2="455.8" stroke="#bcc3cd" stroke-width="0.9" opacity="0.17" />
  <line x1="395.4" y1="470.3" x2="445.3" y2="437.2" stroke="#bcc3cd" stroke-width="0.9" opacity="0.17" />
  <line x1="395.4" y1="470.3" x2="448.1" y2="454.0" stroke="#bcc3cd" stroke-width="0.9" opacity="0.20" />
  <line x1="398.5" y1="460.4" x2="408.6" y2="475.7" stroke="#bcc3cd" stroke-width="1.1" opacity="0.28" />
  <line x1="398.5" y1="460.4" x2="457.7" y2="467.8" stroke="#bcc3cd" stroke-width="0.9" opacity="0.17" />
  <line x1="398.5" y1="460.4" x2="460.5" y2="455.8" stroke="#bcc3cd" stroke-width="0.9" opacity="0.20" />
  <line x1="398.5" y1="460.4" x2="439.6" y2="428.5" stroke="#bcc3cd" stroke-width="0.9" opacity="0.17" />
  <line x1="398.5" y1="460.4" x2="445.3" y2="437.2" stroke="#bcc3cd" stroke-width="0.9" opacity="0.20" />
  <line x1="398.5" y1="460.4" x2="448.1" y2="454.0" stroke="#bcc3cd" stroke-width="1.0" opacity="0.24" />
  <line x1="408.6" y1="475.7" x2="460.5" y2="455.8" stroke="#bcc3cd" stroke-width="0.9" opacity="0.17" />
  <line x1="408.6" y1="475.7" x2="445.3" y2="437.2" stroke="#bcc3cd" stroke-width="0.9" opacity="0.17" />
  <line x1="408.6" y1="475.7" x2="448.1" y2="454.0" stroke="#bcc3cd" stroke-width="0.9" opacity="0.20" />
  <line x1="583.3" y1="487.8" x2="526.6" y2="464.0" stroke="#bcc3cd" stroke-width="1.3" opacity="0.44" />
  <line x1="583.3" y1="487.8" x2="575.2" y2="466.4" stroke="#bcc3cd" stroke-width="0.9" opacity="0.18" />
  <line x1="526.6" y1="464.0" x2="504.0" y2="439.3" stroke="#bcc3cd" stroke-width="1.1" opacity="0.31" />
  <line x1="526.6" y1="464.0" x2="457.7" y2="467.8" stroke="#bcc3cd" stroke-width="0.9" opacity="0.20" />
  <line x1="526.6" y1="464.0" x2="460.5" y2="455.8" stroke="#bcc3cd" stroke-width="1.0" opacity="0.24" />
  <line x1="526.6" y1="464.0" x2="439.6" y2="428.5" stroke="#bcc3cd" stroke-width="0.9" opacity="0.20" />
  <line x1="526.6" y1="464.0" x2="445.3" y2="437.2" stroke="#bcc3cd" stroke-width="1.0" opacity="0.24" />
  <line x1="526.6" y1="464.0" x2="474.7" y2="458.0" stroke="#bcc3cd" stroke-width="0.9" opacity="0.18" />
  <line x1="526.6" y1="464.0" x2="673.4" y2="487.1" stroke="#bcc3cd" stroke-width="0.9" opacity="0.17" />
  <line x1="526.6" y1="464.0" x2="512.7" y2="450.1" stroke="#bcc3cd" stroke-width="1.1" opacity="0.31" />
  <line x1="526.6" y1="464.0" x2="575.2" y2="466.4" stroke="#bcc3cd" stroke-width="1.1" opacity="0.30" />
  <line x1="526.6" y1="464.0" x2="448.1" y2="454.0" stroke="#bcc3cd" stroke-width="1.1" opacity="0.31" />
  <line x1="50.0" y1="328.8" x2="56.9" y2="345.1" stroke="#bcc3cd" stroke-width="1.6" opacity="0.60" />
  <line x1="439.9" y1="303.2" x2="412.2" y2="394.7" stroke="#bcc3cd" stroke-width="0.9" opacity="0.18" />
  <line x1="439.9" y1="303.2" x2="472.9" y2="252.2" stroke="#bcc3cd" stroke-width="1.1" opacity="0.28" />
  <line x1="455.8" y1="404.2" x2="416.2" y2="418.7" stroke="#bcc3cd" stroke-width="0.9" opacity="0.17" />
  <line x1="455.8" y1="404.2" x2="412.2" y2="394.7" stroke="#bcc3cd" stroke-width="0.9" opacity="0.18" />
  <line x1="455.8" y1="404.2" x2="422.6" y2="434.8" stroke="#bcc3cd" stroke-width="1.0" opacity="0.22" />
  <line x1="455.8" y1="404.2" x2="439.6" y2="428.5" stroke="#bcc3cd" stroke-width="1.1" opacity="0.28" />
  <line x1="455.8" y1="404.2" x2="434.6" y2="415.8" stroke="#bcc3cd" stroke-width="1.1" opacity="0.32" />
  <line x1="455.8" y1="404.2" x2="445.3" y2="437.2" stroke="#bcc3cd" stroke-width="0.9" opacity="0.20" />
  <line x1="455.8" y1="404.2" x2="427.9" y2="402.8" stroke="#bcc3cd" stroke-width="1.0" opacity="0.22" />
  <line x1="455.8" y1="404.2" x2="476.4" y2="416.6" stroke="#bcc3cd" stroke-width="1.0" opacity="0.22" />
  <line x1="416.2" y1="418.7" x2="412.2" y2="394.7" stroke="#bcc3cd" stroke-width="1.3" opacity="0.42" />
  <line x1="416.2" y1="418.7" x2="426.9" y2="386.9" stroke="#bcc3cd" stroke-width="0.9" opacity="0.18" />
  <line x1="416.2" y1="418.7" x2="398.6" y2="415.9" stroke="#bcc3cd" stroke-width="1.1" opacity="0.31" />
  <line x1="416.2" y1="418.7" x2="422.6" y2="434.8" stroke="#bcc3cd" stroke-width="1.1" opacity="0.32" />
  <line x1="416.2" y1="418.7" x2="429.7" y2="453.5" stroke="#bcc3cd" stroke-width="1.0" opacity="0.23" />
  <line x1="416.2" y1="418.7" x2="439.6" y2="428.5" stroke="#bcc3cd" stroke-width="1.2" opacity="0.39" />
  <line x1="416.2" y1="418.7" x2="434.6" y2="415.8" stroke="#bcc3cd" stroke-width="1.0" opacity="0.26" />
  <line x1="416.2" y1="418.7" x2="445.3" y2="437.2" stroke="#bcc3cd" stroke-width="1.2" opacity="0.34" />
  <line x1="416.2" y1="418.7" x2="474.7" y2="458.0" stroke="#bcc3cd" stroke-width="0.9" opacity="0.19" />
  <line x1="416.2" y1="418.7" x2="427.9" y2="402.8" stroke="#bcc3cd" stroke-width="1.0" opacity="0.25" />
  <line x1="416.2" y1="418.7" x2="448.1" y2="454.0" stroke="#bcc3cd" stroke-width="0.9" opacity="0.17" />
  <line x1="412.2" y1="394.7" x2="426.9" y2="386.9" stroke="#bcc3cd" stroke-width="1.1" opacity="0.33" />
  <line x1="412.2" y1="394.7" x2="398.6" y2="415.9" stroke="#bcc3cd" stroke-width="0.9" opacity="0.21" />
  <line x1="412.2" y1="394.7" x2="422.6" y2="434.8" stroke="#bcc3cd" stroke-width="0.9" opacity="0.18" />
  <line x1="412.2" y1="394.7" x2="439.6" y2="428.5" stroke="#bcc3cd" stroke-width="1.3" opacity="0.41" />
  <line x1="412.2" y1="394.7" x2="434.6" y2="415.8" stroke="#bcc3cd" stroke-width="1.0" opacity="0.22" />
  <line x1="412.2" y1="394.7" x2="445.3" y2="437.2" stroke="#bcc3cd" stroke-width="1.1" opacity="0.31" />
  <line x1="412.2" y1="394.7" x2="427.9" y2="402.8" stroke="#bcc3cd" stroke-width="1.7" opacity="0.66" />
  <line x1="485.2" y1="441.4" x2="504.0" y2="439.3" stroke="#bcc3cd" stroke-width="1.5" opacity="0.55" />
  <line x1="485.2" y1="441.4" x2="457.7" y2="467.8" stroke="#bcc3cd" stroke-width="0.9" opacity="0.18" />
  <line x1="485.2" y1="441.4" x2="460.5" y2="455.8" stroke="#bcc3cd" stroke-width="1.1" opacity="0.28" />
  <line x1="485.2" y1="441.4" x2="439.6" y2="428.5" stroke="#bcc3cd" stroke-width="0.9" opacity="0.18" />
  <line x1="485.2" y1="441.4" x2="445.3" y2="437.2" stroke="#bcc3cd" stroke-width="1.1" opacity="0.28" />
  <line x1="485.2" y1="441.4" x2="496.2" y2="450.5" stroke="#bcc3cd" stroke-width="1.5" opacity="0.55" />
  <line x1="485.2" y1="441.4" x2="476.4" y2="416.6" stroke="#bcc3cd" stroke-width="1.2" opacity="0.37" />
  <line x1="485.2" y1="441.4" x2="512.7" y2="450.1" stroke="#bcc3cd" stroke-width="1.5" opacity="0.55" />
  <line x1="485.2" y1="441.4" x2="448.1" y2="454.0" stroke="#bcc3cd" stroke-width="1.5" opacity="0.55" />
  <line x1="504.0" y1="439.3" x2="460.5" y2="455.8" stroke="#bcc3cd" stroke-width="1.0" opacity="0.22" />
  <line x1="504.0" y1="439.3" x2="445.3" y2="437.2" stroke="#bcc3cd" stroke-width="1.0" opacity="0.22" />
  <line x1="504.0" y1="439.3" x2="496.2" y2="450.5" stroke="#bcc3cd" stroke-width="1.2" opacity="0.37" />
  <line x1="504.0" y1="439.3" x2="476.4" y2="416.6" stroke="#bcc3cd" stroke-width="1.1" opacity="0.28" />
  <line x1="504.0" y1="439.3" x2="512.7" y2="450.1" stroke="#bcc3cd" stroke-width="1.2" opacity="0.37" />
  <line x1="504.0" y1="439.3" x2="448.1" y2="454.0" stroke="#bcc3cd" stroke-width="1.2" opacity="0.37" />
  <line x1="426.9" y1="386.9" x2="439.6" y2="428.5" stroke="#bcc3cd" stroke-width="0.9" opacity="0.18" />
  <line x1="426.9" y1="386.9" x2="434.6" y2="415.8" stroke="#bcc3cd" stroke-width="0.9" opacity="0.18" />
  <line x1="426.9" y1="386.9" x2="445.3" y2="437.2" stroke="#bcc3cd" stroke-width="1.0" opacity="0.22" />
  <line x1="426.9" y1="386.9" x2="427.9" y2="402.8" stroke="#bcc3cd" stroke-width="1.3" opacity="0.41" />
  <line x1="398.6" y1="415.9" x2="422.6" y2="434.8" stroke="#bcc3cd" stroke-width="1.1" opacity="0.31" />
  <line x1="398.6" y1="415.9" x2="439.6" y2="428.5" stroke="#bcc3cd" stroke-width="1.4" opacity="0.47" />
  <line x1="398.6" y1="415.9" x2="434.6" y2="415.8" stroke="#bcc3cd" stroke-width="0.9" opacity="0.19" />
  <line x1="398.6" y1="415.9" x2="445.3" y2="437.2" stroke="#bcc3cd" stroke-width="1.0" opacity="0.22" />
  <line x1="422.6" y1="434.8" x2="429.7" y2="453.5" stroke="#bcc3cd" stroke-width="1.1" opacity="0.29" />
  <line x1="422.6" y1="434.8" x2="457.7" y2="467.8" stroke="#bcc3cd" stroke-width="0.9" opacity="0.17" />
  <line x1="422.6" y1="434.8" x2="460.5" y2="455.8" stroke="#bcc3cd" stroke-width="0.9" opacity="0.20" />
  <line x1="422.6" y1="434.8" x2="439.6" y2="428.5" stroke="#bcc3cd" stroke-width="1.3" opacity="0.40" />
  <line x1="422.6" y1="434.8" x2="434.6" y2="415.8" stroke="#bcc3cd" stroke-width="1.0" opacity="0.24" />
  <line x1="422.6" y1="434.8" x2="445.3" y2="437.2" stroke="#bcc3cd" stroke-width="0.9" opacity="0.20" />
  <line x1="422.6" y1="434.8" x2="448.1" y2="454.0" stroke="#bcc3cd" stroke-width="1.0" opacity="0.24" />
  <line x1="429.7" y1="453.5" x2="460.5" y2="455.8" stroke="#bcc3cd" stroke-width="0.9" opacity="0.18" />
  <line x1="429.7" y1="453.5" x2="434.6" y2="415.8" stroke="#bcc3cd" stroke-width="1.0" opacity="0.23" />
  <line x1="429.7" y1="453.5" x2="445.3" y2="437.2" stroke="#bcc3cd" stroke-width="0.9" opacity="0.18" />
  <line x1="429.7" y1="453.5" x2="474.7" y2="458.0" stroke="#bcc3cd" stroke-width="1.0" opacity="0.24" />
  <line x1="429.7" y1="453.5" x2="448.1" y2="454.0" stroke="#bcc3cd" stroke-width="1.0" opacity="0.22" />
  <line x1="457.7" y1="467.8" x2="460.5" y2="455.8" stroke="#bcc3cd" stroke-width="1.1" opacity="0.28" />
  <line x1="457.7" y1="467.8" x2="439.6" y2="428.5" stroke="#bcc3cd" stroke-width="1.0" opacity="0.22" />
  <line x1="457.7" y1="467.8" x2="445.3" y2="437.2" stroke="#bcc3cd" stroke-width="1.1" opacity="0.28" />
  <line x1="457.7" y1="467.8" x2="474.7" y2="458.0" stroke="#bcc3cd" stroke-width="0.9" opacity="0.20" />
  <line x1="457.7" y1="467.8" x2="448.1" y2="454.0" stroke="#bcc3cd" stroke-width="1.2" opacity="0.37" />
  <line x1="460.5" y1="455.8" x2="439.6" y2="428.5" stroke="#bcc3cd" stroke-width="1.1" opacity="0.28" />
  <line x1="460.5" y1="455.8" x2="445.3" y2="437.2" stroke="#bcc3cd" stroke-width="1.2" opacity="0.37" />
  <line x1="460.5" y1="455.8" x2="496.2" y2="450.5" stroke="#bcc3cd" stroke-width="1.0" opacity="0.22" />
  <line x1="460.5" y1="455.8" x2="474.7" y2="458.0" stroke="#bcc3cd" stroke-width="1.0" opacity="0.24" />
  <line x1="460.5" y1="455.8" x2="476.4" y2="416.6" stroke="#bcc3cd" stroke-width="0.9" opacity="0.18" />
  <line x1="460.5" y1="455.8" x2="512.7" y2="450.1" stroke="#bcc3cd" stroke-width="1.0" opacity="0.22" />
  <line x1="460.5" y1="455.8" x2="448.1" y2="454.0" stroke="#bcc3cd" stroke-width="1.5" opacity="0.55" />
  <line x1="439.6" y1="428.5" x2="434.6" y2="415.8" stroke="#bcc3cd" stroke-width="1.1" opacity="0.29" />
  <line x1="439.6" y1="428.5" x2="445.3" y2="437.2" stroke="#bcc3cd" stroke-width="1.4" opacity="0.47" />
  <line x1="439.6" y1="428.5" x2="474.7" y2="458.0" stroke="#bcc3cd" stroke-width="0.9" opacity="0.20" />
  <line x1="439.6" y1="428.5" x2="427.9" y2="402.8" stroke="#bcc3cd" stroke-width="1.1" opacity="0.31" />
  <line x1="439.6" y1="428.5" x2="476.4" y2="416.6" stroke="#bcc3cd" stroke-width="1.1" opacity="0.31" />
  <line x1="439.6" y1="428.5" x2="448.1" y2="454.0" stroke="#bcc3cd" stroke-width="1.2" opacity="0.37" />
  <line x1="434.6" y1="415.8" x2="445.3" y2="437.2" stroke="#bcc3cd" stroke-width="1.2" opacity="0.34" />
  <line x1="434.6" y1="415.8" x2="427.9" y2="402.8" stroke="#bcc3cd" stroke-width="1.0" opacity="0.25" />
  <line x1="434.6" y1="415.8" x2="476.4" y2="416.6" stroke="#bcc3cd" stroke-width="1.0" opacity="0.25" />
  <line x1="434.6" y1="415.8" x2="448.1" y2="454.0" stroke="#bcc3cd" stroke-width="0.9" opacity="0.17" />
  <line x1="445.3" y1="437.2" x2="496.2" y2="450.5" stroke="#bcc3cd" stroke-width="1.0" opacity="0.22" />
  <line x1="445.3" y1="437.2" x2="474.7" y2="458.0" stroke="#bcc3cd" stroke-width="1.0" opacity="0.24" />
  <line x1="445.3" y1="437.2" x2="427.9" y2="402.8" stroke="#bcc3cd" stroke-width="1.3" opacity="0.44" />
  <line x1="445.3" y1="437.2" x2="476.4" y2="416.6" stroke="#bcc3cd" stroke-width="1.3" opacity="0.44" />
  <line x1="445.3" y1="437.2" x2="512.7" y2="450.1" stroke="#bcc3cd" stroke-width="1.0" opacity="0.22" />
  <line x1="445.3" y1="437.2" x2="448.1" y2="454.0" stroke="#bcc3cd" stroke-width="1.5" opacity="0.55" />
  <line x1="904.7" y1="357.9" x2="910.0" y2="334.3" stroke="#bcc3cd" stroke-width="1.0" opacity="0.22" />
  <line x1="515.9" y1="497.6" x2="448.1" y2="454.0" stroke="#bcc3cd" stroke-width="1.0" opacity="0.22" />
  <line x1="496.2" y1="450.5" x2="476.4" y2="416.6" stroke="#bcc3cd" stroke-width="1.1" opacity="0.28" />
  <line x1="496.2" y1="450.5" x2="512.7" y2="450.1" stroke="#bcc3cd" stroke-width="1.2" opacity="0.37" />
  <line x1="496.2" y1="450.5" x2="448.1" y2="454.0" stroke="#bcc3cd" stroke-width="1.2" opacity="0.37" />
  <line x1="728.3" y1="500.0" x2="744.0" y2="486.1" stroke="#bcc3cd" stroke-width="1.5" opacity="0.55" />
  <line x1="728.3" y1="500.0" x2="673.4" y2="487.1" stroke="#bcc3cd" stroke-width="1.3" opacity="0.41" />
  <line x1="744.0" y1="486.1" x2="673.4" y2="487.1" stroke="#bcc3cd" stroke-width="1.0" opacity="0.24" />
  <line x1="474.7" y1="458.0" x2="448.1" y2="454.0" stroke="#bcc3cd" stroke-width="1.1" opacity="0.31" />
  <line x1="427.9" y1="402.8" x2="476.4" y2="416.6" stroke="#bcc3cd" stroke-width="1.0" opacity="0.22" />
  <line x1="476.4" y1="416.6" x2="441.1" y2="375.0" stroke="#bcc3cd" stroke-width="1.2" opacity="0.37" />
  <line x1="476.4" y1="416.6" x2="492.3" y2="354.7" stroke="#bcc3cd" stroke-width="0.9" opacity="0.18" />
  <line x1="476.4" y1="416.6" x2="512.7" y2="450.1" stroke="#bcc3cd" stroke-width="1.1" opacity="0.28" />
  <line x1="476.4" y1="416.6" x2="448.1" y2="454.0" stroke="#bcc3cd" stroke-width="1.1" opacity="0.28" />
  <line x1="441.1" y1="375.0" x2="492.3" y2="354.7" stroke="#bcc3cd" stroke-width="1.1" opacity="0.28" />
  <line x1="512.7" y1="450.1" x2="575.2" y2="466.4" stroke="#bcc3cd" stroke-width="1.1" opacity="0.31" />
  <line x1="512.7" y1="450.1" x2="448.1" y2="454.0" stroke="#bcc3cd" stroke-width="1.2" opacity="0.37" />
  <circle cx="354.1" cy="414.5" r="16" fill="#3498db" opacity="0.88" />
  <circle cx="337.8" cy="460.2" r="8.6" fill="#3498db" opacity="0.88" />
  <circle cx="281.9" cy="455.7" r="11.3" fill="#3498db" opacity="0.88" />
  <circle cx="361.0" cy="434.1" r="8.6" fill="#2ecc71" opacity="0.88" />
  <circle cx="370.0" cy="473.7" r="14.9" fill="#7f8c8d" opacity="0.88" />
  <circle cx="331.1" cy="483.8" r="16" fill="#7f8c8d" opacity="0.88" />
  <circle cx="381.2" cy="450.0" r="15.8" fill="#7f8c8d" opacity="0.88" />
  <circle cx="279.4" cy="481.9" r="9.5" fill="#7f8c8d" opacity="0.88" />
  <circle cx="340.7" cy="448.4" r="14.9" fill="#3498db" opacity="0.88" />
  <circle cx="389.5" cy="430.9" r="16" fill="#7f8c8d" opacity="0.88" />
  <circle cx="396.8" cy="452.5" r="12.2" fill="#e67e22" opacity="0.88" />
  <circle cx="371.0" cy="392.6" r="16" fill="#e74c3c" opacity="0.88" />
  <circle cx="453.0" cy="391.2" r="16" fill="#9b59b6" opacity="0.88" />
  <circle cx="441.3" cy="486.0" r="13.1" fill="#e67e22" opacity="0.88" />
  <circle cx="395.4" cy="470.3" r="14.0" fill="#3498db" opacity="0.88" />
  <circle cx="398.5" cy="460.4" r="12.2" fill="#3498db" opacity="0.88" />
  <circle cx="408.6" cy="475.7" r="14.0" fill="#3498db" opacity="0.88" />
  <circle cx="583.3" cy="487.8" r="10.4" fill="#e74c3c" opacity="0.88" />
  <circle cx="489.7" cy="50.0" r="12.2" fill="#3498db" opacity="0.88" />
  <circle cx="526.6" cy="464.0" r="10.4" fill="#e74c3c" opacity="0.88" />
  <circle cx="50.0" cy="328.8" r="12.2" fill="#3498db" opacity="0.88" />
  <circle cx="56.9" cy="345.1" r="11.3" fill="#3498db" opacity="0.88" />
  <circle cx="439.9" cy="303.2" r="5.9" fill="#3498db" opacity="0.88" />
  <circle cx="455.8" cy="404.2" r="12.2" fill="#9b59b6" opacity="0.88" />
  <circle cx="416.2" cy="418.7" r="15.8" fill="#9b59b6" opacity="0.88" />
  <circle cx="412.2" cy="394.7" r="8.6" fill="#9b59b6" opacity="0.88" />
  <circle cx="485.2" cy="441.4" r="5" fill="#2ecc71" opacity="0.88" />
  <circle cx="504.0" cy="439.3" r="5.9" fill="#7f8c8d" opacity="0.88" />
  <circle cx="426.9" cy="386.9" r="11.3" fill="#e67e22" opacity="0.88" />
  <circle cx="398.6" cy="415.9" r="16" fill="#2ecc71" opacity="0.88" />
  <circle cx="472.9" cy="252.2" r="6.8" fill="#9b59b6" opacity="0.88" />
  <circle cx="831.6" cy="172.8" r="5" fill="#7f8c8d" opacity="0.88" />
  <circle cx="422.6" cy="434.8" r="12.2" fill="#3498db" opacity="0.88" />
  <circle cx="429.7" cy="453.5" r="13.1" fill="#7f8c8d" opacity="0.88" />
  <circle cx="457.7" cy="467.8" r="9.5" fill="#7f8c8d" opacity="0.88" />
  <circle cx="722.0" cy="98.8" r="5" fill="#7f8c8d" opacity="0.88" />
  <circle cx="460.5" cy="455.8" r="7.7" fill="#7f8c8d" opacity="0.88" />
  <circle cx="439.6" cy="428.5" r="9.5" fill="#7f8c8d" opacity="0.88" />
  <circle cx="434.6" cy="415.8" r="15.8" fill="#2ecc71" opacity="0.88" />
  <circle cx="445.3" cy="437.2" r="7.7" fill="#7f8c8d" opacity="0.88" />
  <circle cx="904.7" cy="357.9" r="7.7" fill="#7f8c8d" opacity="0.88" />
  <circle cx="515.9" cy="497.6" r="7.7" fill="#3498db" opacity="0.88" />
  <circle cx="496.2" cy="450.5" r="5.9" fill="#7f8c8d" opacity="0.88" />
  <circle cx="728.3" cy="500.0" r="6.8" fill="#e67e22" opacity="0.88" />
  <circle cx="744.0" cy="486.1" r="6.8" fill="#e67e22" opacity="0.88" />
  <circle cx="474.7" cy="458.0" r="10.4" fill="#7f8c8d" opacity="0.88" />
  <circle cx="673.4" cy="487.1" r="11.3" fill="#e67e22" opacity="0.88" />
  <circle cx="910.0" cy="334.3" r="5.9" fill="#7f8c8d" opacity="0.88" />
  <circle cx="427.9" cy="402.8" r="6.8" fill="#7f8c8d" opacity="0.88" />
  <circle cx="476.4" cy="416.6" r="6.8" fill="#7f8c8d" opacity="0.88" />
  <circle cx="441.1" cy="375.0" r="5" fill="#2ecc71" opacity="0.88" />
  <circle cx="492.3" cy="354.7" r="7.7" fill="#2ecc71" opacity="0.88" />
  <circle cx="512.7" cy="450.1" r="5.9" fill="#e74c3c" opacity="0.88" />
  <circle cx="575.2" cy="466.4" r="10.4" fill="#e74c3c" opacity="0.88" />
  <circle cx="448.1" cy="454.0" r="5.9" fill="#7f8c8d" opacity="0.88" />
  <circle cx="349.6" cy="62.9" r="5" fill="#7f8c8d" opacity="0.88" />
  <rect x="372.1" y="392.9" width="117.2" height="15" fill="#ffffff" opacity="0.75" rx="2" />
  <text x="373.1" y="403.9" font-family="system-ui, -apple-system, sans-serif" font-size="12" fill="#1f2328" text-anchor="start">GloriousFlywheel</text>
  <rect x="348.4" y="441.8" width="16.4" height="15" fill="#ffffff" opacity="0.75" rx="2" />
  <text x="349.4" y="452.8" font-family="system-ui, -apple-system, sans-serif" font-size="12" fill="#1f2328" text-anchor="start">pp</text>
  <rect x="295.2" y="416.2" width="117.2" height="15" fill="#ffffff" opacity="0.75" rx="2" />
  <text x="296.2" y="427.2" font-family="system-ui, -apple-system, sans-serif" font-size="12" fill="#1f2328" text-anchor="start">tinyland-cleanup</text>
  <rect x="371.6" y="378.0" width="59.6" height="15" fill="#ffffff" opacity="0.75" rx="2" />
  <text x="372.6" y="389.0" font-family="system-ui, -apple-system, sans-serif" font-size="12" fill="#1f2328" text-anchor="start">gnucashr</text>
  <rect x="386.9" y="509.4" width="81.2" height="15" fill="#ffffff" opacity="0.75" rx="2" />
  <text x="387.9" y="520.4" font-family="system-ui, -apple-system, sans-serif" font-size="12" fill="#1f2328" text-anchor="start">tailnet-acl</text>
  <rect x="349.1" y="580.3" width="74.0" height="15" fill="#ffffff" opacity="0.75" rx="2" />
  <text x="350.1" y="591.3" font-family="system-ui, -apple-system, sans-serif" font-size="12" fill="#1f2328" text-anchor="start">tummycrypt</text>
  <rect x="399.0" y="551.7" width="124.4" height="15" fill="#ffffff" opacity="0.75" rx="2" />
  <text x="400.0" y="562.7" font-family="system-ui, -apple-system, sans-serif" font-size="12" fill="#1f2328" text-anchor="start">tinyland-huskycat</text>
  <rect x="290.9" y="485.3" width="88.4" height="15" fill="#ffffff" opacity="0.75" rx="2" />
  <text x="291.9" y="496.3" font-family="system-ui, -apple-system, sans-serif" font-size="12" fill="#1f2328" text-anchor="start">waifu-mirror</text>
  <rect x="357.6" y="469.5" width="102.8" height="15" fill="#ffffff" opacity="0.75" rx="2" />
  <text x="358.6" y="480.5" font-family="system-ui, -apple-system, sans-serif" font-size="12" fill="#1f2328" text-anchor="start">tinyland-infra</text>
  <rect x="407.5" y="464.1" width="52.4" height="15" fill="#ffffff" opacity="0.75" rx="2" />
  <text x="408.5" y="475.1" font-family="system-ui, -apple-system, sans-serif" font-size="12" fill="#1f2328" text-anchor="start">LA-Mesh</text>
  <rect x="411.0" y="482.0" width="45.2" height="15" fill="#ffffff" opacity="0.75" rx="2" />
  <text x="412.0" y="493.0" font-family="system-ui, -apple-system, sans-serif" font-size="12" fill="#1f2328" text-anchor="start">XoxdWM</text>
  <rect x="389.0" y="303.7" width="131.6" height="15" fill="#ffffff" opacity="0.75" rx="2" />
  <text x="390.0" y="314.7" font-family="system-ui, -apple-system, sans-serif" font-size="12" fill="#1f2328" text-anchor="start">pixelwise-research</text>
  <rect x="471.0" y="312.2" width="95.6" height="15" fill="#ffffff" opacity="0.75" rx="2" />
  <text x="472.0" y="323.2" font-family="system-ui, -apple-system, sans-serif" font-size="12" fill="#1f2328" text-anchor="start">GIS_Shortcuts</text>
  <rect x="456.4" y="484.3" width="110.0" height="15" fill="#ffffff" opacity="0.75" rx="2" />
  <text x="457.4" y="495.3" font-family="system-ui, -apple-system, sans-serif" font-size="12" fill="#1f2328" text-anchor="start">hiberpower-ntfs</text>
  <rect x="411.4" y="538.0" width="138.8" height="15" fill="#ffffff" opacity="0.75" rx="2" />
  <text x="412.4" y="549.0" font-family="system-ui, -apple-system, sans-serif" font-size="12" fill="#1f2328" text-anchor="start">Ansible-DAG-Harness</text>
  <rect x="412.7" y="565.8" width="66.8" height="15" fill="#ffffff" opacity="0.75" rx="2" />
  <text x="413.7" y="576.8" font-family="system-ui, -apple-system, sans-serif" font-size="12" fill="#1f2328" text-anchor="start">betterkvm</text>
  <rect x="424.6" y="422.3" width="95.6" height="15" fill="#ffffff" opacity="0.75" rx="2" />
  <text x="425.6" y="433.3" font-family="system-ui, -apple-system, sans-serif" font-size="12" fill="#1f2328" text-anchor="start">DarwinNicUtil</text>
  <rect x="595.7" y="514.6" width="66.8" height="15" fill="#ffffff" opacity="0.75" rx="2" />
  <text x="596.7" y="525.6" font-family="system-ui, -apple-system, sans-serif" font-size="12" fill="#1f2328" text-anchor="start">quickchpl</text>
  <rect x="503.9" y="43.2" width="131.6" height="15" fill="#ffffff" opacity="0.75" rx="2" />
  <text x="504.9" y="54.2" font-family="system-ui, -apple-system, sans-serif" font-size="12" fill="#1f2328" text-anchor="start">tinyscale-mikrotik</text>
  <rect x="539.0" y="499.5" width="59.6" height="15" fill="#ffffff" opacity="0.75" rx="2" />
  <text x="540.0" y="510.5" font-family="system-ui, -apple-system, sans-serif" font-size="12" fill="#1f2328" text-anchor="start">aoc-2025</text>
  <rect x="64.2" y="322.0" width="66.8" height="15" fill="#ffffff" opacity="0.75" rx="2" />
  <text x="65.2" y="333.0" font-family="system-ui, -apple-system, sans-serif" font-size="12" fill="#1f2328" text-anchor="start">searchies</text>
  <rect x="70.2" y="338.3" width="59.6" height="15" fill="#ffffff" opacity="0.75" rx="2" />
  <text x="71.2" y="349.3" font-family="system-ui, -apple-system, sans-serif" font-size="12" fill="#1f2328" text-anchor="start">ts-caddy</text>
  <rect x="447.8" y="244.1" width="66.8" height="15" fill="#ffffff" opacity="0.75" rx="2" />
  <text x="448.8" y="255.1" font-family="system-ui, -apple-system, sans-serif" font-size="12" fill="#1f2328" text-anchor="start">HCI-notes</text>
  <rect x="470.0" y="357.1" width="88.4" height="15" fill="#ffffff" opacity="0.75" rx="2" />
  <text x="471.0" y="368.1" font-family="system-ui, -apple-system, sans-serif" font-size="12" fill="#1f2328" text-anchor="start">FastPhotoAPI</text>
  <rect x="434.0" y="425.8" width="81.2" height="15" fill="#ffffff" opacity="0.75" rx="2" />
  <text x="435.0" y="436.8" font-family="system-ui, -apple-system, sans-serif" font-size="12" fill="#1f2328" text-anchor="start">timberbuddy</text>
  <rect x="422.8" y="453.5" width="81.2" height="15" fill="#ffffff" opacity="0.75" rx="2" />
  <text x="423.8" y="464.5" font-family="system-ui, -apple-system, sans-serif" font-size="12" fill="#1f2328" text-anchor="start">tetrahedron</text>
  <rect x="492.2" y="403.3" width="95.6" height="15" fill="#ffffff" opacity="0.75" rx="2" />
  <text x="493.2" y="414.3" font-family="system-ui, -apple-system, sans-serif" font-size="12" fill="#1f2328" text-anchor="start">AccuWixReport</text>
  <rect x="511.9" y="388.7" width="95.6" height="15" fill="#ffffff" opacity="0.75" rx="2" />
  <text x="512.9" y="399.7" font-family="system-ui, -apple-system, sans-serif" font-size="12" fill="#1f2328" text-anchor="start">Jess-AOC-2023</text>
  <rect x="440.2" y="323.9" width="81.2" height="15" fill="#ffffff" opacity="0.75" rx="2" />
  <text x="441.2" y="334.9" font-family="system-ui, -apple-system, sans-serif" font-size="12" fill="#1f2328" text-anchor="start">TurkeyProbe</text>
  <rect x="416.6" y="524.7" width="153.2" height="15" fill="#ffffff" opacity="0.75" rx="2" />
  <text x="417.6" y="535.7" font-family="system-ui, -apple-system, sans-serif" font-size="12" fill="#1f2328" text-anchor="start">MerlinAI-Interpreters</text>
  <rect x="481.7" y="229.6" width="110.0" height="15" fill="#ffffff" opacity="0.75" rx="2" />
  <text x="482.7" y="240.6" font-family="system-ui, -apple-system, sans-serif" font-size="12" fill="#1f2328" text-anchor="start">IntroTypeScript</text>
  <rect x="714.6" y="166.0" width="110.0" height="15" fill="#ffffff" opacity="0.75" rx="2" />
  <text x="823.6" y="177.0" font-family="system-ui, -apple-system, sans-serif" font-size="12" fill="#1f2328" text-anchor="end">IG-3DP-Profiles</text>
  <rect x="436.8" y="384.5" width="66.8" height="15" fill="#ffffff" opacity="0.75" rx="2" />
  <text x="437.8" y="395.5" font-family="system-ui, -apple-system, sans-serif" font-size="12" fill="#1f2328" text-anchor="start">DLA-Flask</text>
  <rect x="444.8" y="405.3" width="38.0" height="15" fill="#ffffff" opacity="0.75" rx="2" />
  <text x="445.8" y="416.3" font-family="system-ui, -apple-system, sans-serif" font-size="12" fill="#1f2328" text-anchor="start">USBoN</text>
  <rect x="469.2" y="580.3" width="203.6" height="15" fill="#ffffff" opacity="0.75" rx="2" />
  <text x="470.2" y="591.3" font-family="system-ui, -apple-system, sans-serif" font-size="12" fill="#1f2328" text-anchor="start">chrome-remote-desktop-budgie</text>
  <rect x="729.0" y="92.0" width="124.4" height="15" fill="#ffffff" opacity="0.75" rx="2" />
  <text x="730.0" y="103.0" font-family="system-ui, -apple-system, sans-serif" font-size="12" fill="#1f2328" text-anchor="start">OminousBeepingApp</text>
  <rect x="470.2" y="466.3" width="138.8" height="15" fill="#ffffff" opacity="0.75" rx="2" />
  <text x="471.2" y="477.3" font-family="system-ui, -apple-system, sans-serif" font-size="12" fill="#1f2328" text-anchor="start">mo-image-identifier</text>
  <rect x="451.1" y="352.2" width="196.4" height="15" fill="#ffffff" opacity="0.75" rx="2" />
  <text x="452.1" y="363.2" font-family="system-ui, -apple-system, sans-serif" font-size="12" fill="#1f2328" text-anchor="start">squirrel-leaflet-annotation</text>
  <rect x="452.4" y="494.8" width="74.0" height="15" fill="#ffffff" opacity="0.75" rx="2" />
  <text x="453.4" y="505.8" font-family="system-ui, -apple-system, sans-serif" font-size="12" fill="#1f2328" text-anchor="start">Shiny-Apps</text>
  <rect x="455.0" y="275.4" width="138.8" height="15" fill="#ffffff" opacity="0.75" rx="2" />
  <text x="456.0" y="286.4" font-family="system-ui, -apple-system, sans-serif" font-size="12" fill="#1f2328" text-anchor="start">bbox-jest-puppeteer</text>
  <rect x="806.6" y="351.1" width="88.4" height="15" fill="#ffffff" opacity="0.75" rx="2" />
  <text x="894.0" y="362.1" font-family="system-ui, -apple-system, sans-serif" font-size="12" fill="#1f2328" text-anchor="end">DoverDisplay</text>
  <rect x="525.6" y="552.2" width="81.2" height="15" fill="#ffffff" opacity="0.75" rx="2" />
  <text x="526.6" y="563.2" font-family="system-ui, -apple-system, sans-serif" font-size="12" fill="#1f2328" text-anchor="start">LeafletSync</text>
  <rect x="504.1" y="451.0" width="167.6" height="15" fill="#ffffff" opacity="0.75" rx="2" />
  <text x="505.1" y="462.0" font-family="system-ui, -apple-system, sans-serif" font-size="12" fill="#1f2328" text-anchor="start">misc-roi-distance-notes</text>
  <rect x="737.1" y="499.6" width="138.8" height="15" fill="#ffffff" opacity="0.75" rx="2" />
  <text x="738.1" y="510.6" font-family="system-ui, -apple-system, sans-serif" font-size="12" fill="#1f2328" text-anchor="start">Arduino_Coil_Winder</text>
  <rect x="752.8" y="468.1" width="30.8" height="15" fill="#ffffff" opacity="0.75" rx="2" />
  <text x="753.8" y="479.1" font-family="system-ui, -apple-system, sans-serif" font-size="12" fill="#1f2328" text-anchor="start">momo</text>
  <rect x="487.1" y="511.8" width="38.0" height="15" fill="#ffffff" opacity="0.75" rx="2" />
  <text x="488.1" y="522.8" font-family="system-ui, -apple-system, sans-serif" font-size="12" fill="#1f2328" text-anchor="start">clipi</text>
  <rect x="686.7" y="485.1" width="110.0" height="15" fill="#ffffff" opacity="0.75" rx="2" />
  <text x="687.7" y="496.1" font-family="system-ui, -apple-system, sans-serif" font-size="12" fill="#1f2328" text-anchor="start">AeroTaz5_hotfix</text>
  <rect x="792.1" y="327.5" width="110.0" height="15" fill="#ffffff" opacity="0.75" rx="2" />
  <text x="901.1" y="338.5" font-family="system-ui, -apple-system, sans-serif" font-size="12" fill="#1f2328" text-anchor="end">Funmat-HT-Notes</text>
  <rect x="436.7" y="436.5" width="81.2" height="15" fill="#ffffff" opacity="0.75" rx="2" />
  <text x="437.7" y="447.5" font-family="system-ui, -apple-system, sans-serif" font-size="12" fill="#1f2328" text-anchor="start">static-site</text>
  <rect x="485.2" y="335.2" width="95.6" height="15" fill="#ffffff" opacity="0.75" rx="2" />
  <text x="486.2" y="346.2" font-family="system-ui, -apple-system, sans-serif" font-size="12" fill="#1f2328" text-anchor="start">Flask-Manager</text>
  <rect x="448.1" y="289.7" width="110.0" height="15" fill="#ffffff" opacity="0.75" rx="2" />
  <text x="449.1" y="300.7" font-family="system-ui, -apple-system, sans-serif" font-size="12" fill="#1f2328" text-anchor="start">FieldProcessing</text>
  <rect x="502.0" y="258.4" width="81.2" height="15" fill="#ffffff" opacity="0.75" rx="2" />
  <text x="503.0" y="269.4" font-family="system-ui, -apple-system, sans-serif" font-size="12" fill="#1f2328" text-anchor="start">rJDKmanager</text>
  <rect x="520.6" y="430.8" width="59.6" height="15" fill="#ffffff" opacity="0.75" rx="2" />
  <text x="521.6" y="441.8" font-family="system-ui, -apple-system, sans-serif" font-size="12" fill="#1f2328" text-anchor="start">tagnotes</text>
  <rect x="587.6" y="428.9" width="81.2" height="15" fill="#ffffff" opacity="0.75" rx="2" />
  <text x="588.6" y="439.9" font-family="system-ui, -apple-system, sans-serif" font-size="12" fill="#1f2328" text-anchor="start">ChapelTests</text>
  <rect x="456.0" y="367.5" width="88.4" height="15" fill="#ffffff" opacity="0.75" rx="2" />
  <text x="457.0" y="378.5" font-family="system-ui, -apple-system, sans-serif" font-size="12" fill="#1f2328" text-anchor="start">Xfinity-WiFi</text>
  <rect x="356.6" y="56.1" width="66.8" height="15" fill="#ffffff" opacity="0.75" rx="2" />
  <text x="357.6" y="67.1" font-family="system-ui, -apple-system, sans-serif" font-size="12" fill="#1f2328" text-anchor="start">home-wiki</text>
  <rect x="793" y="36" width="155" height="120" rx="6" fill="#f6f8fa" stroke="#d0d7de" stroke-width="1" opacity="0.95" />
  <circle cx="810" cy="52" r="5" fill="#e74c3c" opacity="0.88" />
  <text x="820" y="56" font-family="system-ui, -apple-system, sans-serif" font-size="10" fill="#1f2328">Languages &amp; Compilers</text>
  <circle cx="810" cy="69" r="5" fill="#3498db" opacity="0.88" />
  <text x="820" y="73" font-family="system-ui, -apple-system, sans-serif" font-size="10" fill="#1f2328">Infrastructure &amp; DevOps</text>
  <circle cx="810" cy="86" r="5" fill="#e67e22" opacity="0.88" />
  <text x="820" y="90" font-family="system-ui, -apple-system, sans-serif" font-size="10" fill="#1f2328">Hardware &amp; Maker</text>
  <circle cx="810" cy="103" r="5" fill="#2ecc71" opacity="0.88" />
  <text x="820" y="107" font-family="system-ui, -apple-system, sans-serif" font-size="10" fill="#1f2328">ML &amp; Data</text>
  <circle cx="810" cy="120" r="5" fill="#9b59b6" opacity="0.88" />
  <text x="820" y="124" font-family="system-ui, -apple-system, sans-serif" font-size="10" fill="#1f2328">Web &amp; Apps</text>
  <circle cx="810" cy="137" r="5" fill="#7f8c8d" opacity="0.88" />
  <text x="820" y="141" font-family="system-ui, -apple-system, sans-serif" font-size="10" fill="#1f2328">Other</text>
  <text x="870" y="150" font-family="system-ui, -apple-system, sans-serif" font-size="8" fill="#656d76" text-anchor="middle">56 repos · 223 edges</text>
</svg>