<svg xmlns="http://www.w3.org/2000/svg" width="960" height="600" viewBox="0 0 960 600">
  <rect width="960" height="600" fill="#0d1117" rx="8" />
  <text x="480" y="24" font-family="system-ui, -apple-system, sans-serif" font-size="13" fill="#8b949e" text-anchor="middle" font-weight="500">Repo Relationship Graph &#x2014; Pairwise Topic &amp; Language Similarity</text>
  <line x1="50" y1="550" x2="910" y2="550" stroke="#484f58" stroke-width="0.5" opacity="0.5" />
  <text x="50" y="570" font-family="system-ui, -apple-system, sans-serif" font-size="9" fill="#8b949e" opacity="0.6">Updated daily by GitHub Actions</text>
  <text x="50" y="588" font-family="system-ui, -apple-system, sans-serif" font-size="9" fill="#8b949e" opacity="0.6">networkx spring_layout · Jaccard similarity &gt; 0.15</text>
  <text x="910" y="570" font-family="system-ui, -apple-system, sans-serif" font-size="9" fill="#8b949e" text-anchor="end" opacity="0.6">57 repos · 222 edges</text>
  <line x1="506.7" y1="306.2" x2="495.5" y2="297.2" stroke="#6e7681" stroke-width="1.0" opacity="0.23" />
  <line x1="506.7" y1="306.2" x2="468.5" y2="317.3" stroke="#6e7681" stroke-width="0.9" opacity="0.17" />
  <line x1="506.7" y1="306.2" x2="442.8" y2="319.7" stroke="#6e7681" stroke-width="1.0" opacity="0.22" />
  <line x1="506.7" y1="306.2" x2="494.4" y2="344.7" stroke="#6e7681" stroke-width="0.9" opacity="0.18" />
  <line x1="506.7" y1="306.2" x2="493.0" y2="289.3" stroke="#6e7681" stroke-width="1.0" opacity="0.24" />
  <line x1="506.7" y1="306.2" x2="463.2" y2="306.6" stroke="#6e7681" stroke-width="0.9" opacity="0.21" />
  <line x1="506.7" y1="306.2" x2="491.9" y2="326.3" stroke="#6e7681" stroke-width="0.9" opacity="0.21" />
  <line x1="506.7" y1="306.2" x2="539.5" y2="305.0" stroke="#6e7681" stroke-width="1.1" opacity="0.30" />
  <line x1="506.7" y1="306.2" x2="506.1" y2="289.9" stroke="#6e7681" stroke-width="1.0" opacity="0.22" />
  <line x1="506.7" y1="306.2" x2="478.5" y2="285.3" stroke="#6e7681" stroke-width="1.0" opacity="0.22" />
  <line x1="506.7" y1="306.2" x2="569.9" y2="303.3" stroke="#6e7681" stroke-width="0.9" opacity="0.19" />
  <line x1="506.7" y1="306.2" x2="570.4" y2="278.7" stroke="#6e7681" stroke-width="0.9" opacity="0.21" />
  <line x1="506.7" y1="306.2" x2="555.1" y2="273.0" stroke="#6e7681" stroke-width="1.0" opacity="0.24" />
  <line x1="506.7" y1="306.2" x2="522.5" y2="265.6" stroke="#6e7681" stroke-width="0.9" opacity="0.17" />
  <line x1="549.6" y1="326.1" x2="495.5" y2="297.2" stroke="#6e7681" stroke-width="0.9" opacity="0.18" />
  <line x1="549.6" y1="326.1" x2="491.9" y2="326.3" stroke="#6e7681" stroke-width="1.2" opacity="0.38" />
  <line x1="549.6" y1="326.1" x2="539.5" y2="305.0" stroke="#6e7681" stroke-width="1.2" opacity="0.34" />
  <line x1="549.6" y1="326.1" x2="594.6" y2="322.6" stroke="#6e7681" stroke-width="1.0" opacity="0.25" />
  <line x1="549.6" y1="326.1" x2="581.3" y2="293.7" stroke="#6e7681" stroke-width="0.9" opacity="0.20" />
  <line x1="549.6" y1="326.1" x2="608.2" y2="302.3" stroke="#6e7681" stroke-width="1.0" opacity="0.22" />
  <line x1="495.5" y1="297.2" x2="468.5" y2="317.3" stroke="#6e7681" stroke-width="1.0" opacity="0.25" />
  <line x1="495.5" y1="297.2" x2="481.1" y2="259.0" stroke="#6e7681" stroke-width="0.9" opacity="0.19" />
  <line x1="495.5" y1="297.2" x2="442.8" y2="319.7" stroke="#6e7681" stroke-width="0.9" opacity="0.17" />
  <line x1="495.5" y1="297.2" x2="493.0" y2="289.3" stroke="#6e7681" stroke-width="1.1" opacity="0.29" />
  <line x1="495.5" y1="297.2" x2="463.2" y2="306.6" stroke="#6e7681" stroke-width="1.0" opacity="0.24" />
  <line x1="495.5" y1="297.2" x2="491.9" y2="326.3" stroke="#6e7681" stroke-width="0.9" opacity="0.17" />
  <line x1="495.5" y1="297.2" x2="539.5" y2="305.0" stroke="#6e7681" stroke-width="1.1" opacity="0.28" />
  <line x1="495.5" y1="297.2" x2="506.1" y2="289.9" stroke="#6e7681" stroke-width="1.0" opacity="0.26" />
  <line x1="495.5" y1="297.2" x2="478.5" y2="285.3" stroke="#6e7681" stroke-width="1.0" opacity="0.26" />
  <line x1="495.5" y1="297.2" x2="532.6" y2="260.9" stroke="#6e7681" stroke-width="0.9" opacity="0.18" />
  <line x1="495.5" y1="297.2" x2="555.1" y2="273.0" stroke="#6e7681" stroke-width="1.1" opacity="0.30" />
  <line x1="495.5" y1="297.2" x2="522.5" y2="265.6" stroke="#6e7681" stroke-width="1.0" opacity="0.22" />
  <line x1="468.5" y1="317.3" x2="494.4" y2="344.7" stroke="#6e7681" stroke-width="0.9" opacity="0.20" />
  <line x1="468.5" y1="317.3" x2="493.0" y2="289.3" stroke="#6e7681" stroke-width="0.9" opacity="0.20" />
  <line x1="468.5" y1="317.3" x2="463.2" y2="306.6" stroke="#6e7681" stroke-width="1.0" opacity="0.23" />
  <line x1="468.5" y1="317.3" x2="491.9" y2="326.3" stroke="#6e7681" stroke-width="1.0" opacity="0.23" />
  <line x1="468.5" y1="317.3" x2="506.1" y2="289.9" stroke="#6e7681" stroke-width="1.0" opacity="0.24" />
  <line x1="468.5" y1="317.3" x2="478.5" y2="285.3" stroke="#6e7681" stroke-width="0.9" opacity="0.18" />
  <line x1="481.1" y1="259.0" x2="532.6" y2="260.9" stroke="#6e7681" stroke-width="0.9" opacity="0.18" />
  <line x1="481.1" y1="259.0" x2="555.1" y2="273.0" stroke="#6e7681" stroke-width="1.1" opacity="0.30" />
  <line x1="481.1" y1="259.0" x2="522.5" y2="265.6" stroke="#6e7681" stroke-width="1.0" opacity="0.22" />
  <line x1="442.8" y1="319.7" x2="361.3" y2="337.3" stroke="#6e7681" stroke-width="1.1" opacity="0.33" />
  <line x1="442.8" y1="319.7" x2="494.4" y2="344.7" stroke="#6e7681" stroke-width="0.9" opacity="0.19" />
  <line x1="442.8" y1="319.7" x2="493.0" y2="289.3" stroke="#6e7681" stroke-width="0.9" opacity="0.18" />
  <line x1="442.8" y1="319.7" x2="391.9" y2="320.8" stroke="#6e7681" stroke-width="0.9" opacity="0.18" />
  <line x1="442.8" y1="319.7" x2="384.7" y2="343.0" stroke="#6e7681" stroke-width="1.3" opacity="0.41" />
  <line x1="442.8" y1="319.7" x2="491.9" y2="326.3" stroke="#6e7681" stroke-width="1.0" opacity="0.24" />
  <line x1="442.8" y1="319.7" x2="539.5" y2="305.0" stroke="#6e7681" stroke-width="0.9" opacity="0.19" />
  <line x1="442.8" y1="319.7" x2="522.5" y2="265.6" stroke="#6e7681" stroke-width="0.9" opacity="0.18" />
  <line x1="361.3" y1="337.3" x2="384.7" y2="343.0" stroke="#6e7681" stroke-width="0.9" opacity="0.18" />
  <line x1="494.4" y1="344.7" x2="463.2" y2="306.6" stroke="#6e7681" stroke-width="0.9" opacity="0.19" />
  <line x1="494.4" y1="344.7" x2="491.9" y2="326.3" stroke="#6e7681" stroke-width="0.9" opacity="0.19" />
  <line x1="494.4" y1="344.7" x2="539.5" y2="305.0" stroke="#6e7681" stroke-width="0.9" opacity="0.17" />
  <line x1="494.4" y1="344.7" x2="563.7" y2="382.7" stroke="#6e7681" stroke-width="1.0" opacity="0.22" />
  <line x1="493.0" y1="289.3" x2="463.2" y2="306.6" stroke="#6e7681" stroke-width="1.0" opacity="0.26" />
  <line x1="493.0" y1="289.3" x2="491.9" y2="326.3" stroke="#6e7681" stroke-width="0.9" opacity="0.18" />
  <line x1="493.0" y1="289.3" x2="539.5" y2="305.0" stroke="#6e7681" stroke-width="1.0" opacity="0.22" />
  <line x1="493.0" y1="289.3" x2="506.1" y2="289.9" stroke="#6e7681" stroke-width="1.1" opacity="0.28" />
  <line x1="493.0" y1="289.3" x2="478.5" y2="285.3" stroke="#6e7681" stroke-width="1.1" opacity="0.28" />
  <line x1="493.0" y1="289.3" x2="523.3" y2="254.3" stroke="#6e7681" stroke-width="0.9" opacity="0.17" />
  <line x1="493.0" y1="289.3" x2="532.6" y2="260.9" stroke="#6e7681" stroke-width="0.9" opacity="0.20" />
  <line x1="493.0" y1="289.3" x2="570.4" y2="278.7" stroke="#6e7681" stroke-width="0.9" opacity="0.17" />
  <line x1="493.0" y1="289.3" x2="555.1" y2="273.0" stroke="#6e7681" stroke-width="0.9" opacity="0.20" />
  <line x1="493.0" y1="289.3" x2="522.5" y2="265.6" stroke="#6e7681" stroke-width="1.0" opacity="0.24" />
  <line x1="391.9" y1="320.8" x2="463.2" y2="306.6" stroke="#6e7681" stroke-width="1.2" opacity="0.34" />
  <line x1="391.9" y1="320.8" x2="384.7" y2="343.0" stroke="#6e7681" stroke-width="0.9" opacity="0.17" />
  <line x1="463.2" y1="306.6" x2="491.9" y2="326.3" stroke="#6e7681" stroke-width="1.0" opacity="0.22" />
  <line x1="463.2" y1="306.6" x2="539.5" y2="305.0" stroke="#6e7681" stroke-width="0.9" opacity="0.19" />
  <line x1="463.2" y1="306.6" x2="506.1" y2="289.9" stroke="#6e7681" stroke-width="1.0" opacity="0.23" />
  <line x1="463.2" y1="306.6" x2="478.5" y2="285.3" stroke="#6e7681" stroke-width="1.0" opacity="0.23" />
  <line x1="463.2" y1="306.6" x2="522.5" y2="265.6" stroke="#6e7681" stroke-width="0.9" opacity="0.18" />
  <line x1="491.9" y1="326.3" x2="539.5" y2="305.0" stroke="#6e7681" stroke-width="0.9" opacity="0.19" />
  <line x1="539.5" y1="305.0" x2="594.6" y2="322.6" stroke="#6e7681" stroke-width="1.2" opacity="0.34" />
  <line x1="539.5" y1="305.0" x2="506.1" y2="289.9" stroke="#6e7681" stroke-width="0.9" opacity="0.20" />
  <line x1="539.5" y1="305.0" x2="478.5" y2="285.3" stroke="#6e7681" stroke-width="0.9" opacity="0.20" />
  <line x1="539.5" y1="305.0" x2="581.3" y2="293.7" stroke="#6e7681" stroke-width="1.2" opacity="0.37" />
  <line x1="539.5" y1="305.0" x2="608.2" y2="302.3" stroke="#6e7681" stroke-width="1.2" opacity="0.37" />
  <line x1="539.5" y1="305.0" x2="569.9" y2="303.3" stroke="#6e7681" stroke-width="1.1" opacity="0.29" />
  <line x1="539.5" y1="305.0" x2="558.9" y2="285.8" stroke="#6e7681" stroke-width="1.0" opacity="0.22" />
  <line x1="539.5" y1="305.0" x2="570.4" y2="278.7" stroke="#6e7681" stroke-width="1.2" opacity="0.34" />
  <line x1="539.5" y1="305.0" x2="591.7" y2="280.3" stroke="#6e7681" stroke-width="1.0" opacity="0.24" />
  <line x1="539.5" y1="305.0" x2="555.1" y2="273.0" stroke="#6e7681" stroke-width="1.1" opacity="0.29" />
  <line x1="539.5" y1="305.0" x2="605.0" y2="287.2" stroke="#6e7681" stroke-width="1.0" opacity="0.22" />
  <line x1="594.6" y1="322.6" x2="581.3" y2="293.7" stroke="#6e7681" stroke-width="1.0" opacity="0.25" />
  <line x1="594.6" y1="322.6" x2="608.2" y2="302.3" stroke="#6e7681" stroke-width="1.1" opacity="0.29" />
  <line x1="594.6" y1="322.6" x2="605.0" y2="287.2" stroke="#6e7681" stroke-width="0.9" opacity="0.17" />
  <line x1="631.7" y1="292.5" x2="581.3" y2="293.7" stroke="#6e7681" stroke-width="0.9" opacity="0.18" />
  <line x1="631.7" y1="292.5" x2="608.2" y2="302.3" stroke="#6e7681" stroke-width="0.9" opacity="0.18" />
  <line x1="631.7" y1="292.5" x2="570.4" y2="278.7" stroke="#6e7681" stroke-width="0.9" opacity="0.17" />
  <line x1="631.7" y1="292.5" x2="591.7" y2="280.3" stroke="#6e7681" stroke-width="1.3" opacity="0.42" />
  <line x1="631.7" y1="292.5" x2="555.1" y2="273.0" stroke="#6e7681" stroke-width="0.9" opacity="0.19" />
  <line x1="631.7" y1="292.5" x2="605.0" y2="287.2" stroke="#6e7681" stroke-width="0.9" opacity="0.21" />
  <line x1="506.1" y1="289.9" x2="478.5" y2="285.3" stroke="#6e7681" stroke-width="1.0" opacity="0.24" />
  <line x1="506.1" y1="289.9" x2="558.9" y2="285.8" stroke="#6e7681" stroke-width="0.9" opacity="0.19" />
  <line x1="506.1" y1="289.9" x2="539.3" y2="279.4" stroke="#6e7681" stroke-width="0.9" opacity="0.18" />
  <line x1="506.1" y1="289.9" x2="532.6" y2="260.9" stroke="#6e7681" stroke-width="0.9" opacity="0.17" />
  <line x1="506.1" y1="289.9" x2="555.1" y2="273.0" stroke="#6e7681" stroke-width="0.9" opacity="0.17" />
  <line x1="506.1" y1="289.9" x2="522.5" y2="265.6" stroke="#6e7681" stroke-width="0.9" opacity="0.20" />
  <line x1="478.5" y1="285.3" x2="532.6" y2="260.9" stroke="#6e7681" stroke-width="0.9" opacity="0.17" />
  <line x1="478.5" y1="285.3" x2="555.1" y2="273.0" stroke="#6e7681" stroke-width="0.9" opacity="0.17" />
  <line x1="478.5" y1="285.3" x2="522.5" y2="265.6" stroke="#6e7681" stroke-width="0.9" opacity="0.20" />
  <line x1="614.0" y1="213.8" x2="580.0" y2="252.1" stroke="#6e7681" stroke-width="1.3" opacity="0.44" />
  <line x1="614.0" y1="213.8" x2="583.8" y2="206.3" stroke="#6e7681" stroke-width="0.9" opacity="0.18" />
  <line x1="580.0" y1="252.1" x2="546.7" y2="235.9" stroke="#6e7681" stroke-width="1.1" opacity="0.31" />
  <line x1="580.0" y1="252.1" x2="523.3" y2="254.3" stroke="#6e7681" stroke-width="0.9" opacity="0.20" />
  <line x1="580.0" y1="252.1" x2="532.6" y2="260.9" stroke="#6e7681" stroke-width="1.0" opacity="0.24" />
  <line x1="580.0" y1="252.1" x2="570.4" y2="278.7" stroke="#6e7681" stroke-width="0.9" opacity="0.20" />
  <line x1="580.0" y1="252.1" x2="555.1" y2="273.0" stroke="#6e7681" stroke-width="1.0" opacity="0.24" />
  <line x1="580.0" y1="252.1" x2="560.3" y2="259.4" stroke="#6e7681" stroke-width="0.9" opacity="0.18" />
  <line x1="580.0" y1="252.1" x2="600.2" y2="349.8" stroke="#6e7681" stroke-width="0.9" opacity="0.17" />
  <line x1="580.0" y1="252.1" x2="560.1" y2="232.8" stroke="#6e7681" stroke-width="1.1" opacity="0.31" />
  <line x1="580.0" y1="252.1" x2="583.8" y2="206.3" stroke="#6e7681" stroke-width="1.1" opacity="0.30" />
  <line x1="580.0" y1="252.1" x2="522.5" y2="265.6" stroke="#6e7681" stroke-width="1.1" opacity="0.31" />
  <line x1="221.1" y1="495.5" x2="246.1" y2="500.0" stroke="#6e7681" stroke-width="1.6" opacity="0.60" />
  <line x1="738.0" y1="334.1" x2="608.2" y2="302.3" stroke="#6e7681" stroke-width="0.9" opacity="0.18" />
  <line x1="738.0" y1="334.1" x2="810.8" y2="351.7" stroke="#6e7681" stroke-width="1.1" opacity="0.28" />
  <line x1="614.4" y1="271.0" x2="581.3" y2="293.7" stroke="#6e7681" stroke-width="0.9" opacity="0.17" />
  <line x1="614.4" y1="271.0" x2="608.2" y2="302.3" stroke="#6e7681" stroke-width="0.9" opacity="0.18" />
  <line x1="614.4" y1="271.0" x2="558.9" y2="285.8" stroke="#6e7681" stroke-width="1.0" opacity="0.22" />
  <line x1="614.4" y1="271.0" x2="570.4" y2="278.7" stroke="#6e7681" stroke-width="1.1" opacity="0.28" />
  <line x1="614.4" y1="271.0" x2="591.7" y2="280.3" stroke="#6e7681" stroke-width="1.1" opacity="0.32" />
  <line x1="614.4" y1="271.0" x2="555.1" y2="273.0" stroke="#6e7681" stroke-width="0.9" opacity="0.20" />
  <line x1="614.4" y1="271.0" x2="605.0" y2="287.2" stroke="#6e7681" stroke-width="1.0" opacity="0.22" />
  <line x1="614.4" y1="271.0" x2="591.4" y2="244.6" stroke="#6e7681" stroke-width="1.0" opacity="0.22" />
  <line x1="581.3" y1="293.7" x2="608.2" y2="302.3" stroke="#6e7681" stroke-width="1.3" opacity="0.42" />
  <line x1="581.3" y1="293.7" x2="633.0" y2="282.5" stroke="#6e7681" stroke-width="0.9" opacity="0.18" />
  <line x1="581.3" y1="293.7" x2="569.9" y2="303.3" stroke="#6e7681" stroke-width="1.1" opacity="0.31" />
  <line x1="581.3" y1="293.7" x2="558.9" y2="285.8" stroke="#6e7681" stroke-width="1.1" opacity="0.32" />
  <line x1="581.3" y1="293.7" x2="539.3" y2="279.4" stroke="#6e7681" stroke-width="1.0" opacity="0.23" />
  <line x1="581.3" y1="293.7" x2="570.4" y2="278.7" stroke="#6e7681" stroke-width="1.2" opacity="0.39" />
  <line x1="581.3" y1="293.7" x2="591.7" y2="280.3" stroke="#6e7681" stroke-width="1.0" opacity="0.26" />
  <line x1="581.3" y1="293.7" x2="555.1" y2="273.0" stroke="#6e7681" stroke-width="1.2" opacity="0.34" />
  <line x1="581.3" y1="293.7" x2="560.3" y2="259.4" stroke="#6e7681" stroke-width="0.9" opacity="0.19" />
  <line x1="581.3" y1="293.7" x2="605.0" y2="287.2" stroke="#6e7681" stroke-width="1.0" opacity="0.25" />
  <line x1="581.3" y1="293.7" x2="522.5" y2="265.6" stroke="#6e7681" stroke-width="0.9" opacity="0.17" />
  <line x1="608.2" y1="302.3" x2="633.0" y2="282.5" stroke="#6e7681" stroke-width="1.1" opacity="0.33" />
  <line x1="608.2" y1="302.3" x2="569.9" y2="303.3" stroke="#6e7681" stroke-width="0.9" opacity="0.21" />
  <line x1="608.2" y1="302.3" x2="558.9" y2="285.8" stroke="#6e7681" stroke-width="0.9" opacity="0.18" />
  <line x1="608.2" y1="302.3" x2="570.4" y2="278.7" stroke="#6e7681" stroke-width="1.3" opacity="0.41" />
  <line x1="608.2" y1="302.3" x2="591.7" y2="280.3" stroke="#6e7681" stroke-width="1.0" opacity="0.22" />
  <line x1="608.2" y1="302.3" x2="555.1" y2="273.0" stroke="#6e7681" stroke-width="1.1" opacity="0.31" />
  <line x1="608.2" y1="302.3" x2="605.0" y2="287.2" stroke="#6e7681" stroke-width="1.7" opacity="0.66" />
  <line x1="546.3" y1="244.7" x2="546.7" y2="235.9" stroke="#6e7681" stroke-width="1.5" opacity="0.55" />
  <line x1="546.3" y1="244.7" x2="523.3" y2="254.3" stroke="#6e7681" stroke-width="0.9" opacity="0.18" />
  <line x1="546.3" y1="244.7" x2="532.6" y2="260.9" stroke="#6e7681" stroke-width="1.1" opacity="0.28" />
  <line x1="546.3" y1="244.7" x2="570.4" y2="278.7" stroke="#6e7681" stroke-width="0.9" opacity="0.18" />
  <line x1="546.3" y1="244.7" x2="555.1" y2="273.0" stroke="#6e7681" stroke-width="1.1" opacity="0.28" />
  <line x1="546.3" y1="244.7" x2="530.2" y2="234.3" stroke="#6e7681" stroke-width="1.5" opacity="0.55" />
  <line x1="546.3" y1="244.7" x2="591.4" y2="244.6" stroke="#6e7681" stroke-width="1.2" opacity="0.37" />
  <line x1="546.3" y1="244.7" x2="560.1" y2="232.8" stroke="#6e7681" stroke-width="1.5" opacity="0.55" />
  <line x1="546.3" y1="244.7" x2="522.5" y2="265.6" stroke="#6e7681" stroke-width="1.5" opacity="0.55" />
  <line x1="546.7" y1="235.9" x2="532.6" y2="260.9" stroke="#6e7681" stroke-width="1.0" opacity="0.22" />
  <line x1="546.7" y1="235.9" x2="555.1" y2="273.0" stroke="#6e7681" stroke-width="1.0" opacity="0.22" />
  <line x1="546.7" y1="235.9" x2="530.2" y2="234.3" stroke="#6e7681" stroke-width="1.2" opacity="0.37" />
  <line x1="546.7" y1="235.9" x2="591.4" y2="244.6" stroke="#6e7681" stroke-width="1.1" opacity="0.28" />
  <line x1="546.7" y1="235.9" x2="560.1" y2="232.8" stroke="#6e7681" stroke-width="1.2" opacity="0.37" />
  <line x1="546.7" y1="235.9" x2="522.5" y2="265.6" stroke="#6e7681" stroke-width="1.2" opacity="0.37" />
  <line x1="633.0" y1="282.5" x2="570.4" y2="278.7" stroke="#6e7681" stroke-width="0.9" opacity="0.18" />
  <line x1="633.0" y1="282.5" x2="591.7" y2="280.3" stroke="#6e7681" stroke-width="0.9" opacity="0.18" />
  <line x1="633.0" y1="282.5" x2="555.1" y2="273.0" stroke="#6e7681" stroke-width="1.0" opacity="0.22" />
  <line x1="633.0" y1="282.5" x2="605.0" y2="287.2" stroke="#6e7681" stroke-width="1.3" opacity="0.41" />
  <line x1="569.9" y1="303.3" x2="558.9" y2="285.8" stroke="#6e7681" stroke-width="1.1" opacity="0.31" />
  <line x1="569.9" y1="303.3" x2="570.4" y2="278.7" stroke="#6e7681" stroke-width="1.4" opacity="0.47" />
  <line x1="569.9" y1="303.3" x2="591.7" y2="280.3" stroke="#6e7681" stroke-width="0.9" opacity="0.19" />
  <line x1="569.9" y1="303.3" x2="555.1" y2="273.0" stroke="#6e7681" stroke-width="1.0" opacity="0.22" />
  <line x1="558.9" y1="285.8" x2="539.3" y2="279.4" stroke="#6e7681" stroke-width="1.1" opacity="0.29" />
  <line x1="558.9" y1="285.8" x2="523.3" y2="254.3" stroke="#6e7681" stroke-width="0.9" opacity="0.17" />
  <line x1="558.9" y1="285.8" x2="532.6" y2="260.9" stroke="#6e7681" stroke-width="0.9" opacity="0.20" />
  <line x1="558.9" y1="285.8" x2="570.4" y2="278.7" stroke="#6e7681" stroke-width="1.3" opacity="0.40" />
  <line x1="558.9" y1="285.8" x2="591.7" y2="280.3" stroke="#6e7681" stroke-width="1.0" opacity="0.24" />
  <line x1="558.9" y1="285.8" x2="555.1" y2="273.0" stroke="#6e7681" stroke-width="0.9" opacity="0.20" />
  <line x1="558.9" y1="285.8" x2="522.5" y2="265.6" stroke="#6e7681" stroke-width="1.0" opacity="0.24" />
  <line x1="539.3" y1="279.4" x2="532.6" y2="260.9" stroke="#6e7681" stroke-width="0.9" opacity="0.18" />
  <line x1="539.3" y1="279.4" x2="591.7" y2="280.3" stroke="#6e7681" stroke-width="1.0" opacity="0.23" />
  <line x1="539.3" y1="279.4" x2="555.1" y2="273.0" stroke="#6e7681" stroke-width="0.9" opacity="0.18" />
  <line x1="539.3" y1="279.4" x2="560.3" y2="259.4" stroke="#6e7681" stroke-width="1.0" opacity="0.24" />
  <line x1="539.3" y1="279.4" x2="522.5" y2="265.6" stroke="#6e7681" stroke-width="1.0" opacity="0.22" />
  <line x1="523.3" y1="254.3" x2="532.6" y2="260.9" stroke="#6e7681" stroke-width="1.1" opacity="0.28" />
  <line x1="523.3" y1="254.3" x2="570.4" y2="278.7" stroke="#6e7681" stroke-width="1.0" opacity="0.22" />
  <line x1="523.3" y1="254.3" x2="555.1" y2="273.0" stroke="#6e7681" stroke-width="1.1" opacity="0.28" />
  <line x1="523.3" y1="254.3" x2="560.3" y2="259.4" stroke="#6e7681" stroke-width="0.9" opacity="0.20" />
  <line x1="523.3" y1="254.3" x2="522.5" y2="265.6" stroke="#6e7681" stroke-width="1.2" opacity="0.37" />
  <line x1="532.6" y1="260.9" x2="570.4" y2="278.7" stroke="#6e7681" stroke-width="1.1" opacity="0.28" />
  <line x1="532.6" y1="260.9" x2="555.1" y2="273.0" stroke="#6e7681" stroke-width="1.2" opacity="0.37" />
  <line x1="532.6" y1="260.9" x2="530.2" y2="234.3" stroke="#6e7681" stroke-width="1.0" opacity="0.22" />
  <line x1="532.6" y1="260.9" x2="560.3" y2="259.4" stroke="#6e7681" stroke-width="1.0" opacity="0.24" />
  <line x1="532.6" y1="260.9" x2="591.4" y2="244.6" stroke="#6e7681" stroke-width="0.9" opacity="0.18" />
  <line x1="532.6" y1="260.9" x2="560.1" y2="232.8" stroke="#6e7681" stroke-width="1.0" opacity="0.22" />
  <line x1="532.6" y1="260.9" x2="522.5" y2="265.6" stroke="#6e7681" stroke-width="1.5" opacity="0.55" />
  <line x1="570.4" y1="278.7" x2="591.7" y2="280.3" stroke="#6e7681" stroke-width="1.1" opacity="0.29" />
  <line x1="570.4" y1="278.7" x2="555.1" y2="273.0" stroke="#6e7681" stroke-width="1.4" opacity="0.47" />
  <line x1="570.4" y1="278.7" x2="560.3" y2="259.4" stroke="#6e7681" stroke-width="0.9" opacity="0.20" />
  <line x1="570.4" y1="278.7" x2="605.0" y2="287.2" stroke="#6e7681" stroke-width="1.1" opacity="0.31" />
  <line x1="570.4" y1="278.7" x2="591.4" y2="244.6" stroke="#6e7681" stroke-width="1.1" opacity="0.31" />
  <line x1="570.4" y1="278.7" x2="522.5" y2="265.6" stroke="#6e7681" stroke-width="1.2" opacity="0.37" />
  <line x1="591.7" y1="280.3" x2="555.1" y2="273.0" stroke="#6e7681" stroke-width="1.2" opacity="0.34" />
  <line x1="591.7" y1="280.3" x2="605.0" y2="287.2" stroke="#6e7681" stroke-width="1.0" opacity="0.25" />
  <line x1="591.7" y1="280.3" x2="591.4" y2="244.6" stroke="#6e7681" stroke-width="1.0" opacity="0.25" />
  <line x1="591.7" y1="280.3" x2="522.5" y2="265.6" stroke="#6e7681" stroke-width="0.9" opacity="0.17" />
  <line x1="555.1" y1="273.0" x2="530.2" y2="234.3" stroke="#6e7681" stroke-width="1.0" opacity="0.22" />
  <line x1="555.1" y1="273.0" x2="560.3" y2="259.4" stroke="#6e7681" stroke-width="1.0" opacity="0.24" />
  <line x1="555.1" y1="273.0" x2="605.0" y2="287.2" stroke="#6e7681" stroke-width="1.3" opacity="0.44" />
  <line x1="555.1" y1="273.0" x2="591.4" y2="244.6" stroke="#6e7681" stroke-width="1.3" opacity="0.44" />
  <line x1="555.1" y1="273.0" x2="560.1" y2="232.8" stroke="#6e7681" stroke-width="1.0" opacity="0.22" />
  <line x1="555.1" y1="273.0" x2="522.5" y2="265.6" stroke="#6e7681" stroke-width="1.5" opacity="0.55" />
  <line x1="688.2" y1="50.0" x2="703.9" y2="70.3" stroke="#6e7681" stroke-width="1.0" opacity="0.22" />
  <line x1="443.4" y1="222.5" x2="522.5" y2="265.6" stroke="#6e7681" stroke-width="1.0" opacity="0.22" />
  <line x1="530.2" y1="234.3" x2="591.4" y2="244.6" stroke="#6e7681" stroke-width="1.1" opacity="0.28" />
  <line x1="530.2" y1="234.3" x2="560.1" y2="232.8" stroke="#6e7681" stroke-width="1.2" opacity="0.37" />
  <line x1="530.2" y1="234.3" x2="522.5" y2="265.6" stroke="#6e7681" stroke-width="1.2" opacity="0.37" />
  <line x1="601.8" y1="388.2" x2="563.7" y2="382.7" stroke="#6e7681" stroke-width="1.5" opacity="0.55" />
  <line x1="601.8" y1="388.2" x2="600.2" y2="349.8" stroke="#6e7681" stroke-width="1.3" opacity="0.41" />
  <line x1="563.7" y1="382.7" x2="600.2" y2="349.8" stroke="#6e7681" stroke-width="1.0" opacity="0.24" />
  <line x1="560.3" y1="259.4" x2="522.5" y2="265.6" stroke="#6e7681" stroke-width="1.1" opacity="0.31" />
  <line x1="605.0" y1="287.2" x2="591.4" y2="244.6" stroke="#6e7681" stroke-width="1.0" opacity="0.22" />
  <line x1="591.4" y1="244.6" x2="654.6" y2="213.2" stroke="#6e7681" stroke-width="1.2" opacity="0.37" />
  <line x1="591.4" y1="244.6" x2="665.7" y2="196.7" stroke="#6e7681" stroke-width="0.9" opacity="0.18" />
  <line x1="591.4" y1="244.6" x2="560.1" y2="232.8" stroke="#6e7681" stroke-width="1.1" opacity="0.28" />
  <line x1="591.4" y1="244.6" x2="522.5" y2="265.6" stroke="#6e7681" stroke-width="1.1" opacity="0.28" />
  <line x1="654.6" y1="213.2" x2="665.7" y2="196.7" stroke="#6e7681" stroke-width="1.1" opacity="0.28" />
  <line x1="560.1" y1="232.8" x2="583.8" y2="206.3" stroke="#6e7681" stroke-width="1.1" opacity="0.31" />
  <line x1="560.1" y1="232.8" x2="522.5" y2="265.6" stroke="#6e7681" stroke-width="1.2" opacity="0.37" />
  <circle cx="506.7" cy="306.2" r="19.8" fill="#7f8c8d" opacity="0.12" />
  <circle cx="506.7" cy="306.2" r="15.8" fill="#7f8c8d" opacity="0.88" />
  <circle cx="549.6" cy="326.1" r="20" fill="#3498db" opacity="0.12" />
  <circle cx="549.6" cy="326.1" r="16" fill="#3498db" opacity="0.88" />
  <circle cx="495.5" cy="297.2" r="17.1" fill="#e67e22" opacity="0.12" />
  <circle cx="495.5" cy="297.2" r="13.1" fill="#e67e22" opacity="0.88" />
  <circle cx="468.5" cy="317.3" r="20" fill="#7f8c8d" opacity="0.12" />
  <circle cx="468.5" cy="317.3" r="16" fill="#7f8c8d" opacity="0.88" />
  <circle cx="481.1" cy="259.0" r="17.1" fill="#e67e22" opacity="0.12" />
  <circle cx="481.1" cy="259.0" r="13.1" fill="#e67e22" opacity="0.88" />
  <circle cx="442.8" cy="319.7" r="12.6" fill="#3498db" opacity="0.12" />
  <circle cx="442.8" cy="319.7" r="8.6" fill="#3498db" opacity="0.88" />
  <circle cx="361.3" cy="337.3" r="15.3" fill="#3498db" opacity="0.12" />
  <circle cx="361.3" cy="337.3" r="11.3" fill="#3498db" opacity="0.88" />
  <circle cx="494.4" cy="344.7" r="20" fill="#2ecc71" opacity="0.12" />
  <circle cx="494.4" cy="344.7" r="16" fill="#2ecc71" opacity="0.88" />
  <circle cx="493.0" cy="289.3" r="16.2" fill="#3498db" opacity="0.12" />
  <circle cx="493.0" cy="289.3" r="12.2" fill="#3498db" opacity="0.88" />
  <circle cx="391.9" cy="320.8" r="16.2" fill="#7f8c8d" opacity="0.12" />
  <circle cx="391.9" cy="320.8" r="12.2" fill="#7f8c8d" opacity="0.88" />
  <circle cx="463.2" cy="306.6" r="18.9" fill="#7f8c8d" opacity="0.12" />
  <circle cx="463.2" cy="306.6" r="14.9" fill="#7f8c8d" opacity="0.88" />
  <circle cx="384.7" cy="343.0" r="13.5" fill="#7f8c8d" opacity="0.12" />
  <circle cx="384.7" cy="343.0" r="9.5" fill="#7f8c8d" opacity="0.88" />
  <circle cx="491.9" cy="326.3" r="18.9" fill="#3498db" opacity="0.12" />
  <circle cx="491.9" cy="326.3" r="14.9" fill="#3498db" opacity="0.88" />
  <circle cx="539.5" cy="305.0" r="20" fill="#7f8c8d" opacity="0.12" />
  <circle cx="539.5" cy="305.0" r="16" fill="#7f8c8d" opacity="0.88" />
  <circle cx="594.6" cy="322.6" r="20" fill="#e74c3c" opacity="0.12" />
  <circle cx="594.6" cy="322.6" r="16" fill="#e74c3c" opacity="0.88" />
  <circle cx="631.7" cy="292.5" r="20" fill="#9b59b6" opacity="0.12" />
  <circle cx="631.7" cy="292.5" r="16" fill="#9b59b6" opacity="0.88" />
  <circle cx="506.1" cy="289.9" r="18.0" fill="#3498db" opacity="0.12" />
  <circle cx="506.1" cy="289.9" r="14.0" fill="#3498db" opacity="0.88" />
  <circle cx="478.5" cy="285.3" r="18.0" fill="#3498db" opacity="0.12" />
  <circle cx="478.5" cy="285.3" r="14.0" fill="#3498db" opacity="0.88" />
  <circle cx="614.0" cy="213.8" r="14.4" fill="#e74c3c" opacity="0.12" />
  <circle cx="614.0" cy="213.8" r="10.4" fill="#e74c3c" opacity="0.88" />
  <circle cx="910.0" cy="145.9" r="16.2" fill="#3498db" opacity="0.12" />
  <circle cx="910.0" cy="145.9" r="12.2" fill="#3498db" opacity="0.88" />
  <circle cx="580.0" cy="252.1" r="14.4" fill="#e74c3c" opacity="0.12" />
  <circle cx="580.0" cy="252.1" r="10.4" fill="#e74c3c" opacity="0.88" />
  <circle cx="221.1" cy="495.5" r="16.2" fill="#3498db" opacity="0.12" />
  <circle cx="221.1" cy="495.5" r="12.2" fill="#3498db" opacity="0.88" />
  <circle cx="246.1" cy="500.0" r="15.3" fill="#3498db" opacity="0.12" />
  <circle cx="246.1" cy="500.0" r="11.3" fill="#3498db" opacity="0.88" />
  <circle cx="738.0" cy="334.1" r="9.9" fill="#3498db" opacity="0.12" />
  <circle cx="738.0" cy="334.1" r="5.9" fill="#3498db" opacity="0.88" />
  <circle cx="614.4" cy="271.0" r="16.2" fill="#9b59b6" opacity="0.12" />
  <circle cx="614.4" cy="271.0" r="12.2" fill="#9b59b6" opacity="0.88" />
  <circle cx="581.3" cy="293.7" r="19.8" fill="#9b59b6" opacity="0.12" />
  <circle cx="581.3" cy="293.7" r="15.8" fill="#9b59b6" opacity="0.88" />
  <circle cx="608.2" cy="302.3" r="12.6" fill="#9b59b6" opacity="0.12" />
  <circle cx="608.2" cy="302.3" r="8.6" fill="#9b59b6" opacity="0.88" />
  <circle cx="546.3" cy="244.7" r="9" fill="#2ecc71" opacity="0.12" />
  <circle cx="546.3" cy="244.7" r="5" fill="#2ecc71" opacity="0.88" />
  <circle cx="546.7" cy="235.9" r="9.9" fill="#7f8c8d" opacity="0.12" />
  <circle cx="546.7" cy="235.9" r="5.9" fill="#7f8c8d" opacity="0.88" />
  <circle cx="633.0" cy="282.5" r="15.3" fill="#e67e22" opacity="0.12" />
  <circle cx="633.0" cy="282.5" r="11.3" fill="#e67e22" opacity="0.88" />
  <circle cx="569.9" cy="303.3" r="20" fill="#2ecc71" opacity="0.12" />
  <circle cx="569.9" cy="303.3" r="16" fill="#2ecc71" opacity="0.88" />
  <circle cx="810.8" cy="351.7" r="10.8" fill="#9b59b6" opacity="0.12" />
  <circle cx="810.8" cy="351.7" r="6.8" fill="#9b59b6" opacity="0.88" />
  <circle cx="90.9" cy="385.6" r="9" fill="#7f8c8d" opacity="0.12" />
  <circle cx="90.9" cy="385.6" r="5" fill="#7f8c8d" opacity="0.88" />
  <circle cx="558.9" cy="285.8" r="16.2" fill="#3498db" opacity="0.12" />
  <circle cx="558.9" cy="285.8" r="12.2" fill="#3498db" opacity="0.88" />
  <circle cx="539.3" cy="279.4" r="17.1" fill="#7f8c8d" opacity="0.12" />
  <circle cx="539.3" cy="279.4" r="13.1" fill="#7f8c8d" opacity="0.88" />
  <circle cx="523.3" cy="254.3" r="13.5" fill="#7f8c8d" opacity="0.12" />
  <circle cx="523.3" cy="254.3" r="9.5" fill="#7f8c8d" opacity="0.88" />
  <circle cx="50.0" cy="307.1" r="9" fill="#7f8c8d" opacity="0.12" />
  <circle cx="50.0" cy="307.1" r="5" fill="#7f8c8d" opacity="0.88" />
  <circle cx="532.6" cy="260.9" r="11.7" fill="#7f8c8d" opacity="0.12" />
  <circle cx="532.6" cy="260.9" r="7.7" fill="#7f8c8d" opacity="0.88" />
  <circle cx="570.4" cy="278.7" r="13.5" fill="#7f8c8d" opacity="0.12" />
  <circle cx="570.4" cy="278.7" r="9.5" fill="#7f8c8d" opacity="0.88" />
  <circle cx="591.7" cy="280.3" r="19.8" fill="#2ecc71" opacity="0.12" />
  <circle cx="591.7" cy="280.3" r="15.8" fill="#2ecc71" opacity="0.88" />
  <circle cx="555.1" cy="273.0" r="11.7" fill="#7f8c8d" opacity="0.12" />
  <circle cx="555.1" cy="273.0" r="7.7" fill="#7f8c8d" opacity="0.88" />
  <circle cx="688.2" cy="50.0" r="11.7" fill="#7f8c8d" opacity="0.12" />
  <circle cx="688.2" cy="50.0" r="7.7" fill="#7f8c8d" opacity="0.88" />
  <circle cx="443.4" cy="222.5" r="11.7" fill="#3498db" opacity="0.12" />
  <circle cx="443.4" cy="222.5" r="7.7" fill="#3498db" opacity="0.88" />
  <circle cx="530.2" cy="234.3" r="9.9" fill="#7f8c8d" opacity="0.12" />
  <circle cx="530.2" cy="234.3" r="5.9" fill="#7f8c8d" opacity="0.88" />
  <circle cx="601.8" cy="388.2" r="10.8" fill="#e67e22" opacity="0.12" />
  <circle cx="601.8" cy="388.2" r="6.8" fill="#e67e22" opacity="0.88" />
  <circle cx="563.7" cy="382.7" r="10.8" fill="#e67e22" opacity="0.12" />
  <circle cx="563.7" cy="382.7" r="6.8" fill="#e67e22" opacity="0.88" />
  <circle cx="560.3" cy="259.4" r="14.4" fill="#7f8c8d" opacity="0.12" />
  <circle cx="560.3" cy="259.4" r="10.4" fill="#7f8c8d" opacity="0.88" />
  <circle cx="600.2" cy="349.8" r="15.3" fill="#e67e22" opacity="0.12" />
  <circle cx="600.2" cy="349.8" r="11.3" fill="#e67e22" opacity="0.88" />
  <circle cx="703.9" cy="70.3" r="9.9" fill="#7f8c8d" opacity="0.12" />
  <circle cx="703.9" cy="70.3" r="5.9" fill="#7f8c8d" opacity="0.88" />
  <circle cx="605.0" cy="287.2" r="10.8" fill="#7f8c8d" opacity="0.12" />
  <circle cx="605.0" cy="287.2" r="6.8" fill="#7f8c8d" opacity="0.88" />
  <circle cx="591.4" cy="244.6" r="10.8" fill="#7f8c8d" opacity="0.12" />
  <circle cx="591.4" cy="244.6" r="6.8" fill="#7f8c8d" opacity="0.88" />
  <circle cx="654.6" cy="213.2" r="9" fill="#2ecc71" opacity="0.12" />
  <circle cx="654.6" cy="213.2" r="5" fill="#2ecc71" opacity="0.88" />
  <circle cx="665.7" cy="196.7" r="11.7" fill="#2ecc71" opacity="0.12" />
  <circle cx="665.7" cy="196.7" r="7.7" fill="#2ecc71" opacity="0.88" />
  <circle cx="560.1" cy="232.8" r="9.9" fill="#e74c3c" opacity="0.12" />
  <circle cx="560.1" cy="232.8" r="5.9" fill="#e74c3c" opacity="0.88" />
  <circle cx="583.8" cy="206.3" r="14.4" fill="#e74c3c" opacity="0.12" />
  <circle cx="583.8" cy="206.3" r="10.4" fill="#e74c3c" opacity="0.88" />
  <circle cx="522.5" cy="265.6" r="9.9" fill="#7f8c8d" opacity="0.12" />
  <circle cx="522.5" cy="265.6" r="5.9" fill="#7f8c8d" opacity="0.88" />
  <circle cx="837.2" cy="492.2" r="9" fill="#7f8c8d" opacity="0.12" />
  <circle cx="837.2" cy="492.2" r="5" fill="#7f8c8d" opacity="0.88" />
  <rect x="524.5" y="328.5" width="124.4" height="15" fill="#0d1117" opacity="0.75" rx="2" />
  <text x="525.5" y="339.5" font-family="system-ui, -apple-system, sans-serif" font-size="12" fill="#e6edf3" text-anchor="start">tinyland-huskycat</text>
  <rect x="567.6" y="240.5" width="117.2" height="15" fill="#0d1117" opacity="0.75" rx="2" />
  <text x="568.6" y="251.5" font-family="system-ui, -apple-system, sans-serif" font-size="12" fill="#e6edf3" text-anchor="start">GloriousFlywheel</text>
  <rect x="510.6" y="209.1" width="45.2" height="15" fill="#0d1117" opacity="0.75" rx="2" />
  <text x="511.6" y="220.1" font-family="system-ui, -apple-system, sans-serif" font-size="12" fill="#e6edf3" text-anchor="start">XoxdWM</text>
  <rect x="486.5" y="397.3" width="74.0" height="15" fill="#0d1117" opacity="0.75" rx="2" />
  <text x="487.5" y="408.3" font-family="system-ui, -apple-system, sans-serif" font-size="12" fill="#e6edf3" text-anchor="start">tummycrypt</text>
  <rect x="496.2" y="272.0" width="110.0" height="15" fill="#0d1117" opacity="0.75" rx="2" />
  <text x="497.2" y="283.0" font-family="system-ui, -apple-system, sans-serif" font-size="12" fill="#e6edf3" text-anchor="start">hiberpower-ntfs</text>
  <rect x="453.4" y="328.7" width="16.4" height="15" fill="#0d1117" opacity="0.75" rx="2" />
  <text x="454.4" y="339.7" font-family="system-ui, -apple-system, sans-serif" font-size="12" fill="#e6edf3" text-anchor="start">pp</text>
  <rect x="374.6" y="290.3" width="117.2" height="15" fill="#0d1117" opacity="0.75" rx="2" />
  <text x="375.6" y="301.3" font-family="system-ui, -apple-system, sans-serif" font-size="12" fill="#e6edf3" text-anchor="start">tinyland-cleanup</text>
  <rect x="512.4" y="412.5" width="59.6" height="15" fill="#0d1117" opacity="0.75" rx="2" />
  <text x="513.4" y="423.5" font-family="system-ui, -apple-system, sans-serif" font-size="12" fill="#e6edf3" text-anchor="start">gnucashr</text>
  <rect x="507.2" y="302.9" width="66.8" height="15" fill="#0d1117" opacity="0.75" rx="2" />
  <text x="508.2" y="313.9" font-family="system-ui, -apple-system, sans-serif" font-size="12" fill="#e6edf3" text-anchor="start">betterkvm</text>
  <rect x="406.1" y="242.6" width="131.6" height="15" fill="#0d1117" opacity="0.75" rx="2" />
  <text x="407.1" y="253.6" font-family="system-ui, -apple-system, sans-serif" font-size="12" fill="#e6edf3" text-anchor="start">aperture-bootstrap</text>
  <rect x="480.1" y="316.9" width="81.2" height="15" fill="#0d1117" opacity="0.75" rx="2" />
  <text x="481.1" y="327.9" font-family="system-ui, -apple-system, sans-serif" font-size="12" fill="#e6edf3" text-anchor="start">tailnet-acl</text>
  <rect x="396.2" y="346.1" width="88.4" height="15" fill="#0d1117" opacity="0.75" rx="2" />
  <text x="397.2" y="357.1" font-family="system-ui, -apple-system, sans-serif" font-size="12" fill="#e6edf3" text-anchor="start">waifu-mirror</text>
  <rect x="508.8" y="261.2" width="102.8" height="15" fill="#0d1117" opacity="0.75" rx="2" />
  <text x="509.8" y="272.2" font-family="system-ui, -apple-system, sans-serif" font-size="12" fill="#e6edf3" text-anchor="start">tinyland-infra</text>
  <rect x="557.5" y="211.5" width="52.4" height="15" fill="#0d1117" opacity="0.75" rx="2" />
  <text x="558.5" y="222.5" font-family="system-ui, -apple-system, sans-serif" font-size="12" fill="#e6edf3" text-anchor="start">LA-Mesh</text>
  <rect x="612.6" y="289.8" width="131.6" height="15" fill="#0d1117" opacity="0.75" rx="2" />
  <text x="613.6" y="300.8" font-family="system-ui, -apple-system, sans-serif" font-size="12" fill="#e6edf3" text-anchor="start">pixelwise-research</text>
  <rect x="649.7" y="258.5" width="95.6" height="15" fill="#0d1117" opacity="0.75" rx="2" />
  <text x="650.7" y="269.5" font-family="system-ui, -apple-system, sans-serif" font-size="12" fill="#e6edf3" text-anchor="start">GIS_Shortcuts</text>
  <rect x="522.1" y="382.2" width="138.8" height="15" fill="#0d1117" opacity="0.75" rx="2" />
  <text x="523.1" y="393.2" font-family="system-ui, -apple-system, sans-serif" font-size="12" fill="#e6edf3" text-anchor="start">Ansible-DAG-Harness</text>
  <rect x="494.5" y="285.9" width="95.6" height="15" fill="#0d1117" opacity="0.75" rx="2" />
  <text x="495.5" y="296.9" font-family="system-ui, -apple-system, sans-serif" font-size="12" fill="#e6edf3" text-anchor="start">DarwinNicUtil</text>
  <rect x="626.4" y="181.7" width="66.8" height="15" fill="#0d1117" opacity="0.75" rx="2" />
  <text x="627.4" y="192.7" font-family="system-ui, -apple-system, sans-serif" font-size="12" fill="#e6edf3" text-anchor="start">quickchpl</text>
  <rect x="764.2" y="139.1" width="131.6" height="15" fill="#0d1117" opacity="0.75" rx="2" />
  <text x="894.8" y="150.1" font-family="system-ui, -apple-system, sans-serif" font-size="12" fill="#e6edf3" text-anchor="end">tinyscale-mikrotik</text>
  <rect x="592.4" y="324.5" width="59.6" height="15" fill="#0d1117" opacity="0.75" rx="2" />
  <text x="593.4" y="335.5" font-family="system-ui, -apple-system, sans-serif" font-size="12" fill="#e6edf3" text-anchor="start">aoc-2025</text>
  <rect x="235.3" y="482.5" width="66.8" height="15" fill="#0d1117" opacity="0.75" rx="2" />
  <text x="236.3" y="493.5" font-family="system-ui, -apple-system, sans-serif" font-size="12" fill="#e6edf3" text-anchor="start">searchies</text>
  <rect x="259.4" y="499.5" width="59.6" height="15" fill="#0d1117" opacity="0.75" rx="2" />
  <text x="260.4" y="510.5" font-family="system-ui, -apple-system, sans-serif" font-size="12" fill="#e6edf3" text-anchor="start">ts-caddy</text>
  <rect x="745.9" y="327.3" width="66.8" height="15" fill="#0d1117" opacity="0.75" rx="2" />
  <text x="746.9" y="338.3" font-family="system-ui, -apple-system, sans-serif" font-size="12" fill="#e6edf3" text-anchor="start">HCI-notes</text>
  <rect x="628.6" y="226.1" width="88.4" height="15" fill="#0d1117" opacity="0.75" rx="2" />
  <text x="629.6" y="237.1" font-family="system-ui, -apple-system, sans-serif" font-size="12" fill="#e6edf3" text-anchor="start">FastPhotoAPI</text>
  <rect x="599.1" y="295.9" width="81.2" height="15" fill="#0d1117" opacity="0.75" rx="2" />
  <text x="600.1" y="306.9" font-family="system-ui, -apple-system, sans-serif" font-size="12" fill="#e6edf3" text-anchor="start">timberbuddy</text>
  <rect x="618.8" y="196.6" width="81.2" height="15" fill="#0d1117" opacity="0.75" rx="2" />
  <text x="619.8" y="207.6" font-family="system-ui, -apple-system, sans-serif" font-size="12" fill="#e6edf3" text-anchor="start">tetrahedron</text>
  <rect x="553.3" y="376.7" width="95.6" height="15" fill="#0d1117" opacity="0.75" rx="2" />
  <text x="554.3" y="387.7" font-family="system-ui, -apple-system, sans-serif" font-size="12" fill="#e6edf3" text-anchor="start">AccuWixReport</text>
  <rect x="554.6" y="159.2" width="95.6" height="15" fill="#0d1117" opacity="0.75" rx="2" />
  <text x="555.6" y="170.2" font-family="system-ui, -apple-system, sans-serif" font-size="12" fill="#e6edf3" text-anchor="start">Jess-AOC-2023</text>
  <rect x="646.3" y="398.8" width="81.2" height="15" fill="#0d1117" opacity="0.75" rx="2" />
  <text x="647.3" y="409.8" font-family="system-ui, -apple-system, sans-serif" font-size="12" fill="#e6edf3" text-anchor="start">TurkeyProbe</text>
  <rect x="587.9" y="312.9" width="153.2" height="15" fill="#0d1117" opacity="0.75" rx="2" />
  <text x="588.9" y="323.9" font-family="system-ui, -apple-system, sans-serif" font-size="12" fill="#e6edf3" text-anchor="start">MerlinAI-Interpreters</text>
  <rect x="692.0" y="430.3" width="110.0" height="15" fill="#0d1117" opacity="0.75" rx="2" />
  <text x="801.0" y="441.3" font-family="system-ui, -apple-system, sans-serif" font-size="12" fill="#e6edf3" text-anchor="end">IntroTypeScript</text>
  <rect x="97.9" y="378.8" width="110.0" height="15" fill="#0d1117" opacity="0.75" rx="2" />
  <text x="98.9" y="389.8" font-family="system-ui, -apple-system, sans-serif" font-size="12" fill="#e6edf3" text-anchor="start">IG-3DP-Profiles</text>
  <rect x="573.1" y="399.2" width="66.8" height="15" fill="#0d1117" opacity="0.75" rx="2" />
  <text x="574.1" y="410.2" font-family="system-ui, -apple-system, sans-serif" font-size="12" fill="#e6edf3" text-anchor="start">DLA-Flask</text>
  <rect x="554.4" y="189.9" width="38.0" height="15" fill="#0d1117" opacity="0.75" rx="2" />
  <text x="555.4" y="200.9" font-family="system-ui, -apple-system, sans-serif" font-size="12" fill="#e6edf3" text-anchor="start">USBoN</text>
  <rect x="534.8" y="349.8" width="203.6" height="15" fill="#0d1117" opacity="0.75" rx="2" />
  <text x="535.8" y="360.8" font-family="system-ui, -apple-system, sans-serif" font-size="12" fill="#e6edf3" text-anchor="start">chrome-remote-desktop-budgie</text>
  <rect x="57.0" y="300.3" width="124.4" height="15" fill="#0d1117" opacity="0.75" rx="2" />
  <text x="58.0" y="311.3" font-family="system-ui, -apple-system, sans-serif" font-size="12" fill="#e6edf3" text-anchor="start">OminousBeepingApp</text>
  <rect x="542.3" y="339.9" width="138.8" height="15" fill="#0d1117" opacity="0.75" rx="2" />
  <text x="543.3" y="350.9" font-family="system-ui, -apple-system, sans-serif" font-size="12" fill="#e6edf3" text-anchor="start">mo-image-identifier</text>
  <rect x="581.9" y="244.2" width="196.4" height="15" fill="#0d1117" opacity="0.75" rx="2" />
  <text x="582.9" y="255.2" font-family="system-ui, -apple-system, sans-serif" font-size="12" fill="#e6edf3" text-anchor="start">squirrel-leaflet-annotation</text>
  <rect x="609.5" y="275.5" width="74.0" height="15" fill="#0d1117" opacity="0.75" rx="2" />
  <text x="610.5" y="286.5" font-family="system-ui, -apple-system, sans-serif" font-size="12" fill="#e6edf3" text-anchor="start">Shiny-Apps</text>
  <rect x="564.8" y="366.8" width="138.8" height="15" fill="#0d1117" opacity="0.75" rx="2" />
  <text x="565.8" y="377.8" font-family="system-ui, -apple-system, sans-serif" font-size="12" fill="#e6edf3" text-anchor="start">bbox-jest-puppeteer</text>
  <rect x="697.9" y="43.2" width="88.4" height="15" fill="#0d1117" opacity="0.75" rx="2" />
  <text x="698.9" y="54.2" font-family="system-ui, -apple-system, sans-serif" font-size="12" fill="#e6edf3" text-anchor="start">DoverDisplay</text>
  <rect x="453.1" y="193.8" width="81.2" height="15" fill="#0d1117" opacity="0.75" rx="2" />
  <text x="454.1" y="204.8" font-family="system-ui, -apple-system, sans-serif" font-size="12" fill="#e6edf3" text-anchor="start">LeafletSync</text>
  <rect x="538.1" y="132.5" width="167.6" height="15" fill="#0d1117" opacity="0.75" rx="2" />
  <text x="539.1" y="143.5" font-family="system-ui, -apple-system, sans-serif" font-size="12" fill="#e6edf3" text-anchor="start">misc-roi-distance-notes</text>
  <rect x="610.6" y="445.0" width="138.8" height="15" fill="#0d1117" opacity="0.75" rx="2" />
  <text x="611.6" y="456.0" font-family="system-ui, -apple-system, sans-serif" font-size="12" fill="#e6edf3" text-anchor="start">Arduino_Coil_Winder</text>
  <rect x="572.5" y="414.1" width="30.8" height="15" fill="#0d1117" opacity="0.75" rx="2" />
  <text x="573.5" y="425.1" font-family="system-ui, -apple-system, sans-serif" font-size="12" fill="#e6edf3" text-anchor="start">momo</text>
  <rect x="572.7" y="203.5" width="38.0" height="15" fill="#0d1117" opacity="0.75" rx="2" />
  <text x="573.7" y="214.5" font-family="system-ui, -apple-system, sans-serif" font-size="12" fill="#e6edf3" text-anchor="start">clipi</text>
  <rect x="613.5" y="415.8" width="110.0" height="15" fill="#0d1117" opacity="0.75" rx="2" />
  <text x="614.5" y="426.8" font-family="system-ui, -apple-system, sans-serif" font-size="12" fill="#e6edf3" text-anchor="start">AeroTaz5_hotfix</text>
  <rect x="711.8" y="63.5" width="110.0" height="15" fill="#0d1117" opacity="0.75" rx="2" />
  <text x="712.8" y="74.5" font-family="system-ui, -apple-system, sans-serif" font-size="12" fill="#e6edf3" text-anchor="start">Funmat-HT-Notes</text>
  <rect x="613.8" y="211.4" width="81.2" height="15" fill="#0d1117" opacity="0.75" rx="2" />
  <text x="614.8" y="222.4" font-family="system-ui, -apple-system, sans-serif" font-size="12" fill="#e6edf3" text-anchor="start">static-site</text>
  <rect x="600.2" y="147.1" width="95.6" height="15" fill="#0d1117" opacity="0.75" rx="2" />
  <text x="601.2" y="158.1" font-family="system-ui, -apple-system, sans-serif" font-size="12" fill="#e6edf3" text-anchor="start">Flask-Manager</text>
  <rect x="661.6" y="166.9" width="110.0" height="15" fill="#0d1117" opacity="0.75" rx="2" />
  <text x="662.6" y="177.9" font-family="system-ui, -apple-system, sans-serif" font-size="12" fill="#e6edf3" text-anchor="start">FieldProcessing</text>
  <rect x="675.4" y="115.5" width="81.2" height="15" fill="#0d1117" opacity="0.75" rx="2" />
  <text x="676.4" y="126.5" font-family="system-ui, -apple-system, sans-serif" font-size="12" fill="#e6edf3" text-anchor="start">rJDKmanager</text>
  <rect x="568.0" y="172.9" width="59.6" height="15" fill="#0d1117" opacity="0.75" rx="2" />
  <text x="569.0" y="183.9" font-family="system-ui, -apple-system, sans-serif" font-size="12" fill="#e6edf3" text-anchor="start">tagnotes</text>
  <rect x="596.2" y="117.9" width="81.2" height="15" fill="#0d1117" opacity="0.75" rx="2" />
  <text x="597.2" y="128.9" font-family="system-ui, -apple-system, sans-serif" font-size="12" fill="#e6edf3" text-anchor="start">ChapelTests</text>
  <rect x="530.4" y="228.5" width="88.4" height="15" fill="#0d1117" opacity="0.75" rx="2" />
  <text x="531.4" y="239.5" font-family="system-ui, -apple-system, sans-serif" font-size="12" fill="#e6edf3" text-anchor="start">Xfinity-WiFi</text>
  <rect x="763.4" y="485.4" width="66.8" height="15" fill="#0d1117" opacity="0.75" rx="2" />
  <text x="829.2" y="496.4" font-family="system-ui, -apple-system, sans-serif" font-size="12" fill="#e6edf3" text-anchor="end">home-wiki</text>
  <rect x="793" y="36" width="155" height="120" rx="6" fill="#161b22" stroke="#30363d" stroke-width="1" opacity="0.95" />
  <circle cx="810" cy="52" r="5" fill="#e74c3c" opacity="0.88" />
  <text x="820" y="56" font-family="system-ui, -apple-system, sans-serif" font-size="10" fill="#e6edf3">Languages &amp; Compilers</text>
  <circle cx="810" cy="69" r="5" fill="#3498db" opacity="0.88" />
  <text x="820" y="73" font-family="system-ui, -apple-system, sans-serif" font-size="10" fill="#e6edf3">Infrastructure &amp; DevOps</text>
  <circle cx="810" cy="86" r="5" fill="#e67e22" opacity="0.88" />
  <text x="820" y="90" font-family="system-ui, -apple-system, sans-serif" font-size="10" fill="#e6edf3">Hardware &amp; Maker</text>
  <circle cx="810" cy="103" r="5" fill="#2ecc71" opacity="0.88" />
  <text x="820" y="107" font-family="system-ui, -apple-system, sans-serif" font-size="10" fill="#e6edf3">ML &amp; Data</text>
  <circle cx="810" cy="120" r="5" fill="#9b59b6" opacity="0.88" />
  <text x="820" y="124" font-family="system-ui, -apple-system, sans-serif" font-size="10" fill="#e6edf3">Web &amp; Apps</text>
  <circle cx="810" cy="137" r="5" fill="#7f8c8d" opacity="0.88" />
  <text x="820" y="141" font-family="system-ui, -apple-system, sans-serif" font-size="10" fill="#e6edf3">Other</text>
  <text x="870" y="150" font-family="system-ui, -apple-system, sans-serif" font-size="8" fill="#8b949e" text-anchor="middle">57 repos · 222 edges</text>
</svg>