<svg xmlns="http://www.w3.org/2000/svg" width="960" height="600" viewBox="0 0 960 600">
  <rect width="960" height="600" fill="#0d1117" rx="8" />
  <text x="480" y="24" font-family="system-ui, -apple-system, sans-serif" font-size="13" fill="#8b949e" text-anchor="middle" font-weight="500">Repo Relationship Graph &#x2014; Pairwise Topic &amp; Language Similarity</text>
  <line x1="50" y1="550" x2="910" y2="550" stroke="#484f58" stroke-width="0.5" opacity="0.5" />
  <text x="50" y="570" font-family="system-ui, -apple-system, sans-serif" font-size="9" fill="#8b949e" opacity="0.6">Updated daily by GitHub Actions</text>
  <text x="50" y="588" font-family="system-ui, -apple-system, sans-serif" font-size="9" fill="#8b949e" opacity="0.6">networkx spring_layout · Jaccard similarity &gt; 0.15</text>
  <text x="910" y="570" font-family="system-ui, -apple-system, sans-serif" font-size="9" fill="#8b949e" text-anchor="end" opacity="0.6">54 repos · 207 edges</text>
  <line x1="513.9" y1="324.2" x2="472.6" y2="308.4" stroke="#6e7681" stroke-width="1.0" opacity="0.24" />
  <line x1="513.9" y1="324.2" x2="477.7" y2="332.2" stroke="#6e7681" stroke-width="1.1" opacity="0.28" />
  <line x1="513.9" y1="324.2" x2="520.9" y2="311.8" stroke="#6e7681" stroke-width="1.1" opacity="0.31" />
  <line x1="513.9" y1="324.2" x2="498.4" y2="337.1" stroke="#6e7681" stroke-width="1.1" opacity="0.31" />
  <line x1="513.9" y1="324.2" x2="499.2" y2="325.0" stroke="#6e7681" stroke-width="1.2" opacity="0.37" />
  <line x1="513.9" y1="324.2" x2="485.1" y2="320.7" stroke="#6e7681" stroke-width="1.1" opacity="0.31" />
  <line x1="513.9" y1="324.2" x2="446.3" y2="316.7" stroke="#6e7681" stroke-width="1.0" opacity="0.26" />
  <line x1="513.9" y1="324.2" x2="485.3" y2="299.4" stroke="#6e7681" stroke-width="1.0" opacity="0.22" />
  <line x1="513.9" y1="324.2" x2="596.8" y2="310.3" stroke="#6e7681" stroke-width="0.9" opacity="0.18" />
  <line x1="513.9" y1="324.2" x2="567.4" y2="337.7" stroke="#6e7681" stroke-width="0.9" opacity="0.20" />
  <line x1="513.9" y1="324.2" x2="553.1" y2="332.4" stroke="#6e7681" stroke-width="1.0" opacity="0.24" />
  <line x1="513.9" y1="324.2" x2="523.5" y2="353.6" stroke="#6e7681" stroke-width="0.9" opacity="0.20" />
  <line x1="513.9" y1="324.2" x2="533.9" y2="346.8" stroke="#6e7681" stroke-width="1.0" opacity="0.24" />
  <line x1="513.9" y1="324.2" x2="570.0" y2="349.5" stroke="#6e7681" stroke-width="0.9" opacity="0.18" />
  <line x1="513.9" y1="324.2" x2="543.3" y2="332.8" stroke="#6e7681" stroke-width="1.1" opacity="0.31" />
  <line x1="472.6" y1="308.4" x2="477.7" y2="332.2" stroke="#6e7681" stroke-width="1.0" opacity="0.24" />
  <line x1="472.6" y1="308.4" x2="454.2" y2="292.1" stroke="#6e7681" stroke-width="2.0" opacity="0.80" />
  <line x1="472.6" y1="308.4" x2="520.9" y2="311.8" stroke="#6e7681" stroke-width="1.0" opacity="0.22" />
  <line x1="472.6" y1="308.4" x2="498.4" y2="337.1" stroke="#6e7681" stroke-width="0.9" opacity="0.17" />
  <line x1="472.6" y1="308.4" x2="499.2" y2="325.0" stroke="#6e7681" stroke-width="0.9" opacity="0.20" />
  <line x1="472.6" y1="308.4" x2="485.1" y2="320.7" stroke="#6e7681" stroke-width="0.9" opacity="0.17" />
  <line x1="472.6" y1="308.4" x2="446.3" y2="316.7" stroke="#6e7681" stroke-width="1.0" opacity="0.23" />
  <line x1="472.6" y1="308.4" x2="485.3" y2="299.4" stroke="#6e7681" stroke-width="1.5" opacity="0.55" />
  <line x1="472.6" y1="308.4" x2="543.3" y2="332.8" stroke="#6e7681" stroke-width="1.0" opacity="0.22" />
  <line x1="498.2" y1="425.4" x2="488.7" y2="411.9" stroke="#6e7681" stroke-width="1.0" opacity="0.26" />
  <line x1="498.2" y1="425.4" x2="522.3" y2="379.9" stroke="#6e7681" stroke-width="0.9" opacity="0.20" />
  <line x1="498.2" y1="425.4" x2="488.9" y2="386.2" stroke="#6e7681" stroke-width="1.0" opacity="0.22" />
  <line x1="477.7" y1="332.2" x2="520.9" y2="311.8" stroke="#6e7681" stroke-width="0.9" opacity="0.17" />
  <line x1="477.7" y1="332.2" x2="498.4" y2="337.1" stroke="#6e7681" stroke-width="1.0" opacity="0.22" />
  <line x1="477.7" y1="332.2" x2="499.2" y2="325.0" stroke="#6e7681" stroke-width="1.0" opacity="0.24" />
  <line x1="477.7" y1="332.2" x2="485.1" y2="320.7" stroke="#6e7681" stroke-width="1.0" opacity="0.22" />
  <line x1="477.7" y1="332.2" x2="446.3" y2="316.7" stroke="#6e7681" stroke-width="0.9" opacity="0.20" />
  <line x1="477.7" y1="332.2" x2="485.3" y2="299.4" stroke="#6e7681" stroke-width="1.0" opacity="0.22" />
  <line x1="477.7" y1="332.2" x2="485.6" y2="368.4" stroke="#6e7681" stroke-width="0.9" opacity="0.19" />
  <line x1="477.7" y1="332.2" x2="523.5" y2="353.6" stroke="#6e7681" stroke-width="0.9" opacity="0.21" />
  <line x1="477.7" y1="332.2" x2="533.9" y2="346.8" stroke="#6e7681" stroke-width="1.0" opacity="0.24" />
  <line x1="477.7" y1="332.2" x2="543.3" y2="332.8" stroke="#6e7681" stroke-width="0.9" opacity="0.17" />
  <line x1="518.1" y1="392.4" x2="522.3" y2="379.9" stroke="#6e7681" stroke-width="0.9" opacity="0.18" />
  <line x1="518.1" y1="392.4" x2="488.9" y2="386.2" stroke="#6e7681" stroke-width="0.9" opacity="0.18" />
  <line x1="518.1" y1="392.4" x2="523.5" y2="353.6" stroke="#6e7681" stroke-width="0.9" opacity="0.17" />
  <line x1="518.1" y1="392.4" x2="522.7" y2="368.8" stroke="#6e7681" stroke-width="1.3" opacity="0.42" />
  <line x1="518.1" y1="392.4" x2="533.9" y2="346.8" stroke="#6e7681" stroke-width="0.9" opacity="0.19" />
  <line x1="518.1" y1="392.4" x2="507.6" y2="375.3" stroke="#6e7681" stroke-width="0.9" opacity="0.21" />
  <line x1="454.2" y1="292.1" x2="520.9" y2="311.8" stroke="#6e7681" stroke-width="1.1" opacity="0.28" />
  <line x1="454.2" y1="292.1" x2="446.3" y2="316.7" stroke="#6e7681" stroke-width="0.9" opacity="0.17" />
  <line x1="454.2" y1="292.1" x2="485.3" y2="299.4" stroke="#6e7681" stroke-width="1.2" opacity="0.37" />
  <line x1="520.9" y1="311.8" x2="498.4" y2="337.1" stroke="#6e7681" stroke-width="0.9" opacity="0.20" />
  <line x1="520.9" y1="311.8" x2="499.2" y2="325.0" stroke="#6e7681" stroke-width="1.0" opacity="0.24" />
  <line x1="520.9" y1="311.8" x2="485.1" y2="320.7" stroke="#6e7681" stroke-width="0.9" opacity="0.20" />
  <line x1="520.9" y1="311.8" x2="485.3" y2="299.4" stroke="#6e7681" stroke-width="0.9" opacity="0.18" />
  <line x1="520.9" y1="311.8" x2="552.8" y2="320.0" stroke="#6e7681" stroke-width="1.5" opacity="0.55" />
  <line x1="520.9" y1="311.8" x2="569.9" y2="317.6" stroke="#6e7681" stroke-width="1.2" opacity="0.37" />
  <line x1="520.9" y1="311.8" x2="553.1" y2="332.4" stroke="#6e7681" stroke-width="1.0" opacity="0.22" />
  <line x1="520.9" y1="311.8" x2="533.9" y2="346.8" stroke="#6e7681" stroke-width="1.0" opacity="0.22" />
  <line x1="520.9" y1="311.8" x2="551.2" y2="308.9" stroke="#6e7681" stroke-width="1.2" opacity="0.37" />
  <line x1="520.9" y1="311.8" x2="528.1" y2="323.7" stroke="#6e7681" stroke-width="1.1" opacity="0.28" />
  <line x1="520.9" y1="311.8" x2="572.2" y2="308.8" stroke="#6e7681" stroke-width="1.2" opacity="0.37" />
  <line x1="520.9" y1="311.8" x2="543.3" y2="332.8" stroke="#6e7681" stroke-width="1.2" opacity="0.37" />
  <line x1="601.4" y1="353.0" x2="553.1" y2="332.4" stroke="#6e7681" stroke-width="0.9" opacity="0.18" />
  <line x1="601.4" y1="353.0" x2="533.9" y2="346.8" stroke="#6e7681" stroke-width="1.1" opacity="0.30" />
  <line x1="601.4" y1="353.0" x2="543.3" y2="332.8" stroke="#6e7681" stroke-width="1.0" opacity="0.22" />
  <line x1="498.4" y1="337.1" x2="499.2" y2="325.0" stroke="#6e7681" stroke-width="1.1" opacity="0.28" />
  <line x1="498.4" y1="337.1" x2="485.1" y2="320.7" stroke="#6e7681" stroke-width="1.0" opacity="0.24" />
  <line x1="498.4" y1="337.1" x2="446.3" y2="316.7" stroke="#6e7681" stroke-width="0.9" opacity="0.17" />
  <line x1="498.4" y1="337.1" x2="530.7" y2="362.1" stroke="#6e7681" stroke-width="0.9" opacity="0.19" />
  <line x1="498.4" y1="337.1" x2="558.3" y2="364.2" stroke="#6e7681" stroke-width="0.9" opacity="0.18" />
  <line x1="498.4" y1="337.1" x2="553.1" y2="332.4" stroke="#6e7681" stroke-width="0.9" opacity="0.17" />
  <line x1="498.4" y1="337.1" x2="533.9" y2="346.8" stroke="#6e7681" stroke-width="0.9" opacity="0.17" />
  <line x1="498.4" y1="337.1" x2="543.3" y2="332.8" stroke="#6e7681" stroke-width="0.9" opacity="0.20" />
  <line x1="499.2" y1="325.0" x2="485.1" y2="320.7" stroke="#6e7681" stroke-width="1.1" opacity="0.28" />
  <line x1="499.2" y1="325.0" x2="446.3" y2="316.7" stroke="#6e7681" stroke-width="0.9" opacity="0.18" />
  <line x1="499.2" y1="325.0" x2="485.3" y2="299.4" stroke="#6e7681" stroke-width="0.9" opacity="0.18" />
  <line x1="499.2" y1="325.0" x2="567.4" y2="337.7" stroke="#6e7681" stroke-width="0.9" opacity="0.17" />
  <line x1="499.2" y1="325.0" x2="553.1" y2="332.4" stroke="#6e7681" stroke-width="0.9" opacity="0.20" />
  <line x1="499.2" y1="325.0" x2="523.5" y2="353.6" stroke="#6e7681" stroke-width="0.9" opacity="0.17" />
  <line x1="499.2" y1="325.0" x2="533.9" y2="346.8" stroke="#6e7681" stroke-width="0.9" opacity="0.20" />
  <line x1="499.2" y1="325.0" x2="543.3" y2="332.8" stroke="#6e7681" stroke-width="1.0" opacity="0.24" />
  <line x1="485.1" y1="320.7" x2="446.3" y2="316.7" stroke="#6e7681" stroke-width="0.9" opacity="0.17" />
  <line x1="485.1" y1="320.7" x2="553.1" y2="332.4" stroke="#6e7681" stroke-width="0.9" opacity="0.17" />
  <line x1="485.1" y1="320.7" x2="533.9" y2="346.8" stroke="#6e7681" stroke-width="0.9" opacity="0.17" />
  <line x1="485.1" y1="320.7" x2="543.3" y2="332.8" stroke="#6e7681" stroke-width="0.9" opacity="0.20" />
  <line x1="488.7" y1="411.9" x2="522.3" y2="379.9" stroke="#6e7681" stroke-width="1.0" opacity="0.26" />
  <line x1="488.7" y1="411.9" x2="488.9" y2="386.2" stroke="#6e7681" stroke-width="1.1" opacity="0.31" />
  <line x1="488.7" y1="411.9" x2="507.6" y2="375.3" stroke="#6e7681" stroke-width="0.9" opacity="0.18" />
  <line x1="485.3" y1="299.4" x2="508.6" y2="279.8" stroke="#6e7681" stroke-width="1.0" opacity="0.22" />
  <line x1="485.3" y1="299.4" x2="543.3" y2="332.8" stroke="#6e7681" stroke-width="0.9" opacity="0.18" />
  <line x1="661.8" y1="295.3" x2="596.8" y2="310.3" stroke="#6e7681" stroke-width="1.3" opacity="0.44" />
  <line x1="661.8" y1="295.3" x2="631.0" y2="288.6" stroke="#6e7681" stroke-width="0.9" opacity="0.18" />
  <line x1="596.8" y1="310.3" x2="569.9" y2="317.6" stroke="#6e7681" stroke-width="1.1" opacity="0.31" />
  <line x1="596.8" y1="310.3" x2="567.4" y2="337.7" stroke="#6e7681" stroke-width="0.9" opacity="0.20" />
  <line x1="596.8" y1="310.3" x2="553.1" y2="332.4" stroke="#6e7681" stroke-width="1.0" opacity="0.24" />
  <line x1="596.8" y1="310.3" x2="523.5" y2="353.6" stroke="#6e7681" stroke-width="0.9" opacity="0.20" />
  <line x1="596.8" y1="310.3" x2="533.9" y2="346.8" stroke="#6e7681" stroke-width="1.0" opacity="0.24" />
  <line x1="596.8" y1="310.3" x2="570.0" y2="349.5" stroke="#6e7681" stroke-width="0.9" opacity="0.18" />
  <line x1="596.8" y1="310.3" x2="669.9" y2="231.8" stroke="#6e7681" stroke-width="0.9" opacity="0.17" />
  <line x1="596.8" y1="310.3" x2="572.2" y2="308.8" stroke="#6e7681" stroke-width="1.1" opacity="0.31" />
  <line x1="596.8" y1="310.3" x2="631.0" y2="288.6" stroke="#6e7681" stroke-width="1.1" opacity="0.30" />
  <line x1="596.8" y1="310.3" x2="543.3" y2="332.8" stroke="#6e7681" stroke-width="1.1" opacity="0.31" />
  <line x1="542.0" y1="50.0" x2="559.6" y2="60.2" stroke="#6e7681" stroke-width="1.6" opacity="0.60" />
  <line x1="365.7" y1="409.3" x2="488.9" y2="386.2" stroke="#6e7681" stroke-width="0.9" opacity="0.18" />
  <line x1="365.7" y1="409.3" x2="289.3" y2="407.9" stroke="#6e7681" stroke-width="1.1" opacity="0.28" />
  <line x1="495.1" y1="361.7" x2="522.3" y2="379.9" stroke="#6e7681" stroke-width="0.9" opacity="0.17" />
  <line x1="495.1" y1="361.7" x2="488.9" y2="386.2" stroke="#6e7681" stroke-width="0.9" opacity="0.18" />
  <line x1="495.1" y1="361.7" x2="530.7" y2="362.1" stroke="#6e7681" stroke-width="1.0" opacity="0.22" />
  <line x1="495.1" y1="361.7" x2="523.5" y2="353.6" stroke="#6e7681" stroke-width="1.1" opacity="0.28" />
  <line x1="495.1" y1="361.7" x2="522.7" y2="368.8" stroke="#6e7681" stroke-width="1.1" opacity="0.32" />
  <line x1="495.1" y1="361.7" x2="533.9" y2="346.8" stroke="#6e7681" stroke-width="0.9" opacity="0.20" />
  <line x1="495.1" y1="361.7" x2="507.6" y2="375.3" stroke="#6e7681" stroke-width="1.0" opacity="0.22" />
  <line x1="495.1" y1="361.7" x2="528.1" y2="323.7" stroke="#6e7681" stroke-width="1.0" opacity="0.22" />
  <line x1="522.3" y1="379.9" x2="488.9" y2="386.2" stroke="#6e7681" stroke-width="1.3" opacity="0.42" />
  <line x1="522.3" y1="379.9" x2="536.2" y2="389.7" stroke="#6e7681" stroke-width="0.9" opacity="0.18" />
  <line x1="522.3" y1="379.9" x2="485.6" y2="368.4" stroke="#6e7681" stroke-width="1.1" opacity="0.31" />
  <line x1="522.3" y1="379.9" x2="530.7" y2="362.1" stroke="#6e7681" stroke-width="1.1" opacity="0.32" />
  <line x1="522.3" y1="379.9" x2="558.3" y2="364.2" stroke="#6e7681" stroke-width="1.0" opacity="0.23" />
  <line x1="522.3" y1="379.9" x2="523.5" y2="353.6" stroke="#6e7681" stroke-width="1.2" opacity="0.39" />
  <line x1="522.3" y1="379.9" x2="522.7" y2="368.8" stroke="#6e7681" stroke-width="1.0" opacity="0.26" />
  <line x1="522.3" y1="379.9" x2="533.9" y2="346.8" stroke="#6e7681" stroke-width="1.2" opacity="0.34" />
  <line x1="522.3" y1="379.9" x2="570.0" y2="349.5" stroke="#6e7681" stroke-width="0.9" opacity="0.19" />
  <line x1="522.3" y1="379.9" x2="507.6" y2="375.3" stroke="#6e7681" stroke-width="1.0" opacity="0.25" />
  <line x1="522.3" y1="379.9" x2="543.3" y2="332.8" stroke="#6e7681" stroke-width="0.9" opacity="0.17" />
  <line x1="488.9" y1="386.2" x2="536.2" y2="389.7" stroke="#6e7681" stroke-width="1.1" opacity="0.33" />
  <line x1="488.9" y1="386.2" x2="485.6" y2="368.4" stroke="#6e7681" stroke-width="0.9" opacity="0.21" />
  <line x1="488.9" y1="386.2" x2="530.7" y2="362.1" stroke="#6e7681" stroke-width="0.9" opacity="0.18" />
  <line x1="488.9" y1="386.2" x2="523.5" y2="353.6" stroke="#6e7681" stroke-width="1.3" opacity="0.41" />
  <line x1="488.9" y1="386.2" x2="522.7" y2="368.8" stroke="#6e7681" stroke-width="1.0" opacity="0.22" />
  <line x1="488.9" y1="386.2" x2="533.9" y2="346.8" stroke="#6e7681" stroke-width="1.1" opacity="0.31" />
  <line x1="488.9" y1="386.2" x2="507.6" y2="375.3" stroke="#6e7681" stroke-width="1.7" opacity="0.66" />
  <line x1="552.8" y1="320.0" x2="569.9" y2="317.6" stroke="#6e7681" stroke-width="1.5" opacity="0.55" />
  <line x1="552.8" y1="320.0" x2="567.4" y2="337.7" stroke="#6e7681" stroke-width="0.9" opacity="0.18" />
  <line x1="552.8" y1="320.0" x2="553.1" y2="332.4" stroke="#6e7681" stroke-width="1.1" opacity="0.28" />
  <line x1="552.8" y1="320.0" x2="523.5" y2="353.6" stroke="#6e7681" stroke-width="0.9" opacity="0.18" />
  <line x1="552.8" y1="320.0" x2="533.9" y2="346.8" stroke="#6e7681" stroke-width="1.1" opacity="0.28" />
  <line x1="552.8" y1="320.0" x2="551.2" y2="308.9" stroke="#6e7681" stroke-width="1.5" opacity="0.55" />
  <line x1="552.8" y1="320.0" x2="528.1" y2="323.7" stroke="#6e7681" stroke-width="1.2" opacity="0.37" />
  <line x1="552.8" y1="320.0" x2="572.2" y2="308.8" stroke="#6e7681" stroke-width="1.5" opacity="0.55" />
  <line x1="552.8" y1="320.0" x2="543.3" y2="332.8" stroke="#6e7681" stroke-width="1.5" opacity="0.55" />
  <line x1="569.9" y1="317.6" x2="553.1" y2="332.4" stroke="#6e7681" stroke-width="1.0" opacity="0.22" />
  <line x1="569.9" y1="317.6" x2="533.9" y2="346.8" stroke="#6e7681" stroke-width="1.0" opacity="0.22" />
  <line x1="569.9" y1="317.6" x2="551.2" y2="308.9" stroke="#6e7681" stroke-width="1.2" opacity="0.37" />
  <line x1="569.9" y1="317.6" x2="528.1" y2="323.7" stroke="#6e7681" stroke-width="1.1" opacity="0.28" />
  <line x1="569.9" y1="317.6" x2="572.2" y2="308.8" stroke="#6e7681" stroke-width="1.2" opacity="0.37" />
  <line x1="569.9" y1="317.6" x2="543.3" y2="332.8" stroke="#6e7681" stroke-width="1.2" opacity="0.37" />
  <line x1="536.2" y1="389.7" x2="523.5" y2="353.6" stroke="#6e7681" stroke-width="0.9" opacity="0.18" />
  <line x1="536.2" y1="389.7" x2="522.7" y2="368.8" stroke="#6e7681" stroke-width="0.9" opacity="0.18" />
  <line x1="536.2" y1="389.7" x2="533.9" y2="346.8" stroke="#6e7681" stroke-width="1.0" opacity="0.22" />
  <line x1="536.2" y1="389.7" x2="507.6" y2="375.3" stroke="#6e7681" stroke-width="1.3" opacity="0.41" />
  <line x1="485.6" y1="368.4" x2="530.7" y2="362.1" stroke="#6e7681" stroke-width="1.1" opacity="0.31" />
  <line x1="485.6" y1="368.4" x2="523.5" y2="353.6" stroke="#6e7681" stroke-width="1.4" opacity="0.47" />
  <line x1="485.6" y1="368.4" x2="522.7" y2="368.8" stroke="#6e7681" stroke-width="0.9" opacity="0.19" />
  <line x1="485.6" y1="368.4" x2="533.9" y2="346.8" stroke="#6e7681" stroke-width="1.0" opacity="0.22" />
  <line x1="530.7" y1="362.1" x2="558.3" y2="364.2" stroke="#6e7681" stroke-width="1.1" opacity="0.29" />
  <line x1="530.7" y1="362.1" x2="567.4" y2="337.7" stroke="#6e7681" stroke-width="0.9" opacity="0.17" />
  <line x1="530.7" y1="362.1" x2="553.1" y2="332.4" stroke="#6e7681" stroke-width="0.9" opacity="0.20" />
  <line x1="530.7" y1="362.1" x2="523.5" y2="353.6" stroke="#6e7681" stroke-width="1.3" opacity="0.40" />
  <line x1="530.7" y1="362.1" x2="522.7" y2="368.8" stroke="#6e7681" stroke-width="1.0" opacity="0.24" />
  <line x1="530.7" y1="362.1" x2="533.9" y2="346.8" stroke="#6e7681" stroke-width="0.9" opacity="0.20" />
  <line x1="530.7" y1="362.1" x2="543.3" y2="332.8" stroke="#6e7681" stroke-width="1.0" opacity="0.24" />
  <line x1="558.3" y1="364.2" x2="553.1" y2="332.4" stroke="#6e7681" stroke-width="0.9" opacity="0.18" />
  <line x1="558.3" y1="364.2" x2="522.7" y2="368.8" stroke="#6e7681" stroke-width="1.0" opacity="0.23" />
  <line x1="558.3" y1="364.2" x2="533.9" y2="346.8" stroke="#6e7681" stroke-width="0.9" opacity="0.18" />
  <line x1="558.3" y1="364.2" x2="570.0" y2="349.5" stroke="#6e7681" stroke-width="1.0" opacity="0.24" />
  <line x1="558.3" y1="364.2" x2="543.3" y2="332.8" stroke="#6e7681" stroke-width="1.0" opacity="0.22" />
  <line x1="567.4" y1="337.7" x2="553.1" y2="332.4" stroke="#6e7681" stroke-width="1.1" opacity="0.28" />
  <line x1="567.4" y1="337.7" x2="523.5" y2="353.6" stroke="#6e7681" stroke-width="1.0" opacity="0.22" />
  <line x1="567.4" y1="337.7" x2="533.9" y2="346.8" stroke="#6e7681" stroke-width="1.1" opacity="0.28" />
  <line x1="567.4" y1="337.7" x2="570.0" y2="349.5" stroke="#6e7681" stroke-width="0.9" opacity="0.20" />
  <line x1="567.4" y1="337.7" x2="543.3" y2="332.8" stroke="#6e7681" stroke-width="1.2" opacity="0.37" />
  <line x1="553.1" y1="332.4" x2="523.5" y2="353.6" stroke="#6e7681" stroke-width="1.1" opacity="0.28" />
  <line x1="553.1" y1="332.4" x2="533.9" y2="346.8" stroke="#6e7681" stroke-width="1.2" opacity="0.37" />
  <line x1="553.1" y1="332.4" x2="551.2" y2="308.9" stroke="#6e7681" stroke-width="1.0" opacity="0.22" />
  <line x1="553.1" y1="332.4" x2="570.0" y2="349.5" stroke="#6e7681" stroke-width="1.0" opacity="0.24" />
  <line x1="553.1" y1="332.4" x2="528.1" y2="323.7" stroke="#6e7681" stroke-width="0.9" opacity="0.18" />
  <line x1="553.1" y1="332.4" x2="572.2" y2="308.8" stroke="#6e7681" stroke-width="1.0" opacity="0.22" />
  <line x1="553.1" y1="332.4" x2="543.3" y2="332.8" stroke="#6e7681" stroke-width="1.5" opacity="0.55" />
  <line x1="523.5" y1="353.6" x2="522.7" y2="368.8" stroke="#6e7681" stroke-width="1.1" opacity="0.29" />
  <line x1="523.5" y1="353.6" x2="533.9" y2="346.8" stroke="#6e7681" stroke-width="1.4" opacity="0.47" />
  <line x1="523.5" y1="353.6" x2="570.0" y2="349.5" stroke="#6e7681" stroke-width="0.9" opacity="0.20" />
  <line x1="523.5" y1="353.6" x2="507.6" y2="375.3" stroke="#6e7681" stroke-width="1.1" opacity="0.31" />
  <line x1="523.5" y1="353.6" x2="528.1" y2="323.7" stroke="#6e7681" stroke-width="1.1" opacity="0.31" />
  <line x1="523.5" y1="353.6" x2="543.3" y2="332.8" stroke="#6e7681" stroke-width="1.2" opacity="0.37" />
  <line x1="522.7" y1="368.8" x2="533.9" y2="346.8" stroke="#6e7681" stroke-width="1.2" opacity="0.34" />
  <line x1="522.7" y1="368.8" x2="507.6" y2="375.3" stroke="#6e7681" stroke-width="1.0" opacity="0.25" />
  <line x1="522.7" y1="368.8" x2="528.1" y2="323.7" stroke="#6e7681" stroke-width="1.0" opacity="0.25" />
  <line x1="522.7" y1="368.8" x2="543.3" y2="332.8" stroke="#6e7681" stroke-width="0.9" opacity="0.17" />
  <line x1="533.9" y1="346.8" x2="551.2" y2="308.9" stroke="#6e7681" stroke-width="1.0" opacity="0.22" />
  <line x1="533.9" y1="346.8" x2="570.0" y2="349.5" stroke="#6e7681" stroke-width="1.0" opacity="0.24" />
  <line x1="533.9" y1="346.8" x2="507.6" y2="375.3" stroke="#6e7681" stroke-width="1.3" opacity="0.44" />
  <line x1="533.9" y1="346.8" x2="528.1" y2="323.7" stroke="#6e7681" stroke-width="1.3" opacity="0.44" />
  <line x1="533.9" y1="346.8" x2="572.2" y2="308.8" stroke="#6e7681" stroke-width="1.0" opacity="0.22" />
  <line x1="533.9" y1="346.8" x2="543.3" y2="332.8" stroke="#6e7681" stroke-width="1.5" opacity="0.55" />
  <line x1="249.6" y1="111.7" x2="219.0" y2="122.5" stroke="#6e7681" stroke-width="1.0" opacity="0.22" />
  <line x1="649.5" y1="345.7" x2="543.3" y2="332.8" stroke="#6e7681" stroke-width="1.0" opacity="0.22" />
  <line x1="551.2" y1="308.9" x2="528.1" y2="323.7" stroke="#6e7681" stroke-width="1.1" opacity="0.28" />
  <line x1="551.2" y1="308.9" x2="572.2" y2="308.8" stroke="#6e7681" stroke-width="1.2" opacity="0.37" />
  <line x1="551.2" y1="308.9" x2="543.3" y2="332.8" stroke="#6e7681" stroke-width="1.2" opacity="0.37" />
  <line x1="700.4" y1="202.8" x2="686.7" y2="189.5" stroke="#6e7681" stroke-width="1.5" opacity="0.55" />
  <line x1="700.4" y1="202.8" x2="669.9" y2="231.8" stroke="#6e7681" stroke-width="1.3" opacity="0.41" />
  <line x1="686.7" y1="189.5" x2="669.9" y2="231.8" stroke="#6e7681" stroke-width="1.0" opacity="0.24" />
  <line x1="570.0" y1="349.5" x2="543.3" y2="332.8" stroke="#6e7681" stroke-width="1.1" opacity="0.31" />
  <line x1="507.6" y1="375.3" x2="528.1" y2="323.7" stroke="#6e7681" stroke-width="1.0" opacity="0.22" />
  <line x1="528.1" y1="323.7" x2="508.6" y2="279.8" stroke="#6e7681" stroke-width="1.2" opacity="0.37" />
  <line x1="528.1" y1="323.7" x2="515.2" y2="262.5" stroke="#6e7681" stroke-width="0.9" opacity="0.18" />
  <line x1="528.1" y1="323.7" x2="572.2" y2="308.8" stroke="#6e7681" stroke-width="1.1" opacity="0.28" />
  <line x1="528.1" y1="323.7" x2="543.3" y2="332.8" stroke="#6e7681" stroke-width="1.1" opacity="0.28" />
  <line x1="508.6" y1="279.8" x2="515.2" y2="262.5" stroke="#6e7681" stroke-width="1.1" opacity="0.28" />
  <line x1="572.2" y1="308.8" x2="631.0" y2="288.6" stroke="#6e7681" stroke-width="1.1" opacity="0.31" />
  <line x1="572.2" y1="308.8" x2="543.3" y2="332.8" stroke="#6e7681" stroke-width="1.2" opacity="0.37" />
  <circle cx="513.9" cy="324.2" r="14.4" fill="#e67e22" opacity="0.12" />
  <circle cx="513.9" cy="324.2" r="10.4" fill="#e67e22" opacity="0.88" />
  <circle cx="472.6" cy="308.4" r="11.7" fill="#3498db" opacity="0.12" />
  <circle cx="472.6" cy="308.4" r="7.7" fill="#3498db" opacity="0.88" />
  <circle cx="498.2" cy="425.4" r="20" fill="#3498db" opacity="0.12" />
  <circle cx="498.2" cy="425.4" r="16" fill="#3498db" opacity="0.88" />
  <circle cx="477.7" cy="332.2" r="19.8" fill="#7f8c8d" opacity="0.12" />
  <circle cx="477.7" cy="332.2" r="15.8" fill="#7f8c8d" opacity="0.88" />
  <circle cx="518.1" cy="392.4" r="20" fill="#9b59b6" opacity="0.12" />
  <circle cx="518.1" cy="392.4" r="16" fill="#9b59b6" opacity="0.88" />
  <circle cx="454.2" cy="292.1" r="10.8" fill="#3498db" opacity="0.12" />
  <circle cx="454.2" cy="292.1" r="6.8" fill="#3498db" opacity="0.88" />
  <circle cx="520.9" cy="311.8" r="9.9" fill="#3498db" opacity="0.12" />
  <circle cx="520.9" cy="311.8" r="5.9" fill="#3498db" opacity="0.88" />
  <circle cx="601.4" cy="353.0" r="17.1" fill="#e67e22" opacity="0.12" />
  <circle cx="601.4" cy="353.0" r="13.1" fill="#e67e22" opacity="0.88" />
  <circle cx="498.4" cy="337.1" r="18.0" fill="#3498db" opacity="0.12" />
  <circle cx="498.4" cy="337.1" r="14.0" fill="#3498db" opacity="0.88" />
  <circle cx="499.2" cy="325.0" r="16.2" fill="#3498db" opacity="0.12" />
  <circle cx="499.2" cy="325.0" r="12.2" fill="#3498db" opacity="0.88" />
  <circle cx="485.1" cy="320.7" r="18.0" fill="#3498db" opacity="0.12" />
  <circle cx="485.1" cy="320.7" r="14.0" fill="#3498db" opacity="0.88" />
  <circle cx="446.3" cy="316.7" r="20" fill="#e74c3c" opacity="0.12" />
  <circle cx="446.3" cy="316.7" r="16" fill="#e74c3c" opacity="0.88" />
  <circle cx="488.7" cy="411.9" r="20" fill="#e74c3c" opacity="0.12" />
  <circle cx="488.7" cy="411.9" r="16" fill="#e74c3c" opacity="0.88" />
  <circle cx="485.3" cy="299.4" r="12.6" fill="#2ecc71" opacity="0.12" />
  <circle cx="485.3" cy="299.4" r="8.6" fill="#2ecc71" opacity="0.88" />
  <circle cx="661.8" cy="295.3" r="14.4" fill="#e74c3c" opacity="0.12" />
  <circle cx="661.8" cy="295.3" r="10.4" fill="#e74c3c" opacity="0.88" />
  <circle cx="800.7" cy="119.7" r="16.2" fill="#3498db" opacity="0.12" />
  <circle cx="800.7" cy="119.7" r="12.2" fill="#3498db" opacity="0.88" />
  <circle cx="596.8" cy="310.3" r="14.4" fill="#e74c3c" opacity="0.12" />
  <circle cx="596.8" cy="310.3" r="10.4" fill="#e74c3c" opacity="0.88" />
  <circle cx="910.0" cy="367.7" r="9" fill="#3498db" opacity="0.12" />
  <circle cx="910.0" cy="367.7" r="5" fill="#3498db" opacity="0.88" />
  <circle cx="542.0" cy="50.0" r="16.2" fill="#3498db" opacity="0.12" />
  <circle cx="542.0" cy="50.0" r="12.2" fill="#3498db" opacity="0.88" />
  <circle cx="559.6" cy="60.2" r="15.3" fill="#3498db" opacity="0.12" />
  <circle cx="559.6" cy="60.2" r="11.3" fill="#3498db" opacity="0.88" />
  <circle cx="365.7" cy="409.3" r="9.9" fill="#3498db" opacity="0.12" />
  <circle cx="365.7" cy="409.3" r="5.9" fill="#3498db" opacity="0.88" />
  <circle cx="495.1" cy="361.7" r="16.2" fill="#9b59b6" opacity="0.12" />
  <circle cx="495.1" cy="361.7" r="12.2" fill="#9b59b6" opacity="0.88" />
  <circle cx="522.3" cy="379.9" r="19.8" fill="#9b59b6" opacity="0.12" />
  <circle cx="522.3" cy="379.9" r="15.8" fill="#9b59b6" opacity="0.88" />
  <circle cx="488.9" cy="386.2" r="12.6" fill="#9b59b6" opacity="0.12" />
  <circle cx="488.9" cy="386.2" r="8.6" fill="#9b59b6" opacity="0.88" />
  <circle cx="552.8" cy="320.0" r="9" fill="#2ecc71" opacity="0.12" />
  <circle cx="552.8" cy="320.0" r="5" fill="#2ecc71" opacity="0.88" />
  <circle cx="569.9" cy="317.6" r="9.9" fill="#7f8c8d" opacity="0.12" />
  <circle cx="569.9" cy="317.6" r="5.9" fill="#7f8c8d" opacity="0.88" />
  <circle cx="536.2" cy="389.7" r="15.3" fill="#e67e22" opacity="0.12" />
  <circle cx="536.2" cy="389.7" r="11.3" fill="#e67e22" opacity="0.88" />
  <circle cx="485.6" cy="368.4" r="20" fill="#2ecc71" opacity="0.12" />
  <circle cx="485.6" cy="368.4" r="16" fill="#2ecc71" opacity="0.88" />
  <circle cx="289.3" cy="407.9" r="10.8" fill="#9b59b6" opacity="0.12" />
  <circle cx="289.3" cy="407.9" r="6.8" fill="#9b59b6" opacity="0.88" />
  <circle cx="50.0" cy="215.0" r="9" fill="#7f8c8d" opacity="0.12" />
  <circle cx="50.0" cy="215.0" r="5" fill="#7f8c8d" opacity="0.88" />
  <circle cx="530.7" cy="362.1" r="16.2" fill="#3498db" opacity="0.12" />
  <circle cx="530.7" cy="362.1" r="12.2" fill="#3498db" opacity="0.88" />
  <circle cx="558.3" cy="364.2" r="17.1" fill="#7f8c8d" opacity="0.12" />
  <circle cx="558.3" cy="364.2" r="13.1" fill="#7f8c8d" opacity="0.88" />
  <circle cx="567.4" cy="337.7" r="13.5" fill="#7f8c8d" opacity="0.12" />
  <circle cx="567.4" cy="337.7" r="9.5" fill="#7f8c8d" opacity="0.88" />
  <circle cx="113.2" cy="430.3" r="9" fill="#7f8c8d" opacity="0.12" />
  <circle cx="113.2" cy="430.3" r="5" fill="#7f8c8d" opacity="0.88" />
  <circle cx="553.1" cy="332.4" r="11.7" fill="#7f8c8d" opacity="0.12" />
  <circle cx="553.1" cy="332.4" r="7.7" fill="#7f8c8d" opacity="0.88" />
  <circle cx="523.5" cy="353.6" r="13.5" fill="#7f8c8d" opacity="0.12" />
  <circle cx="523.5" cy="353.6" r="9.5" fill="#7f8c8d" opacity="0.88" />
  <circle cx="522.7" cy="368.8" r="19.8" fill="#2ecc71" opacity="0.12" />
  <circle cx="522.7" cy="368.8" r="15.8" fill="#2ecc71" opacity="0.88" />
  <circle cx="533.9" cy="346.8" r="11.7" fill="#7f8c8d" opacity="0.12" />
  <circle cx="533.9" cy="346.8" r="7.7" fill="#7f8c8d" opacity="0.88" />
  <circle cx="249.6" cy="111.7" r="11.7" fill="#7f8c8d" opacity="0.12" />
  <circle cx="249.6" cy="111.7" r="7.7" fill="#7f8c8d" opacity="0.88" />
  <circle cx="649.5" cy="345.7" r="11.7" fill="#3498db" opacity="0.12" />
  <circle cx="649.5" cy="345.7" r="7.7" fill="#3498db" opacity="0.88" />
  <circle cx="551.2" cy="308.9" r="9.9" fill="#7f8c8d" opacity="0.12" />
  <circle cx="551.2" cy="308.9" r="5.9" fill="#7f8c8d" opacity="0.88" />
  <circle cx="700.4" cy="202.8" r="10.8" fill="#e67e22" opacity="0.12" />
  <circle cx="700.4" cy="202.8" r="6.8" fill="#e67e22" opacity="0.88" />
  <circle cx="686.7" cy="189.5" r="10.8" fill="#e67e22" opacity="0.12" />
  <circle cx="686.7" cy="189.5" r="6.8" fill="#e67e22" opacity="0.88" />
  <circle cx="570.0" cy="349.5" r="14.4" fill="#7f8c8d" opacity="0.12" />
  <circle cx="570.0" cy="349.5" r="10.4" fill="#7f8c8d" opacity="0.88" />
  <circle cx="669.9" cy="231.8" r="15.3" fill="#e67e22" opacity="0.12" />
  <circle cx="669.9" cy="231.8" r="11.3" fill="#e67e22" opacity="0.88" />
  <circle cx="219.0" cy="122.5" r="9.9" fill="#7f8c8d" opacity="0.12" />
  <circle cx="219.0" cy="122.5" r="5.9" fill="#7f8c8d" opacity="0.88" />
  <circle cx="507.6" cy="375.3" r="10.8" fill="#7f8c8d" opacity="0.12" />
  <circle cx="507.6" cy="375.3" r="6.8" fill="#7f8c8d" opacity="0.88" />
  <circle cx="528.1" cy="323.7" r="10.8" fill="#7f8c8d" opacity="0.12" />
  <circle cx="528.1" cy="323.7" r="6.8" fill="#7f8c8d" opacity="0.88" />
  <circle cx="508.6" cy="279.8" r="9" fill="#2ecc71" opacity="0.12" />
  <circle cx="508.6" cy="279.8" r="5" fill="#2ecc71" opacity="0.88" />
  <circle cx="515.2" cy="262.5" r="11.7" fill="#2ecc71" opacity="0.12" />
  <circle cx="515.2" cy="262.5" r="7.7" fill="#2ecc71" opacity="0.88" />
  <circle cx="572.2" cy="308.8" r="9.9" fill="#e74c3c" opacity="0.12" />
  <circle cx="572.2" cy="308.8" r="5.9" fill="#e74c3c" opacity="0.88" />
  <circle cx="631.0" cy="288.6" r="14.4" fill="#e74c3c" opacity="0.12" />
  <circle cx="631.0" cy="288.6" r="10.4" fill="#e74c3c" opacity="0.88" />
  <circle cx="543.3" cy="332.8" r="9.9" fill="#7f8c8d" opacity="0.12" />
  <circle cx="543.3" cy="332.8" r="5.9" fill="#7f8c8d" opacity="0.88" />
  <circle cx="251.4" cy="500.0" r="9" fill="#7f8c8d" opacity="0.12" />
  <circle cx="251.4" cy="500.0" r="5" fill="#7f8c8d" opacity="0.88" />
  <rect x="526.3" y="428.5" width="45.2" height="15" fill="#0d1117" opacity="0.75" rx="2" />
  <text x="527.3" y="439.5" font-family="system-ui, -apple-system, sans-serif" font-size="12" fill="#e6edf3" text-anchor="start">XoxdWM</text>
  <rect x="482.3" y="312.9" width="16.4" height="15" fill="#0d1117" opacity="0.75" rx="2" />
  <text x="483.3" y="323.9" font-family="system-ui, -apple-system, sans-serif" font-size="12" fill="#e6edf3" text-anchor="start">pp</text>
  <rect x="516.2" y="505.1" width="117.2" height="15" fill="#0d1117" opacity="0.75" rx="2" />
  <text x="517.2" y="516.1" font-family="system-ui, -apple-system, sans-serif" font-size="12" fill="#e6edf3" text-anchor="start">GloriousFlywheel</text>
  <rect x="495.5" y="202.1" width="124.4" height="15" fill="#0d1117" opacity="0.75" rx="2" />
  <text x="496.5" y="213.1" font-family="system-ui, -apple-system, sans-serif" font-size="12" fill="#e6edf3" text-anchor="start">tinyland-huskycat</text>
  <rect x="536.1" y="317.9" width="95.6" height="15" fill="#0d1117" opacity="0.75" rx="2" />
  <text x="537.1" y="328.9" font-family="system-ui, -apple-system, sans-serif" font-size="12" fill="#e6edf3" text-anchor="start">GIS_Shortcuts</text>
  <rect x="463.0" y="170.8" width="117.2" height="15" fill="#0d1117" opacity="0.75" rx="2" />
  <text x="464.0" y="181.8" font-family="system-ui, -apple-system, sans-serif" font-size="12" fill="#e6edf3" text-anchor="start">tinyland-cleanup</text>
  <rect x="528.8" y="290.9" width="95.6" height="15" fill="#0d1117" opacity="0.75" rx="2" />
  <text x="529.8" y="301.9" font-family="system-ui, -apple-system, sans-serif" font-size="12" fill="#e6edf3" text-anchor="start">tinyland-kdbx</text>
  <rect x="616.5" y="377.9" width="110.0" height="15" fill="#0d1117" opacity="0.75" rx="2" />
  <text x="617.5" y="388.9" font-family="system-ui, -apple-system, sans-serif" font-size="12" fill="#e6edf3" text-anchor="start">hiberpower-ntfs</text>
  <rect x="514.4" y="259.3" width="138.8" height="15" fill="#0d1117" opacity="0.75" rx="2" />
  <text x="515.4" y="270.3" font-family="system-ui, -apple-system, sans-serif" font-size="12" fill="#e6edf3" text-anchor="start">Ansible-DAG-Harness</text>
  <rect x="513.4" y="231.7" width="66.8" height="15" fill="#0d1117" opacity="0.75" rx="2" />
  <text x="514.4" y="242.7" font-family="system-ui, -apple-system, sans-serif" font-size="12" fill="#e6edf3" text-anchor="start">betterkvm</text>
  <rect x="501.1" y="265.2" width="95.6" height="15" fill="#0d1117" opacity="0.75" rx="2" />
  <text x="502.1" y="276.2" font-family="system-ui, -apple-system, sans-serif" font-size="12" fill="#e6edf3" text-anchor="start">DarwinNicUtil</text>
  <rect x="464.3" y="396.5" width="95.6" height="15" fill="#0d1117" opacity="0.75" rx="2" />
  <text x="465.3" y="407.5" font-family="system-ui, -apple-system, sans-serif" font-size="12" fill="#e6edf3" text-anchor="start">RemoteJuggler</text>
  <rect x="506.7" y="475.8" width="131.6" height="15" fill="#0d1117" opacity="0.75" rx="2" />
  <text x="507.7" y="486.8" font-family="system-ui, -apple-system, sans-serif" font-size="12" fill="#e6edf3" text-anchor="start">pixelwise-research</text>
  <rect x="495.9" y="217.3" width="59.6" height="15" fill="#0d1117" opacity="0.75" rx="2" />
  <text x="496.9" y="228.3" font-family="system-ui, -apple-system, sans-serif" font-size="12" fill="#e6edf3" text-anchor="start">gnucashr</text>
  <rect x="674.2" y="284.6" width="66.8" height="15" fill="#0d1117" opacity="0.75" rx="2" />
  <text x="675.2" y="295.6" font-family="system-ui, -apple-system, sans-serif" font-size="12" fill="#e6edf3" text-anchor="start">quickchpl</text>
  <rect x="654.9" y="112.9" width="131.6" height="15" fill="#0d1117" opacity="0.75" rx="2" />
  <text x="785.5" y="123.9" font-family="system-ui, -apple-system, sans-serif" font-size="12" fill="#e6edf3" text-anchor="end">tinyscale-mikrotik</text>
  <rect x="609.2" y="244.5" width="59.6" height="15" fill="#0d1117" opacity="0.75" rx="2" />
  <text x="610.2" y="255.5" font-family="system-ui, -apple-system, sans-serif" font-size="12" fill="#e6edf3" text-anchor="start">aoc-2025</text>
  <rect x="829.0" y="360.9" width="74.0" height="15" fill="#0d1117" opacity="0.75" rx="2" />
  <text x="902.0" y="371.9" font-family="system-ui, -apple-system, sans-serif" font-size="12" fill="#e6edf3" text-anchor="end">tinywaffle</text>
  <rect x="556.2" y="39.8" width="66.8" height="15" fill="#0d1117" opacity="0.75" rx="2" />
  <text x="557.2" y="50.8" font-family="system-ui, -apple-system, sans-serif" font-size="12" fill="#e6edf3" text-anchor="start">searchies</text>
  <rect x="572.9" y="56.8" width="59.6" height="15" fill="#0d1117" opacity="0.75" rx="2" />
  <text x="573.9" y="67.8" font-family="system-ui, -apple-system, sans-serif" font-size="12" fill="#e6edf3" text-anchor="start">ts-caddy</text>
  <rect x="373.6" y="410.3" width="66.8" height="15" fill="#0d1117" opacity="0.75" rx="2" />
  <text x="374.6" y="421.3" font-family="system-ui, -apple-system, sans-serif" font-size="12" fill="#e6edf3" text-anchor="start">HCI-notes</text>
  <rect x="509.3" y="247.0" width="88.4" height="15" fill="#0d1117" opacity="0.75" rx="2" />
  <text x="510.3" y="258.0" font-family="system-ui, -apple-system, sans-serif" font-size="12" fill="#e6edf3" text-anchor="start">FastPhotoAPI</text>
  <rect x="540.1" y="357.3" width="81.2" height="15" fill="#0d1117" opacity="0.75" rx="2" />
  <text x="541.1" y="368.3" font-family="system-ui, -apple-system, sans-serif" font-size="12" fill="#e6edf3" text-anchor="start">timberbuddy</text>
  <rect x="499.5" y="443.8" width="81.2" height="15" fill="#0d1117" opacity="0.75" rx="2" />
  <text x="500.5" y="454.8" font-family="system-ui, -apple-system, sans-serif" font-size="12" fill="#e6edf3" text-anchor="start">tetrahedron</text>
  <rect x="559.8" y="414.5" width="95.6" height="15" fill="#0d1117" opacity="0.75" rx="2" />
  <text x="560.8" y="425.5" font-family="system-ui, -apple-system, sans-serif" font-size="12" fill="#e6edf3" text-anchor="start">AccuWixReport</text>
  <rect x="577.8" y="212.6" width="95.6" height="15" fill="#0d1117" opacity="0.75" rx="2" />
  <text x="578.8" y="223.6" font-family="system-ui, -apple-system, sans-serif" font-size="12" fill="#e6edf3" text-anchor="start">Jess-AOC-2023</text>
  <rect x="549.5" y="463.8" width="81.2" height="15" fill="#0d1117" opacity="0.75" rx="2" />
  <text x="550.5" y="474.8" font-family="system-ui, -apple-system, sans-serif" font-size="12" fill="#e6edf3" text-anchor="start">TurkeyProbe</text>
  <rect x="503.6" y="492.8" width="153.2" height="15" fill="#0d1117" opacity="0.75" rx="2" />
  <text x="504.6" y="503.8" font-family="system-ui, -apple-system, sans-serif" font-size="12" fill="#e6edf3" text-anchor="start">MerlinAI-Interpreters</text>
  <rect x="298.1" y="393.3" width="110.0" height="15" fill="#0d1117" opacity="0.75" rx="2" />
  <text x="299.1" y="404.3" font-family="system-ui, -apple-system, sans-serif" font-size="12" fill="#e6edf3" text-anchor="start">IntroTypeScript</text>
  <rect x="57.0" y="208.2" width="110.0" height="15" fill="#0d1117" opacity="0.75" rx="2" />
  <text x="58.0" y="219.2" font-family="system-ui, -apple-system, sans-serif" font-size="12" fill="#e6edf3" text-anchor="start">IG-3DP-Profiles</text>
  <rect x="544.9" y="349.8" width="66.8" height="15" fill="#0d1117" opacity="0.75" rx="2" />
  <text x="545.9" y="360.8" font-family="system-ui, -apple-system, sans-serif" font-size="12" fill="#e6edf3" text-anchor="start">DLA-Flask</text>
  <rect x="573.4" y="310.1" width="38.0" height="15" fill="#0d1117" opacity="0.75" rx="2" />
  <text x="574.4" y="321.1" font-family="system-ui, -apple-system, sans-serif" font-size="12" fill="#e6edf3" text-anchor="start">USBoN</text>
  <rect x="578.9" y="419.8" width="203.6" height="15" fill="#0d1117" opacity="0.75" rx="2" />
  <text x="579.9" y="430.8" font-family="system-ui, -apple-system, sans-serif" font-size="12" fill="#e6edf3" text-anchor="start">chrome-remote-desktop-budgie</text>
  <rect x="120.2" y="423.5" width="124.4" height="15" fill="#0d1117" opacity="0.75" rx="2" />
  <text x="121.2" y="434.5" font-family="system-ui, -apple-system, sans-serif" font-size="12" fill="#e6edf3" text-anchor="start">OminousBeepingApp</text>
  <rect x="562.8" y="390.7" width="138.8" height="15" fill="#0d1117" opacity="0.75" rx="2" />
  <text x="563.8" y="401.7" font-family="system-ui, -apple-system, sans-serif" font-size="12" fill="#e6edf3" text-anchor="start">mo-image-identifier</text>
  <rect x="535.0" y="320.5" width="196.4" height="15" fill="#0d1117" opacity="0.75" rx="2" />
  <text x="536.0" y="331.5" font-family="system-ui, -apple-system, sans-serif" font-size="12" fill="#e6edf3" text-anchor="start">squirrel-leaflet-annotation</text>
  <rect x="540.5" y="296.2" width="74.0" height="15" fill="#0d1117" opacity="0.75" rx="2" />
  <text x="541.5" y="307.2" font-family="system-ui, -apple-system, sans-serif" font-size="12" fill="#e6edf3" text-anchor="start">Shiny-Apps</text>
  <rect x="543.6" y="156.2" width="138.8" height="15" fill="#0d1117" opacity="0.75" rx="2" />
  <text x="544.6" y="167.2" font-family="system-ui, -apple-system, sans-serif" font-size="12" fill="#e6edf3" text-anchor="start">bbox-jest-puppeteer</text>
  <rect x="259.3" y="101.8" width="88.4" height="15" fill="#0d1117" opacity="0.75" rx="2" />
  <text x="260.3" y="112.8" font-family="system-ui, -apple-system, sans-serif" font-size="12" fill="#e6edf3" text-anchor="start">DoverDisplay</text>
  <rect x="659.2" y="339.3" width="81.2" height="15" fill="#0d1117" opacity="0.75" rx="2" />
  <text x="660.2" y="350.3" font-family="system-ui, -apple-system, sans-serif" font-size="12" fill="#e6edf3" text-anchor="start">LeafletSync</text>
  <rect x="559.1" y="403.5" width="167.6" height="15" fill="#0d1117" opacity="0.75" rx="2" />
  <text x="560.1" y="414.5" font-family="system-ui, -apple-system, sans-serif" font-size="12" fill="#e6edf3" text-anchor="start">misc-roi-distance-notes</text>
  <rect x="709.2" y="197.9" width="138.8" height="15" fill="#0d1117" opacity="0.75" rx="2" />
  <text x="710.2" y="208.9" font-family="system-ui, -apple-system, sans-serif" font-size="12" fill="#e6edf3" text-anchor="start">Arduino_Coil_Winder</text>
  <rect x="695.5" y="180.9" width="30.8" height="15" fill="#0d1117" opacity="0.75" rx="2" />
  <text x="696.5" y="191.9" font-family="system-ui, -apple-system, sans-serif" font-size="12" fill="#e6edf3" text-anchor="start">momo</text>
  <rect x="582.4" y="433.3" width="38.0" height="15" fill="#0d1117" opacity="0.75" rx="2" />
  <text x="583.4" y="444.3" font-family="system-ui, -apple-system, sans-serif" font-size="12" fill="#e6edf3" text-anchor="start">clipi</text>
  <rect x="683.2" y="214.3" width="110.0" height="15" fill="#0d1117" opacity="0.75" rx="2" />
  <text x="684.2" y="225.3" font-family="system-ui, -apple-system, sans-serif" font-size="12" fill="#e6edf3" text-anchor="start">AeroTaz5_hotfix</text>
  <rect x="226.9" y="118.8" width="110.0" height="15" fill="#0d1117" opacity="0.75" rx="2" />
  <text x="227.9" y="129.8" font-family="system-ui, -apple-system, sans-serif" font-size="12" fill="#e6edf3" text-anchor="start">Funmat-HT-Notes</text>
  <rect x="516.4" y="380.3" width="81.2" height="15" fill="#0d1117" opacity="0.75" rx="2" />
  <text x="517.4" y="391.3" font-family="system-ui, -apple-system, sans-serif" font-size="12" fill="#e6edf3" text-anchor="start">static-site</text>
  <rect x="536.9" y="279.2" width="95.6" height="15" fill="#0d1117" opacity="0.75" rx="2" />
  <text x="537.9" y="290.2" font-family="system-ui, -apple-system, sans-serif" font-size="12" fill="#e6edf3" text-anchor="start">Flask-Manager</text>
  <rect x="515.6" y="363.3" width="110.0" height="15" fill="#0d1117" opacity="0.75" rx="2" />
  <text x="516.6" y="374.3" font-family="system-ui, -apple-system, sans-serif" font-size="12" fill="#e6edf3" text-anchor="start">FieldProcessing</text>
  <rect x="524.9" y="185.1" width="81.2" height="15" fill="#0d1117" opacity="0.75" rx="2" />
  <text x="525.9" y="196.1" font-family="system-ui, -apple-system, sans-serif" font-size="12" fill="#e6edf3" text-anchor="start">rJDKmanager</text>
  <rect x="580.1" y="450.3" width="59.6" height="15" fill="#0d1117" opacity="0.75" rx="2" />
  <text x="581.1" y="461.3" font-family="system-ui, -apple-system, sans-serif" font-size="12" fill="#e6edf3" text-anchor="start">tagnotes</text>
  <rect x="643.4" y="231.3" width="81.2" height="15" fill="#0d1117" opacity="0.75" rx="2" />
  <text x="644.4" y="242.3" font-family="system-ui, -apple-system, sans-serif" font-size="12" fill="#e6edf3" text-anchor="start">ChapelTests</text>
  <rect x="551.2" y="337.5" width="88.4" height="15" fill="#0d1117" opacity="0.75" rx="2" />
  <text x="552.2" y="348.5" font-family="system-ui, -apple-system, sans-serif" font-size="12" fill="#e6edf3" text-anchor="start">Xfinity-WiFi</text>
  <rect x="258.4" y="493.2" width="66.8" height="15" fill="#0d1117" opacity="0.75" rx="2" />
  <text x="259.4" y="504.2" font-family="system-ui, -apple-system, sans-serif" font-size="12" fill="#e6edf3" text-anchor="start">home-wiki</text>
  <rect x="793" y="36" width="155" height="120" rx="6" fill="#161b22" stroke="#30363d" stroke-width="1" opacity="0.95" />
  <circle cx="810" cy="52" r="5" fill="#e74c3c" opacity="0.88" />
  <text x="820" y="56" font-family="system-ui, -apple-system, sans-serif" font-size="10" fill="#e6edf3">Languages &amp; Compilers</text>
  <circle cx="810" cy="69" r="5" fill="#3498db" opacity="0.88" />
  <text x="820" y="73" font-family="system-ui, -apple-system, sans-serif" font-size="10" fill="#e6edf3">Infrastructure &amp; DevOps</text>
  <circle cx="810" cy="86" r="5" fill="#e67e22" opacity="0.88" />
  <text x="820" y="90" font-family="system-ui, -apple-system, sans-serif" font-size="10" fill="#e6edf3">Hardware &amp; Maker</text>
  <circle cx="810" cy="103" r="5" fill="#2ecc71" opacity="0.88" />
  <text x="820" y="107" font-family="system-ui, -apple-system, sans-serif" font-size="10" fill="#e6edf3">ML &amp; Data</text>
  <circle cx="810" cy="120" r="5" fill="#9b59b6" opacity="0.88" />
  <text x="820" y="124" font-family="system-ui, -apple-system, sans-serif" font-size="10" fill="#e6edf3">Web &amp; Apps</text>
  <circle cx="810" cy="137" r="5" fill="#7f8c8d" opacity="0.88" />
  <text x="820" y="141" font-family="system-ui, -apple-system, sans-serif" font-size="10" fill="#e6edf3">Other</text>
  <text x="870" y="150" font-family="system-ui, -apple-system, sans-serif" font-size="8" fill="#8b949e" text-anchor="middle">54 repos · 207 edges</text>
</svg>