<svg xmlns="http://www.w3.org/2000/svg" width="960" height="600" viewBox="0 0 960 600">
  <rect width="960" height="600" fill="#0d1117" rx="8" />
  <text x="480" y="24" font-family="system-ui, -apple-system, sans-serif" font-size="13" fill="#8b949e" text-anchor="middle" font-weight="500">Repo Relationship Graph &#x2014; Pairwise Topic &amp; Language Similarity</text>
  <line x1="50" y1="550" x2="910" y2="550" stroke="#484f58" stroke-width="0.5" opacity="0.5" />
  <text x="50" y="570" font-family="system-ui, -apple-system, sans-serif" font-size="9" fill="#8b949e" opacity="0.6">Updated daily by GitHub Actions</text>
  <text x="50" y="588" font-family="system-ui, -apple-system, sans-serif" font-size="9" fill="#8b949e" opacity="0.6">networkx spring_layout · Jaccard similarity &gt; 0.15</text>
  <text x="910" y="570" font-family="system-ui, -apple-system, sans-serif" font-size="9" fill="#8b949e" text-anchor="end" opacity="0.6">55 repos · 227 edges</text>
  <line x1="613.9" y1="320.9" x2="680.9" y2="328.9" stroke="#6e7681" stroke-width="1.2" opacity="0.34" />
  <line x1="613.9" y1="320.9" x2="728.2" y2="328.7" stroke="#6e7681" stroke-width="0.9" opacity="0.18" />
  <line x1="613.9" y1="320.9" x2="589.4" y2="333.3" stroke="#6e7681" stroke-width="1.0" opacity="0.25" />
  <line x1="613.9" y1="320.9" x2="668.0" y2="348.2" stroke="#6e7681" stroke-width="0.9" opacity="0.20" />
  <line x1="613.9" y1="320.9" x2="621.1" y2="349.4" stroke="#6e7681" stroke-width="1.0" opacity="0.22" />
  <line x1="680.9" y1="328.9" x2="728.2" y2="328.7" stroke="#6e7681" stroke-width="1.1" opacity="0.29" />
  <line x1="680.9" y1="328.9" x2="589.4" y2="333.3" stroke="#6e7681" stroke-width="1.2" opacity="0.34" />
  <line x1="680.9" y1="328.9" x2="754.8" y2="305.8" stroke="#6e7681" stroke-width="0.9" opacity="0.21" />
  <line x1="680.9" y1="328.9" x2="719.8" y2="318.6" stroke="#6e7681" stroke-width="1.1" opacity="0.30" />
  <line x1="680.9" y1="328.9" x2="738.8" y2="333.6" stroke="#6e7681" stroke-width="0.9" opacity="0.20" />
  <line x1="680.9" y1="328.9" x2="757.7" y2="326.5" stroke="#6e7681" stroke-width="1.0" opacity="0.22" />
  <line x1="680.9" y1="328.9" x2="753.8" y2="317.9" stroke="#6e7681" stroke-width="0.9" opacity="0.20" />
  <line x1="680.9" y1="328.9" x2="714.8" y2="299.0" stroke="#6e7681" stroke-width="0.9" opacity="0.19" />
  <line x1="680.9" y1="328.9" x2="781.3" y2="306.5" stroke="#6e7681" stroke-width="0.9" opacity="0.19" />
  <line x1="680.9" y1="328.9" x2="668.0" y2="348.2" stroke="#6e7681" stroke-width="1.2" opacity="0.37" />
  <line x1="680.9" y1="328.9" x2="621.1" y2="349.4" stroke="#6e7681" stroke-width="1.2" opacity="0.37" />
  <line x1="680.9" y1="328.9" x2="657.4" y2="337.5" stroke="#6e7681" stroke-width="1.1" opacity="0.29" />
  <line x1="680.9" y1="328.9" x2="702.2" y2="357.5" stroke="#6e7681" stroke-width="1.0" opacity="0.22" />
  <line x1="680.9" y1="328.9" x2="709.7" y2="350.6" stroke="#6e7681" stroke-width="1.2" opacity="0.34" />
  <line x1="680.9" y1="328.9" x2="681.9" y2="355.0" stroke="#6e7681" stroke-width="1.0" opacity="0.24" />
  <line x1="680.9" y1="328.9" x2="734.5" y2="350.0" stroke="#6e7681" stroke-width="1.1" opacity="0.29" />
  <line x1="680.9" y1="328.9" x2="653.5" y2="352.6" stroke="#6e7681" stroke-width="1.0" opacity="0.22" />
  <line x1="728.2" y1="328.7" x2="754.8" y2="305.8" stroke="#6e7681" stroke-width="0.9" opacity="0.20" />
  <line x1="728.2" y1="328.7" x2="719.8" y2="318.6" stroke="#6e7681" stroke-width="1.0" opacity="0.24" />
  <line x1="728.2" y1="328.7" x2="799.7" y2="331.0" stroke="#6e7681" stroke-width="1.0" opacity="0.24" />
  <line x1="728.2" y1="328.7" x2="829.8" y2="332.3" stroke="#6e7681" stroke-width="0.9" opacity="0.21" />
  <line x1="728.2" y1="328.7" x2="738.8" y2="333.6" stroke="#6e7681" stroke-width="1.1" opacity="0.28" />
  <line x1="728.2" y1="328.7" x2="757.7" y2="326.5" stroke="#6e7681" stroke-width="1.1" opacity="0.31" />
  <line x1="728.2" y1="328.7" x2="753.8" y2="317.9" stroke="#6e7681" stroke-width="1.1" opacity="0.28" />
  <line x1="728.2" y1="328.7" x2="714.8" y2="299.0" stroke="#6e7681" stroke-width="1.0" opacity="0.24" />
  <line x1="728.2" y1="328.7" x2="781.3" y2="306.5" stroke="#6e7681" stroke-width="0.9" opacity="0.18" />
  <line x1="728.2" y1="328.7" x2="668.0" y2="348.2" stroke="#6e7681" stroke-width="0.9" opacity="0.17" />
  <line x1="728.2" y1="328.7" x2="767.4" y2="364.2" stroke="#6e7681" stroke-width="0.9" opacity="0.17" />
  <line x1="728.2" y1="328.7" x2="780.5" y2="354.2" stroke="#6e7681" stroke-width="0.9" opacity="0.20" />
  <line x1="728.2" y1="328.7" x2="709.7" y2="350.6" stroke="#6e7681" stroke-width="0.9" opacity="0.17" />
  <line x1="728.2" y1="328.7" x2="681.9" y2="355.0" stroke="#6e7681" stroke-width="0.9" opacity="0.17" />
  <line x1="728.2" y1="328.7" x2="734.5" y2="350.0" stroke="#6e7681" stroke-width="1.1" opacity="0.33" />
  <line x1="728.2" y1="328.7" x2="773.6" y2="349.5" stroke="#6e7681" stroke-width="1.0" opacity="0.24" />
  <line x1="589.4" y1="333.3" x2="668.0" y2="348.2" stroke="#6e7681" stroke-width="1.0" opacity="0.25" />
  <line x1="589.4" y1="333.3" x2="621.1" y2="349.4" stroke="#6e7681" stroke-width="1.1" opacity="0.29" />
  <line x1="589.4" y1="333.3" x2="653.5" y2="352.6" stroke="#6e7681" stroke-width="0.9" opacity="0.17" />
  <line x1="754.8" y1="305.8" x2="719.8" y2="318.6" stroke="#6e7681" stroke-width="1.0" opacity="0.24" />
  <line x1="754.8" y1="305.8" x2="778.2" y2="289.0" stroke="#6e7681" stroke-width="2.0" opacity="0.80" />
  <line x1="754.8" y1="305.8" x2="799.7" y2="331.0" stroke="#6e7681" stroke-width="1.0" opacity="0.22" />
  <line x1="754.8" y1="305.8" x2="738.8" y2="333.6" stroke="#6e7681" stroke-width="0.9" opacity="0.17" />
  <line x1="754.8" y1="305.8" x2="757.7" y2="326.5" stroke="#6e7681" stroke-width="0.9" opacity="0.20" />
  <line x1="754.8" y1="305.8" x2="753.8" y2="317.9" stroke="#6e7681" stroke-width="0.9" opacity="0.17" />
  <line x1="754.8" y1="305.8" x2="714.8" y2="299.0" stroke="#6e7681" stroke-width="1.0" opacity="0.23" />
  <line x1="754.8" y1="305.8" x2="781.3" y2="306.5" stroke="#6e7681" stroke-width="1.5" opacity="0.55" />
  <line x1="754.8" y1="305.8" x2="773.6" y2="349.5" stroke="#6e7681" stroke-width="1.0" opacity="0.22" />
  <line x1="719.8" y1="318.6" x2="799.7" y2="331.0" stroke="#6e7681" stroke-width="0.9" opacity="0.17" />
  <line x1="719.8" y1="318.6" x2="738.8" y2="333.6" stroke="#6e7681" stroke-width="1.0" opacity="0.22" />
  <line x1="719.8" y1="318.6" x2="757.7" y2="326.5" stroke="#6e7681" stroke-width="1.0" opacity="0.24" />
  <line x1="719.8" y1="318.6" x2="753.8" y2="317.9" stroke="#6e7681" stroke-width="1.0" opacity="0.22" />
  <line x1="719.8" y1="318.6" x2="714.8" y2="299.0" stroke="#6e7681" stroke-width="0.9" opacity="0.20" />
  <line x1="719.8" y1="318.6" x2="781.3" y2="306.5" stroke="#6e7681" stroke-width="1.0" opacity="0.22" />
  <line x1="719.8" y1="318.6" x2="657.4" y2="337.5" stroke="#6e7681" stroke-width="0.9" opacity="0.19" />
  <line x1="719.8" y1="318.6" x2="709.7" y2="350.6" stroke="#6e7681" stroke-width="0.9" opacity="0.21" />
  <line x1="719.8" y1="318.6" x2="734.5" y2="350.0" stroke="#6e7681" stroke-width="1.0" opacity="0.24" />
  <line x1="719.8" y1="318.6" x2="773.6" y2="349.5" stroke="#6e7681" stroke-width="0.9" opacity="0.17" />
  <line x1="640.4" y1="372.3" x2="668.0" y2="348.2" stroke="#6e7681" stroke-width="0.9" opacity="0.18" />
  <line x1="640.4" y1="372.3" x2="621.1" y2="349.4" stroke="#6e7681" stroke-width="0.9" opacity="0.18" />
  <line x1="640.4" y1="372.3" x2="709.7" y2="350.6" stroke="#6e7681" stroke-width="0.9" opacity="0.17" />
  <line x1="640.4" y1="372.3" x2="681.9" y2="355.0" stroke="#6e7681" stroke-width="1.3" opacity="0.42" />
  <line x1="640.4" y1="372.3" x2="734.5" y2="350.0" stroke="#6e7681" stroke-width="0.9" opacity="0.19" />
  <line x1="640.4" y1="372.3" x2="653.5" y2="352.6" stroke="#6e7681" stroke-width="0.9" opacity="0.21" />
  <line x1="778.2" y1="289.0" x2="799.7" y2="331.0" stroke="#6e7681" stroke-width="1.1" opacity="0.28" />
  <line x1="778.2" y1="289.0" x2="714.8" y2="299.0" stroke="#6e7681" stroke-width="0.9" opacity="0.17" />
  <line x1="778.2" y1="289.0" x2="781.3" y2="306.5" stroke="#6e7681" stroke-width="1.2" opacity="0.37" />
  <line x1="799.7" y1="331.0" x2="738.8" y2="333.6" stroke="#6e7681" stroke-width="0.9" opacity="0.20" />
  <line x1="799.7" y1="331.0" x2="757.7" y2="326.5" stroke="#6e7681" stroke-width="1.0" opacity="0.24" />
  <line x1="799.7" y1="331.0" x2="753.8" y2="317.9" stroke="#6e7681" stroke-width="0.9" opacity="0.20" />
  <line x1="799.7" y1="331.0" x2="781.3" y2="306.5" stroke="#6e7681" stroke-width="0.9" opacity="0.18" />
  <line x1="799.7" y1="331.0" x2="811.2" y2="349.7" stroke="#6e7681" stroke-width="1.5" opacity="0.55" />
  <line x1="799.7" y1="331.0" x2="828.5" y2="356.1" stroke="#6e7681" stroke-width="1.2" opacity="0.37" />
  <line x1="799.7" y1="331.0" x2="780.5" y2="354.2" stroke="#6e7681" stroke-width="1.0" opacity="0.22" />
  <line x1="799.7" y1="331.0" x2="734.5" y2="350.0" stroke="#6e7681" stroke-width="1.0" opacity="0.22" />
  <line x1="799.7" y1="331.0" x2="840.3" y2="346.2" stroke="#6e7681" stroke-width="1.2" opacity="0.37" />
  <line x1="799.7" y1="331.0" x2="778.3" y2="336.8" stroke="#6e7681" stroke-width="1.1" opacity="0.28" />
  <line x1="799.7" y1="331.0" x2="832.0" y2="363.3" stroke="#6e7681" stroke-width="1.2" opacity="0.37" />
  <line x1="799.7" y1="331.0" x2="773.6" y2="349.5" stroke="#6e7681" stroke-width="1.2" opacity="0.37" />
  <line x1="829.8" y1="332.3" x2="780.5" y2="354.2" stroke="#6e7681" stroke-width="0.9" opacity="0.18" />
  <line x1="829.8" y1="332.3" x2="734.5" y2="350.0" stroke="#6e7681" stroke-width="1.1" opacity="0.30" />
  <line x1="829.8" y1="332.3" x2="773.6" y2="349.5" stroke="#6e7681" stroke-width="1.0" opacity="0.22" />
  <line x1="738.8" y1="333.6" x2="757.7" y2="326.5" stroke="#6e7681" stroke-width="1.1" opacity="0.28" />
  <line x1="738.8" y1="333.6" x2="753.8" y2="317.9" stroke="#6e7681" stroke-width="1.0" opacity="0.24" />
  <line x1="738.8" y1="333.6" x2="714.8" y2="299.0" stroke="#6e7681" stroke-width="0.9" opacity="0.17" />
  <line x1="738.8" y1="333.6" x2="702.2" y2="357.5" stroke="#6e7681" stroke-width="0.9" opacity="0.19" />
  <line x1="738.8" y1="333.6" x2="720.3" y2="370.8" stroke="#6e7681" stroke-width="0.9" opacity="0.18" />
  <line x1="738.8" y1="333.6" x2="780.5" y2="354.2" stroke="#6e7681" stroke-width="0.9" opacity="0.17" />
  <line x1="738.8" y1="333.6" x2="734.5" y2="350.0" stroke="#6e7681" stroke-width="0.9" opacity="0.17" />
  <line x1="738.8" y1="333.6" x2="773.6" y2="349.5" stroke="#6e7681" stroke-width="0.9" opacity="0.20" />
  <line x1="757.7" y1="326.5" x2="753.8" y2="317.9" stroke="#6e7681" stroke-width="1.1" opacity="0.28" />
  <line x1="757.7" y1="326.5" x2="714.8" y2="299.0" stroke="#6e7681" stroke-width="0.9" opacity="0.18" />
  <line x1="757.7" y1="326.5" x2="781.3" y2="306.5" stroke="#6e7681" stroke-width="0.9" opacity="0.18" />
  <line x1="757.7" y1="326.5" x2="767.4" y2="364.2" stroke="#6e7681" stroke-width="0.9" opacity="0.17" />
  <line x1="757.7" y1="326.5" x2="780.5" y2="354.2" stroke="#6e7681" stroke-width="0.9" opacity="0.20" />
  <line x1="757.7" y1="326.5" x2="709.7" y2="350.6" stroke="#6e7681" stroke-width="0.9" opacity="0.17" />
  <line x1="757.7" y1="326.5" x2="734.5" y2="350.0" stroke="#6e7681" stroke-width="0.9" opacity="0.20" />
  <line x1="757.7" y1="326.5" x2="773.6" y2="349.5" stroke="#6e7681" stroke-width="1.0" opacity="0.24" />
  <line x1="753.8" y1="317.9" x2="714.8" y2="299.0" stroke="#6e7681" stroke-width="0.9" opacity="0.17" />
  <line x1="753.8" y1="317.9" x2="780.5" y2="354.2" stroke="#6e7681" stroke-width="0.9" opacity="0.17" />
  <line x1="753.8" y1="317.9" x2="734.5" y2="350.0" stroke="#6e7681" stroke-width="0.9" opacity="0.17" />
  <line x1="753.8" y1="317.9" x2="773.6" y2="349.5" stroke="#6e7681" stroke-width="0.9" opacity="0.20" />
  <line x1="781.3" y1="306.5" x2="847.4" y2="298.2" stroke="#6e7681" stroke-width="1.0" opacity="0.22" />
  <line x1="781.3" y1="306.5" x2="773.6" y2="349.5" stroke="#6e7681" stroke-width="0.9" opacity="0.18" />
  <line x1="910.0" y1="383.7" x2="800.4" y2="383.8" stroke="#6e7681" stroke-width="1.3" opacity="0.44" />
  <line x1="910.0" y1="383.7" x2="888.9" y2="394.3" stroke="#6e7681" stroke-width="0.9" opacity="0.18" />
  <line x1="800.4" y1="383.8" x2="828.5" y2="356.1" stroke="#6e7681" stroke-width="1.1" opacity="0.31" />
  <line x1="800.4" y1="383.8" x2="767.4" y2="364.2" stroke="#6e7681" stroke-width="0.9" opacity="0.20" />
  <line x1="800.4" y1="383.8" x2="780.5" y2="354.2" stroke="#6e7681" stroke-width="1.0" opacity="0.24" />
  <line x1="800.4" y1="383.8" x2="709.7" y2="350.6" stroke="#6e7681" stroke-width="0.9" opacity="0.20" />
  <line x1="800.4" y1="383.8" x2="734.5" y2="350.0" stroke="#6e7681" stroke-width="1.0" opacity="0.24" />
  <line x1="800.4" y1="383.8" x2="748.2" y2="376.1" stroke="#6e7681" stroke-width="0.9" opacity="0.18" />
  <line x1="800.4" y1="383.8" x2="654.8" y2="447.4" stroke="#6e7681" stroke-width="0.9" opacity="0.17" />
  <line x1="800.4" y1="383.8" x2="832.0" y2="363.3" stroke="#6e7681" stroke-width="1.1" opacity="0.31" />
  <line x1="800.4" y1="383.8" x2="888.9" y2="394.3" stroke="#6e7681" stroke-width="1.1" opacity="0.30" />
  <line x1="800.4" y1="383.8" x2="773.6" y2="349.5" stroke="#6e7681" stroke-width="1.1" opacity="0.31" />
  <line x1="320.1" y1="92.2" x2="281.5" y2="93.3" stroke="#6e7681" stroke-width="1.6" opacity="0.60" />
  <line x1="432.2" y1="361.3" x2="621.1" y2="349.4" stroke="#6e7681" stroke-width="0.9" opacity="0.18" />
  <line x1="432.2" y1="361.3" x2="326.2" y2="369.6" stroke="#6e7681" stroke-width="1.1" opacity="0.28" />
  <line x1="680.0" y1="367.9" x2="668.0" y2="348.2" stroke="#6e7681" stroke-width="0.9" opacity="0.17" />
  <line x1="680.0" y1="367.9" x2="621.1" y2="349.4" stroke="#6e7681" stroke-width="0.9" opacity="0.18" />
  <line x1="680.0" y1="367.9" x2="702.2" y2="357.5" stroke="#6e7681" stroke-width="1.0" opacity="0.22" />
  <line x1="680.0" y1="367.9" x2="709.7" y2="350.6" stroke="#6e7681" stroke-width="1.1" opacity="0.28" />
  <line x1="680.0" y1="367.9" x2="681.9" y2="355.0" stroke="#6e7681" stroke-width="1.1" opacity="0.32" />
  <line x1="680.0" y1="367.9" x2="734.5" y2="350.0" stroke="#6e7681" stroke-width="0.9" opacity="0.20" />
  <line x1="680.0" y1="367.9" x2="653.5" y2="352.6" stroke="#6e7681" stroke-width="1.0" opacity="0.22" />
  <line x1="680.0" y1="367.9" x2="778.3" y2="336.8" stroke="#6e7681" stroke-width="1.0" opacity="0.22" />
  <line x1="668.0" y1="348.2" x2="621.1" y2="349.4" stroke="#6e7681" stroke-width="1.3" opacity="0.42" />
  <line x1="668.0" y1="348.2" x2="620.3" y2="363.1" stroke="#6e7681" stroke-width="0.9" opacity="0.18" />
  <line x1="668.0" y1="348.2" x2="657.4" y2="337.5" stroke="#6e7681" stroke-width="1.1" opacity="0.31" />
  <line x1="668.0" y1="348.2" x2="702.2" y2="357.5" stroke="#6e7681" stroke-width="1.1" opacity="0.32" />
  <line x1="668.0" y1="348.2" x2="720.3" y2="370.8" stroke="#6e7681" stroke-width="1.0" opacity="0.23" />
  <line x1="668.0" y1="348.2" x2="709.7" y2="350.6" stroke="#6e7681" stroke-width="1.2" opacity="0.39" />
  <line x1="668.0" y1="348.2" x2="681.9" y2="355.0" stroke="#6e7681" stroke-width="1.0" opacity="0.26" />
  <line x1="668.0" y1="348.2" x2="734.5" y2="350.0" stroke="#6e7681" stroke-width="1.2" opacity="0.34" />
  <line x1="668.0" y1="348.2" x2="748.2" y2="376.1" stroke="#6e7681" stroke-width="0.9" opacity="0.19" />
  <line x1="668.0" y1="348.2" x2="653.5" y2="352.6" stroke="#6e7681" stroke-width="1.0" opacity="0.25" />
  <line x1="668.0" y1="348.2" x2="773.6" y2="349.5" stroke="#6e7681" stroke-width="0.9" opacity="0.17" />
  <line x1="621.1" y1="349.4" x2="620.3" y2="363.1" stroke="#6e7681" stroke-width="1.1" opacity="0.33" />
  <line x1="621.1" y1="349.4" x2="657.4" y2="337.5" stroke="#6e7681" stroke-width="0.9" opacity="0.21" />
  <line x1="621.1" y1="349.4" x2="702.2" y2="357.5" stroke="#6e7681" stroke-width="0.9" opacity="0.18" />
  <line x1="621.1" y1="349.4" x2="709.7" y2="350.6" stroke="#6e7681" stroke-width="1.3" opacity="0.41" />
  <line x1="621.1" y1="349.4" x2="681.9" y2="355.0" stroke="#6e7681" stroke-width="1.0" opacity="0.22" />
  <line x1="621.1" y1="349.4" x2="734.5" y2="350.0" stroke="#6e7681" stroke-width="1.1" opacity="0.31" />
  <line x1="621.1" y1="349.4" x2="653.5" y2="352.6" stroke="#6e7681" stroke-width="1.7" opacity="0.66" />
  <line x1="811.2" y1="349.7" x2="828.5" y2="356.1" stroke="#6e7681" stroke-width="1.5" opacity="0.55" />
  <line x1="811.2" y1="349.7" x2="767.4" y2="364.2" stroke="#6e7681" stroke-width="0.9" opacity="0.18" />
  <line x1="811.2" y1="349.7" x2="780.5" y2="354.2" stroke="#6e7681" stroke-width="1.1" opacity="0.28" />
  <line x1="811.2" y1="349.7" x2="709.7" y2="350.6" stroke="#6e7681" stroke-width="0.9" opacity="0.18" />
  <line x1="811.2" y1="349.7" x2="734.5" y2="350.0" stroke="#6e7681" stroke-width="1.1" opacity="0.28" />
  <line x1="811.2" y1="349.7" x2="840.3" y2="346.2" stroke="#6e7681" stroke-width="1.5" opacity="0.55" />
  <line x1="811.2" y1="349.7" x2="778.3" y2="336.8" stroke="#6e7681" stroke-width="1.2" opacity="0.37" />
  <line x1="811.2" y1="349.7" x2="832.0" y2="363.3" stroke="#6e7681" stroke-width="1.5" opacity="0.55" />
  <line x1="811.2" y1="349.7" x2="773.6" y2="349.5" stroke="#6e7681" stroke-width="1.5" opacity="0.55" />
  <line x1="828.5" y1="356.1" x2="780.5" y2="354.2" stroke="#6e7681" stroke-width="1.0" opacity="0.22" />
  <line x1="828.5" y1="356.1" x2="734.5" y2="350.0" stroke="#6e7681" stroke-width="1.0" opacity="0.22" />
  <line x1="828.5" y1="356.1" x2="840.3" y2="346.2" stroke="#6e7681" stroke-width="1.2" opacity="0.37" />
  <line x1="828.5" y1="356.1" x2="778.3" y2="336.8" stroke="#6e7681" stroke-width="1.1" opacity="0.28" />
  <line x1="828.5" y1="356.1" x2="832.0" y2="363.3" stroke="#6e7681" stroke-width="1.2" opacity="0.37" />
  <line x1="828.5" y1="356.1" x2="773.6" y2="349.5" stroke="#6e7681" stroke-width="1.2" opacity="0.37" />
  <line x1="620.3" y1="363.1" x2="709.7" y2="350.6" stroke="#6e7681" stroke-width="0.9" opacity="0.18" />
  <line x1="620.3" y1="363.1" x2="681.9" y2="355.0" stroke="#6e7681" stroke-width="0.9" opacity="0.18" />
  <line x1="620.3" y1="363.1" x2="734.5" y2="350.0" stroke="#6e7681" stroke-width="1.0" opacity="0.22" />
  <line x1="620.3" y1="363.1" x2="653.5" y2="352.6" stroke="#6e7681" stroke-width="1.3" opacity="0.41" />
  <line x1="657.4" y1="337.5" x2="702.2" y2="357.5" stroke="#6e7681" stroke-width="1.1" opacity="0.31" />
  <line x1="657.4" y1="337.5" x2="709.7" y2="350.6" stroke="#6e7681" stroke-width="1.4" opacity="0.47" />
  <line x1="657.4" y1="337.5" x2="681.9" y2="355.0" stroke="#6e7681" stroke-width="0.9" opacity="0.19" />
  <line x1="657.4" y1="337.5" x2="734.5" y2="350.0" stroke="#6e7681" stroke-width="1.0" opacity="0.22" />
  <line x1="702.2" y1="357.5" x2="720.3" y2="370.8" stroke="#6e7681" stroke-width="1.1" opacity="0.29" />
  <line x1="702.2" y1="357.5" x2="767.4" y2="364.2" stroke="#6e7681" stroke-width="0.9" opacity="0.17" />
  <line x1="702.2" y1="357.5" x2="780.5" y2="354.2" stroke="#6e7681" stroke-width="0.9" opacity="0.20" />
  <line x1="702.2" y1="357.5" x2="709.7" y2="350.6" stroke="#6e7681" stroke-width="1.3" opacity="0.40" />
  <line x1="702.2" y1="357.5" x2="681.9" y2="355.0" stroke="#6e7681" stroke-width="1.0" opacity="0.24" />
  <line x1="702.2" y1="357.5" x2="734.5" y2="350.0" stroke="#6e7681" stroke-width="0.9" opacity="0.20" />
  <line x1="702.2" y1="357.5" x2="773.6" y2="349.5" stroke="#6e7681" stroke-width="1.0" opacity="0.24" />
  <line x1="720.3" y1="370.8" x2="780.5" y2="354.2" stroke="#6e7681" stroke-width="0.9" opacity="0.18" />
  <line x1="720.3" y1="370.8" x2="681.9" y2="355.0" stroke="#6e7681" stroke-width="1.0" opacity="0.23" />
  <line x1="720.3" y1="370.8" x2="734.5" y2="350.0" stroke="#6e7681" stroke-width="0.9" opacity="0.18" />
  <line x1="720.3" y1="370.8" x2="748.2" y2="376.1" stroke="#6e7681" stroke-width="1.0" opacity="0.24" />
  <line x1="720.3" y1="370.8" x2="773.6" y2="349.5" stroke="#6e7681" stroke-width="1.0" opacity="0.22" />
  <line x1="767.4" y1="364.2" x2="780.5" y2="354.2" stroke="#6e7681" stroke-width="1.1" opacity="0.28" />
  <line x1="767.4" y1="364.2" x2="709.7" y2="350.6" stroke="#6e7681" stroke-width="1.0" opacity="0.22" />
  <line x1="767.4" y1="364.2" x2="734.5" y2="350.0" stroke="#6e7681" stroke-width="1.1" opacity="0.28" />
  <line x1="767.4" y1="364.2" x2="748.2" y2="376.1" stroke="#6e7681" stroke-width="0.9" opacity="0.20" />
  <line x1="767.4" y1="364.2" x2="773.6" y2="349.5" stroke="#6e7681" stroke-width="1.2" opacity="0.37" />
  <line x1="780.5" y1="354.2" x2="709.7" y2="350.6" stroke="#6e7681" stroke-width="1.1" opacity="0.28" />
  <line x1="780.5" y1="354.2" x2="734.5" y2="350.0" stroke="#6e7681" stroke-width="1.2" opacity="0.37" />
  <line x1="780.5" y1="354.2" x2="840.3" y2="346.2" stroke="#6e7681" stroke-width="1.0" opacity="0.22" />
  <line x1="780.5" y1="354.2" x2="748.2" y2="376.1" stroke="#6e7681" stroke-width="1.0" opacity="0.24" />
  <line x1="780.5" y1="354.2" x2="778.3" y2="336.8" stroke="#6e7681" stroke-width="0.9" opacity="0.18" />
  <line x1="780.5" y1="354.2" x2="832.0" y2="363.3" stroke="#6e7681" stroke-width="1.0" opacity="0.22" />
  <line x1="780.5" y1="354.2" x2="773.6" y2="349.5" stroke="#6e7681" stroke-width="1.5" opacity="0.55" />
  <line x1="709.7" y1="350.6" x2="681.9" y2="355.0" stroke="#6e7681" stroke-width="1.1" opacity="0.29" />
  <line x1="709.7" y1="350.6" x2="734.5" y2="350.0" stroke="#6e7681" stroke-width="1.4" opacity="0.47" />
  <line x1="709.7" y1="350.6" x2="748.2" y2="376.1" stroke="#6e7681" stroke-width="0.9" opacity="0.20" />
  <line x1="709.7" y1="350.6" x2="653.5" y2="352.6" stroke="#6e7681" stroke-width="1.1" opacity="0.31" />
  <line x1="709.7" y1="350.6" x2="778.3" y2="336.8" stroke="#6e7681" stroke-width="1.1" opacity="0.31" />
  <line x1="709.7" y1="350.6" x2="773.6" y2="349.5" stroke="#6e7681" stroke-width="1.2" opacity="0.37" />
  <line x1="681.9" y1="355.0" x2="734.5" y2="350.0" stroke="#6e7681" stroke-width="1.2" opacity="0.34" />
  <line x1="681.9" y1="355.0" x2="653.5" y2="352.6" stroke="#6e7681" stroke-width="1.0" opacity="0.25" />
  <line x1="681.9" y1="355.0" x2="778.3" y2="336.8" stroke="#6e7681" stroke-width="1.0" opacity="0.25" />
  <line x1="681.9" y1="355.0" x2="773.6" y2="349.5" stroke="#6e7681" stroke-width="0.9" opacity="0.17" />
  <line x1="734.5" y1="350.0" x2="840.3" y2="346.2" stroke="#6e7681" stroke-width="1.0" opacity="0.22" />
  <line x1="734.5" y1="350.0" x2="748.2" y2="376.1" stroke="#6e7681" stroke-width="1.0" opacity="0.24" />
  <line x1="734.5" y1="350.0" x2="653.5" y2="352.6" stroke="#6e7681" stroke-width="1.3" opacity="0.44" />
  <line x1="734.5" y1="350.0" x2="778.3" y2="336.8" stroke="#6e7681" stroke-width="1.3" opacity="0.44" />
  <line x1="734.5" y1="350.0" x2="832.0" y2="363.3" stroke="#6e7681" stroke-width="1.0" opacity="0.22" />
  <line x1="734.5" y1="350.0" x2="773.6" y2="349.5" stroke="#6e7681" stroke-width="1.5" opacity="0.55" />
  <line x1="899.6" y1="88.8" x2="903.9" y2="108.9" stroke="#6e7681" stroke-width="1.0" opacity="0.22" />
  <line x1="848.2" y1="402.3" x2="773.6" y2="349.5" stroke="#6e7681" stroke-width="1.0" opacity="0.22" />
  <line x1="840.3" y1="346.2" x2="778.3" y2="336.8" stroke="#6e7681" stroke-width="1.1" opacity="0.28" />
  <line x1="840.3" y1="346.2" x2="832.0" y2="363.3" stroke="#6e7681" stroke-width="1.2" opacity="0.37" />
  <line x1="840.3" y1="346.2" x2="773.6" y2="349.5" stroke="#6e7681" stroke-width="1.2" opacity="0.37" />
  <line x1="578.9" y1="460.3" x2="562.7" y2="471.0" stroke="#6e7681" stroke-width="1.5" opacity="0.55" />
  <line x1="578.9" y1="460.3" x2="654.8" y2="447.4" stroke="#6e7681" stroke-width="1.3" opacity="0.41" />
  <line x1="562.7" y1="471.0" x2="654.8" y2="447.4" stroke="#6e7681" stroke-width="1.0" opacity="0.24" />
  <line x1="748.2" y1="376.1" x2="773.6" y2="349.5" stroke="#6e7681" stroke-width="1.1" opacity="0.31" />
  <line x1="653.5" y1="352.6" x2="778.3" y2="336.8" stroke="#6e7681" stroke-width="1.0" opacity="0.22" />
  <line x1="778.3" y1="336.8" x2="847.4" y2="298.2" stroke="#6e7681" stroke-width="1.2" opacity="0.37" />
  <line x1="778.3" y1="336.8" x2="826.7" y2="275.8" stroke="#6e7681" stroke-width="0.9" opacity="0.18" />
  <line x1="778.3" y1="336.8" x2="832.0" y2="363.3" stroke="#6e7681" stroke-width="1.1" opacity="0.28" />
  <line x1="778.3" y1="336.8" x2="773.6" y2="349.5" stroke="#6e7681" stroke-width="1.1" opacity="0.28" />
  <line x1="847.4" y1="298.2" x2="826.7" y2="275.8" stroke="#6e7681" stroke-width="1.1" opacity="0.28" />
  <line x1="832.0" y1="363.3" x2="888.9" y2="394.3" stroke="#6e7681" stroke-width="1.1" opacity="0.31" />
  <line x1="832.0" y1="363.3" x2="773.6" y2="349.5" stroke="#6e7681" stroke-width="1.2" opacity="0.37" />
  <circle cx="613.9" cy="320.9" r="20" fill="#3498db" opacity="0.12" />
  <circle cx="613.9" cy="320.9" r="16" fill="#3498db" opacity="0.88" />
  <circle cx="680.9" cy="328.9" r="20" fill="#7f8c8d" opacity="0.12" />
  <circle cx="680.9" cy="328.9" r="16" fill="#7f8c8d" opacity="0.88" />
  <circle cx="728.2" cy="328.7" r="16.2" fill="#e67e22" opacity="0.12" />
  <circle cx="728.2" cy="328.7" r="12.2" fill="#e67e22" opacity="0.88" />
  <circle cx="589.4" cy="333.3" r="20" fill="#e74c3c" opacity="0.12" />
  <circle cx="589.4" cy="333.3" r="16" fill="#e74c3c" opacity="0.88" />
  <circle cx="754.8" cy="305.8" r="11.7" fill="#3498db" opacity="0.12" />
  <circle cx="754.8" cy="305.8" r="7.7" fill="#3498db" opacity="0.88" />
  <circle cx="719.8" cy="318.6" r="19.8" fill="#7f8c8d" opacity="0.12" />
  <circle cx="719.8" cy="318.6" r="15.8" fill="#7f8c8d" opacity="0.88" />
  <circle cx="640.4" cy="372.3" r="20" fill="#9b59b6" opacity="0.12" />
  <circle cx="640.4" cy="372.3" r="16" fill="#9b59b6" opacity="0.88" />
  <circle cx="778.2" cy="289.0" r="10.8" fill="#3498db" opacity="0.12" />
  <circle cx="778.2" cy="289.0" r="6.8" fill="#3498db" opacity="0.88" />
  <circle cx="799.7" cy="331.0" r="9.9" fill="#3498db" opacity="0.12" />
  <circle cx="799.7" cy="331.0" r="5.9" fill="#3498db" opacity="0.88" />
  <circle cx="829.8" cy="332.3" r="17.1" fill="#e67e22" opacity="0.12" />
  <circle cx="829.8" cy="332.3" r="13.1" fill="#e67e22" opacity="0.88" />
  <circle cx="738.8" cy="333.6" r="18.0" fill="#3498db" opacity="0.12" />
  <circle cx="738.8" cy="333.6" r="14.0" fill="#3498db" opacity="0.88" />
  <circle cx="757.7" cy="326.5" r="16.2" fill="#3498db" opacity="0.12" />
  <circle cx="757.7" cy="326.5" r="12.2" fill="#3498db" opacity="0.88" />
  <circle cx="753.8" cy="317.9" r="18.0" fill="#3498db" opacity="0.12" />
  <circle cx="753.8" cy="317.9" r="14.0" fill="#3498db" opacity="0.88" />
  <circle cx="714.8" cy="299.0" r="20" fill="#e74c3c" opacity="0.12" />
  <circle cx="714.8" cy="299.0" r="16" fill="#e74c3c" opacity="0.88" />
  <circle cx="781.3" cy="306.5" r="12.6" fill="#2ecc71" opacity="0.12" />
  <circle cx="781.3" cy="306.5" r="8.6" fill="#2ecc71" opacity="0.88" />
  <circle cx="910.0" cy="383.7" r="14.4" fill="#e74c3c" opacity="0.12" />
  <circle cx="910.0" cy="383.7" r="10.4" fill="#e74c3c" opacity="0.88" />
  <circle cx="50.0" cy="431.9" r="16.2" fill="#3498db" opacity="0.12" />
  <circle cx="50.0" cy="431.9" r="12.2" fill="#3498db" opacity="0.88" />
  <circle cx="800.4" cy="383.8" r="14.4" fill="#e74c3c" opacity="0.12" />
  <circle cx="800.4" cy="383.8" r="10.4" fill="#e74c3c" opacity="0.88" />
  <circle cx="283.1" cy="70.4" r="9" fill="#3498db" opacity="0.12" />
  <circle cx="283.1" cy="70.4" r="5" fill="#3498db" opacity="0.88" />
  <circle cx="320.1" cy="92.2" r="16.2" fill="#3498db" opacity="0.12" />
  <circle cx="320.1" cy="92.2" r="12.2" fill="#3498db" opacity="0.88" />
  <circle cx="281.5" cy="93.3" r="15.3" fill="#3498db" opacity="0.12" />
  <circle cx="281.5" cy="93.3" r="11.3" fill="#3498db" opacity="0.88" />
  <circle cx="432.2" cy="361.3" r="9.9" fill="#3498db" opacity="0.12" />
  <circle cx="432.2" cy="361.3" r="5.9" fill="#3498db" opacity="0.88" />
  <circle cx="680.0" cy="367.9" r="16.2" fill="#9b59b6" opacity="0.12" />
  <circle cx="680.0" cy="367.9" r="12.2" fill="#9b59b6" opacity="0.88" />
  <circle cx="668.0" cy="348.2" r="19.8" fill="#9b59b6" opacity="0.12" />
  <circle cx="668.0" cy="348.2" r="15.8" fill="#9b59b6" opacity="0.88" />
  <circle cx="621.1" cy="349.4" r="12.6" fill="#9b59b6" opacity="0.12" />
  <circle cx="621.1" cy="349.4" r="8.6" fill="#9b59b6" opacity="0.88" />
  <circle cx="811.2" cy="349.7" r="9" fill="#2ecc71" opacity="0.12" />
  <circle cx="811.2" cy="349.7" r="5" fill="#2ecc71" opacity="0.88" />
  <circle cx="828.5" cy="356.1" r="9.9" fill="#7f8c8d" opacity="0.12" />
  <circle cx="828.5" cy="356.1" r="5.9" fill="#7f8c8d" opacity="0.88" />
  <circle cx="620.3" cy="363.1" r="15.3" fill="#e67e22" opacity="0.12" />
  <circle cx="620.3" cy="363.1" r="11.3" fill="#e67e22" opacity="0.88" />
  <circle cx="657.4" cy="337.5" r="20" fill="#2ecc71" opacity="0.12" />
  <circle cx="657.4" cy="337.5" r="16" fill="#2ecc71" opacity="0.88" />
  <circle cx="326.2" cy="369.6" r="10.8" fill="#9b59b6" opacity="0.12" />
  <circle cx="326.2" cy="369.6" r="6.8" fill="#9b59b6" opacity="0.88" />
  <circle cx="513.4" cy="50.0" r="9" fill="#7f8c8d" opacity="0.12" />
  <circle cx="513.4" cy="50.0" r="5" fill="#7f8c8d" opacity="0.88" />
  <circle cx="702.2" cy="357.5" r="16.2" fill="#3498db" opacity="0.12" />
  <circle cx="702.2" cy="357.5" r="12.2" fill="#3498db" opacity="0.88" />
  <circle cx="720.3" cy="370.8" r="17.1" fill="#7f8c8d" opacity="0.12" />
  <circle cx="720.3" cy="370.8" r="13.1" fill="#7f8c8d" opacity="0.88" />
  <circle cx="767.4" cy="364.2" r="13.5" fill="#7f8c8d" opacity="0.12" />
  <circle cx="767.4" cy="364.2" r="9.5" fill="#7f8c8d" opacity="0.88" />
  <circle cx="236.7" cy="500.0" r="9" fill="#7f8c8d" opacity="0.12" />
  <circle cx="236.7" cy="500.0" r="5" fill="#7f8c8d" opacity="0.88" />
  <circle cx="780.5" cy="354.2" r="11.7" fill="#7f8c8d" opacity="0.12" />
  <circle cx="780.5" cy="354.2" r="7.7" fill="#7f8c8d" opacity="0.88" />
  <circle cx="709.7" cy="350.6" r="13.5" fill="#7f8c8d" opacity="0.12" />
  <circle cx="709.7" cy="350.6" r="9.5" fill="#7f8c8d" opacity="0.88" />
  <circle cx="681.9" cy="355.0" r="19.8" fill="#2ecc71" opacity="0.12" />
  <circle cx="681.9" cy="355.0" r="15.8" fill="#2ecc71" opacity="0.88" />
  <circle cx="734.5" cy="350.0" r="11.7" fill="#7f8c8d" opacity="0.12" />
  <circle cx="734.5" cy="350.0" r="7.7" fill="#7f8c8d" opacity="0.88" />
  <circle cx="899.6" cy="88.8" r="11.7" fill="#7f8c8d" opacity="0.12" />
  <circle cx="899.6" cy="88.8" r="7.7" fill="#7f8c8d" opacity="0.88" />
  <circle cx="848.2" cy="402.3" r="11.7" fill="#3498db" opacity="0.12" />
  <circle cx="848.2" cy="402.3" r="7.7" fill="#3498db" opacity="0.88" />
  <circle cx="840.3" cy="346.2" r="9.9" fill="#7f8c8d" opacity="0.12" />
  <circle cx="840.3" cy="346.2" r="5.9" fill="#7f8c8d" opacity="0.88" />
  <circle cx="578.9" cy="460.3" r="10.8" fill="#e67e22" opacity="0.12" />
  <circle cx="578.9" cy="460.3" r="6.8" fill="#e67e22" opacity="0.88" />
  <circle cx="562.7" cy="471.0" r="10.8" fill="#e67e22" opacity="0.12" />
  <circle cx="562.7" cy="471.0" r="6.8" fill="#e67e22" opacity="0.88" />
  <circle cx="748.2" cy="376.1" r="14.4" fill="#7f8c8d" opacity="0.12" />
  <circle cx="748.2" cy="376.1" r="10.4" fill="#7f8c8d" opacity="0.88" />
  <circle cx="654.8" cy="447.4" r="15.3" fill="#e67e22" opacity="0.12" />
  <circle cx="654.8" cy="447.4" r="11.3" fill="#e67e22" opacity="0.88" />
  <circle cx="903.9" cy="108.9" r="9.9" fill="#7f8c8d" opacity="0.12" />
  <circle cx="903.9" cy="108.9" r="5.9" fill="#7f8c8d" opacity="0.88" />
  <circle cx="653.5" cy="352.6" r="10.8" fill="#7f8c8d" opacity="0.12" />
  <circle cx="653.5" cy="352.6" r="6.8" fill="#7f8c8d" opacity="0.88" />
  <circle cx="778.3" cy="336.8" r="10.8" fill="#7f8c8d" opacity="0.12" />
  <circle cx="778.3" cy="336.8" r="6.8" fill="#7f8c8d" opacity="0.88" />
  <circle cx="847.4" cy="298.2" r="9" fill="#2ecc71" opacity="0.12" />
  <circle cx="847.4" cy="298.2" r="5" fill="#2ecc71" opacity="0.88" />
  <circle cx="826.7" cy="275.8" r="11.7" fill="#2ecc71" opacity="0.12" />
  <circle cx="826.7" cy="275.8" r="7.7" fill="#2ecc71" opacity="0.88" />
  <circle cx="832.0" cy="363.3" r="9.9" fill="#e74c3c" opacity="0.12" />
  <circle cx="832.0" cy="363.3" r="5.9" fill="#e74c3c" opacity="0.88" />
  <circle cx="888.9" cy="394.3" r="14.4" fill="#e74c3c" opacity="0.12" />
  <circle cx="888.9" cy="394.3" r="10.4" fill="#e74c3c" opacity="0.88" />
  <circle cx="773.6" cy="349.5" r="9.9" fill="#7f8c8d" opacity="0.12" />
  <circle cx="773.6" cy="349.5" r="5.9" fill="#7f8c8d" opacity="0.88" />
  <circle cx="85.6" cy="129.5" r="9" fill="#7f8c8d" opacity="0.12" />
  <circle cx="85.6" cy="129.5" r="5" fill="#7f8c8d" opacity="0.88" />
  <rect x="631.9" y="315.3" width="117.2" height="15" fill="#0d1117" opacity="0.75" rx="2" />
  <text x="632.9" y="326.3" font-family="system-ui, -apple-system, sans-serif" font-size="12" fill="#e6edf3" text-anchor="start">GloriousFlywheel</text>
  <rect x="698.9" y="402.8" width="52.4" height="15" fill="#0d1117" opacity="0.75" rx="2" />
  <text x="699.9" y="413.8" font-family="system-ui, -apple-system, sans-serif" font-size="12" fill="#e6edf3" text-anchor="start">LA-Mesh</text>
  <rect x="742.4" y="360.1" width="45.2" height="15" fill="#0d1117" opacity="0.75" rx="2" />
  <text x="743.4" y="371.1" font-family="system-ui, -apple-system, sans-serif" font-size="12" fill="#e6edf3" text-anchor="start">XoxdWM</text>
  <rect x="607.4" y="275.1" width="131.6" height="15" fill="#0d1117" opacity="0.75" rx="2" />
  <text x="608.4" y="286.1" font-family="system-ui, -apple-system, sans-serif" font-size="12" fill="#e6edf3" text-anchor="start">pixelwise-research</text>
  <rect x="764.5" y="316.9" width="16.4" height="15" fill="#0d1117" opacity="0.75" rx="2" />
  <text x="765.5" y="327.9" font-family="system-ui, -apple-system, sans-serif" font-size="12" fill="#e6edf3" text-anchor="start">pp</text>
  <rect x="737.6" y="170.0" width="124.4" height="15" fill="#0d1117" opacity="0.75" rx="2" />
  <text x="738.6" y="181.0" font-family="system-ui, -apple-system, sans-serif" font-size="12" fill="#e6edf3" text-anchor="start">tinyland-huskycat</text>
  <rect x="658.4" y="434.3" width="95.6" height="15" fill="#0d1117" opacity="0.75" rx="2" />
  <text x="659.4" y="445.3" font-family="system-ui, -apple-system, sans-serif" font-size="12" fill="#e6edf3" text-anchor="start">GIS_Shortcuts</text>
  <rect x="787.0" y="363.6" width="117.2" height="15" fill="#0d1117" opacity="0.75" rx="2" />
  <text x="788.0" y="374.6" font-family="system-ui, -apple-system, sans-serif" font-size="12" fill="#e6edf3" text-anchor="start">tinyland-cleanup</text>
  <rect x="696.2" y="244.6" width="95.6" height="15" fill="#0d1117" opacity="0.75" rx="2" />
  <text x="790.8" y="255.6" font-family="system-ui, -apple-system, sans-serif" font-size="12" fill="#e6edf3" text-anchor="end">tinyland-kdbx</text>
  <rect x="704.7" y="209.1" width="110.0" height="15" fill="#0d1117" opacity="0.75" rx="2" />
  <text x="813.7" y="220.1" font-family="system-ui, -apple-system, sans-serif" font-size="12" fill="#e6edf3" text-anchor="end">hiberpower-ntfs</text>
  <rect x="754.8" y="437.3" width="138.8" height="15" fill="#0d1117" opacity="0.75" rx="2" />
  <text x="755.8" y="448.3" font-family="system-ui, -apple-system, sans-serif" font-size="12" fill="#e6edf3" text-anchor="start">Ansible-DAG-Harness</text>
  <rect x="771.9" y="353.4" width="66.8" height="15" fill="#0d1117" opacity="0.75" rx="2" />
  <text x="772.9" y="364.4" font-family="system-ui, -apple-system, sans-serif" font-size="12" fill="#e6edf3" text-anchor="start">betterkvm</text>
  <rect x="769.8" y="282.8" width="95.6" height="15" fill="#0d1117" opacity="0.75" rx="2" />
  <text x="770.8" y="293.8" font-family="system-ui, -apple-system, sans-serif" font-size="12" fill="#e6edf3" text-anchor="start">DarwinNicUtil</text>
  <rect x="732.8" y="198.9" width="95.6" height="15" fill="#0d1117" opacity="0.75" rx="2" />
  <text x="733.8" y="209.9" font-family="system-ui, -apple-system, sans-serif" font-size="12" fill="#e6edf3" text-anchor="start">RemoteJuggler</text>
  <rect x="791.9" y="322.8" width="59.6" height="15" fill="#0d1117" opacity="0.75" rx="2" />
  <text x="792.9" y="333.8" font-family="system-ui, -apple-system, sans-serif" font-size="12" fill="#e6edf3" text-anchor="start">gnucashr</text>
  <rect x="830.8" y="378.0" width="66.8" height="15" fill="#0d1117" opacity="0.75" rx="2" />
  <text x="896.6" y="389.0" font-family="system-ui, -apple-system, sans-serif" font-size="12" fill="#e6edf3" text-anchor="end">quickchpl</text>
  <rect x="64.2" y="425.1" width="131.6" height="15" fill="#0d1117" opacity="0.75" rx="2" />
  <text x="65.2" y="436.1" font-family="system-ui, -apple-system, sans-serif" font-size="12" fill="#e6edf3" text-anchor="start">tinyscale-mikrotik</text>
  <rect x="728.4" y="448.2" width="59.6" height="15" fill="#0d1117" opacity="0.75" rx="2" />
  <text x="787.0" y="459.2" font-family="system-ui, -apple-system, sans-serif" font-size="12" fill="#e6edf3" text-anchor="end">aoc-2025</text>
  <rect x="290.1" y="62.0" width="74.0" height="15" fill="#0d1117" opacity="0.75" rx="2" />
  <text x="291.1" y="73.0" font-family="system-ui, -apple-system, sans-serif" font-size="12" fill="#e6edf3" text-anchor="start">tinywaffle</text>
  <rect x="334.3" y="79.0" width="66.8" height="15" fill="#0d1117" opacity="0.75" rx="2" />
  <text x="335.3" y="90.0" font-family="system-ui, -apple-system, sans-serif" font-size="12" fill="#e6edf3" text-anchor="start">searchies</text>
  <rect x="294.8" y="94.4" width="59.6" height="15" fill="#0d1117" opacity="0.75" rx="2" />
  <text x="295.8" y="105.4" font-family="system-ui, -apple-system, sans-serif" font-size="12" fill="#e6edf3" text-anchor="start">ts-caddy</text>
  <rect x="440.1" y="350.2" width="66.8" height="15" fill="#0d1117" opacity="0.75" rx="2" />
  <text x="441.1" y="361.2" font-family="system-ui, -apple-system, sans-serif" font-size="12" fill="#e6edf3" text-anchor="start">HCI-notes</text>
  <rect x="694.2" y="462.5" width="88.4" height="15" fill="#0d1117" opacity="0.75" rx="2" />
  <text x="695.2" y="473.5" font-family="system-ui, -apple-system, sans-serif" font-size="12" fill="#e6edf3" text-anchor="start">FastPhotoAPI</text>
  <rect x="685.8" y="306.3" width="81.2" height="15" fill="#0d1117" opacity="0.75" rx="2" />
  <text x="686.8" y="317.3" font-family="system-ui, -apple-system, sans-serif" font-size="12" fill="#e6edf3" text-anchor="start">timberbuddy</text>
  <rect x="631.7" y="340.2" width="81.2" height="15" fill="#0d1117" opacity="0.75" rx="2" />
  <text x="632.7" y="351.2" font-family="system-ui, -apple-system, sans-serif" font-size="12" fill="#e6edf3" text-anchor="start">tetrahedron</text>
  <rect x="708.6" y="393.2" width="95.6" height="15" fill="#0d1117" opacity="0.75" rx="2" />
  <text x="803.2" y="404.2" font-family="system-ui, -apple-system, sans-serif" font-size="12" fill="#e6edf3" text-anchor="end">AccuWixReport</text>
  <rect x="725.0" y="238.3" width="95.6" height="15" fill="#0d1117" opacity="0.75" rx="2" />
  <text x="819.6" y="249.3" font-family="system-ui, -apple-system, sans-serif" font-size="12" fill="#e6edf3" text-anchor="end">Jess-AOC-2023</text>
  <rect x="633.6" y="446.2" width="81.2" height="15" fill="#0d1117" opacity="0.75" rx="2" />
  <text x="634.6" y="457.2" font-family="system-ui, -apple-system, sans-serif" font-size="12" fill="#e6edf3" text-anchor="start">TurkeyProbe</text>
  <rect x="675.4" y="221.3" width="153.2" height="15" fill="#0d1117" opacity="0.75" rx="2" />
  <text x="676.4" y="232.3" font-family="system-ui, -apple-system, sans-serif" font-size="12" fill="#e6edf3" text-anchor="start">MerlinAI-Interpreters</text>
  <rect x="335.0" y="367.2" width="110.0" height="15" fill="#0d1117" opacity="0.75" rx="2" />
  <text x="336.0" y="378.2" font-family="system-ui, -apple-system, sans-serif" font-size="12" fill="#e6edf3" text-anchor="start">IntroTypeScript</text>
  <rect x="520.4" y="43.2" width="110.0" height="15" fill="#0d1117" opacity="0.75" rx="2" />
  <text x="521.4" y="54.2" font-family="system-ui, -apple-system, sans-serif" font-size="12" fill="#e6edf3" text-anchor="start">IG-3DP-Profiles</text>
  <rect x="716.4" y="372.2" width="66.8" height="15" fill="#0d1117" opacity="0.75" rx="2" />
  <text x="717.4" y="383.2" font-family="system-ui, -apple-system, sans-serif" font-size="12" fill="#e6edf3" text-anchor="start">DLA-Flask</text>
  <rect x="735.4" y="417.3" width="38.0" height="15" fill="#0d1117" opacity="0.75" rx="2" />
  <text x="736.4" y="428.3" font-family="system-ui, -apple-system, sans-serif" font-size="12" fill="#e6edf3" text-anchor="start">USBoN</text>
  <rect x="778.9" y="423.7" width="203.6" height="15" fill="#0d1117" opacity="0.75" rx="2" />
  <text x="779.9" y="434.7" font-family="system-ui, -apple-system, sans-serif" font-size="12" fill="#e6edf3" text-anchor="start">chrome-remote-desktop-budgie</text>
  <rect x="243.7" y="493.2" width="124.4" height="15" fill="#0d1117" opacity="0.75" rx="2" />
  <text x="244.7" y="504.2" font-family="system-ui, -apple-system, sans-serif" font-size="12" fill="#e6edf3" text-anchor="start">OminousBeepingApp</text>
  <rect x="790.2" y="292.6" width="138.8" height="15" fill="#0d1117" opacity="0.75" rx="2" />
  <text x="791.2" y="303.6" font-family="system-ui, -apple-system, sans-serif" font-size="12" fill="#e6edf3" text-anchor="start">mo-image-identifier</text>
  <rect x="721.2" y="341.9" width="196.4" height="15" fill="#0d1117" opacity="0.75" rx="2" />
  <text x="722.2" y="352.9" font-family="system-ui, -apple-system, sans-serif" font-size="12" fill="#e6edf3" text-anchor="start">squirrel-leaflet-annotation</text>
  <rect x="699.7" y="289.3" width="74.0" height="15" fill="#0d1117" opacity="0.75" rx="2" />
  <text x="700.7" y="300.3" font-family="system-ui, -apple-system, sans-serif" font-size="12" fill="#e6edf3" text-anchor="start">Shiny-Apps</text>
  <rect x="744.2" y="328.5" width="138.8" height="15" fill="#0d1117" opacity="0.75" rx="2" />
  <text x="745.2" y="339.5" font-family="system-ui, -apple-system, sans-serif" font-size="12" fill="#e6edf3" text-anchor="start">bbox-jest-puppeteer</text>
  <rect x="801.5" y="82.0" width="88.4" height="15" fill="#0d1117" opacity="0.75" rx="2" />
  <text x="888.9" y="93.0" font-family="system-ui, -apple-system, sans-serif" font-size="12" fill="#e6edf3" text-anchor="end">DoverDisplay</text>
  <rect x="757.3" y="476.9" width="81.2" height="15" fill="#0d1117" opacity="0.75" rx="2" />
  <text x="837.5" y="487.9" font-family="system-ui, -apple-system, sans-serif" font-size="12" fill="#e6edf3" text-anchor="end">LeafletSync</text>
  <rect x="664.8" y="385.8" width="167.6" height="15" fill="#0d1117" opacity="0.75" rx="2" />
  <text x="831.4" y="396.8" font-family="system-ui, -apple-system, sans-serif" font-size="12" fill="#e6edf3" text-anchor="end">misc-roi-distance-notes</text>
  <rect x="587.7" y="508.3" width="138.8" height="15" fill="#0d1117" opacity="0.75" rx="2" />
  <text x="588.7" y="519.3" font-family="system-ui, -apple-system, sans-serif" font-size="12" fill="#e6edf3" text-anchor="start">Arduino_Coil_Winder</text>
  <rect x="571.5" y="522.8" width="30.8" height="15" fill="#0d1117" opacity="0.75" rx="2" />
  <text x="572.5" y="533.8" font-family="system-ui, -apple-system, sans-serif" font-size="12" fill="#e6edf3" text-anchor="start">momo</text>
  <rect x="760.6" y="181.9" width="38.0" height="15" fill="#0d1117" opacity="0.75" rx="2" />
  <text x="761.6" y="192.9" font-family="system-ui, -apple-system, sans-serif" font-size="12" fill="#e6edf3" text-anchor="start">clipi</text>
  <rect x="668.1" y="491.3" width="110.0" height="15" fill="#0d1117" opacity="0.75" rx="2" />
  <text x="669.1" y="502.3" font-family="system-ui, -apple-system, sans-serif" font-size="12" fill="#e6edf3" text-anchor="start">AeroTaz5_hotfix</text>
  <rect x="786.0" y="102.1" width="110.0" height="15" fill="#0d1117" opacity="0.75" rx="2" />
  <text x="895.0" y="113.1" font-family="system-ui, -apple-system, sans-serif" font-size="12" fill="#e6edf3" text-anchor="end">Funmat-HT-Notes</text>
  <rect x="662.3" y="358.9" width="81.2" height="15" fill="#0d1117" opacity="0.75" rx="2" />
  <text x="663.3" y="369.9" font-family="system-ui, -apple-system, sans-serif" font-size="12" fill="#e6edf3" text-anchor="start">static-site</text>
  <rect x="787.1" y="406.7" width="95.6" height="15" fill="#0d1117" opacity="0.75" rx="2" />
  <text x="788.1" y="417.7" font-family="system-ui, -apple-system, sans-serif" font-size="12" fill="#e6edf3" text-anchor="start">Flask-Manager</text>
  <rect x="730.4" y="255.2" width="110.0" height="15" fill="#0d1117" opacity="0.75" rx="2" />
  <text x="839.4" y="266.2" font-family="system-ui, -apple-system, sans-serif" font-size="12" fill="#e6edf3" text-anchor="end">FieldProcessing</text>
  <rect x="735.8" y="153.0" width="81.2" height="15" fill="#0d1117" opacity="0.75" rx="2" />
  <text x="816.0" y="164.0" font-family="system-ui, -apple-system, sans-serif" font-size="12" fill="#e6edf3" text-anchor="end">rJDKmanager</text>
  <rect x="764.5" y="272.2" width="59.6" height="15" fill="#0d1117" opacity="0.75" rx="2" />
  <text x="823.1" y="283.2" font-family="system-ui, -apple-system, sans-serif" font-size="12" fill="#e6edf3" text-anchor="end">tagnotes</text>
  <rect x="795.3" y="451.4" width="81.2" height="15" fill="#0d1117" opacity="0.75" rx="2" />
  <text x="875.5" y="462.4" font-family="system-ui, -apple-system, sans-serif" font-size="12" fill="#e6edf3" text-anchor="end">ChapelTests</text>
  <rect x="781.5" y="309.6" width="88.4" height="15" fill="#0d1117" opacity="0.75" rx="2" />
  <text x="782.5" y="320.6" font-family="system-ui, -apple-system, sans-serif" font-size="12" fill="#e6edf3" text-anchor="start">Xfinity-WiFi</text>
  <rect x="92.6" y="122.7" width="66.8" height="15" fill="#0d1117" opacity="0.75" rx="2" />
  <text x="93.6" y="133.7" font-family="system-ui, -apple-system, sans-serif" font-size="12" fill="#e6edf3" text-anchor="start">home-wiki</text>
  <rect x="793" y="36" width="155" height="120" rx="6" fill="#161b22" stroke="#30363d" stroke-width="1" opacity="0.95" />
  <circle cx="810" cy="52" r="5" fill="#e74c3c" opacity="0.88" />
  <text x="820" y="56" font-family="system-ui, -apple-system, sans-serif" font-size="10" fill="#e6edf3">Languages &amp; Compilers</text>
  <circle cx="810" cy="69" r="5" fill="#3498db" opacity="0.88" />
  <text x="820" y="73" font-family="system-ui, -apple-system, sans-serif" font-size="10" fill="#e6edf3">Infrastructure &amp; DevOps</text>
  <circle cx="810" cy="86" r="5" fill="#e67e22" opacity="0.88" />
  <text x="820" y="90" font-family="system-ui, -apple-system, sans-serif" font-size="10" fill="#e6edf3">Hardware &amp; Maker</text>
  <circle cx="810" cy="103" r="5" fill="#2ecc71" opacity="0.88" />
  <text x="820" y="107" font-family="system-ui, -apple-system, sans-serif" font-size="10" fill="#e6edf3">ML &amp; Data</text>
  <circle cx="810" cy="120" r="5" fill="#9b59b6" opacity="0.88" />
  <text x="820" y="124" font-family="system-ui, -apple-system, sans-serif" font-size="10" fill="#e6edf3">Web &amp; Apps</text>
  <circle cx="810" cy="137" r="5" fill="#7f8c8d" opacity="0.88" />
  <text x="820" y="141" font-family="system-ui, -apple-system, sans-serif" font-size="10" fill="#e6edf3">Other</text>
  <text x="870" y="150" font-family="system-ui, -apple-system, sans-serif" font-size="8" fill="#8b949e" text-anchor="middle">55 repos · 227 edges</text>
</svg>