<svg xmlns="http://www.w3.org/2000/svg" width="900" height="540" viewBox="0 0 900 540">
  <rect width="900" height="540" fill="#ffffff" rx="8" />
  <text x="450" y="24" font-family="system-ui, -apple-system, sans-serif" font-size="13" fill="#656d76" text-anchor="middle" font-weight="500">Repo Relationship Graph &#x2014; Pairwise Topic &amp; Language Similarity</text>
  <line x1="50" y1="490" x2="850" y2="490" stroke="#d0d7de" stroke-width="0.5" opacity="0.5" />
  <text x="50" y="510" font-family="serif, Georgia, Times" font-size="10" fill="#656d76" font-style="italic" opacity="0.7">Focal Length = ImageDimension / 2 · tan(FoV / 2)</text>
  <text x="50" y="528" font-family="serif, Georgia, Times" font-size="10" fill="#656d76" font-style="italic" opacity="0.7">Distance = ActualDimension · FocalLength / ROIDimension</text>
  <text x="850" y="510" font-family="system-ui, -apple-system, sans-serif" font-size="9" fill="#656d76" text-anchor="end" opacity="0.6">Updated daily by GitHub Actions</text>
  <text x="850" y="528" font-family="system-ui, -apple-system, sans-serif" font-size="9" fill="#656d76" text-anchor="end" opacity="0.6">networkx spring_layout · Jaccard similarity &gt; 0.15</text>
  <line x1="429.8" y1="228.4" x2="391.5" y2="242.5" stroke="#bcc3cd" stroke-width="1.0" opacity="0.24" />
  <line x1="429.8" y1="228.4" x2="449.5" y2="218.4" stroke="#bcc3cd" stroke-width="2.0" opacity="0.80" />
  <line x1="429.8" y1="228.4" x2="432.0" y2="251.6" stroke="#bcc3cd" stroke-width="1.0" opacity="0.22" />
  <line x1="429.8" y1="228.4" x2="415.4" y2="256.5" stroke="#bcc3cd" stroke-width="1.0" opacity="0.24" />
  <line x1="429.8" y1="228.4" x2="396.1" y2="251.2" stroke="#bcc3cd" stroke-width="0.9" opacity="0.17" />
  <line x1="429.8" y1="228.4" x2="410.5" y2="247.6" stroke="#bcc3cd" stroke-width="0.9" opacity="0.20" />
  <line x1="429.8" y1="228.4" x2="424.7" y2="242.2" stroke="#bcc3cd" stroke-width="0.9" opacity="0.17" />
  <line x1="429.8" y1="228.4" x2="444.5" y2="233.1" stroke="#bcc3cd" stroke-width="1.0" opacity="0.23" />
  <line x1="429.8" y1="228.4" x2="413.2" y2="223.6" stroke="#bcc3cd" stroke-width="1.5" opacity="0.55" />
  <line x1="309.5" y1="315.1" x2="293.3" y2="303.2" stroke="#bcc3cd" stroke-width="1.0" opacity="0.26" />
  <line x1="309.5" y1="315.1" x2="337.9" y2="287.9" stroke="#bcc3cd" stroke-width="0.9" opacity="0.20" />
  <line x1="309.5" y1="315.1" x2="308.0" y2="285.5" stroke="#bcc3cd" stroke-width="1.0" opacity="0.22" />
  <line x1="391.5" y1="242.5" x2="432.0" y2="251.6" stroke="#bcc3cd" stroke-width="0.9" opacity="0.17" />
  <line x1="391.5" y1="242.5" x2="415.4" y2="256.5" stroke="#bcc3cd" stroke-width="1.1" opacity="0.28" />
  <line x1="391.5" y1="242.5" x2="396.1" y2="251.2" stroke="#bcc3cd" stroke-width="1.0" opacity="0.22" />
  <line x1="391.5" y1="242.5" x2="410.5" y2="247.6" stroke="#bcc3cd" stroke-width="1.0" opacity="0.24" />
  <line x1="391.5" y1="242.5" x2="424.7" y2="242.2" stroke="#bcc3cd" stroke-width="1.0" opacity="0.22" />
  <line x1="391.5" y1="242.5" x2="444.5" y2="233.1" stroke="#bcc3cd" stroke-width="0.9" opacity="0.20" />
  <line x1="391.5" y1="242.5" x2="413.2" y2="223.6" stroke="#bcc3cd" stroke-width="1.0" opacity="0.22" />
  <line x1="391.5" y1="242.5" x2="336.6" y2="263.5" stroke="#bcc3cd" stroke-width="0.9" opacity="0.19" />
  <line x1="391.5" y1="242.5" x2="365.5" y2="274.7" stroke="#bcc3cd" stroke-width="0.9" opacity="0.21" />
  <line x1="391.5" y1="242.5" x2="382.8" y2="273.7" stroke="#bcc3cd" stroke-width="1.0" opacity="0.24" />
  <line x1="316.2" y1="291.0" x2="337.9" y2="287.9" stroke="#bcc3cd" stroke-width="0.9" opacity="0.18" />
  <line x1="316.2" y1="291.0" x2="308.0" y2="285.5" stroke="#bcc3cd" stroke-width="0.9" opacity="0.18" />
  <line x1="316.2" y1="291.0" x2="365.5" y2="274.7" stroke="#bcc3cd" stroke-width="0.9" opacity="0.17" />
  <line x1="316.2" y1="291.0" x2="336.6" y2="276.5" stroke="#bcc3cd" stroke-width="1.3" opacity="0.42" />
  <line x1="316.2" y1="291.0" x2="382.8" y2="273.7" stroke="#bcc3cd" stroke-width="0.9" opacity="0.19" />
  <line x1="316.2" y1="291.0" x2="329.4" y2="281.6" stroke="#bcc3cd" stroke-width="0.9" opacity="0.21" />
  <line x1="449.5" y1="218.4" x2="432.0" y2="251.6" stroke="#bcc3cd" stroke-width="1.1" opacity="0.28" />
  <line x1="449.5" y1="218.4" x2="444.5" y2="233.1" stroke="#bcc3cd" stroke-width="0.9" opacity="0.17" />
  <line x1="449.5" y1="218.4" x2="413.2" y2="223.6" stroke="#bcc3cd" stroke-width="1.2" opacity="0.37" />
  <line x1="432.0" y1="251.6" x2="415.4" y2="256.5" stroke="#bcc3cd" stroke-width="1.1" opacity="0.31" />
  <line x1="432.0" y1="251.6" x2="396.1" y2="251.2" stroke="#bcc3cd" stroke-width="0.9" opacity="0.20" />
  <line x1="432.0" y1="251.6" x2="410.5" y2="247.6" stroke="#bcc3cd" stroke-width="1.0" opacity="0.24" />
  <line x1="432.0" y1="251.6" x2="424.7" y2="242.2" stroke="#bcc3cd" stroke-width="0.9" opacity="0.20" />
  <line x1="432.0" y1="251.6" x2="413.2" y2="223.6" stroke="#bcc3cd" stroke-width="0.9" opacity="0.18" />
  <line x1="432.0" y1="251.6" x2="424.0" y2="266.3" stroke="#bcc3cd" stroke-width="1.5" opacity="0.55" />
  <line x1="432.0" y1="251.6" x2="435.2" y2="272.9" stroke="#bcc3cd" stroke-width="1.2" opacity="0.37" />
  <line x1="432.0" y1="251.6" x2="410.4" y2="271.5" stroke="#bcc3cd" stroke-width="1.0" opacity="0.22" />
  <line x1="432.0" y1="251.6" x2="382.8" y2="273.7" stroke="#bcc3cd" stroke-width="1.0" opacity="0.22" />
  <line x1="432.0" y1="251.6" x2="443.5" y2="263.3" stroke="#bcc3cd" stroke-width="1.2" opacity="0.37" />
  <line x1="432.0" y1="251.6" x2="381.8" y2="257.9" stroke="#bcc3cd" stroke-width="1.1" opacity="0.28" />
  <line x1="432.0" y1="251.6" x2="446.6" y2="276.2" stroke="#bcc3cd" stroke-width="1.2" opacity="0.37" />
  <line x1="415.4" y1="256.5" x2="396.1" y2="251.2" stroke="#bcc3cd" stroke-width="1.1" opacity="0.31" />
  <line x1="415.4" y1="256.5" x2="410.5" y2="247.6" stroke="#bcc3cd" stroke-width="1.2" opacity="0.37" />
  <line x1="415.4" y1="256.5" x2="424.7" y2="242.2" stroke="#bcc3cd" stroke-width="1.1" opacity="0.31" />
  <line x1="415.4" y1="256.5" x2="444.5" y2="233.1" stroke="#bcc3cd" stroke-width="1.0" opacity="0.26" />
  <line x1="415.4" y1="256.5" x2="413.2" y2="223.6" stroke="#bcc3cd" stroke-width="1.0" opacity="0.22" />
  <line x1="415.4" y1="256.5" x2="435.3" y2="298.3" stroke="#bcc3cd" stroke-width="0.9" opacity="0.18" />
  <line x1="415.4" y1="256.5" x2="407.1" y2="279.8" stroke="#bcc3cd" stroke-width="0.9" opacity="0.20" />
  <line x1="415.4" y1="256.5" x2="410.4" y2="271.5" stroke="#bcc3cd" stroke-width="1.0" opacity="0.24" />
  <line x1="415.4" y1="256.5" x2="365.5" y2="274.7" stroke="#bcc3cd" stroke-width="0.9" opacity="0.20" />
  <line x1="415.4" y1="256.5" x2="382.8" y2="273.7" stroke="#bcc3cd" stroke-width="1.0" opacity="0.24" />
  <line x1="415.4" y1="256.5" x2="395.6" y2="290.3" stroke="#bcc3cd" stroke-width="0.9" opacity="0.18" />
  <line x1="447.3" y1="290.9" x2="410.4" y2="271.5" stroke="#bcc3cd" stroke-width="0.9" opacity="0.18" />
  <line x1="447.3" y1="290.9" x2="382.8" y2="273.7" stroke="#bcc3cd" stroke-width="1.1" opacity="0.30" />
  <line x1="396.1" y1="251.2" x2="410.5" y2="247.6" stroke="#bcc3cd" stroke-width="1.1" opacity="0.28" />
  <line x1="396.1" y1="251.2" x2="424.7" y2="242.2" stroke="#bcc3cd" stroke-width="1.0" opacity="0.24" />
  <line x1="396.1" y1="251.2" x2="444.5" y2="233.1" stroke="#bcc3cd" stroke-width="0.9" opacity="0.17" />
  <line x1="396.1" y1="251.2" x2="353.1" y2="271.1" stroke="#bcc3cd" stroke-width="0.9" opacity="0.19" />
  <line x1="396.1" y1="251.2" x2="370.6" y2="285.0" stroke="#bcc3cd" stroke-width="0.9" opacity="0.18" />
  <line x1="396.1" y1="251.2" x2="410.4" y2="271.5" stroke="#bcc3cd" stroke-width="0.9" opacity="0.17" />
  <line x1="396.1" y1="251.2" x2="382.8" y2="273.7" stroke="#bcc3cd" stroke-width="0.9" opacity="0.17" />
  <line x1="410.5" y1="247.6" x2="424.7" y2="242.2" stroke="#bcc3cd" stroke-width="1.1" opacity="0.28" />
  <line x1="410.5" y1="247.6" x2="444.5" y2="233.1" stroke="#bcc3cd" stroke-width="0.9" opacity="0.18" />
  <line x1="410.5" y1="247.6" x2="413.2" y2="223.6" stroke="#bcc3cd" stroke-width="0.9" opacity="0.18" />
  <line x1="410.5" y1="247.6" x2="407.1" y2="279.8" stroke="#bcc3cd" stroke-width="0.9" opacity="0.17" />
  <line x1="410.5" y1="247.6" x2="410.4" y2="271.5" stroke="#bcc3cd" stroke-width="0.9" opacity="0.20" />
  <line x1="410.5" y1="247.6" x2="365.5" y2="274.7" stroke="#bcc3cd" stroke-width="0.9" opacity="0.17" />
  <line x1="410.5" y1="247.6" x2="382.8" y2="273.7" stroke="#bcc3cd" stroke-width="0.9" opacity="0.20" />
  <line x1="424.7" y1="242.2" x2="444.5" y2="233.1" stroke="#bcc3cd" stroke-width="0.9" opacity="0.17" />
  <line x1="424.7" y1="242.2" x2="410.4" y2="271.5" stroke="#bcc3cd" stroke-width="0.9" opacity="0.17" />
  <line x1="424.7" y1="242.2" x2="382.8" y2="273.7" stroke="#bcc3cd" stroke-width="0.9" opacity="0.17" />
  <line x1="293.3" y1="303.2" x2="337.9" y2="287.9" stroke="#bcc3cd" stroke-width="1.0" opacity="0.26" />
  <line x1="293.3" y1="303.2" x2="308.0" y2="285.5" stroke="#bcc3cd" stroke-width="1.1" opacity="0.31" />
  <line x1="293.3" y1="303.2" x2="329.4" y2="281.6" stroke="#bcc3cd" stroke-width="0.9" opacity="0.18" />
  <line x1="413.2" y1="223.6" x2="362.5" y2="223.1" stroke="#bcc3cd" stroke-width="1.0" opacity="0.22" />
  <line x1="485.0" y1="316.9" x2="435.3" y2="298.3" stroke="#bcc3cd" stroke-width="1.3" opacity="0.44" />
  <line x1="485.0" y1="316.9" x2="489.6" y2="299.8" stroke="#bcc3cd" stroke-width="0.9" opacity="0.18" />
  <line x1="435.3" y1="298.3" x2="435.2" y2="272.9" stroke="#bcc3cd" stroke-width="1.1" opacity="0.31" />
  <line x1="435.3" y1="298.3" x2="407.1" y2="279.8" stroke="#bcc3cd" stroke-width="0.9" opacity="0.20" />
  <line x1="435.3" y1="298.3" x2="410.4" y2="271.5" stroke="#bcc3cd" stroke-width="1.0" opacity="0.24" />
  <line x1="435.3" y1="298.3" x2="365.5" y2="274.7" stroke="#bcc3cd" stroke-width="0.9" opacity="0.20" />
  <line x1="435.3" y1="298.3" x2="382.8" y2="273.7" stroke="#bcc3cd" stroke-width="1.0" opacity="0.24" />
  <line x1="435.3" y1="298.3" x2="395.6" y2="290.3" stroke="#bcc3cd" stroke-width="0.9" opacity="0.18" />
  <line x1="435.3" y1="298.3" x2="439.1" y2="361.9" stroke="#bcc3cd" stroke-width="0.9" opacity="0.17" />
  <line x1="435.3" y1="298.3" x2="446.6" y2="276.2" stroke="#bcc3cd" stroke-width="1.1" opacity="0.31" />
  <line x1="435.3" y1="298.3" x2="489.6" y2="299.8" stroke="#bcc3cd" stroke-width="1.1" opacity="0.30" />
  <line x1="491.3" y1="50.0" x2="506.7" y2="58.5" stroke="#bcc3cd" stroke-width="1.6" opacity="0.60" />
  <line x1="193.0" y1="300.2" x2="308.0" y2="285.5" stroke="#bcc3cd" stroke-width="0.9" opacity="0.18" />
  <line x1="193.0" y1="300.2" x2="128.9" y2="308.9" stroke="#bcc3cd" stroke-width="1.1" opacity="0.28" />
  <line x1="322.0" y1="267.9" x2="337.9" y2="287.9" stroke="#bcc3cd" stroke-width="0.9" opacity="0.17" />
  <line x1="322.0" y1="267.9" x2="308.0" y2="285.5" stroke="#bcc3cd" stroke-width="0.9" opacity="0.18" />
  <line x1="322.0" y1="267.9" x2="353.1" y2="271.1" stroke="#bcc3cd" stroke-width="1.0" opacity="0.22" />
  <line x1="322.0" y1="267.9" x2="365.5" y2="274.7" stroke="#bcc3cd" stroke-width="1.1" opacity="0.28" />
  <line x1="322.0" y1="267.9" x2="336.6" y2="276.5" stroke="#bcc3cd" stroke-width="1.1" opacity="0.32" />
  <line x1="322.0" y1="267.9" x2="382.8" y2="273.7" stroke="#bcc3cd" stroke-width="0.9" opacity="0.20" />
  <line x1="322.0" y1="267.9" x2="329.4" y2="281.6" stroke="#bcc3cd" stroke-width="1.0" opacity="0.22" />
  <line x1="322.0" y1="267.9" x2="381.8" y2="257.9" stroke="#bcc3cd" stroke-width="1.0" opacity="0.22" />
  <line x1="337.9" y1="287.9" x2="308.0" y2="285.5" stroke="#bcc3cd" stroke-width="1.3" opacity="0.42" />
  <line x1="337.9" y1="287.9" x2="334.3" y2="296.7" stroke="#bcc3cd" stroke-width="0.9" opacity="0.18" />
  <line x1="337.9" y1="287.9" x2="336.6" y2="263.5" stroke="#bcc3cd" stroke-width="1.1" opacity="0.31" />
  <line x1="337.9" y1="287.9" x2="353.1" y2="271.1" stroke="#bcc3cd" stroke-width="1.1" opacity="0.32" />
  <line x1="337.9" y1="287.9" x2="370.6" y2="285.0" stroke="#bcc3cd" stroke-width="1.0" opacity="0.23" />
  <line x1="337.9" y1="287.9" x2="365.5" y2="274.7" stroke="#bcc3cd" stroke-width="1.2" opacity="0.39" />
  <line x1="337.9" y1="287.9" x2="336.6" y2="276.5" stroke="#bcc3cd" stroke-width="1.0" opacity="0.26" />
  <line x1="337.9" y1="287.9" x2="382.8" y2="273.7" stroke="#bcc3cd" stroke-width="1.2" opacity="0.34" />
  <line x1="337.9" y1="287.9" x2="395.6" y2="290.3" stroke="#bcc3cd" stroke-width="0.9" opacity="0.19" />
  <line x1="337.9" y1="287.9" x2="329.4" y2="281.6" stroke="#bcc3cd" stroke-width="1.0" opacity="0.25" />
  <line x1="308.0" y1="285.5" x2="334.3" y2="296.7" stroke="#bcc3cd" stroke-width="1.1" opacity="0.33" />
  <line x1="308.0" y1="285.5" x2="336.6" y2="263.5" stroke="#bcc3cd" stroke-width="0.9" opacity="0.21" />
  <line x1="308.0" y1="285.5" x2="353.1" y2="271.1" stroke="#bcc3cd" stroke-width="0.9" opacity="0.18" />
  <line x1="308.0" y1="285.5" x2="365.5" y2="274.7" stroke="#bcc3cd" stroke-width="1.3" opacity="0.41" />
  <line x1="308.0" y1="285.5" x2="336.6" y2="276.5" stroke="#bcc3cd" stroke-width="1.0" opacity="0.22" />
  <line x1="308.0" y1="285.5" x2="382.8" y2="273.7" stroke="#bcc3cd" stroke-width="1.1" opacity="0.31" />
  <line x1="308.0" y1="285.5" x2="329.4" y2="281.6" stroke="#bcc3cd" stroke-width="1.7" opacity="0.66" />
  <line x1="424.0" y1="266.3" x2="435.2" y2="272.9" stroke="#bcc3cd" stroke-width="1.5" opacity="0.55" />
  <line x1="424.0" y1="266.3" x2="407.1" y2="279.8" stroke="#bcc3cd" stroke-width="0.9" opacity="0.18" />
  <line x1="424.0" y1="266.3" x2="410.4" y2="271.5" stroke="#bcc3cd" stroke-width="1.1" opacity="0.28" />
  <line x1="424.0" y1="266.3" x2="365.5" y2="274.7" stroke="#bcc3cd" stroke-width="0.9" opacity="0.18" />
  <line x1="424.0" y1="266.3" x2="382.8" y2="273.7" stroke="#bcc3cd" stroke-width="1.1" opacity="0.28" />
  <line x1="424.0" y1="266.3" x2="443.5" y2="263.3" stroke="#bcc3cd" stroke-width="1.5" opacity="0.55" />
  <line x1="424.0" y1="266.3" x2="381.8" y2="257.9" stroke="#bcc3cd" stroke-width="1.2" opacity="0.37" />
  <line x1="424.0" y1="266.3" x2="446.6" y2="276.2" stroke="#bcc3cd" stroke-width="1.5" opacity="0.55" />
  <line x1="435.2" y1="272.9" x2="410.4" y2="271.5" stroke="#bcc3cd" stroke-width="1.0" opacity="0.22" />
  <line x1="435.2" y1="272.9" x2="382.8" y2="273.7" stroke="#bcc3cd" stroke-width="1.0" opacity="0.22" />
  <line x1="435.2" y1="272.9" x2="443.5" y2="263.3" stroke="#bcc3cd" stroke-width="1.2" opacity="0.37" />
  <line x1="435.2" y1="272.9" x2="381.8" y2="257.9" stroke="#bcc3cd" stroke-width="1.1" opacity="0.28" />
  <line x1="435.2" y1="272.9" x2="446.6" y2="276.2" stroke="#bcc3cd" stroke-width="1.2" opacity="0.37" />
  <line x1="334.3" y1="296.7" x2="365.5" y2="274.7" stroke="#bcc3cd" stroke-width="0.9" opacity="0.18" />
  <line x1="334.3" y1="296.7" x2="336.6" y2="276.5" stroke="#bcc3cd" stroke-width="0.9" opacity="0.18" />
  <line x1="334.3" y1="296.7" x2="382.8" y2="273.7" stroke="#bcc3cd" stroke-width="1.0" opacity="0.22" />
  <line x1="334.3" y1="296.7" x2="329.4" y2="281.6" stroke="#bcc3cd" stroke-width="1.3" opacity="0.41" />
  <line x1="336.6" y1="263.5" x2="353.1" y2="271.1" stroke="#bcc3cd" stroke-width="1.1" opacity="0.31" />
  <line x1="336.6" y1="263.5" x2="365.5" y2="274.7" stroke="#bcc3cd" stroke-width="1.4" opacity="0.47" />
  <line x1="336.6" y1="263.5" x2="336.6" y2="276.5" stroke="#bcc3cd" stroke-width="0.9" opacity="0.19" />
  <line x1="336.6" y1="263.5" x2="382.8" y2="273.7" stroke="#bcc3cd" stroke-width="1.0" opacity="0.22" />
  <line x1="353.1" y1="271.1" x2="370.6" y2="285.0" stroke="#bcc3cd" stroke-width="1.1" opacity="0.29" />
  <line x1="353.1" y1="271.1" x2="407.1" y2="279.8" stroke="#bcc3cd" stroke-width="0.9" opacity="0.17" />
  <line x1="353.1" y1="271.1" x2="410.4" y2="271.5" stroke="#bcc3cd" stroke-width="0.9" opacity="0.20" />
  <line x1="353.1" y1="271.1" x2="365.5" y2="274.7" stroke="#bcc3cd" stroke-width="1.3" opacity="0.40" />
  <line x1="353.1" y1="271.1" x2="336.6" y2="276.5" stroke="#bcc3cd" stroke-width="1.0" opacity="0.24" />
  <line x1="353.1" y1="271.1" x2="382.8" y2="273.7" stroke="#bcc3cd" stroke-width="0.9" opacity="0.20" />
  <line x1="370.6" y1="285.0" x2="410.4" y2="271.5" stroke="#bcc3cd" stroke-width="0.9" opacity="0.18" />
  <line x1="370.6" y1="285.0" x2="336.6" y2="276.5" stroke="#bcc3cd" stroke-width="1.0" opacity="0.23" />
  <line x1="370.6" y1="285.0" x2="382.8" y2="273.7" stroke="#bcc3cd" stroke-width="0.9" opacity="0.18" />
  <line x1="370.6" y1="285.0" x2="395.6" y2="290.3" stroke="#bcc3cd" stroke-width="1.0" opacity="0.24" />
  <line x1="407.1" y1="279.8" x2="410.4" y2="271.5" stroke="#bcc3cd" stroke-width="1.1" opacity="0.28" />
  <line x1="407.1" y1="279.8" x2="365.5" y2="274.7" stroke="#bcc3cd" stroke-width="1.0" opacity="0.22" />
  <line x1="407.1" y1="279.8" x2="382.8" y2="273.7" stroke="#bcc3cd" stroke-width="1.1" opacity="0.28" />
  <line x1="407.1" y1="279.8" x2="395.6" y2="290.3" stroke="#bcc3cd" stroke-width="0.9" opacity="0.20" />
  <line x1="410.4" y1="271.5" x2="365.5" y2="274.7" stroke="#bcc3cd" stroke-width="1.1" opacity="0.28" />
  <line x1="410.4" y1="271.5" x2="382.8" y2="273.7" stroke="#bcc3cd" stroke-width="1.2" opacity="0.37" />
  <line x1="410.4" y1="271.5" x2="443.5" y2="263.3" stroke="#bcc3cd" stroke-width="1.0" opacity="0.22" />
  <line x1="410.4" y1="271.5" x2="395.6" y2="290.3" stroke="#bcc3cd" stroke-width="1.0" opacity="0.24" />
  <line x1="410.4" y1="271.5" x2="381.8" y2="257.9" stroke="#bcc3cd" stroke-width="0.9" opacity="0.18" />
  <line x1="410.4" y1="271.5" x2="446.6" y2="276.2" stroke="#bcc3cd" stroke-width="1.0" opacity="0.22" />
  <line x1="365.5" y1="274.7" x2="336.6" y2="276.5" stroke="#bcc3cd" stroke-width="1.1" opacity="0.29" />
  <line x1="365.5" y1="274.7" x2="382.8" y2="273.7" stroke="#bcc3cd" stroke-width="1.4" opacity="0.47" />
  <line x1="365.5" y1="274.7" x2="395.6" y2="290.3" stroke="#bcc3cd" stroke-width="0.9" opacity="0.20" />
  <line x1="365.5" y1="274.7" x2="329.4" y2="281.6" stroke="#bcc3cd" stroke-width="1.1" opacity="0.31" />
  <line x1="365.5" y1="274.7" x2="381.8" y2="257.9" stroke="#bcc3cd" stroke-width="1.1" opacity="0.31" />
  <line x1="336.6" y1="276.5" x2="382.8" y2="273.7" stroke="#bcc3cd" stroke-width="1.2" opacity="0.34" />
  <line x1="336.6" y1="276.5" x2="329.4" y2="281.6" stroke="#bcc3cd" stroke-width="1.0" opacity="0.25" />
  <line x1="336.6" y1="276.5" x2="381.8" y2="257.9" stroke="#bcc3cd" stroke-width="1.0" opacity="0.25" />
  <line x1="382.8" y1="273.7" x2="443.5" y2="263.3" stroke="#bcc3cd" stroke-width="1.0" opacity="0.22" />
  <line x1="382.8" y1="273.7" x2="395.6" y2="290.3" stroke="#bcc3cd" stroke-width="1.0" opacity="0.24" />
  <line x1="382.8" y1="273.7" x2="329.4" y2="281.6" stroke="#bcc3cd" stroke-width="1.3" opacity="0.44" />
  <line x1="382.8" y1="273.7" x2="381.8" y2="257.9" stroke="#bcc3cd" stroke-width="1.3" opacity="0.44" />
  <line x1="382.8" y1="273.7" x2="446.6" y2="276.2" stroke="#bcc3cd" stroke-width="1.0" opacity="0.22" />
  <line x1="728.0" y1="117.4" x2="748.8" y2="129.3" stroke="#bcc3cd" stroke-width="1.0" opacity="0.22" />
  <line x1="443.5" y1="263.3" x2="381.8" y2="257.9" stroke="#bcc3cd" stroke-width="1.1" opacity="0.28" />
  <line x1="443.5" y1="263.3" x2="446.6" y2="276.2" stroke="#bcc3cd" stroke-width="1.2" opacity="0.37" />
  <line x1="434.2" y1="383.7" x2="425.4" y2="392.5" stroke="#bcc3cd" stroke-width="1.5" opacity="0.55" />
  <line x1="434.2" y1="383.7" x2="439.1" y2="361.9" stroke="#bcc3cd" stroke-width="1.3" opacity="0.41" />
  <line x1="425.4" y1="392.5" x2="439.1" y2="361.9" stroke="#bcc3cd" stroke-width="1.0" opacity="0.24" />
  <line x1="329.4" y1="281.6" x2="381.8" y2="257.9" stroke="#bcc3cd" stroke-width="1.0" opacity="0.22" />
  <line x1="381.8" y1="257.9" x2="362.5" y2="223.1" stroke="#bcc3cd" stroke-width="1.2" opacity="0.37" />
  <line x1="381.8" y1="257.9" x2="331.4" y2="216.8" stroke="#bcc3cd" stroke-width="0.9" opacity="0.18" />
  <line x1="381.8" y1="257.9" x2="446.6" y2="276.2" stroke="#bcc3cd" stroke-width="1.1" opacity="0.28" />
  <line x1="362.5" y1="223.1" x2="331.4" y2="216.8" stroke="#bcc3cd" stroke-width="1.1" opacity="0.28" />
  <line x1="446.6" y1="276.2" x2="489.6" y2="299.8" stroke="#bcc3cd" stroke-width="1.1" opacity="0.31" />
  <circle cx="429.8" cy="228.4" r="6.7" fill="#3498db" opacity="0.88" />
  <circle cx="309.5" cy="315.1" r="14" fill="#3498db" opacity="0.88" />
  <circle cx="391.5" cy="242.5" r="14" fill="#7f8c8d" opacity="0.88" />
  <circle cx="316.2" cy="291.0" r="14" fill="#9b59b6" opacity="0.88" />
  <circle cx="449.5" cy="218.4" r="5.8" fill="#3498db" opacity="0.88" />
  <circle cx="432.0" cy="251.6" r="4.9" fill="#3498db" opacity="0.88" />
  <circle cx="415.4" cy="256.5" r="9.4" fill="#e67e22" opacity="0.88" />
  <circle cx="447.3" cy="290.9" r="12.1" fill="#e67e22" opacity="0.88" />
  <circle cx="396.1" cy="251.2" r="13.0" fill="#3498db" opacity="0.88" />
  <circle cx="410.5" cy="247.6" r="11.2" fill="#3498db" opacity="0.88" />
  <circle cx="424.7" cy="242.2" r="13.0" fill="#3498db" opacity="0.88" />
  <circle cx="444.5" cy="233.1" r="14" fill="#e74c3c" opacity="0.88" />
  <circle cx="293.3" cy="303.2" r="14" fill="#e74c3c" opacity="0.88" />
  <circle cx="413.2" cy="223.6" r="7.6" fill="#2ecc71" opacity="0.88" />
  <circle cx="485.0" cy="316.9" r="9.4" fill="#e74c3c" opacity="0.88" />
  <circle cx="693.9" cy="89.0" r="11.2" fill="#3498db" opacity="0.88" />
  <circle cx="435.3" cy="298.3" r="9.4" fill="#e74c3c" opacity="0.88" />
  <circle cx="811.2" cy="338.1" r="4" fill="#3498db" opacity="0.88" />
  <circle cx="491.3" cy="50.0" r="11.2" fill="#3498db" opacity="0.88" />
  <circle cx="506.7" cy="58.5" r="10.3" fill="#3498db" opacity="0.88" />
  <circle cx="193.0" cy="300.2" r="4.9" fill="#3498db" opacity="0.88" />
  <circle cx="322.0" cy="267.9" r="11.2" fill="#9b59b6" opacity="0.88" />
  <circle cx="337.9" cy="287.9" r="14" fill="#9b59b6" opacity="0.88" />
  <circle cx="308.0" cy="285.5" r="7.6" fill="#9b59b6" opacity="0.88" />
  <circle cx="424.0" cy="266.3" r="4" fill="#2ecc71" opacity="0.88" />
  <circle cx="435.2" cy="272.9" r="4.9" fill="#7f8c8d" opacity="0.88" />
  <circle cx="334.3" cy="296.7" r="10.3" fill="#e67e22" opacity="0.88" />
  <circle cx="336.6" cy="263.5" r="14" fill="#2ecc71" opacity="0.88" />
  <circle cx="128.9" cy="308.9" r="5.8" fill="#9b59b6" opacity="0.88" />
  <circle cx="50.0" cy="183.3" r="4" fill="#7f8c8d" opacity="0.88" />
  <circle cx="291.2" cy="60.8" r="4" fill="#7f8c8d" opacity="0.88" />
  <circle cx="353.1" cy="271.1" r="11.2" fill="#3498db" opacity="0.88" />
  <circle cx="370.6" cy="285.0" r="12.1" fill="#7f8c8d" opacity="0.88" />
  <circle cx="407.1" cy="279.8" r="8.5" fill="#7f8c8d" opacity="0.88" />
  <circle cx="214.0" cy="413.2" r="4" fill="#7f8c8d" opacity="0.88" />
  <circle cx="410.4" cy="271.5" r="6.7" fill="#7f8c8d" opacity="0.88" />
  <circle cx="365.5" cy="274.7" r="8.5" fill="#7f8c8d" opacity="0.88" />
  <circle cx="336.6" cy="276.5" r="14" fill="#2ecc71" opacity="0.88" />
  <circle cx="382.8" cy="273.7" r="6.7" fill="#7f8c8d" opacity="0.88" />
  <circle cx="728.0" cy="117.4" r="6.7" fill="#7f8c8d" opacity="0.88" />
  <circle cx="850.0" cy="266.5" r="6.7" fill="#3498db" opacity="0.88" />
  <circle cx="443.5" cy="263.3" r="4.9" fill="#7f8c8d" opacity="0.88" />
  <circle cx="434.2" cy="383.7" r="5.8" fill="#e67e22" opacity="0.88" />
  <circle cx="425.4" cy="392.5" r="5.8" fill="#e67e22" opacity="0.88" />
  <circle cx="395.6" cy="290.3" r="9.4" fill="#7f8c8d" opacity="0.88" />
  <circle cx="439.1" cy="361.9" r="10.3" fill="#e67e22" opacity="0.88" />
  <circle cx="748.8" cy="129.3" r="4.9" fill="#7f8c8d" opacity="0.88" />
  <circle cx="329.4" cy="281.6" r="5.8" fill="#7f8c8d" opacity="0.88" />
  <circle cx="381.8" cy="257.9" r="5.8" fill="#7f8c8d" opacity="0.88" />
  <circle cx="362.5" cy="223.1" r="4" fill="#2ecc71" opacity="0.88" />
  <circle cx="331.4" cy="216.8" r="6.7" fill="#2ecc71" opacity="0.88" />
  <circle cx="446.6" cy="276.2" r="4.9" fill="#e74c3c" opacity="0.88" />
  <circle cx="489.6" cy="299.8" r="9.4" fill="#e74c3c" opacity="0.88" />
  <circle cx="383.2" cy="440.0" r="4" fill="#7f8c8d" opacity="0.88" />
  <rect x="438.5" y="221.9" width="15.2" height="14" fill="#ffffff" opacity="0.75" rx="2" />
  <text x="439.5" y="231.9" font-family="system-ui, -apple-system, sans-serif" font-size="11" fill="#1f2328" text-anchor="start">pp</text>
  <rect x="325.5" y="398.1" width="107.6" height="14" fill="#ffffff" opacity="0.75" rx="2" />
  <text x="326.5" y="408.1" font-family="system-ui, -apple-system, sans-serif" font-size="11" fill="#1f2328" text-anchor="start">GloriousFlywheel</text>
  <rect x="407.5" y="269.0" width="114.2" height="14" fill="#ffffff" opacity="0.75" rx="2" />
  <text x="408.5" y="279.0" font-family="system-ui, -apple-system, sans-serif" font-size="11" fill="#1f2328" text-anchor="start">tinyland-huskycat</text>
  <rect x="332.2" y="343.3" width="87.8" height="14" fill="#ffffff" opacity="0.75" rx="2" />
  <text x="333.2" y="353.3" font-family="system-ui, -apple-system, sans-serif" font-size="11" fill="#1f2328" text-anchor="start">GIS_Shortcuts</text>
  <rect x="457.3" y="220.4" width="107.6" height="14" fill="#ffffff" opacity="0.75" rx="2" />
  <text x="458.3" y="230.4" font-family="system-ui, -apple-system, sans-serif" font-size="11" fill="#1f2328" text-anchor="start">tinyland-cleanup</text>
  <rect x="438.9" y="121.4" width="87.8" height="14" fill="#ffffff" opacity="0.75" rx="2" />
  <text x="439.9" y="131.4" font-family="system-ui, -apple-system, sans-serif" font-size="11" fill="#1f2328" text-anchor="start">tinyland-kdbx</text>
  <rect x="426.8" y="296.5" width="41.6" height="14" fill="#ffffff" opacity="0.75" rx="2" />
  <text x="427.8" y="306.5" font-family="system-ui, -apple-system, sans-serif" font-size="11" fill="#1f2328" text-anchor="start">XoxdWM</text>
  <rect x="461.4" y="304.1" width="101.0" height="14" fill="#ffffff" opacity="0.75" rx="2" />
  <text x="462.4" y="314.1" font-family="system-ui, -apple-system, sans-serif" font-size="11" fill="#1f2328" text-anchor="start">hiberpower-ntfs</text>
  <rect x="411.1" y="200.2" width="127.4" height="14" fill="#ffffff" opacity="0.75" rx="2" />
  <text x="412.1" y="210.2" font-family="system-ui, -apple-system, sans-serif" font-size="11" fill="#1f2328" text-anchor="start">Ansible-DAG-Harness</text>
  <rect x="423.7" y="163.7" width="61.4" height="14" fill="#ffffff" opacity="0.75" rx="2" />
  <text x="424.7" y="173.7" font-family="system-ui, -apple-system, sans-serif" font-size="11" fill="#1f2328" text-anchor="start">betterkvm</text>
  <rect x="439.7" y="265.1" width="87.8" height="14" fill="#ffffff" opacity="0.75" rx="2" />
  <text x="440.7" y="275.1" font-family="system-ui, -apple-system, sans-serif" font-size="11" fill="#1f2328" text-anchor="start">DarwinNicUtil</text>
  <rect x="460.5" y="133.3" width="87.8" height="14" fill="#ffffff" opacity="0.75" rx="2" />
  <text x="461.5" y="143.3" font-family="system-ui, -apple-system, sans-serif" font-size="11" fill="#1f2328" text-anchor="start">RemoteJuggler</text>
  <rect x="309.3" y="384.6" width="120.8" height="14" fill="#ffffff" opacity="0.75" rx="2" />
  <text x="310.3" y="394.6" font-family="system-ui, -apple-system, sans-serif" font-size="11" fill="#1f2328" text-anchor="start">pixelwise-research</text>
  <rect x="422.8" y="107.5" width="54.8" height="14" fill="#ffffff" opacity="0.75" rx="2" />
  <text x="423.8" y="117.5" font-family="system-ui, -apple-system, sans-serif" font-size="11" fill="#1f2328" text-anchor="start">gnucashr</text>
  <rect x="496.4" y="356.8" width="61.4" height="14" fill="#ffffff" opacity="0.75" rx="2" />
  <text x="497.4" y="366.8" font-family="system-ui, -apple-system, sans-serif" font-size="11" fill="#1f2328" text-anchor="start">quickchpl</text>
  <rect x="707.1" y="82.9" width="120.8" height="14" fill="#ffffff" opacity="0.75" rx="2" />
  <text x="708.1" y="92.9" font-family="system-ui, -apple-system, sans-serif" font-size="11" fill="#1f2328" text-anchor="start">tinyscale-mikrotik</text>
  <rect x="446.7" y="330.3" width="54.8" height="14" fill="#ffffff" opacity="0.75" rx="2" />
  <text x="447.7" y="340.3" font-family="system-ui, -apple-system, sans-serif" font-size="11" fill="#1f2328" text-anchor="start">aoc-2025</text>
  <rect x="737.2" y="331.9" width="68.0" height="14" fill="#ffffff" opacity="0.75" rx="2" />
  <text x="804.2" y="341.9" font-family="system-ui, -apple-system, sans-serif" font-size="11" fill="#1f2328" text-anchor="end">tinywaffle</text>
  <rect x="504.5" y="40.1" width="61.4" height="14" fill="#ffffff" opacity="0.75" rx="2" />
  <text x="505.5" y="50.1" font-family="system-ui, -apple-system, sans-serif" font-size="11" fill="#1f2328" text-anchor="start">searchies</text>
  <rect x="519.0" y="56.1" width="54.8" height="14" fill="#ffffff" opacity="0.75" rx="2" />
  <text x="520.0" y="66.1" font-family="system-ui, -apple-system, sans-serif" font-size="11" fill="#1f2328" text-anchor="start">ts-caddy</text>
  <rect x="199.9" y="290.4" width="61.4" height="14" fill="#ffffff" opacity="0.75" rx="2" />
  <text x="200.9" y="300.4" font-family="system-ui, -apple-system, sans-serif" font-size="11" fill="#1f2328" text-anchor="start">HCI-notes</text>
  <rect x="335.2" y="186.3" width="81.2" height="14" fill="#ffffff" opacity="0.75" rx="2" />
  <text x="336.2" y="196.3" font-family="system-ui, -apple-system, sans-serif" font-size="11" fill="#1f2328" text-anchor="start">FastPhotoAPI</text>
  <rect x="353.9" y="287.7" width="74.6" height="14" fill="#ffffff" opacity="0.75" rx="2" />
  <text x="354.9" y="297.7" font-family="system-ui, -apple-system, sans-serif" font-size="11" fill="#1f2328" text-anchor="start">timberbuddy</text>
  <rect x="317.6" y="317.7" width="74.6" height="14" fill="#ffffff" opacity="0.75" rx="2" />
  <text x="318.6" y="327.7" font-family="system-ui, -apple-system, sans-serif" font-size="11" fill="#1f2328" text-anchor="start">tetrahedron</text>
  <rect x="430.0" y="280.5" width="87.8" height="14" fill="#ffffff" opacity="0.75" rx="2" />
  <text x="431.0" y="290.5" font-family="system-ui, -apple-system, sans-serif" font-size="11" fill="#1f2328" text-anchor="start">AccuWixReport</text>
  <rect x="442.1" y="317.0" width="87.8" height="14" fill="#ffffff" opacity="0.75" rx="2" />
  <text x="443.1" y="327.0" font-family="system-ui, -apple-system, sans-serif" font-size="11" fill="#1f2328" text-anchor="start">Jess-AOC-2023</text>
  <rect x="346.6" y="371.1" width="74.6" height="14" fill="#ffffff" opacity="0.75" rx="2" />
  <text x="347.6" y="381.1" font-family="system-ui, -apple-system, sans-serif" font-size="11" fill="#1f2328" text-anchor="start">TurkeyProbe</text>
  <rect x="352.6" y="238.8" width="140.6" height="14" fill="#ffffff" opacity="0.75" rx="2" />
  <text x="353.6" y="248.8" font-family="system-ui, -apple-system, sans-serif" font-size="11" fill="#1f2328" text-anchor="start">MerlinAI-Interpreters</text>
  <rect x="136.7" y="306.4" width="101.0" height="14" fill="#ffffff" opacity="0.75" rx="2" />
  <text x="137.7" y="316.4" font-family="system-ui, -apple-system, sans-serif" font-size="11" fill="#1f2328" text-anchor="start">IntroTypeScript</text>
  <rect x="56.0" y="177.2" width="41.6" height="14" fill="#ffffff" opacity="0.75" rx="2" />
  <text x="57.0" y="187.2" font-family="system-ui, -apple-system, sans-serif" font-size="11" fill="#1f2328" text-anchor="start">NyxBox</text>
  <rect x="297.2" y="54.7" width="101.0" height="14" fill="#ffffff" opacity="0.75" rx="2" />
  <text x="298.2" y="64.7" font-family="system-ui, -apple-system, sans-serif" font-size="11" fill="#1f2328" text-anchor="start">IG-3DP-Profiles</text>
  <rect x="366.3" y="252.4" width="61.4" height="14" fill="#ffffff" opacity="0.75" rx="2" />
  <text x="367.3" y="262.4" font-family="system-ui, -apple-system, sans-serif" font-size="11" fill="#1f2328" text-anchor="start">DLA-Flask</text>
  <rect x="384.7" y="329.4" width="35.0" height="14" fill="#ffffff" opacity="0.75" rx="2" />
  <text x="385.7" y="339.4" font-family="system-ui, -apple-system, sans-serif" font-size="11" fill="#1f2328" text-anchor="start">USBoN</text>
  <rect x="417.6" y="172.4" width="186.8" height="14" fill="#ffffff" opacity="0.75" rx="2" />
  <text x="418.6" y="182.4" font-family="system-ui, -apple-system, sans-serif" font-size="11" fill="#1f2328" text-anchor="start">chrome-remote-desktop-budgie</text>
  <rect x="220.0" y="411.7" width="114.2" height="14" fill="#ffffff" opacity="0.75" rx="2" />
  <text x="221.0" y="421.7" font-family="system-ui, -apple-system, sans-serif" font-size="11" fill="#1f2328" text-anchor="start">OminousBeepingApp</text>
  <rect x="419.1" y="343.7" width="127.4" height="14" fill="#ffffff" opacity="0.75" rx="2" />
  <text x="420.1" y="353.7" font-family="system-ui, -apple-system, sans-serif" font-size="11" fill="#1f2328" text-anchor="start">mo-image-identifier</text>
  <rect x="376.0" y="233.9" width="180.2" height="14" fill="#ffffff" opacity="0.75" rx="2" />
  <text x="377.0" y="243.9" font-family="system-ui, -apple-system, sans-serif" font-size="11" fill="#1f2328" text-anchor="start">squirrel-leaflet-annotation</text>
  <rect x="352.6" y="222.7" width="68.0" height="14" fill="#ffffff" opacity="0.75" rx="2" />
  <text x="353.6" y="232.7" font-family="system-ui, -apple-system, sans-serif" font-size="11" fill="#1f2328" text-anchor="start">Shiny-Apps</text>
  <rect x="391.5" y="206.7" width="127.4" height="14" fill="#ffffff" opacity="0.75" rx="2" />
  <text x="392.5" y="216.7" font-family="system-ui, -apple-system, sans-serif" font-size="11" fill="#1f2328" text-anchor="start">bbox-jest-puppeteer</text>
  <rect x="736.7" y="109.2" width="81.2" height="14" fill="#ffffff" opacity="0.75" rx="2" />
  <text x="737.7" y="119.2" font-family="system-ui, -apple-system, sans-serif" font-size="11" fill="#1f2328" text-anchor="start">DoverDisplay</text>
  <rect x="766.7" y="260.3" width="74.6" height="14" fill="#ffffff" opacity="0.75" rx="2" />
  <text x="840.3" y="270.3" font-family="system-ui, -apple-system, sans-serif" font-size="11" fill="#1f2328" text-anchor="end">LeafletSync</text>
  <rect x="450.4" y="254.8" width="153.8" height="14" fill="#ffffff" opacity="0.75" rx="2" />
  <text x="451.4" y="264.8" font-family="system-ui, -apple-system, sans-serif" font-size="11" fill="#1f2328" text-anchor="start">misc-roi-distance-notes</text>
  <rect x="442.0" y="386.8" width="127.4" height="14" fill="#ffffff" opacity="0.75" rx="2" />
  <text x="443.0" y="396.8" font-family="system-ui, -apple-system, sans-serif" font-size="11" fill="#1f2328" text-anchor="start">Arduino_Coil_Winder</text>
  <rect x="433.2" y="400.6" width="28.4" height="14" fill="#ffffff" opacity="0.75" rx="2" />
  <text x="434.2" y="410.6" font-family="system-ui, -apple-system, sans-serif" font-size="11" fill="#1f2328" text-anchor="start">momo</text>
  <rect x="407.0" y="315.7" width="35.0" height="14" fill="#ffffff" opacity="0.75" rx="2" />
  <text x="408.0" y="325.7" font-family="system-ui, -apple-system, sans-serif" font-size="11" fill="#1f2328" text-anchor="start">clipi</text>
  <rect x="451.4" y="373.2" width="101.0" height="14" fill="#ffffff" opacity="0.75" rx="2" />
  <text x="452.4" y="383.2" font-family="system-ui, -apple-system, sans-serif" font-size="11" fill="#1f2328" text-anchor="start">AeroTaz5_hotfix</text>
  <rect x="640.9" y="125.2" width="101.0" height="14" fill="#ffffff" opacity="0.75" rx="2" />
  <text x="740.9" y="135.2" font-family="system-ui, -apple-system, sans-serif" font-size="11" fill="#1f2328" text-anchor="end">Funmat-HT-Notes</text>
  <rect x="337.2" y="301.7" width="74.6" height="14" fill="#ffffff" opacity="0.75" rx="2" />
  <text x="338.2" y="311.7" font-family="system-ui, -apple-system, sans-serif" font-size="11" fill="#1f2328" text-anchor="start">static-site</text>
  <rect x="389.6" y="359.7" width="87.8" height="14" fill="#ffffff" opacity="0.75" rx="2" />
  <text x="390.6" y="369.7" font-family="system-ui, -apple-system, sans-serif" font-size="11" fill="#1f2328" text-anchor="start">Flask-Manager</text>
  <rect x="368.5" y="151.2" width="101.0" height="14" fill="#ffffff" opacity="0.75" rx="2" />
  <text x="369.5" y="161.2" font-family="system-ui, -apple-system, sans-serif" font-size="11" fill="#1f2328" text-anchor="start">FieldProcessing</text>
  <rect x="340.1" y="135.2" width="74.6" height="14" fill="#ffffff" opacity="0.75" rx="2" />
  <text x="341.1" y="145.2" font-family="system-ui, -apple-system, sans-serif" font-size="11" fill="#1f2328" text-anchor="start">rJDKmanager</text>
  <rect x="453.5" y="188.4" width="54.8" height="14" fill="#ffffff" opacity="0.75" rx="2" />
  <text x="454.5" y="198.4" font-family="system-ui, -apple-system, sans-serif" font-size="11" fill="#1f2328" text-anchor="start">tagnotes</text>
  <rect x="501.0" y="330.1" width="74.6" height="14" fill="#ffffff" opacity="0.75" rx="2" />
  <text x="502.0" y="340.1" font-family="system-ui, -apple-system, sans-serif" font-size="11" fill="#1f2328" text-anchor="start">ChapelTests</text>
  <rect x="389.2" y="433.9" width="61.4" height="14" fill="#ffffff" opacity="0.75" rx="2" />
  <text x="390.2" y="443.9" font-family="system-ui, -apple-system, sans-serif" font-size="11" fill="#1f2328" text-anchor="start">home-wiki</text>
  <rect x="733" y="36" width="155" height="120" rx="6" fill="#f6f8fa" stroke="#d0d7de" stroke-width="1" opacity="0.95" />
  <circle cx="750" cy="52" r="5" fill="#e74c3c" opacity="0.88" />
  <text x="760" y="56" font-family="system-ui, -apple-system, sans-serif" font-size="10" fill="#1f2328">Languages &amp; Compilers</text>
  <circle cx="750" cy="69" r="5" fill="#3498db" opacity="0.88" />
  <text x="760" y="73" font-family="system-ui, -apple-system, sans-serif" font-size="10" fill="#1f2328">Infrastructure &amp; DevOps</text>
  <circle cx="750" cy="86" r="5" fill="#e67e22" opacity="0.88" />
  <text x="760" y="90" font-family="system-ui, -apple-system, sans-serif" font-size="10" fill="#1f2328">Hardware &amp; Maker</text>
  <circle cx="750" cy="103" r="5" fill="#2ecc71" opacity="0.88" />
  <text x="760" y="107" font-family="system-ui, -apple-system, sans-serif" font-size="10" fill="#1f2328">ML &amp; Data</text>
  <circle cx="750" cy="120" r="5" fill="#9b59b6" opacity="0.88" />
  <text x="760" y="124" font-family="system-ui, -apple-system, sans-serif" font-size="10" fill="#1f2328">Web &amp; Apps</text>
  <circle cx="750" cy="137" r="5" fill="#7f8c8d" opacity="0.88" />
  <text x="760" y="141" font-family="system-ui, -apple-system, sans-serif" font-size="10" fill="#1f2328">Other</text>
  <text x="810" y="150" font-family="system-ui, -apple-system, sans-serif" font-size="8" fill="#656d76" text-anchor="middle">54 repos · 182 edges</text>
</svg>