<svg xmlns="http://www.w3.org/2000/svg" width="960" height="600" viewBox="0 0 960 600">
  <rect width="960" height="600" fill="#ffffff" rx="8" />
  <text x="480" y="24" font-family="system-ui, -apple-system, sans-serif" font-size="13" fill="#656d76" text-anchor="middle" font-weight="500">Repo Relationship Graph &#x2014; Pairwise Topic &amp; Language Similarity</text>
  <line x1="50" y1="550" x2="910" y2="550" stroke="#d0d7de" stroke-width="0.5" opacity="0.5" />
  <text x="50" y="570" font-family="system-ui, -apple-system, sans-serif" font-size="9" fill="#656d76" opacity="0.6">Updated daily by GitHub Actions</text>
  <text x="50" y="588" font-family="system-ui, -apple-system, sans-serif" font-size="9" fill="#656d76" opacity="0.6">networkx spring_layout · Jaccard similarity &gt; 0.15</text>
  <text x="910" y="570" font-family="system-ui, -apple-system, sans-serif" font-size="9" fill="#656d76" text-anchor="end" opacity="0.6">57 repos · 221 edges</text>
  <line x1="518.2" y1="294.0" x2="485.7" y2="306.3" stroke="#bcc3cd" stroke-width="0.9" opacity="0.17" />
  <line x1="518.2" y1="294.0" x2="507.5" y2="286.0" stroke="#bcc3cd" stroke-width="1.0" opacity="0.23" />
  <line x1="518.2" y1="294.0" x2="449.8" y2="301.9" stroke="#bcc3cd" stroke-width="1.0" opacity="0.22" />
  <line x1="518.2" y1="294.0" x2="481.1" y2="330.5" stroke="#bcc3cd" stroke-width="0.9" opacity="0.18" />
  <line x1="518.2" y1="294.0" x2="505.9" y2="277.2" stroke="#bcc3cd" stroke-width="1.0" opacity="0.24" />
  <line x1="518.2" y1="294.0" x2="476.6" y2="296.1" stroke="#bcc3cd" stroke-width="0.9" opacity="0.21" />
  <line x1="518.2" y1="294.0" x2="511.0" y2="314.7" stroke="#bcc3cd" stroke-width="0.9" opacity="0.21" />
  <line x1="518.2" y1="294.0" x2="550.9" y2="289.8" stroke="#bcc3cd" stroke-width="1.1" opacity="0.30" />
  <line x1="518.2" y1="294.0" x2="521.7" y2="280.4" stroke="#bcc3cd" stroke-width="1.0" opacity="0.22" />
  <line x1="518.2" y1="294.0" x2="490.3" y2="276.9" stroke="#bcc3cd" stroke-width="1.0" opacity="0.22" />
  <line x1="518.2" y1="294.0" x2="582.2" y2="285.4" stroke="#bcc3cd" stroke-width="0.9" opacity="0.19" />
  <line x1="518.2" y1="294.0" x2="570.2" y2="259.8" stroke="#bcc3cd" stroke-width="0.9" opacity="0.21" />
  <line x1="518.2" y1="294.0" x2="554.3" y2="256.5" stroke="#bcc3cd" stroke-width="1.0" opacity="0.24" />
  <line x1="518.2" y1="294.0" x2="519.4" y2="252.3" stroke="#bcc3cd" stroke-width="0.9" opacity="0.17" />
  <line x1="482.1" y1="254.1" x2="507.5" y2="286.0" stroke="#bcc3cd" stroke-width="0.9" opacity="0.19" />
  <line x1="482.1" y1="254.1" x2="528.6" y2="248.0" stroke="#bcc3cd" stroke-width="0.9" opacity="0.18" />
  <line x1="482.1" y1="254.1" x2="554.3" y2="256.5" stroke="#bcc3cd" stroke-width="1.1" opacity="0.30" />
  <line x1="482.1" y1="254.1" x2="519.4" y2="252.3" stroke="#bcc3cd" stroke-width="1.0" opacity="0.22" />
  <line x1="485.7" y1="306.3" x2="507.5" y2="286.0" stroke="#bcc3cd" stroke-width="1.0" opacity="0.25" />
  <line x1="485.7" y1="306.3" x2="505.9" y2="277.2" stroke="#bcc3cd" stroke-width="0.9" opacity="0.20" />
  <line x1="485.7" y1="306.3" x2="476.6" y2="296.1" stroke="#bcc3cd" stroke-width="1.0" opacity="0.23" />
  <line x1="485.7" y1="306.3" x2="511.0" y2="314.7" stroke="#bcc3cd" stroke-width="1.0" opacity="0.23" />
  <line x1="485.7" y1="306.3" x2="521.7" y2="280.4" stroke="#bcc3cd" stroke-width="1.0" opacity="0.24" />
  <line x1="485.7" y1="306.3" x2="490.3" y2="276.9" stroke="#bcc3cd" stroke-width="0.9" opacity="0.18" />
  <line x1="569.7" y1="311.1" x2="507.5" y2="286.0" stroke="#bcc3cd" stroke-width="0.9" opacity="0.18" />
  <line x1="569.7" y1="311.1" x2="511.0" y2="314.7" stroke="#bcc3cd" stroke-width="1.2" opacity="0.38" />
  <line x1="569.7" y1="311.1" x2="550.9" y2="289.8" stroke="#bcc3cd" stroke-width="1.2" opacity="0.34" />
  <line x1="569.7" y1="311.1" x2="611.0" y2="304.0" stroke="#bcc3cd" stroke-width="1.0" opacity="0.25" />
  <line x1="569.7" y1="311.1" x2="590.0" y2="274.7" stroke="#bcc3cd" stroke-width="0.9" opacity="0.20" />
  <line x1="569.7" y1="311.1" x2="616.0" y2="281.8" stroke="#bcc3cd" stroke-width="1.0" opacity="0.22" />
  <line x1="507.5" y1="286.0" x2="449.8" y2="301.9" stroke="#bcc3cd" stroke-width="0.9" opacity="0.17" />
  <line x1="507.5" y1="286.0" x2="505.9" y2="277.2" stroke="#bcc3cd" stroke-width="1.1" opacity="0.29" />
  <line x1="507.5" y1="286.0" x2="476.6" y2="296.1" stroke="#bcc3cd" stroke-width="1.0" opacity="0.24" />
  <line x1="507.5" y1="286.0" x2="511.0" y2="314.7" stroke="#bcc3cd" stroke-width="0.9" opacity="0.17" />
  <line x1="507.5" y1="286.0" x2="550.9" y2="289.8" stroke="#bcc3cd" stroke-width="1.1" opacity="0.28" />
  <line x1="507.5" y1="286.0" x2="521.7" y2="280.4" stroke="#bcc3cd" stroke-width="1.0" opacity="0.26" />
  <line x1="507.5" y1="286.0" x2="490.3" y2="276.9" stroke="#bcc3cd" stroke-width="1.0" opacity="0.26" />
  <line x1="507.5" y1="286.0" x2="528.6" y2="248.0" stroke="#bcc3cd" stroke-width="0.9" opacity="0.18" />
  <line x1="507.5" y1="286.0" x2="554.3" y2="256.5" stroke="#bcc3cd" stroke-width="1.1" opacity="0.30" />
  <line x1="507.5" y1="286.0" x2="519.4" y2="252.3" stroke="#bcc3cd" stroke-width="1.0" opacity="0.22" />
  <line x1="449.8" y1="301.9" x2="364.2" y2="308.6" stroke="#bcc3cd" stroke-width="1.1" opacity="0.33" />
  <line x1="449.8" y1="301.9" x2="481.1" y2="330.5" stroke="#bcc3cd" stroke-width="0.9" opacity="0.19" />
  <line x1="449.8" y1="301.9" x2="505.9" y2="277.2" stroke="#bcc3cd" stroke-width="0.9" opacity="0.18" />
  <line x1="449.8" y1="301.9" x2="406.6" y2="308.1" stroke="#bcc3cd" stroke-width="0.9" opacity="0.18" />
  <line x1="449.8" y1="301.9" x2="382.4" y2="320.1" stroke="#bcc3cd" stroke-width="1.3" opacity="0.41" />
  <line x1="449.8" y1="301.9" x2="511.0" y2="314.7" stroke="#bcc3cd" stroke-width="1.0" opacity="0.24" />
  <line x1="449.8" y1="301.9" x2="550.9" y2="289.8" stroke="#bcc3cd" stroke-width="0.9" opacity="0.19" />
  <line x1="449.8" y1="301.9" x2="519.4" y2="252.3" stroke="#bcc3cd" stroke-width="0.9" opacity="0.18" />
  <line x1="364.2" y1="308.6" x2="382.4" y2="320.1" stroke="#bcc3cd" stroke-width="0.9" opacity="0.18" />
  <line x1="481.1" y1="330.5" x2="476.6" y2="296.1" stroke="#bcc3cd" stroke-width="0.9" opacity="0.19" />
  <line x1="481.1" y1="330.5" x2="511.0" y2="314.7" stroke="#bcc3cd" stroke-width="0.9" opacity="0.19" />
  <line x1="481.1" y1="330.5" x2="550.9" y2="289.8" stroke="#bcc3cd" stroke-width="0.9" opacity="0.17" />
  <line x1="481.1" y1="330.5" x2="432.3" y2="365.6" stroke="#bcc3cd" stroke-width="1.0" opacity="0.22" />
  <line x1="505.9" y1="277.2" x2="476.6" y2="296.1" stroke="#bcc3cd" stroke-width="1.0" opacity="0.26" />
  <line x1="505.9" y1="277.2" x2="511.0" y2="314.7" stroke="#bcc3cd" stroke-width="0.9" opacity="0.18" />
  <line x1="505.9" y1="277.2" x2="550.9" y2="289.8" stroke="#bcc3cd" stroke-width="1.0" opacity="0.22" />
  <line x1="505.9" y1="277.2" x2="521.7" y2="280.4" stroke="#bcc3cd" stroke-width="1.1" opacity="0.28" />
  <line x1="505.9" y1="277.2" x2="490.3" y2="276.9" stroke="#bcc3cd" stroke-width="1.1" opacity="0.28" />
  <line x1="505.9" y1="277.2" x2="526.6" y2="240.2" stroke="#bcc3cd" stroke-width="0.9" opacity="0.17" />
  <line x1="505.9" y1="277.2" x2="528.6" y2="248.0" stroke="#bcc3cd" stroke-width="0.9" opacity="0.20" />
  <line x1="505.9" y1="277.2" x2="570.2" y2="259.8" stroke="#bcc3cd" stroke-width="0.9" opacity="0.17" />
  <line x1="505.9" y1="277.2" x2="554.3" y2="256.5" stroke="#bcc3cd" stroke-width="0.9" opacity="0.20" />
  <line x1="505.9" y1="277.2" x2="519.4" y2="252.3" stroke="#bcc3cd" stroke-width="1.0" opacity="0.24" />
  <line x1="406.6" y1="308.1" x2="476.6" y2="296.1" stroke="#bcc3cd" stroke-width="1.2" opacity="0.34" />
  <line x1="406.6" y1="308.1" x2="382.4" y2="320.1" stroke="#bcc3cd" stroke-width="0.9" opacity="0.17" />
  <line x1="476.6" y1="296.1" x2="511.0" y2="314.7" stroke="#bcc3cd" stroke-width="1.0" opacity="0.22" />
  <line x1="476.6" y1="296.1" x2="550.9" y2="289.8" stroke="#bcc3cd" stroke-width="0.9" opacity="0.19" />
  <line x1="476.6" y1="296.1" x2="521.7" y2="280.4" stroke="#bcc3cd" stroke-width="1.0" opacity="0.23" />
  <line x1="476.6" y1="296.1" x2="490.3" y2="276.9" stroke="#bcc3cd" stroke-width="1.0" opacity="0.23" />
  <line x1="476.6" y1="296.1" x2="519.4" y2="252.3" stroke="#bcc3cd" stroke-width="0.9" opacity="0.18" />
  <line x1="511.0" y1="314.7" x2="550.9" y2="289.8" stroke="#bcc3cd" stroke-width="0.9" opacity="0.19" />
  <line x1="550.9" y1="289.8" x2="611.0" y2="304.0" stroke="#bcc3cd" stroke-width="1.2" opacity="0.34" />
  <line x1="550.9" y1="289.8" x2="521.7" y2="280.4" stroke="#bcc3cd" stroke-width="0.9" opacity="0.20" />
  <line x1="550.9" y1="289.8" x2="490.3" y2="276.9" stroke="#bcc3cd" stroke-width="0.9" opacity="0.20" />
  <line x1="550.9" y1="289.8" x2="590.0" y2="274.7" stroke="#bcc3cd" stroke-width="1.2" opacity="0.37" />
  <line x1="550.9" y1="289.8" x2="616.0" y2="281.8" stroke="#bcc3cd" stroke-width="1.2" opacity="0.37" />
  <line x1="550.9" y1="289.8" x2="582.2" y2="285.4" stroke="#bcc3cd" stroke-width="1.1" opacity="0.29" />
  <line x1="550.9" y1="289.8" x2="570.5" y2="268.4" stroke="#bcc3cd" stroke-width="1.0" opacity="0.22" />
  <line x1="550.9" y1="289.8" x2="570.2" y2="259.8" stroke="#bcc3cd" stroke-width="1.2" opacity="0.34" />
  <line x1="550.9" y1="289.8" x2="595.1" y2="259.4" stroke="#bcc3cd" stroke-width="1.0" opacity="0.24" />
  <line x1="550.9" y1="289.8" x2="554.3" y2="256.5" stroke="#bcc3cd" stroke-width="1.1" opacity="0.29" />
  <line x1="550.9" y1="289.8" x2="608.8" y2="265.9" stroke="#bcc3cd" stroke-width="1.0" opacity="0.22" />
  <line x1="611.0" y1="304.0" x2="590.0" y2="274.7" stroke="#bcc3cd" stroke-width="1.0" opacity="0.25" />
  <line x1="611.0" y1="304.0" x2="616.0" y2="281.8" stroke="#bcc3cd" stroke-width="1.1" opacity="0.29" />
  <line x1="611.0" y1="304.0" x2="608.8" y2="265.9" stroke="#bcc3cd" stroke-width="0.9" opacity="0.17" />
  <line x1="636.2" y1="268.3" x2="590.0" y2="274.7" stroke="#bcc3cd" stroke-width="0.9" opacity="0.18" />
  <line x1="636.2" y1="268.3" x2="616.0" y2="281.8" stroke="#bcc3cd" stroke-width="0.9" opacity="0.18" />
  <line x1="636.2" y1="268.3" x2="570.2" y2="259.8" stroke="#bcc3cd" stroke-width="0.9" opacity="0.17" />
  <line x1="636.2" y1="268.3" x2="595.1" y2="259.4" stroke="#bcc3cd" stroke-width="1.3" opacity="0.42" />
  <line x1="636.2" y1="268.3" x2="554.3" y2="256.5" stroke="#bcc3cd" stroke-width="0.9" opacity="0.19" />
  <line x1="636.2" y1="268.3" x2="608.8" y2="265.9" stroke="#bcc3cd" stroke-width="0.9" opacity="0.21" />
  <line x1="521.7" y1="280.4" x2="490.3" y2="276.9" stroke="#bcc3cd" stroke-width="1.0" opacity="0.24" />
  <line x1="521.7" y1="280.4" x2="570.5" y2="268.4" stroke="#bcc3cd" stroke-width="0.9" opacity="0.19" />
  <line x1="521.7" y1="280.4" x2="551.9" y2="265.9" stroke="#bcc3cd" stroke-width="0.9" opacity="0.18" />
  <line x1="521.7" y1="280.4" x2="528.6" y2="248.0" stroke="#bcc3cd" stroke-width="0.9" opacity="0.17" />
  <line x1="521.7" y1="280.4" x2="554.3" y2="256.5" stroke="#bcc3cd" stroke-width="0.9" opacity="0.17" />
  <line x1="521.7" y1="280.4" x2="519.4" y2="252.3" stroke="#bcc3cd" stroke-width="0.9" opacity="0.20" />
  <line x1="490.3" y1="276.9" x2="528.6" y2="248.0" stroke="#bcc3cd" stroke-width="0.9" opacity="0.17" />
  <line x1="490.3" y1="276.9" x2="554.3" y2="256.5" stroke="#bcc3cd" stroke-width="0.9" opacity="0.17" />
  <line x1="490.3" y1="276.9" x2="519.4" y2="252.3" stroke="#bcc3cd" stroke-width="0.9" opacity="0.20" />
  <line x1="450.9" y1="196.7" x2="486.5" y2="239.5" stroke="#bcc3cd" stroke-width="1.3" opacity="0.44" />
  <line x1="450.9" y1="196.7" x2="462.3" y2="204.0" stroke="#bcc3cd" stroke-width="0.9" opacity="0.18" />
  <line x1="486.5" y1="239.5" x2="526.0" y2="223.1" stroke="#bcc3cd" stroke-width="1.1" opacity="0.31" />
  <line x1="486.5" y1="239.5" x2="526.6" y2="240.2" stroke="#bcc3cd" stroke-width="0.9" opacity="0.20" />
  <line x1="486.5" y1="239.5" x2="528.6" y2="248.0" stroke="#bcc3cd" stroke-width="1.0" opacity="0.24" />
  <line x1="486.5" y1="239.5" x2="570.2" y2="259.8" stroke="#bcc3cd" stroke-width="0.9" opacity="0.20" />
  <line x1="486.5" y1="239.5" x2="554.3" y2="256.5" stroke="#bcc3cd" stroke-width="1.0" opacity="0.24" />
  <line x1="486.5" y1="239.5" x2="555.5" y2="241.4" stroke="#bcc3cd" stroke-width="0.9" opacity="0.18" />
  <line x1="486.5" y1="239.5" x2="430.2" y2="333.1" stroke="#bcc3cd" stroke-width="0.9" opacity="0.17" />
  <line x1="486.5" y1="239.5" x2="512.7" y2="220.6" stroke="#bcc3cd" stroke-width="1.1" opacity="0.31" />
  <line x1="486.5" y1="239.5" x2="462.3" y2="204.0" stroke="#bcc3cd" stroke-width="1.1" opacity="0.30" />
  <line x1="486.5" y1="239.5" x2="519.4" y2="252.3" stroke="#bcc3cd" stroke-width="1.1" opacity="0.31" />
  <line x1="230.3" y1="495.7" x2="254.9" y2="500.0" stroke="#bcc3cd" stroke-width="1.6" opacity="0.60" />
  <line x1="740.2" y1="313.6" x2="616.0" y2="281.8" stroke="#bcc3cd" stroke-width="0.9" opacity="0.18" />
  <line x1="740.2" y1="313.6" x2="809.7" y2="331.4" stroke="#bcc3cd" stroke-width="1.1" opacity="0.28" />
  <line x1="613.3" y1="247.8" x2="590.0" y2="274.7" stroke="#bcc3cd" stroke-width="0.9" opacity="0.17" />
  <line x1="613.3" y1="247.8" x2="616.0" y2="281.8" stroke="#bcc3cd" stroke-width="0.9" opacity="0.18" />
  <line x1="613.3" y1="247.8" x2="570.5" y2="268.4" stroke="#bcc3cd" stroke-width="1.0" opacity="0.22" />
  <line x1="613.3" y1="247.8" x2="570.2" y2="259.8" stroke="#bcc3cd" stroke-width="1.1" opacity="0.28" />
  <line x1="613.3" y1="247.8" x2="595.1" y2="259.4" stroke="#bcc3cd" stroke-width="1.1" opacity="0.32" />
  <line x1="613.3" y1="247.8" x2="554.3" y2="256.5" stroke="#bcc3cd" stroke-width="0.9" opacity="0.20" />
  <line x1="613.3" y1="247.8" x2="608.8" y2="265.9" stroke="#bcc3cd" stroke-width="1.0" opacity="0.22" />
  <line x1="613.3" y1="247.8" x2="577.6" y2="225.1" stroke="#bcc3cd" stroke-width="1.0" opacity="0.22" />
  <line x1="590.0" y1="274.7" x2="616.0" y2="281.8" stroke="#bcc3cd" stroke-width="1.3" opacity="0.42" />
  <line x1="590.0" y1="274.7" x2="633.9" y2="258.4" stroke="#bcc3cd" stroke-width="0.9" opacity="0.18" />
  <line x1="590.0" y1="274.7" x2="582.2" y2="285.4" stroke="#bcc3cd" stroke-width="1.1" opacity="0.31" />
  <line x1="590.0" y1="274.7" x2="570.5" y2="268.4" stroke="#bcc3cd" stroke-width="1.1" opacity="0.32" />
  <line x1="590.0" y1="274.7" x2="551.9" y2="265.9" stroke="#bcc3cd" stroke-width="1.0" opacity="0.23" />
  <line x1="590.0" y1="274.7" x2="570.2" y2="259.8" stroke="#bcc3cd" stroke-width="1.2" opacity="0.39" />
  <line x1="590.0" y1="274.7" x2="595.1" y2="259.4" stroke="#bcc3cd" stroke-width="1.0" opacity="0.26" />
  <line x1="590.0" y1="274.7" x2="554.3" y2="256.5" stroke="#bcc3cd" stroke-width="1.2" opacity="0.34" />
  <line x1="590.0" y1="274.7" x2="555.5" y2="241.4" stroke="#bcc3cd" stroke-width="0.9" opacity="0.19" />
  <line x1="590.0" y1="274.7" x2="608.8" y2="265.9" stroke="#bcc3cd" stroke-width="1.0" opacity="0.25" />
  <line x1="590.0" y1="274.7" x2="519.4" y2="252.3" stroke="#bcc3cd" stroke-width="0.9" opacity="0.17" />
  <line x1="616.0" y1="281.8" x2="633.9" y2="258.4" stroke="#bcc3cd" stroke-width="1.1" opacity="0.33" />
  <line x1="616.0" y1="281.8" x2="582.2" y2="285.4" stroke="#bcc3cd" stroke-width="0.9" opacity="0.21" />
  <line x1="616.0" y1="281.8" x2="570.5" y2="268.4" stroke="#bcc3cd" stroke-width="0.9" opacity="0.18" />
  <line x1="616.0" y1="281.8" x2="570.2" y2="259.8" stroke="#bcc3cd" stroke-width="1.3" opacity="0.41" />
  <line x1="616.0" y1="281.8" x2="595.1" y2="259.4" stroke="#bcc3cd" stroke-width="1.0" opacity="0.22" />
  <line x1="616.0" y1="281.8" x2="554.3" y2="256.5" stroke="#bcc3cd" stroke-width="1.1" opacity="0.31" />
  <line x1="616.0" y1="281.8" x2="608.8" y2="265.9" stroke="#bcc3cd" stroke-width="1.7" opacity="0.66" />
  <line x1="542.9" y1="228.1" x2="526.0" y2="223.1" stroke="#bcc3cd" stroke-width="1.5" opacity="0.55" />
  <line x1="542.9" y1="228.1" x2="526.6" y2="240.2" stroke="#bcc3cd" stroke-width="0.9" opacity="0.18" />
  <line x1="542.9" y1="228.1" x2="528.6" y2="248.0" stroke="#bcc3cd" stroke-width="1.1" opacity="0.28" />
  <line x1="542.9" y1="228.1" x2="570.2" y2="259.8" stroke="#bcc3cd" stroke-width="0.9" opacity="0.18" />
  <line x1="542.9" y1="228.1" x2="554.3" y2="256.5" stroke="#bcc3cd" stroke-width="1.1" opacity="0.28" />
  <line x1="542.9" y1="228.1" x2="542.6" y2="217.3" stroke="#bcc3cd" stroke-width="1.5" opacity="0.55" />
  <line x1="542.9" y1="228.1" x2="577.6" y2="225.1" stroke="#bcc3cd" stroke-width="1.2" opacity="0.37" />
  <line x1="542.9" y1="228.1" x2="512.7" y2="220.6" stroke="#bcc3cd" stroke-width="1.5" opacity="0.55" />
  <line x1="542.9" y1="228.1" x2="519.4" y2="252.3" stroke="#bcc3cd" stroke-width="1.5" opacity="0.55" />
  <line x1="526.0" y1="223.1" x2="528.6" y2="248.0" stroke="#bcc3cd" stroke-width="1.0" opacity="0.22" />
  <line x1="526.0" y1="223.1" x2="554.3" y2="256.5" stroke="#bcc3cd" stroke-width="1.0" opacity="0.22" />
  <line x1="526.0" y1="223.1" x2="542.6" y2="217.3" stroke="#bcc3cd" stroke-width="1.2" opacity="0.37" />
  <line x1="526.0" y1="223.1" x2="577.6" y2="225.1" stroke="#bcc3cd" stroke-width="1.1" opacity="0.28" />
  <line x1="526.0" y1="223.1" x2="512.7" y2="220.6" stroke="#bcc3cd" stroke-width="1.2" opacity="0.37" />
  <line x1="526.0" y1="223.1" x2="519.4" y2="252.3" stroke="#bcc3cd" stroke-width="1.2" opacity="0.37" />
  <line x1="633.9" y1="258.4" x2="570.2" y2="259.8" stroke="#bcc3cd" stroke-width="0.9" opacity="0.18" />
  <line x1="633.9" y1="258.4" x2="595.1" y2="259.4" stroke="#bcc3cd" stroke-width="0.9" opacity="0.18" />
  <line x1="633.9" y1="258.4" x2="554.3" y2="256.5" stroke="#bcc3cd" stroke-width="1.0" opacity="0.22" />
  <line x1="633.9" y1="258.4" x2="608.8" y2="265.9" stroke="#bcc3cd" stroke-width="1.3" opacity="0.41" />
  <line x1="582.2" y1="285.4" x2="570.5" y2="268.4" stroke="#bcc3cd" stroke-width="1.1" opacity="0.31" />
  <line x1="582.2" y1="285.4" x2="570.2" y2="259.8" stroke="#bcc3cd" stroke-width="1.4" opacity="0.47" />
  <line x1="582.2" y1="285.4" x2="595.1" y2="259.4" stroke="#bcc3cd" stroke-width="0.9" opacity="0.19" />
  <line x1="582.2" y1="285.4" x2="554.3" y2="256.5" stroke="#bcc3cd" stroke-width="1.0" opacity="0.22" />
  <line x1="570.5" y1="268.4" x2="551.9" y2="265.9" stroke="#bcc3cd" stroke-width="1.1" opacity="0.29" />
  <line x1="570.5" y1="268.4" x2="526.6" y2="240.2" stroke="#bcc3cd" stroke-width="0.9" opacity="0.17" />
  <line x1="570.5" y1="268.4" x2="528.6" y2="248.0" stroke="#bcc3cd" stroke-width="0.9" opacity="0.20" />
  <line x1="570.5" y1="268.4" x2="570.2" y2="259.8" stroke="#bcc3cd" stroke-width="1.3" opacity="0.40" />
  <line x1="570.5" y1="268.4" x2="595.1" y2="259.4" stroke="#bcc3cd" stroke-width="1.0" opacity="0.24" />
  <line x1="570.5" y1="268.4" x2="554.3" y2="256.5" stroke="#bcc3cd" stroke-width="0.9" opacity="0.20" />
  <line x1="570.5" y1="268.4" x2="519.4" y2="252.3" stroke="#bcc3cd" stroke-width="1.0" opacity="0.24" />
  <line x1="551.9" y1="265.9" x2="528.6" y2="248.0" stroke="#bcc3cd" stroke-width="0.9" opacity="0.18" />
  <line x1="551.9" y1="265.9" x2="595.1" y2="259.4" stroke="#bcc3cd" stroke-width="1.0" opacity="0.23" />
  <line x1="551.9" y1="265.9" x2="554.3" y2="256.5" stroke="#bcc3cd" stroke-width="0.9" opacity="0.18" />
  <line x1="551.9" y1="265.9" x2="555.5" y2="241.4" stroke="#bcc3cd" stroke-width="1.0" opacity="0.24" />
  <line x1="551.9" y1="265.9" x2="519.4" y2="252.3" stroke="#bcc3cd" stroke-width="1.0" opacity="0.22" />
  <line x1="526.6" y1="240.2" x2="528.6" y2="248.0" stroke="#bcc3cd" stroke-width="1.1" opacity="0.28" />
  <line x1="526.6" y1="240.2" x2="570.2" y2="259.8" stroke="#bcc3cd" stroke-width="1.0" opacity="0.22" />
  <line x1="526.6" y1="240.2" x2="554.3" y2="256.5" stroke="#bcc3cd" stroke-width="1.1" opacity="0.28" />
  <line x1="526.6" y1="240.2" x2="555.5" y2="241.4" stroke="#bcc3cd" stroke-width="0.9" opacity="0.20" />
  <line x1="526.6" y1="240.2" x2="519.4" y2="252.3" stroke="#bcc3cd" stroke-width="1.2" opacity="0.37" />
  <line x1="528.6" y1="248.0" x2="570.2" y2="259.8" stroke="#bcc3cd" stroke-width="1.1" opacity="0.28" />
  <line x1="528.6" y1="248.0" x2="554.3" y2="256.5" stroke="#bcc3cd" stroke-width="1.2" opacity="0.37" />
  <line x1="528.6" y1="248.0" x2="542.6" y2="217.3" stroke="#bcc3cd" stroke-width="1.0" opacity="0.22" />
  <line x1="528.6" y1="248.0" x2="555.5" y2="241.4" stroke="#bcc3cd" stroke-width="1.0" opacity="0.24" />
  <line x1="528.6" y1="248.0" x2="577.6" y2="225.1" stroke="#bcc3cd" stroke-width="0.9" opacity="0.18" />
  <line x1="528.6" y1="248.0" x2="512.7" y2="220.6" stroke="#bcc3cd" stroke-width="1.0" opacity="0.22" />
  <line x1="528.6" y1="248.0" x2="519.4" y2="252.3" stroke="#bcc3cd" stroke-width="1.5" opacity="0.55" />
  <line x1="570.2" y1="259.8" x2="595.1" y2="259.4" stroke="#bcc3cd" stroke-width="1.1" opacity="0.29" />
  <line x1="570.2" y1="259.8" x2="554.3" y2="256.5" stroke="#bcc3cd" stroke-width="1.4" opacity="0.47" />
  <line x1="570.2" y1="259.8" x2="555.5" y2="241.4" stroke="#bcc3cd" stroke-width="0.9" opacity="0.20" />
  <line x1="570.2" y1="259.8" x2="608.8" y2="265.9" stroke="#bcc3cd" stroke-width="1.1" opacity="0.31" />
  <line x1="570.2" y1="259.8" x2="577.6" y2="225.1" stroke="#bcc3cd" stroke-width="1.1" opacity="0.31" />
  <line x1="570.2" y1="259.8" x2="519.4" y2="252.3" stroke="#bcc3cd" stroke-width="1.2" opacity="0.37" />
  <line x1="595.1" y1="259.4" x2="554.3" y2="256.5" stroke="#bcc3cd" stroke-width="1.2" opacity="0.34" />
  <line x1="595.1" y1="259.4" x2="608.8" y2="265.9" stroke="#bcc3cd" stroke-width="1.0" opacity="0.25" />
  <line x1="595.1" y1="259.4" x2="577.6" y2="225.1" stroke="#bcc3cd" stroke-width="1.0" opacity="0.25" />
  <line x1="595.1" y1="259.4" x2="519.4" y2="252.3" stroke="#bcc3cd" stroke-width="0.9" opacity="0.17" />
  <line x1="554.3" y1="256.5" x2="542.6" y2="217.3" stroke="#bcc3cd" stroke-width="1.0" opacity="0.22" />
  <line x1="554.3" y1="256.5" x2="555.5" y2="241.4" stroke="#bcc3cd" stroke-width="1.0" opacity="0.24" />
  <line x1="554.3" y1="256.5" x2="608.8" y2="265.9" stroke="#bcc3cd" stroke-width="1.3" opacity="0.44" />
  <line x1="554.3" y1="256.5" x2="577.6" y2="225.1" stroke="#bcc3cd" stroke-width="1.3" opacity="0.44" />
  <line x1="554.3" y1="256.5" x2="512.7" y2="220.6" stroke="#bcc3cd" stroke-width="1.0" opacity="0.22" />
  <line x1="554.3" y1="256.5" x2="519.4" y2="252.3" stroke="#bcc3cd" stroke-width="1.5" opacity="0.55" />
  <line x1="703.5" y1="50.0" x2="726.7" y2="67.3" stroke="#bcc3cd" stroke-width="1.0" opacity="0.22" />
  <line x1="423.3" y1="223.6" x2="519.4" y2="252.3" stroke="#bcc3cd" stroke-width="1.0" opacity="0.22" />
  <line x1="542.6" y1="217.3" x2="577.6" y2="225.1" stroke="#bcc3cd" stroke-width="1.1" opacity="0.28" />
  <line x1="542.6" y1="217.3" x2="512.7" y2="220.6" stroke="#bcc3cd" stroke-width="1.2" opacity="0.37" />
  <line x1="542.6" y1="217.3" x2="519.4" y2="252.3" stroke="#bcc3cd" stroke-width="1.2" opacity="0.37" />
  <line x1="420.1" y1="375.4" x2="432.3" y2="365.6" stroke="#bcc3cd" stroke-width="1.5" opacity="0.55" />
  <line x1="420.1" y1="375.4" x2="430.2" y2="333.1" stroke="#bcc3cd" stroke-width="1.3" opacity="0.41" />
  <line x1="432.3" y1="365.6" x2="430.2" y2="333.1" stroke="#bcc3cd" stroke-width="1.0" opacity="0.24" />
  <line x1="555.5" y1="241.4" x2="519.4" y2="252.3" stroke="#bcc3cd" stroke-width="1.1" opacity="0.31" />
  <line x1="608.8" y1="265.9" x2="577.6" y2="225.1" stroke="#bcc3cd" stroke-width="1.0" opacity="0.22" />
  <line x1="577.6" y1="225.1" x2="617.4" y2="185.9" stroke="#bcc3cd" stroke-width="1.2" opacity="0.37" />
  <line x1="577.6" y1="225.1" x2="629.8" y2="170.8" stroke="#bcc3cd" stroke-width="0.9" opacity="0.18" />
  <line x1="577.6" y1="225.1" x2="512.7" y2="220.6" stroke="#bcc3cd" stroke-width="1.1" opacity="0.28" />
  <line x1="577.6" y1="225.1" x2="519.4" y2="252.3" stroke="#bcc3cd" stroke-width="1.1" opacity="0.28" />
  <line x1="617.4" y1="185.9" x2="629.8" y2="170.8" stroke="#bcc3cd" stroke-width="1.1" opacity="0.28" />
  <line x1="512.7" y1="220.6" x2="462.3" y2="204.0" stroke="#bcc3cd" stroke-width="1.1" opacity="0.31" />
  <line x1="512.7" y1="220.6" x2="519.4" y2="252.3" stroke="#bcc3cd" stroke-width="1.2" opacity="0.37" />
  <circle cx="518.2" cy="294.0" r="15.8" fill="#7f8c8d" opacity="0.88" />
  <circle cx="482.1" cy="254.1" r="13.1" fill="#e67e22" opacity="0.88" />
  <circle cx="485.7" cy="306.3" r="16" fill="#7f8c8d" opacity="0.88" />
  <circle cx="569.7" cy="311.1" r="16" fill="#3498db" opacity="0.88" />
  <circle cx="507.5" cy="286.0" r="13.1" fill="#e67e22" opacity="0.88" />
  <circle cx="449.8" cy="301.9" r="8.6" fill="#3498db" opacity="0.88" />
  <circle cx="364.2" cy="308.6" r="11.3" fill="#3498db" opacity="0.88" />
  <circle cx="481.1" cy="330.5" r="16" fill="#2ecc71" opacity="0.88" />
  <circle cx="505.9" cy="277.2" r="12.2" fill="#3498db" opacity="0.88" />
  <circle cx="406.6" cy="308.1" r="12.2" fill="#7f8c8d" opacity="0.88" />
  <circle cx="476.6" cy="296.1" r="14.9" fill="#7f8c8d" opacity="0.88" />
  <circle cx="382.4" cy="320.1" r="9.5" fill="#7f8c8d" opacity="0.88" />
  <circle cx="511.0" cy="314.7" r="14.9" fill="#3498db" opacity="0.88" />
  <circle cx="550.9" cy="289.8" r="16" fill="#7f8c8d" opacity="0.88" />
  <circle cx="611.0" cy="304.0" r="16" fill="#e74c3c" opacity="0.88" />
  <circle cx="636.2" cy="268.3" r="16" fill="#9b59b6" opacity="0.88" />
  <circle cx="521.7" cy="280.4" r="14.0" fill="#3498db" opacity="0.88" />
  <circle cx="490.3" cy="276.9" r="14.0" fill="#3498db" opacity="0.88" />
  <circle cx="450.9" cy="196.7" r="10.4" fill="#e74c3c" opacity="0.88" />
  <circle cx="910.0" cy="153.3" r="12.2" fill="#3498db" opacity="0.88" />
  <circle cx="486.5" cy="239.5" r="10.4" fill="#e74c3c" opacity="0.88" />
  <circle cx="230.3" cy="495.7" r="12.2" fill="#3498db" opacity="0.88" />
  <circle cx="254.9" cy="500.0" r="11.3" fill="#3498db" opacity="0.88" />
  <circle cx="740.2" cy="313.6" r="5.9" fill="#3498db" opacity="0.88" />
  <circle cx="613.3" cy="247.8" r="12.2" fill="#9b59b6" opacity="0.88" />
  <circle cx="590.0" cy="274.7" r="15.8" fill="#9b59b6" opacity="0.88" />
  <circle cx="616.0" cy="281.8" r="8.6" fill="#9b59b6" opacity="0.88" />
  <circle cx="542.9" cy="228.1" r="5" fill="#2ecc71" opacity="0.88" />
  <circle cx="526.0" cy="223.1" r="5.9" fill="#7f8c8d" opacity="0.88" />
  <circle cx="633.9" cy="258.4" r="11.3" fill="#e67e22" opacity="0.88" />
  <circle cx="582.2" cy="285.4" r="16" fill="#2ecc71" opacity="0.88" />
  <circle cx="809.7" cy="331.4" r="6.8" fill="#9b59b6" opacity="0.88" />
  <circle cx="107.9" cy="404.9" r="5" fill="#7f8c8d" opacity="0.88" />
  <circle cx="570.5" cy="268.4" r="12.2" fill="#3498db" opacity="0.88" />
  <circle cx="551.9" cy="265.9" r="13.1" fill="#7f8c8d" opacity="0.88" />
  <circle cx="526.6" cy="240.2" r="9.5" fill="#7f8c8d" opacity="0.88" />
  <circle cx="50.0" cy="323.3" r="5" fill="#7f8c8d" opacity="0.88" />
  <circle cx="528.6" cy="248.0" r="7.7" fill="#7f8c8d" opacity="0.88" />
  <circle cx="570.2" cy="259.8" r="9.5" fill="#7f8c8d" opacity="0.88" />
  <circle cx="595.1" cy="259.4" r="15.8" fill="#2ecc71" opacity="0.88" />
  <circle cx="554.3" cy="256.5" r="7.7" fill="#7f8c8d" opacity="0.88" />
  <circle cx="703.5" cy="50.0" r="7.7" fill="#7f8c8d" opacity="0.88" />
  <circle cx="423.3" cy="223.6" r="7.7" fill="#3498db" opacity="0.88" />
  <circle cx="542.6" cy="217.3" r="5.9" fill="#7f8c8d" opacity="0.88" />
  <circle cx="420.1" cy="375.4" r="6.8" fill="#e67e22" opacity="0.88" />
  <circle cx="432.3" cy="365.6" r="6.8" fill="#e67e22" opacity="0.88" />
  <circle cx="555.5" cy="241.4" r="10.4" fill="#7f8c8d" opacity="0.88" />
  <circle cx="430.2" cy="333.1" r="11.3" fill="#e67e22" opacity="0.88" />
  <circle cx="726.7" cy="67.3" r="5.9" fill="#7f8c8d" opacity="0.88" />
  <circle cx="608.8" cy="265.9" r="6.8" fill="#7f8c8d" opacity="0.88" />
  <circle cx="577.6" cy="225.1" r="6.8" fill="#7f8c8d" opacity="0.88" />
  <circle cx="617.4" cy="185.9" r="5" fill="#2ecc71" opacity="0.88" />
  <circle cx="629.8" cy="170.8" r="7.7" fill="#2ecc71" opacity="0.88" />
  <circle cx="512.7" cy="220.6" r="5.9" fill="#e74c3c" opacity="0.88" />
  <circle cx="462.3" cy="204.0" r="10.4" fill="#e74c3c" opacity="0.88" />
  <circle cx="519.4" cy="252.3" r="5.9" fill="#7f8c8d" opacity="0.88" />
  <circle cx="802.9" cy="492.2" r="5" fill="#7f8c8d" opacity="0.88" />
  <rect x="536.0" y="344.0" width="124.4" height="15" fill="#ffffff" opacity="0.75" rx="2" />
  <text x="537.0" y="355.0" font-family="system-ui, -apple-system, sans-serif" font-size="12" fill="#1f2328" text-anchor="start">tinyland-huskycat</text>
  <rect x="497.2" y="248.5" width="110.0" height="15" fill="#ffffff" opacity="0.75" rx="2" />
  <text x="498.2" y="259.5" font-family="system-ui, -apple-system, sans-serif" font-size="12" fill="#1f2328" text-anchor="start">hiberpower-ntfs</text>
  <rect x="503.7" y="295.3" width="74.0" height="15" fill="#ffffff" opacity="0.75" rx="2" />
  <text x="504.7" y="306.3" font-family="system-ui, -apple-system, sans-serif" font-size="12" fill="#1f2328" text-anchor="start">tummycrypt</text>
  <rect x="587.7" y="338.0" width="117.2" height="15" fill="#ffffff" opacity="0.75" rx="2" />
  <text x="588.7" y="349.0" font-family="system-ui, -apple-system, sans-serif" font-size="12" fill="#1f2328" text-anchor="start">GloriousFlywheel</text>
  <rect x="522.6" y="330.9" width="45.2" height="15" fill="#ffffff" opacity="0.75" rx="2" />
  <text x="523.6" y="341.9" font-family="system-ui, -apple-system, sans-serif" font-size="12" fill="#1f2328" text-anchor="start">XoxdWM</text>
  <rect x="460.4" y="279.3" width="16.4" height="15" fill="#ffffff" opacity="0.75" rx="2" />
  <text x="461.4" y="290.3" font-family="system-ui, -apple-system, sans-serif" font-size="12" fill="#1f2328" text-anchor="start">pp</text>
  <rect x="377.5" y="293.4" width="117.2" height="15" fill="#ffffff" opacity="0.75" rx="2" />
  <text x="378.5" y="304.4" font-family="system-ui, -apple-system, sans-serif" font-size="12" fill="#1f2328" text-anchor="start">tinyland-cleanup</text>
  <rect x="499.1" y="389.0" width="59.6" height="15" fill="#ffffff" opacity="0.75" rx="2" />
  <text x="500.1" y="400.0" font-family="system-ui, -apple-system, sans-serif" font-size="12" fill="#1f2328" text-anchor="start">gnucashr</text>
  <rect x="520.1" y="277.0" width="66.8" height="15" fill="#ffffff" opacity="0.75" rx="2" />
  <text x="521.1" y="288.0" font-family="system-ui, -apple-system, sans-serif" font-size="12" fill="#1f2328" text-anchor="start">betterkvm</text>
  <rect x="420.8" y="376.4" width="131.6" height="15" fill="#ffffff" opacity="0.75" rx="2" />
  <text x="421.8" y="387.4" font-family="system-ui, -apple-system, sans-serif" font-size="12" fill="#1f2328" text-anchor="start">aperture-bootstrap</text>
  <rect x="493.5" y="288.5" width="81.2" height="15" fill="#ffffff" opacity="0.75" rx="2" />
  <text x="494.5" y="299.5" font-family="system-ui, -apple-system, sans-serif" font-size="12" fill="#1f2328" text-anchor="start">tailnet-acl</text>
  <rect x="393.9" y="308.5" width="88.4" height="15" fill="#ffffff" opacity="0.75" rx="2" />
  <text x="394.9" y="319.5" font-family="system-ui, -apple-system, sans-serif" font-size="12" fill="#1f2328" text-anchor="start">waifu-mirror</text>
  <rect x="527.9" y="204.6" width="102.8" height="15" fill="#ffffff" opacity="0.75" rx="2" />
  <text x="528.9" y="215.6" font-family="system-ui, -apple-system, sans-serif" font-size="12" fill="#1f2328" text-anchor="start">tinyland-infra</text>
  <rect x="568.9" y="364.0" width="52.4" height="15" fill="#ffffff" opacity="0.75" rx="2" />
  <text x="569.9" y="375.0" font-family="system-ui, -apple-system, sans-serif" font-size="12" fill="#1f2328" text-anchor="start">LA-Mesh</text>
  <rect x="629.0" y="362.1" width="131.6" height="15" fill="#ffffff" opacity="0.75" rx="2" />
  <text x="630.0" y="373.1" font-family="system-ui, -apple-system, sans-serif" font-size="12" fill="#1f2328" text-anchor="start">pixelwise-research</text>
  <rect x="654.2" y="204.6" width="95.6" height="15" fill="#ffffff" opacity="0.75" rx="2" />
  <text x="655.2" y="215.6" font-family="system-ui, -apple-system, sans-serif" font-size="12" fill="#1f2328" text-anchor="start">GIS_Shortcuts</text>
  <rect x="537.7" y="218.1" width="138.8" height="15" fill="#ffffff" opacity="0.75" rx="2" />
  <text x="538.7" y="229.1" font-family="system-ui, -apple-system, sans-serif" font-size="12" fill="#1f2328" text-anchor="start">Ansible-DAG-Harness</text>
  <rect x="506.3" y="135.9" width="95.6" height="15" fill="#ffffff" opacity="0.75" rx="2" />
  <text x="507.3" y="146.9" font-family="system-ui, -apple-system, sans-serif" font-size="12" fill="#1f2328" text-anchor="start">DarwinNicUtil</text>
  <rect x="463.3" y="107.1" width="66.8" height="15" fill="#ffffff" opacity="0.75" rx="2" />
  <text x="464.3" y="118.1" font-family="system-ui, -apple-system, sans-serif" font-size="12" fill="#1f2328" text-anchor="start">quickchpl</text>
  <rect x="764.2" y="146.5" width="131.6" height="15" fill="#ffffff" opacity="0.75" rx="2" />
  <text x="894.8" y="157.5" font-family="system-ui, -apple-system, sans-serif" font-size="12" fill="#1f2328" text-anchor="end">tinyscale-mikrotik</text>
  <rect x="498.9" y="315.4" width="59.6" height="15" fill="#ffffff" opacity="0.75" rx="2" />
  <text x="499.9" y="326.4" font-family="system-ui, -apple-system, sans-serif" font-size="12" fill="#1f2328" text-anchor="start">aoc-2025</text>
  <rect x="244.5" y="482.6" width="66.8" height="15" fill="#ffffff" opacity="0.75" rx="2" />
  <text x="245.5" y="493.6" font-family="system-ui, -apple-system, sans-serif" font-size="12" fill="#1f2328" text-anchor="start">searchies</text>
  <rect x="268.2" y="499.6" width="59.6" height="15" fill="#ffffff" opacity="0.75" rx="2" />
  <text x="269.2" y="510.6" font-family="system-ui, -apple-system, sans-serif" font-size="12" fill="#1f2328" text-anchor="start">ts-caddy</text>
  <rect x="748.1" y="284.8" width="66.8" height="15" fill="#ffffff" opacity="0.75" rx="2" />
  <text x="749.1" y="295.8" font-family="system-ui, -apple-system, sans-serif" font-size="12" fill="#1f2328" text-anchor="start">HCI-notes</text>
  <rect x="627.5" y="138.1" width="88.4" height="15" fill="#ffffff" opacity="0.75" rx="2" />
  <text x="628.5" y="149.1" font-family="system-ui, -apple-system, sans-serif" font-size="12" fill="#1f2328" text-anchor="start">FastPhotoAPI</text>
  <rect x="607.8" y="295.4" width="81.2" height="15" fill="#ffffff" opacity="0.75" rx="2" />
  <text x="608.8" y="306.4" font-family="system-ui, -apple-system, sans-serif" font-size="12" fill="#1f2328" text-anchor="start">timberbuddy</text>
  <rect x="626.6" y="166.7" width="81.2" height="15" fill="#ffffff" opacity="0.75" rx="2" />
  <text x="627.6" y="177.7" font-family="system-ui, -apple-system, sans-serif" font-size="12" fill="#1f2328" text-anchor="start">tetrahedron</text>
  <rect x="549.9" y="209.6" width="95.6" height="15" fill="#ffffff" opacity="0.75" rx="2" />
  <text x="550.9" y="220.6" font-family="system-ui, -apple-system, sans-serif" font-size="12" fill="#1f2328" text-anchor="start">AccuWixReport</text>
  <rect x="533.9" y="244.7" width="95.6" height="15" fill="#ffffff" opacity="0.75" rx="2" />
  <text x="534.9" y="255.7" font-family="system-ui, -apple-system, sans-serif" font-size="12" fill="#1f2328" text-anchor="start">Jess-AOC-2023</text>
  <rect x="647.2" y="251.4" width="81.2" height="15" fill="#ffffff" opacity="0.75" rx="2" />
  <text x="648.2" y="262.4" font-family="system-ui, -apple-system, sans-serif" font-size="12" fill="#1f2328" text-anchor="start">TurkeyProbe</text>
  <rect x="600.2" y="394.0" width="153.2" height="15" fill="#ffffff" opacity="0.75" rx="2" />
  <text x="601.2" y="405.0" font-family="system-ui, -apple-system, sans-serif" font-size="12" fill="#1f2328" text-anchor="start">MerlinAI-Interpreters</text>
  <rect x="690.9" y="377.4" width="110.0" height="15" fill="#ffffff" opacity="0.75" rx="2" />
  <text x="799.9" y="388.4" font-family="system-ui, -apple-system, sans-serif" font-size="12" fill="#1f2328" text-anchor="end">IntroTypeScript</text>
  <rect x="114.9" y="398.1" width="110.0" height="15" fill="#ffffff" opacity="0.75" rx="2" />
  <text x="115.9" y="409.1" font-family="system-ui, -apple-system, sans-serif" font-size="12" fill="#1f2328" text-anchor="start">IG-3DP-Profiles</text>
  <rect x="584.7" y="378.9" width="66.8" height="15" fill="#ffffff" opacity="0.75" rx="2" />
  <text x="585.7" y="389.9" font-family="system-ui, -apple-system, sans-serif" font-size="12" fill="#1f2328" text-anchor="start">DLA-Flask</text>
  <rect x="567.0" y="308.2" width="38.0" height="15" fill="#ffffff" opacity="0.75" rx="2" />
  <text x="568.0" y="319.2" font-family="system-ui, -apple-system, sans-serif" font-size="12" fill="#1f2328" text-anchor="start">USBoN</text>
  <rect x="538.1" y="149.7" width="203.6" height="15" fill="#ffffff" opacity="0.75" rx="2" />
  <text x="539.1" y="160.7" font-family="system-ui, -apple-system, sans-serif" font-size="12" fill="#1f2328" text-anchor="start">chrome-remote-desktop-budgie</text>
  <rect x="57.0" y="316.5" width="124.4" height="15" fill="#ffffff" opacity="0.75" rx="2" />
  <text x="58.0" y="327.5" font-family="system-ui, -apple-system, sans-serif" font-size="12" fill="#1f2328" text-anchor="start">OminousBeepingApp</text>
  <rect x="538.3" y="180.4" width="138.8" height="15" fill="#ffffff" opacity="0.75" rx="2" />
  <text x="539.3" y="191.4" font-family="system-ui, -apple-system, sans-serif" font-size="12" fill="#1f2328" text-anchor="start">mo-image-identifier</text>
  <rect x="581.7" y="327.3" width="196.4" height="15" fill="#ffffff" opacity="0.75" rx="2" />
  <text x="582.7" y="338.3" font-family="system-ui, -apple-system, sans-serif" font-size="12" fill="#1f2328" text-anchor="start">squirrel-leaflet-annotation</text>
  <rect x="612.9" y="283.6" width="74.0" height="15" fill="#ffffff" opacity="0.75" rx="2" />
  <text x="613.9" y="294.6" font-family="system-ui, -apple-system, sans-serif" font-size="12" fill="#1f2328" text-anchor="start">Shiny-Apps</text>
  <rect x="564.0" y="229.5" width="138.8" height="15" fill="#ffffff" opacity="0.75" rx="2" />
  <text x="565.0" y="240.5" font-family="system-ui, -apple-system, sans-serif" font-size="12" fill="#1f2328" text-anchor="start">bbox-jest-puppeteer</text>
  <rect x="713.2" y="43.2" width="88.4" height="15" fill="#ffffff" opacity="0.75" rx="2" />
  <text x="714.2" y="54.2" font-family="system-ui, -apple-system, sans-serif" font-size="12" fill="#1f2328" text-anchor="start">DoverDisplay</text>
  <rect x="433.0" y="230.3" width="81.2" height="15" fill="#ffffff" opacity="0.75" rx="2" />
  <text x="434.0" y="241.3" font-family="system-ui, -apple-system, sans-serif" font-size="12" fill="#1f2328" text-anchor="start">LeafletSync</text>
  <rect x="550.5" y="194.1" width="167.6" height="15" fill="#ffffff" opacity="0.75" rx="2" />
  <text x="551.5" y="205.1" font-family="system-ui, -apple-system, sans-serif" font-size="12" fill="#1f2328" text-anchor="start">misc-roi-distance-notes</text>
  <rect x="428.9" y="403.7" width="138.8" height="15" fill="#ffffff" opacity="0.75" rx="2" />
  <text x="429.9" y="414.7" font-family="system-ui, -apple-system, sans-serif" font-size="12" fill="#1f2328" text-anchor="start">Arduino_Coil_Winder</text>
  <rect x="441.1" y="389.2" width="30.8" height="15" fill="#ffffff" opacity="0.75" rx="2" />
  <text x="442.1" y="400.2" font-family="system-ui, -apple-system, sans-serif" font-size="12" fill="#1f2328" text-anchor="start">momo</text>
  <rect x="567.9" y="121.6" width="38.0" height="15" fill="#ffffff" opacity="0.75" rx="2" />
  <text x="568.9" y="132.6" font-family="system-ui, -apple-system, sans-serif" font-size="12" fill="#1f2328" text-anchor="start">clipi</text>
  <rect x="443.5" y="359.4" width="110.0" height="15" fill="#ffffff" opacity="0.75" rx="2" />
  <text x="444.5" y="370.4" font-family="system-ui, -apple-system, sans-serif" font-size="12" fill="#1f2328" text-anchor="start">AeroTaz5_hotfix</text>
  <rect x="734.6" y="60.5" width="110.0" height="15" fill="#ffffff" opacity="0.75" rx="2" />
  <text x="735.6" y="71.5" font-family="system-ui, -apple-system, sans-serif" font-size="12" fill="#1f2328" text-anchor="start">Funmat-HT-Notes</text>
  <rect x="617.6" y="310.3" width="81.2" height="15" fill="#ffffff" opacity="0.75" rx="2" />
  <text x="618.6" y="321.3" font-family="system-ui, -apple-system, sans-serif" font-size="12" fill="#1f2328" text-anchor="start">static-site</text>
  <rect x="586.4" y="266.6" width="95.6" height="15" fill="#ffffff" opacity="0.75" rx="2" />
  <text x="587.4" y="277.6" font-family="system-ui, -apple-system, sans-serif" font-size="12" fill="#1f2328" text-anchor="start">Flask-Manager</text>
  <rect x="624.4" y="123.4" width="110.0" height="15" fill="#ffffff" opacity="0.75" rx="2" />
  <text x="625.4" y="134.4" font-family="system-ui, -apple-system, sans-serif" font-size="12" fill="#1f2328" text-anchor="start">FieldProcessing</text>
  <rect x="639.5" y="108.5" width="81.2" height="15" fill="#ffffff" opacity="0.75" rx="2" />
  <text x="640.5" y="119.5" font-family="system-ui, -apple-system, sans-serif" font-size="12" fill="#1f2328" text-anchor="start">rJDKmanager</text>
  <rect x="520.6" y="261.7" width="59.6" height="15" fill="#ffffff" opacity="0.75" rx="2" />
  <text x="521.6" y="272.7" font-family="system-ui, -apple-system, sans-serif" font-size="12" fill="#1f2328" text-anchor="start">tagnotes</text>
  <rect x="474.7" y="121.6" width="81.2" height="15" fill="#ffffff" opacity="0.75" rx="2" />
  <text x="475.7" y="132.6" font-family="system-ui, -apple-system, sans-serif" font-size="12" fill="#1f2328" text-anchor="start">ChapelTests</text>
  <rect x="527.3" y="163.4" width="88.4" height="15" fill="#ffffff" opacity="0.75" rx="2" />
  <text x="528.3" y="174.4" font-family="system-ui, -apple-system, sans-serif" font-size="12" fill="#1f2328" text-anchor="start">Xfinity-WiFi</text>
  <rect x="729.1" y="485.4" width="66.8" height="15" fill="#ffffff" opacity="0.75" rx="2" />
  <text x="794.9" y="496.4" font-family="system-ui, -apple-system, sans-serif" font-size="12" fill="#1f2328" text-anchor="end">home-wiki</text>
  <rect x="793" y="36" width="155" height="120" rx="6" fill="#f6f8fa" stroke="#d0d7de" stroke-width="1" opacity="0.95" />
  <circle cx="810" cy="52" r="5" fill="#e74c3c" opacity="0.88" />
  <text x="820" y="56" font-family="system-ui, -apple-system, sans-serif" font-size="10" fill="#1f2328">Languages &amp; Compilers</text>
  <circle cx="810" cy="69" r="5" fill="#3498db" opacity="0.88" />
  <text x="820" y="73" font-family="system-ui, -apple-system, sans-serif" font-size="10" fill="#1f2328">Infrastructure &amp; DevOps</text>
  <circle cx="810" cy="86" r="5" fill="#e67e22" opacity="0.88" />
  <text x="820" y="90" font-family="system-ui, -apple-system, sans-serif" font-size="10" fill="#1f2328">Hardware &amp; Maker</text>
  <circle cx="810" cy="103" r="5" fill="#2ecc71" opacity="0.88" />
  <text x="820" y="107" font-family="system-ui, -apple-system, sans-serif" font-size="10" fill="#1f2328">ML &amp; Data</text>
  <circle cx="810" cy="120" r="5" fill="#9b59b6" opacity="0.88" />
  <text x="820" y="124" font-family="system-ui, -apple-system, sans-serif" font-size="10" fill="#1f2328">Web &amp; Apps</text>
  <circle cx="810" cy="137" r="5" fill="#7f8c8d" opacity="0.88" />
  <text x="820" y="141" font-family="system-ui, -apple-system, sans-serif" font-size="10" fill="#1f2328">Other</text>
  <text x="870" y="150" font-family="system-ui, -apple-system, sans-serif" font-size="8" fill="#656d76" text-anchor="middle">57 repos · 221 edges</text>
</svg>