<svg xmlns="http://www.w3.org/2000/svg" width="960" height="600" viewBox="0 0 960 600">
  <rect width="960" height="600" fill="#0d1117" rx="8" />
  <text x="480" y="24" font-family="system-ui, -apple-system, sans-serif" font-size="13" fill="#8b949e" text-anchor="middle" font-weight="500">Repo Relationship Graph &#x2014; Pairwise Topic &amp; Language Similarity</text>
  <line x1="50" y1="550" x2="910" y2="550" stroke="#484f58" stroke-width="0.5" opacity="0.5" />
  <text x="50" y="570" font-family="system-ui, -apple-system, sans-serif" font-size="9" fill="#8b949e" opacity="0.6">Updated daily by GitHub Actions</text>
  <text x="50" y="588" font-family="system-ui, -apple-system, sans-serif" font-size="9" fill="#8b949e" opacity="0.6">networkx spring_layout · Jaccard similarity &gt; 0.15</text>
  <text x="910" y="570" font-family="system-ui, -apple-system, sans-serif" font-size="9" fill="#8b949e" text-anchor="end" opacity="0.6">57 repos · 222 edges</text>
  <line x1="513.7" y1="300.7" x2="500.0" y2="291.9" stroke="#6e7681" stroke-width="1.0" opacity="0.23" />
  <line x1="513.7" y1="300.7" x2="476.0" y2="313.1" stroke="#6e7681" stroke-width="0.9" opacity="0.17" />
  <line x1="513.7" y1="300.7" x2="449.8" y2="316.1" stroke="#6e7681" stroke-width="1.0" opacity="0.22" />
  <line x1="513.7" y1="300.7" x2="506.1" y2="339.5" stroke="#6e7681" stroke-width="0.9" opacity="0.18" />
  <line x1="513.7" y1="300.7" x2="499.2" y2="283.8" stroke="#6e7681" stroke-width="1.0" opacity="0.24" />
  <line x1="513.7" y1="300.7" x2="469.5" y2="302.6" stroke="#6e7681" stroke-width="0.9" opacity="0.21" />
  <line x1="513.7" y1="300.7" x2="500.6" y2="321.3" stroke="#6e7681" stroke-width="0.9" opacity="0.21" />
  <line x1="513.7" y1="300.7" x2="547.0" y2="298.6" stroke="#6e7681" stroke-width="1.1" opacity="0.30" />
  <line x1="513.7" y1="300.7" x2="512.0" y2="285.3" stroke="#6e7681" stroke-width="1.0" opacity="0.22" />
  <line x1="513.7" y1="300.7" x2="482.5" y2="280.9" stroke="#6e7681" stroke-width="1.0" opacity="0.22" />
  <line x1="513.7" y1="300.7" x2="577.9" y2="296.1" stroke="#6e7681" stroke-width="0.9" opacity="0.19" />
  <line x1="513.7" y1="300.7" x2="576.3" y2="271.5" stroke="#6e7681" stroke-width="0.9" opacity="0.21" />
  <line x1="513.7" y1="300.7" x2="559.5" y2="266.2" stroke="#6e7681" stroke-width="1.0" opacity="0.24" />
  <line x1="513.7" y1="300.7" x2="525.6" y2="259.8" stroke="#6e7681" stroke-width="0.9" opacity="0.17" />
  <line x1="500.0" y1="291.9" x2="476.0" y2="313.1" stroke="#6e7681" stroke-width="1.0" opacity="0.25" />
  <line x1="500.0" y1="291.9" x2="482.1" y2="254.3" stroke="#6e7681" stroke-width="0.9" opacity="0.19" />
  <line x1="500.0" y1="291.9" x2="559.1" y2="319.4" stroke="#6e7681" stroke-width="0.9" opacity="0.18" />
  <line x1="500.0" y1="291.9" x2="449.8" y2="316.1" stroke="#6e7681" stroke-width="0.9" opacity="0.17" />
  <line x1="500.0" y1="291.9" x2="499.2" y2="283.8" stroke="#6e7681" stroke-width="1.1" opacity="0.29" />
  <line x1="500.0" y1="291.9" x2="469.5" y2="302.6" stroke="#6e7681" stroke-width="1.0" opacity="0.24" />
  <line x1="500.0" y1="291.9" x2="500.6" y2="321.3" stroke="#6e7681" stroke-width="0.9" opacity="0.17" />
  <line x1="500.0" y1="291.9" x2="547.0" y2="298.6" stroke="#6e7681" stroke-width="1.1" opacity="0.28" />
  <line x1="500.0" y1="291.9" x2="512.0" y2="285.3" stroke="#6e7681" stroke-width="1.0" opacity="0.26" />
  <line x1="500.0" y1="291.9" x2="482.5" y2="280.9" stroke="#6e7681" stroke-width="1.0" opacity="0.26" />
  <line x1="500.0" y1="291.9" x2="530.6" y2="253.9" stroke="#6e7681" stroke-width="0.9" opacity="0.18" />
  <line x1="500.0" y1="291.9" x2="559.5" y2="266.2" stroke="#6e7681" stroke-width="1.1" opacity="0.30" />
  <line x1="500.0" y1="291.9" x2="525.6" y2="259.8" stroke="#6e7681" stroke-width="1.0" opacity="0.22" />
  <line x1="476.0" y1="313.1" x2="506.1" y2="339.5" stroke="#6e7681" stroke-width="0.9" opacity="0.20" />
  <line x1="476.0" y1="313.1" x2="499.2" y2="283.8" stroke="#6e7681" stroke-width="0.9" opacity="0.20" />
  <line x1="476.0" y1="313.1" x2="469.5" y2="302.6" stroke="#6e7681" stroke-width="1.0" opacity="0.23" />
  <line x1="476.0" y1="313.1" x2="500.6" y2="321.3" stroke="#6e7681" stroke-width="1.0" opacity="0.23" />
  <line x1="476.0" y1="313.1" x2="512.0" y2="285.3" stroke="#6e7681" stroke-width="1.0" opacity="0.24" />
  <line x1="476.0" y1="313.1" x2="482.5" y2="280.9" stroke="#6e7681" stroke-width="0.9" opacity="0.18" />
  <line x1="482.1" y1="254.3" x2="530.6" y2="253.9" stroke="#6e7681" stroke-width="0.9" opacity="0.18" />
  <line x1="482.1" y1="254.3" x2="559.5" y2="266.2" stroke="#6e7681" stroke-width="1.1" opacity="0.30" />
  <line x1="482.1" y1="254.3" x2="525.6" y2="259.8" stroke="#6e7681" stroke-width="1.0" opacity="0.22" />
  <line x1="559.1" y1="319.4" x2="500.6" y2="321.3" stroke="#6e7681" stroke-width="1.2" opacity="0.38" />
  <line x1="559.1" y1="319.4" x2="547.0" y2="298.6" stroke="#6e7681" stroke-width="1.2" opacity="0.34" />
  <line x1="559.1" y1="319.4" x2="604.7" y2="314.6" stroke="#6e7681" stroke-width="1.0" opacity="0.25" />
  <line x1="559.1" y1="319.4" x2="588.9" y2="286.2" stroke="#6e7681" stroke-width="0.9" opacity="0.20" />
  <line x1="559.1" y1="319.4" x2="617.0" y2="293.8" stroke="#6e7681" stroke-width="1.0" opacity="0.22" />
  <line x1="449.8" y1="316.1" x2="368.2" y2="335.7" stroke="#6e7681" stroke-width="1.1" opacity="0.33" />
  <line x1="449.8" y1="316.1" x2="506.1" y2="339.5" stroke="#6e7681" stroke-width="0.9" opacity="0.19" />
  <line x1="449.8" y1="316.1" x2="499.2" y2="283.8" stroke="#6e7681" stroke-width="0.9" opacity="0.18" />
  <line x1="449.8" y1="316.1" x2="398.3" y2="318.9" stroke="#6e7681" stroke-width="0.9" opacity="0.18" />
  <line x1="449.8" y1="316.1" x2="392.7" y2="341.1" stroke="#6e7681" stroke-width="1.3" opacity="0.41" />
  <line x1="449.8" y1="316.1" x2="500.6" y2="321.3" stroke="#6e7681" stroke-width="1.0" opacity="0.24" />
  <line x1="449.8" y1="316.1" x2="547.0" y2="298.6" stroke="#6e7681" stroke-width="0.9" opacity="0.19" />
  <line x1="449.8" y1="316.1" x2="525.6" y2="259.8" stroke="#6e7681" stroke-width="0.9" opacity="0.18" />
  <line x1="368.2" y1="335.7" x2="392.7" y2="341.1" stroke="#6e7681" stroke-width="0.9" opacity="0.18" />
  <line x1="506.1" y1="339.5" x2="469.5" y2="302.6" stroke="#6e7681" stroke-width="0.9" opacity="0.19" />
  <line x1="506.1" y1="339.5" x2="500.6" y2="321.3" stroke="#6e7681" stroke-width="0.9" opacity="0.19" />
  <line x1="506.1" y1="339.5" x2="547.0" y2="298.6" stroke="#6e7681" stroke-width="0.9" opacity="0.17" />
  <line x1="506.1" y1="339.5" x2="583.2" y2="374.8" stroke="#6e7681" stroke-width="1.0" opacity="0.22" />
  <line x1="499.2" y1="283.8" x2="469.5" y2="302.6" stroke="#6e7681" stroke-width="1.0" opacity="0.26" />
  <line x1="499.2" y1="283.8" x2="500.6" y2="321.3" stroke="#6e7681" stroke-width="0.9" opacity="0.18" />
  <line x1="499.2" y1="283.8" x2="547.0" y2="298.6" stroke="#6e7681" stroke-width="1.0" opacity="0.22" />
  <line x1="499.2" y1="283.8" x2="512.0" y2="285.3" stroke="#6e7681" stroke-width="1.1" opacity="0.28" />
  <line x1="499.2" y1="283.8" x2="482.5" y2="280.9" stroke="#6e7681" stroke-width="1.1" opacity="0.28" />
  <line x1="499.2" y1="283.8" x2="542.7" y2="250.1" stroke="#6e7681" stroke-width="0.9" opacity="0.17" />
  <line x1="499.2" y1="283.8" x2="530.6" y2="253.9" stroke="#6e7681" stroke-width="0.9" opacity="0.20" />
  <line x1="499.2" y1="283.8" x2="576.3" y2="271.5" stroke="#6e7681" stroke-width="0.9" opacity="0.17" />
  <line x1="499.2" y1="283.8" x2="559.5" y2="266.2" stroke="#6e7681" stroke-width="0.9" opacity="0.20" />
  <line x1="499.2" y1="283.8" x2="525.6" y2="259.8" stroke="#6e7681" stroke-width="1.0" opacity="0.24" />
  <line x1="398.3" y1="318.9" x2="469.5" y2="302.6" stroke="#6e7681" stroke-width="1.2" opacity="0.34" />
  <line x1="398.3" y1="318.9" x2="392.7" y2="341.1" stroke="#6e7681" stroke-width="0.9" opacity="0.17" />
  <line x1="469.5" y1="302.6" x2="500.6" y2="321.3" stroke="#6e7681" stroke-width="1.0" opacity="0.22" />
  <line x1="469.5" y1="302.6" x2="547.0" y2="298.6" stroke="#6e7681" stroke-width="0.9" opacity="0.19" />
  <line x1="469.5" y1="302.6" x2="512.0" y2="285.3" stroke="#6e7681" stroke-width="1.0" opacity="0.23" />
  <line x1="469.5" y1="302.6" x2="482.5" y2="280.9" stroke="#6e7681" stroke-width="1.0" opacity="0.23" />
  <line x1="469.5" y1="302.6" x2="525.6" y2="259.8" stroke="#6e7681" stroke-width="0.9" opacity="0.18" />
  <line x1="500.6" y1="321.3" x2="547.0" y2="298.6" stroke="#6e7681" stroke-width="0.9" opacity="0.19" />
  <line x1="547.0" y1="298.6" x2="604.7" y2="314.6" stroke="#6e7681" stroke-width="1.2" opacity="0.34" />
  <line x1="547.0" y1="298.6" x2="512.0" y2="285.3" stroke="#6e7681" stroke-width="0.9" opacity="0.20" />
  <line x1="547.0" y1="298.6" x2="482.5" y2="280.9" stroke="#6e7681" stroke-width="0.9" opacity="0.20" />
  <line x1="547.0" y1="298.6" x2="588.9" y2="286.2" stroke="#6e7681" stroke-width="1.2" opacity="0.37" />
  <line x1="547.0" y1="298.6" x2="617.0" y2="293.8" stroke="#6e7681" stroke-width="1.2" opacity="0.37" />
  <line x1="547.0" y1="298.6" x2="577.9" y2="296.1" stroke="#6e7681" stroke-width="1.1" opacity="0.29" />
  <line x1="547.0" y1="298.6" x2="565.7" y2="279.1" stroke="#6e7681" stroke-width="1.0" opacity="0.22" />
  <line x1="547.0" y1="298.6" x2="576.3" y2="271.5" stroke="#6e7681" stroke-width="1.2" opacity="0.34" />
  <line x1="547.0" y1="298.6" x2="597.7" y2="272.2" stroke="#6e7681" stroke-width="1.0" opacity="0.24" />
  <line x1="547.0" y1="298.6" x2="559.5" y2="266.2" stroke="#6e7681" stroke-width="1.1" opacity="0.29" />
  <line x1="547.0" y1="298.6" x2="612.0" y2="278.6" stroke="#6e7681" stroke-width="1.0" opacity="0.22" />
  <line x1="604.7" y1="314.6" x2="588.9" y2="286.2" stroke="#6e7681" stroke-width="1.0" opacity="0.25" />
  <line x1="604.7" y1="314.6" x2="617.0" y2="293.8" stroke="#6e7681" stroke-width="1.1" opacity="0.29" />
  <line x1="604.7" y1="314.6" x2="612.0" y2="278.6" stroke="#6e7681" stroke-width="0.9" opacity="0.17" />
  <line x1="639.8" y1="283.3" x2="588.9" y2="286.2" stroke="#6e7681" stroke-width="0.9" opacity="0.18" />
  <line x1="639.8" y1="283.3" x2="617.0" y2="293.8" stroke="#6e7681" stroke-width="0.9" opacity="0.18" />
  <line x1="639.8" y1="283.3" x2="576.3" y2="271.5" stroke="#6e7681" stroke-width="0.9" opacity="0.17" />
  <line x1="639.8" y1="283.3" x2="597.7" y2="272.2" stroke="#6e7681" stroke-width="1.3" opacity="0.42" />
  <line x1="639.8" y1="283.3" x2="559.5" y2="266.2" stroke="#6e7681" stroke-width="0.9" opacity="0.19" />
  <line x1="639.8" y1="283.3" x2="612.0" y2="278.6" stroke="#6e7681" stroke-width="0.9" opacity="0.21" />
  <line x1="512.0" y1="285.3" x2="482.5" y2="280.9" stroke="#6e7681" stroke-width="1.0" opacity="0.24" />
  <line x1="512.0" y1="285.3" x2="565.7" y2="279.1" stroke="#6e7681" stroke-width="0.9" opacity="0.19" />
  <line x1="512.0" y1="285.3" x2="544.3" y2="273.1" stroke="#6e7681" stroke-width="0.9" opacity="0.18" />
  <line x1="512.0" y1="285.3" x2="530.6" y2="253.9" stroke="#6e7681" stroke-width="0.9" opacity="0.17" />
  <line x1="512.0" y1="285.3" x2="559.5" y2="266.2" stroke="#6e7681" stroke-width="0.9" opacity="0.17" />
  <line x1="512.0" y1="285.3" x2="525.6" y2="259.8" stroke="#6e7681" stroke-width="0.9" opacity="0.20" />
  <line x1="482.5" y1="280.9" x2="530.6" y2="253.9" stroke="#6e7681" stroke-width="0.9" opacity="0.17" />
  <line x1="482.5" y1="280.9" x2="559.5" y2="266.2" stroke="#6e7681" stroke-width="0.9" opacity="0.17" />
  <line x1="482.5" y1="280.9" x2="525.6" y2="259.8" stroke="#6e7681" stroke-width="0.9" opacity="0.20" />
  <line x1="615.1" y1="206.1" x2="584.9" y2="244.6" stroke="#6e7681" stroke-width="1.3" opacity="0.44" />
  <line x1="615.1" y1="206.1" x2="582.6" y2="199.0" stroke="#6e7681" stroke-width="0.9" opacity="0.18" />
  <line x1="584.9" y1="244.6" x2="544.5" y2="229.0" stroke="#6e7681" stroke-width="1.1" opacity="0.31" />
  <line x1="584.9" y1="244.6" x2="542.7" y2="250.1" stroke="#6e7681" stroke-width="0.9" opacity="0.20" />
  <line x1="584.9" y1="244.6" x2="530.6" y2="253.9" stroke="#6e7681" stroke-width="1.0" opacity="0.24" />
  <line x1="584.9" y1="244.6" x2="576.3" y2="271.5" stroke="#6e7681" stroke-width="0.9" opacity="0.20" />
  <line x1="584.9" y1="244.6" x2="559.5" y2="266.2" stroke="#6e7681" stroke-width="1.0" opacity="0.24" />
  <line x1="584.9" y1="244.6" x2="567.8" y2="253.1" stroke="#6e7681" stroke-width="0.9" opacity="0.18" />
  <line x1="584.9" y1="244.6" x2="617.5" y2="340.9" stroke="#6e7681" stroke-width="0.9" opacity="0.17" />
  <line x1="584.9" y1="244.6" x2="558.5" y2="225.8" stroke="#6e7681" stroke-width="1.1" opacity="0.31" />
  <line x1="584.9" y1="244.6" x2="582.6" y2="199.0" stroke="#6e7681" stroke-width="1.1" opacity="0.30" />
  <line x1="584.9" y1="244.6" x2="525.6" y2="259.8" stroke="#6e7681" stroke-width="1.1" opacity="0.31" />
  <line x1="235.7" y1="498.4" x2="262.4" y2="500.0" stroke="#6e7681" stroke-width="1.6" opacity="0.60" />
  <line x1="752.4" y1="322.0" x2="617.0" y2="293.8" stroke="#6e7681" stroke-width="0.9" opacity="0.18" />
  <line x1="752.4" y1="322.0" x2="828.3" y2="337.6" stroke="#6e7681" stroke-width="1.1" opacity="0.28" />
  <line x1="620.0" y1="262.2" x2="588.9" y2="286.2" stroke="#6e7681" stroke-width="0.9" opacity="0.17" />
  <line x1="620.0" y1="262.2" x2="617.0" y2="293.8" stroke="#6e7681" stroke-width="0.9" opacity="0.18" />
  <line x1="620.0" y1="262.2" x2="565.7" y2="279.1" stroke="#6e7681" stroke-width="1.0" opacity="0.22" />
  <line x1="620.0" y1="262.2" x2="576.3" y2="271.5" stroke="#6e7681" stroke-width="1.1" opacity="0.28" />
  <line x1="620.0" y1="262.2" x2="597.7" y2="272.2" stroke="#6e7681" stroke-width="1.1" opacity="0.32" />
  <line x1="620.0" y1="262.2" x2="559.5" y2="266.2" stroke="#6e7681" stroke-width="0.9" opacity="0.20" />
  <line x1="620.0" y1="262.2" x2="612.0" y2="278.6" stroke="#6e7681" stroke-width="1.0" opacity="0.22" />
  <line x1="620.0" y1="262.2" x2="591.0" y2="235.8" stroke="#6e7681" stroke-width="1.0" opacity="0.22" />
  <line x1="588.9" y1="286.2" x2="617.0" y2="293.8" stroke="#6e7681" stroke-width="1.3" opacity="0.42" />
  <line x1="588.9" y1="286.2" x2="640.2" y2="273.3" stroke="#6e7681" stroke-width="0.9" opacity="0.18" />
  <line x1="588.9" y1="286.2" x2="577.9" y2="296.1" stroke="#6e7681" stroke-width="1.1" opacity="0.31" />
  <line x1="588.9" y1="286.2" x2="565.7" y2="279.1" stroke="#6e7681" stroke-width="1.1" opacity="0.32" />
  <line x1="588.9" y1="286.2" x2="544.3" y2="273.1" stroke="#6e7681" stroke-width="1.0" opacity="0.23" />
  <line x1="588.9" y1="286.2" x2="576.3" y2="271.5" stroke="#6e7681" stroke-width="1.2" opacity="0.39" />
  <line x1="588.9" y1="286.2" x2="597.7" y2="272.2" stroke="#6e7681" stroke-width="1.0" opacity="0.26" />
  <line x1="588.9" y1="286.2" x2="559.5" y2="266.2" stroke="#6e7681" stroke-width="1.2" opacity="0.34" />
  <line x1="588.9" y1="286.2" x2="567.8" y2="253.1" stroke="#6e7681" stroke-width="0.9" opacity="0.19" />
  <line x1="588.9" y1="286.2" x2="612.0" y2="278.6" stroke="#6e7681" stroke-width="1.0" opacity="0.25" />
  <line x1="588.9" y1="286.2" x2="525.6" y2="259.8" stroke="#6e7681" stroke-width="0.9" opacity="0.17" />
  <line x1="617.0" y1="293.8" x2="640.2" y2="273.3" stroke="#6e7681" stroke-width="1.1" opacity="0.33" />
  <line x1="617.0" y1="293.8" x2="577.9" y2="296.1" stroke="#6e7681" stroke-width="0.9" opacity="0.21" />
  <line x1="617.0" y1="293.8" x2="565.7" y2="279.1" stroke="#6e7681" stroke-width="0.9" opacity="0.18" />
  <line x1="617.0" y1="293.8" x2="576.3" y2="271.5" stroke="#6e7681" stroke-width="1.3" opacity="0.41" />
  <line x1="617.0" y1="293.8" x2="597.7" y2="272.2" stroke="#6e7681" stroke-width="1.0" opacity="0.22" />
  <line x1="617.0" y1="293.8" x2="559.5" y2="266.2" stroke="#6e7681" stroke-width="1.1" opacity="0.31" />
  <line x1="617.0" y1="293.8" x2="612.0" y2="278.6" stroke="#6e7681" stroke-width="1.7" opacity="0.66" />
  <line x1="545.5" y1="237.7" x2="544.5" y2="229.0" stroke="#6e7681" stroke-width="1.5" opacity="0.55" />
  <line x1="545.5" y1="237.7" x2="542.7" y2="250.1" stroke="#6e7681" stroke-width="0.9" opacity="0.18" />
  <line x1="545.5" y1="237.7" x2="530.6" y2="253.9" stroke="#6e7681" stroke-width="1.1" opacity="0.28" />
  <line x1="545.5" y1="237.7" x2="576.3" y2="271.5" stroke="#6e7681" stroke-width="0.9" opacity="0.18" />
  <line x1="545.5" y1="237.7" x2="559.5" y2="266.2" stroke="#6e7681" stroke-width="1.1" opacity="0.28" />
  <line x1="545.5" y1="237.7" x2="527.0" y2="228.7" stroke="#6e7681" stroke-width="1.5" opacity="0.55" />
  <line x1="545.5" y1="237.7" x2="591.0" y2="235.8" stroke="#6e7681" stroke-width="1.2" opacity="0.37" />
  <line x1="545.5" y1="237.7" x2="558.5" y2="225.8" stroke="#6e7681" stroke-width="1.5" opacity="0.55" />
  <line x1="545.5" y1="237.7" x2="525.6" y2="259.8" stroke="#6e7681" stroke-width="1.5" opacity="0.55" />
  <line x1="544.5" y1="229.0" x2="530.6" y2="253.9" stroke="#6e7681" stroke-width="1.0" opacity="0.22" />
  <line x1="544.5" y1="229.0" x2="559.5" y2="266.2" stroke="#6e7681" stroke-width="1.0" opacity="0.22" />
  <line x1="544.5" y1="229.0" x2="527.0" y2="228.7" stroke="#6e7681" stroke-width="1.2" opacity="0.37" />
  <line x1="544.5" y1="229.0" x2="591.0" y2="235.8" stroke="#6e7681" stroke-width="1.1" opacity="0.28" />
  <line x1="544.5" y1="229.0" x2="558.5" y2="225.8" stroke="#6e7681" stroke-width="1.2" opacity="0.37" />
  <line x1="544.5" y1="229.0" x2="525.6" y2="259.8" stroke="#6e7681" stroke-width="1.2" opacity="0.37" />
  <line x1="640.2" y1="273.3" x2="576.3" y2="271.5" stroke="#6e7681" stroke-width="0.9" opacity="0.18" />
  <line x1="640.2" y1="273.3" x2="597.7" y2="272.2" stroke="#6e7681" stroke-width="0.9" opacity="0.18" />
  <line x1="640.2" y1="273.3" x2="559.5" y2="266.2" stroke="#6e7681" stroke-width="1.0" opacity="0.22" />
  <line x1="640.2" y1="273.3" x2="612.0" y2="278.6" stroke="#6e7681" stroke-width="1.3" opacity="0.41" />
  <line x1="577.9" y1="296.1" x2="565.7" y2="279.1" stroke="#6e7681" stroke-width="1.1" opacity="0.31" />
  <line x1="577.9" y1="296.1" x2="576.3" y2="271.5" stroke="#6e7681" stroke-width="1.4" opacity="0.47" />
  <line x1="577.9" y1="296.1" x2="597.7" y2="272.2" stroke="#6e7681" stroke-width="0.9" opacity="0.19" />
  <line x1="577.9" y1="296.1" x2="559.5" y2="266.2" stroke="#6e7681" stroke-width="1.0" opacity="0.22" />
  <line x1="565.7" y1="279.1" x2="544.3" y2="273.1" stroke="#6e7681" stroke-width="1.1" opacity="0.29" />
  <line x1="565.7" y1="279.1" x2="542.7" y2="250.1" stroke="#6e7681" stroke-width="0.9" opacity="0.17" />
  <line x1="565.7" y1="279.1" x2="530.6" y2="253.9" stroke="#6e7681" stroke-width="0.9" opacity="0.20" />
  <line x1="565.7" y1="279.1" x2="576.3" y2="271.5" stroke="#6e7681" stroke-width="1.3" opacity="0.40" />
  <line x1="565.7" y1="279.1" x2="597.7" y2="272.2" stroke="#6e7681" stroke-width="1.0" opacity="0.24" />
  <line x1="565.7" y1="279.1" x2="559.5" y2="266.2" stroke="#6e7681" stroke-width="0.9" opacity="0.20" />
  <line x1="565.7" y1="279.1" x2="525.6" y2="259.8" stroke="#6e7681" stroke-width="1.0" opacity="0.24" />
  <line x1="544.3" y1="273.1" x2="530.6" y2="253.9" stroke="#6e7681" stroke-width="0.9" opacity="0.18" />
  <line x1="544.3" y1="273.1" x2="597.7" y2="272.2" stroke="#6e7681" stroke-width="1.0" opacity="0.23" />
  <line x1="544.3" y1="273.1" x2="559.5" y2="266.2" stroke="#6e7681" stroke-width="0.9" opacity="0.18" />
  <line x1="544.3" y1="273.1" x2="567.8" y2="253.1" stroke="#6e7681" stroke-width="1.0" opacity="0.24" />
  <line x1="544.3" y1="273.1" x2="525.6" y2="259.8" stroke="#6e7681" stroke-width="1.0" opacity="0.22" />
  <line x1="542.7" y1="250.1" x2="530.6" y2="253.9" stroke="#6e7681" stroke-width="1.1" opacity="0.28" />
  <line x1="542.7" y1="250.1" x2="576.3" y2="271.5" stroke="#6e7681" stroke-width="1.0" opacity="0.22" />
  <line x1="542.7" y1="250.1" x2="559.5" y2="266.2" stroke="#6e7681" stroke-width="1.1" opacity="0.28" />
  <line x1="542.7" y1="250.1" x2="567.8" y2="253.1" stroke="#6e7681" stroke-width="0.9" opacity="0.20" />
  <line x1="542.7" y1="250.1" x2="525.6" y2="259.8" stroke="#6e7681" stroke-width="1.2" opacity="0.37" />
  <line x1="530.6" y1="253.9" x2="576.3" y2="271.5" stroke="#6e7681" stroke-width="1.1" opacity="0.28" />
  <line x1="530.6" y1="253.9" x2="559.5" y2="266.2" stroke="#6e7681" stroke-width="1.2" opacity="0.37" />
  <line x1="530.6" y1="253.9" x2="527.0" y2="228.7" stroke="#6e7681" stroke-width="1.0" opacity="0.22" />
  <line x1="530.6" y1="253.9" x2="567.8" y2="253.1" stroke="#6e7681" stroke-width="1.0" opacity="0.24" />
  <line x1="530.6" y1="253.9" x2="591.0" y2="235.8" stroke="#6e7681" stroke-width="0.9" opacity="0.18" />
  <line x1="530.6" y1="253.9" x2="558.5" y2="225.8" stroke="#6e7681" stroke-width="1.0" opacity="0.22" />
  <line x1="530.6" y1="253.9" x2="525.6" y2="259.8" stroke="#6e7681" stroke-width="1.5" opacity="0.55" />
  <line x1="576.3" y1="271.5" x2="597.7" y2="272.2" stroke="#6e7681" stroke-width="1.1" opacity="0.29" />
  <line x1="576.3" y1="271.5" x2="559.5" y2="266.2" stroke="#6e7681" stroke-width="1.4" opacity="0.47" />
  <line x1="576.3" y1="271.5" x2="567.8" y2="253.1" stroke="#6e7681" stroke-width="0.9" opacity="0.20" />
  <line x1="576.3" y1="271.5" x2="612.0" y2="278.6" stroke="#6e7681" stroke-width="1.1" opacity="0.31" />
  <line x1="576.3" y1="271.5" x2="591.0" y2="235.8" stroke="#6e7681" stroke-width="1.1" opacity="0.31" />
  <line x1="576.3" y1="271.5" x2="525.6" y2="259.8" stroke="#6e7681" stroke-width="1.2" opacity="0.37" />
  <line x1="597.7" y1="272.2" x2="559.5" y2="266.2" stroke="#6e7681" stroke-width="1.2" opacity="0.34" />
  <line x1="597.7" y1="272.2" x2="612.0" y2="278.6" stroke="#6e7681" stroke-width="1.0" opacity="0.25" />
  <line x1="597.7" y1="272.2" x2="591.0" y2="235.8" stroke="#6e7681" stroke-width="1.0" opacity="0.25" />
  <line x1="597.7" y1="272.2" x2="525.6" y2="259.8" stroke="#6e7681" stroke-width="0.9" opacity="0.17" />
  <line x1="559.5" y1="266.2" x2="527.0" y2="228.7" stroke="#6e7681" stroke-width="1.0" opacity="0.22" />
  <line x1="559.5" y1="266.2" x2="567.8" y2="253.1" stroke="#6e7681" stroke-width="1.0" opacity="0.24" />
  <line x1="559.5" y1="266.2" x2="612.0" y2="278.6" stroke="#6e7681" stroke-width="1.3" opacity="0.44" />
  <line x1="559.5" y1="266.2" x2="591.0" y2="235.8" stroke="#6e7681" stroke-width="1.3" opacity="0.44" />
  <line x1="559.5" y1="266.2" x2="558.5" y2="225.8" stroke="#6e7681" stroke-width="1.0" opacity="0.22" />
  <line x1="559.5" y1="266.2" x2="525.6" y2="259.8" stroke="#6e7681" stroke-width="1.5" opacity="0.55" />
  <line x1="710.4" y1="50.0" x2="727.2" y2="70.1" stroke="#6e7681" stroke-width="1.0" opacity="0.22" />
  <line x1="439.9" y1="219.5" x2="525.6" y2="259.8" stroke="#6e7681" stroke-width="1.0" opacity="0.22" />
  <line x1="527.0" y1="228.7" x2="591.0" y2="235.8" stroke="#6e7681" stroke-width="1.1" opacity="0.28" />
  <line x1="527.0" y1="228.7" x2="558.5" y2="225.8" stroke="#6e7681" stroke-width="1.2" opacity="0.37" />
  <line x1="527.0" y1="228.7" x2="525.6" y2="259.8" stroke="#6e7681" stroke-width="1.2" opacity="0.37" />
  <line x1="623.2" y1="379.0" x2="583.2" y2="374.8" stroke="#6e7681" stroke-width="1.5" opacity="0.55" />
  <line x1="623.2" y1="379.0" x2="617.5" y2="340.9" stroke="#6e7681" stroke-width="1.3" opacity="0.41" />
  <line x1="583.2" y1="374.8" x2="617.5" y2="340.9" stroke="#6e7681" stroke-width="1.0" opacity="0.24" />
  <line x1="567.8" y1="253.1" x2="525.6" y2="259.8" stroke="#6e7681" stroke-width="1.1" opacity="0.31" />
  <line x1="612.0" y1="278.6" x2="591.0" y2="235.8" stroke="#6e7681" stroke-width="1.0" opacity="0.22" />
  <line x1="591.0" y1="235.8" x2="650.2" y2="200.8" stroke="#6e7681" stroke-width="1.2" opacity="0.37" />
  <line x1="591.0" y1="235.8" x2="656.1" y2="183.4" stroke="#6e7681" stroke-width="0.9" opacity="0.18" />
  <line x1="591.0" y1="235.8" x2="558.5" y2="225.8" stroke="#6e7681" stroke-width="1.1" opacity="0.28" />
  <line x1="591.0" y1="235.8" x2="525.6" y2="259.8" stroke="#6e7681" stroke-width="1.1" opacity="0.28" />
  <line x1="650.2" y1="200.8" x2="656.1" y2="183.4" stroke="#6e7681" stroke-width="1.1" opacity="0.28" />
  <line x1="558.5" y1="225.8" x2="582.6" y2="199.0" stroke="#6e7681" stroke-width="1.1" opacity="0.31" />
  <line x1="558.5" y1="225.8" x2="525.6" y2="259.8" stroke="#6e7681" stroke-width="1.2" opacity="0.37" />
  <circle cx="513.7" cy="300.7" r="19.8" fill="#7f8c8d" opacity="0.12" />
  <circle cx="513.7" cy="300.7" r="15.8" fill="#7f8c8d" opacity="0.88" />
  <circle cx="500.0" cy="291.9" r="17.1" fill="#e67e22" opacity="0.12" />
  <circle cx="500.0" cy="291.9" r="13.1" fill="#e67e22" opacity="0.88" />
  <circle cx="476.0" cy="313.1" r="20" fill="#7f8c8d" opacity="0.12" />
  <circle cx="476.0" cy="313.1" r="16" fill="#7f8c8d" opacity="0.88" />
  <circle cx="482.1" cy="254.3" r="17.1" fill="#e67e22" opacity="0.12" />
  <circle cx="482.1" cy="254.3" r="13.1" fill="#e67e22" opacity="0.88" />
  <circle cx="559.1" cy="319.4" r="20" fill="#3498db" opacity="0.12" />
  <circle cx="559.1" cy="319.4" r="16" fill="#3498db" opacity="0.88" />
  <circle cx="449.8" cy="316.1" r="12.6" fill="#3498db" opacity="0.12" />
  <circle cx="449.8" cy="316.1" r="8.6" fill="#3498db" opacity="0.88" />
  <circle cx="368.2" cy="335.7" r="15.3" fill="#3498db" opacity="0.12" />
  <circle cx="368.2" cy="335.7" r="11.3" fill="#3498db" opacity="0.88" />
  <circle cx="506.1" cy="339.5" r="20" fill="#2ecc71" opacity="0.12" />
  <circle cx="506.1" cy="339.5" r="16" fill="#2ecc71" opacity="0.88" />
  <circle cx="499.2" cy="283.8" r="16.2" fill="#3498db" opacity="0.12" />
  <circle cx="499.2" cy="283.8" r="12.2" fill="#3498db" opacity="0.88" />
  <circle cx="398.3" cy="318.9" r="16.2" fill="#7f8c8d" opacity="0.12" />
  <circle cx="398.3" cy="318.9" r="12.2" fill="#7f8c8d" opacity="0.88" />
  <circle cx="469.5" cy="302.6" r="18.9" fill="#7f8c8d" opacity="0.12" />
  <circle cx="469.5" cy="302.6" r="14.9" fill="#7f8c8d" opacity="0.88" />
  <circle cx="392.7" cy="341.1" r="13.5" fill="#7f8c8d" opacity="0.12" />
  <circle cx="392.7" cy="341.1" r="9.5" fill="#7f8c8d" opacity="0.88" />
  <circle cx="500.6" cy="321.3" r="18.9" fill="#3498db" opacity="0.12" />
  <circle cx="500.6" cy="321.3" r="14.9" fill="#3498db" opacity="0.88" />
  <circle cx="547.0" cy="298.6" r="20" fill="#7f8c8d" opacity="0.12" />
  <circle cx="547.0" cy="298.6" r="16" fill="#7f8c8d" opacity="0.88" />
  <circle cx="604.7" cy="314.6" r="20" fill="#e74c3c" opacity="0.12" />
  <circle cx="604.7" cy="314.6" r="16" fill="#e74c3c" opacity="0.88" />
  <circle cx="639.8" cy="283.3" r="20" fill="#9b59b6" opacity="0.12" />
  <circle cx="639.8" cy="283.3" r="16" fill="#9b59b6" opacity="0.88" />
  <circle cx="512.0" cy="285.3" r="18.0" fill="#3498db" opacity="0.12" />
  <circle cx="512.0" cy="285.3" r="14.0" fill="#3498db" opacity="0.88" />
  <circle cx="482.5" cy="280.9" r="18.0" fill="#3498db" opacity="0.12" />
  <circle cx="482.5" cy="280.9" r="14.0" fill="#3498db" opacity="0.88" />
  <circle cx="615.1" cy="206.1" r="14.4" fill="#e74c3c" opacity="0.12" />
  <circle cx="615.1" cy="206.1" r="10.4" fill="#e74c3c" opacity="0.88" />
  <circle cx="910.0" cy="133.1" r="16.2" fill="#3498db" opacity="0.12" />
  <circle cx="910.0" cy="133.1" r="12.2" fill="#3498db" opacity="0.88" />
  <circle cx="584.9" cy="244.6" r="14.4" fill="#e74c3c" opacity="0.12" />
  <circle cx="584.9" cy="244.6" r="10.4" fill="#e74c3c" opacity="0.88" />
  <circle cx="235.7" cy="498.4" r="16.2" fill="#3498db" opacity="0.12" />
  <circle cx="235.7" cy="498.4" r="12.2" fill="#3498db" opacity="0.88" />
  <circle cx="262.4" cy="500.0" r="15.3" fill="#3498db" opacity="0.12" />
  <circle cx="262.4" cy="500.0" r="11.3" fill="#3498db" opacity="0.88" />
  <circle cx="752.4" cy="322.0" r="9.9" fill="#3498db" opacity="0.12" />
  <circle cx="752.4" cy="322.0" r="5.9" fill="#3498db" opacity="0.88" />
  <circle cx="620.0" cy="262.2" r="16.2" fill="#9b59b6" opacity="0.12" />
  <circle cx="620.0" cy="262.2" r="12.2" fill="#9b59b6" opacity="0.88" />
  <circle cx="588.9" cy="286.2" r="19.8" fill="#9b59b6" opacity="0.12" />
  <circle cx="588.9" cy="286.2" r="15.8" fill="#9b59b6" opacity="0.88" />
  <circle cx="617.0" cy="293.8" r="12.6" fill="#9b59b6" opacity="0.12" />
  <circle cx="617.0" cy="293.8" r="8.6" fill="#9b59b6" opacity="0.88" />
  <circle cx="545.5" cy="237.7" r="9" fill="#2ecc71" opacity="0.12" />
  <circle cx="545.5" cy="237.7" r="5" fill="#2ecc71" opacity="0.88" />
  <circle cx="544.5" cy="229.0" r="9.9" fill="#7f8c8d" opacity="0.12" />
  <circle cx="544.5" cy="229.0" r="5.9" fill="#7f8c8d" opacity="0.88" />
  <circle cx="640.2" cy="273.3" r="15.3" fill="#e67e22" opacity="0.12" />
  <circle cx="640.2" cy="273.3" r="11.3" fill="#e67e22" opacity="0.88" />
  <circle cx="577.9" cy="296.1" r="20" fill="#2ecc71" opacity="0.12" />
  <circle cx="577.9" cy="296.1" r="16" fill="#2ecc71" opacity="0.88" />
  <circle cx="828.3" cy="337.6" r="10.8" fill="#9b59b6" opacity="0.12" />
  <circle cx="828.3" cy="337.6" r="6.8" fill="#9b59b6" opacity="0.88" />
  <circle cx="97.3" cy="392.2" r="9" fill="#7f8c8d" opacity="0.12" />
  <circle cx="97.3" cy="392.2" r="5" fill="#7f8c8d" opacity="0.88" />
  <circle cx="565.7" cy="279.1" r="16.2" fill="#3498db" opacity="0.12" />
  <circle cx="565.7" cy="279.1" r="12.2" fill="#3498db" opacity="0.88" />
  <circle cx="544.3" cy="273.1" r="17.1" fill="#7f8c8d" opacity="0.12" />
  <circle cx="544.3" cy="273.1" r="13.1" fill="#7f8c8d" opacity="0.88" />
  <circle cx="542.7" cy="250.1" r="13.5" fill="#7f8c8d" opacity="0.12" />
  <circle cx="542.7" cy="250.1" r="9.5" fill="#7f8c8d" opacity="0.88" />
  <circle cx="50.0" cy="315.0" r="9" fill="#7f8c8d" opacity="0.12" />
  <circle cx="50.0" cy="315.0" r="5" fill="#7f8c8d" opacity="0.88" />
  <circle cx="530.6" cy="253.9" r="11.7" fill="#7f8c8d" opacity="0.12" />
  <circle cx="530.6" cy="253.9" r="7.7" fill="#7f8c8d" opacity="0.88" />
  <circle cx="576.3" cy="271.5" r="13.5" fill="#7f8c8d" opacity="0.12" />
  <circle cx="576.3" cy="271.5" r="9.5" fill="#7f8c8d" opacity="0.88" />
  <circle cx="597.7" cy="272.2" r="19.8" fill="#2ecc71" opacity="0.12" />
  <circle cx="597.7" cy="272.2" r="15.8" fill="#2ecc71" opacity="0.88" />
  <circle cx="559.5" cy="266.2" r="11.7" fill="#7f8c8d" opacity="0.12" />
  <circle cx="559.5" cy="266.2" r="7.7" fill="#7f8c8d" opacity="0.88" />
  <circle cx="710.4" cy="50.0" r="11.7" fill="#7f8c8d" opacity="0.12" />
  <circle cx="710.4" cy="50.0" r="7.7" fill="#7f8c8d" opacity="0.88" />
  <circle cx="439.9" cy="219.5" r="11.7" fill="#3498db" opacity="0.12" />
  <circle cx="439.9" cy="219.5" r="7.7" fill="#3498db" opacity="0.88" />
  <circle cx="527.0" cy="228.7" r="9.9" fill="#7f8c8d" opacity="0.12" />
  <circle cx="527.0" cy="228.7" r="5.9" fill="#7f8c8d" opacity="0.88" />
  <circle cx="623.2" cy="379.0" r="10.8" fill="#e67e22" opacity="0.12" />
  <circle cx="623.2" cy="379.0" r="6.8" fill="#e67e22" opacity="0.88" />
  <circle cx="583.2" cy="374.8" r="10.8" fill="#e67e22" opacity="0.12" />
  <circle cx="583.2" cy="374.8" r="6.8" fill="#e67e22" opacity="0.88" />
  <circle cx="567.8" cy="253.1" r="14.4" fill="#7f8c8d" opacity="0.12" />
  <circle cx="567.8" cy="253.1" r="10.4" fill="#7f8c8d" opacity="0.88" />
  <circle cx="617.5" cy="340.9" r="15.3" fill="#e67e22" opacity="0.12" />
  <circle cx="617.5" cy="340.9" r="11.3" fill="#e67e22" opacity="0.88" />
  <circle cx="727.2" cy="70.1" r="9.9" fill="#7f8c8d" opacity="0.12" />
  <circle cx="727.2" cy="70.1" r="5.9" fill="#7f8c8d" opacity="0.88" />
  <circle cx="612.0" cy="278.6" r="10.8" fill="#7f8c8d" opacity="0.12" />
  <circle cx="612.0" cy="278.6" r="6.8" fill="#7f8c8d" opacity="0.88" />
  <circle cx="591.0" cy="235.8" r="10.8" fill="#7f8c8d" opacity="0.12" />
  <circle cx="591.0" cy="235.8" r="6.8" fill="#7f8c8d" opacity="0.88" />
  <circle cx="650.2" cy="200.8" r="9" fill="#2ecc71" opacity="0.12" />
  <circle cx="650.2" cy="200.8" r="5" fill="#2ecc71" opacity="0.88" />
  <circle cx="656.1" cy="183.4" r="11.7" fill="#2ecc71" opacity="0.12" />
  <circle cx="656.1" cy="183.4" r="7.7" fill="#2ecc71" opacity="0.88" />
  <circle cx="558.5" cy="225.8" r="9.9" fill="#e74c3c" opacity="0.12" />
  <circle cx="558.5" cy="225.8" r="5.9" fill="#e74c3c" opacity="0.88" />
  <circle cx="582.6" cy="199.0" r="14.4" fill="#e74c3c" opacity="0.12" />
  <circle cx="582.6" cy="199.0" r="10.4" fill="#e74c3c" opacity="0.88" />
  <circle cx="525.6" cy="259.8" r="9.9" fill="#7f8c8d" opacity="0.12" />
  <circle cx="525.6" cy="259.8" r="5.9" fill="#7f8c8d" opacity="0.88" />
  <circle cx="856.8" cy="488.2" r="9" fill="#7f8c8d" opacity="0.12" />
  <circle cx="856.8" cy="488.2" r="5" fill="#7f8c8d" opacity="0.88" />
  <rect x="531.5" y="205.2" width="124.4" height="15" fill="#0d1117" opacity="0.75" rx="2" />
  <text x="532.5" y="216.2" font-family="system-ui, -apple-system, sans-serif" font-size="12" fill="#e6edf3" text-anchor="start">tinyland-huskycat</text>
  <rect x="515.1" y="291.8" width="45.2" height="15" fill="#0d1117" opacity="0.75" rx="2" />
  <text x="516.1" y="302.8" font-family="system-ui, -apple-system, sans-serif" font-size="12" fill="#e6edf3" text-anchor="start">XoxdWM</text>
  <rect x="494.0" y="219.2" width="74.0" height="15" fill="#0d1117" opacity="0.75" rx="2" />
  <text x="495.0" y="230.2" font-family="system-ui, -apple-system, sans-serif" font-size="12" fill="#e6edf3" text-anchor="start">tummycrypt</text>
  <rect x="497.2" y="249.1" width="110.0" height="15" fill="#0d1117" opacity="0.75" rx="2" />
  <text x="498.2" y="260.1" font-family="system-ui, -apple-system, sans-serif" font-size="12" fill="#e6edf3" text-anchor="start">hiberpower-ntfs</text>
  <rect x="577.1" y="326.4" width="117.2" height="15" fill="#0d1117" opacity="0.75" rx="2" />
  <text x="578.1" y="337.4" font-family="system-ui, -apple-system, sans-serif" font-size="12" fill="#e6edf3" text-anchor="start">GloriousFlywheel</text>
  <rect x="460.4" y="299.7" width="16.4" height="15" fill="#0d1117" opacity="0.75" rx="2" />
  <text x="461.4" y="310.7" font-family="system-ui, -apple-system, sans-serif" font-size="12" fill="#e6edf3" text-anchor="start">pp</text>
  <rect x="381.5" y="366.7" width="117.2" height="15" fill="#0d1117" opacity="0.75" rx="2" />
  <text x="382.5" y="377.7" font-family="system-ui, -apple-system, sans-serif" font-size="12" fill="#e6edf3" text-anchor="start">tinyland-cleanup</text>
  <rect x="524.1" y="417.7" width="59.6" height="15" fill="#0d1117" opacity="0.75" rx="2" />
  <text x="525.1" y="428.7" font-family="system-ui, -apple-system, sans-serif" font-size="12" fill="#e6edf3" text-anchor="start">gnucashr</text>
  <rect x="513.4" y="234.2" width="66.8" height="15" fill="#0d1117" opacity="0.75" rx="2" />
  <text x="514.4" y="245.2" font-family="system-ui, -apple-system, sans-serif" font-size="12" fill="#e6edf3" text-anchor="start">betterkvm</text>
  <rect x="412.5" y="334.3" width="131.6" height="15" fill="#0d1117" opacity="0.75" rx="2" />
  <text x="413.5" y="345.3" font-family="system-ui, -apple-system, sans-serif" font-size="12" fill="#e6edf3" text-anchor="start">aperture-bootstrap</text>
  <rect x="486.4" y="322.7" width="81.2" height="15" fill="#0d1117" opacity="0.75" rx="2" />
  <text x="487.4" y="333.7" font-family="system-ui, -apple-system, sans-serif" font-size="12" fill="#e6edf3" text-anchor="start">tailnet-acl</text>
  <rect x="404.2" y="349.7" width="88.4" height="15" fill="#0d1117" opacity="0.75" rx="2" />
  <text x="405.2" y="360.7" font-family="system-ui, -apple-system, sans-serif" font-size="12" fill="#e6edf3" text-anchor="start">waifu-mirror</text>
  <rect x="517.5" y="402.7" width="102.8" height="15" fill="#0d1117" opacity="0.75" rx="2" />
  <text x="518.5" y="413.7" font-family="system-ui, -apple-system, sans-serif" font-size="12" fill="#e6edf3" text-anchor="start">tinyland-infra</text>
  <rect x="565.0" y="308.4" width="52.4" height="15" fill="#0d1117" opacity="0.75" rx="2" />
  <text x="566.0" y="319.4" font-family="system-ui, -apple-system, sans-serif" font-size="12" fill="#e6edf3" text-anchor="start">LA-Mesh</text>
  <rect x="622.7" y="290.5" width="131.6" height="15" fill="#0d1117" opacity="0.75" rx="2" />
  <text x="623.7" y="301.5" font-family="system-ui, -apple-system, sans-serif" font-size="12" fill="#e6edf3" text-anchor="start">pixelwise-research</text>
  <rect x="657.8" y="207.6" width="95.6" height="15" fill="#0d1117" opacity="0.75" rx="2" />
  <text x="658.8" y="218.6" font-family="system-ui, -apple-system, sans-serif" font-size="12" fill="#e6edf3" text-anchor="start">GIS_Shortcuts</text>
  <rect x="528.0" y="373.0" width="138.8" height="15" fill="#0d1117" opacity="0.75" rx="2" />
  <text x="529.0" y="384.0" font-family="system-ui, -apple-system, sans-serif" font-size="12" fill="#e6edf3" text-anchor="start">Ansible-DAG-Harness</text>
  <rect x="498.5" y="277.3" width="95.6" height="15" fill="#0d1117" opacity="0.75" rx="2" />
  <text x="499.5" y="288.3" font-family="system-ui, -apple-system, sans-serif" font-size="12" fill="#e6edf3" text-anchor="start">DarwinNicUtil</text>
  <rect x="627.5" y="143.1" width="66.8" height="15" fill="#0d1117" opacity="0.75" rx="2" />
  <text x="628.5" y="154.1" font-family="system-ui, -apple-system, sans-serif" font-size="12" fill="#e6edf3" text-anchor="start">quickchpl</text>
  <rect x="764.2" y="111.4" width="131.6" height="15" fill="#0d1117" opacity="0.75" rx="2" />
  <text x="894.8" y="122.4" font-family="system-ui, -apple-system, sans-serif" font-size="12" fill="#e6edf3" text-anchor="end">tinyscale-mikrotik</text>
  <rect x="597.3" y="210.2" width="59.6" height="15" fill="#0d1117" opacity="0.75" rx="2" />
  <text x="598.3" y="221.2" font-family="system-ui, -apple-system, sans-serif" font-size="12" fill="#e6edf3" text-anchor="start">aoc-2025</text>
  <rect x="249.9" y="483.9" width="66.8" height="15" fill="#0d1117" opacity="0.75" rx="2" />
  <text x="250.9" y="494.9" font-family="system-ui, -apple-system, sans-serif" font-size="12" fill="#e6edf3" text-anchor="start">searchies</text>
  <rect x="275.7" y="500.9" width="59.6" height="15" fill="#0d1117" opacity="0.75" rx="2" />
  <text x="276.7" y="511.9" font-family="system-ui, -apple-system, sans-serif" font-size="12" fill="#e6edf3" text-anchor="start">ts-caddy</text>
  <rect x="760.3" y="313.7" width="66.8" height="15" fill="#0d1117" opacity="0.75" rx="2" />
  <text x="761.3" y="324.7" font-family="system-ui, -apple-system, sans-serif" font-size="12" fill="#e6edf3" text-anchor="start">HCI-notes</text>
  <rect x="634.2" y="297.3" width="88.4" height="15" fill="#0d1117" opacity="0.75" rx="2" />
  <text x="635.2" y="308.3" font-family="system-ui, -apple-system, sans-serif" font-size="12" fill="#e6edf3" text-anchor="start">FastPhotoAPI</text>
  <rect x="606.7" y="182.3" width="81.2" height="15" fill="#0d1117" opacity="0.75" rx="2" />
  <text x="607.7" y="193.3" font-family="system-ui, -apple-system, sans-serif" font-size="12" fill="#e6edf3" text-anchor="start">timberbuddy</text>
  <rect x="627.6" y="221.5" width="81.2" height="15" fill="#0d1117" opacity="0.75" rx="2" />
  <text x="628.6" y="232.5" font-family="system-ui, -apple-system, sans-serif" font-size="12" fill="#e6edf3" text-anchor="start">tetrahedron</text>
  <rect x="552.5" y="364.3" width="95.6" height="15" fill="#0d1117" opacity="0.75" rx="2" />
  <text x="553.5" y="375.3" font-family="system-ui, -apple-system, sans-serif" font-size="12" fill="#e6edf3" text-anchor="start">AccuWixReport</text>
  <rect x="552.4" y="124.0" width="95.6" height="15" fill="#0d1117" opacity="0.75" rx="2" />
  <text x="553.4" y="135.0" font-family="system-ui, -apple-system, sans-serif" font-size="12" fill="#e6edf3" text-anchor="start">Jess-AOC-2023</text>
  <rect x="653.5" y="236.8" width="81.2" height="15" fill="#0d1117" opacity="0.75" rx="2" />
  <text x="654.5" y="247.8" font-family="system-ui, -apple-system, sans-serif" font-size="12" fill="#e6edf3" text-anchor="start">TurkeyProbe</text>
  <rect x="595.9" y="334.5" width="153.2" height="15" fill="#0d1117" opacity="0.75" rx="2" />
  <text x="596.9" y="345.5" font-family="system-ui, -apple-system, sans-serif" font-size="12" fill="#e6edf3" text-anchor="start">MerlinAI-Interpreters</text>
  <rect x="709.5" y="353.5" width="110.0" height="15" fill="#0d1117" opacity="0.75" rx="2" />
  <text x="818.5" y="364.5" font-family="system-ui, -apple-system, sans-serif" font-size="12" fill="#e6edf3" text-anchor="end">IntroTypeScript</text>
  <rect x="104.3" y="385.4" width="110.0" height="15" fill="#0d1117" opacity="0.75" rx="2" />
  <text x="105.3" y="396.4" font-family="system-ui, -apple-system, sans-serif" font-size="12" fill="#e6edf3" text-anchor="start">IG-3DP-Profiles</text>
  <rect x="579.9" y="238.5" width="66.8" height="15" fill="#0d1117" opacity="0.75" rx="2" />
  <text x="580.9" y="249.5" font-family="system-ui, -apple-system, sans-serif" font-size="12" fill="#e6edf3" text-anchor="start">DLA-Flask</text>
  <rect x="559.4" y="337.2" width="38.0" height="15" fill="#0d1117" opacity="0.75" rx="2" />
  <text x="560.4" y="348.2" font-family="system-ui, -apple-system, sans-serif" font-size="12" fill="#e6edf3" text-anchor="start">USBoN</text>
  <rect x="554.2" y="390.0" width="203.6" height="15" fill="#0d1117" opacity="0.75" rx="2" />
  <text x="555.2" y="401.0" font-family="system-ui, -apple-system, sans-serif" font-size="12" fill="#e6edf3" text-anchor="start">chrome-remote-desktop-budgie</text>
  <rect x="57.0" y="308.2" width="124.4" height="15" fill="#0d1117" opacity="0.75" rx="2" />
  <text x="58.0" y="319.2" font-family="system-ui, -apple-system, sans-serif" font-size="12" fill="#e6edf3" text-anchor="start">OminousBeepingApp</text>
  <rect x="540.3" y="194.2" width="138.8" height="15" fill="#0d1117" opacity="0.75" rx="2" />
  <text x="541.3" y="205.2" font-family="system-ui, -apple-system, sans-serif" font-size="12" fill="#e6edf3" text-anchor="start">mo-image-identifier</text>
  <rect x="587.8" y="261.7" width="196.4" height="15" fill="#0d1117" opacity="0.75" rx="2" />
  <text x="588.8" y="272.7" font-family="system-ui, -apple-system, sans-serif" font-size="12" fill="#e6edf3" text-anchor="start">squirrel-leaflet-annotation</text>
  <rect x="615.5" y="250.0" width="74.0" height="15" fill="#0d1117" opacity="0.75" rx="2" />
  <text x="616.5" y="261.0" font-family="system-ui, -apple-system, sans-serif" font-size="12" fill="#e6edf3" text-anchor="start">Shiny-Apps</text>
  <rect x="569.2" y="351.5" width="138.8" height="15" fill="#0d1117" opacity="0.75" rx="2" />
  <text x="570.2" y="362.5" font-family="system-ui, -apple-system, sans-serif" font-size="12" fill="#e6edf3" text-anchor="start">bbox-jest-puppeteer</text>
  <rect x="720.1" y="43.2" width="88.4" height="15" fill="#0d1117" opacity="0.75" rx="2" />
  <text x="721.1" y="54.2" font-family="system-ui, -apple-system, sans-serif" font-size="12" fill="#e6edf3" text-anchor="start">DoverDisplay</text>
  <rect x="449.6" y="204.6" width="81.2" height="15" fill="#0d1117" opacity="0.75" rx="2" />
  <text x="450.6" y="215.6" font-family="system-ui, -apple-system, sans-serif" font-size="12" fill="#e6edf3" text-anchor="start">LeafletSync</text>
  <rect x="534.9" y="155.5" width="167.6" height="15" fill="#0d1117" opacity="0.75" rx="2" />
  <text x="535.9" y="166.5" font-family="system-ui, -apple-system, sans-serif" font-size="12" fill="#e6edf3" text-anchor="start">misc-roi-distance-notes</text>
  <rect x="632.0" y="419.7" width="138.8" height="15" fill="#0d1117" opacity="0.75" rx="2" />
  <text x="633.0" y="430.7" font-family="system-ui, -apple-system, sans-serif" font-size="12" fill="#e6edf3" text-anchor="start">Arduino_Coil_Winder</text>
  <rect x="592.0" y="417.9" width="30.8" height="15" fill="#0d1117" opacity="0.75" rx="2" />
  <text x="593.0" y="428.9" font-family="system-ui, -apple-system, sans-serif" font-size="12" fill="#e6edf3" text-anchor="start">momo</text>
  <rect x="580.2" y="294.3" width="38.0" height="15" fill="#0d1117" opacity="0.75" rx="2" />
  <text x="581.2" y="305.3" font-family="system-ui, -apple-system, sans-serif" font-size="12" fill="#e6edf3" text-anchor="start">clipi</text>
  <rect x="630.8" y="404.7" width="110.0" height="15" fill="#0d1117" opacity="0.75" rx="2" />
  <text x="631.8" y="415.7" font-family="system-ui, -apple-system, sans-serif" font-size="12" fill="#e6edf3" text-anchor="start">AeroTaz5_hotfix</text>
  <rect x="735.1" y="63.3" width="110.0" height="15" fill="#0d1117" opacity="0.75" rx="2" />
  <text x="736.1" y="74.3" font-family="system-ui, -apple-system, sans-serif" font-size="12" fill="#e6edf3" text-anchor="start">Funmat-HT-Notes</text>
  <rect x="620.8" y="314.3" width="81.2" height="15" fill="#0d1117" opacity="0.75" rx="2" />
  <text x="621.8" y="325.3" font-family="system-ui, -apple-system, sans-serif" font-size="12" fill="#e6edf3" text-anchor="start">static-site</text>
  <rect x="599.8" y="278.7" width="95.6" height="15" fill="#0d1117" opacity="0.75" rx="2" />
  <text x="600.8" y="289.7" font-family="system-ui, -apple-system, sans-serif" font-size="12" fill="#e6edf3" text-anchor="start">Flask-Manager</text>
  <rect x="657.2" y="128.4" width="110.0" height="15" fill="#0d1117" opacity="0.75" rx="2" />
  <text x="658.2" y="139.4" font-family="system-ui, -apple-system, sans-serif" font-size="12" fill="#e6edf3" text-anchor="start">FieldProcessing</text>
  <rect x="665.8" y="97.3" width="81.2" height="15" fill="#0d1117" opacity="0.75" rx="2" />
  <text x="666.8" y="108.3" font-family="system-ui, -apple-system, sans-serif" font-size="12" fill="#e6edf3" text-anchor="start">rJDKmanager</text>
  <rect x="566.4" y="170.1" width="59.6" height="15" fill="#0d1117" opacity="0.75" rx="2" />
  <text x="567.4" y="181.1" font-family="system-ui, -apple-system, sans-serif" font-size="12" fill="#e6edf3" text-anchor="start">tagnotes</text>
  <rect x="595.0" y="111.9" width="81.2" height="15" fill="#0d1117" opacity="0.75" rx="2" />
  <text x="596.0" y="122.9" font-family="system-ui, -apple-system, sans-serif" font-size="12" fill="#e6edf3" text-anchor="start">ChapelTests</text>
  <rect x="533.5" y="138.5" width="88.4" height="15" fill="#0d1117" opacity="0.75" rx="2" />
  <text x="534.5" y="149.5" font-family="system-ui, -apple-system, sans-serif" font-size="12" fill="#e6edf3" text-anchor="start">Xfinity-WiFi</text>
  <rect x="783.0" y="481.4" width="66.8" height="15" fill="#0d1117" opacity="0.75" rx="2" />
  <text x="848.8" y="492.4" font-family="system-ui, -apple-system, sans-serif" font-size="12" fill="#e6edf3" text-anchor="end">home-wiki</text>
  <rect x="793" y="36" width="155" height="120" rx="6" fill="#161b22" stroke="#30363d" stroke-width="1" opacity="0.95" />
  <circle cx="810" cy="52" r="5" fill="#e74c3c" opacity="0.88" />
  <text x="820" y="56" font-family="system-ui, -apple-system, sans-serif" font-size="10" fill="#e6edf3">Languages &amp; Compilers</text>
  <circle cx="810" cy="69" r="5" fill="#3498db" opacity="0.88" />
  <text x="820" y="73" font-family="system-ui, -apple-system, sans-serif" font-size="10" fill="#e6edf3">Infrastructure &amp; DevOps</text>
  <circle cx="810" cy="86" r="5" fill="#e67e22" opacity="0.88" />
  <text x="820" y="90" font-family="system-ui, -apple-system, sans-serif" font-size="10" fill="#e6edf3">Hardware &amp; Maker</text>
  <circle cx="810" cy="103" r="5" fill="#2ecc71" opacity="0.88" />
  <text x="820" y="107" font-family="system-ui, -apple-system, sans-serif" font-size="10" fill="#e6edf3">ML &amp; Data</text>
  <circle cx="810" cy="120" r="5" fill="#9b59b6" opacity="0.88" />
  <text x="820" y="124" font-family="system-ui, -apple-system, sans-serif" font-size="10" fill="#e6edf3">Web &amp; Apps</text>
  <circle cx="810" cy="137" r="5" fill="#7f8c8d" opacity="0.88" />
  <text x="820" y="141" font-family="system-ui, -apple-system, sans-serif" font-size="10" fill="#e6edf3">Other</text>
  <text x="870" y="150" font-family="system-ui, -apple-system, sans-serif" font-size="8" fill="#8b949e" text-anchor="middle">57 repos · 222 edges</text>
</svg>