<svg xmlns="http://www.w3.org/2000/svg" width="960" height="600" viewBox="0 0 960 600">
  <rect width="960" height="600" fill="#ffffff" rx="8" />
  <text x="480" y="24" font-family="system-ui, -apple-system, sans-serif" font-size="13" fill="#656d76" text-anchor="middle" font-weight="500">Repo Relationship Graph &#x2014; Pairwise Topic &amp; Language Similarity</text>
  <line x1="50" y1="550" x2="910" y2="550" stroke="#d0d7de" stroke-width="0.5" opacity="0.5" />
  <text x="50" y="570" font-family="system-ui, -apple-system, sans-serif" font-size="9" fill="#656d76" opacity="0.6">Updated daily by GitHub Actions</text>
  <text x="50" y="588" font-family="system-ui, -apple-system, sans-serif" font-size="9" fill="#656d76" opacity="0.6">networkx spring_layout · Jaccard similarity &gt; 0.15</text>
  <text x="910" y="570" font-family="system-ui, -apple-system, sans-serif" font-size="9" fill="#656d76" text-anchor="end" opacity="0.6">57 repos · 238 edges</text>
  <line x1="584.4" y1="298.2" x2="565.0" y2="282.7" stroke="#bcc3cd" stroke-width="2.0" opacity="0.80" />
  <line x1="584.4" y1="298.2" x2="614.6" y2="320.1" stroke="#bcc3cd" stroke-width="1.1" opacity="0.31" />
  <line x1="584.4" y1="298.2" x2="587.9" y2="256.0" stroke="#bcc3cd" stroke-width="0.9" opacity="0.17" />
  <line x1="584.4" y1="298.2" x2="514.3" y2="279.0" stroke="#bcc3cd" stroke-width="1.1" opacity="0.28" />
  <line x1="584.4" y1="298.2" x2="570.8" y2="273.4" stroke="#bcc3cd" stroke-width="1.2" opacity="0.37" />
  <line x1="565.0" y1="282.7" x2="594.9" y2="269.1" stroke="#bcc3cd" stroke-width="1.0" opacity="0.22" />
  <line x1="565.0" y1="282.7" x2="614.6" y2="320.1" stroke="#bcc3cd" stroke-width="1.1" opacity="0.28" />
  <line x1="565.0" y1="282.7" x2="587.9" y2="256.0" stroke="#bcc3cd" stroke-width="1.0" opacity="0.25" />
  <line x1="565.0" y1="282.7" x2="545.4" y2="236.9" stroke="#bcc3cd" stroke-width="0.9" opacity="0.21" />
  <line x1="565.0" y1="282.7" x2="530.9" y2="253.0" stroke="#bcc3cd" stroke-width="0.9" opacity="0.20" />
  <line x1="565.0" y1="282.7" x2="552.3" y2="255.9" stroke="#bcc3cd" stroke-width="1.0" opacity="0.24" />
  <line x1="565.0" y1="282.7" x2="514.3" y2="279.0" stroke="#bcc3cd" stroke-width="1.0" opacity="0.22" />
  <line x1="565.0" y1="282.7" x2="513.8" y2="260.8" stroke="#bcc3cd" stroke-width="0.9" opacity="0.17" />
  <line x1="565.0" y1="282.7" x2="536.5" y2="264.0" stroke="#bcc3cd" stroke-width="0.9" opacity="0.20" />
  <line x1="565.0" y1="282.7" x2="533.4" y2="274.2" stroke="#bcc3cd" stroke-width="0.9" opacity="0.17" />
  <line x1="565.0" y1="282.7" x2="570.8" y2="273.4" stroke="#bcc3cd" stroke-width="1.5" opacity="0.55" />
  <line x1="565.0" y1="282.7" x2="490.3" y2="263.2" stroke="#bcc3cd" stroke-width="1.0" opacity="0.22" />
  <line x1="594.9" y1="269.1" x2="545.4" y2="236.9" stroke="#bcc3cd" stroke-width="0.9" opacity="0.18" />
  <line x1="594.9" y1="269.1" x2="530.9" y2="253.0" stroke="#bcc3cd" stroke-width="1.0" opacity="0.23" />
  <line x1="594.9" y1="269.1" x2="552.3" y2="255.9" stroke="#bcc3cd" stroke-width="0.9" opacity="0.20" />
  <line x1="594.9" y1="269.1" x2="536.5" y2="264.0" stroke="#bcc3cd" stroke-width="0.9" opacity="0.18" />
  <line x1="578.4" y1="170.6" x2="589.6" y2="152.8" stroke="#bcc3cd" stroke-width="1.5" opacity="0.55" />
  <line x1="578.4" y1="170.6" x2="531.7" y2="204.1" stroke="#bcc3cd" stroke-width="1.0" opacity="0.22" />
  <line x1="578.4" y1="170.6" x2="634.5" y2="149.4" stroke="#bcc3cd" stroke-width="1.2" opacity="0.37" />
  <line x1="578.4" y1="170.6" x2="505.3" y2="232.3" stroke="#bcc3cd" stroke-width="0.9" opacity="0.18" />
  <line x1="587.9" y1="256.0" x2="579.4" y2="223.1" stroke="#bcc3cd" stroke-width="1.2" opacity="0.38" />
  <line x1="587.9" y1="256.0" x2="545.4" y2="236.9" stroke="#bcc3cd" stroke-width="0.9" opacity="0.19" />
  <line x1="587.9" y1="256.0" x2="530.9" y2="253.0" stroke="#bcc3cd" stroke-width="0.9" opacity="0.18" />
  <line x1="587.9" y1="256.0" x2="552.3" y2="255.9" stroke="#bcc3cd" stroke-width="0.9" opacity="0.21" />
  <line x1="587.9" y1="256.0" x2="536.5" y2="264.0" stroke="#bcc3cd" stroke-width="0.9" opacity="0.18" />
  <line x1="587.9" y1="256.0" x2="570.8" y2="273.4" stroke="#bcc3cd" stroke-width="1.0" opacity="0.24" />
  <line x1="579.4" y1="223.1" x2="545.4" y2="236.9" stroke="#bcc3cd" stroke-width="1.2" opacity="0.34" />
  <line x1="579.4" y1="223.1" x2="530.9" y2="253.0" stroke="#bcc3cd" stroke-width="0.9" opacity="0.18" />
  <line x1="579.4" y1="223.1" x2="564.7" y2="201.8" stroke="#bcc3cd" stroke-width="1.0" opacity="0.25" />
  <line x1="579.4" y1="223.1" x2="513.3" y2="220.8" stroke="#bcc3cd" stroke-width="0.9" opacity="0.20" />
  <line x1="579.4" y1="223.1" x2="531.7" y2="204.1" stroke="#bcc3cd" stroke-width="1.0" opacity="0.22" />
  <line x1="545.4" y1="236.9" x2="530.9" y2="253.0" stroke="#bcc3cd" stroke-width="1.1" opacity="0.29" />
  <line x1="545.4" y1="236.9" x2="564.7" y2="201.8" stroke="#bcc3cd" stroke-width="1.2" opacity="0.34" />
  <line x1="545.4" y1="236.9" x2="552.3" y2="255.9" stroke="#bcc3cd" stroke-width="1.1" opacity="0.30" />
  <line x1="545.4" y1="236.9" x2="513.8" y2="260.8" stroke="#bcc3cd" stroke-width="0.9" opacity="0.20" />
  <line x1="545.4" y1="236.9" x2="536.5" y2="264.0" stroke="#bcc3cd" stroke-width="1.0" opacity="0.22" />
  <line x1="545.4" y1="236.9" x2="533.4" y2="274.2" stroke="#bcc3cd" stroke-width="0.9" opacity="0.20" />
  <line x1="545.4" y1="236.9" x2="570.8" y2="273.4" stroke="#bcc3cd" stroke-width="0.9" opacity="0.19" />
  <line x1="545.4" y1="236.9" x2="513.3" y2="220.8" stroke="#bcc3cd" stroke-width="1.2" opacity="0.37" />
  <line x1="545.4" y1="236.9" x2="531.7" y2="204.1" stroke="#bcc3cd" stroke-width="1.2" opacity="0.37" />
  <line x1="545.4" y1="236.9" x2="534.5" y2="221.1" stroke="#bcc3cd" stroke-width="1.1" opacity="0.29" />
  <line x1="545.4" y1="236.9" x2="488.8" y2="230.3" stroke="#bcc3cd" stroke-width="1.0" opacity="0.22" />
  <line x1="545.4" y1="236.9" x2="505.3" y2="232.3" stroke="#bcc3cd" stroke-width="1.2" opacity="0.34" />
  <line x1="545.4" y1="236.9" x2="496.6" y2="220.2" stroke="#bcc3cd" stroke-width="1.0" opacity="0.24" />
  <line x1="545.4" y1="236.9" x2="493.6" y2="243.7" stroke="#bcc3cd" stroke-width="1.1" opacity="0.29" />
  <line x1="545.4" y1="236.9" x2="512.6" y2="210.4" stroke="#bcc3cd" stroke-width="1.0" opacity="0.22" />
  <line x1="530.9" y1="253.0" x2="552.3" y2="255.9" stroke="#bcc3cd" stroke-width="1.0" opacity="0.24" />
  <line x1="530.9" y1="253.0" x2="514.3" y2="279.0" stroke="#bcc3cd" stroke-width="1.0" opacity="0.24" />
  <line x1="530.9" y1="253.0" x2="439.1" y2="254.5" stroke="#bcc3cd" stroke-width="0.9" opacity="0.21" />
  <line x1="530.9" y1="253.0" x2="513.8" y2="260.8" stroke="#bcc3cd" stroke-width="1.1" opacity="0.28" />
  <line x1="530.9" y1="253.0" x2="536.5" y2="264.0" stroke="#bcc3cd" stroke-width="1.1" opacity="0.31" />
  <line x1="530.9" y1="253.0" x2="533.4" y2="274.2" stroke="#bcc3cd" stroke-width="1.1" opacity="0.28" />
  <line x1="530.9" y1="253.0" x2="570.8" y2="273.4" stroke="#bcc3cd" stroke-width="0.9" opacity="0.18" />
  <line x1="530.9" y1="253.0" x2="513.3" y2="220.8" stroke="#bcc3cd" stroke-width="0.9" opacity="0.17" />
  <line x1="530.9" y1="253.0" x2="464.0" y2="253.8" stroke="#bcc3cd" stroke-width="0.9" opacity="0.17" />
  <line x1="530.9" y1="253.0" x2="477.4" y2="260.0" stroke="#bcc3cd" stroke-width="0.9" opacity="0.20" />
  <line x1="530.9" y1="253.0" x2="505.3" y2="232.3" stroke="#bcc3cd" stroke-width="0.9" opacity="0.17" />
  <line x1="530.9" y1="253.0" x2="496.6" y2="220.2" stroke="#bcc3cd" stroke-width="0.9" opacity="0.17" />
  <line x1="530.9" y1="253.0" x2="493.6" y2="243.7" stroke="#bcc3cd" stroke-width="1.1" opacity="0.33" />
  <line x1="530.9" y1="253.0" x2="490.3" y2="263.2" stroke="#bcc3cd" stroke-width="1.0" opacity="0.24" />
  <line x1="564.7" y1="201.8" x2="513.3" y2="220.8" stroke="#bcc3cd" stroke-width="1.0" opacity="0.25" />
  <line x1="564.7" y1="201.8" x2="531.7" y2="204.1" stroke="#bcc3cd" stroke-width="1.1" opacity="0.29" />
  <line x1="564.7" y1="201.8" x2="512.6" y2="210.4" stroke="#bcc3cd" stroke-width="0.9" opacity="0.17" />
  <line x1="552.3" y1="255.9" x2="514.3" y2="279.0" stroke="#bcc3cd" stroke-width="0.9" opacity="0.17" />
  <line x1="552.3" y1="255.9" x2="513.8" y2="260.8" stroke="#bcc3cd" stroke-width="1.0" opacity="0.22" />
  <line x1="552.3" y1="255.9" x2="536.5" y2="264.0" stroke="#bcc3cd" stroke-width="1.0" opacity="0.24" />
  <line x1="552.3" y1="255.9" x2="533.4" y2="274.2" stroke="#bcc3cd" stroke-width="1.0" opacity="0.22" />
  <line x1="552.3" y1="255.9" x2="570.8" y2="273.4" stroke="#bcc3cd" stroke-width="1.0" opacity="0.22" />
  <line x1="552.3" y1="255.9" x2="534.5" y2="221.1" stroke="#bcc3cd" stroke-width="0.9" opacity="0.19" />
  <line x1="552.3" y1="255.9" x2="505.3" y2="232.3" stroke="#bcc3cd" stroke-width="0.9" opacity="0.21" />
  <line x1="552.3" y1="255.9" x2="493.6" y2="243.7" stroke="#bcc3cd" stroke-width="1.0" opacity="0.24" />
  <line x1="552.3" y1="255.9" x2="490.3" y2="263.2" stroke="#bcc3cd" stroke-width="0.9" opacity="0.17" />
  <line x1="478.9" y1="197.9" x2="513.3" y2="220.8" stroke="#bcc3cd" stroke-width="0.9" opacity="0.18" />
  <line x1="478.9" y1="197.9" x2="531.7" y2="204.1" stroke="#bcc3cd" stroke-width="0.9" opacity="0.18" />
  <line x1="478.9" y1="197.9" x2="505.3" y2="232.3" stroke="#bcc3cd" stroke-width="0.9" opacity="0.17" />
  <line x1="478.9" y1="197.9" x2="496.6" y2="220.2" stroke="#bcc3cd" stroke-width="1.3" opacity="0.42" />
  <line x1="478.9" y1="197.9" x2="493.6" y2="243.7" stroke="#bcc3cd" stroke-width="0.9" opacity="0.19" />
  <line x1="478.9" y1="197.9" x2="512.6" y2="210.4" stroke="#bcc3cd" stroke-width="0.9" opacity="0.21" />
  <line x1="514.3" y1="279.0" x2="513.8" y2="260.8" stroke="#bcc3cd" stroke-width="0.9" opacity="0.20" />
  <line x1="514.3" y1="279.0" x2="536.5" y2="264.0" stroke="#bcc3cd" stroke-width="1.0" opacity="0.24" />
  <line x1="514.3" y1="279.0" x2="533.4" y2="274.2" stroke="#bcc3cd" stroke-width="0.9" opacity="0.20" />
  <line x1="514.3" y1="279.0" x2="570.8" y2="273.4" stroke="#bcc3cd" stroke-width="0.9" opacity="0.18" />
  <line x1="514.3" y1="279.0" x2="482.2" y2="271.8" stroke="#bcc3cd" stroke-width="1.5" opacity="0.55" />
  <line x1="514.3" y1="279.0" x2="472.1" y2="281.0" stroke="#bcc3cd" stroke-width="1.2" opacity="0.37" />
  <line x1="514.3" y1="279.0" x2="477.4" y2="260.0" stroke="#bcc3cd" stroke-width="1.0" opacity="0.22" />
  <line x1="514.3" y1="279.0" x2="493.6" y2="243.7" stroke="#bcc3cd" stroke-width="1.0" opacity="0.22" />
  <line x1="514.3" y1="279.0" x2="487.8" y2="283.8" stroke="#bcc3cd" stroke-width="1.2" opacity="0.37" />
  <line x1="514.3" y1="279.0" x2="519.3" y2="252.5" stroke="#bcc3cd" stroke-width="1.1" opacity="0.28" />
  <line x1="514.3" y1="279.0" x2="456.8" y2="278.2" stroke="#bcc3cd" stroke-width="1.2" opacity="0.37" />
  <line x1="514.3" y1="279.0" x2="490.3" y2="263.2" stroke="#bcc3cd" stroke-width="1.2" opacity="0.37" />
  <line x1="439.1" y1="254.5" x2="477.4" y2="260.0" stroke="#bcc3cd" stroke-width="0.9" opacity="0.18" />
  <line x1="439.1" y1="254.5" x2="493.6" y2="243.7" stroke="#bcc3cd" stroke-width="1.1" opacity="0.30" />
  <line x1="439.1" y1="254.5" x2="490.3" y2="263.2" stroke="#bcc3cd" stroke-width="1.0" opacity="0.22" />
  <line x1="513.8" y1="260.8" x2="536.5" y2="264.0" stroke="#bcc3cd" stroke-width="1.1" opacity="0.28" />
  <line x1="513.8" y1="260.8" x2="533.4" y2="274.2" stroke="#bcc3cd" stroke-width="1.0" opacity="0.24" />
  <line x1="513.8" y1="260.8" x2="488.8" y2="230.3" stroke="#bcc3cd" stroke-width="0.9" opacity="0.19" />
  <line x1="513.8" y1="260.8" x2="459.5" y2="231.4" stroke="#bcc3cd" stroke-width="0.9" opacity="0.18" />
  <line x1="513.8" y1="260.8" x2="477.4" y2="260.0" stroke="#bcc3cd" stroke-width="0.9" opacity="0.17" />
  <line x1="513.8" y1="260.8" x2="493.6" y2="243.7" stroke="#bcc3cd" stroke-width="0.9" opacity="0.17" />
  <line x1="513.8" y1="260.8" x2="490.3" y2="263.2" stroke="#bcc3cd" stroke-width="0.9" opacity="0.20" />
  <line x1="536.5" y1="264.0" x2="533.4" y2="274.2" stroke="#bcc3cd" stroke-width="1.1" opacity="0.28" />
  <line x1="536.5" y1="264.0" x2="570.8" y2="273.4" stroke="#bcc3cd" stroke-width="0.9" opacity="0.18" />
  <line x1="536.5" y1="264.0" x2="464.0" y2="253.8" stroke="#bcc3cd" stroke-width="0.9" opacity="0.17" />
  <line x1="536.5" y1="264.0" x2="477.4" y2="260.0" stroke="#bcc3cd" stroke-width="0.9" opacity="0.20" />
  <line x1="536.5" y1="264.0" x2="505.3" y2="232.3" stroke="#bcc3cd" stroke-width="0.9" opacity="0.17" />
  <line x1="536.5" y1="264.0" x2="493.6" y2="243.7" stroke="#bcc3cd" stroke-width="0.9" opacity="0.20" />
  <line x1="536.5" y1="264.0" x2="490.3" y2="263.2" stroke="#bcc3cd" stroke-width="1.0" opacity="0.24" />
  <line x1="533.4" y1="274.2" x2="477.4" y2="260.0" stroke="#bcc3cd" stroke-width="0.9" opacity="0.17" />
  <line x1="533.4" y1="274.2" x2="493.6" y2="243.7" stroke="#bcc3cd" stroke-width="0.9" opacity="0.17" />
  <line x1="533.4" y1="274.2" x2="490.3" y2="263.2" stroke="#bcc3cd" stroke-width="0.9" opacity="0.20" />
  <line x1="570.8" y1="273.4" x2="610.5" y2="256.0" stroke="#bcc3cd" stroke-width="1.0" opacity="0.22" />
  <line x1="570.8" y1="273.4" x2="490.3" y2="263.2" stroke="#bcc3cd" stroke-width="0.9" opacity="0.18" />
  <line x1="360.9" y1="298.7" x2="430.1" y2="283.4" stroke="#bcc3cd" stroke-width="1.3" opacity="0.44" />
  <line x1="360.9" y1="298.7" x2="387.2" y2="295.0" stroke="#bcc3cd" stroke-width="0.9" opacity="0.18" />
  <line x1="430.1" y1="283.4" x2="472.1" y2="281.0" stroke="#bcc3cd" stroke-width="1.1" opacity="0.31" />
  <line x1="430.1" y1="283.4" x2="464.0" y2="253.8" stroke="#bcc3cd" stroke-width="0.9" opacity="0.20" />
  <line x1="430.1" y1="283.4" x2="477.4" y2="260.0" stroke="#bcc3cd" stroke-width="1.0" opacity="0.24" />
  <line x1="430.1" y1="283.4" x2="505.3" y2="232.3" stroke="#bcc3cd" stroke-width="0.9" opacity="0.20" />
  <line x1="430.1" y1="283.4" x2="493.6" y2="243.7" stroke="#bcc3cd" stroke-width="1.0" opacity="0.24" />
  <line x1="430.1" y1="283.4" x2="446.7" y2="242.8" stroke="#bcc3cd" stroke-width="0.9" opacity="0.18" />
  <line x1="430.1" y1="283.4" x2="386.2" y2="370.9" stroke="#bcc3cd" stroke-width="0.9" opacity="0.17" />
  <line x1="430.1" y1="283.4" x2="456.8" y2="278.2" stroke="#bcc3cd" stroke-width="1.1" opacity="0.31" />
  <line x1="430.1" y1="283.4" x2="387.2" y2="295.0" stroke="#bcc3cd" stroke-width="1.1" opacity="0.30" />
  <line x1="430.1" y1="283.4" x2="490.3" y2="263.2" stroke="#bcc3cd" stroke-width="1.1" opacity="0.31" />
  <line x1="256.4" y1="497.7" x2="281.9" y2="500.0" stroke="#bcc3cd" stroke-width="1.6" opacity="0.60" />
  <line x1="589.6" y1="152.8" x2="531.7" y2="204.1" stroke="#bcc3cd" stroke-width="0.9" opacity="0.18" />
  <line x1="589.6" y1="152.8" x2="634.5" y2="149.4" stroke="#bcc3cd" stroke-width="1.1" opacity="0.28" />
  <line x1="480.2" y1="211.7" x2="513.3" y2="220.8" stroke="#bcc3cd" stroke-width="0.9" opacity="0.17" />
  <line x1="480.2" y1="211.7" x2="531.7" y2="204.1" stroke="#bcc3cd" stroke-width="0.9" opacity="0.18" />
  <line x1="480.2" y1="211.7" x2="488.8" y2="230.3" stroke="#bcc3cd" stroke-width="1.0" opacity="0.22" />
  <line x1="480.2" y1="211.7" x2="505.3" y2="232.3" stroke="#bcc3cd" stroke-width="1.1" opacity="0.28" />
  <line x1="480.2" y1="211.7" x2="496.6" y2="220.2" stroke="#bcc3cd" stroke-width="1.1" opacity="0.32" />
  <line x1="480.2" y1="211.7" x2="493.6" y2="243.7" stroke="#bcc3cd" stroke-width="0.9" opacity="0.20" />
  <line x1="480.2" y1="211.7" x2="512.6" y2="210.4" stroke="#bcc3cd" stroke-width="1.0" opacity="0.22" />
  <line x1="480.2" y1="211.7" x2="519.3" y2="252.5" stroke="#bcc3cd" stroke-width="1.0" opacity="0.22" />
  <line x1="513.3" y1="220.8" x2="531.7" y2="204.1" stroke="#bcc3cd" stroke-width="1.3" opacity="0.42" />
  <line x1="513.3" y1="220.8" x2="501.2" y2="194.8" stroke="#bcc3cd" stroke-width="0.9" opacity="0.18" />
  <line x1="513.3" y1="220.8" x2="534.5" y2="221.1" stroke="#bcc3cd" stroke-width="1.1" opacity="0.31" />
  <line x1="513.3" y1="220.8" x2="488.8" y2="230.3" stroke="#bcc3cd" stroke-width="1.1" opacity="0.32" />
  <line x1="513.3" y1="220.8" x2="459.5" y2="231.4" stroke="#bcc3cd" stroke-width="1.0" opacity="0.23" />
  <line x1="513.3" y1="220.8" x2="505.3" y2="232.3" stroke="#bcc3cd" stroke-width="1.2" opacity="0.39" />
  <line x1="513.3" y1="220.8" x2="496.6" y2="220.2" stroke="#bcc3cd" stroke-width="1.0" opacity="0.26" />
  <line x1="513.3" y1="220.8" x2="493.6" y2="243.7" stroke="#bcc3cd" stroke-width="1.2" opacity="0.34" />
  <line x1="513.3" y1="220.8" x2="446.7" y2="242.8" stroke="#bcc3cd" stroke-width="0.9" opacity="0.19" />
  <line x1="513.3" y1="220.8" x2="512.6" y2="210.4" stroke="#bcc3cd" stroke-width="1.0" opacity="0.25" />
  <line x1="513.3" y1="220.8" x2="490.3" y2="263.2" stroke="#bcc3cd" stroke-width="0.9" opacity="0.17" />
  <line x1="531.7" y1="204.1" x2="501.2" y2="194.8" stroke="#bcc3cd" stroke-width="1.1" opacity="0.33" />
  <line x1="531.7" y1="204.1" x2="534.5" y2="221.1" stroke="#bcc3cd" stroke-width="0.9" opacity="0.21" />
  <line x1="531.7" y1="204.1" x2="488.8" y2="230.3" stroke="#bcc3cd" stroke-width="0.9" opacity="0.18" />
  <line x1="531.7" y1="204.1" x2="505.3" y2="232.3" stroke="#bcc3cd" stroke-width="1.3" opacity="0.41" />
  <line x1="531.7" y1="204.1" x2="496.6" y2="220.2" stroke="#bcc3cd" stroke-width="1.0" opacity="0.22" />
  <line x1="531.7" y1="204.1" x2="493.6" y2="243.7" stroke="#bcc3cd" stroke-width="1.1" opacity="0.31" />
  <line x1="531.7" y1="204.1" x2="512.6" y2="210.4" stroke="#bcc3cd" stroke-width="1.7" opacity="0.66" />
  <line x1="482.2" y1="271.8" x2="472.1" y2="281.0" stroke="#bcc3cd" stroke-width="1.5" opacity="0.55" />
  <line x1="482.2" y1="271.8" x2="464.0" y2="253.8" stroke="#bcc3cd" stroke-width="0.9" opacity="0.18" />
  <line x1="482.2" y1="271.8" x2="477.4" y2="260.0" stroke="#bcc3cd" stroke-width="1.1" opacity="0.28" />
  <line x1="482.2" y1="271.8" x2="505.3" y2="232.3" stroke="#bcc3cd" stroke-width="0.9" opacity="0.18" />
  <line x1="482.2" y1="271.8" x2="493.6" y2="243.7" stroke="#bcc3cd" stroke-width="1.1" opacity="0.28" />
  <line x1="482.2" y1="271.8" x2="487.8" y2="283.8" stroke="#bcc3cd" stroke-width="1.5" opacity="0.55" />
  <line x1="482.2" y1="271.8" x2="519.3" y2="252.5" stroke="#bcc3cd" stroke-width="1.2" opacity="0.37" />
  <line x1="482.2" y1="271.8" x2="456.8" y2="278.2" stroke="#bcc3cd" stroke-width="1.5" opacity="0.55" />
  <line x1="482.2" y1="271.8" x2="490.3" y2="263.2" stroke="#bcc3cd" stroke-width="1.5" opacity="0.55" />
  <line x1="472.1" y1="281.0" x2="477.4" y2="260.0" stroke="#bcc3cd" stroke-width="1.0" opacity="0.22" />
  <line x1="472.1" y1="281.0" x2="493.6" y2="243.7" stroke="#bcc3cd" stroke-width="1.0" opacity="0.22" />
  <line x1="472.1" y1="281.0" x2="487.8" y2="283.8" stroke="#bcc3cd" stroke-width="1.2" opacity="0.37" />
  <line x1="472.1" y1="281.0" x2="519.3" y2="252.5" stroke="#bcc3cd" stroke-width="1.1" opacity="0.28" />
  <line x1="472.1" y1="281.0" x2="456.8" y2="278.2" stroke="#bcc3cd" stroke-width="1.2" opacity="0.37" />
  <line x1="472.1" y1="281.0" x2="490.3" y2="263.2" stroke="#bcc3cd" stroke-width="1.2" opacity="0.37" />
  <line x1="501.2" y1="194.8" x2="505.3" y2="232.3" stroke="#bcc3cd" stroke-width="0.9" opacity="0.18" />
  <line x1="501.2" y1="194.8" x2="496.6" y2="220.2" stroke="#bcc3cd" stroke-width="0.9" opacity="0.18" />
  <line x1="501.2" y1="194.8" x2="493.6" y2="243.7" stroke="#bcc3cd" stroke-width="1.0" opacity="0.22" />
  <line x1="501.2" y1="194.8" x2="512.6" y2="210.4" stroke="#bcc3cd" stroke-width="1.3" opacity="0.41" />
  <line x1="534.5" y1="221.1" x2="488.8" y2="230.3" stroke="#bcc3cd" stroke-width="1.1" opacity="0.31" />
  <line x1="534.5" y1="221.1" x2="505.3" y2="232.3" stroke="#bcc3cd" stroke-width="1.4" opacity="0.47" />
  <line x1="534.5" y1="221.1" x2="496.6" y2="220.2" stroke="#bcc3cd" stroke-width="0.9" opacity="0.19" />
  <line x1="534.5" y1="221.1" x2="493.6" y2="243.7" stroke="#bcc3cd" stroke-width="1.0" opacity="0.22" />
  <line x1="488.8" y1="230.3" x2="459.5" y2="231.4" stroke="#bcc3cd" stroke-width="1.1" opacity="0.29" />
  <line x1="488.8" y1="230.3" x2="464.0" y2="253.8" stroke="#bcc3cd" stroke-width="0.9" opacity="0.17" />
  <line x1="488.8" y1="230.3" x2="477.4" y2="260.0" stroke="#bcc3cd" stroke-width="0.9" opacity="0.20" />
  <line x1="488.8" y1="230.3" x2="505.3" y2="232.3" stroke="#bcc3cd" stroke-width="1.3" opacity="0.40" />
  <line x1="488.8" y1="230.3" x2="496.6" y2="220.2" stroke="#bcc3cd" stroke-width="1.0" opacity="0.24" />
  <line x1="488.8" y1="230.3" x2="493.6" y2="243.7" stroke="#bcc3cd" stroke-width="0.9" opacity="0.20" />
  <line x1="488.8" y1="230.3" x2="490.3" y2="263.2" stroke="#bcc3cd" stroke-width="1.0" opacity="0.24" />
  <line x1="459.5" y1="231.4" x2="477.4" y2="260.0" stroke="#bcc3cd" stroke-width="0.9" opacity="0.18" />
  <line x1="459.5" y1="231.4" x2="496.6" y2="220.2" stroke="#bcc3cd" stroke-width="1.0" opacity="0.23" />
  <line x1="459.5" y1="231.4" x2="493.6" y2="243.7" stroke="#bcc3cd" stroke-width="0.9" opacity="0.18" />
  <line x1="459.5" y1="231.4" x2="446.7" y2="242.8" stroke="#bcc3cd" stroke-width="1.0" opacity="0.24" />
  <line x1="459.5" y1="231.4" x2="490.3" y2="263.2" stroke="#bcc3cd" stroke-width="1.0" opacity="0.22" />
  <line x1="464.0" y1="253.8" x2="477.4" y2="260.0" stroke="#bcc3cd" stroke-width="1.1" opacity="0.28" />
  <line x1="464.0" y1="253.8" x2="505.3" y2="232.3" stroke="#bcc3cd" stroke-width="1.0" opacity="0.22" />
  <line x1="464.0" y1="253.8" x2="493.6" y2="243.7" stroke="#bcc3cd" stroke-width="1.1" opacity="0.28" />
  <line x1="464.0" y1="253.8" x2="446.7" y2="242.8" stroke="#bcc3cd" stroke-width="0.9" opacity="0.20" />
  <line x1="464.0" y1="253.8" x2="490.3" y2="263.2" stroke="#bcc3cd" stroke-width="1.2" opacity="0.37" />
  <line x1="477.4" y1="260.0" x2="505.3" y2="232.3" stroke="#bcc3cd" stroke-width="1.1" opacity="0.28" />
  <line x1="477.4" y1="260.0" x2="493.6" y2="243.7" stroke="#bcc3cd" stroke-width="1.2" opacity="0.37" />
  <line x1="477.4" y1="260.0" x2="487.8" y2="283.8" stroke="#bcc3cd" stroke-width="1.0" opacity="0.22" />
  <line x1="477.4" y1="260.0" x2="446.7" y2="242.8" stroke="#bcc3cd" stroke-width="1.0" opacity="0.24" />
  <line x1="477.4" y1="260.0" x2="519.3" y2="252.5" stroke="#bcc3cd" stroke-width="0.9" opacity="0.18" />
  <line x1="477.4" y1="260.0" x2="456.8" y2="278.2" stroke="#bcc3cd" stroke-width="1.0" opacity="0.22" />
  <line x1="477.4" y1="260.0" x2="490.3" y2="263.2" stroke="#bcc3cd" stroke-width="1.5" opacity="0.55" />
  <line x1="505.3" y1="232.3" x2="496.6" y2="220.2" stroke="#bcc3cd" stroke-width="1.1" opacity="0.29" />
  <line x1="505.3" y1="232.3" x2="493.6" y2="243.7" stroke="#bcc3cd" stroke-width="1.4" opacity="0.47" />
  <line x1="505.3" y1="232.3" x2="446.7" y2="242.8" stroke="#bcc3cd" stroke-width="0.9" opacity="0.20" />
  <line x1="505.3" y1="232.3" x2="512.6" y2="210.4" stroke="#bcc3cd" stroke-width="1.1" opacity="0.31" />
  <line x1="505.3" y1="232.3" x2="519.3" y2="252.5" stroke="#bcc3cd" stroke-width="1.1" opacity="0.31" />
  <line x1="505.3" y1="232.3" x2="490.3" y2="263.2" stroke="#bcc3cd" stroke-width="1.2" opacity="0.37" />
  <line x1="496.6" y1="220.2" x2="493.6" y2="243.7" stroke="#bcc3cd" stroke-width="1.2" opacity="0.34" />
  <line x1="496.6" y1="220.2" x2="512.6" y2="210.4" stroke="#bcc3cd" stroke-width="1.0" opacity="0.25" />
  <line x1="496.6" y1="220.2" x2="519.3" y2="252.5" stroke="#bcc3cd" stroke-width="1.0" opacity="0.25" />
  <line x1="496.6" y1="220.2" x2="490.3" y2="263.2" stroke="#bcc3cd" stroke-width="0.9" opacity="0.17" />
  <line x1="493.6" y1="243.7" x2="487.8" y2="283.8" stroke="#bcc3cd" stroke-width="1.0" opacity="0.22" />
  <line x1="493.6" y1="243.7" x2="446.7" y2="242.8" stroke="#bcc3cd" stroke-width="1.0" opacity="0.24" />
  <line x1="493.6" y1="243.7" x2="512.6" y2="210.4" stroke="#bcc3cd" stroke-width="1.3" opacity="0.44" />
  <line x1="493.6" y1="243.7" x2="519.3" y2="252.5" stroke="#bcc3cd" stroke-width="1.3" opacity="0.44" />
  <line x1="493.6" y1="243.7" x2="456.8" y2="278.2" stroke="#bcc3cd" stroke-width="1.0" opacity="0.22" />
  <line x1="493.6" y1="243.7" x2="490.3" y2="263.2" stroke="#bcc3cd" stroke-width="1.5" opacity="0.55" />
  <line x1="726.8" y1="50.0" x2="752.3" y2="66.2" stroke="#bcc3cd" stroke-width="1.0" opacity="0.22" />
  <line x1="443.5" y1="318.6" x2="490.3" y2="263.2" stroke="#bcc3cd" stroke-width="1.0" opacity="0.22" />
  <line x1="487.8" y1="283.8" x2="519.3" y2="252.5" stroke="#bcc3cd" stroke-width="1.1" opacity="0.28" />
  <line x1="487.8" y1="283.8" x2="456.8" y2="278.2" stroke="#bcc3cd" stroke-width="1.2" opacity="0.37" />
  <line x1="487.8" y1="283.8" x2="490.3" y2="263.2" stroke="#bcc3cd" stroke-width="1.2" opacity="0.37" />
  <line x1="383.8" y1="408.3" x2="365.9" y2="408.4" stroke="#bcc3cd" stroke-width="1.5" opacity="0.55" />
  <line x1="383.8" y1="408.3" x2="386.2" y2="370.9" stroke="#bcc3cd" stroke-width="1.3" opacity="0.41" />
  <line x1="365.9" y1="408.4" x2="386.2" y2="370.9" stroke="#bcc3cd" stroke-width="1.0" opacity="0.24" />
  <line x1="446.7" y1="242.8" x2="490.3" y2="263.2" stroke="#bcc3cd" stroke-width="1.1" opacity="0.31" />
  <line x1="512.6" y1="210.4" x2="519.3" y2="252.5" stroke="#bcc3cd" stroke-width="1.0" opacity="0.22" />
  <line x1="519.3" y1="252.5" x2="610.5" y2="256.0" stroke="#bcc3cd" stroke-width="1.2" opacity="0.37" />
  <line x1="519.3" y1="252.5" x2="642.0" y2="251.0" stroke="#bcc3cd" stroke-width="0.9" opacity="0.18" />
  <line x1="519.3" y1="252.5" x2="456.8" y2="278.2" stroke="#bcc3cd" stroke-width="1.1" opacity="0.28" />
  <line x1="519.3" y1="252.5" x2="490.3" y2="263.2" stroke="#bcc3cd" stroke-width="1.1" opacity="0.28" />
  <line x1="610.5" y1="256.0" x2="642.0" y2="251.0" stroke="#bcc3cd" stroke-width="1.1" opacity="0.28" />
  <line x1="456.8" y1="278.2" x2="387.2" y2="295.0" stroke="#bcc3cd" stroke-width="1.1" opacity="0.31" />
  <line x1="456.8" y1="278.2" x2="490.3" y2="263.2" stroke="#bcc3cd" stroke-width="1.2" opacity="0.37" />
  <circle cx="584.4" cy="298.2" r="6.8" fill="#3498db" opacity="0.88" />
  <circle cx="565.0" cy="282.7" r="7.7" fill="#3498db" opacity="0.88" />
  <circle cx="594.9" cy="269.1" r="16" fill="#e74c3c" opacity="0.88" />
  <circle cx="614.6" cy="320.1" r="9.5" fill="#7f8c8d" opacity="0.88" />
  <circle cx="578.4" cy="170.6" r="5" fill="#7f8c8d" opacity="0.88" />
  <circle cx="587.9" cy="256.0" r="14.9" fill="#3498db" opacity="0.88" />
  <circle cx="579.4" cy="223.1" r="16" fill="#3498db" opacity="0.88" />
  <circle cx="545.4" cy="236.9" r="16" fill="#7f8c8d" opacity="0.88" />
  <circle cx="530.9" cy="253.0" r="12.2" fill="#e67e22" opacity="0.88" />
  <circle cx="564.7" cy="201.8" r="16" fill="#e74c3c" opacity="0.88" />
  <circle cx="552.3" cy="255.9" r="15.8" fill="#7f8c8d" opacity="0.88" />
  <circle cx="478.9" cy="197.9" r="16" fill="#9b59b6" opacity="0.88" />
  <circle cx="514.3" cy="279.0" r="5.9" fill="#3498db" opacity="0.88" />
  <circle cx="439.1" cy="254.5" r="13.1" fill="#e67e22" opacity="0.88" />
  <circle cx="513.8" cy="260.8" r="14.0" fill="#3498db" opacity="0.88" />
  <circle cx="536.5" cy="264.0" r="12.2" fill="#3498db" opacity="0.88" />
  <circle cx="533.4" cy="274.2" r="14.0" fill="#3498db" opacity="0.88" />
  <circle cx="570.8" cy="273.4" r="8.6" fill="#2ecc71" opacity="0.88" />
  <circle cx="360.9" cy="298.7" r="10.4" fill="#e74c3c" opacity="0.88" />
  <circle cx="910.0" cy="151.9" r="12.2" fill="#3498db" opacity="0.88" />
  <circle cx="430.1" cy="283.4" r="10.4" fill="#e74c3c" opacity="0.88" />
  <circle cx="256.4" cy="497.7" r="12.2" fill="#3498db" opacity="0.88" />
  <circle cx="281.9" cy="500.0" r="11.3" fill="#3498db" opacity="0.88" />
  <circle cx="589.6" cy="152.8" r="5.9" fill="#3498db" opacity="0.88" />
  <circle cx="480.2" cy="211.7" r="12.2" fill="#9b59b6" opacity="0.88" />
  <circle cx="513.3" cy="220.8" r="15.8" fill="#9b59b6" opacity="0.88" />
  <circle cx="531.7" cy="204.1" r="8.6" fill="#9b59b6" opacity="0.88" />
  <circle cx="482.2" cy="271.8" r="5" fill="#2ecc71" opacity="0.88" />
  <circle cx="472.1" cy="281.0" r="5.9" fill="#7f8c8d" opacity="0.88" />
  <circle cx="501.2" cy="194.8" r="11.3" fill="#e67e22" opacity="0.88" />
  <circle cx="534.5" cy="221.1" r="16" fill="#2ecc71" opacity="0.88" />
  <circle cx="634.5" cy="149.4" r="6.8" fill="#9b59b6" opacity="0.88" />
  <circle cx="113.6" cy="404.2" r="5" fill="#7f8c8d" opacity="0.88" />
  <circle cx="488.8" cy="230.3" r="12.2" fill="#3498db" opacity="0.88" />
  <circle cx="459.5" cy="231.4" r="13.1" fill="#7f8c8d" opacity="0.88" />
  <circle cx="464.0" cy="253.8" r="9.5" fill="#7f8c8d" opacity="0.88" />
  <circle cx="50.0" cy="329.7" r="5" fill="#7f8c8d" opacity="0.88" />
  <circle cx="477.4" cy="260.0" r="7.7" fill="#7f8c8d" opacity="0.88" />
  <circle cx="505.3" cy="232.3" r="9.5" fill="#7f8c8d" opacity="0.88" />
  <circle cx="496.6" cy="220.2" r="15.8" fill="#2ecc71" opacity="0.88" />
  <circle cx="493.6" cy="243.7" r="7.7" fill="#7f8c8d" opacity="0.88" />
  <circle cx="726.8" cy="50.0" r="7.7" fill="#7f8c8d" opacity="0.88" />
  <circle cx="443.5" cy="318.6" r="7.7" fill="#3498db" opacity="0.88" />
  <circle cx="487.8" cy="283.8" r="5.9" fill="#7f8c8d" opacity="0.88" />
  <circle cx="383.8" cy="408.3" r="6.8" fill="#e67e22" opacity="0.88" />
  <circle cx="365.9" cy="408.4" r="6.8" fill="#e67e22" opacity="0.88" />
  <circle cx="446.7" cy="242.8" r="10.4" fill="#7f8c8d" opacity="0.88" />
  <circle cx="386.2" cy="370.9" r="11.3" fill="#e67e22" opacity="0.88" />
  <circle cx="752.3" cy="66.2" r="5.9" fill="#7f8c8d" opacity="0.88" />
  <circle cx="512.6" cy="210.4" r="6.8" fill="#7f8c8d" opacity="0.88" />
  <circle cx="519.3" cy="252.5" r="6.8" fill="#7f8c8d" opacity="0.88" />
  <circle cx="610.5" cy="256.0" r="5" fill="#2ecc71" opacity="0.88" />
  <circle cx="642.0" cy="251.0" r="7.7" fill="#2ecc71" opacity="0.88" />
  <circle cx="456.8" cy="278.2" r="5.9" fill="#e74c3c" opacity="0.88" />
  <circle cx="387.2" cy="295.0" r="10.4" fill="#e74c3c" opacity="0.88" />
  <circle cx="490.3" cy="263.2" r="5.9" fill="#7f8c8d" opacity="0.88" />
  <circle cx="840.5" cy="457.9" r="5" fill="#7f8c8d" opacity="0.88" />
  <rect x="593.2" y="385.3" width="117.2" height="15" fill="#ffffff" opacity="0.75" rx="2" />
  <text x="594.2" y="396.3" font-family="system-ui, -apple-system, sans-serif" font-size="12" fill="#1f2328" text-anchor="start">tinyland-cleanup</text>
  <rect x="574.7" y="373.3" width="16.4" height="15" fill="#ffffff" opacity="0.75" rx="2" />
  <text x="575.7" y="384.3" font-family="system-ui, -apple-system, sans-serif" font-size="12" fill="#1f2328" text-anchor="start">pp</text>
  <rect x="612.9" y="373.2" width="95.6" height="15" fill="#ffffff" opacity="0.75" rx="2" />
  <text x="613.9" y="384.2" font-family="system-ui, -apple-system, sans-serif" font-size="12" fill="#1f2328" text-anchor="start">RemoteJuggler</text>
  <rect x="626.1" y="402.3" width="88.4" height="15" fill="#ffffff" opacity="0.75" rx="2" />
  <text x="627.1" y="413.3" font-family="system-ui, -apple-system, sans-serif" font-size="12" fill="#1f2328" text-anchor="start">waifu-mirror</text>
  <rect x="585.4" y="92.4" width="124.4" height="15" fill="#ffffff" opacity="0.75" rx="2" />
  <text x="586.4" y="103.4" font-family="system-ui, -apple-system, sans-serif" font-size="12" fill="#1f2328" text-anchor="start">tinyland-calendar</text>
  <rect x="604.8" y="214.5" width="102.8" height="15" fill="#ffffff" opacity="0.75" rx="2" />
  <text x="605.8" y="225.5" font-family="system-ui, -apple-system, sans-serif" font-size="12" fill="#1f2328" text-anchor="start">tinyland-infra</text>
  <rect x="597.4" y="199.2" width="117.2" height="15" fill="#ffffff" opacity="0.75" rx="2" />
  <text x="598.4" y="210.2" font-family="system-ui, -apple-system, sans-serif" font-size="12" fill="#1f2328" text-anchor="start">GloriousFlywheel</text>
  <rect x="563.4" y="234.5" width="52.4" height="15" fill="#ffffff" opacity="0.75" rx="2" />
  <text x="564.4" y="245.5" font-family="system-ui, -apple-system, sans-serif" font-size="12" fill="#1f2328" text-anchor="start">LA-Mesh</text>
  <rect x="545.1" y="173.5" width="45.2" height="15" fill="#ffffff" opacity="0.75" rx="2" />
  <text x="546.1" y="184.5" font-family="system-ui, -apple-system, sans-serif" font-size="12" fill="#1f2328" text-anchor="start">XoxdWM</text>
  <rect x="582.7" y="106.4" width="131.6" height="15" fill="#ffffff" opacity="0.75" rx="2" />
  <text x="583.7" y="117.4" font-family="system-ui, -apple-system, sans-serif" font-size="12" fill="#1f2328" text-anchor="start">pixelwise-research</text>
  <rect x="570.1" y="330.4" width="124.4" height="15" fill="#ffffff" opacity="0.75" rx="2" />
  <text x="571.1" y="341.4" font-family="system-ui, -apple-system, sans-serif" font-size="12" fill="#1f2328" text-anchor="start">tinyland-huskycat</text>
  <rect x="496.9" y="203.4" width="95.6" height="15" fill="#ffffff" opacity="0.75" rx="2" />
  <text x="497.9" y="214.4" font-family="system-ui, -apple-system, sans-serif" font-size="12" fill="#1f2328" text-anchor="start">GIS_Shortcuts</text>
  <rect x="522.2" y="307.7" width="95.6" height="15" fill="#ffffff" opacity="0.75" rx="2" />
  <text x="523.2" y="318.7" font-family="system-ui, -apple-system, sans-serif" font-size="12" fill="#1f2328" text-anchor="start">tinyland-kdbx</text>
  <rect x="454.2" y="234.6" width="110.0" height="15" fill="#ffffff" opacity="0.75" rx="2" />
  <text x="455.2" y="245.6" font-family="system-ui, -apple-system, sans-serif" font-size="12" fill="#1f2328" text-anchor="start">hiberpower-ntfs</text>
  <rect x="529.8" y="159.5" width="138.8" height="15" fill="#ffffff" opacity="0.75" rx="2" />
  <text x="530.8" y="170.5" font-family="system-ui, -apple-system, sans-serif" font-size="12" fill="#1f2328" text-anchor="start">Ansible-DAG-Harness</text>
  <rect x="550.7" y="229.0" width="66.8" height="15" fill="#ffffff" opacity="0.75" rx="2" />
  <text x="551.7" y="240.0" font-family="system-ui, -apple-system, sans-serif" font-size="12" fill="#1f2328" text-anchor="start">betterkvm</text>
  <rect x="549.4" y="303.4" width="95.6" height="15" fill="#ffffff" opacity="0.75" rx="2" />
  <text x="550.4" y="314.4" font-family="system-ui, -apple-system, sans-serif" font-size="12" fill="#1f2328" text-anchor="start">DarwinNicUtil</text>
  <rect x="581.4" y="246.8" width="59.6" height="15" fill="#ffffff" opacity="0.75" rx="2" />
  <text x="582.4" y="257.8" font-family="system-ui, -apple-system, sans-serif" font-size="12" fill="#1f2328" text-anchor="start">gnucashr</text>
  <rect x="373.3" y="282.7" width="66.8" height="15" fill="#ffffff" opacity="0.75" rx="2" />
  <text x="374.3" y="293.7" font-family="system-ui, -apple-system, sans-serif" font-size="12" fill="#1f2328" text-anchor="start">quickchpl</text>
  <rect x="764.2" y="145.1" width="131.6" height="15" fill="#ffffff" opacity="0.75" rx="2" />
  <text x="894.8" y="156.1" font-family="system-ui, -apple-system, sans-serif" font-size="12" fill="#1f2328" text-anchor="end">tinyscale-mikrotik</text>
  <rect x="442.5" y="337.6" width="59.6" height="15" fill="#ffffff" opacity="0.75" rx="2" />
  <text x="443.5" y="348.6" font-family="system-ui, -apple-system, sans-serif" font-size="12" fill="#1f2328" text-anchor="start">aoc-2025</text>
  <rect x="270.6" y="483.5" width="66.8" height="15" fill="#ffffff" opacity="0.75" rx="2" />
  <text x="271.6" y="494.5" font-family="system-ui, -apple-system, sans-serif" font-size="12" fill="#1f2328" text-anchor="start">searchies</text>
  <rect x="295.2" y="500.5" width="59.6" height="15" fill="#ffffff" opacity="0.75" rx="2" />
  <text x="296.2" y="511.5" font-family="system-ui, -apple-system, sans-serif" font-size="12" fill="#1f2328" text-anchor="start">ts-caddy</text>
  <rect x="597.5" y="78.2" width="66.8" height="15" fill="#ffffff" opacity="0.75" rx="2" />
  <text x="598.5" y="89.2" font-family="system-ui, -apple-system, sans-serif" font-size="12" fill="#1f2328" text-anchor="start">HCI-notes</text>
  <rect x="494.4" y="94.3" width="88.4" height="15" fill="#ffffff" opacity="0.75" rx="2" />
  <text x="495.4" y="105.3" font-family="system-ui, -apple-system, sans-serif" font-size="12" fill="#1f2328" text-anchor="start">FastPhotoAPI</text>
  <rect x="531.1" y="170.3" width="81.2" height="15" fill="#ffffff" opacity="0.75" rx="2" />
  <text x="532.1" y="181.3" font-family="system-ui, -apple-system, sans-serif" font-size="12" fill="#1f2328" text-anchor="start">timberbuddy</text>
  <rect x="542.3" y="324.9" width="81.2" height="15" fill="#ffffff" opacity="0.75" rx="2" />
  <text x="543.3" y="335.9" font-family="system-ui, -apple-system, sans-serif" font-size="12" fill="#1f2328" text-anchor="start">tetrahedron</text>
  <rect x="489.2" y="148.4" width="95.6" height="15" fill="#ffffff" opacity="0.75" rx="2" />
  <text x="490.2" y="159.4" font-family="system-ui, -apple-system, sans-serif" font-size="12" fill="#1f2328" text-anchor="start">AccuWixReport</text>
  <rect x="480.0" y="249.2" width="95.6" height="15" fill="#ffffff" opacity="0.75" rx="2" />
  <text x="481.0" y="260.2" font-family="system-ui, -apple-system, sans-serif" font-size="12" fill="#1f2328" text-anchor="start">Jess-AOC-2023</text>
  <rect x="514.5" y="197.4" width="81.2" height="15" fill="#ffffff" opacity="0.75" rx="2" />
  <text x="515.5" y="208.4" font-family="system-ui, -apple-system, sans-serif" font-size="12" fill="#1f2328" text-anchor="start">TurkeyProbe</text>
  <rect x="552.5" y="118.9" width="153.2" height="15" fill="#ffffff" opacity="0.75" rx="2" />
  <text x="553.5" y="129.9" font-family="system-ui, -apple-system, sans-serif" font-size="12" fill="#1f2328" text-anchor="start">MerlinAI-Interpreters</text>
  <rect x="643.3" y="63.7" width="110.0" height="15" fill="#ffffff" opacity="0.75" rx="2" />
  <text x="644.3" y="74.7" font-family="system-ui, -apple-system, sans-serif" font-size="12" fill="#1f2328" text-anchor="start">IntroTypeScript</text>
  <rect x="120.6" y="397.4" width="110.0" height="15" fill="#ffffff" opacity="0.75" rx="2" />
  <text x="121.6" y="408.4" font-family="system-ui, -apple-system, sans-serif" font-size="12" fill="#1f2328" text-anchor="start">IG-3DP-Profiles</text>
  <rect x="503.0" y="109.0" width="66.8" height="15" fill="#ffffff" opacity="0.75" rx="2" />
  <text x="504.0" y="120.0" font-family="system-ui, -apple-system, sans-serif" font-size="12" fill="#1f2328" text-anchor="start">DLA-Flask</text>
  <rect x="474.6" y="179.7" width="38.0" height="15" fill="#ffffff" opacity="0.75" rx="2" />
  <text x="475.6" y="190.7" font-family="system-ui, -apple-system, sans-serif" font-size="12" fill="#1f2328" text-anchor="start">USBoN</text>
  <rect x="475.5" y="268.1" width="203.6" height="15" fill="#ffffff" opacity="0.75" rx="2" />
  <text x="476.5" y="279.1" font-family="system-ui, -apple-system, sans-serif" font-size="12" fill="#1f2328" text-anchor="start">chrome-remote-desktop-budgie</text>
  <rect x="57.0" y="322.9" width="124.4" height="15" fill="#ffffff" opacity="0.75" rx="2" />
  <text x="58.0" y="333.9" font-family="system-ui, -apple-system, sans-serif" font-size="12" fill="#1f2328" text-anchor="start">OminousBeepingApp</text>
  <rect x="487.1" y="294.3" width="138.8" height="15" fill="#ffffff" opacity="0.75" rx="2" />
  <text x="488.1" y="305.3" font-family="system-ui, -apple-system, sans-serif" font-size="12" fill="#1f2328" text-anchor="start">mo-image-identifier</text>
  <rect x="516.8" y="182.8" width="196.4" height="15" fill="#ffffff" opacity="0.75" rx="2" />
  <text x="517.8" y="193.8" font-family="system-ui, -apple-system, sans-serif" font-size="12" fill="#1f2328" text-anchor="start">squirrel-leaflet-annotation</text>
  <rect x="514.4" y="258.8" width="74.0" height="15" fill="#ffffff" opacity="0.75" rx="2" />
  <text x="515.4" y="269.8" font-family="system-ui, -apple-system, sans-serif" font-size="12" fill="#1f2328" text-anchor="start">Shiny-Apps</text>
  <rect x="503.3" y="359.4" width="138.8" height="15" fill="#ffffff" opacity="0.75" rx="2" />
  <text x="504.3" y="370.4" font-family="system-ui, -apple-system, sans-serif" font-size="12" fill="#1f2328" text-anchor="start">bbox-jest-puppeteer</text>
  <rect x="736.5" y="43.2" width="88.4" height="15" fill="#ffffff" opacity="0.75" rx="2" />
  <text x="737.5" y="54.2" font-family="system-ui, -apple-system, sans-serif" font-size="12" fill="#1f2328" text-anchor="start">DoverDisplay</text>
  <rect x="453.2" y="369.9" width="81.2" height="15" fill="#ffffff" opacity="0.75" rx="2" />
  <text x="454.2" y="380.9" font-family="system-ui, -apple-system, sans-serif" font-size="12" fill="#1f2328" text-anchor="start">LeafletSync</text>
  <rect x="495.7" y="135.9" width="167.6" height="15" fill="#ffffff" opacity="0.75" rx="2" />
  <text x="496.7" y="146.9" font-family="system-ui, -apple-system, sans-serif" font-size="12" fill="#1f2328" text-anchor="start">misc-roi-distance-notes</text>
  <rect x="392.6" y="400.8" width="138.8" height="15" fill="#ffffff" opacity="0.75" rx="2" />
  <text x="393.6" y="411.8" font-family="system-ui, -apple-system, sans-serif" font-size="12" fill="#1f2328" text-anchor="start">Arduino_Coil_Winder</text>
  <rect x="374.7" y="414.1" width="30.8" height="15" fill="#ffffff" opacity="0.75" rx="2" />
  <text x="375.7" y="425.1" font-family="system-ui, -apple-system, sans-serif" font-size="12" fill="#1f2328" text-anchor="start">momo</text>
  <rect x="459.1" y="209.6" width="38.0" height="15" fill="#ffffff" opacity="0.75" rx="2" />
  <text x="460.1" y="220.6" font-family="system-ui, -apple-system, sans-serif" font-size="12" fill="#1f2328" text-anchor="start">clipi</text>
  <rect x="399.5" y="383.8" width="110.0" height="15" fill="#ffffff" opacity="0.75" rx="2" />
  <text x="400.5" y="394.8" font-family="system-ui, -apple-system, sans-serif" font-size="12" fill="#1f2328" text-anchor="start">AeroTaz5_hotfix</text>
  <rect x="760.2" y="59.4" width="110.0" height="15" fill="#ffffff" opacity="0.75" rx="2" />
  <text x="761.2" y="70.4" font-family="system-ui, -apple-system, sans-serif" font-size="12" fill="#1f2328" text-anchor="start">Funmat-HT-Notes</text>
  <rect x="521.4" y="277.3" width="81.2" height="15" fill="#ffffff" opacity="0.75" rx="2" />
  <text x="522.4" y="288.3" font-family="system-ui, -apple-system, sans-serif" font-size="12" fill="#1f2328" text-anchor="start">static-site</text>
  <rect x="528.1" y="342.4" width="95.6" height="15" fill="#ffffff" opacity="0.75" rx="2" />
  <text x="529.1" y="353.4" font-family="system-ui, -apple-system, sans-serif" font-size="12" fill="#1f2328" text-anchor="start">Flask-Manager</text>
  <rect x="617.5" y="231.2" width="110.0" height="15" fill="#ffffff" opacity="0.75" rx="2" />
  <text x="618.5" y="242.2" font-family="system-ui, -apple-system, sans-serif" font-size="12" fill="#1f2328" text-anchor="start">FieldProcessing</text>
  <rect x="651.7" y="296.6" width="81.2" height="15" fill="#ffffff" opacity="0.75" rx="2" />
  <text x="652.7" y="307.6" font-family="system-ui, -apple-system, sans-serif" font-size="12" fill="#1f2328" text-anchor="start">rJDKmanager</text>
  <rect x="464.7" y="322.7" width="59.6" height="15" fill="#ffffff" opacity="0.75" rx="2" />
  <text x="465.7" y="333.7" font-family="system-ui, -apple-system, sans-serif" font-size="12" fill="#1f2328" text-anchor="start">tagnotes</text>
  <rect x="399.6" y="352.9" width="81.2" height="15" fill="#ffffff" opacity="0.75" rx="2" />
  <text x="400.6" y="363.9" font-family="system-ui, -apple-system, sans-serif" font-size="12" fill="#1f2328" text-anchor="start">ChapelTests</text>
  <rect x="498.2" y="214.4" width="88.4" height="15" fill="#ffffff" opacity="0.75" rx="2" />
  <text x="499.2" y="225.4" font-family="system-ui, -apple-system, sans-serif" font-size="12" fill="#1f2328" text-anchor="start">Xfinity-WiFi</text>
  <rect x="766.7" y="451.1" width="66.8" height="15" fill="#ffffff" opacity="0.75" rx="2" />
  <text x="832.5" y="462.1" font-family="system-ui, -apple-system, sans-serif" font-size="12" fill="#1f2328" text-anchor="end">home-wiki</text>
  <rect x="793" y="36" width="155" height="120" rx="6" fill="#f6f8fa" stroke="#d0d7de" stroke-width="1" opacity="0.95" />
  <circle cx="810" cy="52" r="5" fill="#e74c3c" opacity="0.88" />
  <text x="820" y="56" font-family="system-ui, -apple-system, sans-serif" font-size="10" fill="#1f2328">Languages &amp; Compilers</text>
  <circle cx="810" cy="69" r="5" fill="#3498db" opacity="0.88" />
  <text x="820" y="73" font-family="system-ui, -apple-system, sans-serif" font-size="10" fill="#1f2328">Infrastructure &amp; DevOps</text>
  <circle cx="810" cy="86" r="5" fill="#e67e22" opacity="0.88" />
  <text x="820" y="90" font-family="system-ui, -apple-system, sans-serif" font-size="10" fill="#1f2328">Hardware &amp; Maker</text>
  <circle cx="810" cy="103" r="5" fill="#2ecc71" opacity="0.88" />
  <text x="820" y="107" font-family="system-ui, -apple-system, sans-serif" font-size="10" fill="#1f2328">ML &amp; Data</text>
  <circle cx="810" cy="120" r="5" fill="#9b59b6" opacity="0.88" />
  <text x="820" y="124" font-family="system-ui, -apple-system, sans-serif" font-size="10" fill="#1f2328">Web &amp; Apps</text>
  <circle cx="810" cy="137" r="5" fill="#7f8c8d" opacity="0.88" />
  <text x="820" y="141" font-family="system-ui, -apple-system, sans-serif" font-size="10" fill="#1f2328">Other</text>
  <text x="870" y="150" font-family="system-ui, -apple-system, sans-serif" font-size="8" fill="#656d76" text-anchor="middle">57 repos · 238 edges</text>
</svg>