<svg xmlns="http://www.w3.org/2000/svg" width="960" height="600" viewBox="0 0 960 600">
  <rect width="960" height="600" fill="#ffffff" rx="8" />
  <text x="480" y="24" font-family="system-ui, -apple-system, sans-serif" font-size="13" fill="#656d76" text-anchor="middle" font-weight="500">Repo Relationship Graph &#x2014; Pairwise Topic &amp; Language Similarity</text>
  <line x1="50" y1="550" x2="910" y2="550" stroke="#d0d7de" stroke-width="0.5" opacity="0.5" />
  <text x="50" y="570" font-family="system-ui, -apple-system, sans-serif" font-size="9" fill="#656d76" opacity="0.6">Updated daily by GitHub Actions</text>
  <text x="50" y="588" font-family="system-ui, -apple-system, sans-serif" font-size="9" fill="#656d76" opacity="0.6">networkx spring_layout · Jaccard similarity &gt; 0.15</text>
  <text x="910" y="570" font-family="system-ui, -apple-system, sans-serif" font-size="9" fill="#656d76" text-anchor="end" opacity="0.6">57 repos · 218 edges</text>
  <line x1="546.7" y1="309.5" x2="531.8" y2="303.1" stroke="#bcc3cd" stroke-width="1.0" opacity="0.23" />
  <line x1="546.7" y1="309.5" x2="476.7" y2="317.7" stroke="#bcc3cd" stroke-width="1.0" opacity="0.22" />
  <line x1="546.7" y1="309.5" x2="506.6" y2="349.1" stroke="#bcc3cd" stroke-width="0.9" opacity="0.18" />
  <line x1="546.7" y1="309.5" x2="532.9" y2="292.3" stroke="#bcc3cd" stroke-width="1.0" opacity="0.24" />
  <line x1="546.7" y1="309.5" x2="508.1" y2="316.8" stroke="#bcc3cd" stroke-width="0.9" opacity="0.21" />
  <line x1="546.7" y1="309.5" x2="542.8" y2="331.1" stroke="#bcc3cd" stroke-width="0.9" opacity="0.21" />
  <line x1="546.7" y1="309.5" x2="579.1" y2="303.2" stroke="#bcc3cd" stroke-width="1.1" opacity="0.30" />
  <line x1="546.7" y1="309.5" x2="547.7" y2="298.7" stroke="#bcc3cd" stroke-width="1.0" opacity="0.22" />
  <line x1="546.7" y1="309.5" x2="515.8" y2="292.7" stroke="#bcc3cd" stroke-width="1.0" opacity="0.22" />
  <line x1="546.7" y1="309.5" x2="610.6" y2="296.6" stroke="#bcc3cd" stroke-width="0.9" opacity="0.19" />
  <line x1="546.7" y1="309.5" x2="591.8" y2="271.8" stroke="#bcc3cd" stroke-width="0.9" opacity="0.21" />
  <line x1="546.7" y1="309.5" x2="574.8" y2="269.7" stroke="#bcc3cd" stroke-width="1.0" opacity="0.24" />
  <line x1="546.7" y1="309.5" x2="538.3" y2="267.9" stroke="#bcc3cd" stroke-width="0.9" opacity="0.17" />
  <line x1="603.2" y1="323.3" x2="531.8" y2="303.1" stroke="#bcc3cd" stroke-width="0.9" opacity="0.18" />
  <line x1="603.2" y1="323.3" x2="542.8" y2="331.1" stroke="#bcc3cd" stroke-width="1.2" opacity="0.38" />
  <line x1="603.2" y1="323.3" x2="579.1" y2="303.2" stroke="#bcc3cd" stroke-width="1.2" opacity="0.34" />
  <line x1="603.2" y1="323.3" x2="645.1" y2="312.9" stroke="#bcc3cd" stroke-width="1.0" opacity="0.25" />
  <line x1="603.2" y1="323.3" x2="615.9" y2="285.3" stroke="#bcc3cd" stroke-width="0.9" opacity="0.20" />
  <line x1="603.2" y1="323.3" x2="644.2" y2="290.8" stroke="#bcc3cd" stroke-width="1.0" opacity="0.22" />
  <line x1="509.3" y1="337.7" x2="531.8" y2="303.1" stroke="#bcc3cd" stroke-width="0.9" opacity="0.19" />
  <line x1="509.3" y1="337.7" x2="508.1" y2="316.8" stroke="#bcc3cd" stroke-width="0.9" opacity="0.18" />
  <line x1="509.3" y1="337.7" x2="542.8" y2="331.1" stroke="#bcc3cd" stroke-width="1.0" opacity="0.23" />
  <line x1="509.3" y1="337.7" x2="547.7" y2="298.7" stroke="#bcc3cd" stroke-width="0.9" opacity="0.18" />
  <line x1="531.8" y1="303.1" x2="501.6" y2="272.5" stroke="#bcc3cd" stroke-width="0.9" opacity="0.19" />
  <line x1="531.8" y1="303.1" x2="476.7" y2="317.7" stroke="#bcc3cd" stroke-width="0.9" opacity="0.17" />
  <line x1="531.8" y1="303.1" x2="532.9" y2="292.3" stroke="#bcc3cd" stroke-width="1.1" opacity="0.29" />
  <line x1="531.8" y1="303.1" x2="508.1" y2="316.8" stroke="#bcc3cd" stroke-width="1.0" opacity="0.24" />
  <line x1="531.8" y1="303.1" x2="542.8" y2="331.1" stroke="#bcc3cd" stroke-width="0.9" opacity="0.17" />
  <line x1="531.8" y1="303.1" x2="579.1" y2="303.2" stroke="#bcc3cd" stroke-width="1.1" opacity="0.28" />
  <line x1="531.8" y1="303.1" x2="547.7" y2="298.7" stroke="#bcc3cd" stroke-width="1.0" opacity="0.26" />
  <line x1="531.8" y1="303.1" x2="515.8" y2="292.7" stroke="#bcc3cd" stroke-width="1.0" opacity="0.26" />
  <line x1="531.8" y1="303.1" x2="546.7" y2="262.8" stroke="#bcc3cd" stroke-width="0.9" opacity="0.18" />
  <line x1="531.8" y1="303.1" x2="574.8" y2="269.7" stroke="#bcc3cd" stroke-width="1.1" opacity="0.30" />
  <line x1="531.8" y1="303.1" x2="538.3" y2="267.9" stroke="#bcc3cd" stroke-width="1.0" opacity="0.22" />
  <line x1="501.6" y1="272.5" x2="546.7" y2="262.8" stroke="#bcc3cd" stroke-width="0.9" opacity="0.18" />
  <line x1="501.6" y1="272.5" x2="574.8" y2="269.7" stroke="#bcc3cd" stroke-width="1.1" opacity="0.30" />
  <line x1="501.6" y1="272.5" x2="538.3" y2="267.9" stroke="#bcc3cd" stroke-width="1.0" opacity="0.22" />
  <line x1="476.7" y1="317.7" x2="388.5" y2="322.3" stroke="#bcc3cd" stroke-width="1.1" opacity="0.33" />
  <line x1="476.7" y1="317.7" x2="506.6" y2="349.1" stroke="#bcc3cd" stroke-width="0.9" opacity="0.19" />
  <line x1="476.7" y1="317.7" x2="532.9" y2="292.3" stroke="#bcc3cd" stroke-width="0.9" opacity="0.18" />
  <line x1="476.7" y1="317.7" x2="440.3" y2="332.5" stroke="#bcc3cd" stroke-width="0.9" opacity="0.18" />
  <line x1="476.7" y1="317.7" x2="406.4" y2="332.9" stroke="#bcc3cd" stroke-width="1.3" opacity="0.41" />
  <line x1="476.7" y1="317.7" x2="542.8" y2="331.1" stroke="#bcc3cd" stroke-width="1.0" opacity="0.24" />
  <line x1="476.7" y1="317.7" x2="579.1" y2="303.2" stroke="#bcc3cd" stroke-width="0.9" opacity="0.19" />
  <line x1="476.7" y1="317.7" x2="538.3" y2="267.9" stroke="#bcc3cd" stroke-width="0.9" opacity="0.18" />
  <line x1="388.5" y1="322.3" x2="406.4" y2="332.9" stroke="#bcc3cd" stroke-width="0.9" opacity="0.18" />
  <line x1="506.6" y1="349.1" x2="508.1" y2="316.8" stroke="#bcc3cd" stroke-width="0.9" opacity="0.19" />
  <line x1="506.6" y1="349.1" x2="542.8" y2="331.1" stroke="#bcc3cd" stroke-width="0.9" opacity="0.19" />
  <line x1="506.6" y1="349.1" x2="579.1" y2="303.2" stroke="#bcc3cd" stroke-width="0.9" opacity="0.17" />
  <line x1="506.6" y1="349.1" x2="437.3" y2="381.9" stroke="#bcc3cd" stroke-width="1.0" opacity="0.22" />
  <line x1="532.9" y1="292.3" x2="508.1" y2="316.8" stroke="#bcc3cd" stroke-width="1.0" opacity="0.26" />
  <line x1="532.9" y1="292.3" x2="542.8" y2="331.1" stroke="#bcc3cd" stroke-width="0.9" opacity="0.18" />
  <line x1="532.9" y1="292.3" x2="579.1" y2="303.2" stroke="#bcc3cd" stroke-width="1.0" opacity="0.22" />
  <line x1="532.9" y1="292.3" x2="547.7" y2="298.7" stroke="#bcc3cd" stroke-width="1.1" opacity="0.28" />
  <line x1="532.9" y1="292.3" x2="515.8" y2="292.7" stroke="#bcc3cd" stroke-width="1.1" opacity="0.28" />
  <line x1="532.9" y1="292.3" x2="540.4" y2="255.3" stroke="#bcc3cd" stroke-width="0.9" opacity="0.17" />
  <line x1="532.9" y1="292.3" x2="546.7" y2="262.8" stroke="#bcc3cd" stroke-width="0.9" opacity="0.20" />
  <line x1="532.9" y1="292.3" x2="591.8" y2="271.8" stroke="#bcc3cd" stroke-width="0.9" opacity="0.17" />
  <line x1="532.9" y1="292.3" x2="574.8" y2="269.7" stroke="#bcc3cd" stroke-width="0.9" opacity="0.20" />
  <line x1="532.9" y1="292.3" x2="538.3" y2="267.9" stroke="#bcc3cd" stroke-width="1.0" opacity="0.24" />
  <line x1="440.3" y1="332.5" x2="508.1" y2="316.8" stroke="#bcc3cd" stroke-width="1.2" opacity="0.34" />
  <line x1="440.3" y1="332.5" x2="406.4" y2="332.9" stroke="#bcc3cd" stroke-width="0.9" opacity="0.17" />
  <line x1="508.1" y1="316.8" x2="542.8" y2="331.1" stroke="#bcc3cd" stroke-width="1.0" opacity="0.22" />
  <line x1="508.1" y1="316.8" x2="579.1" y2="303.2" stroke="#bcc3cd" stroke-width="0.9" opacity="0.19" />
  <line x1="508.1" y1="316.8" x2="547.7" y2="298.7" stroke="#bcc3cd" stroke-width="1.0" opacity="0.23" />
  <line x1="508.1" y1="316.8" x2="515.8" y2="292.7" stroke="#bcc3cd" stroke-width="1.0" opacity="0.23" />
  <line x1="508.1" y1="316.8" x2="538.3" y2="267.9" stroke="#bcc3cd" stroke-width="0.9" opacity="0.18" />
  <line x1="542.8" y1="331.1" x2="579.1" y2="303.2" stroke="#bcc3cd" stroke-width="0.9" opacity="0.19" />
  <line x1="579.1" y1="303.2" x2="645.1" y2="312.9" stroke="#bcc3cd" stroke-width="1.2" opacity="0.34" />
  <line x1="579.1" y1="303.2" x2="547.7" y2="298.7" stroke="#bcc3cd" stroke-width="0.9" opacity="0.20" />
  <line x1="579.1" y1="303.2" x2="515.8" y2="292.7" stroke="#bcc3cd" stroke-width="0.9" opacity="0.20" />
  <line x1="579.1" y1="303.2" x2="615.9" y2="285.3" stroke="#bcc3cd" stroke-width="1.2" opacity="0.37" />
  <line x1="579.1" y1="303.2" x2="644.2" y2="290.8" stroke="#bcc3cd" stroke-width="1.2" opacity="0.37" />
  <line x1="579.1" y1="303.2" x2="610.6" y2="296.6" stroke="#bcc3cd" stroke-width="1.1" opacity="0.29" />
  <line x1="579.1" y1="303.2" x2="594.2" y2="280.5" stroke="#bcc3cd" stroke-width="1.0" opacity="0.22" />
  <line x1="579.1" y1="303.2" x2="591.8" y2="271.8" stroke="#bcc3cd" stroke-width="1.2" opacity="0.34" />
  <line x1="579.1" y1="303.2" x2="617.8" y2="269.7" stroke="#bcc3cd" stroke-width="1.0" opacity="0.24" />
  <line x1="579.1" y1="303.2" x2="574.8" y2="269.7" stroke="#bcc3cd" stroke-width="1.1" opacity="0.29" />
  <line x1="579.1" y1="303.2" x2="633.4" y2="275.2" stroke="#bcc3cd" stroke-width="1.0" opacity="0.22" />
  <line x1="645.1" y1="312.9" x2="615.9" y2="285.3" stroke="#bcc3cd" stroke-width="1.0" opacity="0.25" />
  <line x1="645.1" y1="312.9" x2="644.2" y2="290.8" stroke="#bcc3cd" stroke-width="1.1" opacity="0.29" />
  <line x1="645.1" y1="312.9" x2="633.4" y2="275.2" stroke="#bcc3cd" stroke-width="0.9" opacity="0.17" />
  <line x1="662.3" y1="275.7" x2="615.9" y2="285.3" stroke="#bcc3cd" stroke-width="0.9" opacity="0.18" />
  <line x1="662.3" y1="275.7" x2="644.2" y2="290.8" stroke="#bcc3cd" stroke-width="0.9" opacity="0.18" />
  <line x1="662.3" y1="275.7" x2="591.8" y2="271.8" stroke="#bcc3cd" stroke-width="0.9" opacity="0.17" />
  <line x1="662.3" y1="275.7" x2="617.8" y2="269.7" stroke="#bcc3cd" stroke-width="1.3" opacity="0.42" />
  <line x1="662.3" y1="275.7" x2="574.8" y2="269.7" stroke="#bcc3cd" stroke-width="0.9" opacity="0.19" />
  <line x1="662.3" y1="275.7" x2="633.4" y2="275.2" stroke="#bcc3cd" stroke-width="0.9" opacity="0.21" />
  <line x1="547.7" y1="298.7" x2="515.8" y2="292.7" stroke="#bcc3cd" stroke-width="1.0" opacity="0.24" />
  <line x1="547.7" y1="298.7" x2="594.2" y2="280.5" stroke="#bcc3cd" stroke-width="0.9" opacity="0.19" />
  <line x1="547.7" y1="298.7" x2="574.7" y2="279.8" stroke="#bcc3cd" stroke-width="0.9" opacity="0.18" />
  <line x1="547.7" y1="298.7" x2="546.7" y2="262.8" stroke="#bcc3cd" stroke-width="0.9" opacity="0.17" />
  <line x1="547.7" y1="298.7" x2="574.8" y2="269.7" stroke="#bcc3cd" stroke-width="0.9" opacity="0.17" />
  <line x1="547.7" y1="298.7" x2="538.3" y2="267.9" stroke="#bcc3cd" stroke-width="0.9" opacity="0.20" />
  <line x1="515.8" y1="292.7" x2="546.7" y2="262.8" stroke="#bcc3cd" stroke-width="0.9" opacity="0.17" />
  <line x1="515.8" y1="292.7" x2="574.8" y2="269.7" stroke="#bcc3cd" stroke-width="0.9" opacity="0.17" />
  <line x1="515.8" y1="292.7" x2="538.3" y2="267.9" stroke="#bcc3cd" stroke-width="0.9" opacity="0.20" />
  <line x1="435.8" y1="227.8" x2="495.0" y2="257.5" stroke="#bcc3cd" stroke-width="1.3" opacity="0.44" />
  <line x1="435.8" y1="227.8" x2="467.6" y2="218.0" stroke="#bcc3cd" stroke-width="0.9" opacity="0.18" />
  <line x1="495.0" y1="257.5" x2="536.9" y2="239.0" stroke="#bcc3cd" stroke-width="1.1" opacity="0.31" />
  <line x1="495.0" y1="257.5" x2="540.4" y2="255.3" stroke="#bcc3cd" stroke-width="0.9" opacity="0.20" />
  <line x1="495.0" y1="257.5" x2="546.7" y2="262.8" stroke="#bcc3cd" stroke-width="1.0" opacity="0.24" />
  <line x1="495.0" y1="257.5" x2="591.8" y2="271.8" stroke="#bcc3cd" stroke-width="0.9" opacity="0.20" />
  <line x1="495.0" y1="257.5" x2="574.8" y2="269.7" stroke="#bcc3cd" stroke-width="1.0" opacity="0.24" />
  <line x1="495.0" y1="257.5" x2="570.9" y2="254.7" stroke="#bcc3cd" stroke-width="0.9" opacity="0.18" />
  <line x1="495.0" y1="257.5" x2="425.8" y2="347.3" stroke="#bcc3cd" stroke-width="0.9" opacity="0.17" />
  <line x1="495.0" y1="257.5" x2="523.6" y2="235.6" stroke="#bcc3cd" stroke-width="1.1" opacity="0.31" />
  <line x1="495.0" y1="257.5" x2="467.6" y2="218.0" stroke="#bcc3cd" stroke-width="1.1" opacity="0.30" />
  <line x1="495.0" y1="257.5" x2="538.3" y2="267.9" stroke="#bcc3cd" stroke-width="1.1" opacity="0.31" />
  <line x1="218.0" y1="494.9" x2="243.2" y2="500.0" stroke="#bcc3cd" stroke-width="1.6" opacity="0.60" />
  <line x1="778.2" y1="316.2" x2="644.2" y2="290.8" stroke="#bcc3cd" stroke-width="0.9" opacity="0.18" />
  <line x1="778.2" y1="316.2" x2="852.4" y2="331.4" stroke="#bcc3cd" stroke-width="1.1" opacity="0.28" />
  <line x1="633.9" y1="256.9" x2="615.9" y2="285.3" stroke="#bcc3cd" stroke-width="0.9" opacity="0.17" />
  <line x1="633.9" y1="256.9" x2="644.2" y2="290.8" stroke="#bcc3cd" stroke-width="0.9" opacity="0.18" />
  <line x1="633.9" y1="256.9" x2="594.2" y2="280.5" stroke="#bcc3cd" stroke-width="1.0" opacity="0.22" />
  <line x1="633.9" y1="256.9" x2="591.8" y2="271.8" stroke="#bcc3cd" stroke-width="1.1" opacity="0.28" />
  <line x1="633.9" y1="256.9" x2="617.8" y2="269.7" stroke="#bcc3cd" stroke-width="1.1" opacity="0.32" />
  <line x1="633.9" y1="256.9" x2="574.8" y2="269.7" stroke="#bcc3cd" stroke-width="0.9" opacity="0.20" />
  <line x1="633.9" y1="256.9" x2="633.4" y2="275.2" stroke="#bcc3cd" stroke-width="1.0" opacity="0.22" />
  <line x1="633.9" y1="256.9" x2="592.1" y2="236.7" stroke="#bcc3cd" stroke-width="1.0" opacity="0.22" />
  <line x1="615.9" y1="285.3" x2="644.2" y2="290.8" stroke="#bcc3cd" stroke-width="1.3" opacity="0.42" />
  <line x1="615.9" y1="285.3" x2="657.6" y2="266.0" stroke="#bcc3cd" stroke-width="0.9" opacity="0.18" />
  <line x1="615.9" y1="285.3" x2="610.6" y2="296.6" stroke="#bcc3cd" stroke-width="1.1" opacity="0.31" />
  <line x1="615.9" y1="285.3" x2="594.2" y2="280.5" stroke="#bcc3cd" stroke-width="1.1" opacity="0.32" />
  <line x1="615.9" y1="285.3" x2="574.7" y2="279.8" stroke="#bcc3cd" stroke-width="1.0" opacity="0.23" />
  <line x1="615.9" y1="285.3" x2="591.8" y2="271.8" stroke="#bcc3cd" stroke-width="1.2" opacity="0.39" />
  <line x1="615.9" y1="285.3" x2="617.8" y2="269.7" stroke="#bcc3cd" stroke-width="1.0" opacity="0.26" />
  <line x1="615.9" y1="285.3" x2="574.8" y2="269.7" stroke="#bcc3cd" stroke-width="1.2" opacity="0.34" />
  <line x1="615.9" y1="285.3" x2="570.9" y2="254.7" stroke="#bcc3cd" stroke-width="0.9" opacity="0.19" />
  <line x1="615.9" y1="285.3" x2="633.4" y2="275.2" stroke="#bcc3cd" stroke-width="1.0" opacity="0.25" />
  <line x1="615.9" y1="285.3" x2="538.3" y2="267.9" stroke="#bcc3cd" stroke-width="0.9" opacity="0.17" />
  <line x1="644.2" y1="290.8" x2="657.6" y2="266.0" stroke="#bcc3cd" stroke-width="1.1" opacity="0.33" />
  <line x1="644.2" y1="290.8" x2="610.6" y2="296.6" stroke="#bcc3cd" stroke-width="0.9" opacity="0.21" />
  <line x1="644.2" y1="290.8" x2="594.2" y2="280.5" stroke="#bcc3cd" stroke-width="0.9" opacity="0.18" />
  <line x1="644.2" y1="290.8" x2="591.8" y2="271.8" stroke="#bcc3cd" stroke-width="1.3" opacity="0.41" />
  <line x1="644.2" y1="290.8" x2="617.8" y2="269.7" stroke="#bcc3cd" stroke-width="1.0" opacity="0.22" />
  <line x1="644.2" y1="290.8" x2="574.8" y2="269.7" stroke="#bcc3cd" stroke-width="1.1" opacity="0.31" />
  <line x1="644.2" y1="290.8" x2="633.4" y2="275.2" stroke="#bcc3cd" stroke-width="1.7" opacity="0.66" />
  <line x1="556.7" y1="241.9" x2="536.9" y2="239.0" stroke="#bcc3cd" stroke-width="1.5" opacity="0.55" />
  <line x1="556.7" y1="241.9" x2="540.4" y2="255.3" stroke="#bcc3cd" stroke-width="0.9" opacity="0.18" />
  <line x1="556.7" y1="241.9" x2="546.7" y2="262.8" stroke="#bcc3cd" stroke-width="1.1" opacity="0.28" />
  <line x1="556.7" y1="241.9" x2="591.8" y2="271.8" stroke="#bcc3cd" stroke-width="0.9" opacity="0.18" />
  <line x1="556.7" y1="241.9" x2="574.8" y2="269.7" stroke="#bcc3cd" stroke-width="1.1" opacity="0.28" />
  <line x1="556.7" y1="241.9" x2="554.0" y2="231.4" stroke="#bcc3cd" stroke-width="1.5" opacity="0.55" />
  <line x1="556.7" y1="241.9" x2="592.1" y2="236.7" stroke="#bcc3cd" stroke-width="1.2" opacity="0.37" />
  <line x1="556.7" y1="241.9" x2="523.6" y2="235.6" stroke="#bcc3cd" stroke-width="1.5" opacity="0.55" />
  <line x1="556.7" y1="241.9" x2="538.3" y2="267.9" stroke="#bcc3cd" stroke-width="1.5" opacity="0.55" />
  <line x1="536.9" y1="239.0" x2="546.7" y2="262.8" stroke="#bcc3cd" stroke-width="1.0" opacity="0.22" />
  <line x1="536.9" y1="239.0" x2="574.8" y2="269.7" stroke="#bcc3cd" stroke-width="1.0" opacity="0.22" />
  <line x1="536.9" y1="239.0" x2="554.0" y2="231.4" stroke="#bcc3cd" stroke-width="1.2" opacity="0.37" />
  <line x1="536.9" y1="239.0" x2="592.1" y2="236.7" stroke="#bcc3cd" stroke-width="1.1" opacity="0.28" />
  <line x1="536.9" y1="239.0" x2="523.6" y2="235.6" stroke="#bcc3cd" stroke-width="1.2" opacity="0.37" />
  <line x1="536.9" y1="239.0" x2="538.3" y2="267.9" stroke="#bcc3cd" stroke-width="1.2" opacity="0.37" />
  <line x1="657.6" y1="266.0" x2="591.8" y2="271.8" stroke="#bcc3cd" stroke-width="0.9" opacity="0.18" />
  <line x1="657.6" y1="266.0" x2="617.8" y2="269.7" stroke="#bcc3cd" stroke-width="0.9" opacity="0.18" />
  <line x1="657.6" y1="266.0" x2="574.8" y2="269.7" stroke="#bcc3cd" stroke-width="1.0" opacity="0.22" />
  <line x1="657.6" y1="266.0" x2="633.4" y2="275.2" stroke="#bcc3cd" stroke-width="1.3" opacity="0.41" />
  <line x1="610.6" y1="296.6" x2="594.2" y2="280.5" stroke="#bcc3cd" stroke-width="1.1" opacity="0.31" />
  <line x1="610.6" y1="296.6" x2="591.8" y2="271.8" stroke="#bcc3cd" stroke-width="1.4" opacity="0.47" />
  <line x1="610.6" y1="296.6" x2="617.8" y2="269.7" stroke="#bcc3cd" stroke-width="0.9" opacity="0.19" />
  <line x1="610.6" y1="296.6" x2="574.8" y2="269.7" stroke="#bcc3cd" stroke-width="1.0" opacity="0.22" />
  <line x1="594.2" y1="280.5" x2="574.7" y2="279.8" stroke="#bcc3cd" stroke-width="1.1" opacity="0.29" />
  <line x1="594.2" y1="280.5" x2="540.4" y2="255.3" stroke="#bcc3cd" stroke-width="0.9" opacity="0.17" />
  <line x1="594.2" y1="280.5" x2="546.7" y2="262.8" stroke="#bcc3cd" stroke-width="0.9" opacity="0.20" />
  <line x1="594.2" y1="280.5" x2="591.8" y2="271.8" stroke="#bcc3cd" stroke-width="1.3" opacity="0.40" />
  <line x1="594.2" y1="280.5" x2="617.8" y2="269.7" stroke="#bcc3cd" stroke-width="1.0" opacity="0.24" />
  <line x1="594.2" y1="280.5" x2="574.8" y2="269.7" stroke="#bcc3cd" stroke-width="0.9" opacity="0.20" />
  <line x1="594.2" y1="280.5" x2="538.3" y2="267.9" stroke="#bcc3cd" stroke-width="1.0" opacity="0.24" />
  <line x1="574.7" y1="279.8" x2="546.7" y2="262.8" stroke="#bcc3cd" stroke-width="0.9" opacity="0.18" />
  <line x1="574.7" y1="279.8" x2="617.8" y2="269.7" stroke="#bcc3cd" stroke-width="1.0" opacity="0.23" />
  <line x1="574.7" y1="279.8" x2="574.8" y2="269.7" stroke="#bcc3cd" stroke-width="0.9" opacity="0.18" />
  <line x1="574.7" y1="279.8" x2="570.9" y2="254.7" stroke="#bcc3cd" stroke-width="1.0" opacity="0.24" />
  <line x1="574.7" y1="279.8" x2="538.3" y2="267.9" stroke="#bcc3cd" stroke-width="1.0" opacity="0.22" />
  <line x1="540.4" y1="255.3" x2="546.7" y2="262.8" stroke="#bcc3cd" stroke-width="1.1" opacity="0.28" />
  <line x1="540.4" y1="255.3" x2="591.8" y2="271.8" stroke="#bcc3cd" stroke-width="1.0" opacity="0.22" />
  <line x1="540.4" y1="255.3" x2="574.8" y2="269.7" stroke="#bcc3cd" stroke-width="1.1" opacity="0.28" />
  <line x1="540.4" y1="255.3" x2="570.9" y2="254.7" stroke="#bcc3cd" stroke-width="0.9" opacity="0.20" />
  <line x1="540.4" y1="255.3" x2="538.3" y2="267.9" stroke="#bcc3cd" stroke-width="1.2" opacity="0.37" />
  <line x1="546.7" y1="262.8" x2="591.8" y2="271.8" stroke="#bcc3cd" stroke-width="1.1" opacity="0.28" />
  <line x1="546.7" y1="262.8" x2="574.8" y2="269.7" stroke="#bcc3cd" stroke-width="1.2" opacity="0.37" />
  <line x1="546.7" y1="262.8" x2="554.0" y2="231.4" stroke="#bcc3cd" stroke-width="1.0" opacity="0.22" />
  <line x1="546.7" y1="262.8" x2="570.9" y2="254.7" stroke="#bcc3cd" stroke-width="1.0" opacity="0.24" />
  <line x1="546.7" y1="262.8" x2="592.1" y2="236.7" stroke="#bcc3cd" stroke-width="0.9" opacity="0.18" />
  <line x1="546.7" y1="262.8" x2="523.6" y2="235.6" stroke="#bcc3cd" stroke-width="1.0" opacity="0.22" />
  <line x1="546.7" y1="262.8" x2="538.3" y2="267.9" stroke="#bcc3cd" stroke-width="1.5" opacity="0.55" />
  <line x1="591.8" y1="271.8" x2="617.8" y2="269.7" stroke="#bcc3cd" stroke-width="1.1" opacity="0.29" />
  <line x1="591.8" y1="271.8" x2="574.8" y2="269.7" stroke="#bcc3cd" stroke-width="1.4" opacity="0.47" />
  <line x1="591.8" y1="271.8" x2="570.9" y2="254.7" stroke="#bcc3cd" stroke-width="0.9" opacity="0.20" />
  <line x1="591.8" y1="271.8" x2="633.4" y2="275.2" stroke="#bcc3cd" stroke-width="1.1" opacity="0.31" />
  <line x1="591.8" y1="271.8" x2="592.1" y2="236.7" stroke="#bcc3cd" stroke-width="1.1" opacity="0.31" />
  <line x1="591.8" y1="271.8" x2="538.3" y2="267.9" stroke="#bcc3cd" stroke-width="1.2" opacity="0.37" />
  <line x1="617.8" y1="269.7" x2="574.8" y2="269.7" stroke="#bcc3cd" stroke-width="1.2" opacity="0.34" />
  <line x1="617.8" y1="269.7" x2="633.4" y2="275.2" stroke="#bcc3cd" stroke-width="1.0" opacity="0.25" />
  <line x1="617.8" y1="269.7" x2="592.1" y2="236.7" stroke="#bcc3cd" stroke-width="1.0" opacity="0.25" />
  <line x1="617.8" y1="269.7" x2="538.3" y2="267.9" stroke="#bcc3cd" stroke-width="0.9" opacity="0.17" />
  <line x1="574.8" y1="269.7" x2="554.0" y2="231.4" stroke="#bcc3cd" stroke-width="1.0" opacity="0.22" />
  <line x1="574.8" y1="269.7" x2="570.9" y2="254.7" stroke="#bcc3cd" stroke-width="1.0" opacity="0.24" />
  <line x1="574.8" y1="269.7" x2="633.4" y2="275.2" stroke="#bcc3cd" stroke-width="1.3" opacity="0.44" />
  <line x1="574.8" y1="269.7" x2="592.1" y2="236.7" stroke="#bcc3cd" stroke-width="1.3" opacity="0.44" />
  <line x1="574.8" y1="269.7" x2="523.6" y2="235.6" stroke="#bcc3cd" stroke-width="1.0" opacity="0.22" />
  <line x1="574.8" y1="269.7" x2="538.3" y2="267.9" stroke="#bcc3cd" stroke-width="1.5" opacity="0.55" />
  <line x1="713.9" y1="50.0" x2="731.0" y2="70.0" stroke="#bcc3cd" stroke-width="1.0" opacity="0.22" />
  <line x1="434.2" y1="247.8" x2="538.3" y2="267.9" stroke="#bcc3cd" stroke-width="1.0" opacity="0.22" />
  <line x1="554.0" y1="231.4" x2="592.1" y2="236.7" stroke="#bcc3cd" stroke-width="1.1" opacity="0.28" />
  <line x1="554.0" y1="231.4" x2="523.6" y2="235.6" stroke="#bcc3cd" stroke-width="1.2" opacity="0.37" />
  <line x1="554.0" y1="231.4" x2="538.3" y2="267.9" stroke="#bcc3cd" stroke-width="1.2" opacity="0.37" />
  <line x1="406.0" y1="384.9" x2="437.3" y2="381.9" stroke="#bcc3cd" stroke-width="1.5" opacity="0.55" />
  <line x1="406.0" y1="384.9" x2="425.8" y2="347.3" stroke="#bcc3cd" stroke-width="1.3" opacity="0.41" />
  <line x1="437.3" y1="381.9" x2="425.8" y2="347.3" stroke="#bcc3cd" stroke-width="1.0" opacity="0.24" />
  <line x1="570.9" y1="254.7" x2="538.3" y2="267.9" stroke="#bcc3cd" stroke-width="1.1" opacity="0.31" />
  <line x1="633.4" y1="275.2" x2="592.1" y2="236.7" stroke="#bcc3cd" stroke-width="1.0" opacity="0.22" />
  <line x1="592.1" y1="236.7" x2="625.2" y2="195.0" stroke="#bcc3cd" stroke-width="1.2" opacity="0.37" />
  <line x1="592.1" y1="236.7" x2="635.4" y2="179.2" stroke="#bcc3cd" stroke-width="0.9" opacity="0.18" />
  <line x1="592.1" y1="236.7" x2="523.6" y2="235.6" stroke="#bcc3cd" stroke-width="1.1" opacity="0.28" />
  <line x1="592.1" y1="236.7" x2="538.3" y2="267.9" stroke="#bcc3cd" stroke-width="1.1" opacity="0.28" />
  <line x1="625.2" y1="195.0" x2="635.4" y2="179.2" stroke="#bcc3cd" stroke-width="1.1" opacity="0.28" />
  <line x1="523.6" y1="235.6" x2="467.6" y2="218.0" stroke="#bcc3cd" stroke-width="1.1" opacity="0.31" />
  <line x1="523.6" y1="235.6" x2="538.3" y2="267.9" stroke="#bcc3cd" stroke-width="1.2" opacity="0.37" />
  <circle cx="546.7" cy="309.5" r="15.8" fill="#7f8c8d" opacity="0.88" />
  <circle cx="603.2" cy="323.3" r="16" fill="#3498db" opacity="0.88" />
  <circle cx="509.3" cy="337.7" r="16" fill="#7f8c8d" opacity="0.88" />
  <circle cx="531.8" cy="303.1" r="13.1" fill="#e67e22" opacity="0.88" />
  <circle cx="501.6" cy="272.5" r="13.1" fill="#e67e22" opacity="0.88" />
  <circle cx="476.7" cy="317.7" r="8.6" fill="#3498db" opacity="0.88" />
  <circle cx="388.5" cy="322.3" r="11.3" fill="#3498db" opacity="0.88" />
  <circle cx="506.6" cy="349.1" r="16" fill="#2ecc71" opacity="0.88" />
  <circle cx="532.9" cy="292.3" r="12.2" fill="#3498db" opacity="0.88" />
  <circle cx="440.3" cy="332.5" r="12.2" fill="#7f8c8d" opacity="0.88" />
  <circle cx="508.1" cy="316.8" r="14.9" fill="#7f8c8d" opacity="0.88" />
  <circle cx="406.4" cy="332.9" r="9.5" fill="#7f8c8d" opacity="0.88" />
  <circle cx="542.8" cy="331.1" r="14.9" fill="#3498db" opacity="0.88" />
  <circle cx="579.1" cy="303.2" r="16" fill="#7f8c8d" opacity="0.88" />
  <circle cx="645.1" cy="312.9" r="16" fill="#e74c3c" opacity="0.88" />
  <circle cx="662.3" cy="275.7" r="16" fill="#9b59b6" opacity="0.88" />
  <circle cx="547.7" cy="298.7" r="14.0" fill="#3498db" opacity="0.88" />
  <circle cx="515.8" cy="292.7" r="14.0" fill="#3498db" opacity="0.88" />
  <circle cx="435.8" cy="227.8" r="10.4" fill="#e74c3c" opacity="0.88" />
  <circle cx="910.0" cy="133.4" r="12.2" fill="#3498db" opacity="0.88" />
  <circle cx="495.0" cy="257.5" r="10.4" fill="#e74c3c" opacity="0.88" />
  <circle cx="218.0" cy="494.9" r="12.2" fill="#3498db" opacity="0.88" />
  <circle cx="243.2" cy="500.0" r="11.3" fill="#3498db" opacity="0.88" />
  <circle cx="778.2" cy="316.2" r="5.9" fill="#3498db" opacity="0.88" />
  <circle cx="633.9" cy="256.9" r="12.2" fill="#9b59b6" opacity="0.88" />
  <circle cx="615.9" cy="285.3" r="15.8" fill="#9b59b6" opacity="0.88" />
  <circle cx="644.2" cy="290.8" r="8.6" fill="#9b59b6" opacity="0.88" />
  <circle cx="556.7" cy="241.9" r="5" fill="#2ecc71" opacity="0.88" />
  <circle cx="536.9" cy="239.0" r="5.9" fill="#7f8c8d" opacity="0.88" />
  <circle cx="657.6" cy="266.0" r="11.3" fill="#e67e22" opacity="0.88" />
  <circle cx="610.6" cy="296.6" r="16" fill="#2ecc71" opacity="0.88" />
  <circle cx="852.4" cy="331.4" r="6.8" fill="#9b59b6" opacity="0.88" />
  <circle cx="97.9" cy="397.3" r="5" fill="#7f8c8d" opacity="0.88" />
  <circle cx="594.2" cy="280.5" r="12.2" fill="#3498db" opacity="0.88" />
  <circle cx="574.7" cy="279.8" r="13.1" fill="#7f8c8d" opacity="0.88" />
  <circle cx="540.4" cy="255.3" r="9.5" fill="#7f8c8d" opacity="0.88" />
  <circle cx="50.0" cy="321.8" r="5" fill="#7f8c8d" opacity="0.88" />
  <circle cx="546.7" cy="262.8" r="7.7" fill="#7f8c8d" opacity="0.88" />
  <circle cx="591.8" cy="271.8" r="9.5" fill="#7f8c8d" opacity="0.88" />
  <circle cx="617.8" cy="269.7" r="15.8" fill="#2ecc71" opacity="0.88" />
  <circle cx="574.8" cy="269.7" r="7.7" fill="#7f8c8d" opacity="0.88" />
  <circle cx="713.9" cy="50.0" r="7.7" fill="#7f8c8d" opacity="0.88" />
  <circle cx="434.2" cy="247.8" r="7.7" fill="#3498db" opacity="0.88" />
  <circle cx="554.0" cy="231.4" r="5.9" fill="#7f8c8d" opacity="0.88" />
  <circle cx="406.0" cy="384.9" r="6.8" fill="#e67e22" opacity="0.88" />
  <circle cx="437.3" cy="381.9" r="6.8" fill="#e67e22" opacity="0.88" />
  <circle cx="570.9" cy="254.7" r="10.4" fill="#7f8c8d" opacity="0.88" />
  <circle cx="425.8" cy="347.3" r="11.3" fill="#e67e22" opacity="0.88" />
  <circle cx="731.0" cy="70.0" r="5.9" fill="#7f8c8d" opacity="0.88" />
  <circle cx="633.4" cy="275.2" r="6.8" fill="#7f8c8d" opacity="0.88" />
  <circle cx="592.1" cy="236.7" r="6.8" fill="#7f8c8d" opacity="0.88" />
  <circle cx="625.2" cy="195.0" r="5" fill="#2ecc71" opacity="0.88" />
  <circle cx="635.4" cy="179.2" r="7.7" fill="#2ecc71" opacity="0.88" />
  <circle cx="523.6" cy="235.6" r="5.9" fill="#e74c3c" opacity="0.88" />
  <circle cx="467.6" cy="218.0" r="10.4" fill="#e74c3c" opacity="0.88" />
  <circle cx="538.3" cy="267.9" r="5.9" fill="#7f8c8d" opacity="0.88" />
  <circle cx="841.2" cy="498.1" r="5" fill="#7f8c8d" opacity="0.88" />
  <rect x="564.5" y="285.8" width="124.4" height="15" fill="#ffffff" opacity="0.75" rx="2" />
  <text x="565.5" y="296.8" font-family="system-ui, -apple-system, sans-serif" font-size="12" fill="#1f2328" text-anchor="start">tinyland-huskycat</text>
  <rect x="621.2" y="235.0" width="117.2" height="15" fill="#ffffff" opacity="0.75" rx="2" />
  <text x="622.2" y="246.0" font-family="system-ui, -apple-system, sans-serif" font-size="12" fill="#1f2328" text-anchor="start">GloriousFlywheel</text>
  <rect x="527.3" y="413.8" width="74.0" height="15" fill="#ffffff" opacity="0.75" rx="2" />
  <text x="528.3" y="424.8" font-family="system-ui, -apple-system, sans-serif" font-size="12" fill="#1f2328" text-anchor="start">tummycrypt</text>
  <rect x="546.9" y="250.9" width="45.2" height="15" fill="#ffffff" opacity="0.75" rx="2" />
  <text x="547.9" y="261.9" font-family="system-ui, -apple-system, sans-serif" font-size="12" fill="#1f2328" text-anchor="start">XoxdWM</text>
  <rect x="516.7" y="313.4" width="110.0" height="15" fill="#ffffff" opacity="0.75" rx="2" />
  <text x="517.7" y="324.4" font-family="system-ui, -apple-system, sans-serif" font-size="12" fill="#1f2328" text-anchor="start">hiberpower-ntfs</text>
  <rect x="487.3" y="285.5" width="16.4" height="15" fill="#ffffff" opacity="0.75" rx="2" />
  <text x="488.3" y="296.5" font-family="system-ui, -apple-system, sans-serif" font-size="12" fill="#1f2328" text-anchor="start">pp</text>
  <rect x="401.8" y="381.7" width="117.2" height="15" fill="#ffffff" opacity="0.75" rx="2" />
  <text x="402.8" y="392.7" font-family="system-ui, -apple-system, sans-serif" font-size="12" fill="#1f2328" text-anchor="start">tinyland-cleanup</text>
  <rect x="524.6" y="381.9" width="59.6" height="15" fill="#ffffff" opacity="0.75" rx="2" />
  <text x="525.6" y="392.9" font-family="system-ui, -apple-system, sans-serif" font-size="12" fill="#1f2328" text-anchor="start">gnucashr</text>
  <rect x="547.1" y="307.4" width="66.8" height="15" fill="#ffffff" opacity="0.75" rx="2" />
  <text x="548.1" y="318.4" font-family="system-ui, -apple-system, sans-serif" font-size="12" fill="#1f2328" text-anchor="start">betterkvm</text>
  <rect x="454.5" y="337.5" width="131.6" height="15" fill="#ffffff" opacity="0.75" rx="2" />
  <text x="455.5" y="348.5" font-family="system-ui, -apple-system, sans-serif" font-size="12" fill="#1f2328" text-anchor="start">aperture-bootstrap</text>
  <rect x="525.0" y="325.4" width="81.2" height="15" fill="#ffffff" opacity="0.75" rx="2" />
  <text x="526.0" y="336.4" font-family="system-ui, -apple-system, sans-serif" font-size="12" fill="#1f2328" text-anchor="start">tailnet-acl</text>
  <rect x="417.9" y="300.9" width="88.4" height="15" fill="#ffffff" opacity="0.75" rx="2" />
  <text x="418.9" y="311.9" font-family="system-ui, -apple-system, sans-serif" font-size="12" fill="#1f2328" text-anchor="start">waifu-mirror</text>
  <rect x="559.7" y="366.5" width="102.8" height="15" fill="#ffffff" opacity="0.75" rx="2" />
  <text x="560.7" y="377.5" font-family="system-ui, -apple-system, sans-serif" font-size="12" fill="#1f2328" text-anchor="start">tinyland-infra</text>
  <rect x="597.1" y="348.4" width="52.4" height="15" fill="#ffffff" opacity="0.75" rx="2" />
  <text x="598.1" y="359.4" font-family="system-ui, -apple-system, sans-serif" font-size="12" fill="#1f2328" text-anchor="start">LA-Mesh</text>
  <rect x="663.1" y="203.2" width="131.6" height="15" fill="#ffffff" opacity="0.75" rx="2" />
  <text x="664.1" y="214.2" font-family="system-ui, -apple-system, sans-serif" font-size="12" fill="#1f2328" text-anchor="start">pixelwise-research</text>
  <rect x="680.3" y="158.4" width="95.6" height="15" fill="#ffffff" opacity="0.75" rx="2" />
  <text x="681.3" y="169.4" font-family="system-ui, -apple-system, sans-serif" font-size="12" fill="#1f2328" text-anchor="start">GIS_Shortcuts</text>
  <rect x="563.7" y="398.6" width="138.8" height="15" fill="#ffffff" opacity="0.75" rx="2" />
  <text x="564.7" y="409.6" font-family="system-ui, -apple-system, sans-serif" font-size="12" fill="#1f2328" text-anchor="start">Ansible-DAG-Harness</text>
  <rect x="531.8" y="168.9" width="95.6" height="15" fill="#ffffff" opacity="0.75" rx="2" />
  <text x="532.8" y="179.9" font-family="system-ui, -apple-system, sans-serif" font-size="12" fill="#1f2328" text-anchor="start">DarwinNicUtil</text>
  <rect x="448.2" y="224.6" width="66.8" height="15" fill="#ffffff" opacity="0.75" rx="2" />
  <text x="449.2" y="235.6" font-family="system-ui, -apple-system, sans-serif" font-size="12" fill="#1f2328" text-anchor="start">quickchpl</text>
  <rect x="764.2" y="126.6" width="131.6" height="15" fill="#ffffff" opacity="0.75" rx="2" />
  <text x="894.8" y="137.6" font-family="system-ui, -apple-system, sans-serif" font-size="12" fill="#1f2328" text-anchor="end">tinyscale-mikrotik</text>
  <rect x="507.4" y="349.4" width="59.6" height="15" fill="#ffffff" opacity="0.75" rx="2" />
  <text x="508.4" y="360.4" font-family="system-ui, -apple-system, sans-serif" font-size="12" fill="#1f2328" text-anchor="start">aoc-2025</text>
  <rect x="232.2" y="482.2" width="66.8" height="15" fill="#ffffff" opacity="0.75" rx="2" />
  <text x="233.2" y="493.2" font-family="system-ui, -apple-system, sans-serif" font-size="12" fill="#1f2328" text-anchor="start">searchies</text>
  <rect x="256.5" y="499.2" width="59.6" height="15" fill="#ffffff" opacity="0.75" rx="2" />
  <text x="257.5" y="510.2" font-family="system-ui, -apple-system, sans-serif" font-size="12" fill="#1f2328" text-anchor="start">ts-caddy</text>
  <rect x="786.1" y="314.1" width="66.8" height="15" fill="#ffffff" opacity="0.75" rx="2" />
  <text x="787.1" y="325.1" font-family="system-ui, -apple-system, sans-serif" font-size="12" fill="#1f2328" text-anchor="start">HCI-notes</text>
  <rect x="648.1" y="348.8" width="88.4" height="15" fill="#ffffff" opacity="0.75" rx="2" />
  <text x="649.1" y="359.8" font-family="system-ui, -apple-system, sans-serif" font-size="12" fill="#1f2328" text-anchor="start">FastPhotoAPI</text>
  <rect x="633.7" y="381.6" width="81.2" height="15" fill="#ffffff" opacity="0.75" rx="2" />
  <text x="634.7" y="392.6" font-family="system-ui, -apple-system, sans-serif" font-size="12" fill="#1f2328" text-anchor="start">timberbuddy</text>
  <rect x="654.8" y="173.3" width="81.2" height="15" fill="#ffffff" opacity="0.75" rx="2" />
  <text x="655.8" y="184.3" font-family="system-ui, -apple-system, sans-serif" font-size="12" fill="#1f2328" text-anchor="start">tetrahedron</text>
  <rect x="563.7" y="206.6" width="95.6" height="15" fill="#ffffff" opacity="0.75" rx="2" />
  <text x="564.7" y="217.6" font-family="system-ui, -apple-system, sans-serif" font-size="12" fill="#1f2328" text-anchor="start">AccuWixReport</text>
  <rect x="544.8" y="199.1" width="95.6" height="15" fill="#ffffff" opacity="0.75" rx="2" />
  <text x="545.8" y="210.1" font-family="system-ui, -apple-system, sans-serif" font-size="12" fill="#1f2328" text-anchor="start">Jess-AOC-2023</text>
  <rect x="670.9" y="188.3" width="81.2" height="15" fill="#ffffff" opacity="0.75" rx="2" />
  <text x="671.9" y="199.3" font-family="system-ui, -apple-system, sans-serif" font-size="12" fill="#1f2328" text-anchor="start">TurkeyProbe</text>
  <rect x="628.6" y="319.4" width="153.2" height="15" fill="#ffffff" opacity="0.75" rx="2" />
  <text x="629.6" y="330.4" font-family="system-ui, -apple-system, sans-serif" font-size="12" fill="#1f2328" text-anchor="start">MerlinAI-Interpreters</text>
  <rect x="733.6" y="363.4" width="110.0" height="15" fill="#ffffff" opacity="0.75" rx="2" />
  <text x="842.6" y="374.4" font-family="system-ui, -apple-system, sans-serif" font-size="12" fill="#1f2328" text-anchor="end">IntroTypeScript</text>
  <rect x="104.9" y="390.5" width="110.0" height="15" fill="#ffffff" opacity="0.75" rx="2" />
  <text x="105.9" y="401.5" font-family="system-ui, -apple-system, sans-serif" font-size="12" fill="#1f2328" text-anchor="start">IG-3DP-Profiles</text>
  <rect x="608.4" y="334.2" width="66.8" height="15" fill="#ffffff" opacity="0.75" rx="2" />
  <text x="609.4" y="345.2" font-family="system-ui, -apple-system, sans-serif" font-size="12" fill="#1f2328" text-anchor="start">DLA-Flask</text>
  <rect x="589.8" y="382.0" width="38.0" height="15" fill="#ffffff" opacity="0.75" rx="2" />
  <text x="590.8" y="393.0" font-family="system-ui, -apple-system, sans-serif" font-size="12" fill="#1f2328" text-anchor="start">USBoN</text>
  <rect x="551.9" y="265.4" width="203.6" height="15" fill="#ffffff" opacity="0.75" rx="2" />
  <text x="552.9" y="276.4" font-family="system-ui, -apple-system, sans-serif" font-size="12" fill="#1f2328" text-anchor="start">chrome-remote-desktop-budgie</text>
  <rect x="57.0" y="315.0" width="124.4" height="15" fill="#ffffff" opacity="0.75" rx="2" />
  <text x="58.0" y="326.0" font-family="system-ui, -apple-system, sans-serif" font-size="12" fill="#1f2328" text-anchor="start">OminousBeepingApp</text>
  <rect x="556.4" y="290.4" width="138.8" height="15" fill="#ffffff" opacity="0.75" rx="2" />
  <text x="557.4" y="301.4" font-family="system-ui, -apple-system, sans-serif" font-size="12" fill="#1f2328" text-anchor="start">mo-image-identifier</text>
  <rect x="603.3" y="238.3" width="196.4" height="15" fill="#ffffff" opacity="0.75" rx="2" />
  <text x="604.3" y="249.3" font-family="system-ui, -apple-system, sans-serif" font-size="12" fill="#1f2328" text-anchor="start">squirrel-leaflet-annotation</text>
  <rect x="635.6" y="304.6" width="74.0" height="15" fill="#ffffff" opacity="0.75" rx="2" />
  <text x="636.6" y="315.6" font-family="system-ui, -apple-system, sans-serif" font-size="12" fill="#1f2328" text-anchor="start">Shiny-Apps</text>
  <rect x="584.5" y="141.3" width="138.8" height="15" fill="#ffffff" opacity="0.75" rx="2" />
  <text x="585.5" y="152.3" font-family="system-ui, -apple-system, sans-serif" font-size="12" fill="#1f2328" text-anchor="start">bbox-jest-puppeteer</text>
  <rect x="723.6" y="43.2" width="88.4" height="15" fill="#ffffff" opacity="0.75" rx="2" />
  <text x="724.6" y="54.2" font-family="system-ui, -apple-system, sans-serif" font-size="12" fill="#1f2328" text-anchor="start">DoverDisplay</text>
  <rect x="443.9" y="241.0" width="81.2" height="15" fill="#ffffff" opacity="0.75" rx="2" />
  <text x="444.9" y="252.0" font-family="system-ui, -apple-system, sans-serif" font-size="12" fill="#1f2328" text-anchor="start">LeafletSync</text>
  <rect x="561.9" y="275.5" width="167.6" height="15" fill="#ffffff" opacity="0.75" rx="2" />
  <text x="562.9" y="286.5" font-family="system-ui, -apple-system, sans-serif" font-size="12" fill="#1f2328" text-anchor="start">misc-roi-distance-notes</text>
  <rect x="414.8" y="428.8" width="138.8" height="15" fill="#ffffff" opacity="0.75" rx="2" />
  <text x="415.8" y="439.8" font-family="system-ui, -apple-system, sans-serif" font-size="12" fill="#1f2328" text-anchor="start">Arduino_Coil_Winder</text>
  <rect x="446.1" y="396.8" width="30.8" height="15" fill="#ffffff" opacity="0.75" rx="2" />
  <text x="447.1" y="407.8" font-family="system-ui, -apple-system, sans-serif" font-size="12" fill="#1f2328" text-anchor="start">momo</text>
  <rect x="583.3" y="155.4" width="38.0" height="15" fill="#ffffff" opacity="0.75" rx="2" />
  <text x="584.3" y="166.4" font-family="system-ui, -apple-system, sans-serif" font-size="12" fill="#1f2328" text-anchor="start">clipi</text>
  <rect x="439.1" y="366.4" width="110.0" height="15" fill="#ffffff" opacity="0.75" rx="2" />
  <text x="440.1" y="377.4" font-family="system-ui, -apple-system, sans-serif" font-size="12" fill="#1f2328" text-anchor="start">AeroTaz5_hotfix</text>
  <rect x="738.9" y="63.2" width="110.0" height="15" fill="#ffffff" opacity="0.75" rx="2" />
  <text x="739.9" y="74.2" font-family="system-ui, -apple-system, sans-serif" font-size="12" fill="#1f2328" text-anchor="start">Funmat-HT-Notes</text>
  <rect x="642.2" y="223.6" width="81.2" height="15" fill="#ffffff" opacity="0.75" rx="2" />
  <text x="643.2" y="234.6" font-family="system-ui, -apple-system, sans-serif" font-size="12" fill="#1f2328" text-anchor="start">static-site</text>
  <rect x="600.9" y="255.3" width="95.6" height="15" fill="#ffffff" opacity="0.75" rx="2" />
  <text x="601.9" y="266.3" font-family="system-ui, -apple-system, sans-serif" font-size="12" fill="#1f2328" text-anchor="start">Flask-Manager</text>
  <rect x="632.2" y="126.7" width="110.0" height="15" fill="#ffffff" opacity="0.75" rx="2" />
  <text x="633.2" y="137.7" font-family="system-ui, -apple-system, sans-serif" font-size="12" fill="#1f2328" text-anchor="start">FieldProcessing</text>
  <rect x="645.1" y="112.1" width="81.2" height="15" fill="#ffffff" opacity="0.75" rx="2" />
  <text x="646.1" y="123.1" font-family="system-ui, -apple-system, sans-serif" font-size="12" fill="#1f2328" text-anchor="start">rJDKmanager</text>
  <rect x="531.5" y="235.7" width="59.6" height="15" fill="#ffffff" opacity="0.75" rx="2" />
  <text x="532.5" y="246.7" font-family="system-ui, -apple-system, sans-serif" font-size="12" fill="#1f2328" text-anchor="start">tagnotes</text>
  <rect x="480.0" y="157.8" width="81.2" height="15" fill="#ffffff" opacity="0.75" rx="2" />
  <text x="481.0" y="168.8" font-family="system-ui, -apple-system, sans-serif" font-size="12" fill="#1f2328" text-anchor="start">ChapelTests</text>
  <rect x="546.2" y="182.1" width="88.4" height="15" fill="#ffffff" opacity="0.75" rx="2" />
  <text x="547.2" y="193.1" font-family="system-ui, -apple-system, sans-serif" font-size="12" fill="#1f2328" text-anchor="start">Xfinity-WiFi</text>
  <rect x="767.4" y="491.3" width="66.8" height="15" fill="#ffffff" opacity="0.75" rx="2" />
  <text x="833.2" y="502.3" font-family="system-ui, -apple-system, sans-serif" font-size="12" fill="#1f2328" text-anchor="end">home-wiki</text>
  <rect x="793" y="36" width="155" height="120" rx="6" fill="#f6f8fa" stroke="#d0d7de" stroke-width="1" opacity="0.95" />
  <circle cx="810" cy="52" r="5" fill="#e74c3c" opacity="0.88" />
  <text x="820" y="56" font-family="system-ui, -apple-system, sans-serif" font-size="10" fill="#1f2328">Languages &amp; Compilers</text>
  <circle cx="810" cy="69" r="5" fill="#3498db" opacity="0.88" />
  <text x="820" y="73" font-family="system-ui, -apple-system, sans-serif" font-size="10" fill="#1f2328">Infrastructure &amp; DevOps</text>
  <circle cx="810" cy="86" r="5" fill="#e67e22" opacity="0.88" />
  <text x="820" y="90" font-family="system-ui, -apple-system, sans-serif" font-size="10" fill="#1f2328">Hardware &amp; Maker</text>
  <circle cx="810" cy="103" r="5" fill="#2ecc71" opacity="0.88" />
  <text x="820" y="107" font-family="system-ui, -apple-system, sans-serif" font-size="10" fill="#1f2328">ML &amp; Data</text>
  <circle cx="810" cy="120" r="5" fill="#9b59b6" opacity="0.88" />
  <text x="820" y="124" font-family="system-ui, -apple-system, sans-serif" font-size="10" fill="#1f2328">Web &amp; Apps</text>
  <circle cx="810" cy="137" r="5" fill="#7f8c8d" opacity="0.88" />
  <text x="820" y="141" font-family="system-ui, -apple-system, sans-serif" font-size="10" fill="#1f2328">Other</text>
  <text x="870" y="150" font-family="system-ui, -apple-system, sans-serif" font-size="8" fill="#656d76" text-anchor="middle">57 repos · 218 edges</text>
</svg>