<svg xmlns="http://www.w3.org/2000/svg" width="960" height="600" viewBox="0 0 960 600">
  <rect width="960" height="600" fill="#ffffff" rx="8" />
  <text x="480" y="24" font-family="system-ui, -apple-system, sans-serif" font-size="13" fill="#656d76" text-anchor="middle" font-weight="500">Repo Relationship Graph &#x2014; Pairwise Topic &amp; Language Similarity</text>
  <line x1="50" y1="550" x2="910" y2="550" stroke="#d0d7de" stroke-width="0.5" opacity="0.5" />
  <text x="50" y="570" font-family="system-ui, -apple-system, sans-serif" font-size="9" fill="#656d76" opacity="0.6">Updated daily by GitHub Actions</text>
  <text x="50" y="588" font-family="system-ui, -apple-system, sans-serif" font-size="9" fill="#656d76" opacity="0.6">networkx spring_layout · Jaccard similarity &gt; 0.15</text>
  <text x="910" y="570" font-family="system-ui, -apple-system, sans-serif" font-size="9" fill="#656d76" text-anchor="end" opacity="0.6">54 repos · 206 edges</text>
  <line x1="632.3" y1="364.4" x2="692.0" y2="363.6" stroke="#bcc3cd" stroke-width="0.9" opacity="0.18" />
  <line x1="632.3" y1="364.4" x2="555.3" y2="410.0" stroke="#bcc3cd" stroke-width="0.9" opacity="0.18" />
  <line x1="632.3" y1="364.4" x2="646.2" y2="373.3" stroke="#bcc3cd" stroke-width="1.0" opacity="0.23" />
  <line x1="632.3" y1="364.4" x2="652.0" y2="347.2" stroke="#bcc3cd" stroke-width="1.0" opacity="0.22" />
  <line x1="632.3" y1="364.4" x2="568.7" y2="338.5" stroke="#bcc3cd" stroke-width="0.9" opacity="0.19" />
  <line x1="632.3" y1="364.4" x2="644.6" y2="380.1" stroke="#bcc3cd" stroke-width="1.0" opacity="0.26" />
  <line x1="632.3" y1="364.4" x2="652.6" y2="362.8" stroke="#bcc3cd" stroke-width="1.1" opacity="0.29" />
  <line x1="632.3" y1="364.4" x2="667.2" y2="371.8" stroke="#bcc3cd" stroke-width="1.0" opacity="0.26" />
  <line x1="632.3" y1="364.4" x2="696.1" y2="383.3" stroke="#bcc3cd" stroke-width="1.0" opacity="0.23" />
  <line x1="632.3" y1="364.4" x2="686.0" y2="345.9" stroke="#bcc3cd" stroke-width="0.9" opacity="0.17" />
  <line x1="632.3" y1="364.4" x2="604.4" y2="314.6" stroke="#bcc3cd" stroke-width="1.0" opacity="0.24" />
  <line x1="632.3" y1="364.4" x2="613.7" y2="350.2" stroke="#bcc3cd" stroke-width="0.9" opacity="0.18" />
  <line x1="632.3" y1="364.4" x2="589.1" y2="358.1" stroke="#bcc3cd" stroke-width="1.1" opacity="0.30" />
  <line x1="632.3" y1="364.4" x2="625.3" y2="350.5" stroke="#bcc3cd" stroke-width="1.0" opacity="0.22" />
  <line x1="508.9" y1="407.6" x2="555.3" y2="410.0" stroke="#bcc3cd" stroke-width="1.0" opacity="0.25" />
  <line x1="508.9" y1="407.6" x2="555.0" y2="381.3" stroke="#bcc3cd" stroke-width="1.0" opacity="0.25" />
  <line x1="508.9" y1="407.6" x2="521.3" y2="383.3" stroke="#bcc3cd" stroke-width="1.1" opacity="0.29" />
  <line x1="508.9" y1="407.6" x2="534.8" y2="371.0" stroke="#bcc3cd" stroke-width="0.9" opacity="0.17" />
  <line x1="692.0" y1="363.6" x2="646.2" y2="373.3" stroke="#bcc3cd" stroke-width="1.0" opacity="0.24" />
  <line x1="692.0" y1="363.6" x2="722.0" y2="358.9" stroke="#bcc3cd" stroke-width="2.0" opacity="0.80" />
  <line x1="692.0" y1="363.6" x2="652.0" y2="347.2" stroke="#bcc3cd" stroke-width="1.0" opacity="0.22" />
  <line x1="692.0" y1="363.6" x2="644.6" y2="380.1" stroke="#bcc3cd" stroke-width="0.9" opacity="0.17" />
  <line x1="692.0" y1="363.6" x2="652.6" y2="362.8" stroke="#bcc3cd" stroke-width="0.9" opacity="0.20" />
  <line x1="692.0" y1="363.6" x2="667.2" y2="371.8" stroke="#bcc3cd" stroke-width="0.9" opacity="0.17" />
  <line x1="692.0" y1="363.6" x2="696.1" y2="383.3" stroke="#bcc3cd" stroke-width="1.0" opacity="0.23" />
  <line x1="692.0" y1="363.6" x2="686.0" y2="345.9" stroke="#bcc3cd" stroke-width="1.5" opacity="0.55" />
  <line x1="692.0" y1="363.6" x2="625.3" y2="350.5" stroke="#bcc3cd" stroke-width="1.0" opacity="0.22" />
  <line x1="555.3" y1="410.0" x2="555.0" y2="381.3" stroke="#bcc3cd" stroke-width="0.9" opacity="0.20" />
  <line x1="555.3" y1="410.0" x2="521.3" y2="383.3" stroke="#bcc3cd" stroke-width="1.0" opacity="0.22" />
  <line x1="646.2" y1="373.3" x2="652.0" y2="347.2" stroke="#bcc3cd" stroke-width="0.9" opacity="0.17" />
  <line x1="646.2" y1="373.3" x2="644.6" y2="380.1" stroke="#bcc3cd" stroke-width="1.0" opacity="0.22" />
  <line x1="646.2" y1="373.3" x2="652.6" y2="362.8" stroke="#bcc3cd" stroke-width="1.0" opacity="0.24" />
  <line x1="646.2" y1="373.3" x2="667.2" y2="371.8" stroke="#bcc3cd" stroke-width="1.0" opacity="0.22" />
  <line x1="646.2" y1="373.3" x2="696.1" y2="383.3" stroke="#bcc3cd" stroke-width="0.9" opacity="0.20" />
  <line x1="646.2" y1="373.3" x2="686.0" y2="345.9" stroke="#bcc3cd" stroke-width="1.0" opacity="0.22" />
  <line x1="646.2" y1="373.3" x2="575.3" y2="388.9" stroke="#bcc3cd" stroke-width="0.9" opacity="0.19" />
  <line x1="646.2" y1="373.3" x2="574.1" y2="362.6" stroke="#bcc3cd" stroke-width="0.9" opacity="0.21" />
  <line x1="646.2" y1="373.3" x2="589.1" y2="358.1" stroke="#bcc3cd" stroke-width="1.0" opacity="0.24" />
  <line x1="646.2" y1="373.3" x2="625.3" y2="350.5" stroke="#bcc3cd" stroke-width="0.9" opacity="0.17" />
  <line x1="510.7" y1="367.3" x2="555.0" y2="381.3" stroke="#bcc3cd" stroke-width="0.9" opacity="0.18" />
  <line x1="510.7" y1="367.3" x2="521.3" y2="383.3" stroke="#bcc3cd" stroke-width="0.9" opacity="0.18" />
  <line x1="510.7" y1="367.3" x2="574.1" y2="362.6" stroke="#bcc3cd" stroke-width="0.9" opacity="0.17" />
  <line x1="510.7" y1="367.3" x2="553.2" y2="367.0" stroke="#bcc3cd" stroke-width="1.3" opacity="0.42" />
  <line x1="510.7" y1="367.3" x2="589.1" y2="358.1" stroke="#bcc3cd" stroke-width="0.9" opacity="0.19" />
  <line x1="510.7" y1="367.3" x2="534.8" y2="371.0" stroke="#bcc3cd" stroke-width="0.9" opacity="0.21" />
  <line x1="722.0" y1="358.9" x2="652.0" y2="347.2" stroke="#bcc3cd" stroke-width="1.1" opacity="0.28" />
  <line x1="722.0" y1="358.9" x2="696.1" y2="383.3" stroke="#bcc3cd" stroke-width="0.9" opacity="0.17" />
  <line x1="722.0" y1="358.9" x2="686.0" y2="345.9" stroke="#bcc3cd" stroke-width="1.2" opacity="0.37" />
  <line x1="652.0" y1="347.2" x2="644.6" y2="380.1" stroke="#bcc3cd" stroke-width="0.9" opacity="0.20" />
  <line x1="652.0" y1="347.2" x2="652.6" y2="362.8" stroke="#bcc3cd" stroke-width="1.0" opacity="0.24" />
  <line x1="652.0" y1="347.2" x2="667.2" y2="371.8" stroke="#bcc3cd" stroke-width="0.9" opacity="0.20" />
  <line x1="652.0" y1="347.2" x2="686.0" y2="345.9" stroke="#bcc3cd" stroke-width="0.9" opacity="0.18" />
  <line x1="652.0" y1="347.2" x2="621.3" y2="337.6" stroke="#bcc3cd" stroke-width="1.5" opacity="0.55" />
  <line x1="652.0" y1="347.2" x2="619.6" y2="328.7" stroke="#bcc3cd" stroke-width="1.2" opacity="0.37" />
  <line x1="652.0" y1="347.2" x2="613.7" y2="350.2" stroke="#bcc3cd" stroke-width="1.0" opacity="0.22" />
  <line x1="652.0" y1="347.2" x2="589.1" y2="358.1" stroke="#bcc3cd" stroke-width="1.0" opacity="0.22" />
  <line x1="652.0" y1="347.2" x2="640.6" y2="332.7" stroke="#bcc3cd" stroke-width="1.2" opacity="0.37" />
  <line x1="652.0" y1="347.2" x2="591.0" y2="334.8" stroke="#bcc3cd" stroke-width="1.1" opacity="0.28" />
  <line x1="652.0" y1="347.2" x2="630.7" y2="322.6" stroke="#bcc3cd" stroke-width="1.2" opacity="0.37" />
  <line x1="652.0" y1="347.2" x2="625.3" y2="350.5" stroke="#bcc3cd" stroke-width="1.2" opacity="0.37" />
  <line x1="568.7" y1="338.5" x2="613.7" y2="350.2" stroke="#bcc3cd" stroke-width="0.9" opacity="0.18" />
  <line x1="568.7" y1="338.5" x2="589.1" y2="358.1" stroke="#bcc3cd" stroke-width="1.1" opacity="0.30" />
  <line x1="568.7" y1="338.5" x2="625.3" y2="350.5" stroke="#bcc3cd" stroke-width="1.0" opacity="0.22" />
  <line x1="644.6" y1="380.1" x2="652.6" y2="362.8" stroke="#bcc3cd" stroke-width="1.1" opacity="0.28" />
  <line x1="644.6" y1="380.1" x2="667.2" y2="371.8" stroke="#bcc3cd" stroke-width="1.0" opacity="0.24" />
  <line x1="644.6" y1="380.1" x2="696.1" y2="383.3" stroke="#bcc3cd" stroke-width="0.9" opacity="0.17" />
  <line x1="644.6" y1="380.1" x2="580.3" y2="374.5" stroke="#bcc3cd" stroke-width="0.9" opacity="0.19" />
  <line x1="644.6" y1="380.1" x2="601.6" y2="382.8" stroke="#bcc3cd" stroke-width="0.9" opacity="0.18" />
  <line x1="644.6" y1="380.1" x2="613.7" y2="350.2" stroke="#bcc3cd" stroke-width="0.9" opacity="0.17" />
  <line x1="644.6" y1="380.1" x2="589.1" y2="358.1" stroke="#bcc3cd" stroke-width="0.9" opacity="0.17" />
  <line x1="644.6" y1="380.1" x2="625.3" y2="350.5" stroke="#bcc3cd" stroke-width="0.9" opacity="0.20" />
  <line x1="652.6" y1="362.8" x2="667.2" y2="371.8" stroke="#bcc3cd" stroke-width="1.1" opacity="0.28" />
  <line x1="652.6" y1="362.8" x2="696.1" y2="383.3" stroke="#bcc3cd" stroke-width="0.9" opacity="0.18" />
  <line x1="652.6" y1="362.8" x2="686.0" y2="345.9" stroke="#bcc3cd" stroke-width="0.9" opacity="0.18" />
  <line x1="652.6" y1="362.8" x2="593.8" y2="345.2" stroke="#bcc3cd" stroke-width="0.9" opacity="0.17" />
  <line x1="652.6" y1="362.8" x2="613.7" y2="350.2" stroke="#bcc3cd" stroke-width="0.9" opacity="0.20" />
  <line x1="652.6" y1="362.8" x2="574.1" y2="362.6" stroke="#bcc3cd" stroke-width="0.9" opacity="0.17" />
  <line x1="652.6" y1="362.8" x2="589.1" y2="358.1" stroke="#bcc3cd" stroke-width="0.9" opacity="0.20" />
  <line x1="652.6" y1="362.8" x2="625.3" y2="350.5" stroke="#bcc3cd" stroke-width="1.0" opacity="0.24" />
  <line x1="667.2" y1="371.8" x2="696.1" y2="383.3" stroke="#bcc3cd" stroke-width="0.9" opacity="0.17" />
  <line x1="667.2" y1="371.8" x2="613.7" y2="350.2" stroke="#bcc3cd" stroke-width="0.9" opacity="0.17" />
  <line x1="667.2" y1="371.8" x2="589.1" y2="358.1" stroke="#bcc3cd" stroke-width="0.9" opacity="0.17" />
  <line x1="667.2" y1="371.8" x2="625.3" y2="350.5" stroke="#bcc3cd" stroke-width="0.9" opacity="0.20" />
  <line x1="686.0" y1="345.9" x2="632.6" y2="303.9" stroke="#bcc3cd" stroke-width="1.0" opacity="0.22" />
  <line x1="686.0" y1="345.9" x2="625.3" y2="350.5" stroke="#bcc3cd" stroke-width="0.9" opacity="0.18" />
  <line x1="610.2" y1="275.7" x2="604.4" y2="314.6" stroke="#bcc3cd" stroke-width="1.3" opacity="0.44" />
  <line x1="610.2" y1="275.7" x2="638.7" y2="286.0" stroke="#bcc3cd" stroke-width="0.9" opacity="0.18" />
  <line x1="604.4" y1="314.6" x2="619.6" y2="328.7" stroke="#bcc3cd" stroke-width="1.1" opacity="0.31" />
  <line x1="604.4" y1="314.6" x2="593.8" y2="345.2" stroke="#bcc3cd" stroke-width="0.9" opacity="0.20" />
  <line x1="604.4" y1="314.6" x2="613.7" y2="350.2" stroke="#bcc3cd" stroke-width="1.0" opacity="0.24" />
  <line x1="604.4" y1="314.6" x2="574.1" y2="362.6" stroke="#bcc3cd" stroke-width="0.9" opacity="0.20" />
  <line x1="604.4" y1="314.6" x2="589.1" y2="358.1" stroke="#bcc3cd" stroke-width="1.0" opacity="0.24" />
  <line x1="604.4" y1="314.6" x2="600.6" y2="362.6" stroke="#bcc3cd" stroke-width="0.9" opacity="0.18" />
  <line x1="604.4" y1="314.6" x2="582.3" y2="228.3" stroke="#bcc3cd" stroke-width="0.9" opacity="0.17" />
  <line x1="604.4" y1="314.6" x2="630.7" y2="322.6" stroke="#bcc3cd" stroke-width="1.1" opacity="0.31" />
  <line x1="604.4" y1="314.6" x2="638.7" y2="286.0" stroke="#bcc3cd" stroke-width="1.1" opacity="0.30" />
  <line x1="604.4" y1="314.6" x2="625.3" y2="350.5" stroke="#bcc3cd" stroke-width="1.1" opacity="0.31" />
  <line x1="505.2" y1="50.0" x2="518.5" y2="62.0" stroke="#bcc3cd" stroke-width="1.6" opacity="0.60" />
  <line x1="399.1" y1="406.7" x2="521.3" y2="383.3" stroke="#bcc3cd" stroke-width="0.9" opacity="0.18" />
  <line x1="399.1" y1="406.7" x2="326.8" y2="414.9" stroke="#bcc3cd" stroke-width="1.1" opacity="0.28" />
  <line x1="535.0" y1="356.6" x2="555.0" y2="381.3" stroke="#bcc3cd" stroke-width="0.9" opacity="0.17" />
  <line x1="535.0" y1="356.6" x2="521.3" y2="383.3" stroke="#bcc3cd" stroke-width="0.9" opacity="0.18" />
  <line x1="535.0" y1="356.6" x2="580.3" y2="374.5" stroke="#bcc3cd" stroke-width="1.0" opacity="0.22" />
  <line x1="535.0" y1="356.6" x2="574.1" y2="362.6" stroke="#bcc3cd" stroke-width="1.1" opacity="0.28" />
  <line x1="535.0" y1="356.6" x2="553.2" y2="367.0" stroke="#bcc3cd" stroke-width="1.1" opacity="0.32" />
  <line x1="535.0" y1="356.6" x2="589.1" y2="358.1" stroke="#bcc3cd" stroke-width="0.9" opacity="0.20" />
  <line x1="535.0" y1="356.6" x2="534.8" y2="371.0" stroke="#bcc3cd" stroke-width="1.0" opacity="0.22" />
  <line x1="535.0" y1="356.6" x2="591.0" y2="334.8" stroke="#bcc3cd" stroke-width="1.0" opacity="0.22" />
  <line x1="555.0" y1="381.3" x2="521.3" y2="383.3" stroke="#bcc3cd" stroke-width="1.3" opacity="0.42" />
  <line x1="555.0" y1="381.3" x2="533.0" y2="389.1" stroke="#bcc3cd" stroke-width="0.9" opacity="0.18" />
  <line x1="555.0" y1="381.3" x2="575.3" y2="388.9" stroke="#bcc3cd" stroke-width="1.1" opacity="0.31" />
  <line x1="555.0" y1="381.3" x2="580.3" y2="374.5" stroke="#bcc3cd" stroke-width="1.1" opacity="0.32" />
  <line x1="555.0" y1="381.3" x2="601.6" y2="382.8" stroke="#bcc3cd" stroke-width="1.0" opacity="0.23" />
  <line x1="555.0" y1="381.3" x2="574.1" y2="362.6" stroke="#bcc3cd" stroke-width="1.2" opacity="0.39" />
  <line x1="555.0" y1="381.3" x2="553.2" y2="367.0" stroke="#bcc3cd" stroke-width="1.0" opacity="0.26" />
  <line x1="555.0" y1="381.3" x2="589.1" y2="358.1" stroke="#bcc3cd" stroke-width="1.2" opacity="0.34" />
  <line x1="555.0" y1="381.3" x2="600.6" y2="362.6" stroke="#bcc3cd" stroke-width="0.9" opacity="0.19" />
  <line x1="555.0" y1="381.3" x2="534.8" y2="371.0" stroke="#bcc3cd" stroke-width="1.0" opacity="0.25" />
  <line x1="555.0" y1="381.3" x2="625.3" y2="350.5" stroke="#bcc3cd" stroke-width="0.9" opacity="0.17" />
  <line x1="521.3" y1="383.3" x2="533.0" y2="389.1" stroke="#bcc3cd" stroke-width="1.1" opacity="0.33" />
  <line x1="521.3" y1="383.3" x2="575.3" y2="388.9" stroke="#bcc3cd" stroke-width="0.9" opacity="0.21" />
  <line x1="521.3" y1="383.3" x2="580.3" y2="374.5" stroke="#bcc3cd" stroke-width="0.9" opacity="0.18" />
  <line x1="521.3" y1="383.3" x2="574.1" y2="362.6" stroke="#bcc3cd" stroke-width="1.3" opacity="0.41" />
  <line x1="521.3" y1="383.3" x2="553.2" y2="367.0" stroke="#bcc3cd" stroke-width="1.0" opacity="0.22" />
  <line x1="521.3" y1="383.3" x2="589.1" y2="358.1" stroke="#bcc3cd" stroke-width="1.1" opacity="0.31" />
  <line x1="521.3" y1="383.3" x2="534.8" y2="371.0" stroke="#bcc3cd" stroke-width="1.7" opacity="0.66" />
  <line x1="621.3" y1="337.6" x2="619.6" y2="328.7" stroke="#bcc3cd" stroke-width="1.5" opacity="0.55" />
  <line x1="621.3" y1="337.6" x2="593.8" y2="345.2" stroke="#bcc3cd" stroke-width="0.9" opacity="0.18" />
  <line x1="621.3" y1="337.6" x2="613.7" y2="350.2" stroke="#bcc3cd" stroke-width="1.1" opacity="0.28" />
  <line x1="621.3" y1="337.6" x2="574.1" y2="362.6" stroke="#bcc3cd" stroke-width="0.9" opacity="0.18" />
  <line x1="621.3" y1="337.6" x2="589.1" y2="358.1" stroke="#bcc3cd" stroke-width="1.1" opacity="0.28" />
  <line x1="621.3" y1="337.6" x2="640.6" y2="332.7" stroke="#bcc3cd" stroke-width="1.5" opacity="0.55" />
  <line x1="621.3" y1="337.6" x2="591.0" y2="334.8" stroke="#bcc3cd" stroke-width="1.2" opacity="0.37" />
  <line x1="621.3" y1="337.6" x2="630.7" y2="322.6" stroke="#bcc3cd" stroke-width="1.5" opacity="0.55" />
  <line x1="621.3" y1="337.6" x2="625.3" y2="350.5" stroke="#bcc3cd" stroke-width="1.5" opacity="0.55" />
  <line x1="619.6" y1="328.7" x2="613.7" y2="350.2" stroke="#bcc3cd" stroke-width="1.0" opacity="0.22" />
  <line x1="619.6" y1="328.7" x2="589.1" y2="358.1" stroke="#bcc3cd" stroke-width="1.0" opacity="0.22" />
  <line x1="619.6" y1="328.7" x2="640.6" y2="332.7" stroke="#bcc3cd" stroke-width="1.2" opacity="0.37" />
  <line x1="619.6" y1="328.7" x2="591.0" y2="334.8" stroke="#bcc3cd" stroke-width="1.1" opacity="0.28" />
  <line x1="619.6" y1="328.7" x2="630.7" y2="322.6" stroke="#bcc3cd" stroke-width="1.2" opacity="0.37" />
  <line x1="619.6" y1="328.7" x2="625.3" y2="350.5" stroke="#bcc3cd" stroke-width="1.2" opacity="0.37" />
  <line x1="533.0" y1="389.1" x2="574.1" y2="362.6" stroke="#bcc3cd" stroke-width="0.9" opacity="0.18" />
  <line x1="533.0" y1="389.1" x2="553.2" y2="367.0" stroke="#bcc3cd" stroke-width="0.9" opacity="0.18" />
  <line x1="533.0" y1="389.1" x2="589.1" y2="358.1" stroke="#bcc3cd" stroke-width="1.0" opacity="0.22" />
  <line x1="533.0" y1="389.1" x2="534.8" y2="371.0" stroke="#bcc3cd" stroke-width="1.3" opacity="0.41" />
  <line x1="575.3" y1="388.9" x2="580.3" y2="374.5" stroke="#bcc3cd" stroke-width="1.1" opacity="0.31" />
  <line x1="575.3" y1="388.9" x2="574.1" y2="362.6" stroke="#bcc3cd" stroke-width="1.4" opacity="0.47" />
  <line x1="575.3" y1="388.9" x2="553.2" y2="367.0" stroke="#bcc3cd" stroke-width="0.9" opacity="0.19" />
  <line x1="575.3" y1="388.9" x2="589.1" y2="358.1" stroke="#bcc3cd" stroke-width="1.0" opacity="0.22" />
  <line x1="580.3" y1="374.5" x2="601.6" y2="382.8" stroke="#bcc3cd" stroke-width="1.1" opacity="0.29" />
  <line x1="580.3" y1="374.5" x2="593.8" y2="345.2" stroke="#bcc3cd" stroke-width="0.9" opacity="0.17" />
  <line x1="580.3" y1="374.5" x2="613.7" y2="350.2" stroke="#bcc3cd" stroke-width="0.9" opacity="0.20" />
  <line x1="580.3" y1="374.5" x2="574.1" y2="362.6" stroke="#bcc3cd" stroke-width="1.3" opacity="0.40" />
  <line x1="580.3" y1="374.5" x2="553.2" y2="367.0" stroke="#bcc3cd" stroke-width="1.0" opacity="0.24" />
  <line x1="580.3" y1="374.5" x2="589.1" y2="358.1" stroke="#bcc3cd" stroke-width="0.9" opacity="0.20" />
  <line x1="580.3" y1="374.5" x2="625.3" y2="350.5" stroke="#bcc3cd" stroke-width="1.0" opacity="0.24" />
  <line x1="601.6" y1="382.8" x2="613.7" y2="350.2" stroke="#bcc3cd" stroke-width="0.9" opacity="0.18" />
  <line x1="601.6" y1="382.8" x2="553.2" y2="367.0" stroke="#bcc3cd" stroke-width="1.0" opacity="0.23" />
  <line x1="601.6" y1="382.8" x2="589.1" y2="358.1" stroke="#bcc3cd" stroke-width="0.9" opacity="0.18" />
  <line x1="601.6" y1="382.8" x2="600.6" y2="362.6" stroke="#bcc3cd" stroke-width="1.0" opacity="0.24" />
  <line x1="601.6" y1="382.8" x2="625.3" y2="350.5" stroke="#bcc3cd" stroke-width="1.0" opacity="0.22" />
  <line x1="593.8" y1="345.2" x2="613.7" y2="350.2" stroke="#bcc3cd" stroke-width="1.1" opacity="0.28" />
  <line x1="593.8" y1="345.2" x2="574.1" y2="362.6" stroke="#bcc3cd" stroke-width="1.0" opacity="0.22" />
  <line x1="593.8" y1="345.2" x2="589.1" y2="358.1" stroke="#bcc3cd" stroke-width="1.1" opacity="0.28" />
  <line x1="593.8" y1="345.2" x2="600.6" y2="362.6" stroke="#bcc3cd" stroke-width="0.9" opacity="0.20" />
  <line x1="593.8" y1="345.2" x2="625.3" y2="350.5" stroke="#bcc3cd" stroke-width="1.2" opacity="0.37" />
  <line x1="613.7" y1="350.2" x2="574.1" y2="362.6" stroke="#bcc3cd" stroke-width="1.1" opacity="0.28" />
  <line x1="613.7" y1="350.2" x2="589.1" y2="358.1" stroke="#bcc3cd" stroke-width="1.2" opacity="0.37" />
  <line x1="613.7" y1="350.2" x2="640.6" y2="332.7" stroke="#bcc3cd" stroke-width="1.0" opacity="0.22" />
  <line x1="613.7" y1="350.2" x2="600.6" y2="362.6" stroke="#bcc3cd" stroke-width="1.0" opacity="0.24" />
  <line x1="613.7" y1="350.2" x2="591.0" y2="334.8" stroke="#bcc3cd" stroke-width="0.9" opacity="0.18" />
  <line x1="613.7" y1="350.2" x2="630.7" y2="322.6" stroke="#bcc3cd" stroke-width="1.0" opacity="0.22" />
  <line x1="613.7" y1="350.2" x2="625.3" y2="350.5" stroke="#bcc3cd" stroke-width="1.5" opacity="0.55" />
  <line x1="574.1" y1="362.6" x2="553.2" y2="367.0" stroke="#bcc3cd" stroke-width="1.1" opacity="0.29" />
  <line x1="574.1" y1="362.6" x2="589.1" y2="358.1" stroke="#bcc3cd" stroke-width="1.4" opacity="0.47" />
  <line x1="574.1" y1="362.6" x2="600.6" y2="362.6" stroke="#bcc3cd" stroke-width="0.9" opacity="0.20" />
  <line x1="574.1" y1="362.6" x2="534.8" y2="371.0" stroke="#bcc3cd" stroke-width="1.1" opacity="0.31" />
  <line x1="574.1" y1="362.6" x2="591.0" y2="334.8" stroke="#bcc3cd" stroke-width="1.1" opacity="0.31" />
  <line x1="574.1" y1="362.6" x2="625.3" y2="350.5" stroke="#bcc3cd" stroke-width="1.2" opacity="0.37" />
  <line x1="553.2" y1="367.0" x2="589.1" y2="358.1" stroke="#bcc3cd" stroke-width="1.2" opacity="0.34" />
  <line x1="553.2" y1="367.0" x2="534.8" y2="371.0" stroke="#bcc3cd" stroke-width="1.0" opacity="0.25" />
  <line x1="553.2" y1="367.0" x2="591.0" y2="334.8" stroke="#bcc3cd" stroke-width="1.0" opacity="0.25" />
  <line x1="553.2" y1="367.0" x2="625.3" y2="350.5" stroke="#bcc3cd" stroke-width="0.9" opacity="0.17" />
  <line x1="589.1" y1="358.1" x2="640.6" y2="332.7" stroke="#bcc3cd" stroke-width="1.0" opacity="0.22" />
  <line x1="589.1" y1="358.1" x2="600.6" y2="362.6" stroke="#bcc3cd" stroke-width="1.0" opacity="0.24" />
  <line x1="589.1" y1="358.1" x2="534.8" y2="371.0" stroke="#bcc3cd" stroke-width="1.3" opacity="0.44" />
  <line x1="589.1" y1="358.1" x2="591.0" y2="334.8" stroke="#bcc3cd" stroke-width="1.3" opacity="0.44" />
  <line x1="589.1" y1="358.1" x2="630.7" y2="322.6" stroke="#bcc3cd" stroke-width="1.0" opacity="0.22" />
  <line x1="589.1" y1="358.1" x2="625.3" y2="350.5" stroke="#bcc3cd" stroke-width="1.5" opacity="0.55" />
  <line x1="212.8" y1="137.2" x2="178.5" y2="142.9" stroke="#bcc3cd" stroke-width="1.0" opacity="0.22" />
  <line x1="724.9" y1="325.7" x2="625.3" y2="350.5" stroke="#bcc3cd" stroke-width="1.0" opacity="0.22" />
  <line x1="640.6" y1="332.7" x2="591.0" y2="334.8" stroke="#bcc3cd" stroke-width="1.1" opacity="0.28" />
  <line x1="640.6" y1="332.7" x2="630.7" y2="322.6" stroke="#bcc3cd" stroke-width="1.2" opacity="0.37" />
  <line x1="640.6" y1="332.7" x2="625.3" y2="350.5" stroke="#bcc3cd" stroke-width="1.2" opacity="0.37" />
  <line x1="578.0" y1="196.6" x2="565.8" y2="186.1" stroke="#bcc3cd" stroke-width="1.5" opacity="0.55" />
  <line x1="578.0" y1="196.6" x2="582.3" y2="228.3" stroke="#bcc3cd" stroke-width="1.3" opacity="0.41" />
  <line x1="565.8" y1="186.1" x2="582.3" y2="228.3" stroke="#bcc3cd" stroke-width="1.0" opacity="0.24" />
  <line x1="600.6" y1="362.6" x2="625.3" y2="350.5" stroke="#bcc3cd" stroke-width="1.1" opacity="0.31" />
  <line x1="534.8" y1="371.0" x2="591.0" y2="334.8" stroke="#bcc3cd" stroke-width="1.0" opacity="0.22" />
  <line x1="591.0" y1="334.8" x2="632.6" y2="303.9" stroke="#bcc3cd" stroke-width="1.2" opacity="0.37" />
  <line x1="591.0" y1="334.8" x2="581.7" y2="286.0" stroke="#bcc3cd" stroke-width="0.9" opacity="0.18" />
  <line x1="591.0" y1="334.8" x2="630.7" y2="322.6" stroke="#bcc3cd" stroke-width="1.1" opacity="0.28" />
  <line x1="591.0" y1="334.8" x2="625.3" y2="350.5" stroke="#bcc3cd" stroke-width="1.1" opacity="0.28" />
  <line x1="632.6" y1="303.9" x2="581.7" y2="286.0" stroke="#bcc3cd" stroke-width="1.1" opacity="0.28" />
  <line x1="630.7" y1="322.6" x2="638.7" y2="286.0" stroke="#bcc3cd" stroke-width="1.1" opacity="0.31" />
  <line x1="630.7" y1="322.6" x2="625.3" y2="350.5" stroke="#bcc3cd" stroke-width="1.2" opacity="0.37" />
  <circle cx="632.3" cy="364.4" r="13.1" fill="#e67e22" opacity="0.88" />
  <circle cx="508.9" cy="407.6" r="16" fill="#e74c3c" opacity="0.88" />
  <circle cx="692.0" cy="363.6" r="7.7" fill="#3498db" opacity="0.88" />
  <circle cx="555.3" cy="410.0" r="16" fill="#3498db" opacity="0.88" />
  <circle cx="646.2" cy="373.3" r="15.8" fill="#7f8c8d" opacity="0.88" />
  <circle cx="510.7" cy="367.3" r="16" fill="#9b59b6" opacity="0.88" />
  <circle cx="722.0" cy="358.9" r="6.8" fill="#3498db" opacity="0.88" />
  <circle cx="652.0" cy="347.2" r="5.9" fill="#3498db" opacity="0.88" />
  <circle cx="568.7" cy="338.5" r="13.1" fill="#e67e22" opacity="0.88" />
  <circle cx="644.6" cy="380.1" r="14.0" fill="#3498db" opacity="0.88" />
  <circle cx="652.6" cy="362.8" r="12.2" fill="#3498db" opacity="0.88" />
  <circle cx="667.2" cy="371.8" r="14.0" fill="#3498db" opacity="0.88" />
  <circle cx="696.1" cy="383.3" r="16" fill="#e74c3c" opacity="0.88" />
  <circle cx="686.0" cy="345.9" r="8.6" fill="#2ecc71" opacity="0.88" />
  <circle cx="610.2" cy="275.7" r="10.4" fill="#e74c3c" opacity="0.88" />
  <circle cx="728.2" cy="86.0" r="12.2" fill="#3498db" opacity="0.88" />
  <circle cx="604.4" cy="314.6" r="10.4" fill="#e74c3c" opacity="0.88" />
  <circle cx="910.0" cy="379.6" r="5" fill="#3498db" opacity="0.88" />
  <circle cx="505.2" cy="50.0" r="12.2" fill="#3498db" opacity="0.88" />
  <circle cx="518.5" cy="62.0" r="11.3" fill="#3498db" opacity="0.88" />
  <circle cx="399.1" cy="406.7" r="5.9" fill="#3498db" opacity="0.88" />
  <circle cx="535.0" cy="356.6" r="12.2" fill="#9b59b6" opacity="0.88" />
  <circle cx="555.0" cy="381.3" r="15.8" fill="#9b59b6" opacity="0.88" />
  <circle cx="521.3" cy="383.3" r="8.6" fill="#9b59b6" opacity="0.88" />
  <circle cx="621.3" cy="337.6" r="5" fill="#2ecc71" opacity="0.88" />
  <circle cx="619.6" cy="328.7" r="5.9" fill="#7f8c8d" opacity="0.88" />
  <circle cx="533.0" cy="389.1" r="11.3" fill="#e67e22" opacity="0.88" />
  <circle cx="575.3" cy="388.9" r="16" fill="#2ecc71" opacity="0.88" />
  <circle cx="326.8" cy="414.9" r="6.8" fill="#9b59b6" opacity="0.88" />
  <circle cx="50.0" cy="234.1" r="5" fill="#7f8c8d" opacity="0.88" />
  <circle cx="580.3" cy="374.5" r="12.2" fill="#3498db" opacity="0.88" />
  <circle cx="601.6" cy="382.8" r="13.1" fill="#7f8c8d" opacity="0.88" />
  <circle cx="593.8" cy="345.2" r="9.5" fill="#7f8c8d" opacity="0.88" />
  <circle cx="115.8" cy="419.1" r="5" fill="#7f8c8d" opacity="0.88" />
  <circle cx="613.7" cy="350.2" r="7.7" fill="#7f8c8d" opacity="0.88" />
  <circle cx="574.1" cy="362.6" r="9.5" fill="#7f8c8d" opacity="0.88" />
  <circle cx="553.2" cy="367.0" r="15.8" fill="#2ecc71" opacity="0.88" />
  <circle cx="589.1" cy="358.1" r="7.7" fill="#7f8c8d" opacity="0.88" />
  <circle cx="212.8" cy="137.2" r="7.7" fill="#7f8c8d" opacity="0.88" />
  <circle cx="724.9" cy="325.7" r="7.7" fill="#3498db" opacity="0.88" />
  <circle cx="640.6" cy="332.7" r="5.9" fill="#7f8c8d" opacity="0.88" />
  <circle cx="578.0" cy="196.6" r="6.8" fill="#e67e22" opacity="0.88" />
  <circle cx="565.8" cy="186.1" r="6.8" fill="#e67e22" opacity="0.88" />
  <circle cx="600.6" cy="362.6" r="10.4" fill="#7f8c8d" opacity="0.88" />
  <circle cx="582.3" cy="228.3" r="11.3" fill="#e67e22" opacity="0.88" />
  <circle cx="178.5" cy="142.9" r="5.9" fill="#7f8c8d" opacity="0.88" />
  <circle cx="534.8" cy="371.0" r="6.8" fill="#7f8c8d" opacity="0.88" />
  <circle cx="591.0" cy="334.8" r="6.8" fill="#7f8c8d" opacity="0.88" />
  <circle cx="632.6" cy="303.9" r="5" fill="#2ecc71" opacity="0.88" />
  <circle cx="581.7" cy="286.0" r="7.7" fill="#2ecc71" opacity="0.88" />
  <circle cx="630.7" cy="322.6" r="5.9" fill="#e74c3c" opacity="0.88" />
  <circle cx="638.7" cy="286.0" r="10.4" fill="#e74c3c" opacity="0.88" />
  <circle cx="625.3" cy="350.5" r="5.9" fill="#7f8c8d" opacity="0.88" />
  <circle cx="281.0" cy="500.0" r="5" fill="#7f8c8d" opacity="0.88" />
  <rect x="647.4" y="450.0" width="45.2" height="15" fill="#ffffff" opacity="0.75" rx="2" />
  <text x="648.4" y="461.0" font-family="system-ui, -apple-system, sans-serif" font-size="12" fill="#1f2328" text-anchor="start">XoxdWM</text>
  <rect x="526.9" y="357.0" width="131.6" height="15" fill="#ffffff" opacity="0.75" rx="2" />
  <text x="527.9" y="368.0" font-family="system-ui, -apple-system, sans-serif" font-size="12" fill="#1f2328" text-anchor="start">pixelwise-research</text>
  <rect x="701.7" y="397.6" width="16.4" height="15" fill="#ffffff" opacity="0.75" rx="2" />
  <text x="702.7" y="408.6" font-family="system-ui, -apple-system, sans-serif" font-size="12" fill="#1f2328" text-anchor="start">pp</text>
  <rect x="573.3" y="506.0" width="117.2" height="15" fill="#ffffff" opacity="0.75" rx="2" />
  <text x="574.3" y="517.0" font-family="system-ui, -apple-system, sans-serif" font-size="12" fill="#1f2328" text-anchor="start">GloriousFlywheel</text>
  <rect x="664.0" y="247.3" width="124.4" height="15" fill="#ffffff" opacity="0.75" rx="2" />
  <text x="665.0" y="258.3" font-family="system-ui, -apple-system, sans-serif" font-size="12" fill="#1f2328" text-anchor="start">tinyland-huskycat</text>
  <rect x="528.7" y="301.5" width="95.6" height="15" fill="#ffffff" opacity="0.75" rx="2" />
  <text x="529.7" y="312.5" font-family="system-ui, -apple-system, sans-serif" font-size="12" fill="#1f2328" text-anchor="start">GIS_Shortcuts</text>
  <rect x="730.8" y="397.2" width="117.2" height="15" fill="#ffffff" opacity="0.75" rx="2" />
  <text x="731.8" y="408.2" font-family="system-ui, -apple-system, sans-serif" font-size="12" fill="#1f2328" text-anchor="start">tinyland-cleanup</text>
  <rect x="659.9" y="464.0" width="95.6" height="15" fill="#ffffff" opacity="0.75" rx="2" />
  <text x="660.9" y="475.0" font-family="system-ui, -apple-system, sans-serif" font-size="12" fill="#1f2328" text-anchor="start">tinyland-kdbx</text>
  <rect x="583.8" y="220.6" width="110.0" height="15" fill="#ffffff" opacity="0.75" rx="2" />
  <text x="584.8" y="231.6" font-family="system-ui, -apple-system, sans-serif" font-size="12" fill="#1f2328" text-anchor="start">hiberpower-ntfs</text>
  <rect x="660.6" y="479.2" width="138.8" height="15" fill="#ffffff" opacity="0.75" rx="2" />
  <text x="661.6" y="490.2" font-family="system-ui, -apple-system, sans-serif" font-size="12" fill="#1f2328" text-anchor="start">Ansible-DAG-Harness</text>
  <rect x="666.8" y="334.1" width="66.8" height="15" fill="#ffffff" opacity="0.75" rx="2" />
  <text x="667.8" y="345.1" font-family="system-ui, -apple-system, sans-serif" font-size="12" fill="#1f2328" text-anchor="start">betterkvm</text>
  <rect x="683.2" y="384.2" width="95.6" height="15" fill="#ffffff" opacity="0.75" rx="2" />
  <text x="684.2" y="395.2" font-family="system-ui, -apple-system, sans-serif" font-size="12" fill="#1f2328" text-anchor="start">DarwinNicUtil</text>
  <rect x="714.1" y="362.8" width="95.6" height="15" fill="#ffffff" opacity="0.75" rx="2" />
  <text x="715.1" y="373.8" font-family="system-ui, -apple-system, sans-serif" font-size="12" fill="#1f2328" text-anchor="start">RemoteJuggler</text>
  <rect x="696.6" y="219.2" width="59.6" height="15" fill="#ffffff" opacity="0.75" rx="2" />
  <text x="697.6" y="230.2" font-family="system-ui, -apple-system, sans-serif" font-size="12" fill="#1f2328" text-anchor="start">gnucashr</text>
  <rect x="622.6" y="189.5" width="66.8" height="15" fill="#ffffff" opacity="0.75" rx="2" />
  <text x="623.6" y="200.5" font-family="system-ui, -apple-system, sans-serif" font-size="12" fill="#1f2328" text-anchor="start">quickchpl</text>
  <rect x="742.4" y="79.2" width="131.6" height="15" fill="#ffffff" opacity="0.75" rx="2" />
  <text x="743.4" y="90.2" font-family="system-ui, -apple-system, sans-serif" font-size="12" fill="#1f2328" text-anchor="start">tinyscale-mikrotik</text>
  <rect x="616.8" y="252.2" width="59.6" height="15" fill="#ffffff" opacity="0.75" rx="2" />
  <text x="617.8" y="263.2" font-family="system-ui, -apple-system, sans-serif" font-size="12" fill="#1f2328" text-anchor="start">aoc-2025</text>
  <rect x="829.0" y="361.6" width="74.0" height="15" fill="#ffffff" opacity="0.75" rx="2" />
  <text x="902.0" y="372.6" font-family="system-ui, -apple-system, sans-serif" font-size="12" fill="#1f2328" text-anchor="end">tinywaffle</text>
  <rect x="519.4" y="40.7" width="66.8" height="15" fill="#ffffff" opacity="0.75" rx="2" />
  <text x="520.4" y="51.7" font-family="system-ui, -apple-system, sans-serif" font-size="12" fill="#1f2328" text-anchor="start">searchies</text>
  <rect x="531.8" y="57.7" width="59.6" height="15" fill="#ffffff" opacity="0.75" rx="2" />
  <text x="532.8" y="68.7" font-family="system-ui, -apple-system, sans-serif" font-size="12" fill="#1f2328" text-anchor="start">ts-caddy</text>
  <rect x="407.0" y="395.5" width="66.8" height="15" fill="#ffffff" opacity="0.75" rx="2" />
  <text x="408.0" y="406.5" font-family="system-ui, -apple-system, sans-serif" font-size="12" fill="#1f2328" text-anchor="start">HCI-notes</text>
  <rect x="549.2" y="396.3" width="88.4" height="15" fill="#ffffff" opacity="0.75" rx="2" />
  <text x="550.2" y="407.3" font-family="system-ui, -apple-system, sans-serif" font-size="12" fill="#1f2328" text-anchor="start">FastPhotoAPI</text>
  <rect x="572.8" y="333.8" width="81.2" height="15" fill="#ffffff" opacity="0.75" rx="2" />
  <text x="573.8" y="344.8" font-family="system-ui, -apple-system, sans-serif" font-size="12" fill="#1f2328" text-anchor="start">timberbuddy</text>
  <rect x="531.9" y="316.9" width="81.2" height="15" fill="#ffffff" opacity="0.75" rx="2" />
  <text x="532.9" y="327.9" font-family="system-ui, -apple-system, sans-serif" font-size="12" fill="#1f2328" text-anchor="start">tetrahedron</text>
  <rect x="628.3" y="272.7" width="95.6" height="15" fill="#ffffff" opacity="0.75" rx="2" />
  <text x="629.3" y="283.7" font-family="system-ui, -apple-system, sans-serif" font-size="12" fill="#1f2328" text-anchor="start">AccuWixReport</text>
  <rect x="627.5" y="347.7" width="95.6" height="15" fill="#ffffff" opacity="0.75" rx="2" />
  <text x="628.5" y="358.7" font-family="system-ui, -apple-system, sans-serif" font-size="12" fill="#1f2328" text-anchor="start">Jess-AOC-2023</text>
  <rect x="546.3" y="476.2" width="81.2" height="15" fill="#ffffff" opacity="0.75" rx="2" />
  <text x="547.3" y="487.2" font-family="system-ui, -apple-system, sans-serif" font-size="12" fill="#1f2328" text-anchor="start">TurkeyProbe</text>
  <rect x="593.3" y="413.4" width="153.2" height="15" fill="#ffffff" opacity="0.75" rx="2" />
  <text x="594.3" y="424.4" font-family="system-ui, -apple-system, sans-serif" font-size="12" fill="#1f2328" text-anchor="start">MerlinAI-Interpreters</text>
  <rect x="335.6" y="412.5" width="110.0" height="15" fill="#ffffff" opacity="0.75" rx="2" />
  <text x="336.6" y="423.5" font-family="system-ui, -apple-system, sans-serif" font-size="12" fill="#1f2328" text-anchor="start">IntroTypeScript</text>
  <rect x="57.0" y="227.3" width="110.0" height="15" fill="#ffffff" opacity="0.75" rx="2" />
  <text x="58.0" y="238.3" font-family="system-ui, -apple-system, sans-serif" font-size="12" fill="#1f2328" text-anchor="start">IG-3DP-Profiles</text>
  <rect x="594.5" y="461.2" width="66.8" height="15" fill="#ffffff" opacity="0.75" rx="2" />
  <text x="595.5" y="472.2" font-family="system-ui, -apple-system, sans-serif" font-size="12" fill="#1f2328" text-anchor="start">DLA-Flask</text>
  <rect x="616.7" y="381.8" width="38.0" height="15" fill="#ffffff" opacity="0.75" rx="2" />
  <text x="617.7" y="392.8" font-family="system-ui, -apple-system, sans-serif" font-size="12" fill="#1f2328" text-anchor="start">USBoN</text>
  <rect x="605.3" y="437.8" width="203.6" height="15" fill="#ffffff" opacity="0.75" rx="2" />
  <text x="606.3" y="448.8" font-family="system-ui, -apple-system, sans-serif" font-size="12" fill="#1f2328" text-anchor="start">chrome-remote-desktop-budgie</text>
  <rect x="122.8" y="412.3" width="124.4" height="15" fill="#ffffff" opacity="0.75" rx="2" />
  <text x="123.8" y="423.3" font-family="system-ui, -apple-system, sans-serif" font-size="12" fill="#1f2328" text-anchor="start">OminousBeepingApp</text>
  <rect x="623.4" y="263.1" width="138.8" height="15" fill="#ffffff" opacity="0.75" rx="2" />
  <text x="624.4" y="274.1" font-family="system-ui, -apple-system, sans-serif" font-size="12" fill="#1f2328" text-anchor="start">mo-image-identifier</text>
  <rect x="585.6" y="420.8" width="196.4" height="15" fill="#ffffff" opacity="0.75" rx="2" />
  <text x="586.6" y="431.8" font-family="system-ui, -apple-system, sans-serif" font-size="12" fill="#1f2328" text-anchor="start">squirrel-leaflet-annotation</text>
  <rect x="571.0" y="493.2" width="74.0" height="15" fill="#ffffff" opacity="0.75" rx="2" />
  <text x="572.0" y="504.2" font-family="system-ui, -apple-system, sans-serif" font-size="12" fill="#1f2328" text-anchor="start">Shiny-Apps</text>
  <rect x="598.8" y="234.2" width="138.8" height="15" fill="#ffffff" opacity="0.75" rx="2" />
  <text x="599.8" y="245.2" font-family="system-ui, -apple-system, sans-serif" font-size="12" fill="#1f2328" text-anchor="start">bbox-jest-puppeteer</text>
  <rect x="222.5" y="124.7" width="88.4" height="15" fill="#ffffff" opacity="0.75" rx="2" />
  <text x="223.5" y="135.7" font-family="system-ui, -apple-system, sans-serif" font-size="12" fill="#1f2328" text-anchor="start">DoverDisplay</text>
  <rect x="734.6" y="331.1" width="81.2" height="15" fill="#ffffff" opacity="0.75" rx="2" />
  <text x="735.6" y="342.1" font-family="system-ui, -apple-system, sans-serif" font-size="12" fill="#1f2328" text-anchor="start">LeafletSync</text>
  <rect x="648.5" y="293.8" width="167.6" height="15" fill="#ffffff" opacity="0.75" rx="2" />
  <text x="649.5" y="304.8" font-family="system-ui, -apple-system, sans-serif" font-size="12" fill="#1f2328" text-anchor="start">misc-roi-distance-notes</text>
  <rect x="586.8" y="160.7" width="138.8" height="15" fill="#ffffff" opacity="0.75" rx="2" />
  <text x="587.8" y="171.7" font-family="system-ui, -apple-system, sans-serif" font-size="12" fill="#1f2328" text-anchor="start">Arduino_Coil_Winder</text>
  <rect x="574.6" y="146.1" width="30.8" height="15" fill="#ffffff" opacity="0.75" rx="2" />
  <text x="575.6" y="157.1" font-family="system-ui, -apple-system, sans-serif" font-size="12" fill="#1f2328" text-anchor="start">momo</text>
  <rect x="613.0" y="324.0" width="38.0" height="15" fill="#ffffff" opacity="0.75" rx="2" />
  <text x="614.0" y="335.0" font-family="system-ui, -apple-system, sans-serif" font-size="12" fill="#1f2328" text-anchor="start">clipi</text>
  <rect x="595.6" y="177.7" width="110.0" height="15" fill="#ffffff" opacity="0.75" rx="2" />
  <text x="596.6" y="188.7" font-family="system-ui, -apple-system, sans-serif" font-size="12" fill="#1f2328" text-anchor="start">AeroTaz5_hotfix</text>
  <rect x="186.4" y="141.7" width="110.0" height="15" fill="#ffffff" opacity="0.75" rx="2" />
  <text x="187.4" y="152.7" font-family="system-ui, -apple-system, sans-serif" font-size="12" fill="#1f2328" text-anchor="start">Funmat-HT-Notes</text>
  <rect x="543.6" y="350.8" width="81.2" height="15" fill="#ffffff" opacity="0.75" rx="2" />
  <text x="544.6" y="361.8" font-family="system-ui, -apple-system, sans-serif" font-size="12" fill="#1f2328" text-anchor="start">static-site</text>
  <rect x="599.8" y="367.2" width="95.6" height="15" fill="#ffffff" opacity="0.75" rx="2" />
  <text x="600.8" y="378.2" font-family="system-ui, -apple-system, sans-serif" font-size="12" fill="#1f2328" text-anchor="start">Flask-Manager</text>
  <rect x="639.6" y="284.1" width="110.0" height="15" fill="#ffffff" opacity="0.75" rx="2" />
  <text x="640.6" y="295.1" font-family="system-ui, -apple-system, sans-serif" font-size="12" fill="#1f2328" text-anchor="start">FieldProcessing</text>
  <rect x="591.4" y="206.5" width="81.2" height="15" fill="#ffffff" opacity="0.75" rx="2" />
  <text x="592.4" y="217.5" font-family="system-ui, -apple-system, sans-serif" font-size="12" fill="#1f2328" text-anchor="start">rJDKmanager</text>
  <rect x="638.6" y="398.8" width="59.6" height="15" fill="#ffffff" opacity="0.75" rx="2" />
  <text x="639.6" y="409.8" font-family="system-ui, -apple-system, sans-serif" font-size="12" fill="#1f2328" text-anchor="start">tagnotes</text>
  <rect x="651.1" y="320.5" width="81.2" height="15" fill="#ffffff" opacity="0.75" rx="2" />
  <text x="652.1" y="331.5" font-family="system-ui, -apple-system, sans-serif" font-size="12" fill="#1f2328" text-anchor="start">ChapelTests</text>
  <rect x="633.2" y="303.5" width="88.4" height="15" fill="#ffffff" opacity="0.75" rx="2" />
  <text x="634.2" y="314.5" font-family="system-ui, -apple-system, sans-serif" font-size="12" fill="#1f2328" text-anchor="start">Xfinity-WiFi</text>
  <rect x="288.0" y="493.2" width="66.8" height="15" fill="#ffffff" opacity="0.75" rx="2" />
  <text x="289.0" y="504.2" font-family="system-ui, -apple-system, sans-serif" font-size="12" fill="#1f2328" text-anchor="start">home-wiki</text>
  <rect x="793" y="36" width="155" height="120" rx="6" fill="#f6f8fa" stroke="#d0d7de" stroke-width="1" opacity="0.95" />
  <circle cx="810" cy="52" r="5" fill="#e74c3c" opacity="0.88" />
  <text x="820" y="56" font-family="system-ui, -apple-system, sans-serif" font-size="10" fill="#1f2328">Languages &amp; Compilers</text>
  <circle cx="810" cy="69" r="5" fill="#3498db" opacity="0.88" />
  <text x="820" y="73" font-family="system-ui, -apple-system, sans-serif" font-size="10" fill="#1f2328">Infrastructure &amp; DevOps</text>
  <circle cx="810" cy="86" r="5" fill="#e67e22" opacity="0.88" />
  <text x="820" y="90" font-family="system-ui, -apple-system, sans-serif" font-size="10" fill="#1f2328">Hardware &amp; Maker</text>
  <circle cx="810" cy="103" r="5" fill="#2ecc71" opacity="0.88" />
  <text x="820" y="107" font-family="system-ui, -apple-system, sans-serif" font-size="10" fill="#1f2328">ML &amp; Data</text>
  <circle cx="810" cy="120" r="5" fill="#9b59b6" opacity="0.88" />
  <text x="820" y="124" font-family="system-ui, -apple-system, sans-serif" font-size="10" fill="#1f2328">Web &amp; Apps</text>
  <circle cx="810" cy="137" r="5" fill="#7f8c8d" opacity="0.88" />
  <text x="820" y="141" font-family="system-ui, -apple-system, sans-serif" font-size="10" fill="#1f2328">Other</text>
  <text x="870" y="150" font-family="system-ui, -apple-system, sans-serif" font-size="8" fill="#656d76" text-anchor="middle">54 repos · 206 edges</text>
</svg>