<svg xmlns="http://www.w3.org/2000/svg" width="960" height="600" viewBox="0 0 960 600">
  <rect width="960" height="600" fill="#0d1117" rx="8" />
  <text x="480" y="24" font-family="system-ui, -apple-system, sans-serif" font-size="13" fill="#8b949e" text-anchor="middle" font-weight="500">Repo Relationship Graph &#x2014; Pairwise Topic &amp; Language Similarity</text>
  <line x1="50" y1="550" x2="910" y2="550" stroke="#484f58" stroke-width="0.5" opacity="0.5" />
  <text x="50" y="570" font-family="system-ui, -apple-system, sans-serif" font-size="9" fill="#8b949e" opacity="0.6">Updated daily by GitHub Actions</text>
  <text x="50" y="588" font-family="system-ui, -apple-system, sans-serif" font-size="9" fill="#8b949e" opacity="0.6">networkx spring_layout · Jaccard similarity &gt; 0.15</text>
  <text x="910" y="570" font-family="system-ui, -apple-system, sans-serif" font-size="9" fill="#8b949e" text-anchor="end" opacity="0.6">54 repos · 207 edges</text>
  <line x1="466.9" y1="311.3" x2="475.3" y2="334.8" stroke="#6e7681" stroke-width="1.0" opacity="0.24" />
  <line x1="466.9" y1="311.3" x2="446.2" y2="295.8" stroke="#6e7681" stroke-width="2.0" opacity="0.80" />
  <line x1="466.9" y1="311.3" x2="515.5" y2="312.6" stroke="#6e7681" stroke-width="1.0" opacity="0.22" />
  <line x1="466.9" y1="311.3" x2="510.4" y2="325.4" stroke="#6e7681" stroke-width="1.0" opacity="0.24" />
  <line x1="466.9" y1="311.3" x2="496.5" y2="338.8" stroke="#6e7681" stroke-width="0.9" opacity="0.17" />
  <line x1="466.9" y1="311.3" x2="495.8" y2="326.9" stroke="#6e7681" stroke-width="0.9" opacity="0.20" />
  <line x1="466.9" y1="311.3" x2="481.1" y2="323.0" stroke="#6e7681" stroke-width="0.9" opacity="0.17" />
  <line x1="466.9" y1="311.3" x2="441.8" y2="320.7" stroke="#6e7681" stroke-width="1.0" opacity="0.23" />
  <line x1="466.9" y1="311.3" x2="478.3" y2="301.8" stroke="#6e7681" stroke-width="1.5" opacity="0.55" />
  <line x1="466.9" y1="311.3" x2="540.9" y2="332.8" stroke="#6e7681" stroke-width="1.0" opacity="0.22" />
  <line x1="508.5" y1="427.1" x2="497.2" y2="414.0" stroke="#6e7681" stroke-width="1.0" opacity="0.26" />
  <line x1="508.5" y1="427.1" x2="526.3" y2="380.5" stroke="#6e7681" stroke-width="0.9" opacity="0.20" />
  <line x1="508.5" y1="427.1" x2="494.0" y2="388.2" stroke="#6e7681" stroke-width="1.0" opacity="0.22" />
  <line x1="475.3" y1="334.8" x2="515.5" y2="312.6" stroke="#6e7681" stroke-width="0.9" opacity="0.17" />
  <line x1="475.3" y1="334.8" x2="510.4" y2="325.4" stroke="#6e7681" stroke-width="1.1" opacity="0.28" />
  <line x1="475.3" y1="334.8" x2="496.5" y2="338.8" stroke="#6e7681" stroke-width="1.0" opacity="0.22" />
  <line x1="475.3" y1="334.8" x2="495.8" y2="326.9" stroke="#6e7681" stroke-width="1.0" opacity="0.24" />
  <line x1="475.3" y1="334.8" x2="481.1" y2="323.0" stroke="#6e7681" stroke-width="1.0" opacity="0.22" />
  <line x1="475.3" y1="334.8" x2="441.8" y2="320.7" stroke="#6e7681" stroke-width="0.9" opacity="0.20" />
  <line x1="475.3" y1="334.8" x2="478.3" y2="301.8" stroke="#6e7681" stroke-width="1.0" opacity="0.22" />
  <line x1="475.3" y1="334.8" x2="488.0" y2="370.6" stroke="#6e7681" stroke-width="0.9" opacity="0.19" />
  <line x1="475.3" y1="334.8" x2="524.1" y2="354.4" stroke="#6e7681" stroke-width="0.9" opacity="0.21" />
  <line x1="475.3" y1="334.8" x2="533.4" y2="347.1" stroke="#6e7681" stroke-width="1.0" opacity="0.24" />
  <line x1="475.3" y1="334.8" x2="540.9" y2="332.8" stroke="#6e7681" stroke-width="0.9" opacity="0.17" />
  <line x1="523.6" y1="393.2" x2="526.3" y2="380.5" stroke="#6e7681" stroke-width="0.9" opacity="0.18" />
  <line x1="523.6" y1="393.2" x2="494.0" y2="388.2" stroke="#6e7681" stroke-width="0.9" opacity="0.18" />
  <line x1="523.6" y1="393.2" x2="524.1" y2="354.4" stroke="#6e7681" stroke-width="0.9" opacity="0.17" />
  <line x1="523.6" y1="393.2" x2="524.9" y2="369.4" stroke="#6e7681" stroke-width="1.3" opacity="0.42" />
  <line x1="523.6" y1="393.2" x2="533.4" y2="347.1" stroke="#6e7681" stroke-width="0.9" opacity="0.19" />
  <line x1="523.6" y1="393.2" x2="511.0" y2="376.6" stroke="#6e7681" stroke-width="0.9" opacity="0.21" />
  <line x1="446.2" y1="295.8" x2="515.5" y2="312.6" stroke="#6e7681" stroke-width="1.1" opacity="0.28" />
  <line x1="446.2" y1="295.8" x2="441.8" y2="320.7" stroke="#6e7681" stroke-width="0.9" opacity="0.17" />
  <line x1="446.2" y1="295.8" x2="478.3" y2="301.8" stroke="#6e7681" stroke-width="1.2" opacity="0.37" />
  <line x1="515.5" y1="312.6" x2="510.4" y2="325.4" stroke="#6e7681" stroke-width="1.1" opacity="0.31" />
  <line x1="515.5" y1="312.6" x2="496.5" y2="338.8" stroke="#6e7681" stroke-width="0.9" opacity="0.20" />
  <line x1="515.5" y1="312.6" x2="495.8" y2="326.9" stroke="#6e7681" stroke-width="1.0" opacity="0.24" />
  <line x1="515.5" y1="312.6" x2="481.1" y2="323.0" stroke="#6e7681" stroke-width="0.9" opacity="0.20" />
  <line x1="515.5" y1="312.6" x2="478.3" y2="301.8" stroke="#6e7681" stroke-width="0.9" opacity="0.18" />
  <line x1="515.5" y1="312.6" x2="548.4" y2="319.5" stroke="#6e7681" stroke-width="1.5" opacity="0.55" />
  <line x1="515.5" y1="312.6" x2="564.9" y2="316.1" stroke="#6e7681" stroke-width="1.2" opacity="0.37" />
  <line x1="515.5" y1="312.6" x2="550.7" y2="331.8" stroke="#6e7681" stroke-width="1.0" opacity="0.22" />
  <line x1="515.5" y1="312.6" x2="533.4" y2="347.1" stroke="#6e7681" stroke-width="1.0" opacity="0.22" />
  <line x1="515.5" y1="312.6" x2="545.4" y2="308.4" stroke="#6e7681" stroke-width="1.2" opacity="0.37" />
  <line x1="515.5" y1="312.6" x2="524.2" y2="324.1" stroke="#6e7681" stroke-width="1.1" opacity="0.28" />
  <line x1="515.5" y1="312.6" x2="566.7" y2="307.5" stroke="#6e7681" stroke-width="1.2" opacity="0.37" />
  <line x1="515.5" y1="312.6" x2="540.9" y2="332.8" stroke="#6e7681" stroke-width="1.2" opacity="0.37" />
  <line x1="510.4" y1="325.4" x2="496.5" y2="338.8" stroke="#6e7681" stroke-width="1.1" opacity="0.31" />
  <line x1="510.4" y1="325.4" x2="495.8" y2="326.9" stroke="#6e7681" stroke-width="1.2" opacity="0.37" />
  <line x1="510.4" y1="325.4" x2="481.1" y2="323.0" stroke="#6e7681" stroke-width="1.1" opacity="0.31" />
  <line x1="510.4" y1="325.4" x2="441.8" y2="320.7" stroke="#6e7681" stroke-width="1.0" opacity="0.26" />
  <line x1="510.4" y1="325.4" x2="478.3" y2="301.8" stroke="#6e7681" stroke-width="1.0" opacity="0.22" />
  <line x1="510.4" y1="325.4" x2="592.6" y2="308.8" stroke="#6e7681" stroke-width="0.9" opacity="0.18" />
  <line x1="510.4" y1="325.4" x2="565.6" y2="336.7" stroke="#6e7681" stroke-width="0.9" opacity="0.20" />
  <line x1="510.4" y1="325.4" x2="550.7" y2="331.8" stroke="#6e7681" stroke-width="1.0" opacity="0.24" />
  <line x1="510.4" y1="325.4" x2="524.1" y2="354.4" stroke="#6e7681" stroke-width="0.9" opacity="0.20" />
  <line x1="510.4" y1="325.4" x2="533.4" y2="347.1" stroke="#6e7681" stroke-width="1.0" opacity="0.24" />
  <line x1="510.4" y1="325.4" x2="569.8" y2="348.4" stroke="#6e7681" stroke-width="0.9" opacity="0.18" />
  <line x1="510.4" y1="325.4" x2="540.9" y2="332.8" stroke="#6e7681" stroke-width="1.1" opacity="0.31" />
  <line x1="601.5" y1="350.4" x2="550.7" y2="331.8" stroke="#6e7681" stroke-width="0.9" opacity="0.18" />
  <line x1="601.5" y1="350.4" x2="533.4" y2="347.1" stroke="#6e7681" stroke-width="1.1" opacity="0.30" />
  <line x1="601.5" y1="350.4" x2="540.9" y2="332.8" stroke="#6e7681" stroke-width="1.0" opacity="0.22" />
  <line x1="496.5" y1="338.8" x2="495.8" y2="326.9" stroke="#6e7681" stroke-width="1.1" opacity="0.28" />
  <line x1="496.5" y1="338.8" x2="481.1" y2="323.0" stroke="#6e7681" stroke-width="1.0" opacity="0.24" />
  <line x1="496.5" y1="338.8" x2="441.8" y2="320.7" stroke="#6e7681" stroke-width="0.9" opacity="0.17" />
  <line x1="496.5" y1="338.8" x2="532.3" y2="362.5" stroke="#6e7681" stroke-width="0.9" opacity="0.19" />
  <line x1="496.5" y1="338.8" x2="559.9" y2="363.4" stroke="#6e7681" stroke-width="0.9" opacity="0.18" />
  <line x1="496.5" y1="338.8" x2="550.7" y2="331.8" stroke="#6e7681" stroke-width="0.9" opacity="0.17" />
  <line x1="496.5" y1="338.8" x2="533.4" y2="347.1" stroke="#6e7681" stroke-width="0.9" opacity="0.17" />
  <line x1="496.5" y1="338.8" x2="540.9" y2="332.8" stroke="#6e7681" stroke-width="0.9" opacity="0.20" />
  <line x1="495.8" y1="326.9" x2="481.1" y2="323.0" stroke="#6e7681" stroke-width="1.1" opacity="0.28" />
  <line x1="495.8" y1="326.9" x2="441.8" y2="320.7" stroke="#6e7681" stroke-width="0.9" opacity="0.18" />
  <line x1="495.8" y1="326.9" x2="478.3" y2="301.8" stroke="#6e7681" stroke-width="0.9" opacity="0.18" />
  <line x1="495.8" y1="326.9" x2="565.6" y2="336.7" stroke="#6e7681" stroke-width="0.9" opacity="0.17" />
  <line x1="495.8" y1="326.9" x2="550.7" y2="331.8" stroke="#6e7681" stroke-width="0.9" opacity="0.20" />
  <line x1="495.8" y1="326.9" x2="524.1" y2="354.4" stroke="#6e7681" stroke-width="0.9" opacity="0.17" />
  <line x1="495.8" y1="326.9" x2="533.4" y2="347.1" stroke="#6e7681" stroke-width="0.9" opacity="0.20" />
  <line x1="495.8" y1="326.9" x2="540.9" y2="332.8" stroke="#6e7681" stroke-width="1.0" opacity="0.24" />
  <line x1="481.1" y1="323.0" x2="441.8" y2="320.7" stroke="#6e7681" stroke-width="0.9" opacity="0.17" />
  <line x1="481.1" y1="323.0" x2="550.7" y2="331.8" stroke="#6e7681" stroke-width="0.9" opacity="0.17" />
  <line x1="481.1" y1="323.0" x2="533.4" y2="347.1" stroke="#6e7681" stroke-width="0.9" opacity="0.17" />
  <line x1="481.1" y1="323.0" x2="540.9" y2="332.8" stroke="#6e7681" stroke-width="0.9" opacity="0.20" />
  <line x1="497.2" y1="414.0" x2="526.3" y2="380.5" stroke="#6e7681" stroke-width="1.0" opacity="0.26" />
  <line x1="497.2" y1="414.0" x2="494.0" y2="388.2" stroke="#6e7681" stroke-width="1.1" opacity="0.31" />
  <line x1="497.2" y1="414.0" x2="511.0" y2="376.6" stroke="#6e7681" stroke-width="0.9" opacity="0.18" />
  <line x1="478.3" y1="301.8" x2="498.3" y2="281.1" stroke="#6e7681" stroke-width="1.0" opacity="0.22" />
  <line x1="478.3" y1="301.8" x2="540.9" y2="332.8" stroke="#6e7681" stroke-width="0.9" opacity="0.18" />
  <line x1="655.2" y1="291.4" x2="592.6" y2="308.8" stroke="#6e7681" stroke-width="1.3" opacity="0.44" />
  <line x1="655.2" y1="291.4" x2="623.1" y2="285.4" stroke="#6e7681" stroke-width="0.9" opacity="0.18" />
  <line x1="592.6" y1="308.8" x2="564.9" y2="316.1" stroke="#6e7681" stroke-width="1.1" opacity="0.31" />
  <line x1="592.6" y1="308.8" x2="565.6" y2="336.7" stroke="#6e7681" stroke-width="0.9" opacity="0.20" />
  <line x1="592.6" y1="308.8" x2="550.7" y2="331.8" stroke="#6e7681" stroke-width="1.0" opacity="0.24" />
  <line x1="592.6" y1="308.8" x2="524.1" y2="354.4" stroke="#6e7681" stroke-width="0.9" opacity="0.20" />
  <line x1="592.6" y1="308.8" x2="533.4" y2="347.1" stroke="#6e7681" stroke-width="1.0" opacity="0.24" />
  <line x1="592.6" y1="308.8" x2="569.8" y2="348.4" stroke="#6e7681" stroke-width="0.9" opacity="0.18" />
  <line x1="592.6" y1="308.8" x2="663.3" y2="229.9" stroke="#6e7681" stroke-width="0.9" opacity="0.17" />
  <line x1="592.6" y1="308.8" x2="566.7" y2="307.5" stroke="#6e7681" stroke-width="1.1" opacity="0.31" />
  <line x1="592.6" y1="308.8" x2="623.1" y2="285.4" stroke="#6e7681" stroke-width="1.1" opacity="0.30" />
  <line x1="592.6" y1="308.8" x2="540.9" y2="332.8" stroke="#6e7681" stroke-width="1.1" opacity="0.31" />
  <line x1="559.1" y1="50.0" x2="578.6" y2="59.1" stroke="#6e7681" stroke-width="1.6" opacity="0.60" />
  <line x1="375.1" y1="416.2" x2="494.0" y2="388.2" stroke="#6e7681" stroke-width="0.9" opacity="0.18" />
  <line x1="375.1" y1="416.2" x2="299.9" y2="417.3" stroke="#6e7681" stroke-width="1.1" opacity="0.28" />
  <line x1="496.5" y1="363.5" x2="526.3" y2="380.5" stroke="#6e7681" stroke-width="0.9" opacity="0.17" />
  <line x1="496.5" y1="363.5" x2="494.0" y2="388.2" stroke="#6e7681" stroke-width="0.9" opacity="0.18" />
  <line x1="496.5" y1="363.5" x2="532.3" y2="362.5" stroke="#6e7681" stroke-width="1.0" opacity="0.22" />
  <line x1="496.5" y1="363.5" x2="524.1" y2="354.4" stroke="#6e7681" stroke-width="1.1" opacity="0.28" />
  <line x1="496.5" y1="363.5" x2="524.9" y2="369.4" stroke="#6e7681" stroke-width="1.1" opacity="0.32" />
  <line x1="496.5" y1="363.5" x2="533.4" y2="347.1" stroke="#6e7681" stroke-width="0.9" opacity="0.20" />
  <line x1="496.5" y1="363.5" x2="511.0" y2="376.6" stroke="#6e7681" stroke-width="1.0" opacity="0.22" />
  <line x1="496.5" y1="363.5" x2="524.2" y2="324.1" stroke="#6e7681" stroke-width="1.0" opacity="0.22" />
  <line x1="526.3" y1="380.5" x2="494.0" y2="388.2" stroke="#6e7681" stroke-width="1.3" opacity="0.42" />
  <line x1="526.3" y1="380.5" x2="541.5" y2="389.9" stroke="#6e7681" stroke-width="0.9" opacity="0.18" />
  <line x1="526.3" y1="380.5" x2="488.0" y2="370.6" stroke="#6e7681" stroke-width="1.1" opacity="0.31" />
  <line x1="526.3" y1="380.5" x2="532.3" y2="362.5" stroke="#6e7681" stroke-width="1.1" opacity="0.32" />
  <line x1="526.3" y1="380.5" x2="559.9" y2="363.4" stroke="#6e7681" stroke-width="1.0" opacity="0.23" />
  <line x1="526.3" y1="380.5" x2="524.1" y2="354.4" stroke="#6e7681" stroke-width="1.2" opacity="0.39" />
  <line x1="526.3" y1="380.5" x2="524.9" y2="369.4" stroke="#6e7681" stroke-width="1.0" opacity="0.26" />
  <line x1="526.3" y1="380.5" x2="533.4" y2="347.1" stroke="#6e7681" stroke-width="1.2" opacity="0.34" />
  <line x1="526.3" y1="380.5" x2="569.8" y2="348.4" stroke="#6e7681" stroke-width="0.9" opacity="0.19" />
  <line x1="526.3" y1="380.5" x2="511.0" y2="376.6" stroke="#6e7681" stroke-width="1.0" opacity="0.25" />
  <line x1="526.3" y1="380.5" x2="540.9" y2="332.8" stroke="#6e7681" stroke-width="0.9" opacity="0.17" />
  <line x1="494.0" y1="388.2" x2="541.5" y2="389.9" stroke="#6e7681" stroke-width="1.1" opacity="0.33" />
  <line x1="494.0" y1="388.2" x2="488.0" y2="370.6" stroke="#6e7681" stroke-width="0.9" opacity="0.21" />
  <line x1="494.0" y1="388.2" x2="532.3" y2="362.5" stroke="#6e7681" stroke-width="0.9" opacity="0.18" />
  <line x1="494.0" y1="388.2" x2="524.1" y2="354.4" stroke="#6e7681" stroke-width="1.3" opacity="0.41" />
  <line x1="494.0" y1="388.2" x2="524.9" y2="369.4" stroke="#6e7681" stroke-width="1.0" opacity="0.22" />
  <line x1="494.0" y1="388.2" x2="533.4" y2="347.1" stroke="#6e7681" stroke-width="1.1" opacity="0.31" />
  <line x1="494.0" y1="388.2" x2="511.0" y2="376.6" stroke="#6e7681" stroke-width="1.7" opacity="0.66" />
  <line x1="548.4" y1="319.5" x2="564.9" y2="316.1" stroke="#6e7681" stroke-width="1.5" opacity="0.55" />
  <line x1="548.4" y1="319.5" x2="565.6" y2="336.7" stroke="#6e7681" stroke-width="0.9" opacity="0.18" />
  <line x1="548.4" y1="319.5" x2="550.7" y2="331.8" stroke="#6e7681" stroke-width="1.1" opacity="0.28" />
  <line x1="548.4" y1="319.5" x2="524.1" y2="354.4" stroke="#6e7681" stroke-width="0.9" opacity="0.18" />
  <line x1="548.4" y1="319.5" x2="533.4" y2="347.1" stroke="#6e7681" stroke-width="1.1" opacity="0.28" />
  <line x1="548.4" y1="319.5" x2="545.4" y2="308.4" stroke="#6e7681" stroke-width="1.5" opacity="0.55" />
  <line x1="548.4" y1="319.5" x2="524.2" y2="324.1" stroke="#6e7681" stroke-width="1.2" opacity="0.37" />
  <line x1="548.4" y1="319.5" x2="566.7" y2="307.5" stroke="#6e7681" stroke-width="1.5" opacity="0.55" />
  <line x1="548.4" y1="319.5" x2="540.9" y2="332.8" stroke="#6e7681" stroke-width="1.5" opacity="0.55" />
  <line x1="564.9" y1="316.1" x2="550.7" y2="331.8" stroke="#6e7681" stroke-width="1.0" opacity="0.22" />
  <line x1="564.9" y1="316.1" x2="533.4" y2="347.1" stroke="#6e7681" stroke-width="1.0" opacity="0.22" />
  <line x1="564.9" y1="316.1" x2="545.4" y2="308.4" stroke="#6e7681" stroke-width="1.2" opacity="0.37" />
  <line x1="564.9" y1="316.1" x2="524.2" y2="324.1" stroke="#6e7681" stroke-width="1.1" opacity="0.28" />
  <line x1="564.9" y1="316.1" x2="566.7" y2="307.5" stroke="#6e7681" stroke-width="1.2" opacity="0.37" />
  <line x1="564.9" y1="316.1" x2="540.9" y2="332.8" stroke="#6e7681" stroke-width="1.2" opacity="0.37" />
  <line x1="541.5" y1="389.9" x2="524.1" y2="354.4" stroke="#6e7681" stroke-width="0.9" opacity="0.18" />
  <line x1="541.5" y1="389.9" x2="524.9" y2="369.4" stroke="#6e7681" stroke-width="0.9" opacity="0.18" />
  <line x1="541.5" y1="389.9" x2="533.4" y2="347.1" stroke="#6e7681" stroke-width="1.0" opacity="0.22" />
  <line x1="541.5" y1="389.9" x2="511.0" y2="376.6" stroke="#6e7681" stroke-width="1.3" opacity="0.41" />
  <line x1="488.0" y1="370.6" x2="532.3" y2="362.5" stroke="#6e7681" stroke-width="1.1" opacity="0.31" />
  <line x1="488.0" y1="370.6" x2="524.1" y2="354.4" stroke="#6e7681" stroke-width="1.4" opacity="0.47" />
  <line x1="488.0" y1="370.6" x2="524.9" y2="369.4" stroke="#6e7681" stroke-width="0.9" opacity="0.19" />
  <line x1="488.0" y1="370.6" x2="533.4" y2="347.1" stroke="#6e7681" stroke-width="1.0" opacity="0.22" />
  <line x1="532.3" y1="362.5" x2="559.9" y2="363.4" stroke="#6e7681" stroke-width="1.1" opacity="0.29" />
  <line x1="532.3" y1="362.5" x2="565.6" y2="336.7" stroke="#6e7681" stroke-width="0.9" opacity="0.17" />
  <line x1="532.3" y1="362.5" x2="550.7" y2="331.8" stroke="#6e7681" stroke-width="0.9" opacity="0.20" />
  <line x1="532.3" y1="362.5" x2="524.1" y2="354.4" stroke="#6e7681" stroke-width="1.3" opacity="0.40" />
  <line x1="532.3" y1="362.5" x2="524.9" y2="369.4" stroke="#6e7681" stroke-width="1.0" opacity="0.24" />
  <line x1="532.3" y1="362.5" x2="533.4" y2="347.1" stroke="#6e7681" stroke-width="0.9" opacity="0.20" />
  <line x1="532.3" y1="362.5" x2="540.9" y2="332.8" stroke="#6e7681" stroke-width="1.0" opacity="0.24" />
  <line x1="559.9" y1="363.4" x2="550.7" y2="331.8" stroke="#6e7681" stroke-width="0.9" opacity="0.18" />
  <line x1="559.9" y1="363.4" x2="524.9" y2="369.4" stroke="#6e7681" stroke-width="1.0" opacity="0.23" />
  <line x1="559.9" y1="363.4" x2="533.4" y2="347.1" stroke="#6e7681" stroke-width="0.9" opacity="0.18" />
  <line x1="559.9" y1="363.4" x2="569.8" y2="348.4" stroke="#6e7681" stroke-width="1.0" opacity="0.24" />
  <line x1="559.9" y1="363.4" x2="540.9" y2="332.8" stroke="#6e7681" stroke-width="1.0" opacity="0.22" />
  <line x1="565.6" y1="336.7" x2="550.7" y2="331.8" stroke="#6e7681" stroke-width="1.1" opacity="0.28" />
  <line x1="565.6" y1="336.7" x2="524.1" y2="354.4" stroke="#6e7681" stroke-width="1.0" opacity="0.22" />
  <line x1="565.6" y1="336.7" x2="533.4" y2="347.1" stroke="#6e7681" stroke-width="1.1" opacity="0.28" />
  <line x1="565.6" y1="336.7" x2="569.8" y2="348.4" stroke="#6e7681" stroke-width="0.9" opacity="0.20" />
  <line x1="565.6" y1="336.7" x2="540.9" y2="332.8" stroke="#6e7681" stroke-width="1.2" opacity="0.37" />
  <line x1="550.7" y1="331.8" x2="524.1" y2="354.4" stroke="#6e7681" stroke-width="1.1" opacity="0.28" />
  <line x1="550.7" y1="331.8" x2="533.4" y2="347.1" stroke="#6e7681" stroke-width="1.2" opacity="0.37" />
  <line x1="550.7" y1="331.8" x2="545.4" y2="308.4" stroke="#6e7681" stroke-width="1.0" opacity="0.22" />
  <line x1="550.7" y1="331.8" x2="569.8" y2="348.4" stroke="#6e7681" stroke-width="1.0" opacity="0.24" />
  <line x1="550.7" y1="331.8" x2="524.2" y2="324.1" stroke="#6e7681" stroke-width="0.9" opacity="0.18" />
  <line x1="550.7" y1="331.8" x2="566.7" y2="307.5" stroke="#6e7681" stroke-width="1.0" opacity="0.22" />
  <line x1="550.7" y1="331.8" x2="540.9" y2="332.8" stroke="#6e7681" stroke-width="1.5" opacity="0.55" />
  <line x1="524.1" y1="354.4" x2="524.9" y2="369.4" stroke="#6e7681" stroke-width="1.1" opacity="0.29" />
  <line x1="524.1" y1="354.4" x2="533.4" y2="347.1" stroke="#6e7681" stroke-width="1.4" opacity="0.47" />
  <line x1="524.1" y1="354.4" x2="569.8" y2="348.4" stroke="#6e7681" stroke-width="0.9" opacity="0.20" />
  <line x1="524.1" y1="354.4" x2="511.0" y2="376.6" stroke="#6e7681" stroke-width="1.1" opacity="0.31" />
  <line x1="524.1" y1="354.4" x2="524.2" y2="324.1" stroke="#6e7681" stroke-width="1.1" opacity="0.31" />
  <line x1="524.1" y1="354.4" x2="540.9" y2="332.8" stroke="#6e7681" stroke-width="1.2" opacity="0.37" />
  <line x1="524.9" y1="369.4" x2="533.4" y2="347.1" stroke="#6e7681" stroke-width="1.2" opacity="0.34" />
  <line x1="524.9" y1="369.4" x2="511.0" y2="376.6" stroke="#6e7681" stroke-width="1.0" opacity="0.25" />
  <line x1="524.9" y1="369.4" x2="524.2" y2="324.1" stroke="#6e7681" stroke-width="1.0" opacity="0.25" />
  <line x1="524.9" y1="369.4" x2="540.9" y2="332.8" stroke="#6e7681" stroke-width="0.9" opacity="0.17" />
  <line x1="533.4" y1="347.1" x2="545.4" y2="308.4" stroke="#6e7681" stroke-width="1.0" opacity="0.22" />
  <line x1="533.4" y1="347.1" x2="569.8" y2="348.4" stroke="#6e7681" stroke-width="1.0" opacity="0.24" />
  <line x1="533.4" y1="347.1" x2="511.0" y2="376.6" stroke="#6e7681" stroke-width="1.3" opacity="0.44" />
  <line x1="533.4" y1="347.1" x2="524.2" y2="324.1" stroke="#6e7681" stroke-width="1.3" opacity="0.44" />
  <line x1="533.4" y1="347.1" x2="566.7" y2="307.5" stroke="#6e7681" stroke-width="1.0" opacity="0.22" />
  <line x1="533.4" y1="347.1" x2="540.9" y2="332.8" stroke="#6e7681" stroke-width="1.5" opacity="0.55" />
  <line x1="258.0" y1="109.0" x2="227.7" y2="120.1" stroke="#6e7681" stroke-width="1.0" opacity="0.22" />
  <line x1="648.5" y1="341.5" x2="540.9" y2="332.8" stroke="#6e7681" stroke-width="1.0" opacity="0.22" />
  <line x1="545.4" y1="308.4" x2="524.2" y2="324.1" stroke="#6e7681" stroke-width="1.1" opacity="0.28" />
  <line x1="545.4" y1="308.4" x2="566.7" y2="307.5" stroke="#6e7681" stroke-width="1.2" opacity="0.37" />
  <line x1="545.4" y1="308.4" x2="540.9" y2="332.8" stroke="#6e7681" stroke-width="1.2" opacity="0.37" />
  <line x1="693.5" y1="201.0" x2="679.4" y2="187.7" stroke="#6e7681" stroke-width="1.5" opacity="0.55" />
  <line x1="693.5" y1="201.0" x2="663.3" y2="229.9" stroke="#6e7681" stroke-width="1.3" opacity="0.41" />
  <line x1="679.4" y1="187.7" x2="663.3" y2="229.9" stroke="#6e7681" stroke-width="1.0" opacity="0.24" />
  <line x1="569.8" y1="348.4" x2="540.9" y2="332.8" stroke="#6e7681" stroke-width="1.1" opacity="0.31" />
  <line x1="511.0" y1="376.6" x2="524.2" y2="324.1" stroke="#6e7681" stroke-width="1.0" opacity="0.22" />
  <line x1="524.2" y1="324.1" x2="498.3" y2="281.1" stroke="#6e7681" stroke-width="1.2" opacity="0.37" />
  <line x1="524.2" y1="324.1" x2="501.8" y2="263.5" stroke="#6e7681" stroke-width="0.9" opacity="0.18" />
  <line x1="524.2" y1="324.1" x2="566.7" y2="307.5" stroke="#6e7681" stroke-width="1.1" opacity="0.28" />
  <line x1="524.2" y1="324.1" x2="540.9" y2="332.8" stroke="#6e7681" stroke-width="1.1" opacity="0.28" />
  <line x1="498.3" y1="281.1" x2="501.8" y2="263.5" stroke="#6e7681" stroke-width="1.1" opacity="0.28" />
  <line x1="566.7" y1="307.5" x2="623.1" y2="285.4" stroke="#6e7681" stroke-width="1.1" opacity="0.31" />
  <line x1="566.7" y1="307.5" x2="540.9" y2="332.8" stroke="#6e7681" stroke-width="1.2" opacity="0.37" />
  <circle cx="466.9" cy="311.3" r="11.7" fill="#3498db" opacity="0.12" />
  <circle cx="466.9" cy="311.3" r="7.7" fill="#3498db" opacity="0.88" />
  <circle cx="508.5" cy="427.1" r="20" fill="#3498db" opacity="0.12" />
  <circle cx="508.5" cy="427.1" r="16" fill="#3498db" opacity="0.88" />
  <circle cx="475.3" cy="334.8" r="19.8" fill="#7f8c8d" opacity="0.12" />
  <circle cx="475.3" cy="334.8" r="15.8" fill="#7f8c8d" opacity="0.88" />
  <circle cx="523.6" cy="393.2" r="20" fill="#9b59b6" opacity="0.12" />
  <circle cx="523.6" cy="393.2" r="16" fill="#9b59b6" opacity="0.88" />
  <circle cx="446.2" cy="295.8" r="10.8" fill="#3498db" opacity="0.12" />
  <circle cx="446.2" cy="295.8" r="6.8" fill="#3498db" opacity="0.88" />
  <circle cx="515.5" cy="312.6" r="9.9" fill="#3498db" opacity="0.12" />
  <circle cx="515.5" cy="312.6" r="5.9" fill="#3498db" opacity="0.88" />
  <circle cx="510.4" cy="325.4" r="14.4" fill="#e67e22" opacity="0.12" />
  <circle cx="510.4" cy="325.4" r="10.4" fill="#e67e22" opacity="0.88" />
  <circle cx="601.5" cy="350.4" r="17.1" fill="#e67e22" opacity="0.12" />
  <circle cx="601.5" cy="350.4" r="13.1" fill="#e67e22" opacity="0.88" />
  <circle cx="496.5" cy="338.8" r="18.0" fill="#3498db" opacity="0.12" />
  <circle cx="496.5" cy="338.8" r="14.0" fill="#3498db" opacity="0.88" />
  <circle cx="495.8" cy="326.9" r="16.2" fill="#3498db" opacity="0.12" />
  <circle cx="495.8" cy="326.9" r="12.2" fill="#3498db" opacity="0.88" />
  <circle cx="481.1" cy="323.0" r="18.0" fill="#3498db" opacity="0.12" />
  <circle cx="481.1" cy="323.0" r="14.0" fill="#3498db" opacity="0.88" />
  <circle cx="441.8" cy="320.7" r="20" fill="#e74c3c" opacity="0.12" />
  <circle cx="441.8" cy="320.7" r="16" fill="#e74c3c" opacity="0.88" />
  <circle cx="497.2" cy="414.0" r="20" fill="#e74c3c" opacity="0.12" />
  <circle cx="497.2" cy="414.0" r="16" fill="#e74c3c" opacity="0.88" />
  <circle cx="478.3" cy="301.8" r="12.6" fill="#2ecc71" opacity="0.12" />
  <circle cx="478.3" cy="301.8" r="8.6" fill="#2ecc71" opacity="0.88" />
  <circle cx="655.2" cy="291.4" r="14.4" fill="#e74c3c" opacity="0.12" />
  <circle cx="655.2" cy="291.4" r="10.4" fill="#e74c3c" opacity="0.88" />
  <circle cx="817.6" cy="125.5" r="16.2" fill="#3498db" opacity="0.12" />
  <circle cx="817.6" cy="125.5" r="12.2" fill="#3498db" opacity="0.88" />
  <circle cx="592.6" cy="308.8" r="14.4" fill="#e74c3c" opacity="0.12" />
  <circle cx="592.6" cy="308.8" r="10.4" fill="#e74c3c" opacity="0.88" />
  <circle cx="910.0" cy="371.9" r="9" fill="#3498db" opacity="0.12" />
  <circle cx="910.0" cy="371.9" r="5" fill="#3498db" opacity="0.88" />
  <circle cx="559.1" cy="50.0" r="16.2" fill="#3498db" opacity="0.12" />
  <circle cx="559.1" cy="50.0" r="12.2" fill="#3498db" opacity="0.88" />
  <circle cx="578.6" cy="59.1" r="15.3" fill="#3498db" opacity="0.12" />
  <circle cx="578.6" cy="59.1" r="11.3" fill="#3498db" opacity="0.88" />
  <circle cx="375.1" cy="416.2" r="9.9" fill="#3498db" opacity="0.12" />
  <circle cx="375.1" cy="416.2" r="5.9" fill="#3498db" opacity="0.88" />
  <circle cx="496.5" cy="363.5" r="16.2" fill="#9b59b6" opacity="0.12" />
  <circle cx="496.5" cy="363.5" r="12.2" fill="#9b59b6" opacity="0.88" />
  <circle cx="526.3" cy="380.5" r="19.8" fill="#9b59b6" opacity="0.12" />
  <circle cx="526.3" cy="380.5" r="15.8" fill="#9b59b6" opacity="0.88" />
  <circle cx="494.0" cy="388.2" r="12.6" fill="#9b59b6" opacity="0.12" />
  <circle cx="494.0" cy="388.2" r="8.6" fill="#9b59b6" opacity="0.88" />
  <circle cx="548.4" cy="319.5" r="9" fill="#2ecc71" opacity="0.12" />
  <circle cx="548.4" cy="319.5" r="5" fill="#2ecc71" opacity="0.88" />
  <circle cx="564.9" cy="316.1" r="9.9" fill="#7f8c8d" opacity="0.12" />
  <circle cx="564.9" cy="316.1" r="5.9" fill="#7f8c8d" opacity="0.88" />
  <circle cx="541.5" cy="389.9" r="15.3" fill="#e67e22" opacity="0.12" />
  <circle cx="541.5" cy="389.9" r="11.3" fill="#e67e22" opacity="0.88" />
  <circle cx="488.0" cy="370.6" r="20" fill="#2ecc71" opacity="0.12" />
  <circle cx="488.0" cy="370.6" r="16" fill="#2ecc71" opacity="0.88" />
  <circle cx="299.9" cy="417.3" r="10.8" fill="#9b59b6" opacity="0.12" />
  <circle cx="299.9" cy="417.3" r="6.8" fill="#9b59b6" opacity="0.88" />
  <circle cx="50.0" cy="219.1" r="9" fill="#7f8c8d" opacity="0.12" />
  <circle cx="50.0" cy="219.1" r="5" fill="#7f8c8d" opacity="0.88" />
  <circle cx="532.3" cy="362.5" r="16.2" fill="#3498db" opacity="0.12" />
  <circle cx="532.3" cy="362.5" r="12.2" fill="#3498db" opacity="0.88" />
  <circle cx="559.9" cy="363.4" r="17.1" fill="#7f8c8d" opacity="0.12" />
  <circle cx="559.9" cy="363.4" r="13.1" fill="#7f8c8d" opacity="0.88" />
  <circle cx="565.6" cy="336.7" r="13.5" fill="#7f8c8d" opacity="0.12" />
  <circle cx="565.6" cy="336.7" r="9.5" fill="#7f8c8d" opacity="0.88" />
  <circle cx="123.4" cy="433.9" r="9" fill="#7f8c8d" opacity="0.12" />
  <circle cx="123.4" cy="433.9" r="5" fill="#7f8c8d" opacity="0.88" />
  <circle cx="550.7" cy="331.8" r="11.7" fill="#7f8c8d" opacity="0.12" />
  <circle cx="550.7" cy="331.8" r="7.7" fill="#7f8c8d" opacity="0.88" />
  <circle cx="524.1" cy="354.4" r="13.5" fill="#7f8c8d" opacity="0.12" />
  <circle cx="524.1" cy="354.4" r="9.5" fill="#7f8c8d" opacity="0.88" />
  <circle cx="524.9" cy="369.4" r="19.8" fill="#2ecc71" opacity="0.12" />
  <circle cx="524.9" cy="369.4" r="15.8" fill="#2ecc71" opacity="0.88" />
  <circle cx="533.4" cy="347.1" r="11.7" fill="#7f8c8d" opacity="0.12" />
  <circle cx="533.4" cy="347.1" r="7.7" fill="#7f8c8d" opacity="0.88" />
  <circle cx="258.0" cy="109.0" r="11.7" fill="#7f8c8d" opacity="0.12" />
  <circle cx="258.0" cy="109.0" r="7.7" fill="#7f8c8d" opacity="0.88" />
  <circle cx="648.5" cy="341.5" r="11.7" fill="#3498db" opacity="0.12" />
  <circle cx="648.5" cy="341.5" r="7.7" fill="#3498db" opacity="0.88" />
  <circle cx="545.4" cy="308.4" r="9.9" fill="#7f8c8d" opacity="0.12" />
  <circle cx="545.4" cy="308.4" r="5.9" fill="#7f8c8d" opacity="0.88" />
  <circle cx="693.5" cy="201.0" r="10.8" fill="#e67e22" opacity="0.12" />
  <circle cx="693.5" cy="201.0" r="6.8" fill="#e67e22" opacity="0.88" />
  <circle cx="679.4" cy="187.7" r="10.8" fill="#e67e22" opacity="0.12" />
  <circle cx="679.4" cy="187.7" r="6.8" fill="#e67e22" opacity="0.88" />
  <circle cx="569.8" cy="348.4" r="14.4" fill="#7f8c8d" opacity="0.12" />
  <circle cx="569.8" cy="348.4" r="10.4" fill="#7f8c8d" opacity="0.88" />
  <circle cx="663.3" cy="229.9" r="15.3" fill="#e67e22" opacity="0.12" />
  <circle cx="663.3" cy="229.9" r="11.3" fill="#e67e22" opacity="0.88" />
  <circle cx="227.7" cy="120.1" r="9.9" fill="#7f8c8d" opacity="0.12" />
  <circle cx="227.7" cy="120.1" r="5.9" fill="#7f8c8d" opacity="0.88" />
  <circle cx="511.0" cy="376.6" r="10.8" fill="#7f8c8d" opacity="0.12" />
  <circle cx="511.0" cy="376.6" r="6.8" fill="#7f8c8d" opacity="0.88" />
  <circle cx="524.2" cy="324.1" r="10.8" fill="#7f8c8d" opacity="0.12" />
  <circle cx="524.2" cy="324.1" r="6.8" fill="#7f8c8d" opacity="0.88" />
  <circle cx="498.3" cy="281.1" r="9" fill="#2ecc71" opacity="0.12" />
  <circle cx="498.3" cy="281.1" r="5" fill="#2ecc71" opacity="0.88" />
  <circle cx="501.8" cy="263.5" r="11.7" fill="#2ecc71" opacity="0.12" />
  <circle cx="501.8" cy="263.5" r="7.7" fill="#2ecc71" opacity="0.88" />
  <circle cx="566.7" cy="307.5" r="9.9" fill="#e74c3c" opacity="0.12" />
  <circle cx="566.7" cy="307.5" r="5.9" fill="#e74c3c" opacity="0.88" />
  <circle cx="623.1" cy="285.4" r="14.4" fill="#e74c3c" opacity="0.12" />
  <circle cx="623.1" cy="285.4" r="10.4" fill="#e74c3c" opacity="0.88" />
  <circle cx="540.9" cy="332.8" r="9.9" fill="#7f8c8d" opacity="0.12" />
  <circle cx="540.9" cy="332.8" r="5.9" fill="#7f8c8d" opacity="0.88" />
  <circle cx="259.1" cy="500.0" r="9" fill="#7f8c8d" opacity="0.12" />
  <circle cx="259.1" cy="500.0" r="5" fill="#7f8c8d" opacity="0.88" />
  <rect x="476.6" y="276.1" width="16.4" height="15" fill="#0d1117" opacity="0.75" rx="2" />
  <text x="477.6" y="287.1" font-family="system-ui, -apple-system, sans-serif" font-size="12" fill="#e6edf3" text-anchor="start">pp</text>
  <rect x="526.5" y="519.8" width="117.2" height="15" fill="#0d1117" opacity="0.75" rx="2" />
  <text x="527.5" y="530.8" font-family="system-ui, -apple-system, sans-serif" font-size="12" fill="#e6edf3" text-anchor="start">GloriousFlywheel</text>
  <rect x="493.1" y="419.0" width="124.4" height="15" fill="#0d1117" opacity="0.75" rx="2" />
  <text x="494.1" y="430.0" font-family="system-ui, -apple-system, sans-serif" font-size="12" fill="#e6edf3" text-anchor="start">tinyland-huskycat</text>
  <rect x="541.6" y="493.0" width="95.6" height="15" fill="#0d1117" opacity="0.75" rx="2" />
  <text x="542.6" y="504.0" font-family="system-ui, -apple-system, sans-serif" font-size="12" fill="#e6edf3" text-anchor="start">GIS_Shortcuts</text>
  <rect x="455.0" y="238.8" width="117.2" height="15" fill="#0d1117" opacity="0.75" rx="2" />
  <text x="456.0" y="249.8" font-family="system-ui, -apple-system, sans-serif" font-size="12" fill="#e6edf3" text-anchor="start">tinyland-cleanup</text>
  <rect x="523.4" y="364.9" width="95.6" height="15" fill="#0d1117" opacity="0.75" rx="2" />
  <text x="524.4" y="375.9" font-family="system-ui, -apple-system, sans-serif" font-size="12" fill="#e6edf3" text-anchor="start">tinyland-kdbx</text>
  <rect x="522.8" y="272.2" width="45.2" height="15" fill="#0d1117" opacity="0.75" rx="2" />
  <text x="523.8" y="283.2" font-family="system-ui, -apple-system, sans-serif" font-size="12" fill="#e6edf3" text-anchor="start">XoxdWM</text>
  <rect x="616.6" y="387.6" width="110.0" height="15" fill="#0d1117" opacity="0.75" rx="2" />
  <text x="617.6" y="398.6" font-family="system-ui, -apple-system, sans-serif" font-size="12" fill="#e6edf3" text-anchor="start">hiberpower-ntfs</text>
  <rect x="512.5" y="332.9" width="138.8" height="15" fill="#0d1117" opacity="0.75" rx="2" />
  <text x="513.5" y="343.9" font-family="system-ui, -apple-system, sans-serif" font-size="12" fill="#e6edf3" text-anchor="start">Ansible-DAG-Harness</text>
  <rect x="510.0" y="197.4" width="66.8" height="15" fill="#0d1117" opacity="0.75" rx="2" />
  <text x="511.0" y="208.4" font-family="system-ui, -apple-system, sans-serif" font-size="12" fill="#e6edf3" text-anchor="start">betterkvm</text>
  <rect x="497.1" y="309.6" width="95.6" height="15" fill="#0d1117" opacity="0.75" rx="2" />
  <text x="498.1" y="320.6" font-family="system-ui, -apple-system, sans-serif" font-size="12" fill="#e6edf3" text-anchor="start">DarwinNicUtil</text>
  <rect x="459.8" y="323.2" width="95.6" height="15" fill="#0d1117" opacity="0.75" rx="2" />
  <text x="460.8" y="334.2" font-family="system-ui, -apple-system, sans-serif" font-size="12" fill="#e6edf3" text-anchor="start">RemoteJuggler</text>
  <rect x="515.2" y="505.1" width="131.6" height="15" fill="#0d1117" opacity="0.75" rx="2" />
  <text x="516.2" y="516.1" font-family="system-ui, -apple-system, sans-serif" font-size="12" fill="#e6edf3" text-anchor="start">pixelwise-research</text>
  <rect x="488.9" y="290.7" width="59.6" height="15" fill="#0d1117" opacity="0.75" rx="2" />
  <text x="489.9" y="301.7" font-family="system-ui, -apple-system, sans-serif" font-size="12" fill="#e6edf3" text-anchor="start">gnucashr</text>
  <rect x="667.6" y="311.5" width="66.8" height="15" fill="#0d1117" opacity="0.75" rx="2" />
  <text x="668.6" y="322.5" font-family="system-ui, -apple-system, sans-serif" font-size="12" fill="#e6edf3" text-anchor="start">quickchpl</text>
  <rect x="671.8" y="118.7" width="131.6" height="15" fill="#0d1117" opacity="0.75" rx="2" />
  <text x="802.4" y="129.7" font-family="system-ui, -apple-system, sans-serif" font-size="12" fill="#e6edf3" text-anchor="end">tinyscale-mikrotik</text>
  <rect x="605.0" y="307.6" width="59.6" height="15" fill="#0d1117" opacity="0.75" rx="2" />
  <text x="606.0" y="318.6" font-family="system-ui, -apple-system, sans-serif" font-size="12" fill="#e6edf3" text-anchor="start">aoc-2025</text>
  <rect x="829.0" y="365.1" width="74.0" height="15" fill="#0d1117" opacity="0.75" rx="2" />
  <text x="902.0" y="376.1" font-family="system-ui, -apple-system, sans-serif" font-size="12" fill="#e6edf3" text-anchor="end">tinywaffle</text>
  <rect x="573.3" y="39.2" width="66.8" height="15" fill="#0d1117" opacity="0.75" rx="2" />
  <text x="574.3" y="50.2" font-family="system-ui, -apple-system, sans-serif" font-size="12" fill="#e6edf3" text-anchor="start">searchies</text>
  <rect x="591.9" y="56.2" width="59.6" height="15" fill="#0d1117" opacity="0.75" rx="2" />
  <text x="592.9" y="67.2" font-family="system-ui, -apple-system, sans-serif" font-size="12" fill="#e6edf3" text-anchor="start">ts-caddy</text>
  <rect x="383.0" y="401.5" width="66.8" height="15" fill="#0d1117" opacity="0.75" rx="2" />
  <text x="384.0" y="412.5" font-family="system-ui, -apple-system, sans-serif" font-size="12" fill="#e6edf3" text-anchor="start">HCI-notes</text>
  <rect x="510.7" y="339.7" width="88.4" height="15" fill="#0d1117" opacity="0.75" rx="2" />
  <text x="511.7" y="350.7" font-family="system-ui, -apple-system, sans-serif" font-size="12" fill="#e6edf3" text-anchor="start">FastPhotoAPI</text>
  <rect x="544.1" y="258.5" width="81.2" height="15" fill="#0d1117" opacity="0.75" rx="2" />
  <text x="545.1" y="269.5" font-family="system-ui, -apple-system, sans-serif" font-size="12" fill="#e6edf3" text-anchor="start">timberbuddy</text>
  <rect x="504.6" y="392.2" width="81.2" height="15" fill="#0d1117" opacity="0.75" rx="2" />
  <text x="505.6" y="403.2" font-family="system-ui, -apple-system, sans-serif" font-size="12" fill="#e6edf3" text-anchor="start">tetrahedron</text>
  <rect x="555.4" y="322.7" width="95.6" height="15" fill="#0d1117" opacity="0.75" rx="2" />
  <text x="556.4" y="333.7" font-family="system-ui, -apple-system, sans-serif" font-size="12" fill="#e6edf3" text-anchor="start">AccuWixReport</text>
  <rect x="572.8" y="230.2" width="95.6" height="15" fill="#0d1117" opacity="0.75" rx="2" />
  <text x="573.8" y="241.2" font-family="system-ui, -apple-system, sans-serif" font-size="12" fill="#e6edf3" text-anchor="start">Jess-AOC-2023</text>
  <rect x="554.8" y="287.0" width="81.2" height="15" fill="#0d1117" opacity="0.75" rx="2" />
  <text x="555.8" y="298.0" font-family="system-ui, -apple-system, sans-serif" font-size="12" fill="#e6edf3" text-anchor="start">TurkeyProbe</text>
  <rect x="506.0" y="423.6" width="153.2" height="15" fill="#0d1117" opacity="0.75" rx="2" />
  <text x="507.0" y="434.6" font-family="system-ui, -apple-system, sans-serif" font-size="12" fill="#e6edf3" text-anchor="start">MerlinAI-Interpreters</text>
  <rect x="308.7" y="418.5" width="110.0" height="15" fill="#0d1117" opacity="0.75" rx="2" />
  <text x="309.7" y="429.5" font-family="system-ui, -apple-system, sans-serif" font-size="12" fill="#e6edf3" text-anchor="start">IntroTypeScript</text>
  <rect x="57.0" y="212.3" width="110.0" height="15" fill="#0d1117" opacity="0.75" rx="2" />
  <text x="58.0" y="223.3" font-family="system-ui, -apple-system, sans-serif" font-size="12" fill="#e6edf3" text-anchor="start">IG-3DP-Profiles</text>
  <rect x="546.5" y="448.2" width="66.8" height="15" fill="#0d1117" opacity="0.75" rx="2" />
  <text x="547.5" y="459.2" font-family="system-ui, -apple-system, sans-serif" font-size="12" fill="#e6edf3" text-anchor="start">DLA-Flask</text>
  <rect x="575.0" y="384.9" width="38.0" height="15" fill="#0d1117" opacity="0.75" rx="2" />
  <text x="576.0" y="395.9" font-family="system-ui, -apple-system, sans-serif" font-size="12" fill="#e6edf3" text-anchor="start">USBoN</text>
  <rect x="577.1" y="236.1" width="203.6" height="15" fill="#0d1117" opacity="0.75" rx="2" />
  <text x="578.1" y="247.1" font-family="system-ui, -apple-system, sans-serif" font-size="12" fill="#e6edf3" text-anchor="start">chrome-remote-desktop-budgie</text>
  <rect x="130.4" y="427.1" width="124.4" height="15" fill="#0d1117" opacity="0.75" rx="2" />
  <text x="131.4" y="438.1" font-family="system-ui, -apple-system, sans-serif" font-size="12" fill="#e6edf3" text-anchor="start">OminousBeepingApp</text>
  <rect x="560.4" y="435.6" width="138.8" height="15" fill="#0d1117" opacity="0.75" rx="2" />
  <text x="561.4" y="446.6" font-family="system-ui, -apple-system, sans-serif" font-size="12" fill="#e6edf3" text-anchor="start">mo-image-identifier</text>
  <rect x="535.6" y="370.8" width="196.4" height="15" fill="#0d1117" opacity="0.75" rx="2" />
  <text x="536.6" y="381.8" font-family="system-ui, -apple-system, sans-serif" font-size="12" fill="#e6edf3" text-anchor="start">squirrel-leaflet-annotation</text>
  <rect x="542.7" y="210.0" width="74.0" height="15" fill="#0d1117" opacity="0.75" rx="2" />
  <text x="543.7" y="221.0" font-family="system-ui, -apple-system, sans-serif" font-size="12" fill="#e6edf3" text-anchor="start">Shiny-Apps</text>
  <rect x="543.1" y="479.1" width="138.8" height="15" fill="#0d1117" opacity="0.75" rx="2" />
  <text x="544.1" y="490.1" font-family="system-ui, -apple-system, sans-serif" font-size="12" fill="#e6edf3" text-anchor="start">bbox-jest-puppeteer</text>
  <rect x="267.7" y="99.3" width="88.4" height="15" fill="#0d1117" opacity="0.75" rx="2" />
  <text x="268.7" y="110.3" font-family="system-ui, -apple-system, sans-serif" font-size="12" fill="#e6edf3" text-anchor="start">DoverDisplay</text>
  <rect x="658.2" y="332.5" width="81.2" height="15" fill="#0d1117" opacity="0.75" rx="2" />
  <text x="659.2" y="343.5" font-family="system-ui, -apple-system, sans-serif" font-size="12" fill="#e6edf3" text-anchor="start">LeafletSync</text>
  <rect x="553.3" y="253.1" width="167.6" height="15" fill="#0d1117" opacity="0.75" rx="2" />
  <text x="554.3" y="264.1" font-family="system-ui, -apple-system, sans-serif" font-size="12" fill="#e6edf3" text-anchor="start">misc-roi-distance-notes</text>
  <rect x="702.3" y="184.8" width="138.8" height="15" fill="#0d1117" opacity="0.75" rx="2" />
  <text x="703.3" y="195.8" font-family="system-ui, -apple-system, sans-serif" font-size="12" fill="#e6edf3" text-anchor="start">Arduino_Coil_Winder</text>
  <rect x="688.2" y="170.0" width="30.8" height="15" fill="#0d1117" opacity="0.75" rx="2" />
  <text x="689.2" y="181.0" font-family="system-ui, -apple-system, sans-serif" font-size="12" fill="#e6edf3" text-anchor="start">momo</text>
  <rect x="582.2" y="298.4" width="38.0" height="15" fill="#0d1117" opacity="0.75" rx="2" />
  <text x="583.2" y="309.4" font-family="system-ui, -apple-system, sans-serif" font-size="12" fill="#e6edf3" text-anchor="start">clipi</text>
  <rect x="676.6" y="197.9" width="110.0" height="15" fill="#0d1117" opacity="0.75" rx="2" />
  <text x="677.6" y="208.9" font-family="system-ui, -apple-system, sans-serif" font-size="12" fill="#e6edf3" text-anchor="start">AeroTaz5_hotfix</text>
  <rect x="235.6" y="116.3" width="110.0" height="15" fill="#0d1117" opacity="0.75" rx="2" />
  <text x="236.6" y="127.3" font-family="system-ui, -apple-system, sans-serif" font-size="12" fill="#e6edf3" text-anchor="start">Funmat-HT-Notes</text>
  <rect x="519.8" y="462.1" width="81.2" height="15" fill="#0d1117" opacity="0.75" rx="2" />
  <text x="520.8" y="473.1" font-family="system-ui, -apple-system, sans-serif" font-size="12" fill="#e6edf3" text-anchor="start">static-site</text>
  <rect x="533.0" y="409.2" width="95.6" height="15" fill="#0d1117" opacity="0.75" rx="2" />
  <text x="534.0" y="420.2" font-family="system-ui, -apple-system, sans-serif" font-size="12" fill="#e6edf3" text-anchor="start">Flask-Manager</text>
  <rect x="505.3" y="182.8" width="110.0" height="15" fill="#0d1117" opacity="0.75" rx="2" />
  <text x="506.3" y="193.8" font-family="system-ui, -apple-system, sans-serif" font-size="12" fill="#e6edf3" text-anchor="start">FieldProcessing</text>
  <rect x="511.5" y="168.1" width="81.2" height="15" fill="#0d1117" opacity="0.75" rx="2" />
  <text x="512.5" y="179.1" font-family="system-ui, -apple-system, sans-serif" font-size="12" fill="#e6edf3" text-anchor="start">rJDKmanager</text>
  <rect x="574.6" y="270.0" width="59.6" height="15" fill="#0d1117" opacity="0.75" rx="2" />
  <text x="575.6" y="281.0" font-family="system-ui, -apple-system, sans-serif" font-size="12" fill="#e6edf3" text-anchor="start">tagnotes</text>
  <rect x="635.5" y="214.9" width="81.2" height="15" fill="#0d1117" opacity="0.75" rx="2" />
  <text x="636.5" y="225.9" font-family="system-ui, -apple-system, sans-serif" font-size="12" fill="#e6edf3" text-anchor="start">ChapelTests</text>
  <rect x="548.8" y="353.8" width="88.4" height="15" fill="#0d1117" opacity="0.75" rx="2" />
  <text x="549.8" y="364.8" font-family="system-ui, -apple-system, sans-serif" font-size="12" fill="#e6edf3" text-anchor="start">Xfinity-WiFi</text>
  <rect x="266.1" y="493.2" width="66.8" height="15" fill="#0d1117" opacity="0.75" rx="2" />
  <text x="267.1" y="504.2" font-family="system-ui, -apple-system, sans-serif" font-size="12" fill="#e6edf3" text-anchor="start">home-wiki</text>
  <rect x="793" y="36" width="155" height="120" rx="6" fill="#161b22" stroke="#30363d" stroke-width="1" opacity="0.95" />
  <circle cx="810" cy="52" r="5" fill="#e74c3c" opacity="0.88" />
  <text x="820" y="56" font-family="system-ui, -apple-system, sans-serif" font-size="10" fill="#e6edf3">Languages &amp; Compilers</text>
  <circle cx="810" cy="69" r="5" fill="#3498db" opacity="0.88" />
  <text x="820" y="73" font-family="system-ui, -apple-system, sans-serif" font-size="10" fill="#e6edf3">Infrastructure &amp; DevOps</text>
  <circle cx="810" cy="86" r="5" fill="#e67e22" opacity="0.88" />
  <text x="820" y="90" font-family="system-ui, -apple-system, sans-serif" font-size="10" fill="#e6edf3">Hardware &amp; Maker</text>
  <circle cx="810" cy="103" r="5" fill="#2ecc71" opacity="0.88" />
  <text x="820" y="107" font-family="system-ui, -apple-system, sans-serif" font-size="10" fill="#e6edf3">ML &amp; Data</text>
  <circle cx="810" cy="120" r="5" fill="#9b59b6" opacity="0.88" />
  <text x="820" y="124" font-family="system-ui, -apple-system, sans-serif" font-size="10" fill="#e6edf3">Web &amp; Apps</text>
  <circle cx="810" cy="137" r="5" fill="#7f8c8d" opacity="0.88" />
  <text x="820" y="141" font-family="system-ui, -apple-system, sans-serif" font-size="10" fill="#e6edf3">Other</text>
  <text x="870" y="150" font-family="system-ui, -apple-system, sans-serif" font-size="8" fill="#8b949e" text-anchor="middle">54 repos · 207 edges</text>
</svg>