<svg xmlns="http://www.w3.org/2000/svg" width="900" height="540" viewBox="0 0 900 540">
  <rect width="900" height="540" fill="#0d1117" rx="8" />
  <text x="450" y="24" font-family="system-ui, -apple-system, sans-serif" font-size="13" fill="#8b949e" text-anchor="middle" font-weight="500">Repo Relationship Graph &mdash; Pairwise Topic &amp; Language Similarity</text>
  <line x1="50" y1="490" x2="850" y2="490" stroke="#484f58" stroke-width="0.5" opacity="0.5" />
  <text x="50" y="510" font-family="serif, Georgia, Times" font-size="10" fill="#8b949e" font-style="italic" opacity="0.7">Focal Length = ImageDimension / 2 · tan(FoV / 2)</text>
  <text x="50" y="528" font-family="serif, Georgia, Times" font-size="10" fill="#8b949e" font-style="italic" opacity="0.7">Distance = ActualDimension · FocalLength / ROIDimension</text>
  <text x="850" y="510" font-family="system-ui, -apple-system, sans-serif" font-size="9" fill="#8b949e" text-anchor="end" opacity="0.6">Updated daily by GitHub Actions</text>
  <text x="850" y="528" font-family="system-ui, -apple-system, sans-serif" font-size="9" fill="#8b949e" text-anchor="end" opacity="0.6">networkx spring_layout · Jaccard similarity &gt; 0.15</text>
  <line x1="430.2" y1="228.7" x2="391.9" y2="242.8" stroke="#6e7681" stroke-width="1.0" opacity="0.24" />
  <line x1="430.2" y1="228.7" x2="450.0" y2="218.7" stroke="#6e7681" stroke-width="2.0" opacity="0.80" />
  <line x1="430.2" y1="228.7" x2="432.3" y2="251.9" stroke="#6e7681" stroke-width="1.0" opacity="0.22" />
  <line x1="430.2" y1="228.7" x2="415.7" y2="256.7" stroke="#6e7681" stroke-width="1.0" opacity="0.24" />
  <line x1="430.2" y1="228.7" x2="396.5" y2="251.4" stroke="#6e7681" stroke-width="0.9" opacity="0.17" />
  <line x1="430.2" y1="228.7" x2="410.8" y2="247.9" stroke="#6e7681" stroke-width="0.9" opacity="0.20" />
  <line x1="430.2" y1="228.7" x2="425.4" y2="242.5" stroke="#6e7681" stroke-width="0.9" opacity="0.17" />
  <line x1="430.2" y1="228.7" x2="445.0" y2="233.4" stroke="#6e7681" stroke-width="1.0" opacity="0.23" />
  <line x1="430.2" y1="228.7" x2="413.6" y2="223.9" stroke="#6e7681" stroke-width="1.5" opacity="0.55" />
  <line x1="309.5" y1="315.4" x2="293.4" y2="303.4" stroke="#6e7681" stroke-width="1.0" opacity="0.26" />
  <line x1="309.5" y1="315.4" x2="338.1" y2="288.1" stroke="#6e7681" stroke-width="0.9" opacity="0.20" />
  <line x1="309.5" y1="315.4" x2="308.1" y2="285.7" stroke="#6e7681" stroke-width="1.0" opacity="0.22" />
  <line x1="391.9" y1="242.8" x2="432.3" y2="251.9" stroke="#6e7681" stroke-width="0.9" opacity="0.17" />
  <line x1="391.9" y1="242.8" x2="415.7" y2="256.7" stroke="#6e7681" stroke-width="1.1" opacity="0.28" />
  <line x1="391.9" y1="242.8" x2="396.5" y2="251.4" stroke="#6e7681" stroke-width="1.0" opacity="0.22" />
  <line x1="391.9" y1="242.8" x2="410.8" y2="247.9" stroke="#6e7681" stroke-width="1.0" opacity="0.24" />
  <line x1="391.9" y1="242.8" x2="425.4" y2="242.5" stroke="#6e7681" stroke-width="1.0" opacity="0.22" />
  <line x1="391.9" y1="242.8" x2="445.0" y2="233.4" stroke="#6e7681" stroke-width="0.9" opacity="0.20" />
  <line x1="391.9" y1="242.8" x2="413.6" y2="223.9" stroke="#6e7681" stroke-width="1.0" opacity="0.22" />
  <line x1="391.9" y1="242.8" x2="336.8" y2="263.8" stroke="#6e7681" stroke-width="0.9" opacity="0.19" />
  <line x1="391.9" y1="242.8" x2="365.7" y2="275.0" stroke="#6e7681" stroke-width="0.9" opacity="0.21" />
  <line x1="391.9" y1="242.8" x2="383.0" y2="273.9" stroke="#6e7681" stroke-width="1.0" opacity="0.24" />
  <line x1="316.3" y1="291.2" x2="338.1" y2="288.1" stroke="#6e7681" stroke-width="0.9" opacity="0.18" />
  <line x1="316.3" y1="291.2" x2="308.1" y2="285.7" stroke="#6e7681" stroke-width="0.9" opacity="0.18" />
  <line x1="316.3" y1="291.2" x2="365.7" y2="275.0" stroke="#6e7681" stroke-width="0.9" opacity="0.17" />
  <line x1="316.3" y1="291.2" x2="336.8" y2="276.7" stroke="#6e7681" stroke-width="1.3" opacity="0.42" />
  <line x1="316.3" y1="291.2" x2="383.0" y2="273.9" stroke="#6e7681" stroke-width="0.9" opacity="0.19" />
  <line x1="316.3" y1="291.2" x2="329.5" y2="281.9" stroke="#6e7681" stroke-width="0.9" opacity="0.21" />
  <line x1="450.0" y1="218.7" x2="432.3" y2="251.9" stroke="#6e7681" stroke-width="1.1" opacity="0.28" />
  <line x1="450.0" y1="218.7" x2="445.0" y2="233.4" stroke="#6e7681" stroke-width="0.9" opacity="0.17" />
  <line x1="450.0" y1="218.7" x2="413.6" y2="223.9" stroke="#6e7681" stroke-width="1.2" opacity="0.37" />
  <line x1="432.3" y1="251.9" x2="415.7" y2="256.7" stroke="#6e7681" stroke-width="1.1" opacity="0.31" />
  <line x1="432.3" y1="251.9" x2="396.5" y2="251.4" stroke="#6e7681" stroke-width="0.9" opacity="0.20" />
  <line x1="432.3" y1="251.9" x2="410.8" y2="247.9" stroke="#6e7681" stroke-width="1.0" opacity="0.24" />
  <line x1="432.3" y1="251.9" x2="425.4" y2="242.5" stroke="#6e7681" stroke-width="0.9" opacity="0.20" />
  <line x1="432.3" y1="251.9" x2="413.6" y2="223.9" stroke="#6e7681" stroke-width="0.9" opacity="0.18" />
  <line x1="432.3" y1="251.9" x2="424.3" y2="266.6" stroke="#6e7681" stroke-width="1.5" opacity="0.55" />
  <line x1="432.3" y1="251.9" x2="435.3" y2="273.2" stroke="#6e7681" stroke-width="1.2" opacity="0.37" />
  <line x1="432.3" y1="251.9" x2="410.7" y2="271.8" stroke="#6e7681" stroke-width="1.0" opacity="0.22" />
  <line x1="432.3" y1="251.9" x2="383.0" y2="273.9" stroke="#6e7681" stroke-width="1.0" opacity="0.22" />
  <line x1="432.3" y1="251.9" x2="443.8" y2="263.6" stroke="#6e7681" stroke-width="1.2" opacity="0.37" />
  <line x1="432.3" y1="251.9" x2="382.1" y2="258.1" stroke="#6e7681" stroke-width="1.1" opacity="0.28" />
  <line x1="432.3" y1="251.9" x2="446.9" y2="276.5" stroke="#6e7681" stroke-width="1.2" opacity="0.37" />
  <line x1="415.7" y1="256.7" x2="396.5" y2="251.4" stroke="#6e7681" stroke-width="1.1" opacity="0.31" />
  <line x1="415.7" y1="256.7" x2="410.8" y2="247.9" stroke="#6e7681" stroke-width="1.2" opacity="0.37" />
  <line x1="415.7" y1="256.7" x2="425.4" y2="242.5" stroke="#6e7681" stroke-width="1.1" opacity="0.31" />
  <line x1="415.7" y1="256.7" x2="445.0" y2="233.4" stroke="#6e7681" stroke-width="1.0" opacity="0.26" />
  <line x1="415.7" y1="256.7" x2="413.6" y2="223.9" stroke="#6e7681" stroke-width="1.0" opacity="0.22" />
  <line x1="415.7" y1="256.7" x2="435.4" y2="298.6" stroke="#6e7681" stroke-width="0.9" opacity="0.18" />
  <line x1="415.7" y1="256.7" x2="407.3" y2="280.1" stroke="#6e7681" stroke-width="0.9" opacity="0.20" />
  <line x1="415.7" y1="256.7" x2="410.7" y2="271.8" stroke="#6e7681" stroke-width="1.0" opacity="0.24" />
  <line x1="415.7" y1="256.7" x2="365.7" y2="275.0" stroke="#6e7681" stroke-width="0.9" opacity="0.20" />
  <line x1="415.7" y1="256.7" x2="383.0" y2="273.9" stroke="#6e7681" stroke-width="1.0" opacity="0.24" />
  <line x1="415.7" y1="256.7" x2="395.6" y2="290.6" stroke="#6e7681" stroke-width="0.9" opacity="0.18" />
  <line x1="447.1" y1="291.3" x2="410.7" y2="271.8" stroke="#6e7681" stroke-width="0.9" opacity="0.18" />
  <line x1="447.1" y1="291.3" x2="383.0" y2="273.9" stroke="#6e7681" stroke-width="1.1" opacity="0.30" />
  <line x1="396.5" y1="251.4" x2="410.8" y2="247.9" stroke="#6e7681" stroke-width="1.1" opacity="0.28" />
  <line x1="396.5" y1="251.4" x2="425.4" y2="242.5" stroke="#6e7681" stroke-width="1.0" opacity="0.24" />
  <line x1="396.5" y1="251.4" x2="445.0" y2="233.4" stroke="#6e7681" stroke-width="0.9" opacity="0.17" />
  <line x1="396.5" y1="251.4" x2="353.3" y2="271.4" stroke="#6e7681" stroke-width="0.9" opacity="0.19" />
  <line x1="396.5" y1="251.4" x2="370.8" y2="285.3" stroke="#6e7681" stroke-width="0.9" opacity="0.18" />
  <line x1="396.5" y1="251.4" x2="410.7" y2="271.8" stroke="#6e7681" stroke-width="0.9" opacity="0.17" />
  <line x1="396.5" y1="251.4" x2="383.0" y2="273.9" stroke="#6e7681" stroke-width="0.9" opacity="0.17" />
  <line x1="410.8" y1="247.9" x2="425.4" y2="242.5" stroke="#6e7681" stroke-width="1.1" opacity="0.28" />
  <line x1="410.8" y1="247.9" x2="445.0" y2="233.4" stroke="#6e7681" stroke-width="0.9" opacity="0.18" />
  <line x1="410.8" y1="247.9" x2="413.6" y2="223.9" stroke="#6e7681" stroke-width="0.9" opacity="0.18" />
  <line x1="410.8" y1="247.9" x2="407.3" y2="280.1" stroke="#6e7681" stroke-width="0.9" opacity="0.17" />
  <line x1="410.8" y1="247.9" x2="410.7" y2="271.8" stroke="#6e7681" stroke-width="0.9" opacity="0.20" />
  <line x1="410.8" y1="247.9" x2="365.7" y2="275.0" stroke="#6e7681" stroke-width="0.9" opacity="0.17" />
  <line x1="410.8" y1="247.9" x2="383.0" y2="273.9" stroke="#6e7681" stroke-width="0.9" opacity="0.20" />
  <line x1="425.4" y1="242.5" x2="445.0" y2="233.4" stroke="#6e7681" stroke-width="0.9" opacity="0.17" />
  <line x1="425.4" y1="242.5" x2="410.7" y2="271.8" stroke="#6e7681" stroke-width="0.9" opacity="0.17" />
  <line x1="425.4" y1="242.5" x2="383.0" y2="273.9" stroke="#6e7681" stroke-width="0.9" opacity="0.17" />
  <line x1="293.4" y1="303.4" x2="338.1" y2="288.1" stroke="#6e7681" stroke-width="1.0" opacity="0.26" />
  <line x1="293.4" y1="303.4" x2="308.1" y2="285.7" stroke="#6e7681" stroke-width="1.1" opacity="0.31" />
  <line x1="293.4" y1="303.4" x2="329.5" y2="281.9" stroke="#6e7681" stroke-width="0.9" opacity="0.18" />
  <line x1="413.6" y1="223.9" x2="363.0" y2="223.3" stroke="#6e7681" stroke-width="1.0" opacity="0.22" />
  <line x1="485.3" y1="317.1" x2="435.4" y2="298.6" stroke="#6e7681" stroke-width="1.3" opacity="0.44" />
  <line x1="485.3" y1="317.1" x2="489.8" y2="300.1" stroke="#6e7681" stroke-width="0.9" opacity="0.18" />
  <line x1="435.4" y1="298.6" x2="435.3" y2="273.2" stroke="#6e7681" stroke-width="1.1" opacity="0.31" />
  <line x1="435.4" y1="298.6" x2="407.3" y2="280.1" stroke="#6e7681" stroke-width="0.9" opacity="0.20" />
  <line x1="435.4" y1="298.6" x2="410.7" y2="271.8" stroke="#6e7681" stroke-width="1.0" opacity="0.24" />
  <line x1="435.4" y1="298.6" x2="365.7" y2="275.0" stroke="#6e7681" stroke-width="0.9" opacity="0.20" />
  <line x1="435.4" y1="298.6" x2="383.0" y2="273.9" stroke="#6e7681" stroke-width="1.0" opacity="0.24" />
  <line x1="435.4" y1="298.6" x2="395.6" y2="290.6" stroke="#6e7681" stroke-width="0.9" opacity="0.18" />
  <line x1="435.4" y1="298.6" x2="438.7" y2="362.2" stroke="#6e7681" stroke-width="0.9" opacity="0.17" />
  <line x1="435.4" y1="298.6" x2="446.9" y2="276.5" stroke="#6e7681" stroke-width="1.1" opacity="0.31" />
  <line x1="435.4" y1="298.6" x2="489.8" y2="300.1" stroke="#6e7681" stroke-width="1.1" opacity="0.30" />
  <line x1="491.3" y1="50.0" x2="506.6" y2="58.5" stroke="#6e7681" stroke-width="1.6" opacity="0.60" />
  <line x1="193.0" y1="300.2" x2="308.1" y2="285.7" stroke="#6e7681" stroke-width="0.9" opacity="0.18" />
  <line x1="193.0" y1="300.2" x2="128.8" y2="308.9" stroke="#6e7681" stroke-width="1.1" opacity="0.28" />
  <line x1="322.2" y1="268.1" x2="338.1" y2="288.1" stroke="#6e7681" stroke-width="0.9" opacity="0.17" />
  <line x1="322.2" y1="268.1" x2="308.1" y2="285.7" stroke="#6e7681" stroke-width="0.9" opacity="0.18" />
  <line x1="322.2" y1="268.1" x2="353.3" y2="271.4" stroke="#6e7681" stroke-width="1.0" opacity="0.22" />
  <line x1="322.2" y1="268.1" x2="365.7" y2="275.0" stroke="#6e7681" stroke-width="1.1" opacity="0.28" />
  <line x1="322.2" y1="268.1" x2="336.8" y2="276.7" stroke="#6e7681" stroke-width="1.1" opacity="0.32" />
  <line x1="322.2" y1="268.1" x2="383.0" y2="273.9" stroke="#6e7681" stroke-width="0.9" opacity="0.20" />
  <line x1="322.2" y1="268.1" x2="329.5" y2="281.9" stroke="#6e7681" stroke-width="1.0" opacity="0.22" />
  <line x1="322.2" y1="268.1" x2="382.1" y2="258.1" stroke="#6e7681" stroke-width="1.0" opacity="0.22" />
  <line x1="338.1" y1="288.1" x2="308.1" y2="285.7" stroke="#6e7681" stroke-width="1.3" opacity="0.42" />
  <line x1="338.1" y1="288.1" x2="334.3" y2="297.0" stroke="#6e7681" stroke-width="0.9" opacity="0.18" />
  <line x1="338.1" y1="288.1" x2="336.8" y2="263.8" stroke="#6e7681" stroke-width="1.1" opacity="0.31" />
  <line x1="338.1" y1="288.1" x2="353.3" y2="271.4" stroke="#6e7681" stroke-width="1.1" opacity="0.32" />
  <line x1="338.1" y1="288.1" x2="370.8" y2="285.3" stroke="#6e7681" stroke-width="1.0" opacity="0.23" />
  <line x1="338.1" y1="288.1" x2="365.7" y2="275.0" stroke="#6e7681" stroke-width="1.2" opacity="0.39" />
  <line x1="338.1" y1="288.1" x2="336.8" y2="276.7" stroke="#6e7681" stroke-width="1.0" opacity="0.26" />
  <line x1="338.1" y1="288.1" x2="383.0" y2="273.9" stroke="#6e7681" stroke-width="1.2" opacity="0.34" />
  <line x1="338.1" y1="288.1" x2="395.6" y2="290.6" stroke="#6e7681" stroke-width="0.9" opacity="0.19" />
  <line x1="338.1" y1="288.1" x2="329.5" y2="281.9" stroke="#6e7681" stroke-width="1.0" opacity="0.25" />
  <line x1="308.1" y1="285.7" x2="334.3" y2="297.0" stroke="#6e7681" stroke-width="1.1" opacity="0.33" />
  <line x1="308.1" y1="285.7" x2="336.8" y2="263.8" stroke="#6e7681" stroke-width="0.9" opacity="0.21" />
  <line x1="308.1" y1="285.7" x2="353.3" y2="271.4" stroke="#6e7681" stroke-width="0.9" opacity="0.18" />
  <line x1="308.1" y1="285.7" x2="365.7" y2="275.0" stroke="#6e7681" stroke-width="1.3" opacity="0.41" />
  <line x1="308.1" y1="285.7" x2="336.8" y2="276.7" stroke="#6e7681" stroke-width="1.0" opacity="0.22" />
  <line x1="308.1" y1="285.7" x2="383.0" y2="273.9" stroke="#6e7681" stroke-width="1.1" opacity="0.31" />
  <line x1="308.1" y1="285.7" x2="329.5" y2="281.9" stroke="#6e7681" stroke-width="1.7" opacity="0.66" />
  <line x1="424.3" y1="266.6" x2="435.3" y2="273.2" stroke="#6e7681" stroke-width="1.5" opacity="0.55" />
  <line x1="424.3" y1="266.6" x2="407.3" y2="280.1" stroke="#6e7681" stroke-width="0.9" opacity="0.18" />
  <line x1="424.3" y1="266.6" x2="410.7" y2="271.8" stroke="#6e7681" stroke-width="1.1" opacity="0.28" />
  <line x1="424.3" y1="266.6" x2="365.7" y2="275.0" stroke="#6e7681" stroke-width="0.9" opacity="0.18" />
  <line x1="424.3" y1="266.6" x2="383.0" y2="273.9" stroke="#6e7681" stroke-width="1.1" opacity="0.28" />
  <line x1="424.3" y1="266.6" x2="443.8" y2="263.6" stroke="#6e7681" stroke-width="1.5" opacity="0.55" />
  <line x1="424.3" y1="266.6" x2="382.1" y2="258.1" stroke="#6e7681" stroke-width="1.2" opacity="0.37" />
  <line x1="424.3" y1="266.6" x2="446.9" y2="276.5" stroke="#6e7681" stroke-width="1.5" opacity="0.55" />
  <line x1="435.3" y1="273.2" x2="410.7" y2="271.8" stroke="#6e7681" stroke-width="1.0" opacity="0.22" />
  <line x1="435.3" y1="273.2" x2="383.0" y2="273.9" stroke="#6e7681" stroke-width="1.0" opacity="0.22" />
  <line x1="435.3" y1="273.2" x2="443.8" y2="263.6" stroke="#6e7681" stroke-width="1.2" opacity="0.37" />
  <line x1="435.3" y1="273.2" x2="382.1" y2="258.1" stroke="#6e7681" stroke-width="1.1" opacity="0.28" />
  <line x1="435.3" y1="273.2" x2="446.9" y2="276.5" stroke="#6e7681" stroke-width="1.2" opacity="0.37" />
  <line x1="334.3" y1="297.0" x2="365.7" y2="275.0" stroke="#6e7681" stroke-width="0.9" opacity="0.18" />
  <line x1="334.3" y1="297.0" x2="336.8" y2="276.7" stroke="#6e7681" stroke-width="0.9" opacity="0.18" />
  <line x1="334.3" y1="297.0" x2="383.0" y2="273.9" stroke="#6e7681" stroke-width="1.0" opacity="0.22" />
  <line x1="334.3" y1="297.0" x2="329.5" y2="281.9" stroke="#6e7681" stroke-width="1.3" opacity="0.41" />
  <line x1="336.8" y1="263.8" x2="353.3" y2="271.4" stroke="#6e7681" stroke-width="1.1" opacity="0.31" />
  <line x1="336.8" y1="263.8" x2="365.7" y2="275.0" stroke="#6e7681" stroke-width="1.4" opacity="0.47" />
  <line x1="336.8" y1="263.8" x2="336.8" y2="276.7" stroke="#6e7681" stroke-width="0.9" opacity="0.19" />
  <line x1="336.8" y1="263.8" x2="383.0" y2="273.9" stroke="#6e7681" stroke-width="1.0" opacity="0.22" />
  <line x1="353.3" y1="271.4" x2="370.8" y2="285.3" stroke="#6e7681" stroke-width="1.1" opacity="0.29" />
  <line x1="353.3" y1="271.4" x2="407.3" y2="280.1" stroke="#6e7681" stroke-width="0.9" opacity="0.17" />
  <line x1="353.3" y1="271.4" x2="410.7" y2="271.8" stroke="#6e7681" stroke-width="0.9" opacity="0.20" />
  <line x1="353.3" y1="271.4" x2="365.7" y2="275.0" stroke="#6e7681" stroke-width="1.3" opacity="0.40" />
  <line x1="353.3" y1="271.4" x2="336.8" y2="276.7" stroke="#6e7681" stroke-width="1.0" opacity="0.24" />
  <line x1="353.3" y1="271.4" x2="383.0" y2="273.9" stroke="#6e7681" stroke-width="0.9" opacity="0.20" />
  <line x1="370.8" y1="285.3" x2="410.7" y2="271.8" stroke="#6e7681" stroke-width="0.9" opacity="0.18" />
  <line x1="370.8" y1="285.3" x2="336.8" y2="276.7" stroke="#6e7681" stroke-width="1.0" opacity="0.23" />
  <line x1="370.8" y1="285.3" x2="383.0" y2="273.9" stroke="#6e7681" stroke-width="0.9" opacity="0.18" />
  <line x1="370.8" y1="285.3" x2="395.6" y2="290.6" stroke="#6e7681" stroke-width="1.0" opacity="0.24" />
  <line x1="407.3" y1="280.1" x2="410.7" y2="271.8" stroke="#6e7681" stroke-width="1.1" opacity="0.28" />
  <line x1="407.3" y1="280.1" x2="365.7" y2="275.0" stroke="#6e7681" stroke-width="1.0" opacity="0.22" />
  <line x1="407.3" y1="280.1" x2="383.0" y2="273.9" stroke="#6e7681" stroke-width="1.1" opacity="0.28" />
  <line x1="407.3" y1="280.1" x2="395.6" y2="290.6" stroke="#6e7681" stroke-width="0.9" opacity="0.20" />
  <line x1="410.7" y1="271.8" x2="365.7" y2="275.0" stroke="#6e7681" stroke-width="1.1" opacity="0.28" />
  <line x1="410.7" y1="271.8" x2="383.0" y2="273.9" stroke="#6e7681" stroke-width="1.2" opacity="0.37" />
  <line x1="410.7" y1="271.8" x2="443.8" y2="263.6" stroke="#6e7681" stroke-width="1.0" opacity="0.22" />
  <line x1="410.7" y1="271.8" x2="395.6" y2="290.6" stroke="#6e7681" stroke-width="1.0" opacity="0.24" />
  <line x1="410.7" y1="271.8" x2="382.1" y2="258.1" stroke="#6e7681" stroke-width="0.9" opacity="0.18" />
  <line x1="410.7" y1="271.8" x2="446.9" y2="276.5" stroke="#6e7681" stroke-width="1.0" opacity="0.22" />
  <line x1="365.7" y1="275.0" x2="336.8" y2="276.7" stroke="#6e7681" stroke-width="1.1" opacity="0.29" />
  <line x1="365.7" y1="275.0" x2="383.0" y2="273.9" stroke="#6e7681" stroke-width="1.4" opacity="0.47" />
  <line x1="365.7" y1="275.0" x2="395.6" y2="290.6" stroke="#6e7681" stroke-width="0.9" opacity="0.20" />
  <line x1="365.7" y1="275.0" x2="329.5" y2="281.9" stroke="#6e7681" stroke-width="1.1" opacity="0.31" />
  <line x1="365.7" y1="275.0" x2="382.1" y2="258.1" stroke="#6e7681" stroke-width="1.1" opacity="0.31" />
  <line x1="336.8" y1="276.7" x2="383.0" y2="273.9" stroke="#6e7681" stroke-width="1.2" opacity="0.34" />
  <line x1="336.8" y1="276.7" x2="329.5" y2="281.9" stroke="#6e7681" stroke-width="1.0" opacity="0.25" />
  <line x1="336.8" y1="276.7" x2="382.1" y2="258.1" stroke="#6e7681" stroke-width="1.0" opacity="0.25" />
  <line x1="383.0" y1="273.9" x2="443.8" y2="263.6" stroke="#6e7681" stroke-width="1.0" opacity="0.22" />
  <line x1="383.0" y1="273.9" x2="395.6" y2="290.6" stroke="#6e7681" stroke-width="1.0" opacity="0.24" />
  <line x1="383.0" y1="273.9" x2="329.5" y2="281.9" stroke="#6e7681" stroke-width="1.3" opacity="0.44" />
  <line x1="383.0" y1="273.9" x2="382.1" y2="258.1" stroke="#6e7681" stroke-width="1.3" opacity="0.44" />
  <line x1="383.0" y1="273.9" x2="446.9" y2="276.5" stroke="#6e7681" stroke-width="1.0" opacity="0.22" />
  <line x1="728.0" y1="117.4" x2="748.8" y2="129.3" stroke="#6e7681" stroke-width="1.0" opacity="0.22" />
  <line x1="443.8" y1="263.6" x2="382.1" y2="258.1" stroke="#6e7681" stroke-width="1.1" opacity="0.28" />
  <line x1="443.8" y1="263.6" x2="446.9" y2="276.5" stroke="#6e7681" stroke-width="1.2" opacity="0.37" />
  <line x1="433.4" y1="384.0" x2="424.8" y2="392.9" stroke="#6e7681" stroke-width="1.5" opacity="0.55" />
  <line x1="433.4" y1="384.0" x2="438.7" y2="362.2" stroke="#6e7681" stroke-width="1.3" opacity="0.41" />
  <line x1="424.8" y1="392.9" x2="438.7" y2="362.2" stroke="#6e7681" stroke-width="1.0" opacity="0.24" />
  <line x1="329.5" y1="281.9" x2="382.1" y2="258.1" stroke="#6e7681" stroke-width="1.0" opacity="0.22" />
  <line x1="382.1" y1="258.1" x2="363.0" y2="223.3" stroke="#6e7681" stroke-width="1.2" opacity="0.37" />
  <line x1="382.1" y1="258.1" x2="331.8" y2="217.1" stroke="#6e7681" stroke-width="0.9" opacity="0.18" />
  <line x1="382.1" y1="258.1" x2="446.9" y2="276.5" stroke="#6e7681" stroke-width="1.1" opacity="0.28" />
  <line x1="363.0" y1="223.3" x2="331.8" y2="217.1" stroke="#6e7681" stroke-width="1.1" opacity="0.28" />
  <line x1="446.9" y1="276.5" x2="489.8" y2="300.1" stroke="#6e7681" stroke-width="1.1" opacity="0.31" />
  <circle cx="430.2" cy="228.7" r="10.7" fill="#3498db" opacity="0.12" />
  <circle cx="430.2" cy="228.7" r="6.7" fill="#3498db" opacity="0.88" />
  <circle cx="309.5" cy="315.4" r="18" fill="#3498db" opacity="0.12" />
  <circle cx="309.5" cy="315.4" r="14" fill="#3498db" opacity="0.88" />
  <circle cx="391.9" cy="242.8" r="18" fill="#7f8c8d" opacity="0.12" />
  <circle cx="391.9" cy="242.8" r="14" fill="#7f8c8d" opacity="0.88" />
  <circle cx="316.3" cy="291.2" r="18" fill="#9b59b6" opacity="0.12" />
  <circle cx="316.3" cy="291.2" r="14" fill="#9b59b6" opacity="0.88" />
  <circle cx="450.0" cy="218.7" r="9.8" fill="#3498db" opacity="0.12" />
  <circle cx="450.0" cy="218.7" r="5.8" fill="#3498db" opacity="0.88" />
  <circle cx="432.3" cy="251.9" r="8.9" fill="#3498db" opacity="0.12" />
  <circle cx="432.3" cy="251.9" r="4.9" fill="#3498db" opacity="0.88" />
  <circle cx="415.7" cy="256.7" r="13.4" fill="#e67e22" opacity="0.12" />
  <circle cx="415.7" cy="256.7" r="9.4" fill="#e67e22" opacity="0.88" />
  <circle cx="447.1" cy="291.3" r="16.1" fill="#e67e22" opacity="0.12" />
  <circle cx="447.1" cy="291.3" r="12.1" fill="#e67e22" opacity="0.88" />
  <circle cx="396.5" cy="251.4" r="17.0" fill="#3498db" opacity="0.12" />
  <circle cx="396.5" cy="251.4" r="13.0" fill="#3498db" opacity="0.88" />
  <circle cx="410.8" cy="247.9" r="15.2" fill="#3498db" opacity="0.12" />
  <circle cx="410.8" cy="247.9" r="11.2" fill="#3498db" opacity="0.88" />
  <circle cx="425.4" cy="242.5" r="17.0" fill="#3498db" opacity="0.12" />
  <circle cx="425.4" cy="242.5" r="13.0" fill="#3498db" opacity="0.88" />
  <circle cx="445.0" cy="233.4" r="18" fill="#e74c3c" opacity="0.12" />
  <circle cx="445.0" cy="233.4" r="14" fill="#e74c3c" opacity="0.88" />
  <circle cx="293.4" cy="303.4" r="18" fill="#e74c3c" opacity="0.12" />
  <circle cx="293.4" cy="303.4" r="14" fill="#e74c3c" opacity="0.88" />
  <circle cx="413.6" cy="223.9" r="11.6" fill="#2ecc71" opacity="0.12" />
  <circle cx="413.6" cy="223.9" r="7.6" fill="#2ecc71" opacity="0.88" />
  <circle cx="485.3" cy="317.1" r="13.4" fill="#e74c3c" opacity="0.12" />
  <circle cx="485.3" cy="317.1" r="9.4" fill="#e74c3c" opacity="0.88" />
  <circle cx="693.8" cy="89.0" r="15.2" fill="#3498db" opacity="0.12" />
  <circle cx="693.8" cy="89.0" r="11.2" fill="#3498db" opacity="0.88" />
  <circle cx="435.4" cy="298.6" r="13.4" fill="#e74c3c" opacity="0.12" />
  <circle cx="435.4" cy="298.6" r="9.4" fill="#e74c3c" opacity="0.88" />
  <circle cx="811.3" cy="338.0" r="8" fill="#3498db" opacity="0.12" />
  <circle cx="811.3" cy="338.0" r="4" fill="#3498db" opacity="0.88" />
  <circle cx="491.3" cy="50.0" r="15.2" fill="#3498db" opacity="0.12" />
  <circle cx="491.3" cy="50.0" r="11.2" fill="#3498db" opacity="0.88" />
  <circle cx="506.6" cy="58.5" r="14.3" fill="#3498db" opacity="0.12" />
  <circle cx="506.6" cy="58.5" r="10.3" fill="#3498db" opacity="0.88" />
  <circle cx="193.0" cy="300.2" r="8.9" fill="#3498db" opacity="0.12" />
  <circle cx="193.0" cy="300.2" r="4.9" fill="#3498db" opacity="0.88" />
  <circle cx="322.2" cy="268.1" r="15.2" fill="#9b59b6" opacity="0.12" />
  <circle cx="322.2" cy="268.1" r="11.2" fill="#9b59b6" opacity="0.88" />
  <circle cx="338.1" cy="288.1" r="18" fill="#9b59b6" opacity="0.12" />
  <circle cx="338.1" cy="288.1" r="14" fill="#9b59b6" opacity="0.88" />
  <circle cx="308.1" cy="285.7" r="11.6" fill="#9b59b6" opacity="0.12" />
  <circle cx="308.1" cy="285.7" r="7.6" fill="#9b59b6" opacity="0.88" />
  <circle cx="424.3" cy="266.6" r="8" fill="#2ecc71" opacity="0.12" />
  <circle cx="424.3" cy="266.6" r="4" fill="#2ecc71" opacity="0.88" />
  <circle cx="435.3" cy="273.2" r="8.9" fill="#7f8c8d" opacity="0.12" />
  <circle cx="435.3" cy="273.2" r="4.9" fill="#7f8c8d" opacity="0.88" />
  <circle cx="334.3" cy="297.0" r="14.3" fill="#e67e22" opacity="0.12" />
  <circle cx="334.3" cy="297.0" r="10.3" fill="#e67e22" opacity="0.88" />
  <circle cx="336.8" cy="263.8" r="18" fill="#2ecc71" opacity="0.12" />
  <circle cx="336.8" cy="263.8" r="14" fill="#2ecc71" opacity="0.88" />
  <circle cx="128.8" cy="308.9" r="9.8" fill="#9b59b6" opacity="0.12" />
  <circle cx="128.8" cy="308.9" r="5.8" fill="#9b59b6" opacity="0.88" />
  <circle cx="50.0" cy="183.2" r="8" fill="#7f8c8d" opacity="0.12" />
  <circle cx="50.0" cy="183.2" r="4" fill="#7f8c8d" opacity="0.88" />
  <circle cx="291.2" cy="60.8" r="8" fill="#7f8c8d" opacity="0.12" />
  <circle cx="291.2" cy="60.8" r="4" fill="#7f8c8d" opacity="0.88" />
  <circle cx="353.3" cy="271.4" r="15.2" fill="#3498db" opacity="0.12" />
  <circle cx="353.3" cy="271.4" r="11.2" fill="#3498db" opacity="0.88" />
  <circle cx="370.8" cy="285.3" r="16.1" fill="#7f8c8d" opacity="0.12" />
  <circle cx="370.8" cy="285.3" r="12.1" fill="#7f8c8d" opacity="0.88" />
  <circle cx="407.3" cy="280.1" r="12.5" fill="#7f8c8d" opacity="0.12" />
  <circle cx="407.3" cy="280.1" r="8.5" fill="#7f8c8d" opacity="0.88" />
  <circle cx="213.9" cy="413.2" r="8" fill="#7f8c8d" opacity="0.12" />
  <circle cx="213.9" cy="413.2" r="4" fill="#7f8c8d" opacity="0.88" />
  <circle cx="410.7" cy="271.8" r="10.7" fill="#7f8c8d" opacity="0.12" />
  <circle cx="410.7" cy="271.8" r="6.7" fill="#7f8c8d" opacity="0.88" />
  <circle cx="365.7" cy="275.0" r="12.5" fill="#7f8c8d" opacity="0.12" />
  <circle cx="365.7" cy="275.0" r="8.5" fill="#7f8c8d" opacity="0.88" />
  <circle cx="336.8" cy="276.7" r="18" fill="#2ecc71" opacity="0.12" />
  <circle cx="336.8" cy="276.7" r="14" fill="#2ecc71" opacity="0.88" />
  <circle cx="383.0" cy="273.9" r="10.7" fill="#7f8c8d" opacity="0.12" />
  <circle cx="383.0" cy="273.9" r="6.7" fill="#7f8c8d" opacity="0.88" />
  <circle cx="728.0" cy="117.4" r="10.7" fill="#7f8c8d" opacity="0.12" />
  <circle cx="728.0" cy="117.4" r="6.7" fill="#7f8c8d" opacity="0.88" />
  <circle cx="850.0" cy="266.4" r="10.7" fill="#3498db" opacity="0.12" />
  <circle cx="850.0" cy="266.4" r="6.7" fill="#3498db" opacity="0.88" />
  <circle cx="443.8" cy="263.6" r="8.9" fill="#7f8c8d" opacity="0.12" />
  <circle cx="443.8" cy="263.6" r="4.9" fill="#7f8c8d" opacity="0.88" />
  <circle cx="433.4" cy="384.0" r="9.8" fill="#e67e22" opacity="0.12" />
  <circle cx="433.4" cy="384.0" r="5.8" fill="#e67e22" opacity="0.88" />
  <circle cx="424.8" cy="392.9" r="9.8" fill="#e67e22" opacity="0.12" />
  <circle cx="424.8" cy="392.9" r="5.8" fill="#e67e22" opacity="0.88" />
  <circle cx="395.6" cy="290.6" r="13.4" fill="#7f8c8d" opacity="0.12" />
  <circle cx="395.6" cy="290.6" r="9.4" fill="#7f8c8d" opacity="0.88" />
  <circle cx="438.7" cy="362.2" r="14.3" fill="#e67e22" opacity="0.12" />
  <circle cx="438.7" cy="362.2" r="10.3" fill="#e67e22" opacity="0.88" />
  <circle cx="748.8" cy="129.3" r="8.9" fill="#7f8c8d" opacity="0.12" />
  <circle cx="748.8" cy="129.3" r="4.9" fill="#7f8c8d" opacity="0.88" />
  <circle cx="329.5" cy="281.9" r="9.8" fill="#7f8c8d" opacity="0.12" />
  <circle cx="329.5" cy="281.9" r="5.8" fill="#7f8c8d" opacity="0.88" />
  <circle cx="382.1" cy="258.1" r="9.8" fill="#7f8c8d" opacity="0.12" />
  <circle cx="382.1" cy="258.1" r="5.8" fill="#7f8c8d" opacity="0.88" />
  <circle cx="363.0" cy="223.3" r="8" fill="#2ecc71" opacity="0.12" />
  <circle cx="363.0" cy="223.3" r="4" fill="#2ecc71" opacity="0.88" />
  <circle cx="331.8" cy="217.1" r="10.7" fill="#2ecc71" opacity="0.12" />
  <circle cx="331.8" cy="217.1" r="6.7" fill="#2ecc71" opacity="0.88" />
  <circle cx="446.9" cy="276.5" r="8.9" fill="#e74c3c" opacity="0.12" />
  <circle cx="446.9" cy="276.5" r="4.9" fill="#e74c3c" opacity="0.88" />
  <circle cx="489.8" cy="300.1" r="13.4" fill="#e74c3c" opacity="0.12" />
  <circle cx="489.8" cy="300.1" r="9.4" fill="#e74c3c" opacity="0.88" />
  <circle cx="383.3" cy="440.0" r="8" fill="#7f8c8d" opacity="0.12" />
  <circle cx="383.3" cy="440.0" r="4" fill="#7f8c8d" opacity="0.88" />
  <rect x="438.9" y="256.0" width="15.2" height="14" fill="#0d1117" opacity="0.75" rx="2" />
  <text x="439.9" y="266.0" font-family="system-ui, -apple-system, sans-serif" font-size="11" fill="#e6edf3" text-anchor="start">pp</text>
  <rect x="325.5" y="390.6" width="107.6" height="14" fill="#0d1117" opacity="0.75" rx="2" />
  <text x="326.5" y="400.6" font-family="system-ui, -apple-system, sans-serif" font-size="11" fill="#e6edf3" text-anchor="start">GloriousFlywheel</text>
  <rect x="407.9" y="309.8" width="114.2" height="14" fill="#0d1117" opacity="0.75" rx="2" />
  <text x="408.9" y="319.8" font-family="system-ui, -apple-system, sans-serif" font-size="11" fill="#e6edf3" text-anchor="start">tinyland-huskycat</text>
  <rect x="332.3" y="358.3" width="87.8" height="14" fill="#0d1117" opacity="0.75" rx="2" />
  <text x="333.3" y="368.3" font-family="system-ui, -apple-system, sans-serif" font-size="11" fill="#e6edf3" text-anchor="start">GIS_Shortcuts</text>
  <rect x="457.8" y="258.4" width="107.6" height="14" fill="#0d1117" opacity="0.75" rx="2" />
  <text x="458.8" y="268.4" font-family="system-ui, -apple-system, sans-serif" font-size="11" fill="#e6edf3" text-anchor="start">tinyland-cleanup</text>
  <rect x="439.2" y="121.4" width="87.8" height="14" fill="#0d1117" opacity="0.75" rx="2" />
  <text x="440.2" y="131.4" font-family="system-ui, -apple-system, sans-serif" font-size="11" fill="#e6edf3" text-anchor="start">tinyland-kdbx</text>
  <rect x="427.1" y="350.4" width="41.6" height="14" fill="#0d1117" opacity="0.75" rx="2" />
  <text x="428.1" y="360.4" font-family="system-ui, -apple-system, sans-serif" font-size="11" fill="#e6edf3" text-anchor="start">XoxdWM</text>
  <rect x="461.2" y="266.1" width="101.0" height="14" fill="#0d1117" opacity="0.75" rx="2" />
  <text x="462.2" y="276.1" font-family="system-ui, -apple-system, sans-serif" font-size="11" fill="#e6edf3" text-anchor="start">hiberpower-ntfs</text>
  <rect x="411.5" y="163.2" width="127.4" height="14" fill="#0d1117" opacity="0.75" rx="2" />
  <text x="412.5" y="173.2" font-family="system-ui, -apple-system, sans-serif" font-size="11" fill="#e6edf3" text-anchor="start">Ansible-DAG-Harness</text>
  <rect x="424.0" y="361.0" width="61.4" height="14" fill="#0d1117" opacity="0.75" rx="2" />
  <text x="425.0" y="371.0" font-family="system-ui, -apple-system, sans-serif" font-size="11" fill="#e6edf3" text-anchor="start">betterkvm</text>
  <rect x="440.4" y="133.2" width="87.8" height="14" fill="#0d1117" opacity="0.75" rx="2" />
  <text x="441.4" y="143.2" font-family="system-ui, -apple-system, sans-serif" font-size="11" fill="#e6edf3" text-anchor="start">DarwinNicUtil</text>
  <rect x="461.0" y="246.3" width="87.8" height="14" fill="#0d1117" opacity="0.75" rx="2" />
  <text x="462.0" y="256.3" font-family="system-ui, -apple-system, sans-serif" font-size="11" fill="#e6edf3" text-anchor="start">RemoteJuggler</text>
  <rect x="309.4" y="376.3" width="120.8" height="14" fill="#0d1117" opacity="0.75" rx="2" />
  <text x="310.4" y="386.3" font-family="system-ui, -apple-system, sans-serif" font-size="11" fill="#e6edf3" text-anchor="start">pixelwise-research</text>
  <rect x="423.2" y="105.4" width="54.8" height="14" fill="#0d1117" opacity="0.75" rx="2" />
  <text x="424.2" y="115.4" font-family="system-ui, -apple-system, sans-serif" font-size="11" fill="#e6edf3" text-anchor="start">gnucashr</text>
  <rect x="496.7" y="350.5" width="61.4" height="14" fill="#0d1117" opacity="0.75" rx="2" />
  <text x="497.7" y="360.5" font-family="system-ui, -apple-system, sans-serif" font-size="11" fill="#e6edf3" text-anchor="start">quickchpl</text>
  <rect x="707.0" y="82.9" width="120.8" height="14" fill="#0d1117" opacity="0.75" rx="2" />
  <text x="708.0" y="92.9" font-family="system-ui, -apple-system, sans-serif" font-size="11" fill="#e6edf3" text-anchor="start">tinyscale-mikrotik</text>
  <rect x="446.8" y="338.1" width="54.8" height="14" fill="#0d1117" opacity="0.75" rx="2" />
  <text x="447.8" y="348.1" font-family="system-ui, -apple-system, sans-serif" font-size="11" fill="#e6edf3" text-anchor="start">aoc-2025</text>
  <rect x="737.3" y="331.8" width="68.0" height="14" fill="#0d1117" opacity="0.75" rx="2" />
  <text x="804.3" y="341.8" font-family="system-ui, -apple-system, sans-serif" font-size="11" fill="#e6edf3" text-anchor="end">tinywaffle</text>
  <rect x="504.5" y="40.1" width="61.4" height="14" fill="#0d1117" opacity="0.75" rx="2" />
  <text x="505.5" y="50.1" font-family="system-ui, -apple-system, sans-serif" font-size="11" fill="#e6edf3" text-anchor="start">searchies</text>
  <rect x="518.9" y="56.1" width="54.8" height="14" fill="#0d1117" opacity="0.75" rx="2" />
  <text x="519.9" y="66.1" font-family="system-ui, -apple-system, sans-serif" font-size="11" fill="#e6edf3" text-anchor="start">ts-caddy</text>
  <rect x="199.9" y="290.4" width="61.4" height="14" fill="#0d1117" opacity="0.75" rx="2" />
  <text x="200.9" y="300.4" font-family="system-ui, -apple-system, sans-serif" font-size="11" fill="#e6edf3" text-anchor="start">HCI-notes</text>
  <rect x="335.4" y="344.1" width="81.2" height="14" fill="#0d1117" opacity="0.75" rx="2" />
  <text x="336.4" y="354.1" font-family="system-ui, -apple-system, sans-serif" font-size="11" fill="#e6edf3" text-anchor="start">FastPhotoAPI</text>
  <rect x="354.1" y="261.0" width="74.6" height="14" fill="#0d1117" opacity="0.75" rx="2" />
  <text x="355.1" y="271.0" font-family="system-ui, -apple-system, sans-serif" font-size="11" fill="#e6edf3" text-anchor="start">timberbuddy</text>
  <rect x="317.7" y="313.3" width="74.6" height="14" fill="#0d1117" opacity="0.75" rx="2" />
  <text x="318.7" y="323.3" font-family="system-ui, -apple-system, sans-serif" font-size="11" fill="#e6edf3" text-anchor="start">tetrahedron</text>
  <rect x="430.3" y="278.1" width="87.8" height="14" fill="#0d1117" opacity="0.75" rx="2" />
  <text x="431.3" y="288.1" font-family="system-ui, -apple-system, sans-serif" font-size="11" fill="#e6edf3" text-anchor="start">AccuWixReport</text>
  <rect x="442.2" y="218.1" width="87.8" height="14" fill="#0d1117" opacity="0.75" rx="2" />
  <text x="443.2" y="228.1" font-family="system-ui, -apple-system, sans-serif" font-size="11" fill="#e6edf3" text-anchor="start">Jess-AOC-2023</text>
  <rect x="346.6" y="217.6" width="74.6" height="14" fill="#0d1117" opacity="0.75" rx="2" />
  <text x="347.6" y="227.6" font-family="system-ui, -apple-system, sans-serif" font-size="11" fill="#e6edf3" text-anchor="start">TurkeyProbe</text>
  <rect x="352.8" y="209.1" width="140.6" height="14" fill="#0d1117" opacity="0.75" rx="2" />
  <text x="353.8" y="219.1" font-family="system-ui, -apple-system, sans-serif" font-size="11" fill="#e6edf3" text-anchor="start">MerlinAI-Interpreters</text>
  <rect x="136.6" y="306.4" width="101.0" height="14" fill="#0d1117" opacity="0.75" rx="2" />
  <text x="137.6" y="316.4" font-family="system-ui, -apple-system, sans-serif" font-size="11" fill="#e6edf3" text-anchor="start">IntroTypeScript</text>
  <rect x="56.0" y="177.1" width="41.6" height="14" fill="#0d1117" opacity="0.75" rx="2" />
  <text x="57.0" y="187.1" font-family="system-ui, -apple-system, sans-serif" font-size="11" fill="#e6edf3" text-anchor="start">NyxBox</text>
  <rect x="297.2" y="54.7" width="101.0" height="14" fill="#0d1117" opacity="0.75" rx="2" />
  <text x="298.2" y="64.7" font-family="system-ui, -apple-system, sans-serif" font-size="11" fill="#e6edf3" text-anchor="start">IG-3DP-Profiles</text>
  <rect x="366.5" y="288.3" width="61.4" height="14" fill="#0d1117" opacity="0.75" rx="2" />
  <text x="367.5" y="298.3" font-family="system-ui, -apple-system, sans-serif" font-size="11" fill="#e6edf3" text-anchor="start">DLA-Flask</text>
  <rect x="384.9" y="231.3" width="35.0" height="14" fill="#0d1117" opacity="0.75" rx="2" />
  <text x="385.9" y="241.3" font-family="system-ui, -apple-system, sans-serif" font-size="11" fill="#e6edf3" text-anchor="start">USBoN</text>
  <rect x="417.8" y="170.9" width="186.8" height="14" fill="#0d1117" opacity="0.75" rx="2" />
  <text x="418.8" y="180.9" font-family="system-ui, -apple-system, sans-serif" font-size="11" fill="#e6edf3" text-anchor="start">chrome-remote-desktop-budgie</text>
  <rect x="219.9" y="407.0" width="114.2" height="14" fill="#0d1117" opacity="0.75" rx="2" />
  <text x="220.9" y="417.0" font-family="system-ui, -apple-system, sans-serif" font-size="11" fill="#e6edf3" text-anchor="start">OminousBeepingApp</text>
  <rect x="419.4" y="234.1" width="127.4" height="14" fill="#0d1117" opacity="0.75" rx="2" />
  <text x="420.4" y="244.1" font-family="system-ui, -apple-system, sans-serif" font-size="11" fill="#e6edf3" text-anchor="start">mo-image-identifier</text>
  <rect x="376.2" y="306.0" width="180.2" height="14" fill="#0d1117" opacity="0.75" rx="2" />
  <text x="377.2" y="316.0" font-family="system-ui, -apple-system, sans-serif" font-size="11" fill="#e6edf3" text-anchor="start">squirrel-leaflet-annotation</text>
  <rect x="352.8" y="272.3" width="68.0" height="14" fill="#0d1117" opacity="0.75" rx="2" />
  <text x="353.8" y="282.3" font-family="system-ui, -apple-system, sans-serif" font-size="11" fill="#e6edf3" text-anchor="start">Shiny-Apps</text>
  <rect x="391.7" y="198.0" width="127.4" height="14" fill="#0d1117" opacity="0.75" rx="2" />
  <text x="392.7" y="208.0" font-family="system-ui, -apple-system, sans-serif" font-size="11" fill="#e6edf3" text-anchor="start">bbox-jest-puppeteer</text>
  <rect x="736.7" y="109.2" width="81.2" height="14" fill="#0d1117" opacity="0.75" rx="2" />
  <text x="737.7" y="119.2" font-family="system-ui, -apple-system, sans-serif" font-size="11" fill="#e6edf3" text-anchor="start">DoverDisplay</text>
  <rect x="766.7" y="260.3" width="74.6" height="14" fill="#0d1117" opacity="0.75" rx="2" />
  <text x="840.3" y="270.3" font-family="system-ui, -apple-system, sans-serif" font-size="11" fill="#e6edf3" text-anchor="end">LeafletSync</text>
  <rect x="450.7" y="290.0" width="153.8" height="14" fill="#0d1117" opacity="0.75" rx="2" />
  <text x="451.7" y="300.0" font-family="system-ui, -apple-system, sans-serif" font-size="11" fill="#e6edf3" text-anchor="start">misc-roi-distance-notes</text>
  <rect x="441.2" y="391.0" width="127.4" height="14" fill="#0d1117" opacity="0.75" rx="2" />
  <text x="442.2" y="401.0" font-family="system-ui, -apple-system, sans-serif" font-size="11" fill="#e6edf3" text-anchor="start">Arduino_Coil_Winder</text>
  <rect x="432.6" y="405.0" width="28.4" height="14" fill="#0d1117" opacity="0.75" rx="2" />
  <text x="433.6" y="415.0" font-family="system-ui, -apple-system, sans-serif" font-size="11" fill="#e6edf3" text-anchor="start">momo</text>
  <rect x="407.0" y="330.0" width="35.0" height="14" fill="#0d1117" opacity="0.75" rx="2" />
  <text x="408.0" y="340.0" font-family="system-ui, -apple-system, sans-serif" font-size="11" fill="#e6edf3" text-anchor="start">clipi</text>
  <rect x="451.0" y="375.0" width="101.0" height="14" fill="#0d1117" opacity="0.75" rx="2" />
  <text x="452.0" y="385.0" font-family="system-ui, -apple-system, sans-serif" font-size="11" fill="#e6edf3" text-anchor="start">AeroTaz5_hotfix</text>
  <rect x="640.9" y="125.2" width="101.0" height="14" fill="#0d1117" opacity="0.75" rx="2" />
  <text x="740.9" y="135.2" font-family="system-ui, -apple-system, sans-serif" font-size="11" fill="#e6edf3" text-anchor="end">Funmat-HT-Notes</text>
  <rect x="337.3" y="247.3" width="74.6" height="14" fill="#0d1117" opacity="0.75" rx="2" />
  <text x="338.3" y="257.3" font-family="system-ui, -apple-system, sans-serif" font-size="11" fill="#e6edf3" text-anchor="start">static-site</text>
  <rect x="389.9" y="182.0" width="87.8" height="14" fill="#0d1117" opacity="0.75" rx="2" />
  <text x="390.9" y="192.0" font-family="system-ui, -apple-system, sans-serif" font-size="11" fill="#e6edf3" text-anchor="start">Flask-Manager</text>
  <rect x="369.0" y="149.2" width="101.0" height="14" fill="#0d1117" opacity="0.75" rx="2" />
  <text x="370.0" y="159.2" font-family="system-ui, -apple-system, sans-serif" font-size="11" fill="#e6edf3" text-anchor="start">FieldProcessing</text>
  <rect x="340.5" y="135.1" width="74.6" height="14" fill="#0d1117" opacity="0.75" rx="2" />
  <text x="341.5" y="145.1" font-family="system-ui, -apple-system, sans-serif" font-size="11" fill="#e6edf3" text-anchor="start">rJDKmanager</text>
  <rect x="453.8" y="322.1" width="54.8" height="14" fill="#0d1117" opacity="0.75" rx="2" />
  <text x="454.8" y="332.1" font-family="system-ui, -apple-system, sans-serif" font-size="11" fill="#e6edf3" text-anchor="start">tagnotes</text>
  <rect x="501.2" y="336.0" width="74.6" height="14" fill="#0d1117" opacity="0.75" rx="2" />
  <text x="502.2" y="346.0" font-family="system-ui, -apple-system, sans-serif" font-size="11" fill="#e6edf3" text-anchor="start">ChapelTests</text>
  <rect x="389.3" y="433.9" width="61.4" height="14" fill="#0d1117" opacity="0.75" rx="2" />
  <text x="390.3" y="443.9" font-family="system-ui, -apple-system, sans-serif" font-size="11" fill="#e6edf3" text-anchor="start">home-wiki</text>
  <rect x="733" y="36" width="155" height="120" rx="6" fill="#161b22" stroke="#30363d" stroke-width="1" opacity="0.95" />
  <circle cx="750" cy="52" r="5" fill="#e74c3c" opacity="0.88" />
  <text x="760" y="56" font-family="system-ui, -apple-system, sans-serif" font-size="10" fill="#e6edf3">Languages &amp; Compilers</text>
  <circle cx="750" cy="69" r="5" fill="#3498db" opacity="0.88" />
  <text x="760" y="73" font-family="system-ui, -apple-system, sans-serif" font-size="10" fill="#e6edf3">Infrastructure &amp; DevOps</text>
  <circle cx="750" cy="86" r="5" fill="#e67e22" opacity="0.88" />
  <text x="760" y="90" font-family="system-ui, -apple-system, sans-serif" font-size="10" fill="#e6edf3">Hardware &amp; Maker</text>
  <circle cx="750" cy="103" r="5" fill="#2ecc71" opacity="0.88" />
  <text x="760" y="107" font-family="system-ui, -apple-system, sans-serif" font-size="10" fill="#e6edf3">ML &amp; Data</text>
  <circle cx="750" cy="120" r="5" fill="#9b59b6" opacity="0.88" />
  <text x="760" y="124" font-family="system-ui, -apple-system, sans-serif" font-size="10" fill="#e6edf3">Web &amp; Apps</text>
  <circle cx="750" cy="137" r="5" fill="#7f8c8d" opacity="0.88" />
  <text x="760" y="141" font-family="system-ui, -apple-system, sans-serif" font-size="10" fill="#e6edf3">Other</text>
  <text x="810" y="150" font-family="system-ui, -apple-system, sans-serif" font-size="8" fill="#8b949e" text-anchor="middle">54 repos · 182 edges</text>
</svg>