<svg xmlns="http://www.w3.org/2000/svg" width="960" height="600" viewBox="0 0 960 600">
  <rect width="960" height="600" fill="#0d1117" rx="8" />
  <text x="480" y="24" font-family="system-ui, -apple-system, sans-serif" font-size="13" fill="#8b949e" text-anchor="middle" font-weight="500">Repo Relationship Graph &#x2014; Pairwise Topic &amp; Language Similarity</text>
  <line x1="50" y1="550" x2="910" y2="550" stroke="#484f58" stroke-width="0.5" opacity="0.5" />
  <text x="50" y="570" font-family="system-ui, -apple-system, sans-serif" font-size="9" fill="#8b949e" opacity="0.6">Updated daily by GitHub Actions</text>
  <text x="50" y="588" font-family="system-ui, -apple-system, sans-serif" font-size="9" fill="#8b949e" opacity="0.6">networkx spring_layout · Jaccard similarity &gt; 0.15</text>
  <text x="910" y="570" font-family="system-ui, -apple-system, sans-serif" font-size="9" fill="#8b949e" text-anchor="end" opacity="0.6">55 repos · 218 edges</text>
  <line x1="484.1" y1="239.7" x2="432.7" y2="239.1" stroke="#6e7681" stroke-width="1.0" opacity="0.22" />
  <line x1="484.1" y1="239.7" x2="476.0" y2="212.8" stroke="#6e7681" stroke-width="1.1" opacity="0.33" />
  <line x1="484.1" y1="239.7" x2="390.2" y2="242.6" stroke="#6e7681" stroke-width="0.9" opacity="0.21" />
  <line x1="484.1" y1="239.7" x2="409.7" y2="271.4" stroke="#6e7681" stroke-width="1.0" opacity="0.25" />
  <line x1="484.1" y1="239.7" x2="431.5" y2="276.1" stroke="#6e7681" stroke-width="1.0" opacity="0.22" />
  <line x1="484.1" y1="239.7" x2="445.2" y2="248.8" stroke="#6e7681" stroke-width="1.0" opacity="0.22" />
  <line x1="484.1" y1="239.7" x2="532.7" y2="305.1" stroke="#6e7681" stroke-width="0.9" opacity="0.18" />
  <line x1="484.1" y1="239.7" x2="554.5" y2="174.3" stroke="#6e7681" stroke-width="0.9" opacity="0.17" />
  <line x1="432.7" y1="239.1" x2="438.7" y2="208.7" stroke="#6e7681" stroke-width="1.1" opacity="0.33" />
  <line x1="432.7" y1="239.1" x2="476.0" y2="212.8" stroke="#6e7681" stroke-width="1.3" opacity="0.41" />
  <line x1="432.7" y1="239.1" x2="390.2" y2="242.6" stroke="#6e7681" stroke-width="1.0" opacity="0.24" />
  <line x1="432.7" y1="239.1" x2="366.7" y2="271.5" stroke="#6e7681" stroke-width="0.9" opacity="0.19" />
  <line x1="432.7" y1="239.1" x2="409.7" y2="271.4" stroke="#6e7681" stroke-width="0.9" opacity="0.18" />
  <line x1="432.7" y1="239.1" x2="397.8" y2="262.5" stroke="#6e7681" stroke-width="1.0" opacity="0.22" />
  <line x1="432.7" y1="239.1" x2="423.1" y2="268.6" stroke="#6e7681" stroke-width="0.9" opacity="0.18" />
  <line x1="432.7" y1="239.1" x2="445.2" y2="248.8" stroke="#6e7681" stroke-width="1.4" opacity="0.47" />
  <line x1="432.7" y1="239.1" x2="442.5" y2="294.4" stroke="#6e7681" stroke-width="0.9" opacity="0.18" />
  <line x1="438.7" y1="208.7" x2="476.0" y2="212.8" stroke="#6e7681" stroke-width="0.9" opacity="0.18" />
  <line x1="438.7" y1="208.7" x2="445.2" y2="248.8" stroke="#6e7681" stroke-width="0.9" opacity="0.20" />
  <line x1="390.2" y1="242.6" x2="326.4" y2="257.3" stroke="#6e7681" stroke-width="1.2" opacity="0.38" />
  <line x1="390.2" y1="242.6" x2="366.7" y2="271.5" stroke="#6e7681" stroke-width="0.9" opacity="0.19" />
  <line x1="390.2" y1="242.6" x2="409.7" y2="271.4" stroke="#6e7681" stroke-width="0.9" opacity="0.18" />
  <line x1="390.2" y1="242.6" x2="397.8" y2="262.5" stroke="#6e7681" stroke-width="0.9" opacity="0.21" />
  <line x1="390.2" y1="242.6" x2="423.1" y2="268.6" stroke="#6e7681" stroke-width="0.9" opacity="0.18" />
  <line x1="390.2" y1="242.6" x2="445.2" y2="248.8" stroke="#6e7681" stroke-width="1.0" opacity="0.24" />
  <line x1="326.4" y1="257.3" x2="366.7" y2="271.5" stroke="#6e7681" stroke-width="1.2" opacity="0.34" />
  <line x1="326.4" y1="257.3" x2="409.7" y2="271.4" stroke="#6e7681" stroke-width="0.9" opacity="0.18" />
  <line x1="326.4" y1="257.3" x2="287.8" y2="271.9" stroke="#6e7681" stroke-width="1.0" opacity="0.25" />
  <line x1="326.4" y1="257.3" x2="346.8" y2="289.9" stroke="#6e7681" stroke-width="0.9" opacity="0.20" />
  <line x1="326.4" y1="257.3" x2="308.1" y2="290.4" stroke="#6e7681" stroke-width="1.0" opacity="0.22" />
  <line x1="366.7" y1="271.5" x2="409.7" y2="271.4" stroke="#6e7681" stroke-width="1.1" opacity="0.29" />
  <line x1="366.7" y1="271.5" x2="287.8" y2="271.9" stroke="#6e7681" stroke-width="1.2" opacity="0.34" />
  <line x1="366.7" y1="271.5" x2="397.8" y2="262.5" stroke="#6e7681" stroke-width="1.1" opacity="0.30" />
  <line x1="366.7" y1="271.5" x2="431.5" y2="276.1" stroke="#6e7681" stroke-width="0.9" opacity="0.20" />
  <line x1="366.7" y1="271.5" x2="423.1" y2="268.6" stroke="#6e7681" stroke-width="1.0" opacity="0.22" />
  <line x1="366.7" y1="271.5" x2="447.0" y2="268.8" stroke="#6e7681" stroke-width="0.9" opacity="0.20" />
  <line x1="366.7" y1="271.5" x2="445.2" y2="248.8" stroke="#6e7681" stroke-width="0.9" opacity="0.19" />
  <line x1="366.7" y1="271.5" x2="346.8" y2="289.9" stroke="#6e7681" stroke-width="1.2" opacity="0.37" />
  <line x1="366.7" y1="271.5" x2="308.1" y2="290.4" stroke="#6e7681" stroke-width="1.2" opacity="0.37" />
  <line x1="366.7" y1="271.5" x2="339.0" y2="279.5" stroke="#6e7681" stroke-width="1.1" opacity="0.29" />
  <line x1="366.7" y1="271.5" x2="374.9" y2="290.1" stroke="#6e7681" stroke-width="1.0" opacity="0.22" />
  <line x1="366.7" y1="271.5" x2="383.1" y2="296.4" stroke="#6e7681" stroke-width="1.2" opacity="0.34" />
  <line x1="366.7" y1="271.5" x2="360.2" y2="299.3" stroke="#6e7681" stroke-width="1.0" opacity="0.24" />
  <line x1="366.7" y1="271.5" x2="403.3" y2="296.8" stroke="#6e7681" stroke-width="1.1" opacity="0.29" />
  <line x1="366.7" y1="271.5" x2="336.8" y2="297.8" stroke="#6e7681" stroke-width="1.0" opacity="0.22" />
  <line x1="409.7" y1="271.4" x2="397.8" y2="262.5" stroke="#6e7681" stroke-width="1.0" opacity="0.24" />
  <line x1="409.7" y1="271.4" x2="480.1" y2="282.6" stroke="#6e7681" stroke-width="0.9" opacity="0.21" />
  <line x1="409.7" y1="271.4" x2="431.5" y2="276.1" stroke="#6e7681" stroke-width="1.1" opacity="0.28" />
  <line x1="409.7" y1="271.4" x2="423.1" y2="268.6" stroke="#6e7681" stroke-width="1.1" opacity="0.31" />
  <line x1="409.7" y1="271.4" x2="447.0" y2="268.8" stroke="#6e7681" stroke-width="1.1" opacity="0.28" />
  <line x1="409.7" y1="271.4" x2="445.2" y2="248.8" stroke="#6e7681" stroke-width="0.9" opacity="0.18" />
  <line x1="409.7" y1="271.4" x2="346.8" y2="289.9" stroke="#6e7681" stroke-width="0.9" opacity="0.17" />
  <line x1="409.7" y1="271.4" x2="421.5" y2="307.8" stroke="#6e7681" stroke-width="0.9" opacity="0.17" />
  <line x1="409.7" y1="271.4" x2="438.5" y2="301.6" stroke="#6e7681" stroke-width="0.9" opacity="0.20" />
  <line x1="409.7" y1="271.4" x2="383.1" y2="296.4" stroke="#6e7681" stroke-width="0.9" opacity="0.17" />
  <line x1="409.7" y1="271.4" x2="360.2" y2="299.3" stroke="#6e7681" stroke-width="0.9" opacity="0.17" />
  <line x1="409.7" y1="271.4" x2="403.3" y2="296.8" stroke="#6e7681" stroke-width="1.1" opacity="0.33" />
  <line x1="409.7" y1="271.4" x2="442.5" y2="294.4" stroke="#6e7681" stroke-width="1.0" opacity="0.24" />
  <line x1="287.8" y1="271.9" x2="346.8" y2="289.9" stroke="#6e7681" stroke-width="1.0" opacity="0.25" />
  <line x1="287.8" y1="271.9" x2="308.1" y2="290.4" stroke="#6e7681" stroke-width="1.1" opacity="0.29" />
  <line x1="287.8" y1="271.9" x2="336.8" y2="297.8" stroke="#6e7681" stroke-width="0.9" opacity="0.17" />
  <line x1="397.8" y1="262.5" x2="431.5" y2="276.1" stroke="#6e7681" stroke-width="1.0" opacity="0.22" />
  <line x1="397.8" y1="262.5" x2="423.1" y2="268.6" stroke="#6e7681" stroke-width="1.0" opacity="0.24" />
  <line x1="397.8" y1="262.5" x2="447.0" y2="268.8" stroke="#6e7681" stroke-width="1.0" opacity="0.22" />
  <line x1="397.8" y1="262.5" x2="445.2" y2="248.8" stroke="#6e7681" stroke-width="1.0" opacity="0.22" />
  <line x1="397.8" y1="262.5" x2="339.0" y2="279.5" stroke="#6e7681" stroke-width="0.9" opacity="0.19" />
  <line x1="397.8" y1="262.5" x2="383.1" y2="296.4" stroke="#6e7681" stroke-width="0.9" opacity="0.21" />
  <line x1="397.8" y1="262.5" x2="403.3" y2="296.8" stroke="#6e7681" stroke-width="1.0" opacity="0.24" />
  <line x1="397.8" y1="262.5" x2="442.5" y2="294.4" stroke="#6e7681" stroke-width="0.9" opacity="0.17" />
  <line x1="316.9" y1="313.8" x2="346.8" y2="289.9" stroke="#6e7681" stroke-width="0.9" opacity="0.18" />
  <line x1="316.9" y1="313.8" x2="308.1" y2="290.4" stroke="#6e7681" stroke-width="0.9" opacity="0.18" />
  <line x1="316.9" y1="313.8" x2="383.1" y2="296.4" stroke="#6e7681" stroke-width="0.9" opacity="0.17" />
  <line x1="316.9" y1="313.8" x2="360.2" y2="299.3" stroke="#6e7681" stroke-width="1.3" opacity="0.42" />
  <line x1="316.9" y1="313.8" x2="403.3" y2="296.8" stroke="#6e7681" stroke-width="0.9" opacity="0.19" />
  <line x1="316.9" y1="313.8" x2="336.8" y2="297.8" stroke="#6e7681" stroke-width="0.9" opacity="0.21" />
  <line x1="480.1" y1="282.6" x2="438.5" y2="301.6" stroke="#6e7681" stroke-width="0.9" opacity="0.18" />
  <line x1="480.1" y1="282.6" x2="403.3" y2="296.8" stroke="#6e7681" stroke-width="1.1" opacity="0.30" />
  <line x1="480.1" y1="282.6" x2="442.5" y2="294.4" stroke="#6e7681" stroke-width="1.0" opacity="0.22" />
  <line x1="431.5" y1="276.1" x2="423.1" y2="268.6" stroke="#6e7681" stroke-width="1.1" opacity="0.28" />
  <line x1="431.5" y1="276.1" x2="447.0" y2="268.8" stroke="#6e7681" stroke-width="1.0" opacity="0.24" />
  <line x1="431.5" y1="276.1" x2="374.9" y2="290.1" stroke="#6e7681" stroke-width="0.9" opacity="0.19" />
  <line x1="431.5" y1="276.1" x2="387.0" y2="310.2" stroke="#6e7681" stroke-width="0.9" opacity="0.18" />
  <line x1="431.5" y1="276.1" x2="438.5" y2="301.6" stroke="#6e7681" stroke-width="0.9" opacity="0.17" />
  <line x1="431.5" y1="276.1" x2="403.3" y2="296.8" stroke="#6e7681" stroke-width="0.9" opacity="0.17" />
  <line x1="431.5" y1="276.1" x2="442.5" y2="294.4" stroke="#6e7681" stroke-width="0.9" opacity="0.20" />
  <line x1="423.1" y1="268.6" x2="447.0" y2="268.8" stroke="#6e7681" stroke-width="1.1" opacity="0.28" />
  <line x1="423.1" y1="268.6" x2="445.2" y2="248.8" stroke="#6e7681" stroke-width="0.9" opacity="0.18" />
  <line x1="423.1" y1="268.6" x2="421.5" y2="307.8" stroke="#6e7681" stroke-width="0.9" opacity="0.17" />
  <line x1="423.1" y1="268.6" x2="438.5" y2="301.6" stroke="#6e7681" stroke-width="0.9" opacity="0.20" />
  <line x1="423.1" y1="268.6" x2="383.1" y2="296.4" stroke="#6e7681" stroke-width="0.9" opacity="0.17" />
  <line x1="423.1" y1="268.6" x2="403.3" y2="296.8" stroke="#6e7681" stroke-width="0.9" opacity="0.20" />
  <line x1="423.1" y1="268.6" x2="442.5" y2="294.4" stroke="#6e7681" stroke-width="1.0" opacity="0.24" />
  <line x1="447.0" y1="268.8" x2="438.5" y2="301.6" stroke="#6e7681" stroke-width="0.9" opacity="0.17" />
  <line x1="447.0" y1="268.8" x2="403.3" y2="296.8" stroke="#6e7681" stroke-width="0.9" opacity="0.17" />
  <line x1="447.0" y1="268.8" x2="442.5" y2="294.4" stroke="#6e7681" stroke-width="0.9" opacity="0.20" />
  <line x1="445.2" y1="248.8" x2="530.9" y2="268.7" stroke="#6e7681" stroke-width="1.0" opacity="0.22" />
  <line x1="445.2" y1="248.8" x2="442.5" y2="294.4" stroke="#6e7681" stroke-width="0.9" opacity="0.18" />
  <line x1="532.7" y1="305.1" x2="464.0" y2="330.9" stroke="#6e7681" stroke-width="1.3" opacity="0.44" />
  <line x1="532.7" y1="305.1" x2="537.5" y2="340.7" stroke="#6e7681" stroke-width="0.9" opacity="0.18" />
  <line x1="464.0" y1="330.9" x2="464.9" y2="319.6" stroke="#6e7681" stroke-width="1.1" opacity="0.31" />
  <line x1="464.0" y1="330.9" x2="421.5" y2="307.8" stroke="#6e7681" stroke-width="0.9" opacity="0.20" />
  <line x1="464.0" y1="330.9" x2="438.5" y2="301.6" stroke="#6e7681" stroke-width="1.0" opacity="0.24" />
  <line x1="464.0" y1="330.9" x2="383.1" y2="296.4" stroke="#6e7681" stroke-width="0.9" opacity="0.20" />
  <line x1="464.0" y1="330.9" x2="403.3" y2="296.8" stroke="#6e7681" stroke-width="1.0" opacity="0.24" />
  <line x1="464.0" y1="330.9" x2="405.2" y2="320.6" stroke="#6e7681" stroke-width="0.9" opacity="0.18" />
  <line x1="464.0" y1="330.9" x2="455.4" y2="410.1" stroke="#6e7681" stroke-width="0.9" opacity="0.17" />
  <line x1="464.0" y1="330.9" x2="487.1" y2="319.4" stroke="#6e7681" stroke-width="1.1" opacity="0.31" />
  <line x1="464.0" y1="330.9" x2="537.5" y2="340.7" stroke="#6e7681" stroke-width="1.1" opacity="0.30" />
  <line x1="464.0" y1="330.9" x2="442.5" y2="294.4" stroke="#6e7681" stroke-width="1.1" opacity="0.31" />
  <line x1="577.4" y1="148.4" x2="554.5" y2="174.3" stroke="#6e7681" stroke-width="1.6" opacity="0.60" />
  <line x1="141.3" y1="299.6" x2="308.1" y2="290.4" stroke="#6e7681" stroke-width="0.9" opacity="0.18" />
  <line x1="141.3" y1="299.6" x2="50.0" y2="306.3" stroke="#6e7681" stroke-width="1.1" opacity="0.28" />
  <line x1="355.2" y1="312.1" x2="346.8" y2="289.9" stroke="#6e7681" stroke-width="0.9" opacity="0.17" />
  <line x1="355.2" y1="312.1" x2="308.1" y2="290.4" stroke="#6e7681" stroke-width="0.9" opacity="0.18" />
  <line x1="355.2" y1="312.1" x2="374.9" y2="290.1" stroke="#6e7681" stroke-width="1.0" opacity="0.22" />
  <line x1="355.2" y1="312.1" x2="383.1" y2="296.4" stroke="#6e7681" stroke-width="1.1" opacity="0.28" />
  <line x1="355.2" y1="312.1" x2="360.2" y2="299.3" stroke="#6e7681" stroke-width="1.1" opacity="0.32" />
  <line x1="355.2" y1="312.1" x2="403.3" y2="296.8" stroke="#6e7681" stroke-width="0.9" opacity="0.20" />
  <line x1="355.2" y1="312.1" x2="336.8" y2="297.8" stroke="#6e7681" stroke-width="1.0" opacity="0.22" />
  <line x1="355.2" y1="312.1" x2="457.2" y2="296.6" stroke="#6e7681" stroke-width="1.0" opacity="0.22" />
  <line x1="346.8" y1="289.9" x2="308.1" y2="290.4" stroke="#6e7681" stroke-width="1.3" opacity="0.42" />
  <line x1="346.8" y1="289.9" x2="301.7" y2="304.3" stroke="#6e7681" stroke-width="0.9" opacity="0.18" />
  <line x1="346.8" y1="289.9" x2="339.0" y2="279.5" stroke="#6e7681" stroke-width="1.1" opacity="0.31" />
  <line x1="346.8" y1="289.9" x2="374.9" y2="290.1" stroke="#6e7681" stroke-width="1.1" opacity="0.32" />
  <line x1="346.8" y1="289.9" x2="387.0" y2="310.2" stroke="#6e7681" stroke-width="1.0" opacity="0.23" />
  <line x1="346.8" y1="289.9" x2="383.1" y2="296.4" stroke="#6e7681" stroke-width="1.2" opacity="0.39" />
  <line x1="346.8" y1="289.9" x2="360.2" y2="299.3" stroke="#6e7681" stroke-width="1.0" opacity="0.26" />
  <line x1="346.8" y1="289.9" x2="403.3" y2="296.8" stroke="#6e7681" stroke-width="1.2" opacity="0.34" />
  <line x1="346.8" y1="289.9" x2="405.2" y2="320.6" stroke="#6e7681" stroke-width="0.9" opacity="0.19" />
  <line x1="346.8" y1="289.9" x2="336.8" y2="297.8" stroke="#6e7681" stroke-width="1.0" opacity="0.25" />
  <line x1="346.8" y1="289.9" x2="442.5" y2="294.4" stroke="#6e7681" stroke-width="0.9" opacity="0.17" />
  <line x1="308.1" y1="290.4" x2="301.7" y2="304.3" stroke="#6e7681" stroke-width="1.1" opacity="0.33" />
  <line x1="308.1" y1="290.4" x2="339.0" y2="279.5" stroke="#6e7681" stroke-width="0.9" opacity="0.21" />
  <line x1="308.1" y1="290.4" x2="374.9" y2="290.1" stroke="#6e7681" stroke-width="0.9" opacity="0.18" />
  <line x1="308.1" y1="290.4" x2="383.1" y2="296.4" stroke="#6e7681" stroke-width="1.3" opacity="0.41" />
  <line x1="308.1" y1="290.4" x2="360.2" y2="299.3" stroke="#6e7681" stroke-width="1.0" opacity="0.22" />
  <line x1="308.1" y1="290.4" x2="403.3" y2="296.8" stroke="#6e7681" stroke-width="1.1" opacity="0.31" />
  <line x1="308.1" y1="290.4" x2="336.8" y2="297.8" stroke="#6e7681" stroke-width="1.7" opacity="0.66" />
  <line x1="458.8" y1="311.3" x2="464.9" y2="319.6" stroke="#6e7681" stroke-width="1.5" opacity="0.55" />
  <line x1="458.8" y1="311.3" x2="421.5" y2="307.8" stroke="#6e7681" stroke-width="0.9" opacity="0.18" />
  <line x1="458.8" y1="311.3" x2="438.5" y2="301.6" stroke="#6e7681" stroke-width="1.1" opacity="0.28" />
  <line x1="458.8" y1="311.3" x2="383.1" y2="296.4" stroke="#6e7681" stroke-width="0.9" opacity="0.18" />
  <line x1="458.8" y1="311.3" x2="403.3" y2="296.8" stroke="#6e7681" stroke-width="1.1" opacity="0.28" />
  <line x1="458.8" y1="311.3" x2="487.5" y2="308.6" stroke="#6e7681" stroke-width="1.5" opacity="0.55" />
  <line x1="458.8" y1="311.3" x2="457.2" y2="296.6" stroke="#6e7681" stroke-width="1.2" opacity="0.37" />
  <line x1="458.8" y1="311.3" x2="487.1" y2="319.4" stroke="#6e7681" stroke-width="1.5" opacity="0.55" />
  <line x1="458.8" y1="311.3" x2="442.5" y2="294.4" stroke="#6e7681" stroke-width="1.5" opacity="0.55" />
  <line x1="464.9" y1="319.6" x2="438.5" y2="301.6" stroke="#6e7681" stroke-width="1.0" opacity="0.22" />
  <line x1="464.9" y1="319.6" x2="403.3" y2="296.8" stroke="#6e7681" stroke-width="1.0" opacity="0.22" />
  <line x1="464.9" y1="319.6" x2="487.5" y2="308.6" stroke="#6e7681" stroke-width="1.2" opacity="0.37" />
  <line x1="464.9" y1="319.6" x2="457.2" y2="296.6" stroke="#6e7681" stroke-width="1.1" opacity="0.28" />
  <line x1="464.9" y1="319.6" x2="487.1" y2="319.4" stroke="#6e7681" stroke-width="1.2" opacity="0.37" />
  <line x1="464.9" y1="319.6" x2="442.5" y2="294.4" stroke="#6e7681" stroke-width="1.2" opacity="0.37" />
  <line x1="301.7" y1="304.3" x2="383.1" y2="296.4" stroke="#6e7681" stroke-width="0.9" opacity="0.18" />
  <line x1="301.7" y1="304.3" x2="360.2" y2="299.3" stroke="#6e7681" stroke-width="0.9" opacity="0.18" />
  <line x1="301.7" y1="304.3" x2="403.3" y2="296.8" stroke="#6e7681" stroke-width="1.0" opacity="0.22" />
  <line x1="301.7" y1="304.3" x2="336.8" y2="297.8" stroke="#6e7681" stroke-width="1.3" opacity="0.41" />
  <line x1="339.0" y1="279.5" x2="374.9" y2="290.1" stroke="#6e7681" stroke-width="1.1" opacity="0.31" />
  <line x1="339.0" y1="279.5" x2="383.1" y2="296.4" stroke="#6e7681" stroke-width="1.4" opacity="0.47" />
  <line x1="339.0" y1="279.5" x2="360.2" y2="299.3" stroke="#6e7681" stroke-width="0.9" opacity="0.19" />
  <line x1="339.0" y1="279.5" x2="403.3" y2="296.8" stroke="#6e7681" stroke-width="1.0" opacity="0.22" />
  <line x1="374.9" y1="290.1" x2="387.0" y2="310.2" stroke="#6e7681" stroke-width="1.1" opacity="0.29" />
  <line x1="374.9" y1="290.1" x2="421.5" y2="307.8" stroke="#6e7681" stroke-width="0.9" opacity="0.17" />
  <line x1="374.9" y1="290.1" x2="438.5" y2="301.6" stroke="#6e7681" stroke-width="0.9" opacity="0.20" />
  <line x1="374.9" y1="290.1" x2="383.1" y2="296.4" stroke="#6e7681" stroke-width="1.3" opacity="0.40" />
  <line x1="374.9" y1="290.1" x2="360.2" y2="299.3" stroke="#6e7681" stroke-width="1.0" opacity="0.24" />
  <line x1="374.9" y1="290.1" x2="403.3" y2="296.8" stroke="#6e7681" stroke-width="0.9" opacity="0.20" />
  <line x1="374.9" y1="290.1" x2="442.5" y2="294.4" stroke="#6e7681" stroke-width="1.0" opacity="0.24" />
  <line x1="387.0" y1="310.2" x2="438.5" y2="301.6" stroke="#6e7681" stroke-width="0.9" opacity="0.18" />
  <line x1="387.0" y1="310.2" x2="360.2" y2="299.3" stroke="#6e7681" stroke-width="1.0" opacity="0.23" />
  <line x1="387.0" y1="310.2" x2="403.3" y2="296.8" stroke="#6e7681" stroke-width="0.9" opacity="0.18" />
  <line x1="387.0" y1="310.2" x2="405.2" y2="320.6" stroke="#6e7681" stroke-width="1.0" opacity="0.24" />
  <line x1="387.0" y1="310.2" x2="442.5" y2="294.4" stroke="#6e7681" stroke-width="1.0" opacity="0.22" />
  <line x1="421.5" y1="307.8" x2="438.5" y2="301.6" stroke="#6e7681" stroke-width="1.1" opacity="0.28" />
  <line x1="421.5" y1="307.8" x2="383.1" y2="296.4" stroke="#6e7681" stroke-width="1.0" opacity="0.22" />
  <line x1="421.5" y1="307.8" x2="403.3" y2="296.8" stroke="#6e7681" stroke-width="1.1" opacity="0.28" />
  <line x1="421.5" y1="307.8" x2="405.2" y2="320.6" stroke="#6e7681" stroke-width="0.9" opacity="0.20" />
  <line x1="421.5" y1="307.8" x2="442.5" y2="294.4" stroke="#6e7681" stroke-width="1.2" opacity="0.37" />
  <line x1="438.5" y1="301.6" x2="383.1" y2="296.4" stroke="#6e7681" stroke-width="1.1" opacity="0.28" />
  <line x1="438.5" y1="301.6" x2="403.3" y2="296.8" stroke="#6e7681" stroke-width="1.2" opacity="0.37" />
  <line x1="438.5" y1="301.6" x2="487.5" y2="308.6" stroke="#6e7681" stroke-width="1.0" opacity="0.22" />
  <line x1="438.5" y1="301.6" x2="405.2" y2="320.6" stroke="#6e7681" stroke-width="1.0" opacity="0.24" />
  <line x1="438.5" y1="301.6" x2="457.2" y2="296.6" stroke="#6e7681" stroke-width="0.9" opacity="0.18" />
  <line x1="438.5" y1="301.6" x2="487.1" y2="319.4" stroke="#6e7681" stroke-width="1.0" opacity="0.22" />
  <line x1="438.5" y1="301.6" x2="442.5" y2="294.4" stroke="#6e7681" stroke-width="1.5" opacity="0.55" />
  <line x1="383.1" y1="296.4" x2="360.2" y2="299.3" stroke="#6e7681" stroke-width="1.1" opacity="0.29" />
  <line x1="383.1" y1="296.4" x2="403.3" y2="296.8" stroke="#6e7681" stroke-width="1.4" opacity="0.47" />
  <line x1="383.1" y1="296.4" x2="405.2" y2="320.6" stroke="#6e7681" stroke-width="0.9" opacity="0.20" />
  <line x1="383.1" y1="296.4" x2="336.8" y2="297.8" stroke="#6e7681" stroke-width="1.1" opacity="0.31" />
  <line x1="383.1" y1="296.4" x2="457.2" y2="296.6" stroke="#6e7681" stroke-width="1.1" opacity="0.31" />
  <line x1="383.1" y1="296.4" x2="442.5" y2="294.4" stroke="#6e7681" stroke-width="1.2" opacity="0.37" />
  <line x1="360.2" y1="299.3" x2="403.3" y2="296.8" stroke="#6e7681" stroke-width="1.2" opacity="0.34" />
  <line x1="360.2" y1="299.3" x2="336.8" y2="297.8" stroke="#6e7681" stroke-width="1.0" opacity="0.25" />
  <line x1="360.2" y1="299.3" x2="457.2" y2="296.6" stroke="#6e7681" stroke-width="1.0" opacity="0.25" />
  <line x1="360.2" y1="299.3" x2="442.5" y2="294.4" stroke="#6e7681" stroke-width="0.9" opacity="0.17" />
  <line x1="403.3" y1="296.8" x2="487.5" y2="308.6" stroke="#6e7681" stroke-width="1.0" opacity="0.22" />
  <line x1="403.3" y1="296.8" x2="405.2" y2="320.6" stroke="#6e7681" stroke-width="1.0" opacity="0.24" />
  <line x1="403.3" y1="296.8" x2="336.8" y2="297.8" stroke="#6e7681" stroke-width="1.3" opacity="0.44" />
  <line x1="403.3" y1="296.8" x2="457.2" y2="296.6" stroke="#6e7681" stroke-width="1.3" opacity="0.44" />
  <line x1="403.3" y1="296.8" x2="487.1" y2="319.4" stroke="#6e7681" stroke-width="1.0" opacity="0.22" />
  <line x1="403.3" y1="296.8" x2="442.5" y2="294.4" stroke="#6e7681" stroke-width="1.5" opacity="0.55" />
  <line x1="873.1" y1="125.2" x2="891.1" y2="142.8" stroke="#6e7681" stroke-width="1.0" opacity="0.22" />
  <line x1="579.4" y1="308.1" x2="442.5" y2="294.4" stroke="#6e7681" stroke-width="1.0" opacity="0.22" />
  <line x1="487.5" y1="308.6" x2="457.2" y2="296.6" stroke="#6e7681" stroke-width="1.1" opacity="0.28" />
  <line x1="487.5" y1="308.6" x2="487.1" y2="319.4" stroke="#6e7681" stroke-width="1.2" opacity="0.37" />
  <line x1="487.5" y1="308.6" x2="442.5" y2="294.4" stroke="#6e7681" stroke-width="1.2" opacity="0.37" />
  <line x1="451.7" y1="438.7" x2="433.4" y2="447.7" stroke="#6e7681" stroke-width="1.5" opacity="0.55" />
  <line x1="451.7" y1="438.7" x2="455.4" y2="410.1" stroke="#6e7681" stroke-width="1.3" opacity="0.41" />
  <line x1="433.4" y1="447.7" x2="455.4" y2="410.1" stroke="#6e7681" stroke-width="1.0" opacity="0.24" />
  <line x1="405.2" y1="320.6" x2="442.5" y2="294.4" stroke="#6e7681" stroke-width="1.1" opacity="0.31" />
  <line x1="336.8" y1="297.8" x2="457.2" y2="296.6" stroke="#6e7681" stroke-width="1.0" opacity="0.22" />
  <line x1="457.2" y1="296.6" x2="530.9" y2="268.7" stroke="#6e7681" stroke-width="1.2" opacity="0.37" />
  <line x1="457.2" y1="296.6" x2="587.4" y2="273.8" stroke="#6e7681" stroke-width="0.9" opacity="0.18" />
  <line x1="457.2" y1="296.6" x2="487.1" y2="319.4" stroke="#6e7681" stroke-width="1.1" opacity="0.28" />
  <line x1="457.2" y1="296.6" x2="442.5" y2="294.4" stroke="#6e7681" stroke-width="1.1" opacity="0.28" />
  <line x1="530.9" y1="268.7" x2="587.4" y2="273.8" stroke="#6e7681" stroke-width="1.1" opacity="0.28" />
  <line x1="487.1" y1="319.4" x2="537.5" y2="340.7" stroke="#6e7681" stroke-width="1.1" opacity="0.31" />
  <line x1="487.1" y1="319.4" x2="442.5" y2="294.4" stroke="#6e7681" stroke-width="1.2" opacity="0.37" />
  <circle cx="484.1" cy="239.7" r="14.4" fill="#7f8c8d" opacity="0.12" />
  <circle cx="484.1" cy="239.7" r="10.4" fill="#7f8c8d" opacity="0.88" />
  <circle cx="432.7" cy="239.1" r="12.6" fill="#3498db" opacity="0.12" />
  <circle cx="432.7" cy="239.1" r="8.6" fill="#3498db" opacity="0.88" />
  <circle cx="438.7" cy="208.7" r="15.3" fill="#3498db" opacity="0.12" />
  <circle cx="438.7" cy="208.7" r="11.3" fill="#3498db" opacity="0.88" />
  <circle cx="476.0" cy="212.8" r="13.5" fill="#7f8c8d" opacity="0.12" />
  <circle cx="476.0" cy="212.8" r="9.5" fill="#7f8c8d" opacity="0.88" />
  <circle cx="390.2" cy="242.6" r="18.9" fill="#3498db" opacity="0.12" />
  <circle cx="390.2" cy="242.6" r="14.9" fill="#3498db" opacity="0.88" />
  <circle cx="326.4" cy="257.3" r="20" fill="#3498db" opacity="0.12" />
  <circle cx="326.4" cy="257.3" r="16" fill="#3498db" opacity="0.88" />
  <circle cx="366.7" cy="271.5" r="20" fill="#7f8c8d" opacity="0.12" />
  <circle cx="366.7" cy="271.5" r="16" fill="#7f8c8d" opacity="0.88" />
  <circle cx="409.7" cy="271.4" r="16.2" fill="#e67e22" opacity="0.12" />
  <circle cx="409.7" cy="271.4" r="12.2" fill="#e67e22" opacity="0.88" />
  <circle cx="287.8" cy="271.9" r="20" fill="#e74c3c" opacity="0.12" />
  <circle cx="287.8" cy="271.9" r="16" fill="#e74c3c" opacity="0.88" />
  <circle cx="397.8" cy="262.5" r="19.8" fill="#7f8c8d" opacity="0.12" />
  <circle cx="397.8" cy="262.5" r="15.8" fill="#7f8c8d" opacity="0.88" />
  <circle cx="316.9" cy="313.8" r="20" fill="#9b59b6" opacity="0.12" />
  <circle cx="316.9" cy="313.8" r="16" fill="#9b59b6" opacity="0.88" />
  <circle cx="480.1" cy="282.6" r="17.1" fill="#e67e22" opacity="0.12" />
  <circle cx="480.1" cy="282.6" r="13.1" fill="#e67e22" opacity="0.88" />
  <circle cx="431.5" cy="276.1" r="18.0" fill="#3498db" opacity="0.12" />
  <circle cx="431.5" cy="276.1" r="14.0" fill="#3498db" opacity="0.88" />
  <circle cx="423.1" cy="268.6" r="16.2" fill="#3498db" opacity="0.12" />
  <circle cx="423.1" cy="268.6" r="12.2" fill="#3498db" opacity="0.88" />
  <circle cx="447.0" cy="268.8" r="18.0" fill="#3498db" opacity="0.12" />
  <circle cx="447.0" cy="268.8" r="14.0" fill="#3498db" opacity="0.88" />
  <circle cx="445.2" cy="248.8" r="12.6" fill="#2ecc71" opacity="0.12" />
  <circle cx="445.2" cy="248.8" r="8.6" fill="#2ecc71" opacity="0.88" />
  <circle cx="532.7" cy="305.1" r="14.4" fill="#e74c3c" opacity="0.12" />
  <circle cx="532.7" cy="305.1" r="10.4" fill="#e74c3c" opacity="0.88" />
  <circle cx="910.0" cy="427.6" r="16.2" fill="#3498db" opacity="0.12" />
  <circle cx="910.0" cy="427.6" r="12.2" fill="#3498db" opacity="0.88" />
  <circle cx="464.0" cy="330.9" r="14.4" fill="#e74c3c" opacity="0.12" />
  <circle cx="464.0" cy="330.9" r="10.4" fill="#e74c3c" opacity="0.88" />
  <circle cx="577.4" cy="148.4" r="16.2" fill="#3498db" opacity="0.12" />
  <circle cx="577.4" cy="148.4" r="12.2" fill="#3498db" opacity="0.88" />
  <circle cx="554.5" cy="174.3" r="15.3" fill="#3498db" opacity="0.12" />
  <circle cx="554.5" cy="174.3" r="11.3" fill="#3498db" opacity="0.88" />
  <circle cx="141.3" cy="299.6" r="9.9" fill="#3498db" opacity="0.12" />
  <circle cx="141.3" cy="299.6" r="5.9" fill="#3498db" opacity="0.88" />
  <circle cx="355.2" cy="312.1" r="16.2" fill="#9b59b6" opacity="0.12" />
  <circle cx="355.2" cy="312.1" r="12.2" fill="#9b59b6" opacity="0.88" />
  <circle cx="346.8" cy="289.9" r="19.8" fill="#9b59b6" opacity="0.12" />
  <circle cx="346.8" cy="289.9" r="15.8" fill="#9b59b6" opacity="0.88" />
  <circle cx="308.1" cy="290.4" r="12.6" fill="#9b59b6" opacity="0.12" />
  <circle cx="308.1" cy="290.4" r="8.6" fill="#9b59b6" opacity="0.88" />
  <circle cx="458.8" cy="311.3" r="9" fill="#2ecc71" opacity="0.12" />
  <circle cx="458.8" cy="311.3" r="5" fill="#2ecc71" opacity="0.88" />
  <circle cx="464.9" cy="319.6" r="9.9" fill="#7f8c8d" opacity="0.12" />
  <circle cx="464.9" cy="319.6" r="5.9" fill="#7f8c8d" opacity="0.88" />
  <circle cx="301.7" cy="304.3" r="15.3" fill="#e67e22" opacity="0.12" />
  <circle cx="301.7" cy="304.3" r="11.3" fill="#e67e22" opacity="0.88" />
  <circle cx="339.0" cy="279.5" r="20" fill="#2ecc71" opacity="0.12" />
  <circle cx="339.0" cy="279.5" r="16" fill="#2ecc71" opacity="0.88" />
  <circle cx="50.0" cy="306.3" r="10.8" fill="#9b59b6" opacity="0.12" />
  <circle cx="50.0" cy="306.3" r="6.8" fill="#9b59b6" opacity="0.88" />
  <circle cx="332.0" cy="50.0" r="9" fill="#7f8c8d" opacity="0.12" />
  <circle cx="332.0" cy="50.0" r="5" fill="#7f8c8d" opacity="0.88" />
  <circle cx="374.9" cy="290.1" r="16.2" fill="#3498db" opacity="0.12" />
  <circle cx="374.9" cy="290.1" r="12.2" fill="#3498db" opacity="0.88" />
  <circle cx="387.0" cy="310.2" r="17.1" fill="#7f8c8d" opacity="0.12" />
  <circle cx="387.0" cy="310.2" r="13.1" fill="#7f8c8d" opacity="0.88" />
  <circle cx="421.5" cy="307.8" r="13.5" fill="#7f8c8d" opacity="0.12" />
  <circle cx="421.5" cy="307.8" r="9.5" fill="#7f8c8d" opacity="0.88" />
  <circle cx="296.2" cy="500.0" r="9" fill="#7f8c8d" opacity="0.12" />
  <circle cx="296.2" cy="500.0" r="5" fill="#7f8c8d" opacity="0.88" />
  <circle cx="438.5" cy="301.6" r="11.7" fill="#7f8c8d" opacity="0.12" />
  <circle cx="438.5" cy="301.6" r="7.7" fill="#7f8c8d" opacity="0.88" />
  <circle cx="383.1" cy="296.4" r="13.5" fill="#7f8c8d" opacity="0.12" />
  <circle cx="383.1" cy="296.4" r="9.5" fill="#7f8c8d" opacity="0.88" />
  <circle cx="360.2" cy="299.3" r="19.8" fill="#2ecc71" opacity="0.12" />
  <circle cx="360.2" cy="299.3" r="15.8" fill="#2ecc71" opacity="0.88" />
  <circle cx="403.3" cy="296.8" r="11.7" fill="#7f8c8d" opacity="0.12" />
  <circle cx="403.3" cy="296.8" r="7.7" fill="#7f8c8d" opacity="0.88" />
  <circle cx="873.1" cy="125.2" r="11.7" fill="#7f8c8d" opacity="0.12" />
  <circle cx="873.1" cy="125.2" r="7.7" fill="#7f8c8d" opacity="0.88" />
  <circle cx="579.4" cy="308.1" r="11.7" fill="#3498db" opacity="0.12" />
  <circle cx="579.4" cy="308.1" r="7.7" fill="#3498db" opacity="0.88" />
  <circle cx="487.5" cy="308.6" r="9.9" fill="#7f8c8d" opacity="0.12" />
  <circle cx="487.5" cy="308.6" r="5.9" fill="#7f8c8d" opacity="0.88" />
  <circle cx="451.7" cy="438.7" r="10.8" fill="#e67e22" opacity="0.12" />
  <circle cx="451.7" cy="438.7" r="6.8" fill="#e67e22" opacity="0.88" />
  <circle cx="433.4" cy="447.7" r="10.8" fill="#e67e22" opacity="0.12" />
  <circle cx="433.4" cy="447.7" r="6.8" fill="#e67e22" opacity="0.88" />
  <circle cx="405.2" cy="320.6" r="14.4" fill="#7f8c8d" opacity="0.12" />
  <circle cx="405.2" cy="320.6" r="10.4" fill="#7f8c8d" opacity="0.88" />
  <circle cx="455.4" cy="410.1" r="15.3" fill="#e67e22" opacity="0.12" />
  <circle cx="455.4" cy="410.1" r="11.3" fill="#e67e22" opacity="0.88" />
  <circle cx="891.1" cy="142.8" r="9.9" fill="#7f8c8d" opacity="0.12" />
  <circle cx="891.1" cy="142.8" r="5.9" fill="#7f8c8d" opacity="0.88" />
  <circle cx="336.8" cy="297.8" r="10.8" fill="#7f8c8d" opacity="0.12" />
  <circle cx="336.8" cy="297.8" r="6.8" fill="#7f8c8d" opacity="0.88" />
  <circle cx="457.2" cy="296.6" r="10.8" fill="#7f8c8d" opacity="0.12" />
  <circle cx="457.2" cy="296.6" r="6.8" fill="#7f8c8d" opacity="0.88" />
  <circle cx="530.9" cy="268.7" r="9" fill="#2ecc71" opacity="0.12" />
  <circle cx="530.9" cy="268.7" r="5" fill="#2ecc71" opacity="0.88" />
  <circle cx="587.4" cy="273.8" r="11.7" fill="#2ecc71" opacity="0.12" />
  <circle cx="587.4" cy="273.8" r="7.7" fill="#2ecc71" opacity="0.88" />
  <circle cx="487.1" cy="319.4" r="9.9" fill="#e74c3c" opacity="0.12" />
  <circle cx="487.1" cy="319.4" r="5.9" fill="#e74c3c" opacity="0.88" />
  <circle cx="537.5" cy="340.7" r="14.4" fill="#e74c3c" opacity="0.12" />
  <circle cx="537.5" cy="340.7" r="10.4" fill="#e74c3c" opacity="0.88" />
  <circle cx="442.5" cy="294.4" r="9.9" fill="#7f8c8d" opacity="0.12" />
  <circle cx="442.5" cy="294.4" r="5.9" fill="#7f8c8d" opacity="0.88" />
  <circle cx="144.0" cy="81.5" r="9" fill="#7f8c8d" opacity="0.12" />
  <circle cx="144.0" cy="81.5" r="5" fill="#7f8c8d" opacity="0.88" />
  <rect x="496.5" y="171.2" width="74.0" height="15" fill="#0d1117" opacity="0.75" rx="2" />
  <text x="497.5" y="182.2" font-family="system-ui, -apple-system, sans-serif" font-size="12" fill="#e6edf3" text-anchor="start">tummycrypt</text>
  <rect x="443.3" y="141.8" width="16.4" height="15" fill="#0d1117" opacity="0.75" rx="2" />
  <text x="444.3" y="152.8" font-family="system-ui, -apple-system, sans-serif" font-size="12" fill="#e6edf3" text-anchor="start">pp</text>
  <rect x="452.0" y="127.1" width="117.2" height="15" fill="#0d1117" opacity="0.75" rx="2" />
  <text x="453.0" y="138.1" font-family="system-ui, -apple-system, sans-serif" font-size="12" fill="#e6edf3" text-anchor="start">tinyland-cleanup</text>
  <rect x="487.5" y="144.0" width="88.4" height="15" fill="#0d1117" opacity="0.75" rx="2" />
  <text x="488.5" y="155.0" font-family="system-ui, -apple-system, sans-serif" font-size="12" fill="#e6edf3" text-anchor="start">waifu-mirror</text>
  <rect x="407.1" y="335.4" width="102.8" height="15" fill="#0d1117" opacity="0.75" rx="2" />
  <text x="408.1" y="346.4" font-family="system-ui, -apple-system, sans-serif" font-size="12" fill="#e6edf3" text-anchor="start">tinyland-infra</text>
  <rect x="344.4" y="172.9" width="117.2" height="15" fill="#0d1117" opacity="0.75" rx="2" />
  <text x="345.4" y="183.9" font-family="system-ui, -apple-system, sans-serif" font-size="12" fill="#e6edf3" text-anchor="start">GloriousFlywheel</text>
  <rect x="384.7" y="304.1" width="52.4" height="15" fill="#0d1117" opacity="0.75" rx="2" />
  <text x="385.7" y="315.1" font-family="system-ui, -apple-system, sans-serif" font-size="12" fill="#e6edf3" text-anchor="start">LA-Mesh</text>
  <rect x="423.9" y="183.9" width="45.2" height="15" fill="#0d1117" opacity="0.75" rx="2" />
  <text x="424.9" y="194.9" font-family="system-ui, -apple-system, sans-serif" font-size="12" fill="#e6edf3" text-anchor="start">XoxdWM</text>
  <rect x="305.8" y="357.6" width="131.6" height="15" fill="#0d1117" opacity="0.75" rx="2" />
  <text x="306.8" y="368.6" font-family="system-ui, -apple-system, sans-serif" font-size="12" fill="#e6edf3" text-anchor="start">pixelwise-research</text>
  <rect x="415.6" y="226.4" width="124.4" height="15" fill="#0d1117" opacity="0.75" rx="2" />
  <text x="416.6" y="237.4" font-family="system-ui, -apple-system, sans-serif" font-size="12" fill="#e6edf3" text-anchor="start">tinyland-huskycat</text>
  <rect x="334.9" y="404.9" width="95.6" height="15" fill="#0d1117" opacity="0.75" rx="2" />
  <text x="335.9" y="415.9" font-family="system-ui, -apple-system, sans-serif" font-size="12" fill="#e6edf3" text-anchor="start">GIS_Shortcuts</text>
  <rect x="495.2" y="185.9" width="110.0" height="15" fill="#0d1117" opacity="0.75" rx="2" />
  <text x="496.2" y="196.9" font-family="system-ui, -apple-system, sans-serif" font-size="12" fill="#e6edf3" text-anchor="start">hiberpower-ntfs</text>
  <rect x="447.5" y="155.9" width="138.8" height="15" fill="#0d1117" opacity="0.75" rx="2" />
  <text x="448.5" y="166.9" font-family="system-ui, -apple-system, sans-serif" font-size="12" fill="#e6edf3" text-anchor="start">Ansible-DAG-Harness</text>
  <rect x="437.3" y="305.6" width="66.8" height="15" fill="#0d1117" opacity="0.75" rx="2" />
  <text x="438.3" y="316.6" font-family="system-ui, -apple-system, sans-serif" font-size="12" fill="#e6edf3" text-anchor="start">betterkvm</text>
  <rect x="463.0" y="298.2" width="95.6" height="15" fill="#0d1117" opacity="0.75" rx="2" />
  <text x="464.0" y="309.2" font-family="system-ui, -apple-system, sans-serif" font-size="12" fill="#e6edf3" text-anchor="start">DarwinNicUtil</text>
  <rect x="455.8" y="258.2" width="59.6" height="15" fill="#0d1117" opacity="0.75" rx="2" />
  <text x="456.8" y="269.2" font-family="system-ui, -apple-system, sans-serif" font-size="12" fill="#e6edf3" text-anchor="start">gnucashr</text>
  <rect x="545.1" y="311.3" width="66.8" height="15" fill="#0d1117" opacity="0.75" rx="2" />
  <text x="546.1" y="322.3" font-family="system-ui, -apple-system, sans-serif" font-size="12" fill="#e6edf3" text-anchor="start">quickchpl</text>
  <rect x="764.2" y="420.8" width="131.6" height="15" fill="#0d1117" opacity="0.75" rx="2" />
  <text x="894.8" y="431.8" font-family="system-ui, -apple-system, sans-serif" font-size="12" fill="#e6edf3" text-anchor="end">tinyscale-mikrotik</text>
  <rect x="476.4" y="401.4" width="59.6" height="15" fill="#0d1117" opacity="0.75" rx="2" />
  <text x="477.4" y="412.4" font-family="system-ui, -apple-system, sans-serif" font-size="12" fill="#e6edf3" text-anchor="start">aoc-2025</text>
  <rect x="591.6" y="112.4" width="66.8" height="15" fill="#0d1117" opacity="0.75" rx="2" />
  <text x="592.6" y="123.4" font-family="system-ui, -apple-system, sans-serif" font-size="12" fill="#e6edf3" text-anchor="start">searchies</text>
  <rect x="567.8" y="129.4" width="59.6" height="15" fill="#0d1117" opacity="0.75" rx="2" />
  <text x="568.8" y="140.4" font-family="system-ui, -apple-system, sans-serif" font-size="12" fill="#e6edf3" text-anchor="start">ts-caddy</text>
  <rect x="149.2" y="287.7" width="66.8" height="15" fill="#0d1117" opacity="0.75" rx="2" />
  <text x="150.2" y="298.7" font-family="system-ui, -apple-system, sans-serif" font-size="12" fill="#e6edf3" text-anchor="start">HCI-notes</text>
  <rect x="369.4" y="256.9" width="88.4" height="15" fill="#0d1117" opacity="0.75" rx="2" />
  <text x="370.4" y="267.9" font-family="system-ui, -apple-system, sans-serif" font-size="12" fill="#e6edf3" text-anchor="start">FastPhotoAPI</text>
  <rect x="364.6" y="196.7" width="81.2" height="15" fill="#0d1117" opacity="0.75" rx="2" />
  <text x="365.6" y="207.7" font-family="system-ui, -apple-system, sans-serif" font-size="12" fill="#e6edf3" text-anchor="start">timberbuddy</text>
  <rect x="318.7" y="288.7" width="81.2" height="15" fill="#0d1117" opacity="0.75" rx="2" />
  <text x="319.7" y="299.7" font-family="system-ui, -apple-system, sans-serif" font-size="12" fill="#e6edf3" text-anchor="start">tetrahedron</text>
  <rect x="465.8" y="198.6" width="95.6" height="15" fill="#0d1117" opacity="0.75" rx="2" />
  <text x="466.8" y="209.6" font-family="system-ui, -apple-system, sans-serif" font-size="12" fill="#e6edf3" text-anchor="start">AccuWixReport</text>
  <rect x="472.8" y="358.5" width="95.6" height="15" fill="#0d1117" opacity="0.75" rx="2" />
  <text x="473.8" y="369.5" font-family="system-ui, -apple-system, sans-serif" font-size="12" fill="#e6edf3" text-anchor="start">Jess-AOC-2023</text>
  <rect x="315.0" y="389.8" width="81.2" height="15" fill="#0d1117" opacity="0.75" rx="2" />
  <text x="316.0" y="400.8" font-family="system-ui, -apple-system, sans-serif" font-size="12" fill="#e6edf3" text-anchor="start">TurkeyProbe</text>
  <rect x="357.0" y="344.0" width="153.2" height="15" fill="#0d1117" opacity="0.75" rx="2" />
  <text x="358.0" y="355.0" font-family="system-ui, -apple-system, sans-serif" font-size="12" fill="#e6edf3" text-anchor="start">MerlinAI-Interpreters</text>
  <rect x="58.8" y="304.7" width="110.0" height="15" fill="#0d1117" opacity="0.75" rx="2" />
  <text x="59.8" y="315.7" font-family="system-ui, -apple-system, sans-serif" font-size="12" fill="#e6edf3" text-anchor="start">IntroTypeScript</text>
  <rect x="339.0" y="43.2" width="110.0" height="15" fill="#0d1117" opacity="0.75" rx="2" />
  <text x="340.0" y="54.2" font-family="system-ui, -apple-system, sans-serif" font-size="12" fill="#e6edf3" text-anchor="start">IG-3DP-Profiles</text>
  <rect x="389.1" y="371.1" width="66.8" height="15" fill="#0d1117" opacity="0.75" rx="2" />
  <text x="390.1" y="382.1" font-family="system-ui, -apple-system, sans-serif" font-size="12" fill="#e6edf3" text-anchor="start">DLA-Flask</text>
  <rect x="402.1" y="388.3" width="38.0" height="15" fill="#0d1117" opacity="0.75" rx="2" />
  <text x="403.1" y="399.3" font-family="system-ui, -apple-system, sans-serif" font-size="12" fill="#e6edf3" text-anchor="start">USBoN</text>
  <rect x="433.0" y="231.6" width="203.6" height="15" fill="#0d1117" opacity="0.75" rx="2" />
  <text x="434.0" y="242.6" font-family="system-ui, -apple-system, sans-serif" font-size="12" fill="#e6edf3" text-anchor="start">chrome-remote-desktop-budgie</text>
  <rect x="303.2" y="493.2" width="124.4" height="15" fill="#0d1117" opacity="0.75" rx="2" />
  <text x="304.2" y="504.2" font-family="system-ui, -apple-system, sans-serif" font-size="12" fill="#e6edf3" text-anchor="start">OminousBeepingApp</text>
  <rect x="448.2" y="388.1" width="138.8" height="15" fill="#0d1117" opacity="0.75" rx="2" />
  <text x="449.2" y="399.1" font-family="system-ui, -apple-system, sans-serif" font-size="12" fill="#e6edf3" text-anchor="start">mo-image-identifier</text>
  <rect x="394.6" y="215.6" width="196.4" height="15" fill="#0d1117" opacity="0.75" rx="2" />
  <text x="395.6" y="226.6" font-family="system-ui, -apple-system, sans-serif" font-size="12" fill="#e6edf3" text-anchor="start">squirrel-leaflet-annotation</text>
  <rect x="378.0" y="322.6" width="74.0" height="15" fill="#0d1117" opacity="0.75" rx="2" />
  <text x="379.0" y="333.6" font-family="system-ui, -apple-system, sans-serif" font-size="12" fill="#e6edf3" text-anchor="start">Shiny-Apps</text>
  <rect x="413.0" y="244.2" width="138.8" height="15" fill="#0d1117" opacity="0.75" rx="2" />
  <text x="414.0" y="255.2" font-family="system-ui, -apple-system, sans-serif" font-size="12" fill="#e6edf3" text-anchor="start">bbox-jest-puppeteer</text>
  <rect x="775.0" y="118.4" width="88.4" height="15" fill="#0d1117" opacity="0.75" rx="2" />
  <text x="862.4" y="129.4" font-family="system-ui, -apple-system, sans-serif" font-size="12" fill="#e6edf3" text-anchor="end">DoverDisplay</text>
  <rect x="589.1" y="326.4" width="81.2" height="15" fill="#0d1117" opacity="0.75" rx="2" />
  <text x="590.1" y="337.4" font-family="system-ui, -apple-system, sans-serif" font-size="12" fill="#e6edf3" text-anchor="start">LeafletSync</text>
  <rect x="495.4" y="373.7" width="167.6" height="15" fill="#0d1117" opacity="0.75" rx="2" />
  <text x="496.4" y="384.7" font-family="system-ui, -apple-system, sans-serif" font-size="12" fill="#e6edf3" text-anchor="start">misc-roi-distance-notes</text>
  <rect x="460.5" y="433.7" width="138.8" height="15" fill="#0d1117" opacity="0.75" rx="2" />
  <text x="461.5" y="444.7" font-family="system-ui, -apple-system, sans-serif" font-size="12" fill="#e6edf3" text-anchor="start">Arduino_Coil_Winder</text>
  <rect x="442.2" y="448.7" width="30.8" height="15" fill="#0d1117" opacity="0.75" rx="2" />
  <text x="443.2" y="459.7" font-family="system-ui, -apple-system, sans-serif" font-size="12" fill="#e6edf3" text-anchor="start">momo</text>
  <rect x="417.6" y="288.9" width="38.0" height="15" fill="#0d1117" opacity="0.75" rx="2" />
  <text x="418.6" y="299.9" font-family="system-ui, -apple-system, sans-serif" font-size="12" fill="#e6edf3" text-anchor="start">clipi</text>
  <rect x="468.7" y="418.7" width="110.0" height="15" fill="#0d1117" opacity="0.75" rx="2" />
  <text x="469.7" y="429.7" font-family="system-ui, -apple-system, sans-serif" font-size="12" fill="#e6edf3" text-anchor="start">AeroTaz5_hotfix</text>
  <rect x="773.2" y="136.0" width="110.0" height="15" fill="#0d1117" opacity="0.75" rx="2" />
  <text x="882.2" y="147.0" font-family="system-ui, -apple-system, sans-serif" font-size="12" fill="#e6edf3" text-anchor="end">Funmat-HT-Notes</text>
  <rect x="345.6" y="273.9" width="81.2" height="15" fill="#0d1117" opacity="0.75" rx="2" />
  <text x="346.6" y="284.9" font-family="system-ui, -apple-system, sans-serif" font-size="12" fill="#e6edf3" text-anchor="start">static-site</text>
  <rect x="466.0" y="286.0" width="95.6" height="15" fill="#0d1117" opacity="0.75" rx="2" />
  <text x="467.0" y="297.0" font-family="system-ui, -apple-system, sans-serif" font-size="12" fill="#e6edf3" text-anchor="start">Flask-Manager</text>
  <rect x="537.9" y="256.6" width="110.0" height="15" fill="#0d1117" opacity="0.75" rx="2" />
  <text x="538.9" y="267.6" font-family="system-ui, -apple-system, sans-serif" font-size="12" fill="#e6edf3" text-anchor="start">FieldProcessing</text>
  <rect x="597.1" y="282.4" width="81.2" height="15" fill="#0d1117" opacity="0.75" rx="2" />
  <text x="598.1" y="293.4" font-family="system-ui, -apple-system, sans-serif" font-size="12" fill="#e6edf3" text-anchor="start">rJDKmanager</text>
  <rect x="495.0" y="273.6" width="59.6" height="15" fill="#0d1117" opacity="0.75" rx="2" />
  <text x="496.0" y="284.6" font-family="system-ui, -apple-system, sans-serif" font-size="12" fill="#e6edf3" text-anchor="start">tagnotes</text>
  <rect x="549.9" y="403.5" width="81.2" height="15" fill="#0d1117" opacity="0.75" rx="2" />
  <text x="550.9" y="414.5" font-family="system-ui, -apple-system, sans-serif" font-size="12" fill="#e6edf3" text-anchor="start">ChapelTests</text>
  <rect x="450.4" y="321.4" width="88.4" height="15" fill="#0d1117" opacity="0.75" rx="2" />
  <text x="451.4" y="332.4" font-family="system-ui, -apple-system, sans-serif" font-size="12" fill="#e6edf3" text-anchor="start">Xfinity-WiFi</text>
  <rect x="151.0" y="74.7" width="66.8" height="15" fill="#0d1117" opacity="0.75" rx="2" />
  <text x="152.0" y="85.7" font-family="system-ui, -apple-system, sans-serif" font-size="12" fill="#e6edf3" text-anchor="start">home-wiki</text>
  <rect x="793" y="36" width="155" height="120" rx="6" fill="#161b22" stroke="#30363d" stroke-width="1" opacity="0.95" />
  <circle cx="810" cy="52" r="5" fill="#e74c3c" opacity="0.88" />
  <text x="820" y="56" font-family="system-ui, -apple-system, sans-serif" font-size="10" fill="#e6edf3">Languages &amp; Compilers</text>
  <circle cx="810" cy="69" r="5" fill="#3498db" opacity="0.88" />
  <text x="820" y="73" font-family="system-ui, -apple-system, sans-serif" font-size="10" fill="#e6edf3">Infrastructure &amp; DevOps</text>
  <circle cx="810" cy="86" r="5" fill="#e67e22" opacity="0.88" />
  <text x="820" y="90" font-family="system-ui, -apple-system, sans-serif" font-size="10" fill="#e6edf3">Hardware &amp; Maker</text>
  <circle cx="810" cy="103" r="5" fill="#2ecc71" opacity="0.88" />
  <text x="820" y="107" font-family="system-ui, -apple-system, sans-serif" font-size="10" fill="#e6edf3">ML &amp; Data</text>
  <circle cx="810" cy="120" r="5" fill="#9b59b6" opacity="0.88" />
  <text x="820" y="124" font-family="system-ui, -apple-system, sans-serif" font-size="10" fill="#e6edf3">Web &amp; Apps</text>
  <circle cx="810" cy="137" r="5" fill="#7f8c8d" opacity="0.88" />
  <text x="820" y="141" font-family="system-ui, -apple-system, sans-serif" font-size="10" fill="#e6edf3">Other</text>
  <text x="870" y="150" font-family="system-ui, -apple-system, sans-serif" font-size="8" fill="#8b949e" text-anchor="middle">55 repos · 218 edges</text>
</svg>