<svg xmlns="http://www.w3.org/2000/svg" width="960" height="600" viewBox="0 0 960 600">
  <rect width="960" height="600" fill="#ffffff" rx="8" />
  <text x="480" y="24" font-family="system-ui, -apple-system, sans-serif" font-size="13" fill="#656d76" text-anchor="middle" font-weight="500">Repo Relationship Graph &#x2014; Pairwise Topic &amp; Language Similarity</text>
  <line x1="50" y1="550" x2="910" y2="550" stroke="#d0d7de" stroke-width="0.5" opacity="0.5" />
  <text x="50" y="570" font-family="system-ui, -apple-system, sans-serif" font-size="9" fill="#656d76" opacity="0.6">Updated daily by GitHub Actions</text>
  <text x="50" y="588" font-family="system-ui, -apple-system, sans-serif" font-size="9" fill="#656d76" opacity="0.6">networkx spring_layout · Jaccard similarity &gt; 0.15</text>
  <text x="910" y="570" font-family="system-ui, -apple-system, sans-serif" font-size="9" fill="#656d76" text-anchor="end" opacity="0.6">54 repos · 207 edges</text>
  <line x1="443.6" y1="296.6" x2="488.5" y2="309.0" stroke="#bcc3cd" stroke-width="1.0" opacity="0.24" />
  <line x1="443.6" y1="296.6" x2="454.5" y2="318.9" stroke="#bcc3cd" stroke-width="1.0" opacity="0.24" />
  <line x1="443.6" y1="296.6" x2="421.4" y2="282.4" stroke="#bcc3cd" stroke-width="2.0" opacity="0.80" />
  <line x1="443.6" y1="296.6" x2="492.0" y2="296.2" stroke="#bcc3cd" stroke-width="1.0" opacity="0.22" />
  <line x1="443.6" y1="296.6" x2="476.0" y2="322.0" stroke="#bcc3cd" stroke-width="0.9" opacity="0.17" />
  <line x1="443.6" y1="296.6" x2="474.0" y2="310.4" stroke="#bcc3cd" stroke-width="0.9" opacity="0.20" />
  <line x1="443.6" y1="296.6" x2="459.0" y2="307.3" stroke="#bcc3cd" stroke-width="0.9" opacity="0.17" />
  <line x1="443.6" y1="296.6" x2="419.7" y2="306.4" stroke="#bcc3cd" stroke-width="1.0" opacity="0.23" />
  <line x1="443.6" y1="296.6" x2="454.0" y2="287.1" stroke="#bcc3cd" stroke-width="1.5" opacity="0.55" />
  <line x1="443.6" y1="296.6" x2="519.5" y2="314.8" stroke="#bcc3cd" stroke-width="1.0" opacity="0.22" />
  <line x1="496.6" y1="406.2" x2="484.0" y2="394.0" stroke="#bcc3cd" stroke-width="1.0" opacity="0.26" />
  <line x1="496.6" y1="406.2" x2="509.9" y2="361.1" stroke="#bcc3cd" stroke-width="0.9" opacity="0.20" />
  <line x1="496.6" y1="406.2" x2="478.5" y2="369.3" stroke="#bcc3cd" stroke-width="1.0" opacity="0.22" />
  <line x1="488.5" y1="309.0" x2="454.5" y2="318.9" stroke="#bcc3cd" stroke-width="1.1" opacity="0.28" />
  <line x1="488.5" y1="309.0" x2="492.0" y2="296.2" stroke="#bcc3cd" stroke-width="1.1" opacity="0.31" />
  <line x1="488.5" y1="309.0" x2="476.0" y2="322.0" stroke="#bcc3cd" stroke-width="1.1" opacity="0.31" />
  <line x1="488.5" y1="309.0" x2="474.0" y2="310.4" stroke="#bcc3cd" stroke-width="1.2" opacity="0.37" />
  <line x1="488.5" y1="309.0" x2="459.0" y2="307.3" stroke="#bcc3cd" stroke-width="1.1" opacity="0.31" />
  <line x1="488.5" y1="309.0" x2="419.7" y2="306.4" stroke="#bcc3cd" stroke-width="1.0" opacity="0.26" />
  <line x1="488.5" y1="309.0" x2="454.0" y2="287.1" stroke="#bcc3cd" stroke-width="1.0" opacity="0.22" />
  <line x1="488.5" y1="309.0" x2="569.6" y2="291.0" stroke="#bcc3cd" stroke-width="0.9" opacity="0.18" />
  <line x1="488.5" y1="309.0" x2="544.3" y2="317.9" stroke="#bcc3cd" stroke-width="0.9" opacity="0.20" />
  <line x1="488.5" y1="309.0" x2="529.0" y2="313.5" stroke="#bcc3cd" stroke-width="1.0" opacity="0.24" />
  <line x1="488.5" y1="309.0" x2="505.1" y2="336.1" stroke="#bcc3cd" stroke-width="0.9" opacity="0.20" />
  <line x1="488.5" y1="309.0" x2="513.6" y2="328.8" stroke="#bcc3cd" stroke-width="1.0" opacity="0.24" />
  <line x1="488.5" y1="309.0" x2="549.8" y2="329.1" stroke="#bcc3cd" stroke-width="0.9" opacity="0.18" />
  <line x1="488.5" y1="309.0" x2="519.5" y2="314.8" stroke="#bcc3cd" stroke-width="1.1" opacity="0.31" />
  <line x1="454.5" y1="318.9" x2="492.0" y2="296.2" stroke="#bcc3cd" stroke-width="0.9" opacity="0.17" />
  <line x1="454.5" y1="318.9" x2="476.0" y2="322.0" stroke="#bcc3cd" stroke-width="1.0" opacity="0.22" />
  <line x1="454.5" y1="318.9" x2="474.0" y2="310.4" stroke="#bcc3cd" stroke-width="1.0" opacity="0.24" />
  <line x1="454.5" y1="318.9" x2="459.0" y2="307.3" stroke="#bcc3cd" stroke-width="1.0" opacity="0.22" />
  <line x1="454.5" y1="318.9" x2="419.7" y2="306.4" stroke="#bcc3cd" stroke-width="0.9" opacity="0.20" />
  <line x1="454.5" y1="318.9" x2="454.0" y2="287.1" stroke="#bcc3cd" stroke-width="1.0" opacity="0.22" />
  <line x1="454.5" y1="318.9" x2="471.1" y2="352.9" stroke="#bcc3cd" stroke-width="0.9" opacity="0.19" />
  <line x1="454.5" y1="318.9" x2="505.1" y2="336.1" stroke="#bcc3cd" stroke-width="0.9" opacity="0.21" />
  <line x1="454.5" y1="318.9" x2="513.6" y2="328.8" stroke="#bcc3cd" stroke-width="1.0" opacity="0.24" />
  <line x1="454.5" y1="318.9" x2="519.5" y2="314.8" stroke="#bcc3cd" stroke-width="0.9" opacity="0.17" />
  <line x1="508.1" y1="373.3" x2="509.9" y2="361.1" stroke="#bcc3cd" stroke-width="0.9" opacity="0.18" />
  <line x1="508.1" y1="373.3" x2="478.5" y2="369.3" stroke="#bcc3cd" stroke-width="0.9" opacity="0.18" />
  <line x1="508.1" y1="373.3" x2="505.1" y2="336.1" stroke="#bcc3cd" stroke-width="0.9" opacity="0.17" />
  <line x1="508.1" y1="373.3" x2="506.7" y2="350.3" stroke="#bcc3cd" stroke-width="1.3" opacity="0.42" />
  <line x1="508.1" y1="373.3" x2="513.6" y2="328.8" stroke="#bcc3cd" stroke-width="0.9" opacity="0.19" />
  <line x1="508.1" y1="373.3" x2="494.2" y2="357.7" stroke="#bcc3cd" stroke-width="0.9" opacity="0.21" />
  <line x1="421.4" y1="282.4" x2="492.0" y2="296.2" stroke="#bcc3cd" stroke-width="1.1" opacity="0.28" />
  <line x1="421.4" y1="282.4" x2="419.7" y2="306.4" stroke="#bcc3cd" stroke-width="0.9" opacity="0.17" />
  <line x1="421.4" y1="282.4" x2="454.0" y2="287.1" stroke="#bcc3cd" stroke-width="1.2" opacity="0.37" />
  <line x1="492.0" y1="296.2" x2="476.0" y2="322.0" stroke="#bcc3cd" stroke-width="0.9" opacity="0.20" />
  <line x1="492.0" y1="296.2" x2="474.0" y2="310.4" stroke="#bcc3cd" stroke-width="1.0" opacity="0.24" />
  <line x1="492.0" y1="296.2" x2="459.0" y2="307.3" stroke="#bcc3cd" stroke-width="0.9" opacity="0.20" />
  <line x1="492.0" y1="296.2" x2="454.0" y2="287.1" stroke="#bcc3cd" stroke-width="0.9" opacity="0.18" />
  <line x1="492.0" y1="296.2" x2="525.1" y2="301.7" stroke="#bcc3cd" stroke-width="1.5" opacity="0.55" />
  <line x1="492.0" y1="296.2" x2="541.2" y2="298.0" stroke="#bcc3cd" stroke-width="1.2" opacity="0.37" />
  <line x1="492.0" y1="296.2" x2="529.0" y2="313.5" stroke="#bcc3cd" stroke-width="1.0" opacity="0.22" />
  <line x1="492.0" y1="296.2" x2="513.6" y2="328.8" stroke="#bcc3cd" stroke-width="1.0" opacity="0.22" />
  <line x1="492.0" y1="296.2" x2="521.1" y2="291.1" stroke="#bcc3cd" stroke-width="1.2" opacity="0.37" />
  <line x1="492.0" y1="296.2" x2="501.5" y2="306.8" stroke="#bcc3cd" stroke-width="1.1" opacity="0.28" />
  <line x1="492.0" y1="296.2" x2="542.6" y2="289.8" stroke="#bcc3cd" stroke-width="1.2" opacity="0.37" />
  <line x1="492.0" y1="296.2" x2="519.5" y2="314.8" stroke="#bcc3cd" stroke-width="1.2" opacity="0.37" />
  <line x1="581.4" y1="329.6" x2="529.0" y2="313.5" stroke="#bcc3cd" stroke-width="0.9" opacity="0.18" />
  <line x1="581.4" y1="329.6" x2="513.6" y2="328.8" stroke="#bcc3cd" stroke-width="1.1" opacity="0.30" />
  <line x1="581.4" y1="329.6" x2="519.5" y2="314.8" stroke="#bcc3cd" stroke-width="1.0" opacity="0.22" />
  <line x1="476.0" y1="322.0" x2="474.0" y2="310.4" stroke="#bcc3cd" stroke-width="1.1" opacity="0.28" />
  <line x1="476.0" y1="322.0" x2="459.0" y2="307.3" stroke="#bcc3cd" stroke-width="1.0" opacity="0.24" />
  <line x1="476.0" y1="322.0" x2="419.7" y2="306.4" stroke="#bcc3cd" stroke-width="0.9" opacity="0.17" />
  <line x1="476.0" y1="322.0" x2="514.3" y2="343.7" stroke="#bcc3cd" stroke-width="0.9" opacity="0.19" />
  <line x1="476.0" y1="322.0" x2="541.5" y2="343.7" stroke="#bcc3cd" stroke-width="0.9" opacity="0.18" />
  <line x1="476.0" y1="322.0" x2="529.0" y2="313.5" stroke="#bcc3cd" stroke-width="0.9" opacity="0.17" />
  <line x1="476.0" y1="322.0" x2="513.6" y2="328.8" stroke="#bcc3cd" stroke-width="0.9" opacity="0.17" />
  <line x1="476.0" y1="322.0" x2="519.5" y2="314.8" stroke="#bcc3cd" stroke-width="0.9" opacity="0.20" />
  <line x1="474.0" y1="310.4" x2="459.0" y2="307.3" stroke="#bcc3cd" stroke-width="1.1" opacity="0.28" />
  <line x1="474.0" y1="310.4" x2="419.7" y2="306.4" stroke="#bcc3cd" stroke-width="0.9" opacity="0.18" />
  <line x1="474.0" y1="310.4" x2="454.0" y2="287.1" stroke="#bcc3cd" stroke-width="0.9" opacity="0.18" />
  <line x1="474.0" y1="310.4" x2="544.3" y2="317.9" stroke="#bcc3cd" stroke-width="0.9" opacity="0.17" />
  <line x1="474.0" y1="310.4" x2="529.0" y2="313.5" stroke="#bcc3cd" stroke-width="0.9" opacity="0.20" />
  <line x1="474.0" y1="310.4" x2="505.1" y2="336.1" stroke="#bcc3cd" stroke-width="0.9" opacity="0.17" />
  <line x1="474.0" y1="310.4" x2="513.6" y2="328.8" stroke="#bcc3cd" stroke-width="0.9" opacity="0.20" />
  <line x1="474.0" y1="310.4" x2="519.5" y2="314.8" stroke="#bcc3cd" stroke-width="1.0" opacity="0.24" />
  <line x1="459.0" y1="307.3" x2="419.7" y2="306.4" stroke="#bcc3cd" stroke-width="0.9" opacity="0.17" />
  <line x1="459.0" y1="307.3" x2="529.0" y2="313.5" stroke="#bcc3cd" stroke-width="0.9" opacity="0.17" />
  <line x1="459.0" y1="307.3" x2="513.6" y2="328.8" stroke="#bcc3cd" stroke-width="0.9" opacity="0.17" />
  <line x1="459.0" y1="307.3" x2="519.5" y2="314.8" stroke="#bcc3cd" stroke-width="0.9" opacity="0.20" />
  <line x1="484.0" y1="394.0" x2="509.9" y2="361.1" stroke="#bcc3cd" stroke-width="1.0" opacity="0.26" />
  <line x1="484.0" y1="394.0" x2="478.5" y2="369.3" stroke="#bcc3cd" stroke-width="1.1" opacity="0.31" />
  <line x1="484.0" y1="394.0" x2="494.2" y2="357.7" stroke="#bcc3cd" stroke-width="0.9" opacity="0.18" />
  <line x1="454.0" y1="287.1" x2="470.5" y2="266.3" stroke="#bcc3cd" stroke-width="1.0" opacity="0.22" />
  <line x1="454.0" y1="287.1" x2="519.5" y2="314.8" stroke="#bcc3cd" stroke-width="0.9" opacity="0.18" />
  <line x1="628.9" y1="272.0" x2="569.6" y2="291.0" stroke="#bcc3cd" stroke-width="1.3" opacity="0.44" />
  <line x1="628.9" y1="272.0" x2="596.2" y2="267.0" stroke="#bcc3cd" stroke-width="0.9" opacity="0.18" />
  <line x1="569.6" y1="291.0" x2="541.2" y2="298.0" stroke="#bcc3cd" stroke-width="1.1" opacity="0.31" />
  <line x1="569.6" y1="291.0" x2="544.3" y2="317.9" stroke="#bcc3cd" stroke-width="0.9" opacity="0.20" />
  <line x1="569.6" y1="291.0" x2="529.0" y2="313.5" stroke="#bcc3cd" stroke-width="1.0" opacity="0.24" />
  <line x1="569.6" y1="291.0" x2="505.1" y2="336.1" stroke="#bcc3cd" stroke-width="0.9" opacity="0.20" />
  <line x1="569.6" y1="291.0" x2="513.6" y2="328.8" stroke="#bcc3cd" stroke-width="1.0" opacity="0.24" />
  <line x1="569.6" y1="291.0" x2="549.8" y2="329.1" stroke="#bcc3cd" stroke-width="0.9" opacity="0.18" />
  <line x1="569.6" y1="291.0" x2="642.0" y2="216.0" stroke="#bcc3cd" stroke-width="0.9" opacity="0.17" />
  <line x1="569.6" y1="291.0" x2="542.6" y2="289.8" stroke="#bcc3cd" stroke-width="1.1" opacity="0.31" />
  <line x1="569.6" y1="291.0" x2="596.2" y2="267.0" stroke="#bcc3cd" stroke-width="1.1" opacity="0.30" />
  <line x1="569.6" y1="291.0" x2="519.5" y2="314.8" stroke="#bcc3cd" stroke-width="1.1" opacity="0.31" />
  <line x1="557.9" y1="50.0" x2="578.6" y2="57.9" stroke="#bcc3cd" stroke-width="1.6" opacity="0.60" />
  <line x1="362.9" y1="397.6" x2="478.5" y2="369.3" stroke="#bcc3cd" stroke-width="0.9" opacity="0.18" />
  <line x1="362.9" y1="397.6" x2="289.8" y2="398.4" stroke="#bcc3cd" stroke-width="1.1" opacity="0.28" />
  <line x1="478.1" y1="345.5" x2="509.9" y2="361.1" stroke="#bcc3cd" stroke-width="0.9" opacity="0.17" />
  <line x1="478.1" y1="345.5" x2="478.5" y2="369.3" stroke="#bcc3cd" stroke-width="0.9" opacity="0.18" />
  <line x1="478.1" y1="345.5" x2="514.3" y2="343.7" stroke="#bcc3cd" stroke-width="1.0" opacity="0.22" />
  <line x1="478.1" y1="345.5" x2="505.1" y2="336.1" stroke="#bcc3cd" stroke-width="1.1" opacity="0.28" />
  <line x1="478.1" y1="345.5" x2="506.7" y2="350.3" stroke="#bcc3cd" stroke-width="1.1" opacity="0.32" />
  <line x1="478.1" y1="345.5" x2="513.6" y2="328.8" stroke="#bcc3cd" stroke-width="0.9" opacity="0.20" />
  <line x1="478.1" y1="345.5" x2="494.2" y2="357.7" stroke="#bcc3cd" stroke-width="1.0" opacity="0.22" />
  <line x1="478.1" y1="345.5" x2="501.5" y2="306.8" stroke="#bcc3cd" stroke-width="1.0" opacity="0.22" />
  <line x1="509.9" y1="361.1" x2="478.5" y2="369.3" stroke="#bcc3cd" stroke-width="1.3" opacity="0.42" />
  <line x1="509.9" y1="361.1" x2="525.7" y2="369.7" stroke="#bcc3cd" stroke-width="0.9" opacity="0.18" />
  <line x1="509.9" y1="361.1" x2="471.1" y2="352.9" stroke="#bcc3cd" stroke-width="1.1" opacity="0.31" />
  <line x1="509.9" y1="361.1" x2="514.3" y2="343.7" stroke="#bcc3cd" stroke-width="1.1" opacity="0.32" />
  <line x1="509.9" y1="361.1" x2="541.5" y2="343.7" stroke="#bcc3cd" stroke-width="1.0" opacity="0.23" />
  <line x1="509.9" y1="361.1" x2="505.1" y2="336.1" stroke="#bcc3cd" stroke-width="1.2" opacity="0.39" />
  <line x1="509.9" y1="361.1" x2="506.7" y2="350.3" stroke="#bcc3cd" stroke-width="1.0" opacity="0.26" />
  <line x1="509.9" y1="361.1" x2="513.6" y2="328.8" stroke="#bcc3cd" stroke-width="1.2" opacity="0.34" />
  <line x1="509.9" y1="361.1" x2="549.8" y2="329.1" stroke="#bcc3cd" stroke-width="0.9" opacity="0.19" />
  <line x1="509.9" y1="361.1" x2="494.2" y2="357.7" stroke="#bcc3cd" stroke-width="1.0" opacity="0.25" />
  <line x1="509.9" y1="361.1" x2="519.5" y2="314.8" stroke="#bcc3cd" stroke-width="0.9" opacity="0.17" />
  <line x1="478.5" y1="369.3" x2="525.7" y2="369.7" stroke="#bcc3cd" stroke-width="1.1" opacity="0.33" />
  <line x1="478.5" y1="369.3" x2="471.1" y2="352.9" stroke="#bcc3cd" stroke-width="0.9" opacity="0.21" />
  <line x1="478.5" y1="369.3" x2="514.3" y2="343.7" stroke="#bcc3cd" stroke-width="0.9" opacity="0.18" />
  <line x1="478.5" y1="369.3" x2="505.1" y2="336.1" stroke="#bcc3cd" stroke-width="1.3" opacity="0.41" />
  <line x1="478.5" y1="369.3" x2="506.7" y2="350.3" stroke="#bcc3cd" stroke-width="1.0" opacity="0.22" />
  <line x1="478.5" y1="369.3" x2="513.6" y2="328.8" stroke="#bcc3cd" stroke-width="1.1" opacity="0.31" />
  <line x1="478.5" y1="369.3" x2="494.2" y2="357.7" stroke="#bcc3cd" stroke-width="1.7" opacity="0.66" />
  <line x1="525.1" y1="301.7" x2="541.2" y2="298.0" stroke="#bcc3cd" stroke-width="1.5" opacity="0.55" />
  <line x1="525.1" y1="301.7" x2="544.3" y2="317.9" stroke="#bcc3cd" stroke-width="0.9" opacity="0.18" />
  <line x1="525.1" y1="301.7" x2="529.0" y2="313.5" stroke="#bcc3cd" stroke-width="1.1" opacity="0.28" />
  <line x1="525.1" y1="301.7" x2="505.1" y2="336.1" stroke="#bcc3cd" stroke-width="0.9" opacity="0.18" />
  <line x1="525.1" y1="301.7" x2="513.6" y2="328.8" stroke="#bcc3cd" stroke-width="1.1" opacity="0.28" />
  <line x1="525.1" y1="301.7" x2="521.1" y2="291.1" stroke="#bcc3cd" stroke-width="1.5" opacity="0.55" />
  <line x1="525.1" y1="301.7" x2="501.5" y2="306.8" stroke="#bcc3cd" stroke-width="1.2" opacity="0.37" />
  <line x1="525.1" y1="301.7" x2="542.6" y2="289.8" stroke="#bcc3cd" stroke-width="1.5" opacity="0.55" />
  <line x1="525.1" y1="301.7" x2="519.5" y2="314.8" stroke="#bcc3cd" stroke-width="1.5" opacity="0.55" />
  <line x1="541.2" y1="298.0" x2="529.0" y2="313.5" stroke="#bcc3cd" stroke-width="1.0" opacity="0.22" />
  <line x1="541.2" y1="298.0" x2="513.6" y2="328.8" stroke="#bcc3cd" stroke-width="1.0" opacity="0.22" />
  <line x1="541.2" y1="298.0" x2="521.1" y2="291.1" stroke="#bcc3cd" stroke-width="1.2" opacity="0.37" />
  <line x1="541.2" y1="298.0" x2="501.5" y2="306.8" stroke="#bcc3cd" stroke-width="1.1" opacity="0.28" />
  <line x1="541.2" y1="298.0" x2="542.6" y2="289.8" stroke="#bcc3cd" stroke-width="1.2" opacity="0.37" />
  <line x1="541.2" y1="298.0" x2="519.5" y2="314.8" stroke="#bcc3cd" stroke-width="1.2" opacity="0.37" />
  <line x1="525.7" y1="369.7" x2="505.1" y2="336.1" stroke="#bcc3cd" stroke-width="0.9" opacity="0.18" />
  <line x1="525.7" y1="369.7" x2="506.7" y2="350.3" stroke="#bcc3cd" stroke-width="0.9" opacity="0.18" />
  <line x1="525.7" y1="369.7" x2="513.6" y2="328.8" stroke="#bcc3cd" stroke-width="1.0" opacity="0.22" />
  <line x1="525.7" y1="369.7" x2="494.2" y2="357.7" stroke="#bcc3cd" stroke-width="1.3" opacity="0.41" />
  <line x1="471.1" y1="352.9" x2="514.3" y2="343.7" stroke="#bcc3cd" stroke-width="1.1" opacity="0.31" />
  <line x1="471.1" y1="352.9" x2="505.1" y2="336.1" stroke="#bcc3cd" stroke-width="1.4" opacity="0.47" />
  <line x1="471.1" y1="352.9" x2="506.7" y2="350.3" stroke="#bcc3cd" stroke-width="0.9" opacity="0.19" />
  <line x1="471.1" y1="352.9" x2="513.6" y2="328.8" stroke="#bcc3cd" stroke-width="1.0" opacity="0.22" />
  <line x1="514.3" y1="343.7" x2="541.5" y2="343.7" stroke="#bcc3cd" stroke-width="1.1" opacity="0.29" />
  <line x1="514.3" y1="343.7" x2="544.3" y2="317.9" stroke="#bcc3cd" stroke-width="0.9" opacity="0.17" />
  <line x1="514.3" y1="343.7" x2="529.0" y2="313.5" stroke="#bcc3cd" stroke-width="0.9" opacity="0.20" />
  <line x1="514.3" y1="343.7" x2="505.1" y2="336.1" stroke="#bcc3cd" stroke-width="1.3" opacity="0.40" />
  <line x1="514.3" y1="343.7" x2="506.7" y2="350.3" stroke="#bcc3cd" stroke-width="1.0" opacity="0.24" />
  <line x1="514.3" y1="343.7" x2="513.6" y2="328.8" stroke="#bcc3cd" stroke-width="0.9" opacity="0.20" />
  <line x1="514.3" y1="343.7" x2="519.5" y2="314.8" stroke="#bcc3cd" stroke-width="1.0" opacity="0.24" />
  <line x1="541.5" y1="343.7" x2="529.0" y2="313.5" stroke="#bcc3cd" stroke-width="0.9" opacity="0.18" />
  <line x1="541.5" y1="343.7" x2="506.7" y2="350.3" stroke="#bcc3cd" stroke-width="1.0" opacity="0.23" />
  <line x1="541.5" y1="343.7" x2="513.6" y2="328.8" stroke="#bcc3cd" stroke-width="0.9" opacity="0.18" />
  <line x1="541.5" y1="343.7" x2="549.8" y2="329.1" stroke="#bcc3cd" stroke-width="1.0" opacity="0.24" />
  <line x1="541.5" y1="343.7" x2="519.5" y2="314.8" stroke="#bcc3cd" stroke-width="1.0" opacity="0.22" />
  <line x1="544.3" y1="317.9" x2="529.0" y2="313.5" stroke="#bcc3cd" stroke-width="1.1" opacity="0.28" />
  <line x1="544.3" y1="317.9" x2="505.1" y2="336.1" stroke="#bcc3cd" stroke-width="1.0" opacity="0.22" />
  <line x1="544.3" y1="317.9" x2="513.6" y2="328.8" stroke="#bcc3cd" stroke-width="1.1" opacity="0.28" />
  <line x1="544.3" y1="317.9" x2="549.8" y2="329.1" stroke="#bcc3cd" stroke-width="0.9" opacity="0.20" />
  <line x1="544.3" y1="317.9" x2="519.5" y2="314.8" stroke="#bcc3cd" stroke-width="1.2" opacity="0.37" />
  <line x1="529.0" y1="313.5" x2="505.1" y2="336.1" stroke="#bcc3cd" stroke-width="1.1" opacity="0.28" />
  <line x1="529.0" y1="313.5" x2="513.6" y2="328.8" stroke="#bcc3cd" stroke-width="1.2" opacity="0.37" />
  <line x1="529.0" y1="313.5" x2="521.1" y2="291.1" stroke="#bcc3cd" stroke-width="1.0" opacity="0.22" />
  <line x1="529.0" y1="313.5" x2="549.8" y2="329.1" stroke="#bcc3cd" stroke-width="1.0" opacity="0.24" />
  <line x1="529.0" y1="313.5" x2="501.5" y2="306.8" stroke="#bcc3cd" stroke-width="0.9" opacity="0.18" />
  <line x1="529.0" y1="313.5" x2="542.6" y2="289.8" stroke="#bcc3cd" stroke-width="1.0" opacity="0.22" />
  <line x1="529.0" y1="313.5" x2="519.5" y2="314.8" stroke="#bcc3cd" stroke-width="1.5" opacity="0.55" />
  <line x1="505.1" y1="336.1" x2="506.7" y2="350.3" stroke="#bcc3cd" stroke-width="1.1" opacity="0.29" />
  <line x1="505.1" y1="336.1" x2="513.6" y2="328.8" stroke="#bcc3cd" stroke-width="1.4" opacity="0.47" />
  <line x1="505.1" y1="336.1" x2="549.8" y2="329.1" stroke="#bcc3cd" stroke-width="0.9" opacity="0.20" />
  <line x1="505.1" y1="336.1" x2="494.2" y2="357.7" stroke="#bcc3cd" stroke-width="1.1" opacity="0.31" />
  <line x1="505.1" y1="336.1" x2="501.5" y2="306.8" stroke="#bcc3cd" stroke-width="1.1" opacity="0.31" />
  <line x1="505.1" y1="336.1" x2="519.5" y2="314.8" stroke="#bcc3cd" stroke-width="1.2" opacity="0.37" />
  <line x1="506.7" y1="350.3" x2="513.6" y2="328.8" stroke="#bcc3cd" stroke-width="1.2" opacity="0.34" />
  <line x1="506.7" y1="350.3" x2="494.2" y2="357.7" stroke="#bcc3cd" stroke-width="1.0" opacity="0.25" />
  <line x1="506.7" y1="350.3" x2="501.5" y2="306.8" stroke="#bcc3cd" stroke-width="1.0" opacity="0.25" />
  <line x1="506.7" y1="350.3" x2="519.5" y2="314.8" stroke="#bcc3cd" stroke-width="0.9" opacity="0.17" />
  <line x1="513.6" y1="328.8" x2="521.1" y2="291.1" stroke="#bcc3cd" stroke-width="1.0" opacity="0.22" />
  <line x1="513.6" y1="328.8" x2="549.8" y2="329.1" stroke="#bcc3cd" stroke-width="1.0" opacity="0.24" />
  <line x1="513.6" y1="328.8" x2="494.2" y2="357.7" stroke="#bcc3cd" stroke-width="1.3" opacity="0.44" />
  <line x1="513.6" y1="328.8" x2="501.5" y2="306.8" stroke="#bcc3cd" stroke-width="1.3" opacity="0.44" />
  <line x1="513.6" y1="328.8" x2="542.6" y2="289.8" stroke="#bcc3cd" stroke-width="1.0" opacity="0.22" />
  <line x1="513.6" y1="328.8" x2="519.5" y2="314.8" stroke="#bcc3cd" stroke-width="1.5" opacity="0.55" />
  <line x1="236.3" y1="116.3" x2="204.9" y2="126.0" stroke="#bcc3cd" stroke-width="1.0" opacity="0.22" />
  <line x1="626.9" y1="319.8" x2="519.5" y2="314.8" stroke="#bcc3cd" stroke-width="1.0" opacity="0.22" />
  <line x1="521.1" y1="291.1" x2="501.5" y2="306.8" stroke="#bcc3cd" stroke-width="1.1" opacity="0.28" />
  <line x1="521.1" y1="291.1" x2="542.6" y2="289.8" stroke="#bcc3cd" stroke-width="1.2" opacity="0.37" />
  <line x1="521.1" y1="291.1" x2="519.5" y2="314.8" stroke="#bcc3cd" stroke-width="1.2" opacity="0.37" />
  <line x1="673.1" y1="188.7" x2="660.6" y2="176.0" stroke="#bcc3cd" stroke-width="1.5" opacity="0.55" />
  <line x1="673.1" y1="188.7" x2="642.0" y2="216.0" stroke="#bcc3cd" stroke-width="1.3" opacity="0.41" />
  <line x1="660.6" y1="176.0" x2="642.0" y2="216.0" stroke="#bcc3cd" stroke-width="1.0" opacity="0.24" />
  <line x1="549.8" y1="329.1" x2="519.5" y2="314.8" stroke="#bcc3cd" stroke-width="1.1" opacity="0.31" />
  <line x1="494.2" y1="357.7" x2="501.5" y2="306.8" stroke="#bcc3cd" stroke-width="1.0" opacity="0.22" />
  <line x1="501.5" y1="306.8" x2="470.5" y2="266.3" stroke="#bcc3cd" stroke-width="1.2" opacity="0.37" />
  <line x1="501.5" y1="306.8" x2="470.4" y2="249.3" stroke="#bcc3cd" stroke-width="0.9" opacity="0.18" />
  <line x1="501.5" y1="306.8" x2="542.6" y2="289.8" stroke="#bcc3cd" stroke-width="1.1" opacity="0.28" />
  <line x1="501.5" y1="306.8" x2="519.5" y2="314.8" stroke="#bcc3cd" stroke-width="1.1" opacity="0.28" />
  <line x1="470.5" y1="266.3" x2="470.4" y2="249.3" stroke="#bcc3cd" stroke-width="1.1" opacity="0.28" />
  <line x1="542.6" y1="289.8" x2="596.2" y2="267.0" stroke="#bcc3cd" stroke-width="1.1" opacity="0.31" />
  <line x1="542.6" y1="289.8" x2="519.5" y2="314.8" stroke="#bcc3cd" stroke-width="1.2" opacity="0.37" />
  <circle cx="443.6" cy="296.6" r="7.7" fill="#3498db" opacity="0.88" />
  <circle cx="496.6" cy="406.2" r="16" fill="#3498db" opacity="0.88" />
  <circle cx="488.5" cy="309.0" r="10.4" fill="#e67e22" opacity="0.88" />
  <circle cx="454.5" cy="318.9" r="15.8" fill="#7f8c8d" opacity="0.88" />
  <circle cx="508.1" cy="373.3" r="16" fill="#9b59b6" opacity="0.88" />
  <circle cx="421.4" cy="282.4" r="6.8" fill="#3498db" opacity="0.88" />
  <circle cx="492.0" cy="296.2" r="5.9" fill="#3498db" opacity="0.88" />
  <circle cx="581.4" cy="329.6" r="13.1" fill="#e67e22" opacity="0.88" />
  <circle cx="476.0" cy="322.0" r="14.0" fill="#3498db" opacity="0.88" />
  <circle cx="474.0" cy="310.4" r="12.2" fill="#3498db" opacity="0.88" />
  <circle cx="459.0" cy="307.3" r="14.0" fill="#3498db" opacity="0.88" />
  <circle cx="419.7" cy="306.4" r="16" fill="#e74c3c" opacity="0.88" />
  <circle cx="484.0" cy="394.0" r="16" fill="#e74c3c" opacity="0.88" />
  <circle cx="454.0" cy="287.1" r="8.6" fill="#2ecc71" opacity="0.88" />
  <circle cx="628.9" cy="272.0" r="10.4" fill="#e74c3c" opacity="0.88" />
  <circle cx="812.0" cy="124.2" r="12.2" fill="#3498db" opacity="0.88" />
  <circle cx="569.6" cy="291.0" r="10.4" fill="#e74c3c" opacity="0.88" />
  <circle cx="910.0" cy="337.2" r="5" fill="#3498db" opacity="0.88" />
  <circle cx="557.9" cy="50.0" r="12.2" fill="#3498db" opacity="0.88" />
  <circle cx="578.6" cy="57.9" r="11.3" fill="#3498db" opacity="0.88" />
  <circle cx="362.9" cy="397.6" r="5.9" fill="#3498db" opacity="0.88" />
  <circle cx="478.1" cy="345.5" r="12.2" fill="#9b59b6" opacity="0.88" />
  <circle cx="509.9" cy="361.1" r="15.8" fill="#9b59b6" opacity="0.88" />
  <circle cx="478.5" cy="369.3" r="8.6" fill="#9b59b6" opacity="0.88" />
  <circle cx="525.1" cy="301.7" r="5" fill="#2ecc71" opacity="0.88" />
  <circle cx="541.2" cy="298.0" r="5.9" fill="#7f8c8d" opacity="0.88" />
  <circle cx="525.7" cy="369.7" r="11.3" fill="#e67e22" opacity="0.88" />
  <circle cx="471.1" cy="352.9" r="16" fill="#2ecc71" opacity="0.88" />
  <circle cx="289.8" cy="398.4" r="6.8" fill="#9b59b6" opacity="0.88" />
  <circle cx="50.0" cy="201.6" r="5" fill="#7f8c8d" opacity="0.88" />
  <circle cx="514.3" cy="343.7" r="12.2" fill="#3498db" opacity="0.88" />
  <circle cx="541.5" cy="343.7" r="13.1" fill="#7f8c8d" opacity="0.88" />
  <circle cx="544.3" cy="317.9" r="9.5" fill="#7f8c8d" opacity="0.88" />
  <circle cx="165.9" cy="449.8" r="5" fill="#7f8c8d" opacity="0.88" />
  <circle cx="529.0" cy="313.5" r="7.7" fill="#7f8c8d" opacity="0.88" />
  <circle cx="505.1" cy="336.1" r="9.5" fill="#7f8c8d" opacity="0.88" />
  <circle cx="506.7" cy="350.3" r="15.8" fill="#2ecc71" opacity="0.88" />
  <circle cx="513.6" cy="328.8" r="7.7" fill="#7f8c8d" opacity="0.88" />
  <circle cx="236.3" cy="116.3" r="7.7" fill="#7f8c8d" opacity="0.88" />
  <circle cx="626.9" cy="319.8" r="7.7" fill="#3498db" opacity="0.88" />
  <circle cx="521.1" cy="291.1" r="5.9" fill="#7f8c8d" opacity="0.88" />
  <circle cx="673.1" cy="188.7" r="6.8" fill="#e67e22" opacity="0.88" />
  <circle cx="660.6" cy="176.0" r="6.8" fill="#e67e22" opacity="0.88" />
  <circle cx="549.8" cy="329.1" r="10.4" fill="#7f8c8d" opacity="0.88" />
  <circle cx="642.0" cy="216.0" r="11.3" fill="#e67e22" opacity="0.88" />
  <circle cx="204.9" cy="126.0" r="5.9" fill="#7f8c8d" opacity="0.88" />
  <circle cx="494.2" cy="357.7" r="6.8" fill="#7f8c8d" opacity="0.88" />
  <circle cx="501.5" cy="306.8" r="6.8" fill="#7f8c8d" opacity="0.88" />
  <circle cx="470.5" cy="266.3" r="5" fill="#2ecc71" opacity="0.88" />
  <circle cx="470.4" cy="249.3" r="7.7" fill="#2ecc71" opacity="0.88" />
  <circle cx="542.6" cy="289.8" r="5.9" fill="#e74c3c" opacity="0.88" />
  <circle cx="596.2" cy="267.0" r="10.4" fill="#e74c3c" opacity="0.88" />
  <circle cx="519.5" cy="314.8" r="5.9" fill="#7f8c8d" opacity="0.88" />
  <circle cx="322.7" cy="500.0" r="5" fill="#7f8c8d" opacity="0.88" />
  <rect x="453.3" y="279.6" width="16.4" height="15" fill="#ffffff" opacity="0.75" rx="2" />
  <text x="454.3" y="290.6" font-family="system-ui, -apple-system, sans-serif" font-size="12" fill="#1f2328" text-anchor="start">pp</text>
  <rect x="514.6" y="490.4" width="117.2" height="15" fill="#ffffff" opacity="0.75" rx="2" />
  <text x="515.6" y="501.4" font-family="system-ui, -apple-system, sans-serif" font-size="12" fill="#1f2328" text-anchor="start">GloriousFlywheel</text>
  <rect x="500.9" y="313.2" width="45.2" height="15" fill="#ffffff" opacity="0.75" rx="2" />
  <text x="501.9" y="324.2" font-family="system-ui, -apple-system, sans-serif" font-size="12" fill="#1f2328" text-anchor="start">XoxdWM</text>
  <rect x="472.3" y="248.1" width="124.4" height="15" fill="#ffffff" opacity="0.75" rx="2" />
  <text x="473.3" y="259.1" font-family="system-ui, -apple-system, sans-serif" font-size="12" fill="#1f2328" text-anchor="start">tinyland-huskycat</text>
  <rect x="526.1" y="216.4" width="95.6" height="15" fill="#ffffff" opacity="0.75" rx="2" />
  <text x="527.1" y="227.4" font-family="system-ui, -apple-system, sans-serif" font-size="12" fill="#1f2328" text-anchor="start">GIS_Shortcuts</text>
  <rect x="430.2" y="321.7" width="117.2" height="15" fill="#ffffff" opacity="0.75" rx="2" />
  <text x="431.2" y="332.7" font-family="system-ui, -apple-system, sans-serif" font-size="12" fill="#1f2328" text-anchor="start">tinyland-cleanup</text>
  <rect x="499.9" y="300.7" width="95.6" height="15" fill="#ffffff" opacity="0.75" rx="2" />
  <text x="500.9" y="311.7" font-family="system-ui, -apple-system, sans-serif" font-size="12" fill="#1f2328" text-anchor="start">tinyland-kdbx</text>
  <rect x="596.5" y="419.4" width="110.0" height="15" fill="#ffffff" opacity="0.75" rx="2" />
  <text x="597.5" y="430.4" font-family="system-ui, -apple-system, sans-serif" font-size="12" fill="#1f2328" text-anchor="start">hiberpower-ntfs</text>
  <rect x="492.0" y="220.8" width="138.8" height="15" fill="#ffffff" opacity="0.75" rx="2" />
  <text x="493.0" y="231.8" font-family="system-ui, -apple-system, sans-serif" font-size="12" fill="#1f2328" text-anchor="start">Ansible-DAG-Harness</text>
  <rect x="488.2" y="418.9" width="66.8" height="15" fill="#ffffff" opacity="0.75" rx="2" />
  <text x="489.2" y="429.9" font-family="system-ui, -apple-system, sans-serif" font-size="12" fill="#1f2328" text-anchor="start">betterkvm</text>
  <rect x="475.0" y="281.8" width="95.6" height="15" fill="#ffffff" opacity="0.75" rx="2" />
  <text x="476.0" y="292.8" font-family="system-ui, -apple-system, sans-serif" font-size="12" fill="#1f2328" text-anchor="start">DarwinNicUtil</text>
  <rect x="437.7" y="373.2" width="95.6" height="15" fill="#ffffff" opacity="0.75" rx="2" />
  <text x="438.7" y="384.2" font-family="system-ui, -apple-system, sans-serif" font-size="12" fill="#1f2328" text-anchor="start">RemoteJuggler</text>
  <rect x="502.0" y="444.3" width="131.6" height="15" fill="#ffffff" opacity="0.75" rx="2" />
  <text x="503.0" y="455.3" font-family="system-ui, -apple-system, sans-serif" font-size="12" fill="#1f2328" text-anchor="start">pixelwise-research</text>
  <rect x="464.6" y="211.9" width="59.6" height="15" fill="#ffffff" opacity="0.75" rx="2" />
  <text x="465.6" y="222.9" font-family="system-ui, -apple-system, sans-serif" font-size="12" fill="#1f2328" text-anchor="start">gnucashr</text>
  <rect x="641.3" y="298.2" width="66.8" height="15" fill="#ffffff" opacity="0.75" rx="2" />
  <text x="642.3" y="309.2" font-family="system-ui, -apple-system, sans-serif" font-size="12" fill="#1f2328" text-anchor="start">quickchpl</text>
  <rect x="666.2" y="117.4" width="131.6" height="15" fill="#ffffff" opacity="0.75" rx="2" />
  <text x="796.8" y="128.4" font-family="system-ui, -apple-system, sans-serif" font-size="12" fill="#1f2328" text-anchor="end">tinyscale-mikrotik</text>
  <rect x="582.0" y="282.5" width="59.6" height="15" fill="#ffffff" opacity="0.75" rx="2" />
  <text x="583.0" y="293.5" font-family="system-ui, -apple-system, sans-serif" font-size="12" fill="#1f2328" text-anchor="start">aoc-2025</text>
  <rect x="829.0" y="330.4" width="74.0" height="15" fill="#ffffff" opacity="0.75" rx="2" />
  <text x="902.0" y="341.4" font-family="system-ui, -apple-system, sans-serif" font-size="12" fill="#1f2328" text-anchor="end">tinywaffle</text>
  <rect x="572.1" y="38.6" width="66.8" height="15" fill="#ffffff" opacity="0.75" rx="2" />
  <text x="573.1" y="49.6" font-family="system-ui, -apple-system, sans-serif" font-size="12" fill="#1f2328" text-anchor="start">searchies</text>
  <rect x="591.9" y="55.6" width="59.6" height="15" fill="#ffffff" opacity="0.75" rx="2" />
  <text x="592.9" y="66.6" font-family="system-ui, -apple-system, sans-serif" font-size="12" fill="#1f2328" text-anchor="start">ts-caddy</text>
  <rect x="370.8" y="382.7" width="66.8" height="15" fill="#ffffff" opacity="0.75" rx="2" />
  <text x="371.8" y="393.7" font-family="system-ui, -apple-system, sans-serif" font-size="12" fill="#1f2328" text-anchor="start">HCI-notes</text>
  <rect x="492.3" y="360.9" width="88.4" height="15" fill="#ffffff" opacity="0.75" rx="2" />
  <text x="493.3" y="371.9" font-family="system-ui, -apple-system, sans-serif" font-size="12" fill="#1f2328" text-anchor="start">FastPhotoAPI</text>
  <rect x="527.7" y="188.0" width="81.2" height="15" fill="#ffffff" opacity="0.75" rx="2" />
  <text x="528.7" y="199.0" font-family="system-ui, -apple-system, sans-serif" font-size="12" fill="#1f2328" text-anchor="start">timberbuddy</text>
  <rect x="489.1" y="429.8" width="81.2" height="15" fill="#ffffff" opacity="0.75" rx="2" />
  <text x="490.1" y="440.8" font-family="system-ui, -apple-system, sans-serif" font-size="12" fill="#1f2328" text-anchor="start">tetrahedron</text>
  <rect x="532.1" y="295.7" width="95.6" height="15" fill="#ffffff" opacity="0.75" rx="2" />
  <text x="533.1" y="306.7" font-family="system-ui, -apple-system, sans-serif" font-size="12" fill="#1f2328" text-anchor="start">AccuWixReport</text>
  <rect x="549.1" y="162.5" width="95.6" height="15" fill="#ffffff" opacity="0.75" rx="2" />
  <text x="550.1" y="173.5" font-family="system-ui, -apple-system, sans-serif" font-size="12" fill="#1f2328" text-anchor="start">Jess-AOC-2023</text>
  <rect x="539.0" y="377.7" width="81.2" height="15" fill="#ffffff" opacity="0.75" rx="2" />
  <text x="540.0" y="388.7" font-family="system-ui, -apple-system, sans-serif" font-size="12" fill="#1f2328" text-anchor="start">TurkeyProbe</text>
  <rect x="489.1" y="250.3" width="153.2" height="15" fill="#ffffff" opacity="0.75" rx="2" />
  <text x="490.1" y="261.3" font-family="system-ui, -apple-system, sans-serif" font-size="12" fill="#1f2328" text-anchor="start">MerlinAI-Interpreters</text>
  <rect x="298.6" y="399.7" width="110.0" height="15" fill="#ffffff" opacity="0.75" rx="2" />
  <text x="299.6" y="410.7" font-family="system-ui, -apple-system, sans-serif" font-size="12" fill="#1f2328" text-anchor="start">IntroTypeScript</text>
  <rect x="57.0" y="194.8" width="110.0" height="15" fill="#ffffff" opacity="0.75" rx="2" />
  <text x="58.0" y="205.8" font-family="system-ui, -apple-system, sans-serif" font-size="12" fill="#1f2328" text-anchor="start">IG-3DP-Profiles</text>
  <rect x="528.5" y="475.8" width="66.8" height="15" fill="#ffffff" opacity="0.75" rx="2" />
  <text x="529.5" y="486.8" font-family="system-ui, -apple-system, sans-serif" font-size="12" fill="#1f2328" text-anchor="start">DLA-Flask</text>
  <rect x="556.6" y="417.3" width="38.0" height="15" fill="#ffffff" opacity="0.75" rx="2" />
  <text x="557.6" y="428.3" font-family="system-ui, -apple-system, sans-serif" font-size="12" fill="#1f2328" text-anchor="start">USBoN</text>
  <rect x="555.8" y="179.3" width="203.6" height="15" fill="#ffffff" opacity="0.75" rx="2" />
  <text x="556.8" y="190.3" font-family="system-ui, -apple-system, sans-serif" font-size="12" fill="#1f2328" text-anchor="start">chrome-remote-desktop-budgie</text>
  <rect x="172.9" y="443.0" width="124.4" height="15" fill="#ffffff" opacity="0.75" rx="2" />
  <text x="173.9" y="454.0" font-family="system-ui, -apple-system, sans-serif" font-size="12" fill="#1f2328" text-anchor="start">OminousBeepingApp</text>
  <rect x="538.7" y="365.3" width="138.8" height="15" fill="#ffffff" opacity="0.75" rx="2" />
  <text x="539.7" y="376.3" font-family="system-ui, -apple-system, sans-serif" font-size="12" fill="#1f2328" text-anchor="start">mo-image-identifier</text>
  <rect x="516.6" y="406.0" width="196.4" height="15" fill="#ffffff" opacity="0.75" rx="2" />
  <text x="517.6" y="417.0" font-family="system-ui, -apple-system, sans-serif" font-size="12" fill="#1f2328" text-anchor="start">squirrel-leaflet-annotation</text>
  <rect x="524.5" y="334.9" width="74.0" height="15" fill="#ffffff" opacity="0.75" rx="2" />
  <text x="525.5" y="345.9" font-family="system-ui, -apple-system, sans-serif" font-size="12" fill="#1f2328" text-anchor="start">Shiny-Apps</text>
  <rect x="523.3" y="458.8" width="138.8" height="15" fill="#ffffff" opacity="0.75" rx="2" />
  <text x="524.3" y="469.8" font-family="system-ui, -apple-system, sans-serif" font-size="12" fill="#1f2328" text-anchor="start">bbox-jest-puppeteer</text>
  <rect x="246.0" y="105.9" width="88.4" height="15" fill="#ffffff" opacity="0.75" rx="2" />
  <text x="247.0" y="116.9" font-family="system-ui, -apple-system, sans-serif" font-size="12" fill="#1f2328" text-anchor="start">DoverDisplay</text>
  <rect x="636.6" y="330.5" width="81.2" height="15" fill="#ffffff" opacity="0.75" rx="2" />
  <text x="637.6" y="341.5" font-family="system-ui, -apple-system, sans-serif" font-size="12" fill="#1f2328" text-anchor="start">LeafletSync</text>
  <rect x="529.0" y="205.0" width="167.6" height="15" fill="#ffffff" opacity="0.75" rx="2" />
  <text x="530.0" y="216.0" font-family="system-ui, -apple-system, sans-serif" font-size="12" fill="#1f2328" text-anchor="start">misc-roi-distance-notes</text>
  <rect x="681.9" y="147.8" width="138.8" height="15" fill="#ffffff" opacity="0.75" rx="2" />
  <text x="682.9" y="158.8" font-family="system-ui, -apple-system, sans-serif" font-size="12" fill="#1f2328" text-anchor="start">Arduino_Coil_Winder</text>
  <rect x="669.4" y="135.9" width="30.8" height="15" fill="#ffffff" opacity="0.75" rx="2" />
  <text x="670.4" y="146.9" font-family="system-ui, -apple-system, sans-serif" font-size="12" fill="#1f2328" text-anchor="start">momo</text>
  <rect x="562.2" y="330.3" width="38.0" height="15" fill="#ffffff" opacity="0.75" rx="2" />
  <text x="563.2" y="341.3" font-family="system-ui, -apple-system, sans-serif" font-size="12" fill="#1f2328" text-anchor="start">clipi</text>
  <rect x="655.3" y="164.8" width="110.0" height="15" fill="#ffffff" opacity="0.75" rx="2" />
  <text x="656.3" y="175.8" font-family="system-ui, -apple-system, sans-serif" font-size="12" fill="#1f2328" text-anchor="start">AeroTaz5_hotfix</text>
  <rect x="212.8" y="122.9" width="110.0" height="15" fill="#ffffff" opacity="0.75" rx="2" />
  <text x="213.8" y="133.9" font-family="system-ui, -apple-system, sans-serif" font-size="12" fill="#1f2328" text-anchor="start">Funmat-HT-Notes</text>
  <rect x="503.0" y="269.0" width="81.2" height="15" fill="#ffffff" opacity="0.75" rx="2" />
  <text x="504.0" y="280.0" font-family="system-ui, -apple-system, sans-serif" font-size="12" fill="#1f2328" text-anchor="start">static-site</text>
  <rect x="510.3" y="351.9" width="95.6" height="15" fill="#ffffff" opacity="0.75" rx="2" />
  <text x="511.3" y="362.9" font-family="system-ui, -apple-system, sans-serif" font-size="12" fill="#1f2328" text-anchor="start">Flask-Manager</text>
  <rect x="477.5" y="237.8" width="110.0" height="15" fill="#ffffff" opacity="0.75" rx="2" />
  <text x="478.5" y="248.8" font-family="system-ui, -apple-system, sans-serif" font-size="12" fill="#1f2328" text-anchor="start">FieldProcessing</text>
  <rect x="480.1" y="148.0" width="81.2" height="15" fill="#ffffff" opacity="0.75" rx="2" />
  <text x="481.1" y="159.0" font-family="system-ui, -apple-system, sans-serif" font-size="12" fill="#1f2328" text-anchor="start">rJDKmanager</text>
  <rect x="550.5" y="313.3" width="59.6" height="15" fill="#ffffff" opacity="0.75" rx="2" />
  <text x="551.5" y="324.3" font-family="system-ui, -apple-system, sans-serif" font-size="12" fill="#1f2328" text-anchor="start">tagnotes</text>
  <rect x="608.6" y="267.3" width="81.2" height="15" fill="#ffffff" opacity="0.75" rx="2" />
  <text x="609.6" y="278.3" font-family="system-ui, -apple-system, sans-serif" font-size="12" fill="#1f2328" text-anchor="start">ChapelTests</text>
  <rect x="527.4" y="389.0" width="88.4" height="15" fill="#ffffff" opacity="0.75" rx="2" />
  <text x="528.4" y="400.0" font-family="system-ui, -apple-system, sans-serif" font-size="12" fill="#1f2328" text-anchor="start">Xfinity-WiFi</text>
  <rect x="329.7" y="493.2" width="66.8" height="15" fill="#ffffff" opacity="0.75" rx="2" />
  <text x="330.7" y="504.2" font-family="system-ui, -apple-system, sans-serif" font-size="12" fill="#1f2328" text-anchor="start">home-wiki</text>
  <rect x="793" y="36" width="155" height="120" rx="6" fill="#f6f8fa" stroke="#d0d7de" stroke-width="1" opacity="0.95" />
  <circle cx="810" cy="52" r="5" fill="#e74c3c" opacity="0.88" />
  <text x="820" y="56" font-family="system-ui, -apple-system, sans-serif" font-size="10" fill="#1f2328">Languages &amp; Compilers</text>
  <circle cx="810" cy="69" r="5" fill="#3498db" opacity="0.88" />
  <text x="820" y="73" font-family="system-ui, -apple-system, sans-serif" font-size="10" fill="#1f2328">Infrastructure &amp; DevOps</text>
  <circle cx="810" cy="86" r="5" fill="#e67e22" opacity="0.88" />
  <text x="820" y="90" font-family="system-ui, -apple-system, sans-serif" font-size="10" fill="#1f2328">Hardware &amp; Maker</text>
  <circle cx="810" cy="103" r="5" fill="#2ecc71" opacity="0.88" />
  <text x="820" y="107" font-family="system-ui, -apple-system, sans-serif" font-size="10" fill="#1f2328">ML &amp; Data</text>
  <circle cx="810" cy="120" r="5" fill="#9b59b6" opacity="0.88" />
  <text x="820" y="124" font-family="system-ui, -apple-system, sans-serif" font-size="10" fill="#1f2328">Web &amp; Apps</text>
  <circle cx="810" cy="137" r="5" fill="#7f8c8d" opacity="0.88" />
  <text x="820" y="141" font-family="system-ui, -apple-system, sans-serif" font-size="10" fill="#1f2328">Other</text>
  <text x="870" y="150" font-family="system-ui, -apple-system, sans-serif" font-size="8" fill="#656d76" text-anchor="middle">54 repos · 207 edges</text>
</svg>