<svg xmlns="http://www.w3.org/2000/svg" width="960" height="600" viewBox="0 0 960 600">
  <rect width="960" height="600" fill="#ffffff" rx="8" />
  <text x="480" y="24" font-family="system-ui, -apple-system, sans-serif" font-size="13" fill="#656d76" text-anchor="middle" font-weight="500">Repo Relationship Graph &#x2014; Pairwise Topic &amp; Language Similarity</text>
  <line x1="50" y1="550" x2="910" y2="550" stroke="#d0d7de" stroke-width="0.5" opacity="0.5" />
  <text x="50" y="570" font-family="system-ui, -apple-system, sans-serif" font-size="9" fill="#656d76" opacity="0.6">Updated daily by GitHub Actions</text>
  <text x="50" y="588" font-family="system-ui, -apple-system, sans-serif" font-size="9" fill="#656d76" opacity="0.6">networkx spring_layout · Jaccard similarity &gt; 0.15</text>
  <text x="910" y="570" font-family="system-ui, -apple-system, sans-serif" font-size="9" fill="#656d76" text-anchor="end" opacity="0.6">57 repos · 238 edges</text>
  <line x1="575.1" y1="304.6" x2="521.4" y2="304.4" stroke="#bcc3cd" stroke-width="1.0" opacity="0.22" />
  <line x1="575.1" y1="304.6" x2="558.4" y2="264.0" stroke="#bcc3cd" stroke-width="0.9" opacity="0.18" />
  <line x1="575.1" y1="304.6" x2="532.0" y2="273.2" stroke="#bcc3cd" stroke-width="1.0" opacity="0.23" />
  <line x1="575.1" y1="304.6" x2="544.1" y2="281.5" stroke="#bcc3cd" stroke-width="0.9" opacity="0.20" />
  <line x1="575.1" y1="304.6" x2="523.7" y2="280.9" stroke="#bcc3cd" stroke-width="0.9" opacity="0.18" />
  <line x1="499.6" y1="349.7" x2="521.4" y2="304.4" stroke="#bcc3cd" stroke-width="1.1" opacity="0.28" />
  <line x1="499.6" y1="349.7" x2="505.3" y2="320.3" stroke="#bcc3cd" stroke-width="1.1" opacity="0.31" />
  <line x1="521.4" y1="304.4" x2="560.4" y2="298.2" stroke="#bcc3cd" stroke-width="1.0" opacity="0.25" />
  <line x1="521.4" y1="304.4" x2="558.4" y2="264.0" stroke="#bcc3cd" stroke-width="0.9" opacity="0.21" />
  <line x1="521.4" y1="304.4" x2="532.0" y2="273.2" stroke="#bcc3cd" stroke-width="0.9" opacity="0.20" />
  <line x1="521.4" y1="304.4" x2="544.1" y2="281.5" stroke="#bcc3cd" stroke-width="1.0" opacity="0.24" />
  <line x1="521.4" y1="304.4" x2="505.3" y2="320.3" stroke="#bcc3cd" stroke-width="2.0" opacity="0.80" />
  <line x1="521.4" y1="304.4" x2="479.7" y2="275.5" stroke="#bcc3cd" stroke-width="1.0" opacity="0.22" />
  <line x1="521.4" y1="304.4" x2="517.6" y2="268.0" stroke="#bcc3cd" stroke-width="0.9" opacity="0.17" />
  <line x1="521.4" y1="304.4" x2="523.7" y2="280.9" stroke="#bcc3cd" stroke-width="0.9" opacity="0.20" />
  <line x1="521.4" y1="304.4" x2="516.9" y2="288.4" stroke="#bcc3cd" stroke-width="0.9" opacity="0.17" />
  <line x1="521.4" y1="304.4" x2="498.3" y2="290.1" stroke="#bcc3cd" stroke-width="1.5" opacity="0.55" />
  <line x1="521.4" y1="304.4" x2="485.4" y2="264.8" stroke="#bcc3cd" stroke-width="1.0" opacity="0.22" />
  <line x1="655.0" y1="221.0" x2="684.0" y2="215.1" stroke="#bcc3cd" stroke-width="1.5" opacity="0.55" />
  <line x1="655.0" y1="221.0" x2="582.7" y2="233.5" stroke="#bcc3cd" stroke-width="1.0" opacity="0.22" />
  <line x1="655.0" y1="221.0" x2="722.7" y2="214.2" stroke="#bcc3cd" stroke-width="1.2" opacity="0.37" />
  <line x1="655.0" y1="221.0" x2="532.3" y2="245.9" stroke="#bcc3cd" stroke-width="0.9" opacity="0.18" />
  <line x1="560.4" y1="298.2" x2="598.4" y2="270.5" stroke="#bcc3cd" stroke-width="1.2" opacity="0.38" />
  <line x1="560.4" y1="298.2" x2="558.4" y2="264.0" stroke="#bcc3cd" stroke-width="0.9" opacity="0.19" />
  <line x1="560.4" y1="298.2" x2="532.0" y2="273.2" stroke="#bcc3cd" stroke-width="0.9" opacity="0.18" />
  <line x1="560.4" y1="298.2" x2="544.1" y2="281.5" stroke="#bcc3cd" stroke-width="0.9" opacity="0.21" />
  <line x1="560.4" y1="298.2" x2="505.3" y2="320.3" stroke="#bcc3cd" stroke-width="0.9" opacity="0.17" />
  <line x1="560.4" y1="298.2" x2="523.7" y2="280.9" stroke="#bcc3cd" stroke-width="0.9" opacity="0.18" />
  <line x1="560.4" y1="298.2" x2="498.3" y2="290.1" stroke="#bcc3cd" stroke-width="1.0" opacity="0.24" />
  <line x1="598.4" y1="270.5" x2="558.4" y2="264.0" stroke="#bcc3cd" stroke-width="1.2" opacity="0.34" />
  <line x1="598.4" y1="270.5" x2="532.0" y2="273.2" stroke="#bcc3cd" stroke-width="0.9" opacity="0.18" />
  <line x1="598.4" y1="270.5" x2="611.4" y2="246.9" stroke="#bcc3cd" stroke-width="1.0" opacity="0.25" />
  <line x1="598.4" y1="270.5" x2="553.8" y2="240.9" stroke="#bcc3cd" stroke-width="0.9" opacity="0.20" />
  <line x1="598.4" y1="270.5" x2="582.7" y2="233.5" stroke="#bcc3cd" stroke-width="1.0" opacity="0.22" />
  <line x1="558.4" y1="264.0" x2="532.0" y2="273.2" stroke="#bcc3cd" stroke-width="1.1" opacity="0.29" />
  <line x1="558.4" y1="264.0" x2="611.4" y2="246.9" stroke="#bcc3cd" stroke-width="1.2" opacity="0.34" />
  <line x1="558.4" y1="264.0" x2="544.1" y2="281.5" stroke="#bcc3cd" stroke-width="1.1" opacity="0.30" />
  <line x1="558.4" y1="264.0" x2="517.6" y2="268.0" stroke="#bcc3cd" stroke-width="0.9" opacity="0.20" />
  <line x1="558.4" y1="264.0" x2="523.7" y2="280.9" stroke="#bcc3cd" stroke-width="1.0" opacity="0.22" />
  <line x1="558.4" y1="264.0" x2="516.9" y2="288.4" stroke="#bcc3cd" stroke-width="0.9" opacity="0.20" />
  <line x1="558.4" y1="264.0" x2="498.3" y2="290.1" stroke="#bcc3cd" stroke-width="0.9" opacity="0.19" />
  <line x1="558.4" y1="264.0" x2="553.8" y2="240.9" stroke="#bcc3cd" stroke-width="1.2" opacity="0.37" />
  <line x1="558.4" y1="264.0" x2="582.7" y2="233.5" stroke="#bcc3cd" stroke-width="1.2" opacity="0.37" />
  <line x1="558.4" y1="264.0" x2="569.9" y2="248.8" stroke="#bcc3cd" stroke-width="1.1" opacity="0.29" />
  <line x1="558.4" y1="264.0" x2="526.8" y2="238.9" stroke="#bcc3cd" stroke-width="1.0" opacity="0.22" />
  <line x1="558.4" y1="264.0" x2="532.3" y2="245.9" stroke="#bcc3cd" stroke-width="1.2" opacity="0.34" />
  <line x1="558.4" y1="264.0" x2="536.6" y2="230.8" stroke="#bcc3cd" stroke-width="1.0" opacity="0.24" />
  <line x1="558.4" y1="264.0" x2="510.6" y2="250.7" stroke="#bcc3cd" stroke-width="1.1" opacity="0.29" />
  <line x1="558.4" y1="264.0" x2="554.1" y2="228.0" stroke="#bcc3cd" stroke-width="1.0" opacity="0.22" />
  <line x1="532.0" y1="273.2" x2="544.1" y2="281.5" stroke="#bcc3cd" stroke-width="1.0" opacity="0.24" />
  <line x1="532.0" y1="273.2" x2="479.7" y2="275.5" stroke="#bcc3cd" stroke-width="1.0" opacity="0.24" />
  <line x1="532.0" y1="273.2" x2="472.0" y2="288.0" stroke="#bcc3cd" stroke-width="0.9" opacity="0.21" />
  <line x1="532.0" y1="273.2" x2="517.6" y2="268.0" stroke="#bcc3cd" stroke-width="1.1" opacity="0.28" />
  <line x1="532.0" y1="273.2" x2="523.7" y2="280.9" stroke="#bcc3cd" stroke-width="1.1" opacity="0.31" />
  <line x1="532.0" y1="273.2" x2="516.9" y2="288.4" stroke="#bcc3cd" stroke-width="1.1" opacity="0.28" />
  <line x1="532.0" y1="273.2" x2="498.3" y2="290.1" stroke="#bcc3cd" stroke-width="0.9" opacity="0.18" />
  <line x1="532.0" y1="273.2" x2="553.8" y2="240.9" stroke="#bcc3cd" stroke-width="0.9" opacity="0.17" />
  <line x1="532.0" y1="273.2" x2="488.1" y2="252.0" stroke="#bcc3cd" stroke-width="0.9" opacity="0.17" />
  <line x1="532.0" y1="273.2" x2="480.7" y2="259.1" stroke="#bcc3cd" stroke-width="0.9" opacity="0.20" />
  <line x1="532.0" y1="273.2" x2="532.3" y2="245.9" stroke="#bcc3cd" stroke-width="0.9" opacity="0.17" />
  <line x1="532.0" y1="273.2" x2="536.6" y2="230.8" stroke="#bcc3cd" stroke-width="0.9" opacity="0.17" />
  <line x1="532.0" y1="273.2" x2="510.6" y2="250.7" stroke="#bcc3cd" stroke-width="1.1" opacity="0.33" />
  <line x1="532.0" y1="273.2" x2="485.4" y2="264.8" stroke="#bcc3cd" stroke-width="1.0" opacity="0.24" />
  <line x1="611.4" y1="246.9" x2="553.8" y2="240.9" stroke="#bcc3cd" stroke-width="1.0" opacity="0.25" />
  <line x1="611.4" y1="246.9" x2="582.7" y2="233.5" stroke="#bcc3cd" stroke-width="1.1" opacity="0.29" />
  <line x1="611.4" y1="246.9" x2="554.1" y2="228.0" stroke="#bcc3cd" stroke-width="0.9" opacity="0.17" />
  <line x1="544.1" y1="281.5" x2="479.7" y2="275.5" stroke="#bcc3cd" stroke-width="0.9" opacity="0.17" />
  <line x1="544.1" y1="281.5" x2="517.6" y2="268.0" stroke="#bcc3cd" stroke-width="1.0" opacity="0.22" />
  <line x1="544.1" y1="281.5" x2="523.7" y2="280.9" stroke="#bcc3cd" stroke-width="1.0" opacity="0.24" />
  <line x1="544.1" y1="281.5" x2="516.9" y2="288.4" stroke="#bcc3cd" stroke-width="1.0" opacity="0.22" />
  <line x1="544.1" y1="281.5" x2="498.3" y2="290.1" stroke="#bcc3cd" stroke-width="1.0" opacity="0.22" />
  <line x1="544.1" y1="281.5" x2="569.9" y2="248.8" stroke="#bcc3cd" stroke-width="0.9" opacity="0.19" />
  <line x1="544.1" y1="281.5" x2="532.3" y2="245.9" stroke="#bcc3cd" stroke-width="0.9" opacity="0.21" />
  <line x1="544.1" y1="281.5" x2="510.6" y2="250.7" stroke="#bcc3cd" stroke-width="1.0" opacity="0.24" />
  <line x1="544.1" y1="281.5" x2="485.4" y2="264.8" stroke="#bcc3cd" stroke-width="0.9" opacity="0.17" />
  <line x1="572.2" y1="215.2" x2="553.8" y2="240.9" stroke="#bcc3cd" stroke-width="0.9" opacity="0.18" />
  <line x1="572.2" y1="215.2" x2="582.7" y2="233.5" stroke="#bcc3cd" stroke-width="0.9" opacity="0.18" />
  <line x1="572.2" y1="215.2" x2="532.3" y2="245.9" stroke="#bcc3cd" stroke-width="0.9" opacity="0.17" />
  <line x1="572.2" y1="215.2" x2="536.6" y2="230.8" stroke="#bcc3cd" stroke-width="1.3" opacity="0.42" />
  <line x1="572.2" y1="215.2" x2="510.6" y2="250.7" stroke="#bcc3cd" stroke-width="0.9" opacity="0.19" />
  <line x1="572.2" y1="215.2" x2="554.1" y2="228.0" stroke="#bcc3cd" stroke-width="0.9" opacity="0.21" />
  <line x1="505.3" y1="320.3" x2="479.7" y2="275.5" stroke="#bcc3cd" stroke-width="1.1" opacity="0.28" />
  <line x1="505.3" y1="320.3" x2="498.3" y2="290.1" stroke="#bcc3cd" stroke-width="1.2" opacity="0.37" />
  <line x1="479.7" y1="275.5" x2="517.6" y2="268.0" stroke="#bcc3cd" stroke-width="0.9" opacity="0.20" />
  <line x1="479.7" y1="275.5" x2="523.7" y2="280.9" stroke="#bcc3cd" stroke-width="1.0" opacity="0.24" />
  <line x1="479.7" y1="275.5" x2="516.9" y2="288.4" stroke="#bcc3cd" stroke-width="0.9" opacity="0.20" />
  <line x1="479.7" y1="275.5" x2="498.3" y2="290.1" stroke="#bcc3cd" stroke-width="0.9" opacity="0.18" />
  <line x1="479.7" y1="275.5" x2="460.9" y2="252.7" stroke="#bcc3cd" stroke-width="1.5" opacity="0.55" />
  <line x1="479.7" y1="275.5" x2="442.4" y2="253.2" stroke="#bcc3cd" stroke-width="1.2" opacity="0.37" />
  <line x1="479.7" y1="275.5" x2="480.7" y2="259.1" stroke="#bcc3cd" stroke-width="1.0" opacity="0.22" />
  <line x1="479.7" y1="275.5" x2="510.6" y2="250.7" stroke="#bcc3cd" stroke-width="1.0" opacity="0.22" />
  <line x1="479.7" y1="275.5" x2="448.9" y2="261.5" stroke="#bcc3cd" stroke-width="1.2" opacity="0.37" />
  <line x1="479.7" y1="275.5" x2="470.8" y2="235.9" stroke="#bcc3cd" stroke-width="1.1" opacity="0.28" />
  <line x1="479.7" y1="275.5" x2="432.8" y2="261.5" stroke="#bcc3cd" stroke-width="1.2" opacity="0.37" />
  <line x1="479.7" y1="275.5" x2="485.4" y2="264.8" stroke="#bcc3cd" stroke-width="1.2" opacity="0.37" />
  <line x1="472.0" y1="288.0" x2="480.7" y2="259.1" stroke="#bcc3cd" stroke-width="0.9" opacity="0.18" />
  <line x1="472.0" y1="288.0" x2="510.6" y2="250.7" stroke="#bcc3cd" stroke-width="1.1" opacity="0.30" />
  <line x1="472.0" y1="288.0" x2="485.4" y2="264.8" stroke="#bcc3cd" stroke-width="1.0" opacity="0.22" />
  <line x1="517.6" y1="268.0" x2="523.7" y2="280.9" stroke="#bcc3cd" stroke-width="1.1" opacity="0.28" />
  <line x1="517.6" y1="268.0" x2="516.9" y2="288.4" stroke="#bcc3cd" stroke-width="1.0" opacity="0.24" />
  <line x1="517.6" y1="268.0" x2="526.8" y2="238.9" stroke="#bcc3cd" stroke-width="0.9" opacity="0.19" />
  <line x1="517.6" y1="268.0" x2="502.6" y2="227.9" stroke="#bcc3cd" stroke-width="0.9" opacity="0.18" />
  <line x1="517.6" y1="268.0" x2="480.7" y2="259.1" stroke="#bcc3cd" stroke-width="0.9" opacity="0.17" />
  <line x1="517.6" y1="268.0" x2="510.6" y2="250.7" stroke="#bcc3cd" stroke-width="0.9" opacity="0.17" />
  <line x1="517.6" y1="268.0" x2="485.4" y2="264.8" stroke="#bcc3cd" stroke-width="0.9" opacity="0.20" />
  <line x1="523.7" y1="280.9" x2="516.9" y2="288.4" stroke="#bcc3cd" stroke-width="1.1" opacity="0.28" />
  <line x1="523.7" y1="280.9" x2="498.3" y2="290.1" stroke="#bcc3cd" stroke-width="0.9" opacity="0.18" />
  <line x1="523.7" y1="280.9" x2="488.1" y2="252.0" stroke="#bcc3cd" stroke-width="0.9" opacity="0.17" />
  <line x1="523.7" y1="280.9" x2="480.7" y2="259.1" stroke="#bcc3cd" stroke-width="0.9" opacity="0.20" />
  <line x1="523.7" y1="280.9" x2="532.3" y2="245.9" stroke="#bcc3cd" stroke-width="0.9" opacity="0.17" />
  <line x1="523.7" y1="280.9" x2="510.6" y2="250.7" stroke="#bcc3cd" stroke-width="0.9" opacity="0.20" />
  <line x1="523.7" y1="280.9" x2="485.4" y2="264.8" stroke="#bcc3cd" stroke-width="1.0" opacity="0.24" />
  <line x1="516.9" y1="288.4" x2="480.7" y2="259.1" stroke="#bcc3cd" stroke-width="0.9" opacity="0.17" />
  <line x1="516.9" y1="288.4" x2="510.6" y2="250.7" stroke="#bcc3cd" stroke-width="0.9" opacity="0.17" />
  <line x1="516.9" y1="288.4" x2="485.4" y2="264.8" stroke="#bcc3cd" stroke-width="0.9" opacity="0.20" />
  <line x1="498.3" y1="290.1" x2="420.5" y2="232.6" stroke="#bcc3cd" stroke-width="1.0" opacity="0.22" />
  <line x1="498.3" y1="290.1" x2="485.4" y2="264.8" stroke="#bcc3cd" stroke-width="0.9" opacity="0.18" />
  <line x1="356.6" y1="285.0" x2="433.6" y2="279.8" stroke="#bcc3cd" stroke-width="1.3" opacity="0.44" />
  <line x1="356.6" y1="285.0" x2="369.0" y2="269.7" stroke="#bcc3cd" stroke-width="0.9" opacity="0.18" />
  <line x1="433.6" y1="279.8" x2="442.4" y2="253.2" stroke="#bcc3cd" stroke-width="1.1" opacity="0.31" />
  <line x1="433.6" y1="279.8" x2="488.1" y2="252.0" stroke="#bcc3cd" stroke-width="0.9" opacity="0.20" />
  <line x1="433.6" y1="279.8" x2="480.7" y2="259.1" stroke="#bcc3cd" stroke-width="1.0" opacity="0.24" />
  <line x1="433.6" y1="279.8" x2="532.3" y2="245.9" stroke="#bcc3cd" stroke-width="0.9" opacity="0.20" />
  <line x1="433.6" y1="279.8" x2="510.6" y2="250.7" stroke="#bcc3cd" stroke-width="1.0" opacity="0.24" />
  <line x1="433.6" y1="279.8" x2="484.1" y2="238.2" stroke="#bcc3cd" stroke-width="0.9" opacity="0.18" />
  <line x1="433.6" y1="279.8" x2="407.6" y2="377.0" stroke="#bcc3cd" stroke-width="0.9" opacity="0.17" />
  <line x1="433.6" y1="279.8" x2="432.8" y2="261.5" stroke="#bcc3cd" stroke-width="1.1" opacity="0.31" />
  <line x1="433.6" y1="279.8" x2="369.0" y2="269.7" stroke="#bcc3cd" stroke-width="1.1" opacity="0.30" />
  <line x1="433.6" y1="279.8" x2="485.4" y2="264.8" stroke="#bcc3cd" stroke-width="1.1" opacity="0.31" />
  <line x1="211.2" y1="495.2" x2="235.5" y2="500.0" stroke="#bcc3cd" stroke-width="1.6" opacity="0.60" />
  <line x1="684.0" y1="215.1" x2="582.7" y2="233.5" stroke="#bcc3cd" stroke-width="0.9" opacity="0.18" />
  <line x1="684.0" y1="215.1" x2="722.7" y2="214.2" stroke="#bcc3cd" stroke-width="1.1" opacity="0.28" />
  <line x1="527.5" y1="214.7" x2="553.8" y2="240.9" stroke="#bcc3cd" stroke-width="0.9" opacity="0.17" />
  <line x1="527.5" y1="214.7" x2="582.7" y2="233.5" stroke="#bcc3cd" stroke-width="0.9" opacity="0.18" />
  <line x1="527.5" y1="214.7" x2="526.8" y2="238.9" stroke="#bcc3cd" stroke-width="1.0" opacity="0.22" />
  <line x1="527.5" y1="214.7" x2="532.3" y2="245.9" stroke="#bcc3cd" stroke-width="1.1" opacity="0.28" />
  <line x1="527.5" y1="214.7" x2="536.6" y2="230.8" stroke="#bcc3cd" stroke-width="1.1" opacity="0.32" />
  <line x1="527.5" y1="214.7" x2="510.6" y2="250.7" stroke="#bcc3cd" stroke-width="0.9" opacity="0.20" />
  <line x1="527.5" y1="214.7" x2="554.1" y2="228.0" stroke="#bcc3cd" stroke-width="1.0" opacity="0.22" />
  <line x1="527.5" y1="214.7" x2="470.8" y2="235.9" stroke="#bcc3cd" stroke-width="1.0" opacity="0.22" />
  <line x1="553.8" y1="240.9" x2="582.7" y2="233.5" stroke="#bcc3cd" stroke-width="1.3" opacity="0.42" />
  <line x1="553.8" y1="240.9" x2="556.9" y2="210.8" stroke="#bcc3cd" stroke-width="0.9" opacity="0.18" />
  <line x1="553.8" y1="240.9" x2="569.9" y2="248.8" stroke="#bcc3cd" stroke-width="1.1" opacity="0.31" />
  <line x1="553.8" y1="240.9" x2="526.8" y2="238.9" stroke="#bcc3cd" stroke-width="1.1" opacity="0.32" />
  <line x1="553.8" y1="240.9" x2="502.6" y2="227.9" stroke="#bcc3cd" stroke-width="1.0" opacity="0.23" />
  <line x1="553.8" y1="240.9" x2="532.3" y2="245.9" stroke="#bcc3cd" stroke-width="1.2" opacity="0.39" />
  <line x1="553.8" y1="240.9" x2="536.6" y2="230.8" stroke="#bcc3cd" stroke-width="1.0" opacity="0.26" />
  <line x1="553.8" y1="240.9" x2="510.6" y2="250.7" stroke="#bcc3cd" stroke-width="1.2" opacity="0.34" />
  <line x1="553.8" y1="240.9" x2="484.1" y2="238.2" stroke="#bcc3cd" stroke-width="0.9" opacity="0.19" />
  <line x1="553.8" y1="240.9" x2="554.1" y2="228.0" stroke="#bcc3cd" stroke-width="1.0" opacity="0.25" />
  <line x1="553.8" y1="240.9" x2="485.4" y2="264.8" stroke="#bcc3cd" stroke-width="0.9" opacity="0.17" />
  <line x1="582.7" y1="233.5" x2="556.9" y2="210.8" stroke="#bcc3cd" stroke-width="1.1" opacity="0.33" />
  <line x1="582.7" y1="233.5" x2="569.9" y2="248.8" stroke="#bcc3cd" stroke-width="0.9" opacity="0.21" />
  <line x1="582.7" y1="233.5" x2="526.8" y2="238.9" stroke="#bcc3cd" stroke-width="0.9" opacity="0.18" />
  <line x1="582.7" y1="233.5" x2="532.3" y2="245.9" stroke="#bcc3cd" stroke-width="1.3" opacity="0.41" />
  <line x1="582.7" y1="233.5" x2="536.6" y2="230.8" stroke="#bcc3cd" stroke-width="1.0" opacity="0.22" />
  <line x1="582.7" y1="233.5" x2="510.6" y2="250.7" stroke="#bcc3cd" stroke-width="1.1" opacity="0.31" />
  <line x1="582.7" y1="233.5" x2="554.1" y2="228.0" stroke="#bcc3cd" stroke-width="1.7" opacity="0.66" />
  <line x1="460.9" y1="252.7" x2="442.4" y2="253.2" stroke="#bcc3cd" stroke-width="1.5" opacity="0.55" />
  <line x1="460.9" y1="252.7" x2="488.1" y2="252.0" stroke="#bcc3cd" stroke-width="0.9" opacity="0.18" />
  <line x1="460.9" y1="252.7" x2="480.7" y2="259.1" stroke="#bcc3cd" stroke-width="1.1" opacity="0.28" />
  <line x1="460.9" y1="252.7" x2="532.3" y2="245.9" stroke="#bcc3cd" stroke-width="0.9" opacity="0.18" />
  <line x1="460.9" y1="252.7" x2="510.6" y2="250.7" stroke="#bcc3cd" stroke-width="1.1" opacity="0.28" />
  <line x1="460.9" y1="252.7" x2="448.9" y2="261.5" stroke="#bcc3cd" stroke-width="1.5" opacity="0.55" />
  <line x1="460.9" y1="252.7" x2="470.8" y2="235.9" stroke="#bcc3cd" stroke-width="1.2" opacity="0.37" />
  <line x1="460.9" y1="252.7" x2="432.8" y2="261.5" stroke="#bcc3cd" stroke-width="1.5" opacity="0.55" />
  <line x1="460.9" y1="252.7" x2="485.4" y2="264.8" stroke="#bcc3cd" stroke-width="1.5" opacity="0.55" />
  <line x1="442.4" y1="253.2" x2="480.7" y2="259.1" stroke="#bcc3cd" stroke-width="1.0" opacity="0.22" />
  <line x1="442.4" y1="253.2" x2="510.6" y2="250.7" stroke="#bcc3cd" stroke-width="1.0" opacity="0.22" />
  <line x1="442.4" y1="253.2" x2="448.9" y2="261.5" stroke="#bcc3cd" stroke-width="1.2" opacity="0.37" />
  <line x1="442.4" y1="253.2" x2="470.8" y2="235.9" stroke="#bcc3cd" stroke-width="1.1" opacity="0.28" />
  <line x1="442.4" y1="253.2" x2="432.8" y2="261.5" stroke="#bcc3cd" stroke-width="1.2" opacity="0.37" />
  <line x1="442.4" y1="253.2" x2="485.4" y2="264.8" stroke="#bcc3cd" stroke-width="1.2" opacity="0.37" />
  <line x1="556.9" y1="210.8" x2="532.3" y2="245.9" stroke="#bcc3cd" stroke-width="0.9" opacity="0.18" />
  <line x1="556.9" y1="210.8" x2="536.6" y2="230.8" stroke="#bcc3cd" stroke-width="0.9" opacity="0.18" />
  <line x1="556.9" y1="210.8" x2="510.6" y2="250.7" stroke="#bcc3cd" stroke-width="1.0" opacity="0.22" />
  <line x1="556.9" y1="210.8" x2="554.1" y2="228.0" stroke="#bcc3cd" stroke-width="1.3" opacity="0.41" />
  <line x1="569.9" y1="248.8" x2="526.8" y2="238.9" stroke="#bcc3cd" stroke-width="1.1" opacity="0.31" />
  <line x1="569.9" y1="248.8" x2="532.3" y2="245.9" stroke="#bcc3cd" stroke-width="1.4" opacity="0.47" />
  <line x1="569.9" y1="248.8" x2="536.6" y2="230.8" stroke="#bcc3cd" stroke-width="0.9" opacity="0.19" />
  <line x1="569.9" y1="248.8" x2="510.6" y2="250.7" stroke="#bcc3cd" stroke-width="1.0" opacity="0.22" />
  <line x1="526.8" y1="238.9" x2="502.6" y2="227.9" stroke="#bcc3cd" stroke-width="1.1" opacity="0.29" />
  <line x1="526.8" y1="238.9" x2="488.1" y2="252.0" stroke="#bcc3cd" stroke-width="0.9" opacity="0.17" />
  <line x1="526.8" y1="238.9" x2="480.7" y2="259.1" stroke="#bcc3cd" stroke-width="0.9" opacity="0.20" />
  <line x1="526.8" y1="238.9" x2="532.3" y2="245.9" stroke="#bcc3cd" stroke-width="1.3" opacity="0.40" />
  <line x1="526.8" y1="238.9" x2="536.6" y2="230.8" stroke="#bcc3cd" stroke-width="1.0" opacity="0.24" />
  <line x1="526.8" y1="238.9" x2="510.6" y2="250.7" stroke="#bcc3cd" stroke-width="0.9" opacity="0.20" />
  <line x1="526.8" y1="238.9" x2="485.4" y2="264.8" stroke="#bcc3cd" stroke-width="1.0" opacity="0.24" />
  <line x1="502.6" y1="227.9" x2="480.7" y2="259.1" stroke="#bcc3cd" stroke-width="0.9" opacity="0.18" />
  <line x1="502.6" y1="227.9" x2="536.6" y2="230.8" stroke="#bcc3cd" stroke-width="1.0" opacity="0.23" />
  <line x1="502.6" y1="227.9" x2="510.6" y2="250.7" stroke="#bcc3cd" stroke-width="0.9" opacity="0.18" />
  <line x1="502.6" y1="227.9" x2="484.1" y2="238.2" stroke="#bcc3cd" stroke-width="1.0" opacity="0.24" />
  <line x1="502.6" y1="227.9" x2="485.4" y2="264.8" stroke="#bcc3cd" stroke-width="1.0" opacity="0.22" />
  <line x1="488.1" y1="252.0" x2="480.7" y2="259.1" stroke="#bcc3cd" stroke-width="1.1" opacity="0.28" />
  <line x1="488.1" y1="252.0" x2="532.3" y2="245.9" stroke="#bcc3cd" stroke-width="1.0" opacity="0.22" />
  <line x1="488.1" y1="252.0" x2="510.6" y2="250.7" stroke="#bcc3cd" stroke-width="1.1" opacity="0.28" />
  <line x1="488.1" y1="252.0" x2="484.1" y2="238.2" stroke="#bcc3cd" stroke-width="0.9" opacity="0.20" />
  <line x1="488.1" y1="252.0" x2="485.4" y2="264.8" stroke="#bcc3cd" stroke-width="1.2" opacity="0.37" />
  <line x1="480.7" y1="259.1" x2="532.3" y2="245.9" stroke="#bcc3cd" stroke-width="1.1" opacity="0.28" />
  <line x1="480.7" y1="259.1" x2="510.6" y2="250.7" stroke="#bcc3cd" stroke-width="1.2" opacity="0.37" />
  <line x1="480.7" y1="259.1" x2="448.9" y2="261.5" stroke="#bcc3cd" stroke-width="1.0" opacity="0.22" />
  <line x1="480.7" y1="259.1" x2="484.1" y2="238.2" stroke="#bcc3cd" stroke-width="1.0" opacity="0.24" />
  <line x1="480.7" y1="259.1" x2="470.8" y2="235.9" stroke="#bcc3cd" stroke-width="0.9" opacity="0.18" />
  <line x1="480.7" y1="259.1" x2="432.8" y2="261.5" stroke="#bcc3cd" stroke-width="1.0" opacity="0.22" />
  <line x1="480.7" y1="259.1" x2="485.4" y2="264.8" stroke="#bcc3cd" stroke-width="1.5" opacity="0.55" />
  <line x1="532.3" y1="245.9" x2="536.6" y2="230.8" stroke="#bcc3cd" stroke-width="1.1" opacity="0.29" />
  <line x1="532.3" y1="245.9" x2="510.6" y2="250.7" stroke="#bcc3cd" stroke-width="1.4" opacity="0.47" />
  <line x1="532.3" y1="245.9" x2="484.1" y2="238.2" stroke="#bcc3cd" stroke-width="0.9" opacity="0.20" />
  <line x1="532.3" y1="245.9" x2="554.1" y2="228.0" stroke="#bcc3cd" stroke-width="1.1" opacity="0.31" />
  <line x1="532.3" y1="245.9" x2="470.8" y2="235.9" stroke="#bcc3cd" stroke-width="1.1" opacity="0.31" />
  <line x1="532.3" y1="245.9" x2="485.4" y2="264.8" stroke="#bcc3cd" stroke-width="1.2" opacity="0.37" />
  <line x1="536.6" y1="230.8" x2="510.6" y2="250.7" stroke="#bcc3cd" stroke-width="1.2" opacity="0.34" />
  <line x1="536.6" y1="230.8" x2="554.1" y2="228.0" stroke="#bcc3cd" stroke-width="1.0" opacity="0.25" />
  <line x1="536.6" y1="230.8" x2="470.8" y2="235.9" stroke="#bcc3cd" stroke-width="1.0" opacity="0.25" />
  <line x1="536.6" y1="230.8" x2="485.4" y2="264.8" stroke="#bcc3cd" stroke-width="0.9" opacity="0.17" />
  <line x1="510.6" y1="250.7" x2="448.9" y2="261.5" stroke="#bcc3cd" stroke-width="1.0" opacity="0.22" />
  <line x1="510.6" y1="250.7" x2="484.1" y2="238.2" stroke="#bcc3cd" stroke-width="1.0" opacity="0.24" />
  <line x1="510.6" y1="250.7" x2="554.1" y2="228.0" stroke="#bcc3cd" stroke-width="1.3" opacity="0.44" />
  <line x1="510.6" y1="250.7" x2="470.8" y2="235.9" stroke="#bcc3cd" stroke-width="1.3" opacity="0.44" />
  <line x1="510.6" y1="250.7" x2="432.8" y2="261.5" stroke="#bcc3cd" stroke-width="1.0" opacity="0.22" />
  <line x1="510.6" y1="250.7" x2="485.4" y2="264.8" stroke="#bcc3cd" stroke-width="1.5" opacity="0.55" />
  <line x1="717.5" y1="50.0" x2="742.6" y2="66.5" stroke="#bcc3cd" stroke-width="1.0" opacity="0.22" />
  <line x1="398.7" y1="303.0" x2="485.4" y2="264.8" stroke="#bcc3cd" stroke-width="1.0" opacity="0.22" />
  <line x1="448.9" y1="261.5" x2="470.8" y2="235.9" stroke="#bcc3cd" stroke-width="1.1" opacity="0.28" />
  <line x1="448.9" y1="261.5" x2="432.8" y2="261.5" stroke="#bcc3cd" stroke-width="1.2" opacity="0.37" />
  <line x1="448.9" y1="261.5" x2="485.4" y2="264.8" stroke="#bcc3cd" stroke-width="1.2" opacity="0.37" />
  <line x1="409.1" y1="412.8" x2="409.0" y2="426.1" stroke="#bcc3cd" stroke-width="1.5" opacity="0.55" />
  <line x1="409.1" y1="412.8" x2="407.6" y2="377.0" stroke="#bcc3cd" stroke-width="1.3" opacity="0.41" />
  <line x1="409.0" y1="426.1" x2="407.6" y2="377.0" stroke="#bcc3cd" stroke-width="1.0" opacity="0.24" />
  <line x1="484.1" y1="238.2" x2="485.4" y2="264.8" stroke="#bcc3cd" stroke-width="1.1" opacity="0.31" />
  <line x1="554.1" y1="228.0" x2="470.8" y2="235.9" stroke="#bcc3cd" stroke-width="1.0" opacity="0.22" />
  <line x1="470.8" y1="235.9" x2="420.5" y2="232.6" stroke="#bcc3cd" stroke-width="1.2" opacity="0.37" />
  <line x1="470.8" y1="235.9" x2="393.4" y2="201.4" stroke="#bcc3cd" stroke-width="0.9" opacity="0.18" />
  <line x1="470.8" y1="235.9" x2="432.8" y2="261.5" stroke="#bcc3cd" stroke-width="1.1" opacity="0.28" />
  <line x1="470.8" y1="235.9" x2="485.4" y2="264.8" stroke="#bcc3cd" stroke-width="1.1" opacity="0.28" />
  <line x1="420.5" y1="232.6" x2="393.4" y2="201.4" stroke="#bcc3cd" stroke-width="1.1" opacity="0.28" />
  <line x1="432.8" y1="261.5" x2="369.0" y2="269.7" stroke="#bcc3cd" stroke-width="1.1" opacity="0.31" />
  <line x1="432.8" y1="261.5" x2="485.4" y2="264.8" stroke="#bcc3cd" stroke-width="1.2" opacity="0.37" />
  <circle cx="575.1" cy="304.6" r="16" fill="#e74c3c" opacity="0.88" />
  <circle cx="499.6" cy="349.7" r="9.5" fill="#7f8c8d" opacity="0.88" />
  <circle cx="521.4" cy="304.4" r="7.7" fill="#3498db" opacity="0.88" />
  <circle cx="655.0" cy="221.0" r="5" fill="#7f8c8d" opacity="0.88" />
  <circle cx="560.4" cy="298.2" r="14.9" fill="#3498db" opacity="0.88" />
  <circle cx="598.4" cy="270.5" r="16" fill="#3498db" opacity="0.88" />
  <circle cx="558.4" cy="264.0" r="16" fill="#7f8c8d" opacity="0.88" />
  <circle cx="532.0" cy="273.2" r="12.2" fill="#e67e22" opacity="0.88" />
  <circle cx="611.4" cy="246.9" r="16" fill="#e74c3c" opacity="0.88" />
  <circle cx="544.1" cy="281.5" r="15.8" fill="#7f8c8d" opacity="0.88" />
  <circle cx="572.2" cy="215.2" r="16" fill="#9b59b6" opacity="0.88" />
  <circle cx="505.3" cy="320.3" r="6.8" fill="#3498db" opacity="0.88" />
  <circle cx="479.7" cy="275.5" r="5.9" fill="#3498db" opacity="0.88" />
  <circle cx="472.0" cy="288.0" r="13.1" fill="#e67e22" opacity="0.88" />
  <circle cx="517.6" cy="268.0" r="14.0" fill="#3498db" opacity="0.88" />
  <circle cx="523.7" cy="280.9" r="12.2" fill="#3498db" opacity="0.88" />
  <circle cx="516.9" cy="288.4" r="14.0" fill="#3498db" opacity="0.88" />
  <circle cx="498.3" cy="290.1" r="8.6" fill="#2ecc71" opacity="0.88" />
  <circle cx="356.6" cy="285.0" r="10.4" fill="#e74c3c" opacity="0.88" />
  <circle cx="910.0" cy="157.9" r="12.2" fill="#3498db" opacity="0.88" />
  <circle cx="433.6" cy="279.8" r="10.4" fill="#e74c3c" opacity="0.88" />
  <circle cx="211.2" cy="495.2" r="12.2" fill="#3498db" opacity="0.88" />
  <circle cx="235.5" cy="500.0" r="11.3" fill="#3498db" opacity="0.88" />
  <circle cx="684.0" cy="215.1" r="5.9" fill="#3498db" opacity="0.88" />
  <circle cx="527.5" cy="214.7" r="12.2" fill="#9b59b6" opacity="0.88" />
  <circle cx="553.8" cy="240.9" r="15.8" fill="#9b59b6" opacity="0.88" />
  <circle cx="582.7" cy="233.5" r="8.6" fill="#9b59b6" opacity="0.88" />
  <circle cx="460.9" cy="252.7" r="5" fill="#2ecc71" opacity="0.88" />
  <circle cx="442.4" cy="253.2" r="5.9" fill="#7f8c8d" opacity="0.88" />
  <circle cx="556.9" cy="210.8" r="11.3" fill="#e67e22" opacity="0.88" />
  <circle cx="569.9" cy="248.8" r="16" fill="#2ecc71" opacity="0.88" />
  <circle cx="722.7" cy="214.2" r="6.8" fill="#9b59b6" opacity="0.88" />
  <circle cx="98.8" cy="398.0" r="5" fill="#7f8c8d" opacity="0.88" />
  <circle cx="526.8" cy="238.9" r="12.2" fill="#3498db" opacity="0.88" />
  <circle cx="502.6" cy="227.9" r="13.1" fill="#7f8c8d" opacity="0.88" />
  <circle cx="488.1" cy="252.0" r="9.5" fill="#7f8c8d" opacity="0.88" />
  <circle cx="50.0" cy="324.2" r="5" fill="#7f8c8d" opacity="0.88" />
  <circle cx="480.7" cy="259.1" r="7.7" fill="#7f8c8d" opacity="0.88" />
  <circle cx="532.3" cy="245.9" r="9.5" fill="#7f8c8d" opacity="0.88" />
  <circle cx="536.6" cy="230.8" r="15.8" fill="#2ecc71" opacity="0.88" />
  <circle cx="510.6" cy="250.7" r="7.7" fill="#7f8c8d" opacity="0.88" />
  <circle cx="717.5" cy="50.0" r="7.7" fill="#7f8c8d" opacity="0.88" />
  <circle cx="398.7" cy="303.0" r="7.7" fill="#3498db" opacity="0.88" />
  <circle cx="448.9" cy="261.5" r="5.9" fill="#7f8c8d" opacity="0.88" />
  <circle cx="409.1" cy="412.8" r="6.8" fill="#e67e22" opacity="0.88" />
  <circle cx="409.0" cy="426.1" r="6.8" fill="#e67e22" opacity="0.88" />
  <circle cx="484.1" cy="238.2" r="10.4" fill="#7f8c8d" opacity="0.88" />
  <circle cx="407.6" cy="377.0" r="11.3" fill="#e67e22" opacity="0.88" />
  <circle cx="742.6" cy="66.5" r="5.9" fill="#7f8c8d" opacity="0.88" />
  <circle cx="554.1" cy="228.0" r="6.8" fill="#7f8c8d" opacity="0.88" />
  <circle cx="470.8" cy="235.9" r="6.8" fill="#7f8c8d" opacity="0.88" />
  <circle cx="420.5" cy="232.6" r="5" fill="#2ecc71" opacity="0.88" />
  <circle cx="393.4" cy="201.4" r="7.7" fill="#2ecc71" opacity="0.88" />
  <circle cx="432.8" cy="261.5" r="5.9" fill="#e74c3c" opacity="0.88" />
  <circle cx="369.0" cy="269.7" r="10.4" fill="#e74c3c" opacity="0.88" />
  <circle cx="485.4" cy="264.8" r="5.9" fill="#7f8c8d" opacity="0.88" />
  <circle cx="838.4" cy="478.0" r="5" fill="#7f8c8d" opacity="0.88" />
  <rect x="593.1" y="347.1" width="95.6" height="15" fill="#ffffff" opacity="0.75" rx="2" />
  <text x="594.1" y="358.1" font-family="system-ui, -apple-system, sans-serif" font-size="12" fill="#1f2328" text-anchor="start">RemoteJuggler</text>
  <rect x="511.1" y="406.8" width="88.4" height="15" fill="#ffffff" opacity="0.75" rx="2" />
  <text x="512.1" y="417.8" font-family="system-ui, -apple-system, sans-serif" font-size="12" fill="#1f2328" text-anchor="start">waifu-mirror</text>
  <rect x="531.1" y="295.1" width="16.4" height="15" fill="#ffffff" opacity="0.75" rx="2" />
  <text x="532.1" y="306.1" font-family="system-ui, -apple-system, sans-serif" font-size="12" fill="#1f2328" text-anchor="start">pp</text>
  <rect x="662.0" y="204.3" width="124.4" height="15" fill="#ffffff" opacity="0.75" rx="2" />
  <text x="663.0" y="215.3" font-family="system-ui, -apple-system, sans-serif" font-size="12" fill="#1f2328" text-anchor="start">tinyland-calendar</text>
  <rect x="577.3" y="293.3" width="102.8" height="15" fill="#ffffff" opacity="0.75" rx="2" />
  <text x="578.3" y="304.3" font-family="system-ui, -apple-system, sans-serif" font-size="12" fill="#1f2328" text-anchor="start">tinyland-infra</text>
  <rect x="616.4" y="304.6" width="117.2" height="15" fill="#ffffff" opacity="0.75" rx="2" />
  <text x="617.4" y="315.6" font-family="system-ui, -apple-system, sans-serif" font-size="12" fill="#1f2328" text-anchor="start">GloriousFlywheel</text>
  <rect x="576.4" y="279.6" width="52.4" height="15" fill="#ffffff" opacity="0.75" rx="2" />
  <text x="577.4" y="290.6" font-family="system-ui, -apple-system, sans-serif" font-size="12" fill="#1f2328" text-anchor="start">LA-Mesh</text>
  <rect x="546.2" y="152.8" width="45.2" height="15" fill="#ffffff" opacity="0.75" rx="2" />
  <text x="547.2" y="163.8" font-family="system-ui, -apple-system, sans-serif" font-size="12" fill="#1f2328" text-anchor="start">XoxdWM</text>
  <rect x="629.4" y="276.7" width="131.6" height="15" fill="#ffffff" opacity="0.75" rx="2" />
  <text x="630.4" y="287.7" font-family="system-ui, -apple-system, sans-serif" font-size="12" fill="#1f2328" text-anchor="start">pixelwise-research</text>
  <rect x="561.9" y="335.5" width="124.4" height="15" fill="#ffffff" opacity="0.75" rx="2" />
  <text x="562.9" y="346.5" font-family="system-ui, -apple-system, sans-serif" font-size="12" fill="#1f2328" text-anchor="start">tinyland-huskycat</text>
  <rect x="590.2" y="153.3" width="95.6" height="15" fill="#ffffff" opacity="0.75" rx="2" />
  <text x="591.2" y="164.3" font-family="system-ui, -apple-system, sans-serif" font-size="12" fill="#1f2328" text-anchor="start">GIS_Shortcuts</text>
  <rect x="514.1" y="362.2" width="117.2" height="15" fill="#ffffff" opacity="0.75" rx="2" />
  <text x="515.1" y="373.2" font-family="system-ui, -apple-system, sans-serif" font-size="12" fill="#1f2328" text-anchor="start">tinyland-cleanup</text>
  <rect x="487.6" y="350.8" width="95.6" height="15" fill="#ffffff" opacity="0.75" rx="2" />
  <text x="488.6" y="361.8" font-family="system-ui, -apple-system, sans-serif" font-size="12" fill="#1f2328" text-anchor="start">tinyland-kdbx</text>
  <rect x="487.1" y="393.0" width="110.0" height="15" fill="#ffffff" opacity="0.75" rx="2" />
  <text x="488.1" y="404.0" font-family="system-ui, -apple-system, sans-serif" font-size="12" fill="#1f2328" text-anchor="start">hiberpower-ntfs</text>
  <rect x="533.6" y="105.8" width="138.8" height="15" fill="#ffffff" opacity="0.75" rx="2" />
  <text x="534.6" y="116.8" font-family="system-ui, -apple-system, sans-serif" font-size="12" fill="#1f2328" text-anchor="start">Ansible-DAG-Harness</text>
  <rect x="537.9" y="304.8" width="66.8" height="15" fill="#ffffff" opacity="0.75" rx="2" />
  <text x="538.9" y="315.8" font-family="system-ui, -apple-system, sans-serif" font-size="12" fill="#1f2328" text-anchor="start">betterkvm</text>
  <rect x="532.9" y="181.3" width="95.6" height="15" fill="#ffffff" opacity="0.75" rx="2" />
  <text x="533.9" y="192.3" font-family="system-ui, -apple-system, sans-serif" font-size="12" fill="#1f2328" text-anchor="start">DarwinNicUtil</text>
  <rect x="508.9" y="265.4" width="59.6" height="15" fill="#ffffff" opacity="0.75" rx="2" />
  <text x="509.9" y="276.4" font-family="system-ui, -apple-system, sans-serif" font-size="12" fill="#1f2328" text-anchor="start">gnucashr</text>
  <rect x="369.0" y="281.3" width="66.8" height="15" fill="#ffffff" opacity="0.75" rx="2" />
  <text x="370.0" y="292.3" font-family="system-ui, -apple-system, sans-serif" font-size="12" fill="#1f2328" text-anchor="start">quickchpl</text>
  <rect x="764.2" y="151.1" width="131.6" height="15" fill="#ffffff" opacity="0.75" rx="2" />
  <text x="894.8" y="162.1" font-family="system-ui, -apple-system, sans-serif" font-size="12" fill="#1f2328" text-anchor="end">tinyscale-mikrotik</text>
  <rect x="446.0" y="297.1" width="59.6" height="15" fill="#ffffff" opacity="0.75" rx="2" />
  <text x="447.0" y="308.1" font-family="system-ui, -apple-system, sans-serif" font-size="12" fill="#1f2328" text-anchor="start">aoc-2025</text>
  <rect x="225.4" y="482.3" width="66.8" height="15" fill="#ffffff" opacity="0.75" rx="2" />
  <text x="226.4" y="493.3" font-family="system-ui, -apple-system, sans-serif" font-size="12" fill="#1f2328" text-anchor="start">searchies</text>
  <rect x="248.8" y="499.3" width="59.6" height="15" fill="#ffffff" opacity="0.75" rx="2" />
  <text x="249.8" y="510.3" font-family="system-ui, -apple-system, sans-serif" font-size="12" fill="#1f2328" text-anchor="start">ts-caddy</text>
  <rect x="691.9" y="189.0" width="66.8" height="15" fill="#ffffff" opacity="0.75" rx="2" />
  <text x="692.9" y="200.0" font-family="system-ui, -apple-system, sans-serif" font-size="12" fill="#1f2328" text-anchor="start">HCI-notes</text>
  <rect x="541.7" y="214.3" width="88.4" height="15" fill="#ffffff" opacity="0.75" rx="2" />
  <text x="542.7" y="225.3" font-family="system-ui, -apple-system, sans-serif" font-size="12" fill="#1f2328" text-anchor="start">FastPhotoAPI</text>
  <rect x="571.6" y="266.2" width="81.2" height="15" fill="#ffffff" opacity="0.75" rx="2" />
  <text x="572.6" y="277.2" font-family="system-ui, -apple-system, sans-serif" font-size="12" fill="#1f2328" text-anchor="start">timberbuddy</text>
  <rect x="593.3" y="228.8" width="81.2" height="15" fill="#ffffff" opacity="0.75" rx="2" />
  <text x="594.3" y="239.8" font-family="system-ui, -apple-system, sans-serif" font-size="12" fill="#1f2328" text-anchor="start">tetrahedron</text>
  <rect x="467.9" y="336.3" width="95.6" height="15" fill="#ffffff" opacity="0.75" rx="2" />
  <text x="468.9" y="347.3" font-family="system-ui, -apple-system, sans-serif" font-size="12" fill="#1f2328" text-anchor="start">AccuWixReport</text>
  <rect x="450.3" y="151.8" width="95.6" height="15" fill="#ffffff" opacity="0.75" rx="2" />
  <text x="451.3" y="162.8" font-family="system-ui, -apple-system, sans-serif" font-size="12" fill="#1f2328" text-anchor="start">Jess-AOC-2023</text>
  <rect x="570.2" y="93.0" width="81.2" height="15" fill="#ffffff" opacity="0.75" rx="2" />
  <text x="571.2" y="104.0" font-family="system-ui, -apple-system, sans-serif" font-size="12" fill="#1f2328" text-anchor="start">TurkeyProbe</text>
  <rect x="587.9" y="218.8" width="153.2" height="15" fill="#ffffff" opacity="0.75" rx="2" />
  <text x="588.9" y="229.8" font-family="system-ui, -apple-system, sans-serif" font-size="12" fill="#1f2328" text-anchor="start">MerlinAI-Interpreters</text>
  <rect x="731.5" y="174.6" width="110.0" height="15" fill="#ffffff" opacity="0.75" rx="2" />
  <text x="732.5" y="185.6" font-family="system-ui, -apple-system, sans-serif" font-size="12" fill="#1f2328" text-anchor="start">IntroTypeScript</text>
  <rect x="105.8" y="391.2" width="110.0" height="15" fill="#ffffff" opacity="0.75" rx="2" />
  <text x="106.8" y="402.2" font-family="system-ui, -apple-system, sans-serif" font-size="12" fill="#1f2328" text-anchor="start">IG-3DP-Profiles</text>
  <rect x="541.0" y="186.5" width="66.8" height="15" fill="#ffffff" opacity="0.75" rx="2" />
  <text x="542.0" y="197.5" font-family="system-ui, -apple-system, sans-serif" font-size="12" fill="#1f2328" text-anchor="start">DLA-Flask</text>
  <rect x="517.7" y="235.6" width="38.0" height="15" fill="#ffffff" opacity="0.75" rx="2" />
  <text x="518.7" y="246.6" font-family="system-ui, -apple-system, sans-serif" font-size="12" fill="#1f2328" text-anchor="start">USBoN</text>
  <rect x="499.6" y="122.8" width="203.6" height="15" fill="#ffffff" opacity="0.75" rx="2" />
  <text x="500.6" y="133.8" font-family="system-ui, -apple-system, sans-serif" font-size="12" fill="#1f2328" text-anchor="start">chrome-remote-desktop-budgie</text>
  <rect x="57.0" y="317.4" width="124.4" height="15" fill="#ffffff" opacity="0.75" rx="2" />
  <text x="58.0" y="328.4" font-family="system-ui, -apple-system, sans-serif" font-size="12" fill="#1f2328" text-anchor="start">OminousBeepingApp</text>
  <rect x="490.4" y="256.9" width="138.8" height="15" fill="#ffffff" opacity="0.75" rx="2" />
  <text x="491.4" y="267.9" font-family="system-ui, -apple-system, sans-serif" font-size="12" fill="#1f2328" text-anchor="start">mo-image-identifier</text>
  <rect x="543.8" y="319.3" width="196.4" height="15" fill="#ffffff" opacity="0.75" rx="2" />
  <text x="544.8" y="330.3" font-family="system-ui, -apple-system, sans-serif" font-size="12" fill="#1f2328" text-anchor="start">squirrel-leaflet-annotation</text>
  <rect x="554.4" y="203.5" width="74.0" height="15" fill="#ffffff" opacity="0.75" rx="2" />
  <text x="555.4" y="214.5" font-family="system-ui, -apple-system, sans-serif" font-size="12" fill="#1f2328" text-anchor="start">Shiny-Apps</text>
  <rect x="520.3" y="167.1" width="138.8" height="15" fill="#ffffff" opacity="0.75" rx="2" />
  <text x="521.3" y="178.1" font-family="system-ui, -apple-system, sans-serif" font-size="12" fill="#1f2328" text-anchor="start">bbox-jest-puppeteer</text>
  <rect x="727.2" y="43.2" width="88.4" height="15" fill="#ffffff" opacity="0.75" rx="2" />
  <text x="728.2" y="54.2" font-family="system-ui, -apple-system, sans-serif" font-size="12" fill="#1f2328" text-anchor="start">DoverDisplay</text>
  <rect x="408.4" y="312.6" width="81.2" height="15" fill="#ffffff" opacity="0.75" rx="2" />
  <text x="409.4" y="323.6" font-family="system-ui, -apple-system, sans-serif" font-size="12" fill="#1f2328" text-anchor="start">LeafletSync</text>
  <rect x="456.8" y="376.0" width="167.6" height="15" fill="#ffffff" opacity="0.75" rx="2" />
  <text x="457.8" y="387.0" font-family="system-ui, -apple-system, sans-serif" font-size="12" fill="#1f2328" text-anchor="start">misc-roi-distance-notes</text>
  <rect x="417.9" y="435.3" width="138.8" height="15" fill="#ffffff" opacity="0.75" rx="2" />
  <text x="418.9" y="446.3" font-family="system-ui, -apple-system, sans-serif" font-size="12" fill="#1f2328" text-anchor="start">Arduino_Coil_Winder</text>
  <rect x="417.8" y="449.9" width="30.8" height="15" fill="#ffffff" opacity="0.75" rx="2" />
  <text x="418.8" y="460.9" font-family="system-ui, -apple-system, sans-serif" font-size="12" fill="#1f2328" text-anchor="start">momo</text>
  <rect x="496.5" y="312.6" width="38.0" height="15" fill="#ffffff" opacity="0.75" rx="2" />
  <text x="497.5" y="323.6" font-family="system-ui, -apple-system, sans-serif" font-size="12" fill="#1f2328" text-anchor="start">clipi</text>
  <rect x="420.9" y="420.9" width="110.0" height="15" fill="#ffffff" opacity="0.75" rx="2" />
  <text x="421.9" y="431.9" font-family="system-ui, -apple-system, sans-serif" font-size="12" fill="#1f2328" text-anchor="start">AeroTaz5_hotfix</text>
  <rect x="750.5" y="59.7" width="110.0" height="15" fill="#ffffff" opacity="0.75" rx="2" />
  <text x="751.5" y="70.7" font-family="system-ui, -apple-system, sans-serif" font-size="12" fill="#1f2328" text-anchor="start">Funmat-HT-Notes</text>
  <rect x="562.9" y="239.9" width="81.2" height="15" fill="#ffffff" opacity="0.75" rx="2" />
  <text x="563.9" y="250.9" font-family="system-ui, -apple-system, sans-serif" font-size="12" fill="#1f2328" text-anchor="start">static-site</text>
  <rect x="479.6" y="282.4" width="95.6" height="15" fill="#ffffff" opacity="0.75" rx="2" />
  <text x="480.6" y="293.4" font-family="system-ui, -apple-system, sans-serif" font-size="12" fill="#1f2328" text-anchor="start">Flask-Manager</text>
  <rect x="427.5" y="218.4" width="110.0" height="15" fill="#ffffff" opacity="0.75" rx="2" />
  <text x="428.5" y="229.4" font-family="system-ui, -apple-system, sans-serif" font-size="12" fill="#1f2328" text-anchor="start">FieldProcessing</text>
  <rect x="403.1" y="134.8" width="81.2" height="15" fill="#ffffff" opacity="0.75" rx="2" />
  <text x="404.1" y="145.8" font-family="system-ui, -apple-system, sans-serif" font-size="12" fill="#1f2328" text-anchor="start">rJDKmanager</text>
  <rect x="440.7" y="238.6" width="59.6" height="15" fill="#ffffff" opacity="0.75" rx="2" />
  <text x="441.7" y="249.6" font-family="system-ui, -apple-system, sans-serif" font-size="12" fill="#1f2328" text-anchor="start">tagnotes</text>
  <rect x="381.4" y="259.6" width="81.2" height="15" fill="#ffffff" opacity="0.75" rx="2" />
  <text x="382.4" y="270.6" font-family="system-ui, -apple-system, sans-serif" font-size="12" fill="#1f2328" text-anchor="start">ChapelTests</text>
  <rect x="493.3" y="137.7" width="88.4" height="15" fill="#ffffff" opacity="0.75" rx="2" />
  <text x="494.3" y="148.7" font-family="system-ui, -apple-system, sans-serif" font-size="12" fill="#1f2328" text-anchor="start">Xfinity-WiFi</text>
  <rect x="764.6" y="471.2" width="66.8" height="15" fill="#ffffff" opacity="0.75" rx="2" />
  <text x="830.4" y="482.2" font-family="system-ui, -apple-system, sans-serif" font-size="12" fill="#1f2328" text-anchor="end">home-wiki</text>
  <rect x="793" y="36" width="155" height="120" rx="6" fill="#f6f8fa" stroke="#d0d7de" stroke-width="1" opacity="0.95" />
  <circle cx="810" cy="52" r="5" fill="#e74c3c" opacity="0.88" />
  <text x="820" y="56" font-family="system-ui, -apple-system, sans-serif" font-size="10" fill="#1f2328">Languages &amp; Compilers</text>
  <circle cx="810" cy="69" r="5" fill="#3498db" opacity="0.88" />
  <text x="820" y="73" font-family="system-ui, -apple-system, sans-serif" font-size="10" fill="#1f2328">Infrastructure &amp; DevOps</text>
  <circle cx="810" cy="86" r="5" fill="#e67e22" opacity="0.88" />
  <text x="820" y="90" font-family="system-ui, -apple-system, sans-serif" font-size="10" fill="#1f2328">Hardware &amp; Maker</text>
  <circle cx="810" cy="103" r="5" fill="#2ecc71" opacity="0.88" />
  <text x="820" y="107" font-family="system-ui, -apple-system, sans-serif" font-size="10" fill="#1f2328">ML &amp; Data</text>
  <circle cx="810" cy="120" r="5" fill="#9b59b6" opacity="0.88" />
  <text x="820" y="124" font-family="system-ui, -apple-system, sans-serif" font-size="10" fill="#1f2328">Web &amp; Apps</text>
  <circle cx="810" cy="137" r="5" fill="#7f8c8d" opacity="0.88" />
  <text x="820" y="141" font-family="system-ui, -apple-system, sans-serif" font-size="10" fill="#1f2328">Other</text>
  <text x="870" y="150" font-family="system-ui, -apple-system, sans-serif" font-size="8" fill="#656d76" text-anchor="middle">57 repos · 238 edges</text>
</svg>