<svg xmlns="http://www.w3.org/2000/svg" width="960" height="600" viewBox="0 0 960 600">
  <rect width="960" height="600" fill="#ffffff" rx="8" />
  <text x="480" y="24" font-family="system-ui, -apple-system, sans-serif" font-size="13" fill="#656d76" text-anchor="middle" font-weight="500">Repo Relationship Graph &#x2014; Pairwise Topic &amp; Language Similarity</text>
  <line x1="50" y1="550" x2="910" y2="550" stroke="#d0d7de" stroke-width="0.5" opacity="0.5" />
  <text x="50" y="570" font-family="system-ui, -apple-system, sans-serif" font-size="9" fill="#656d76" opacity="0.6">Updated daily by GitHub Actions</text>
  <text x="50" y="588" font-family="system-ui, -apple-system, sans-serif" font-size="9" fill="#656d76" opacity="0.6">networkx spring_layout · Jaccard similarity &gt; 0.15</text>
  <text x="910" y="570" font-family="system-ui, -apple-system, sans-serif" font-size="9" fill="#656d76" text-anchor="end" opacity="0.6">58 repos · 251 edges</text>
  <line x1="659.3" y1="159.8" x2="662.9" y2="148.9" stroke="#bcc3cd" stroke-width="1.0" opacity="0.23" />
  <line x1="659.3" y1="159.8" x2="683.8" y2="153.3" stroke="#bcc3cd" stroke-width="1.0" opacity="0.26" />
  <line x1="659.3" y1="159.8" x2="625.8" y2="158.9" stroke="#bcc3cd" stroke-width="0.9" opacity="0.17" />
  <line x1="659.3" y1="159.8" x2="600.4" y2="144.4" stroke="#bcc3cd" stroke-width="1.0" opacity="0.22" />
  <line x1="659.3" y1="159.8" x2="592.2" y2="172.1" stroke="#bcc3cd" stroke-width="0.9" opacity="0.18" />
  <line x1="659.3" y1="159.8" x2="667.8" y2="140.9" stroke="#bcc3cd" stroke-width="1.0" opacity="0.24" />
  <line x1="659.3" y1="159.8" x2="633.9" y2="146.9" stroke="#bcc3cd" stroke-width="0.9" opacity="0.21" />
  <line x1="659.3" y1="159.8" x2="629.0" y2="174.3" stroke="#bcc3cd" stroke-width="0.9" opacity="0.21" />
  <line x1="659.3" y1="159.8" x2="682.7" y2="167.8" stroke="#bcc3cd" stroke-width="1.1" opacity="0.30" />
  <line x1="659.3" y1="159.8" x2="685.9" y2="142.8" stroke="#bcc3cd" stroke-width="1.0" opacity="0.22" />
  <line x1="659.3" y1="159.8" x2="660.8" y2="132.9" stroke="#bcc3cd" stroke-width="1.0" opacity="0.22" />
  <line x1="659.3" y1="159.8" x2="713.0" y2="179.1" stroke="#bcc3cd" stroke-width="0.9" opacity="0.19" />
  <line x1="659.3" y1="159.8" x2="733.6" y2="151.6" stroke="#bcc3cd" stroke-width="0.9" opacity="0.21" />
  <line x1="659.3" y1="159.8" x2="728.9" y2="143.2" stroke="#bcc3cd" stroke-width="1.0" opacity="0.24" />
  <line x1="659.3" y1="159.8" x2="720.4" y2="128.1" stroke="#bcc3cd" stroke-width="0.9" opacity="0.17" />
  <line x1="668.2" y1="189.6" x2="662.9" y2="148.9" stroke="#bcc3cd" stroke-width="0.9" opacity="0.18" />
  <line x1="668.2" y1="189.6" x2="683.8" y2="153.3" stroke="#bcc3cd" stroke-width="1.0" opacity="0.25" />
  <line x1="668.2" y1="189.6" x2="629.0" y2="174.3" stroke="#bcc3cd" stroke-width="1.2" opacity="0.38" />
  <line x1="668.2" y1="189.6" x2="682.7" y2="167.8" stroke="#bcc3cd" stroke-width="1.2" opacity="0.34" />
  <line x1="668.2" y1="189.6" x2="702.7" y2="198.0" stroke="#bcc3cd" stroke-width="1.0" opacity="0.25" />
  <line x1="668.2" y1="189.6" x2="729.2" y2="171.0" stroke="#bcc3cd" stroke-width="0.9" opacity="0.20" />
  <line x1="668.2" y1="189.6" x2="711.1" y2="166.0" stroke="#bcc3cd" stroke-width="1.0" opacity="0.22" />
  <line x1="662.9" y1="148.9" x2="683.8" y2="153.3" stroke="#bcc3cd" stroke-width="1.3" opacity="0.42" />
  <line x1="662.9" y1="148.9" x2="625.8" y2="158.9" stroke="#bcc3cd" stroke-width="1.0" opacity="0.25" />
  <line x1="662.9" y1="148.9" x2="681.7" y2="116.4" stroke="#bcc3cd" stroke-width="0.9" opacity="0.19" />
  <line x1="662.9" y1="148.9" x2="600.4" y2="144.4" stroke="#bcc3cd" stroke-width="0.9" opacity="0.17" />
  <line x1="662.9" y1="148.9" x2="667.8" y2="140.9" stroke="#bcc3cd" stroke-width="1.1" opacity="0.29" />
  <line x1="662.9" y1="148.9" x2="633.9" y2="146.9" stroke="#bcc3cd" stroke-width="1.0" opacity="0.24" />
  <line x1="662.9" y1="148.9" x2="629.0" y2="174.3" stroke="#bcc3cd" stroke-width="0.9" opacity="0.17" />
  <line x1="662.9" y1="148.9" x2="682.7" y2="167.8" stroke="#bcc3cd" stroke-width="1.1" opacity="0.28" />
  <line x1="662.9" y1="148.9" x2="685.9" y2="142.8" stroke="#bcc3cd" stroke-width="1.0" opacity="0.26" />
  <line x1="662.9" y1="148.9" x2="660.8" y2="132.9" stroke="#bcc3cd" stroke-width="1.0" opacity="0.26" />
  <line x1="662.9" y1="148.9" x2="729.6" y2="125.0" stroke="#bcc3cd" stroke-width="0.9" opacity="0.18" />
  <line x1="662.9" y1="148.9" x2="728.9" y2="143.2" stroke="#bcc3cd" stroke-width="1.1" opacity="0.30" />
  <line x1="662.9" y1="148.9" x2="720.4" y2="128.1" stroke="#bcc3cd" stroke-width="1.0" opacity="0.22" />
  <line x1="683.8" y1="153.3" x2="625.8" y2="158.9" stroke="#bcc3cd" stroke-width="1.1" opacity="0.28" />
  <line x1="683.8" y1="153.3" x2="681.7" y2="116.4" stroke="#bcc3cd" stroke-width="1.0" opacity="0.22" />
  <line x1="683.8" y1="153.3" x2="600.4" y2="144.4" stroke="#bcc3cd" stroke-width="0.9" opacity="0.20" />
  <line x1="683.8" y1="153.3" x2="592.2" y2="172.1" stroke="#bcc3cd" stroke-width="1.0" opacity="0.23" />
  <line x1="683.8" y1="153.3" x2="667.8" y2="140.9" stroke="#bcc3cd" stroke-width="1.2" opacity="0.34" />
  <line x1="683.8" y1="153.3" x2="585.2" y2="133.1" stroke="#bcc3cd" stroke-width="1.0" opacity="0.24" />
  <line x1="683.8" y1="153.3" x2="633.9" y2="146.9" stroke="#bcc3cd" stroke-width="1.2" opacity="0.37" />
  <line x1="683.8" y1="153.3" x2="629.0" y2="174.3" stroke="#bcc3cd" stroke-width="0.9" opacity="0.19" />
  <line x1="683.8" y1="153.3" x2="682.7" y2="167.8" stroke="#bcc3cd" stroke-width="1.2" opacity="0.39" />
  <line x1="683.8" y1="153.3" x2="702.7" y2="198.0" stroke="#bcc3cd" stroke-width="0.9" opacity="0.19" />
  <line x1="683.8" y1="153.3" x2="685.9" y2="142.8" stroke="#bcc3cd" stroke-width="1.2" opacity="0.39" />
  <line x1="683.8" y1="153.3" x2="660.8" y2="132.9" stroke="#bcc3cd" stroke-width="1.1" opacity="0.29" />
  <line x1="683.8" y1="153.3" x2="692.6" y2="103.9" stroke="#bcc3cd" stroke-width="0.9" opacity="0.17" />
  <line x1="683.8" y1="153.3" x2="729.2" y2="171.0" stroke="#bcc3cd" stroke-width="1.2" opacity="0.34" />
  <line x1="683.8" y1="153.3" x2="711.1" y2="166.0" stroke="#bcc3cd" stroke-width="0.9" opacity="0.20" />
  <line x1="683.8" y1="153.3" x2="713.0" y2="179.1" stroke="#bcc3cd" stroke-width="1.0" opacity="0.24" />
  <line x1="683.8" y1="153.3" x2="727.1" y2="157.2" stroke="#bcc3cd" stroke-width="1.2" opacity="0.34" />
  <line x1="683.8" y1="153.3" x2="757.8" y2="147.5" stroke="#bcc3cd" stroke-width="1.0" opacity="0.22" />
  <line x1="683.8" y1="153.3" x2="715.7" y2="118.4" stroke="#bcc3cd" stroke-width="0.9" opacity="0.18" />
  <line x1="683.8" y1="153.3" x2="729.6" y2="125.0" stroke="#bcc3cd" stroke-width="1.0" opacity="0.22" />
  <line x1="683.8" y1="153.3" x2="733.6" y2="151.6" stroke="#bcc3cd" stroke-width="1.1" opacity="0.30" />
  <line x1="683.8" y1="153.3" x2="753.8" y2="164.5" stroke="#bcc3cd" stroke-width="1.0" opacity="0.26" />
  <line x1="683.8" y1="153.3" x2="728.9" y2="143.2" stroke="#bcc3cd" stroke-width="1.2" opacity="0.37" />
  <line x1="683.8" y1="153.3" x2="750.6" y2="131.2" stroke="#bcc3cd" stroke-width="0.9" opacity="0.17" />
  <line x1="683.8" y1="153.3" x2="746.9" y2="173.5" stroke="#bcc3cd" stroke-width="1.0" opacity="0.24" />
  <line x1="683.8" y1="153.3" x2="720.4" y2="128.1" stroke="#bcc3cd" stroke-width="1.1" opacity="0.28" />
  <line x1="625.8" y1="158.9" x2="592.2" y2="172.1" stroke="#bcc3cd" stroke-width="0.9" opacity="0.20" />
  <line x1="625.8" y1="158.9" x2="667.8" y2="140.9" stroke="#bcc3cd" stroke-width="0.9" opacity="0.20" />
  <line x1="625.8" y1="158.9" x2="633.9" y2="146.9" stroke="#bcc3cd" stroke-width="1.0" opacity="0.23" />
  <line x1="625.8" y1="158.9" x2="629.0" y2="174.3" stroke="#bcc3cd" stroke-width="1.0" opacity="0.23" />
  <line x1="625.8" y1="158.9" x2="685.9" y2="142.8" stroke="#bcc3cd" stroke-width="1.0" opacity="0.24" />
  <line x1="625.8" y1="158.9" x2="660.8" y2="132.9" stroke="#bcc3cd" stroke-width="0.9" opacity="0.18" />
  <line x1="681.7" y1="116.4" x2="729.6" y2="125.0" stroke="#bcc3cd" stroke-width="0.9" opacity="0.18" />
  <line x1="681.7" y1="116.4" x2="728.9" y2="143.2" stroke="#bcc3cd" stroke-width="1.1" opacity="0.30" />
  <line x1="681.7" y1="116.4" x2="720.4" y2="128.1" stroke="#bcc3cd" stroke-width="1.0" opacity="0.22" />
  <line x1="600.4" y1="144.4" x2="506.6" y2="132.0" stroke="#bcc3cd" stroke-width="1.1" opacity="0.33" />
  <line x1="600.4" y1="144.4" x2="592.2" y2="172.1" stroke="#bcc3cd" stroke-width="0.9" opacity="0.19" />
  <line x1="600.4" y1="144.4" x2="667.8" y2="140.9" stroke="#bcc3cd" stroke-width="0.9" opacity="0.18" />
  <line x1="600.4" y1="144.4" x2="585.2" y2="133.1" stroke="#bcc3cd" stroke-width="0.9" opacity="0.18" />
  <line x1="600.4" y1="144.4" x2="533.4" y2="125.4" stroke="#bcc3cd" stroke-width="1.3" opacity="0.41" />
  <line x1="600.4" y1="144.4" x2="629.0" y2="174.3" stroke="#bcc3cd" stroke-width="1.0" opacity="0.24" />
  <line x1="600.4" y1="144.4" x2="682.7" y2="167.8" stroke="#bcc3cd" stroke-width="0.9" opacity="0.19" />
  <line x1="600.4" y1="144.4" x2="720.4" y2="128.1" stroke="#bcc3cd" stroke-width="0.9" opacity="0.18" />
  <line x1="506.6" y1="132.0" x2="533.4" y2="125.4" stroke="#bcc3cd" stroke-width="0.9" opacity="0.18" />
  <line x1="592.2" y1="172.1" x2="633.9" y2="146.9" stroke="#bcc3cd" stroke-width="0.9" opacity="0.19" />
  <line x1="592.2" y1="172.1" x2="629.0" y2="174.3" stroke="#bcc3cd" stroke-width="0.9" opacity="0.19" />
  <line x1="592.2" y1="172.1" x2="682.7" y2="167.8" stroke="#bcc3cd" stroke-width="0.9" opacity="0.17" />
  <line x1="592.2" y1="172.1" x2="488.4" y2="179.4" stroke="#bcc3cd" stroke-width="1.0" opacity="0.22" />
  <line x1="667.8" y1="140.9" x2="633.9" y2="146.9" stroke="#bcc3cd" stroke-width="1.0" opacity="0.26" />
  <line x1="667.8" y1="140.9" x2="629.0" y2="174.3" stroke="#bcc3cd" stroke-width="0.9" opacity="0.18" />
  <line x1="667.8" y1="140.9" x2="682.7" y2="167.8" stroke="#bcc3cd" stroke-width="1.0" opacity="0.22" />
  <line x1="667.8" y1="140.9" x2="685.9" y2="142.8" stroke="#bcc3cd" stroke-width="1.1" opacity="0.28" />
  <line x1="667.8" y1="140.9" x2="660.8" y2="132.9" stroke="#bcc3cd" stroke-width="1.1" opacity="0.28" />
  <line x1="667.8" y1="140.9" x2="715.7" y2="118.4" stroke="#bcc3cd" stroke-width="0.9" opacity="0.17" />
  <line x1="667.8" y1="140.9" x2="729.6" y2="125.0" stroke="#bcc3cd" stroke-width="0.9" opacity="0.20" />
  <line x1="667.8" y1="140.9" x2="733.6" y2="151.6" stroke="#bcc3cd" stroke-width="0.9" opacity="0.17" />
  <line x1="667.8" y1="140.9" x2="728.9" y2="143.2" stroke="#bcc3cd" stroke-width="0.9" opacity="0.20" />
  <line x1="667.8" y1="140.9" x2="720.4" y2="128.1" stroke="#bcc3cd" stroke-width="1.0" opacity="0.24" />
  <line x1="585.2" y1="133.1" x2="633.9" y2="146.9" stroke="#bcc3cd" stroke-width="1.2" opacity="0.34" />
  <line x1="585.2" y1="133.1" x2="533.4" y2="125.4" stroke="#bcc3cd" stroke-width="0.9" opacity="0.17" />
  <line x1="633.9" y1="146.9" x2="629.0" y2="174.3" stroke="#bcc3cd" stroke-width="1.0" opacity="0.22" />
  <line x1="633.9" y1="146.9" x2="682.7" y2="167.8" stroke="#bcc3cd" stroke-width="0.9" opacity="0.19" />
  <line x1="633.9" y1="146.9" x2="685.9" y2="142.8" stroke="#bcc3cd" stroke-width="1.0" opacity="0.23" />
  <line x1="633.9" y1="146.9" x2="660.8" y2="132.9" stroke="#bcc3cd" stroke-width="1.0" opacity="0.23" />
  <line x1="633.9" y1="146.9" x2="720.4" y2="128.1" stroke="#bcc3cd" stroke-width="0.9" opacity="0.18" />
  <line x1="629.0" y1="174.3" x2="682.7" y2="167.8" stroke="#bcc3cd" stroke-width="0.9" opacity="0.19" />
  <line x1="682.7" y1="167.8" x2="702.7" y2="198.0" stroke="#bcc3cd" stroke-width="1.2" opacity="0.34" />
  <line x1="682.7" y1="167.8" x2="685.9" y2="142.8" stroke="#bcc3cd" stroke-width="0.9" opacity="0.20" />
  <line x1="682.7" y1="167.8" x2="660.8" y2="132.9" stroke="#bcc3cd" stroke-width="0.9" opacity="0.20" />
  <line x1="682.7" y1="167.8" x2="729.2" y2="171.0" stroke="#bcc3cd" stroke-width="1.2" opacity="0.37" />
  <line x1="682.7" y1="167.8" x2="711.1" y2="166.0" stroke="#bcc3cd" stroke-width="1.2" opacity="0.37" />
  <line x1="682.7" y1="167.8" x2="713.0" y2="179.1" stroke="#bcc3cd" stroke-width="1.1" opacity="0.29" />
  <line x1="682.7" y1="167.8" x2="727.1" y2="157.2" stroke="#bcc3cd" stroke-width="1.0" opacity="0.22" />
  <line x1="682.7" y1="167.8" x2="733.6" y2="151.6" stroke="#bcc3cd" stroke-width="1.2" opacity="0.34" />
  <line x1="682.7" y1="167.8" x2="753.8" y2="164.5" stroke="#bcc3cd" stroke-width="1.0" opacity="0.24" />
  <line x1="682.7" y1="167.8" x2="728.9" y2="143.2" stroke="#bcc3cd" stroke-width="1.1" opacity="0.29" />
  <line x1="682.7" y1="167.8" x2="746.9" y2="173.5" stroke="#bcc3cd" stroke-width="1.0" opacity="0.22" />
  <line x1="702.7" y1="198.0" x2="729.2" y2="171.0" stroke="#bcc3cd" stroke-width="1.0" opacity="0.25" />
  <line x1="702.7" y1="198.0" x2="711.1" y2="166.0" stroke="#bcc3cd" stroke-width="1.1" opacity="0.29" />
  <line x1="702.7" y1="198.0" x2="746.9" y2="173.5" stroke="#bcc3cd" stroke-width="0.9" opacity="0.17" />
  <line x1="764.0" y1="190.2" x2="729.2" y2="171.0" stroke="#bcc3cd" stroke-width="0.9" opacity="0.18" />
  <line x1="764.0" y1="190.2" x2="711.1" y2="166.0" stroke="#bcc3cd" stroke-width="0.9" opacity="0.18" />
  <line x1="764.0" y1="190.2" x2="733.6" y2="151.6" stroke="#bcc3cd" stroke-width="0.9" opacity="0.17" />
  <line x1="764.0" y1="190.2" x2="753.8" y2="164.5" stroke="#bcc3cd" stroke-width="1.3" opacity="0.42" />
  <line x1="764.0" y1="190.2" x2="728.9" y2="143.2" stroke="#bcc3cd" stroke-width="0.9" opacity="0.19" />
  <line x1="764.0" y1="190.2" x2="746.9" y2="173.5" stroke="#bcc3cd" stroke-width="0.9" opacity="0.21" />
  <line x1="685.9" y1="142.8" x2="660.8" y2="132.9" stroke="#bcc3cd" stroke-width="1.0" opacity="0.24" />
  <line x1="685.9" y1="142.8" x2="727.1" y2="157.2" stroke="#bcc3cd" stroke-width="0.9" opacity="0.19" />
  <line x1="685.9" y1="142.8" x2="757.8" y2="147.5" stroke="#bcc3cd" stroke-width="0.9" opacity="0.18" />
  <line x1="685.9" y1="142.8" x2="729.6" y2="125.0" stroke="#bcc3cd" stroke-width="0.9" opacity="0.17" />
  <line x1="685.9" y1="142.8" x2="728.9" y2="143.2" stroke="#bcc3cd" stroke-width="0.9" opacity="0.17" />
  <line x1="685.9" y1="142.8" x2="720.4" y2="128.1" stroke="#bcc3cd" stroke-width="0.9" opacity="0.20" />
  <line x1="660.8" y1="132.9" x2="729.6" y2="125.0" stroke="#bcc3cd" stroke-width="0.9" opacity="0.17" />
  <line x1="660.8" y1="132.9" x2="728.9" y2="143.2" stroke="#bcc3cd" stroke-width="0.9" opacity="0.17" />
  <line x1="660.8" y1="132.9" x2="720.4" y2="128.1" stroke="#bcc3cd" stroke-width="0.9" opacity="0.20" />
  <line x1="687.4" y1="56.2" x2="692.6" y2="103.9" stroke="#bcc3cd" stroke-width="1.3" opacity="0.44" />
  <line x1="687.4" y1="56.2" x2="726.9" y2="61.2" stroke="#bcc3cd" stroke-width="0.9" opacity="0.18" />
  <line x1="692.6" y1="103.9" x2="759.2" y2="106.5" stroke="#bcc3cd" stroke-width="1.1" opacity="0.31" />
  <line x1="692.6" y1="103.9" x2="715.7" y2="118.4" stroke="#bcc3cd" stroke-width="0.9" opacity="0.20" />
  <line x1="692.6" y1="103.9" x2="729.6" y2="125.0" stroke="#bcc3cd" stroke-width="1.0" opacity="0.24" />
  <line x1="692.6" y1="103.9" x2="733.6" y2="151.6" stroke="#bcc3cd" stroke-width="0.9" opacity="0.20" />
  <line x1="692.6" y1="103.9" x2="728.9" y2="143.2" stroke="#bcc3cd" stroke-width="1.0" opacity="0.24" />
  <line x1="692.6" y1="103.9" x2="750.6" y2="131.2" stroke="#bcc3cd" stroke-width="0.9" opacity="0.18" />
  <line x1="692.6" y1="103.9" x2="522.3" y2="151.1" stroke="#bcc3cd" stroke-width="0.9" opacity="0.17" />
  <line x1="692.6" y1="103.9" x2="750.1" y2="98.8" stroke="#bcc3cd" stroke-width="1.1" opacity="0.31" />
  <line x1="692.6" y1="103.9" x2="726.9" y2="61.2" stroke="#bcc3cd" stroke-width="1.1" opacity="0.30" />
  <line x1="692.6" y1="103.9" x2="720.4" y2="128.1" stroke="#bcc3cd" stroke-width="1.1" opacity="0.31" />
  <line x1="301.7" y1="463.4" x2="329.4" y2="462.4" stroke="#bcc3cd" stroke-width="1.6" opacity="0.60" />
  <line x1="600.1" y1="90.1" x2="711.1" y2="166.0" stroke="#bcc3cd" stroke-width="0.9" opacity="0.18" />
  <line x1="600.1" y1="90.1" x2="536.0" y2="50.0" stroke="#bcc3cd" stroke-width="1.1" opacity="0.28" />
  <line x1="784.4" y1="164.5" x2="729.2" y2="171.0" stroke="#bcc3cd" stroke-width="0.9" opacity="0.17" />
  <line x1="784.4" y1="164.5" x2="711.1" y2="166.0" stroke="#bcc3cd" stroke-width="0.9" opacity="0.18" />
  <line x1="784.4" y1="164.5" x2="727.1" y2="157.2" stroke="#bcc3cd" stroke-width="1.0" opacity="0.22" />
  <line x1="784.4" y1="164.5" x2="733.6" y2="151.6" stroke="#bcc3cd" stroke-width="1.1" opacity="0.28" />
  <line x1="784.4" y1="164.5" x2="753.8" y2="164.5" stroke="#bcc3cd" stroke-width="1.1" opacity="0.32" />
  <line x1="784.4" y1="164.5" x2="728.9" y2="143.2" stroke="#bcc3cd" stroke-width="0.9" opacity="0.20" />
  <line x1="784.4" y1="164.5" x2="746.9" y2="173.5" stroke="#bcc3cd" stroke-width="1.0" opacity="0.22" />
  <line x1="784.4" y1="164.5" x2="795.1" y2="134.2" stroke="#bcc3cd" stroke-width="1.0" opacity="0.22" />
  <line x1="729.2" y1="171.0" x2="711.1" y2="166.0" stroke="#bcc3cd" stroke-width="1.3" opacity="0.42" />
  <line x1="729.2" y1="171.0" x2="774.6" y2="180.9" stroke="#bcc3cd" stroke-width="0.9" opacity="0.18" />
  <line x1="729.2" y1="171.0" x2="713.0" y2="179.1" stroke="#bcc3cd" stroke-width="1.1" opacity="0.31" />
  <line x1="729.2" y1="171.0" x2="727.1" y2="157.2" stroke="#bcc3cd" stroke-width="1.1" opacity="0.32" />
  <line x1="729.2" y1="171.0" x2="757.8" y2="147.5" stroke="#bcc3cd" stroke-width="1.0" opacity="0.23" />
  <line x1="729.2" y1="171.0" x2="733.6" y2="151.6" stroke="#bcc3cd" stroke-width="1.2" opacity="0.39" />
  <line x1="729.2" y1="171.0" x2="753.8" y2="164.5" stroke="#bcc3cd" stroke-width="1.0" opacity="0.26" />
  <line x1="729.2" y1="171.0" x2="728.9" y2="143.2" stroke="#bcc3cd" stroke-width="1.2" opacity="0.34" />
  <line x1="729.2" y1="171.0" x2="750.6" y2="131.2" stroke="#bcc3cd" stroke-width="0.9" opacity="0.19" />
  <line x1="729.2" y1="171.0" x2="746.9" y2="173.5" stroke="#bcc3cd" stroke-width="1.0" opacity="0.25" />
  <line x1="729.2" y1="171.0" x2="720.4" y2="128.1" stroke="#bcc3cd" stroke-width="0.9" opacity="0.17" />
  <line x1="711.1" y1="166.0" x2="774.6" y2="180.9" stroke="#bcc3cd" stroke-width="1.1" opacity="0.33" />
  <line x1="711.1" y1="166.0" x2="713.0" y2="179.1" stroke="#bcc3cd" stroke-width="0.9" opacity="0.21" />
  <line x1="711.1" y1="166.0" x2="727.1" y2="157.2" stroke="#bcc3cd" stroke-width="0.9" opacity="0.18" />
  <line x1="711.1" y1="166.0" x2="733.6" y2="151.6" stroke="#bcc3cd" stroke-width="1.3" opacity="0.41" />
  <line x1="711.1" y1="166.0" x2="753.8" y2="164.5" stroke="#bcc3cd" stroke-width="1.0" opacity="0.22" />
  <line x1="711.1" y1="166.0" x2="728.9" y2="143.2" stroke="#bcc3cd" stroke-width="1.1" opacity="0.31" />
  <line x1="711.1" y1="166.0" x2="746.9" y2="173.5" stroke="#bcc3cd" stroke-width="1.7" opacity="0.66" />
  <line x1="766.2" y1="117.4" x2="759.2" y2="106.5" stroke="#bcc3cd" stroke-width="1.5" opacity="0.55" />
  <line x1="766.2" y1="117.4" x2="715.7" y2="118.4" stroke="#bcc3cd" stroke-width="0.9" opacity="0.18" />
  <line x1="766.2" y1="117.4" x2="729.6" y2="125.0" stroke="#bcc3cd" stroke-width="1.1" opacity="0.28" />
  <line x1="766.2" y1="117.4" x2="733.6" y2="151.6" stroke="#bcc3cd" stroke-width="0.9" opacity="0.18" />
  <line x1="766.2" y1="117.4" x2="728.9" y2="143.2" stroke="#bcc3cd" stroke-width="1.1" opacity="0.28" />
  <line x1="766.2" y1="117.4" x2="782.9" y2="110.4" stroke="#bcc3cd" stroke-width="1.5" opacity="0.55" />
  <line x1="766.2" y1="117.4" x2="795.1" y2="134.2" stroke="#bcc3cd" stroke-width="1.2" opacity="0.37" />
  <line x1="766.2" y1="117.4" x2="750.1" y2="98.8" stroke="#bcc3cd" stroke-width="1.5" opacity="0.55" />
  <line x1="766.2" y1="117.4" x2="720.4" y2="128.1" stroke="#bcc3cd" stroke-width="1.5" opacity="0.55" />
  <line x1="759.2" y1="106.5" x2="729.6" y2="125.0" stroke="#bcc3cd" stroke-width="1.0" opacity="0.22" />
  <line x1="759.2" y1="106.5" x2="728.9" y2="143.2" stroke="#bcc3cd" stroke-width="1.0" opacity="0.22" />
  <line x1="759.2" y1="106.5" x2="782.9" y2="110.4" stroke="#bcc3cd" stroke-width="1.2" opacity="0.37" />
  <line x1="759.2" y1="106.5" x2="795.1" y2="134.2" stroke="#bcc3cd" stroke-width="1.1" opacity="0.28" />
  <line x1="759.2" y1="106.5" x2="750.1" y2="98.8" stroke="#bcc3cd" stroke-width="1.2" opacity="0.37" />
  <line x1="759.2" y1="106.5" x2="720.4" y2="128.1" stroke="#bcc3cd" stroke-width="1.2" opacity="0.37" />
  <line x1="774.6" y1="180.9" x2="733.6" y2="151.6" stroke="#bcc3cd" stroke-width="0.9" opacity="0.18" />
  <line x1="774.6" y1="180.9" x2="753.8" y2="164.5" stroke="#bcc3cd" stroke-width="0.9" opacity="0.18" />
  <line x1="774.6" y1="180.9" x2="728.9" y2="143.2" stroke="#bcc3cd" stroke-width="1.0" opacity="0.22" />
  <line x1="774.6" y1="180.9" x2="746.9" y2="173.5" stroke="#bcc3cd" stroke-width="1.3" opacity="0.41" />
  <line x1="713.0" y1="179.1" x2="727.1" y2="157.2" stroke="#bcc3cd" stroke-width="1.1" opacity="0.31" />
  <line x1="713.0" y1="179.1" x2="733.6" y2="151.6" stroke="#bcc3cd" stroke-width="1.4" opacity="0.47" />
  <line x1="713.0" y1="179.1" x2="753.8" y2="164.5" stroke="#bcc3cd" stroke-width="0.9" opacity="0.19" />
  <line x1="713.0" y1="179.1" x2="728.9" y2="143.2" stroke="#bcc3cd" stroke-width="1.0" opacity="0.22" />
  <line x1="727.1" y1="157.2" x2="757.8" y2="147.5" stroke="#bcc3cd" stroke-width="1.1" opacity="0.29" />
  <line x1="727.1" y1="157.2" x2="715.7" y2="118.4" stroke="#bcc3cd" stroke-width="0.9" opacity="0.17" />
  <line x1="727.1" y1="157.2" x2="729.6" y2="125.0" stroke="#bcc3cd" stroke-width="0.9" opacity="0.20" />
  <line x1="727.1" y1="157.2" x2="733.6" y2="151.6" stroke="#bcc3cd" stroke-width="1.3" opacity="0.40" />
  <line x1="727.1" y1="157.2" x2="753.8" y2="164.5" stroke="#bcc3cd" stroke-width="1.0" opacity="0.24" />
  <line x1="727.1" y1="157.2" x2="728.9" y2="143.2" stroke="#bcc3cd" stroke-width="0.9" opacity="0.20" />
  <line x1="727.1" y1="157.2" x2="720.4" y2="128.1" stroke="#bcc3cd" stroke-width="1.0" opacity="0.24" />
  <line x1="757.8" y1="147.5" x2="729.6" y2="125.0" stroke="#bcc3cd" stroke-width="0.9" opacity="0.18" />
  <line x1="757.8" y1="147.5" x2="753.8" y2="164.5" stroke="#bcc3cd" stroke-width="1.0" opacity="0.23" />
  <line x1="757.8" y1="147.5" x2="728.9" y2="143.2" stroke="#bcc3cd" stroke-width="0.9" opacity="0.18" />
  <line x1="757.8" y1="147.5" x2="750.6" y2="131.2" stroke="#bcc3cd" stroke-width="1.0" opacity="0.24" />
  <line x1="757.8" y1="147.5" x2="720.4" y2="128.1" stroke="#bcc3cd" stroke-width="1.0" opacity="0.22" />
  <line x1="715.7" y1="118.4" x2="729.6" y2="125.0" stroke="#bcc3cd" stroke-width="1.1" opacity="0.28" />
  <line x1="715.7" y1="118.4" x2="733.6" y2="151.6" stroke="#bcc3cd" stroke-width="1.0" opacity="0.22" />
  <line x1="715.7" y1="118.4" x2="728.9" y2="143.2" stroke="#bcc3cd" stroke-width="1.1" opacity="0.28" />
  <line x1="715.7" y1="118.4" x2="750.6" y2="131.2" stroke="#bcc3cd" stroke-width="0.9" opacity="0.20" />
  <line x1="715.7" y1="118.4" x2="720.4" y2="128.1" stroke="#bcc3cd" stroke-width="1.2" opacity="0.37" />
  <line x1="729.6" y1="125.0" x2="733.6" y2="151.6" stroke="#bcc3cd" stroke-width="1.1" opacity="0.28" />
  <line x1="729.6" y1="125.0" x2="728.9" y2="143.2" stroke="#bcc3cd" stroke-width="1.2" opacity="0.37" />
  <line x1="729.6" y1="125.0" x2="782.9" y2="110.4" stroke="#bcc3cd" stroke-width="1.0" opacity="0.22" />
  <line x1="729.6" y1="125.0" x2="750.6" y2="131.2" stroke="#bcc3cd" stroke-width="1.0" opacity="0.24" />
  <line x1="729.6" y1="125.0" x2="795.1" y2="134.2" stroke="#bcc3cd" stroke-width="0.9" opacity="0.18" />
  <line x1="729.6" y1="125.0" x2="750.1" y2="98.8" stroke="#bcc3cd" stroke-width="1.0" opacity="0.22" />
  <line x1="729.6" y1="125.0" x2="720.4" y2="128.1" stroke="#bcc3cd" stroke-width="1.5" opacity="0.55" />
  <line x1="733.6" y1="151.6" x2="753.8" y2="164.5" stroke="#bcc3cd" stroke-width="1.1" opacity="0.29" />
  <line x1="733.6" y1="151.6" x2="728.9" y2="143.2" stroke="#bcc3cd" stroke-width="1.4" opacity="0.47" />
  <line x1="733.6" y1="151.6" x2="750.6" y2="131.2" stroke="#bcc3cd" stroke-width="0.9" opacity="0.20" />
  <line x1="733.6" y1="151.6" x2="746.9" y2="173.5" stroke="#bcc3cd" stroke-width="1.1" opacity="0.31" />
  <line x1="733.6" y1="151.6" x2="795.1" y2="134.2" stroke="#bcc3cd" stroke-width="1.1" opacity="0.31" />
  <line x1="733.6" y1="151.6" x2="720.4" y2="128.1" stroke="#bcc3cd" stroke-width="1.2" opacity="0.37" />
  <line x1="753.8" y1="164.5" x2="728.9" y2="143.2" stroke="#bcc3cd" stroke-width="1.2" opacity="0.34" />
  <line x1="753.8" y1="164.5" x2="746.9" y2="173.5" stroke="#bcc3cd" stroke-width="1.0" opacity="0.25" />
  <line x1="753.8" y1="164.5" x2="795.1" y2="134.2" stroke="#bcc3cd" stroke-width="1.0" opacity="0.25" />
  <line x1="753.8" y1="164.5" x2="720.4" y2="128.1" stroke="#bcc3cd" stroke-width="0.9" opacity="0.17" />
  <line x1="728.9" y1="143.2" x2="782.9" y2="110.4" stroke="#bcc3cd" stroke-width="1.0" opacity="0.22" />
  <line x1="728.9" y1="143.2" x2="750.6" y2="131.2" stroke="#bcc3cd" stroke-width="1.0" opacity="0.24" />
  <line x1="728.9" y1="143.2" x2="746.9" y2="173.5" stroke="#bcc3cd" stroke-width="1.3" opacity="0.44" />
  <line x1="728.9" y1="143.2" x2="795.1" y2="134.2" stroke="#bcc3cd" stroke-width="1.3" opacity="0.44" />
  <line x1="728.9" y1="143.2" x2="750.1" y2="98.8" stroke="#bcc3cd" stroke-width="1.0" opacity="0.22" />
  <line x1="728.9" y1="143.2" x2="720.4" y2="128.1" stroke="#bcc3cd" stroke-width="1.5" opacity="0.55" />
  <line x1="126.6" y1="66.6" x2="95.2" y2="80.8" stroke="#bcc3cd" stroke-width="1.0" opacity="0.22" />
  <line x1="794.6" y1="70.4" x2="720.4" y2="128.1" stroke="#bcc3cd" stroke-width="1.0" opacity="0.22" />
  <line x1="782.9" y1="110.4" x2="795.1" y2="134.2" stroke="#bcc3cd" stroke-width="1.1" opacity="0.28" />
  <line x1="782.9" y1="110.4" x2="750.1" y2="98.8" stroke="#bcc3cd" stroke-width="1.2" opacity="0.37" />
  <line x1="782.9" y1="110.4" x2="720.4" y2="128.1" stroke="#bcc3cd" stroke-width="1.2" opacity="0.37" />
  <line x1="452.3" y1="174.6" x2="488.4" y2="179.4" stroke="#bcc3cd" stroke-width="1.5" opacity="0.55" />
  <line x1="452.3" y1="174.6" x2="522.3" y2="151.1" stroke="#bcc3cd" stroke-width="1.3" opacity="0.41" />
  <line x1="488.4" y1="179.4" x2="522.3" y2="151.1" stroke="#bcc3cd" stroke-width="1.0" opacity="0.24" />
  <line x1="750.6" y1="131.2" x2="720.4" y2="128.1" stroke="#bcc3cd" stroke-width="1.1" opacity="0.31" />
  <line x1="746.9" y1="173.5" x2="795.1" y2="134.2" stroke="#bcc3cd" stroke-width="1.0" opacity="0.22" />
  <line x1="795.1" y1="134.2" x2="885.1" y2="128.2" stroke="#bcc3cd" stroke-width="1.2" opacity="0.37" />
  <line x1="795.1" y1="134.2" x2="910.0" y2="142.1" stroke="#bcc3cd" stroke-width="0.9" opacity="0.18" />
  <line x1="795.1" y1="134.2" x2="750.1" y2="98.8" stroke="#bcc3cd" stroke-width="1.1" opacity="0.28" />
  <line x1="795.1" y1="134.2" x2="720.4" y2="128.1" stroke="#bcc3cd" stroke-width="1.1" opacity="0.28" />
  <line x1="885.1" y1="128.2" x2="910.0" y2="142.1" stroke="#bcc3cd" stroke-width="1.1" opacity="0.28" />
  <line x1="750.1" y1="98.8" x2="726.9" y2="61.2" stroke="#bcc3cd" stroke-width="1.1" opacity="0.31" />
  <line x1="750.1" y1="98.8" x2="720.4" y2="128.1" stroke="#bcc3cd" stroke-width="1.2" opacity="0.37" />
  <circle cx="659.3" cy="159.8" r="15.8" fill="#7f8c8d" opacity="0.88" />
  <circle cx="668.2" cy="189.6" r="16" fill="#3498db" opacity="0.88" />
  <circle cx="662.9" cy="148.9" r="13.1" fill="#e67e22" opacity="0.88" />
  <circle cx="683.8" cy="153.3" r="11.3" fill="#3498db" opacity="0.88" />
  <circle cx="625.8" cy="158.9" r="16" fill="#7f8c8d" opacity="0.88" />
  <circle cx="681.7" cy="116.4" r="13.1" fill="#e67e22" opacity="0.88" />
  <circle cx="600.4" cy="144.4" r="8.6" fill="#3498db" opacity="0.88" />
  <circle cx="506.6" cy="132.0" r="11.3" fill="#3498db" opacity="0.88" />
  <circle cx="592.2" cy="172.1" r="16" fill="#2ecc71" opacity="0.88" />
  <circle cx="667.8" cy="140.9" r="12.2" fill="#3498db" opacity="0.88" />
  <circle cx="585.2" cy="133.1" r="12.2" fill="#7f8c8d" opacity="0.88" />
  <circle cx="633.9" cy="146.9" r="14.9" fill="#7f8c8d" opacity="0.88" />
  <circle cx="533.4" cy="125.4" r="9.5" fill="#7f8c8d" opacity="0.88" />
  <circle cx="629.0" cy="174.3" r="14.9" fill="#3498db" opacity="0.88" />
  <circle cx="682.7" cy="167.8" r="16" fill="#7f8c8d" opacity="0.88" />
  <circle cx="702.7" cy="198.0" r="16" fill="#e74c3c" opacity="0.88" />
  <circle cx="764.0" cy="190.2" r="16" fill="#9b59b6" opacity="0.88" />
  <circle cx="685.9" cy="142.8" r="14.0" fill="#3498db" opacity="0.88" />
  <circle cx="660.8" cy="132.9" r="14.0" fill="#3498db" opacity="0.88" />
  <circle cx="687.4" cy="56.2" r="10.4" fill="#e74c3c" opacity="0.88" />
  <circle cx="50.0" cy="248.3" r="12.2" fill="#3498db" opacity="0.88" />
  <circle cx="692.6" cy="103.9" r="10.4" fill="#e74c3c" opacity="0.88" />
  <circle cx="301.7" cy="463.4" r="12.2" fill="#3498db" opacity="0.88" />
  <circle cx="329.4" cy="462.4" r="11.3" fill="#3498db" opacity="0.88" />
  <circle cx="600.1" cy="90.1" r="5.9" fill="#3498db" opacity="0.88" />
  <circle cx="784.4" cy="164.5" r="12.2" fill="#9b59b6" opacity="0.88" />
  <circle cx="729.2" cy="171.0" r="15.8" fill="#9b59b6" opacity="0.88" />
  <circle cx="711.1" cy="166.0" r="8.6" fill="#9b59b6" opacity="0.88" />
  <circle cx="766.2" cy="117.4" r="5" fill="#2ecc71" opacity="0.88" />
  <circle cx="759.2" cy="106.5" r="5.9" fill="#7f8c8d" opacity="0.88" />
  <circle cx="774.6" cy="180.9" r="11.3" fill="#e67e22" opacity="0.88" />
  <circle cx="713.0" cy="179.1" r="16" fill="#2ecc71" opacity="0.88" />
  <circle cx="536.0" cy="50.0" r="6.8" fill="#9b59b6" opacity="0.88" />
  <circle cx="153.7" cy="394.4" r="5" fill="#7f8c8d" opacity="0.88" />
  <circle cx="727.1" cy="157.2" r="12.2" fill="#3498db" opacity="0.88" />
  <circle cx="757.8" cy="147.5" r="13.1" fill="#7f8c8d" opacity="0.88" />
  <circle cx="715.7" cy="118.4" r="9.5" fill="#7f8c8d" opacity="0.88" />
  <circle cx="777.0" cy="473.0" r="5" fill="#7f8c8d" opacity="0.88" />
  <circle cx="729.6" cy="125.0" r="7.7" fill="#7f8c8d" opacity="0.88" />
  <circle cx="733.6" cy="151.6" r="9.5" fill="#7f8c8d" opacity="0.88" />
  <circle cx="753.8" cy="164.5" r="15.8" fill="#2ecc71" opacity="0.88" />
  <circle cx="728.9" cy="143.2" r="7.7" fill="#7f8c8d" opacity="0.88" />
  <circle cx="126.6" cy="66.6" r="7.7" fill="#7f8c8d" opacity="0.88" />
  <circle cx="794.6" cy="70.4" r="7.7" fill="#3498db" opacity="0.88" />
  <circle cx="782.9" cy="110.4" r="5.9" fill="#7f8c8d" opacity="0.88" />
  <circle cx="452.3" cy="174.6" r="6.8" fill="#e67e22" opacity="0.88" />
  <circle cx="488.4" cy="179.4" r="6.8" fill="#e67e22" opacity="0.88" />
  <circle cx="750.6" cy="131.2" r="10.4" fill="#7f8c8d" opacity="0.88" />
  <circle cx="522.3" cy="151.1" r="11.3" fill="#e67e22" opacity="0.88" />
  <circle cx="95.2" cy="80.8" r="5.9" fill="#7f8c8d" opacity="0.88" />
  <circle cx="746.9" cy="173.5" r="6.8" fill="#7f8c8d" opacity="0.88" />
  <circle cx="795.1" cy="134.2" r="6.8" fill="#7f8c8d" opacity="0.88" />
  <circle cx="885.1" cy="128.2" r="5" fill="#2ecc71" opacity="0.88" />
  <circle cx="910.0" cy="142.1" r="7.7" fill="#2ecc71" opacity="0.88" />
  <circle cx="750.1" cy="98.8" r="5.9" fill="#e74c3c" opacity="0.88" />
  <circle cx="726.9" cy="61.2" r="10.4" fill="#e74c3c" opacity="0.88" />
  <circle cx="720.4" cy="128.1" r="5.9" fill="#7f8c8d" opacity="0.88" />
  <circle cx="620.6" cy="500.0" r="5" fill="#7f8c8d" opacity="0.88" />
  <rect x="677.1" y="50.5" width="124.4" height="15" fill="#ffffff" opacity="0.75" rx="2" />
  <text x="678.1" y="61.5" font-family="system-ui, -apple-system, sans-serif" font-size="12" fill="#1f2328" text-anchor="start">tinyland-huskycat</text>
  <rect x="686.2" y="306.2" width="117.2" height="15" fill="#ffffff" opacity="0.75" rx="2" />
  <text x="687.2" y="317.2" font-family="system-ui, -apple-system, sans-serif" font-size="12" fill="#1f2328" text-anchor="start">GloriousFlywheel</text>
  <rect x="678.0" y="97.6" width="45.2" height="15" fill="#ffffff" opacity="0.75" rx="2" />
  <text x="679.0" y="108.6" font-family="system-ui, -apple-system, sans-serif" font-size="12" fill="#1f2328" text-anchor="start">XoxdWM</text>
  <rect x="697.1" y="235.4" width="203.6" height="15" fill="#ffffff" opacity="0.75" rx="2" />
  <text x="698.1" y="246.4" font-family="system-ui, -apple-system, sans-serif" font-size="12" fill="#1f2328" text-anchor="start">winrm-molecule-forkbomb-demo</text>
  <rect x="643.8" y="145.5" width="74.0" height="15" fill="#ffffff" opacity="0.75" rx="2" />
  <text x="644.8" y="156.5" font-family="system-ui, -apple-system, sans-serif" font-size="12" fill="#1f2328" text-anchor="start">tummycrypt</text>
  <rect x="696.8" y="177.9" width="110.0" height="15" fill="#ffffff" opacity="0.75" rx="2" />
  <text x="697.8" y="188.9" font-family="system-ui, -apple-system, sans-serif" font-size="12" fill="#1f2328" text-anchor="start">hiberpower-ntfs</text>
  <rect x="611.0" y="128.8" width="16.4" height="15" fill="#ffffff" opacity="0.75" rx="2" />
  <text x="612.0" y="139.8" font-family="system-ui, -apple-system, sans-serif" font-size="12" fill="#1f2328" text-anchor="start">pp</text>
  <rect x="519.9" y="114.0" width="117.2" height="15" fill="#ffffff" opacity="0.75" rx="2" />
  <text x="520.9" y="125.0" font-family="system-ui, -apple-system, sans-serif" font-size="12" fill="#1f2328" text-anchor="start">tinyland-cleanup</text>
  <rect x="610.2" y="161.0" width="59.6" height="15" fill="#ffffff" opacity="0.75" rx="2" />
  <text x="611.2" y="172.0" font-family="system-ui, -apple-system, sans-serif" font-size="12" fill="#1f2328" text-anchor="start">gnucashr</text>
  <rect x="682.0" y="173.0" width="66.8" height="15" fill="#ffffff" opacity="0.75" rx="2" />
  <text x="683.0" y="184.0" font-family="system-ui, -apple-system, sans-serif" font-size="12" fill="#1f2328" text-anchor="start">betterkvm</text>
  <rect x="599.4" y="221.6" width="131.6" height="15" fill="#ffffff" opacity="0.75" rx="2" />
  <text x="600.4" y="232.6" font-family="system-ui, -apple-system, sans-serif" font-size="12" fill="#1f2328" text-anchor="start">aperture-bootstrap</text>
  <rect x="650.8" y="130.8" width="81.2" height="15" fill="#ffffff" opacity="0.75" rx="2" />
  <text x="651.8" y="141.8" font-family="system-ui, -apple-system, sans-serif" font-size="12" fill="#1f2328" text-anchor="start">tailnet-acl</text>
  <rect x="544.9" y="98.7" width="88.4" height="15" fill="#ffffff" opacity="0.75" rx="2" />
  <text x="545.9" y="109.7" font-family="system-ui, -apple-system, sans-serif" font-size="12" fill="#1f2328" text-anchor="start">waifu-mirror</text>
  <rect x="645.9" y="207.4" width="102.8" height="15" fill="#ffffff" opacity="0.75" rx="2" />
  <text x="646.9" y="218.4" font-family="system-ui, -apple-system, sans-serif" font-size="12" fill="#1f2328" text-anchor="start">tinyland-infra</text>
  <rect x="700.7" y="112.2" width="52.4" height="15" fill="#ffffff" opacity="0.75" rx="2" />
  <text x="701.7" y="123.2" font-family="system-ui, -apple-system, sans-serif" font-size="12" fill="#1f2328" text-anchor="start">LA-Mesh</text>
  <rect x="720.7" y="320.9" width="131.6" height="15" fill="#ffffff" opacity="0.75" rx="2" />
  <text x="721.7" y="331.9" font-family="system-ui, -apple-system, sans-serif" font-size="12" fill="#1f2328" text-anchor="start">pixelwise-research</text>
  <rect x="782.0" y="58.0" width="95.6" height="15" fill="#ffffff" opacity="0.75" rx="2" />
  <text x="783.0" y="69.0" font-family="system-ui, -apple-system, sans-serif" font-size="12" fill="#1f2328" text-anchor="start">GIS_Shortcuts</text>
  <rect x="701.9" y="261.6" width="138.8" height="15" fill="#ffffff" opacity="0.75" rx="2" />
  <text x="702.9" y="272.6" font-family="system-ui, -apple-system, sans-serif" font-size="12" fill="#1f2328" text-anchor="start">Ansible-DAG-Harness</text>
  <rect x="676.8" y="32.3" width="95.6" height="15" fill="#ffffff" opacity="0.75" rx="2" />
  <text x="677.8" y="43.3" font-family="system-ui, -apple-system, sans-serif" font-size="12" fill="#1f2328" text-anchor="start">DarwinNicUtil</text>
  <rect x="699.8" y="-46.1" width="66.8" height="15" fill="#ffffff" opacity="0.75" rx="2" />
  <text x="700.8" y="-35.1" font-family="system-ui, -apple-system, sans-serif" font-size="12" fill="#1f2328" text-anchor="start">quickchpl</text>
  <rect x="64.2" y="241.5" width="131.6" height="15" fill="#ffffff" opacity="0.75" rx="2" />
  <text x="65.2" y="252.5" font-family="system-ui, -apple-system, sans-serif" font-size="12" fill="#1f2328" text-anchor="start">tinyscale-mikrotik</text>
  <rect x="705.0" y="59.8" width="59.6" height="15" fill="#ffffff" opacity="0.75" rx="2" />
  <text x="706.0" y="70.8" font-family="system-ui, -apple-system, sans-serif" font-size="12" fill="#1f2328" text-anchor="start">aoc-2025</text>
  <rect x="315.9" y="464.6" width="66.8" height="15" fill="#ffffff" opacity="0.75" rx="2" />
  <text x="316.9" y="475.6" font-family="system-ui, -apple-system, sans-serif" font-size="12" fill="#1f2328" text-anchor="start">searchies</text>
  <rect x="342.7" y="447.6" width="59.6" height="15" fill="#ffffff" opacity="0.75" rx="2" />
  <text x="343.7" y="458.6" font-family="system-ui, -apple-system, sans-serif" font-size="12" fill="#1f2328" text-anchor="start">ts-caddy</text>
  <rect x="608.0" y="81.7" width="66.8" height="15" fill="#ffffff" opacity="0.75" rx="2" />
  <text x="609.0" y="92.7" font-family="system-ui, -apple-system, sans-serif" font-size="12" fill="#1f2328" text-anchor="start">HCI-notes</text>
  <rect x="798.6" y="227.6" width="88.4" height="15" fill="#ffffff" opacity="0.75" rx="2" />
  <text x="799.6" y="238.6" font-family="system-ui, -apple-system, sans-serif" font-size="12" fill="#1f2328" text-anchor="start">FastPhotoAPI</text>
  <rect x="747.0" y="147.9" width="81.2" height="15" fill="#ffffff" opacity="0.75" rx="2" />
  <text x="748.0" y="158.9" font-family="system-ui, -apple-system, sans-serif" font-size="12" fill="#1f2328" text-anchor="start">timberbuddy</text>
  <rect x="721.7" y="248.2" width="81.2" height="15" fill="#ffffff" opacity="0.75" rx="2" />
  <text x="722.7" y="259.2" font-family="system-ui, -apple-system, sans-serif" font-size="12" fill="#1f2328" text-anchor="start">tetrahedron</text>
  <rect x="773.2" y="25.1" width="95.6" height="15" fill="#ffffff" opacity="0.75" rx="2" />
  <text x="774.2" y="36.1" font-family="system-ui, -apple-system, sans-serif" font-size="12" fill="#1f2328" text-anchor="start">AccuWixReport</text>
  <rect x="767.1" y="116.2" width="95.6" height="15" fill="#ffffff" opacity="0.75" rx="2" />
  <text x="768.1" y="127.2" font-family="system-ui, -apple-system, sans-serif" font-size="12" fill="#1f2328" text-anchor="start">Jess-AOC-2023</text>
  <rect x="787.9" y="38.3" width="81.2" height="15" fill="#ffffff" opacity="0.75" rx="2" />
  <text x="788.9" y="49.3" font-family="system-ui, -apple-system, sans-serif" font-size="12" fill="#1f2328" text-anchor="start">TurkeyProbe</text>
  <rect x="731.0" y="293.8" width="153.2" height="15" fill="#ffffff" opacity="0.75" rx="2" />
  <text x="732.0" y="304.8" font-family="system-ui, -apple-system, sans-serif" font-size="12" fill="#1f2328" text-anchor="start">MerlinAI-Interpreters</text>
  <rect x="544.8" y="43.2" width="110.0" height="15" fill="#ffffff" opacity="0.75" rx="2" />
  <text x="545.8" y="54.2" font-family="system-ui, -apple-system, sans-serif" font-size="12" fill="#1f2328" text-anchor="start">IntroTypeScript</text>
  <rect x="160.7" y="387.6" width="110.0" height="15" fill="#ffffff" opacity="0.75" rx="2" />
  <text x="161.7" y="398.6" font-family="system-ui, -apple-system, sans-serif" font-size="12" fill="#1f2328" text-anchor="start">IG-3DP-Profiles</text>
  <rect x="741.3" y="124.0" width="66.8" height="15" fill="#ffffff" opacity="0.75" rx="2" />
  <text x="742.3" y="135.0" font-family="system-ui, -apple-system, sans-serif" font-size="12" fill="#1f2328" text-anchor="start">DLA-Flask</text>
  <rect x="772.9" y="198.2" width="38.0" height="15" fill="#ffffff" opacity="0.75" rx="2" />
  <text x="773.9" y="209.2" font-family="system-ui, -apple-system, sans-serif" font-size="12" fill="#1f2328" text-anchor="start">USBoN</text>
  <rect x="727.2" y="-19.5" width="203.6" height="15" fill="#ffffff" opacity="0.75" rx="2" />
  <text x="728.2" y="-8.5" font-family="system-ui, -apple-system, sans-serif" font-size="12" fill="#1f2328" text-anchor="start">chrome-remote-desktop-budgie</text>
  <rect x="784.0" y="466.2" width="124.4" height="15" fill="#ffffff" opacity="0.75" rx="2" />
  <text x="785.0" y="477.2" font-family="system-ui, -apple-system, sans-serif" font-size="12" fill="#1f2328" text-anchor="start">OminousBeepingApp</text>
  <rect x="739.3" y="97.6" width="138.8" height="15" fill="#ffffff" opacity="0.75" rx="2" />
  <text x="740.3" y="108.6" font-family="system-ui, -apple-system, sans-serif" font-size="12" fill="#1f2328" text-anchor="start">mo-image-identifier</text>
  <rect x="745.1" y="276.8" width="196.4" height="15" fill="#ffffff" opacity="0.75" rx="2" />
  <text x="746.1" y="287.8" font-family="system-ui, -apple-system, sans-serif" font-size="12" fill="#1f2328" text-anchor="start">squirrel-leaflet-annotation</text>
  <rect x="771.6" y="106.8" width="74.0" height="15" fill="#ffffff" opacity="0.75" rx="2" />
  <text x="772.6" y="117.8" font-family="system-ui, -apple-system, sans-serif" font-size="12" fill="#1f2328" text-anchor="start">Shiny-Apps</text>
  <rect x="738.6" y="185.7" width="138.8" height="15" fill="#ffffff" opacity="0.75" rx="2" />
  <text x="739.6" y="196.7" font-family="system-ui, -apple-system, sans-serif" font-size="12" fill="#1f2328" text-anchor="start">bbox-jest-puppeteer</text>
  <rect x="136.3" y="59.8" width="88.4" height="15" fill="#ffffff" opacity="0.75" rx="2" />
  <text x="137.3" y="70.8" font-family="system-ui, -apple-system, sans-serif" font-size="12" fill="#1f2328" text-anchor="start">DoverDisplay</text>
  <rect x="703.7" y="-33.9" width="81.2" height="15" fill="#ffffff" opacity="0.75" rx="2" />
  <text x="783.9" y="-22.9" font-family="system-ui, -apple-system, sans-serif" font-size="12" fill="#1f2328" text-anchor="end">LeafletSync</text>
  <rect x="790.8" y="162.9" width="167.6" height="15" fill="#ffffff" opacity="0.75" rx="2" />
  <text x="791.8" y="173.9" font-family="system-ui, -apple-system, sans-serif" font-size="12" fill="#1f2328" text-anchor="start">misc-roi-distance-notes</text>
  <rect x="461.1" y="161.7" width="138.8" height="15" fill="#ffffff" opacity="0.75" rx="2" />
  <text x="462.1" y="172.7" font-family="system-ui, -apple-system, sans-serif" font-size="12" fill="#1f2328" text-anchor="start">Arduino_Coil_Winder</text>
  <rect x="497.2" y="178.7" width="30.8" height="15" fill="#ffffff" opacity="0.75" rx="2" />
  <text x="498.2" y="189.7" font-family="system-ui, -apple-system, sans-serif" font-size="12" fill="#1f2328" text-anchor="start">momo</text>
  <rect x="763.0" y="141.0" width="38.0" height="15" fill="#ffffff" opacity="0.75" rx="2" />
  <text x="764.0" y="152.0" font-family="system-ui, -apple-system, sans-serif" font-size="12" fill="#1f2328" text-anchor="start">clipi</text>
  <rect x="535.6" y="143.4" width="110.0" height="15" fill="#ffffff" opacity="0.75" rx="2" />
  <text x="536.6" y="154.4" font-family="system-ui, -apple-system, sans-serif" font-size="12" fill="#1f2328" text-anchor="start">AeroTaz5_hotfix</text>
  <rect x="103.1" y="74.0" width="110.0" height="15" fill="#ffffff" opacity="0.75" rx="2" />
  <text x="104.1" y="85.0" font-family="system-ui, -apple-system, sans-serif" font-size="12" fill="#1f2328" text-anchor="start">Funmat-HT-Notes</text>
  <rect x="755.7" y="215.2" width="81.2" height="15" fill="#ffffff" opacity="0.75" rx="2" />
  <text x="756.7" y="226.2" font-family="system-ui, -apple-system, sans-serif" font-size="12" fill="#1f2328" text-anchor="start">static-site</text>
  <rect x="690.7" y="162.5" width="95.6" height="15" fill="#ffffff" opacity="0.75" rx="2" />
  <text x="785.3" y="173.5" font-family="system-ui, -apple-system, sans-serif" font-size="12" fill="#1f2328" text-anchor="end">Flask-Manager</text>
  <rect x="768.1" y="11.3" width="110.0" height="15" fill="#ffffff" opacity="0.75" rx="2" />
  <text x="877.1" y="22.3" font-family="system-ui, -apple-system, sans-serif" font-size="12" fill="#1f2328" text-anchor="end">FieldProcessing</text>
  <rect x="819.1" y="133.2" width="81.2" height="15" fill="#ffffff" opacity="0.75" rx="2" />
  <text x="899.3" y="144.2" font-family="system-ui, -apple-system, sans-serif" font-size="12" fill="#1f2328" text-anchor="end">rJDKmanager</text>
  <rect x="758.0" y="69.2" width="59.6" height="15" fill="#ffffff" opacity="0.75" rx="2" />
  <text x="759.0" y="80.2" font-family="system-ui, -apple-system, sans-serif" font-size="12" fill="#1f2328" text-anchor="start">tagnotes</text>
  <rect x="739.3" y="-5.7" width="81.2" height="15" fill="#ffffff" opacity="0.75" rx="2" />
  <text x="740.3" y="5.3" font-family="system-ui, -apple-system, sans-serif" font-size="12" fill="#1f2328" text-anchor="start">ChapelTests</text>
  <rect x="728.3" y="86.2" width="88.4" height="15" fill="#ffffff" opacity="0.75" rx="2" />
  <text x="729.3" y="97.2" font-family="system-ui, -apple-system, sans-serif" font-size="12" fill="#1f2328" text-anchor="start">Xfinity-WiFi</text>
  <rect x="627.6" y="493.2" width="66.8" height="15" fill="#ffffff" opacity="0.75" rx="2" />
  <text x="628.6" y="504.2" font-family="system-ui, -apple-system, sans-serif" font-size="12" fill="#1f2328" text-anchor="start">home-wiki</text>
  <rect x="793" y="36" width="155" height="120" rx="6" fill="#f6f8fa" stroke="#d0d7de" stroke-width="1" opacity="0.95" />
  <circle cx="810" cy="52" r="5" fill="#e74c3c" opacity="0.88" />
  <text x="820" y="56" font-family="system-ui, -apple-system, sans-serif" font-size="10" fill="#1f2328">Languages &amp; Compilers</text>
  <circle cx="810" cy="69" r="5" fill="#3498db" opacity="0.88" />
  <text x="820" y="73" font-family="system-ui, -apple-system, sans-serif" font-size="10" fill="#1f2328">Infrastructure &amp; DevOps</text>
  <circle cx="810" cy="86" r="5" fill="#e67e22" opacity="0.88" />
  <text x="820" y="90" font-family="system-ui, -apple-system, sans-serif" font-size="10" fill="#1f2328">Hardware &amp; Maker</text>
  <circle cx="810" cy="103" r="5" fill="#2ecc71" opacity="0.88" />
  <text x="820" y="107" font-family="system-ui, -apple-system, sans-serif" font-size="10" fill="#1f2328">ML &amp; Data</text>
  <circle cx="810" cy="120" r="5" fill="#9b59b6" opacity="0.88" />
  <text x="820" y="124" font-family="system-ui, -apple-system, sans-serif" font-size="10" fill="#1f2328">Web &amp; Apps</text>
  <circle cx="810" cy="137" r="5" fill="#7f8c8d" opacity="0.88" />
  <text x="820" y="141" font-family="system-ui, -apple-system, sans-serif" font-size="10" fill="#1f2328">Other</text>
  <text x="870" y="150" font-family="system-ui, -apple-system, sans-serif" font-size="8" fill="#656d76" text-anchor="middle">58 repos · 251 edges</text>
</svg>