<svg xmlns="http://www.w3.org/2000/svg" width="960" height="600" viewBox="0 0 960 600">
  <rect width="960" height="600" fill="#0d1117" rx="8" />
  <text x="480" y="24" font-family="system-ui, -apple-system, sans-serif" font-size="13" fill="#8b949e" text-anchor="middle" font-weight="500">Repo Relationship Graph &#x2014; Pairwise Topic &amp; Language Similarity</text>
  <line x1="50" y1="550" x2="910" y2="550" stroke="#484f58" stroke-width="0.5" opacity="0.5" />
  <text x="50" y="570" font-family="system-ui, -apple-system, sans-serif" font-size="9" fill="#8b949e" opacity="0.6">Updated daily by GitHub Actions</text>
  <text x="50" y="588" font-family="system-ui, -apple-system, sans-serif" font-size="9" fill="#8b949e" opacity="0.6">networkx spring_layout · Jaccard similarity &gt; 0.15</text>
  <text x="910" y="570" font-family="system-ui, -apple-system, sans-serif" font-size="9" fill="#8b949e" text-anchor="end" opacity="0.6">58 repos · 231 edges</text>
  <line x1="663.1" y1="134.7" x2="659.6" y2="143.3" stroke="#6e7681" stroke-width="1.0" opacity="0.23" />
  <line x1="663.1" y1="134.7" x2="595.3" y2="131.7" stroke="#6e7681" stroke-width="1.0" opacity="0.22" />
  <line x1="663.1" y1="134.7" x2="585.7" y2="155.2" stroke="#6e7681" stroke-width="0.9" opacity="0.18" />
  <line x1="663.1" y1="134.7" x2="673.6" y2="150.7" stroke="#6e7681" stroke-width="1.0" opacity="0.24" />
  <line x1="663.1" y1="134.7" x2="625.2" y2="148.9" stroke="#6e7681" stroke-width="0.9" opacity="0.20" />
  <line x1="663.1" y1="134.7" x2="624.5" y2="139.7" stroke="#6e7681" stroke-width="0.9" opacity="0.21" />
  <line x1="663.1" y1="134.7" x2="630.0" y2="117.8" stroke="#6e7681" stroke-width="0.9" opacity="0.21" />
  <line x1="663.1" y1="134.7" x2="692.5" y2="126.1" stroke="#6e7681" stroke-width="1.1" opacity="0.30" />
  <line x1="663.1" y1="134.7" x2="677.7" y2="141.7" stroke="#6e7681" stroke-width="1.0" opacity="0.22" />
  <line x1="663.1" y1="134.7" x2="662.7" y2="159.1" stroke="#6e7681" stroke-width="1.0" opacity="0.22" />
  <line x1="663.1" y1="134.7" x2="726.8" y2="119.5" stroke="#6e7681" stroke-width="0.9" opacity="0.19" />
  <line x1="663.1" y1="134.7" x2="748.5" y2="143.4" stroke="#6e7681" stroke-width="0.9" opacity="0.21" />
  <line x1="663.1" y1="134.7" x2="738.9" y2="151.7" stroke="#6e7681" stroke-width="1.0" opacity="0.24" />
  <line x1="663.1" y1="134.7" x2="718.0" y2="165.9" stroke="#6e7681" stroke-width="0.9" opacity="0.17" />
  <line x1="659.6" y1="143.3" x2="593.4" y2="123.2" stroke="#6e7681" stroke-width="0.9" opacity="0.21" />
  <line x1="659.6" y1="143.3" x2="684.3" y2="180.0" stroke="#6e7681" stroke-width="0.9" opacity="0.19" />
  <line x1="659.6" y1="143.3" x2="595.3" y2="131.7" stroke="#6e7681" stroke-width="0.9" opacity="0.17" />
  <line x1="659.6" y1="143.3" x2="673.6" y2="150.7" stroke="#6e7681" stroke-width="1.1" opacity="0.29" />
  <line x1="659.6" y1="143.3" x2="625.2" y2="148.9" stroke="#6e7681" stroke-width="1.0" opacity="0.23" />
  <line x1="659.6" y1="143.3" x2="682.7" y2="99.5" stroke="#6e7681" stroke-width="0.9" opacity="0.18" />
  <line x1="659.6" y1="143.3" x2="624.5" y2="139.7" stroke="#6e7681" stroke-width="1.0" opacity="0.24" />
  <line x1="659.6" y1="143.3" x2="630.0" y2="117.8" stroke="#6e7681" stroke-width="0.9" opacity="0.17" />
  <line x1="659.6" y1="143.3" x2="692.5" y2="126.1" stroke="#6e7681" stroke-width="1.1" opacity="0.28" />
  <line x1="659.6" y1="143.3" x2="677.7" y2="141.7" stroke="#6e7681" stroke-width="1.0" opacity="0.26" />
  <line x1="659.6" y1="143.3" x2="662.7" y2="159.1" stroke="#6e7681" stroke-width="1.0" opacity="0.26" />
  <line x1="659.6" y1="143.3" x2="729.6" y2="169.0" stroke="#6e7681" stroke-width="0.9" opacity="0.18" />
  <line x1="659.6" y1="143.3" x2="738.9" y2="151.7" stroke="#6e7681" stroke-width="1.1" opacity="0.30" />
  <line x1="659.6" y1="143.3" x2="718.0" y2="165.9" stroke="#6e7681" stroke-width="1.0" opacity="0.22" />
  <line x1="593.4" y1="123.2" x2="585.7" y2="155.2" stroke="#6e7681" stroke-width="0.9" opacity="0.17" />
  <line x1="593.4" y1="123.2" x2="625.2" y2="148.9" stroke="#6e7681" stroke-width="1.0" opacity="0.24" />
  <line x1="593.4" y1="123.2" x2="624.5" y2="139.7" stroke="#6e7681" stroke-width="0.9" opacity="0.19" />
  <line x1="593.4" y1="123.2" x2="532.8" y2="113.7" stroke="#6e7681" stroke-width="0.9" opacity="0.18" />
  <line x1="593.4" y1="123.2" x2="630.0" y2="117.8" stroke="#6e7681" stroke-width="1.0" opacity="0.25" />
  <line x1="593.4" y1="123.2" x2="677.7" y2="141.7" stroke="#6e7681" stroke-width="0.9" opacity="0.20" />
  <line x1="684.3" y1="180.0" x2="729.6" y2="169.0" stroke="#6e7681" stroke-width="0.9" opacity="0.18" />
  <line x1="684.3" y1="180.0" x2="738.9" y2="151.7" stroke="#6e7681" stroke-width="1.1" opacity="0.30" />
  <line x1="684.3" y1="180.0" x2="718.0" y2="165.9" stroke="#6e7681" stroke-width="1.0" opacity="0.22" />
  <line x1="595.3" y1="131.7" x2="502.7" y2="114.2" stroke="#6e7681" stroke-width="1.1" opacity="0.33" />
  <line x1="595.3" y1="131.7" x2="585.7" y2="155.2" stroke="#6e7681" stroke-width="0.9" opacity="0.19" />
  <line x1="595.3" y1="131.7" x2="673.6" y2="150.7" stroke="#6e7681" stroke-width="0.9" opacity="0.18" />
  <line x1="595.3" y1="131.7" x2="549.2" y2="135.9" stroke="#6e7681" stroke-width="0.9" opacity="0.18" />
  <line x1="595.3" y1="131.7" x2="532.8" y2="113.7" stroke="#6e7681" stroke-width="1.3" opacity="0.41" />
  <line x1="595.3" y1="131.7" x2="630.0" y2="117.8" stroke="#6e7681" stroke-width="1.0" opacity="0.24" />
  <line x1="595.3" y1="131.7" x2="692.5" y2="126.1" stroke="#6e7681" stroke-width="0.9" opacity="0.19" />
  <line x1="595.3" y1="131.7" x2="718.0" y2="165.9" stroke="#6e7681" stroke-width="0.9" opacity="0.18" />
  <line x1="502.7" y1="114.2" x2="532.8" y2="113.7" stroke="#6e7681" stroke-width="0.9" opacity="0.18" />
  <line x1="585.7" y1="155.2" x2="625.2" y2="148.9" stroke="#6e7681" stroke-width="1.0" opacity="0.24" />
  <line x1="585.7" y1="155.2" x2="624.5" y2="139.7" stroke="#6e7681" stroke-width="0.9" opacity="0.19" />
  <line x1="585.7" y1="155.2" x2="630.0" y2="117.8" stroke="#6e7681" stroke-width="0.9" opacity="0.19" />
  <line x1="585.7" y1="155.2" x2="692.5" y2="126.1" stroke="#6e7681" stroke-width="0.9" opacity="0.17" />
  <line x1="585.7" y1="155.2" x2="519.8" y2="212.8" stroke="#6e7681" stroke-width="1.0" opacity="0.22" />
  <line x1="673.6" y1="150.7" x2="625.2" y2="148.9" stroke="#6e7681" stroke-width="1.0" opacity="0.24" />
  <line x1="673.6" y1="150.7" x2="624.5" y2="139.7" stroke="#6e7681" stroke-width="1.0" opacity="0.26" />
  <line x1="673.6" y1="150.7" x2="630.0" y2="117.8" stroke="#6e7681" stroke-width="0.9" opacity="0.18" />
  <line x1="673.6" y1="150.7" x2="692.5" y2="126.1" stroke="#6e7681" stroke-width="1.0" opacity="0.22" />
  <line x1="673.6" y1="150.7" x2="677.7" y2="141.7" stroke="#6e7681" stroke-width="1.1" opacity="0.28" />
  <line x1="673.6" y1="150.7" x2="662.7" y2="159.1" stroke="#6e7681" stroke-width="1.1" opacity="0.28" />
  <line x1="673.6" y1="150.7" x2="732.5" y2="177.0" stroke="#6e7681" stroke-width="0.9" opacity="0.17" />
  <line x1="673.6" y1="150.7" x2="729.6" y2="169.0" stroke="#6e7681" stroke-width="0.9" opacity="0.20" />
  <line x1="673.6" y1="150.7" x2="748.5" y2="143.4" stroke="#6e7681" stroke-width="0.9" opacity="0.17" />
  <line x1="673.6" y1="150.7" x2="738.9" y2="151.7" stroke="#6e7681" stroke-width="0.9" opacity="0.20" />
  <line x1="673.6" y1="150.7" x2="718.0" y2="165.9" stroke="#6e7681" stroke-width="1.0" opacity="0.24" />
  <line x1="625.2" y1="148.9" x2="549.2" y2="135.9" stroke="#6e7681" stroke-width="0.9" opacity="0.17" />
  <line x1="625.2" y1="148.9" x2="624.5" y2="139.7" stroke="#6e7681" stroke-width="1.1" opacity="0.28" />
  <line x1="625.2" y1="148.9" x2="692.5" y2="126.1" stroke="#6e7681" stroke-width="0.9" opacity="0.18" />
  <line x1="625.2" y1="148.9" x2="677.7" y2="141.7" stroke="#6e7681" stroke-width="1.0" opacity="0.22" />
  <line x1="625.2" y1="148.9" x2="662.7" y2="159.1" stroke="#6e7681" stroke-width="1.0" opacity="0.22" />
  <line x1="625.2" y1="148.9" x2="718.0" y2="165.9" stroke="#6e7681" stroke-width="0.9" opacity="0.17" />
  <line x1="682.7" y1="99.5" x2="630.0" y2="117.8" stroke="#6e7681" stroke-width="1.2" opacity="0.38" />
  <line x1="682.7" y1="99.5" x2="692.5" y2="126.1" stroke="#6e7681" stroke-width="1.2" opacity="0.34" />
  <line x1="682.7" y1="99.5" x2="729.8" y2="89.8" stroke="#6e7681" stroke-width="1.0" opacity="0.25" />
  <line x1="682.7" y1="99.5" x2="747.4" y2="122.8" stroke="#6e7681" stroke-width="0.9" opacity="0.20" />
  <line x1="682.7" y1="99.5" x2="737.1" y2="108.5" stroke="#6e7681" stroke-width="1.0" opacity="0.22" />
  <line x1="549.2" y1="135.9" x2="624.5" y2="139.7" stroke="#6e7681" stroke-width="1.2" opacity="0.34" />
  <line x1="549.2" y1="135.9" x2="532.8" y2="113.7" stroke="#6e7681" stroke-width="0.9" opacity="0.17" />
  <line x1="624.5" y1="139.7" x2="630.0" y2="117.8" stroke="#6e7681" stroke-width="1.0" opacity="0.22" />
  <line x1="624.5" y1="139.7" x2="692.5" y2="126.1" stroke="#6e7681" stroke-width="0.9" opacity="0.19" />
  <line x1="624.5" y1="139.7" x2="677.7" y2="141.7" stroke="#6e7681" stroke-width="1.0" opacity="0.23" />
  <line x1="624.5" y1="139.7" x2="662.7" y2="159.1" stroke="#6e7681" stroke-width="1.0" opacity="0.23" />
  <line x1="624.5" y1="139.7" x2="718.0" y2="165.9" stroke="#6e7681" stroke-width="0.9" opacity="0.18" />
  <line x1="630.0" y1="117.8" x2="692.5" y2="126.1" stroke="#6e7681" stroke-width="0.9" opacity="0.19" />
  <line x1="692.5" y1="126.1" x2="729.8" y2="89.8" stroke="#6e7681" stroke-width="1.2" opacity="0.34" />
  <line x1="692.5" y1="126.1" x2="677.7" y2="141.7" stroke="#6e7681" stroke-width="0.9" opacity="0.20" />
  <line x1="692.5" y1="126.1" x2="662.7" y2="159.1" stroke="#6e7681" stroke-width="0.9" opacity="0.20" />
  <line x1="692.5" y1="126.1" x2="747.4" y2="122.8" stroke="#6e7681" stroke-width="1.2" opacity="0.37" />
  <line x1="692.5" y1="126.1" x2="737.1" y2="108.5" stroke="#6e7681" stroke-width="1.2" opacity="0.37" />
  <line x1="692.5" y1="126.1" x2="726.8" y2="119.5" stroke="#6e7681" stroke-width="1.1" opacity="0.29" />
  <line x1="692.5" y1="126.1" x2="740.3" y2="135.8" stroke="#6e7681" stroke-width="1.0" opacity="0.22" />
  <line x1="692.5" y1="126.1" x2="748.5" y2="143.4" stroke="#6e7681" stroke-width="1.2" opacity="0.34" />
  <line x1="692.5" y1="126.1" x2="772.0" y2="132.8" stroke="#6e7681" stroke-width="1.0" opacity="0.24" />
  <line x1="692.5" y1="126.1" x2="738.9" y2="151.7" stroke="#6e7681" stroke-width="1.1" opacity="0.29" />
  <line x1="692.5" y1="126.1" x2="771.0" y2="121.3" stroke="#6e7681" stroke-width="1.0" opacity="0.22" />
  <line x1="729.8" y1="89.8" x2="747.4" y2="122.8" stroke="#6e7681" stroke-width="1.0" opacity="0.25" />
  <line x1="729.8" y1="89.8" x2="737.1" y2="108.5" stroke="#6e7681" stroke-width="1.1" opacity="0.29" />
  <line x1="729.8" y1="89.8" x2="771.0" y2="121.3" stroke="#6e7681" stroke-width="0.9" opacity="0.17" />
  <line x1="804.8" y1="117.5" x2="747.4" y2="122.8" stroke="#6e7681" stroke-width="0.9" opacity="0.18" />
  <line x1="804.8" y1="117.5" x2="737.1" y2="108.5" stroke="#6e7681" stroke-width="0.9" opacity="0.18" />
  <line x1="804.8" y1="117.5" x2="748.5" y2="143.4" stroke="#6e7681" stroke-width="0.9" opacity="0.17" />
  <line x1="804.8" y1="117.5" x2="772.0" y2="132.8" stroke="#6e7681" stroke-width="1.3" opacity="0.42" />
  <line x1="804.8" y1="117.5" x2="738.9" y2="151.7" stroke="#6e7681" stroke-width="0.9" opacity="0.19" />
  <line x1="804.8" y1="117.5" x2="771.0" y2="121.3" stroke="#6e7681" stroke-width="0.9" opacity="0.21" />
  <line x1="677.7" y1="141.7" x2="662.7" y2="159.1" stroke="#6e7681" stroke-width="1.0" opacity="0.24" />
  <line x1="677.7" y1="141.7" x2="740.3" y2="135.8" stroke="#6e7681" stroke-width="0.9" opacity="0.19" />
  <line x1="677.7" y1="141.7" x2="729.1" y2="144.2" stroke="#6e7681" stroke-width="0.9" opacity="0.18" />
  <line x1="677.7" y1="141.7" x2="729.6" y2="169.0" stroke="#6e7681" stroke-width="0.9" opacity="0.17" />
  <line x1="677.7" y1="141.7" x2="738.9" y2="151.7" stroke="#6e7681" stroke-width="0.9" opacity="0.17" />
  <line x1="677.7" y1="141.7" x2="718.0" y2="165.9" stroke="#6e7681" stroke-width="0.9" opacity="0.20" />
  <line x1="662.7" y1="159.1" x2="729.6" y2="169.0" stroke="#6e7681" stroke-width="0.9" opacity="0.17" />
  <line x1="662.7" y1="159.1" x2="738.9" y2="151.7" stroke="#6e7681" stroke-width="0.9" opacity="0.17" />
  <line x1="662.7" y1="159.1" x2="718.0" y2="165.9" stroke="#6e7681" stroke-width="0.9" opacity="0.20" />
  <line x1="666.8" y1="243.4" x2="704.5" y2="201.1" stroke="#6e7681" stroke-width="1.3" opacity="0.44" />
  <line x1="666.8" y1="243.4" x2="719.2" y2="237.1" stroke="#6e7681" stroke-width="0.9" opacity="0.18" />
  <line x1="704.5" y1="201.1" x2="759.9" y2="189.4" stroke="#6e7681" stroke-width="1.1" opacity="0.31" />
  <line x1="704.5" y1="201.1" x2="732.5" y2="177.0" stroke="#6e7681" stroke-width="0.9" opacity="0.20" />
  <line x1="704.5" y1="201.1" x2="729.6" y2="169.0" stroke="#6e7681" stroke-width="1.0" opacity="0.24" />
  <line x1="704.5" y1="201.1" x2="748.5" y2="143.4" stroke="#6e7681" stroke-width="0.9" opacity="0.20" />
  <line x1="704.5" y1="201.1" x2="738.9" y2="151.7" stroke="#6e7681" stroke-width="1.0" opacity="0.24" />
  <line x1="704.5" y1="201.1" x2="760.7" y2="164.3" stroke="#6e7681" stroke-width="0.9" opacity="0.18" />
  <line x1="704.5" y1="201.1" x2="565.6" y2="233.9" stroke="#6e7681" stroke-width="0.9" opacity="0.17" />
  <line x1="704.5" y1="201.1" x2="749.8" y2="197.0" stroke="#6e7681" stroke-width="1.1" opacity="0.31" />
  <line x1="704.5" y1="201.1" x2="719.2" y2="237.1" stroke="#6e7681" stroke-width="1.1" opacity="0.30" />
  <line x1="704.5" y1="201.1" x2="718.0" y2="165.9" stroke="#6e7681" stroke-width="1.1" opacity="0.31" />
  <line x1="326.0" y1="471.2" x2="354.8" y2="470.7" stroke="#6e7681" stroke-width="1.6" opacity="0.60" />
  <line x1="613.1" y1="54.8" x2="737.1" y2="108.5" stroke="#6e7681" stroke-width="0.9" opacity="0.18" />
  <line x1="613.1" y1="54.8" x2="512.8" y2="50.0" stroke="#6e7681" stroke-width="1.1" opacity="0.28" />
  <line x1="800.3" y1="133.9" x2="747.4" y2="122.8" stroke="#6e7681" stroke-width="0.9" opacity="0.17" />
  <line x1="800.3" y1="133.9" x2="737.1" y2="108.5" stroke="#6e7681" stroke-width="0.9" opacity="0.18" />
  <line x1="800.3" y1="133.9" x2="740.3" y2="135.8" stroke="#6e7681" stroke-width="1.0" opacity="0.22" />
  <line x1="800.3" y1="133.9" x2="748.5" y2="143.4" stroke="#6e7681" stroke-width="1.1" opacity="0.28" />
  <line x1="800.3" y1="133.9" x2="772.0" y2="132.8" stroke="#6e7681" stroke-width="1.1" opacity="0.32" />
  <line x1="800.3" y1="133.9" x2="738.9" y2="151.7" stroke="#6e7681" stroke-width="0.9" opacity="0.20" />
  <line x1="800.3" y1="133.9" x2="771.0" y2="121.3" stroke="#6e7681" stroke-width="1.0" opacity="0.22" />
  <line x1="800.3" y1="133.9" x2="800.8" y2="167.2" stroke="#6e7681" stroke-width="1.0" opacity="0.22" />
  <line x1="747.4" y1="122.8" x2="737.1" y2="108.5" stroke="#6e7681" stroke-width="1.3" opacity="0.42" />
  <line x1="747.4" y1="122.8" x2="785.5" y2="107.5" stroke="#6e7681" stroke-width="0.9" opacity="0.18" />
  <line x1="747.4" y1="122.8" x2="726.8" y2="119.5" stroke="#6e7681" stroke-width="1.1" opacity="0.31" />
  <line x1="747.4" y1="122.8" x2="740.3" y2="135.8" stroke="#6e7681" stroke-width="1.1" opacity="0.32" />
  <line x1="747.4" y1="122.8" x2="729.1" y2="144.2" stroke="#6e7681" stroke-width="1.0" opacity="0.23" />
  <line x1="747.4" y1="122.8" x2="748.5" y2="143.4" stroke="#6e7681" stroke-width="1.2" opacity="0.39" />
  <line x1="747.4" y1="122.8" x2="772.0" y2="132.8" stroke="#6e7681" stroke-width="1.0" opacity="0.26" />
  <line x1="747.4" y1="122.8" x2="738.9" y2="151.7" stroke="#6e7681" stroke-width="1.2" opacity="0.34" />
  <line x1="747.4" y1="122.8" x2="760.7" y2="164.3" stroke="#6e7681" stroke-width="0.9" opacity="0.19" />
  <line x1="747.4" y1="122.8" x2="771.0" y2="121.3" stroke="#6e7681" stroke-width="1.0" opacity="0.25" />
  <line x1="747.4" y1="122.8" x2="718.0" y2="165.9" stroke="#6e7681" stroke-width="0.9" opacity="0.17" />
  <line x1="737.1" y1="108.5" x2="785.5" y2="107.5" stroke="#6e7681" stroke-width="1.1" opacity="0.33" />
  <line x1="737.1" y1="108.5" x2="726.8" y2="119.5" stroke="#6e7681" stroke-width="0.9" opacity="0.21" />
  <line x1="737.1" y1="108.5" x2="740.3" y2="135.8" stroke="#6e7681" stroke-width="0.9" opacity="0.18" />
  <line x1="737.1" y1="108.5" x2="748.5" y2="143.4" stroke="#6e7681" stroke-width="1.3" opacity="0.41" />
  <line x1="737.1" y1="108.5" x2="772.0" y2="132.8" stroke="#6e7681" stroke-width="1.0" opacity="0.22" />
  <line x1="737.1" y1="108.5" x2="738.9" y2="151.7" stroke="#6e7681" stroke-width="1.1" opacity="0.31" />
  <line x1="737.1" y1="108.5" x2="771.0" y2="121.3" stroke="#6e7681" stroke-width="1.7" opacity="0.66" />
  <line x1="766.6" y1="178.1" x2="759.9" y2="189.4" stroke="#6e7681" stroke-width="1.5" opacity="0.55" />
  <line x1="766.6" y1="178.1" x2="732.5" y2="177.0" stroke="#6e7681" stroke-width="0.9" opacity="0.18" />
  <line x1="766.6" y1="178.1" x2="729.6" y2="169.0" stroke="#6e7681" stroke-width="1.1" opacity="0.28" />
  <line x1="766.6" y1="178.1" x2="748.5" y2="143.4" stroke="#6e7681" stroke-width="0.9" opacity="0.18" />
  <line x1="766.6" y1="178.1" x2="738.9" y2="151.7" stroke="#6e7681" stroke-width="1.1" opacity="0.28" />
  <line x1="766.6" y1="178.1" x2="781.9" y2="185.5" stroke="#6e7681" stroke-width="1.5" opacity="0.55" />
  <line x1="766.6" y1="178.1" x2="800.8" y2="167.2" stroke="#6e7681" stroke-width="1.2" opacity="0.37" />
  <line x1="766.6" y1="178.1" x2="749.8" y2="197.0" stroke="#6e7681" stroke-width="1.5" opacity="0.55" />
  <line x1="766.6" y1="178.1" x2="718.0" y2="165.9" stroke="#6e7681" stroke-width="1.5" opacity="0.55" />
  <line x1="759.9" y1="189.4" x2="729.6" y2="169.0" stroke="#6e7681" stroke-width="1.0" opacity="0.22" />
  <line x1="759.9" y1="189.4" x2="738.9" y2="151.7" stroke="#6e7681" stroke-width="1.0" opacity="0.22" />
  <line x1="759.9" y1="189.4" x2="781.9" y2="185.5" stroke="#6e7681" stroke-width="1.2" opacity="0.37" />
  <line x1="759.9" y1="189.4" x2="800.8" y2="167.2" stroke="#6e7681" stroke-width="1.1" opacity="0.28" />
  <line x1="759.9" y1="189.4" x2="749.8" y2="197.0" stroke="#6e7681" stroke-width="1.2" opacity="0.37" />
  <line x1="759.9" y1="189.4" x2="718.0" y2="165.9" stroke="#6e7681" stroke-width="1.2" opacity="0.37" />
  <line x1="785.5" y1="107.5" x2="748.5" y2="143.4" stroke="#6e7681" stroke-width="0.9" opacity="0.18" />
  <line x1="785.5" y1="107.5" x2="772.0" y2="132.8" stroke="#6e7681" stroke-width="0.9" opacity="0.18" />
  <line x1="785.5" y1="107.5" x2="738.9" y2="151.7" stroke="#6e7681" stroke-width="1.0" opacity="0.22" />
  <line x1="785.5" y1="107.5" x2="771.0" y2="121.3" stroke="#6e7681" stroke-width="1.3" opacity="0.41" />
  <line x1="726.8" y1="119.5" x2="740.3" y2="135.8" stroke="#6e7681" stroke-width="1.1" opacity="0.31" />
  <line x1="726.8" y1="119.5" x2="748.5" y2="143.4" stroke="#6e7681" stroke-width="1.4" opacity="0.47" />
  <line x1="726.8" y1="119.5" x2="772.0" y2="132.8" stroke="#6e7681" stroke-width="0.9" opacity="0.19" />
  <line x1="726.8" y1="119.5" x2="738.9" y2="151.7" stroke="#6e7681" stroke-width="1.0" opacity="0.22" />
  <line x1="740.3" y1="135.8" x2="729.1" y2="144.2" stroke="#6e7681" stroke-width="1.1" opacity="0.29" />
  <line x1="740.3" y1="135.8" x2="732.5" y2="177.0" stroke="#6e7681" stroke-width="0.9" opacity="0.17" />
  <line x1="740.3" y1="135.8" x2="729.6" y2="169.0" stroke="#6e7681" stroke-width="0.9" opacity="0.20" />
  <line x1="740.3" y1="135.8" x2="748.5" y2="143.4" stroke="#6e7681" stroke-width="1.3" opacity="0.40" />
  <line x1="740.3" y1="135.8" x2="772.0" y2="132.8" stroke="#6e7681" stroke-width="1.0" opacity="0.24" />
  <line x1="740.3" y1="135.8" x2="738.9" y2="151.7" stroke="#6e7681" stroke-width="0.9" opacity="0.20" />
  <line x1="740.3" y1="135.8" x2="718.0" y2="165.9" stroke="#6e7681" stroke-width="1.0" opacity="0.24" />
  <line x1="729.1" y1="144.2" x2="729.6" y2="169.0" stroke="#6e7681" stroke-width="0.9" opacity="0.18" />
  <line x1="729.1" y1="144.2" x2="772.0" y2="132.8" stroke="#6e7681" stroke-width="1.0" opacity="0.23" />
  <line x1="729.1" y1="144.2" x2="738.9" y2="151.7" stroke="#6e7681" stroke-width="0.9" opacity="0.18" />
  <line x1="729.1" y1="144.2" x2="760.7" y2="164.3" stroke="#6e7681" stroke-width="1.0" opacity="0.24" />
  <line x1="729.1" y1="144.2" x2="718.0" y2="165.9" stroke="#6e7681" stroke-width="1.0" opacity="0.22" />
  <line x1="732.5" y1="177.0" x2="729.6" y2="169.0" stroke="#6e7681" stroke-width="1.1" opacity="0.28" />
  <line x1="732.5" y1="177.0" x2="748.5" y2="143.4" stroke="#6e7681" stroke-width="1.0" opacity="0.22" />
  <line x1="732.5" y1="177.0" x2="738.9" y2="151.7" stroke="#6e7681" stroke-width="1.1" opacity="0.28" />
  <line x1="732.5" y1="177.0" x2="760.7" y2="164.3" stroke="#6e7681" stroke-width="0.9" opacity="0.20" />
  <line x1="732.5" y1="177.0" x2="718.0" y2="165.9" stroke="#6e7681" stroke-width="1.2" opacity="0.37" />
  <line x1="729.6" y1="169.0" x2="748.5" y2="143.4" stroke="#6e7681" stroke-width="1.1" opacity="0.28" />
  <line x1="729.6" y1="169.0" x2="738.9" y2="151.7" stroke="#6e7681" stroke-width="1.2" opacity="0.37" />
  <line x1="729.6" y1="169.0" x2="781.9" y2="185.5" stroke="#6e7681" stroke-width="1.0" opacity="0.22" />
  <line x1="729.6" y1="169.0" x2="760.7" y2="164.3" stroke="#6e7681" stroke-width="1.0" opacity="0.24" />
  <line x1="729.6" y1="169.0" x2="800.8" y2="167.2" stroke="#6e7681" stroke-width="0.9" opacity="0.18" />
  <line x1="729.6" y1="169.0" x2="749.8" y2="197.0" stroke="#6e7681" stroke-width="1.0" opacity="0.22" />
  <line x1="729.6" y1="169.0" x2="718.0" y2="165.9" stroke="#6e7681" stroke-width="1.5" opacity="0.55" />
  <line x1="748.5" y1="143.4" x2="772.0" y2="132.8" stroke="#6e7681" stroke-width="1.1" opacity="0.29" />
  <line x1="748.5" y1="143.4" x2="738.9" y2="151.7" stroke="#6e7681" stroke-width="1.4" opacity="0.47" />
  <line x1="748.5" y1="143.4" x2="760.7" y2="164.3" stroke="#6e7681" stroke-width="0.9" opacity="0.20" />
  <line x1="748.5" y1="143.4" x2="771.0" y2="121.3" stroke="#6e7681" stroke-width="1.1" opacity="0.31" />
  <line x1="748.5" y1="143.4" x2="800.8" y2="167.2" stroke="#6e7681" stroke-width="1.1" opacity="0.31" />
  <line x1="748.5" y1="143.4" x2="718.0" y2="165.9" stroke="#6e7681" stroke-width="1.2" opacity="0.37" />
  <line x1="772.0" y1="132.8" x2="738.9" y2="151.7" stroke="#6e7681" stroke-width="1.2" opacity="0.34" />
  <line x1="772.0" y1="132.8" x2="771.0" y2="121.3" stroke="#6e7681" stroke-width="1.0" opacity="0.25" />
  <line x1="772.0" y1="132.8" x2="800.8" y2="167.2" stroke="#6e7681" stroke-width="1.0" opacity="0.25" />
  <line x1="772.0" y1="132.8" x2="718.0" y2="165.9" stroke="#6e7681" stroke-width="0.9" opacity="0.17" />
  <line x1="738.9" y1="151.7" x2="781.9" y2="185.5" stroke="#6e7681" stroke-width="1.0" opacity="0.22" />
  <line x1="738.9" y1="151.7" x2="760.7" y2="164.3" stroke="#6e7681" stroke-width="1.0" opacity="0.24" />
  <line x1="738.9" y1="151.7" x2="771.0" y2="121.3" stroke="#6e7681" stroke-width="1.3" opacity="0.44" />
  <line x1="738.9" y1="151.7" x2="800.8" y2="167.2" stroke="#6e7681" stroke-width="1.3" opacity="0.44" />
  <line x1="738.9" y1="151.7" x2="749.8" y2="197.0" stroke="#6e7681" stroke-width="1.0" opacity="0.22" />
  <line x1="738.9" y1="151.7" x2="718.0" y2="165.9" stroke="#6e7681" stroke-width="1.5" opacity="0.55" />
  <line x1="94.5" y1="117.5" x2="65.0" y2="132.5" stroke="#6e7681" stroke-width="1.0" opacity="0.22" />
  <line x1="775.8" y1="225.2" x2="718.0" y2="165.9" stroke="#6e7681" stroke-width="1.0" opacity="0.22" />
  <line x1="781.9" y1="185.5" x2="800.8" y2="167.2" stroke="#6e7681" stroke-width="1.1" opacity="0.28" />
  <line x1="781.9" y1="185.5" x2="749.8" y2="197.0" stroke="#6e7681" stroke-width="1.2" opacity="0.37" />
  <line x1="781.9" y1="185.5" x2="718.0" y2="165.9" stroke="#6e7681" stroke-width="1.2" opacity="0.37" />
  <line x1="503.5" y1="238.9" x2="519.8" y2="212.8" stroke="#6e7681" stroke-width="1.5" opacity="0.55" />
  <line x1="503.5" y1="238.9" x2="565.6" y2="233.9" stroke="#6e7681" stroke-width="1.3" opacity="0.41" />
  <line x1="519.8" y1="212.8" x2="565.6" y2="233.9" stroke="#6e7681" stroke-width="1.0" opacity="0.24" />
  <line x1="760.7" y1="164.3" x2="718.0" y2="165.9" stroke="#6e7681" stroke-width="1.1" opacity="0.31" />
  <line x1="771.0" y1="121.3" x2="800.8" y2="167.2" stroke="#6e7681" stroke-width="1.0" opacity="0.22" />
  <line x1="800.8" y1="167.2" x2="887.5" y2="183.3" stroke="#6e7681" stroke-width="1.2" opacity="0.37" />
  <line x1="800.8" y1="167.2" x2="910.0" y2="197.7" stroke="#6e7681" stroke-width="0.9" opacity="0.18" />
  <line x1="800.8" y1="167.2" x2="749.8" y2="197.0" stroke="#6e7681" stroke-width="1.1" opacity="0.28" />
  <line x1="800.8" y1="167.2" x2="718.0" y2="165.9" stroke="#6e7681" stroke-width="1.1" opacity="0.28" />
  <line x1="887.5" y1="183.3" x2="910.0" y2="197.7" stroke="#6e7681" stroke-width="1.1" opacity="0.28" />
  <line x1="749.8" y1="197.0" x2="719.2" y2="237.1" stroke="#6e7681" stroke-width="1.1" opacity="0.31" />
  <line x1="749.8" y1="197.0" x2="718.0" y2="165.9" stroke="#6e7681" stroke-width="1.2" opacity="0.37" />
  <circle cx="663.1" cy="134.7" r="19.8" fill="#7f8c8d" opacity="0.12" />
  <circle cx="663.1" cy="134.7" r="15.8" fill="#7f8c8d" opacity="0.88" />
  <circle cx="659.6" cy="143.3" r="17.1" fill="#e67e22" opacity="0.12" />
  <circle cx="659.6" cy="143.3" r="13.1" fill="#e67e22" opacity="0.88" />
  <circle cx="593.4" cy="123.2" r="20" fill="#7f8c8d" opacity="0.12" />
  <circle cx="593.4" cy="123.2" r="16" fill="#7f8c8d" opacity="0.88" />
  <circle cx="684.3" cy="180.0" r="17.1" fill="#e67e22" opacity="0.12" />
  <circle cx="684.3" cy="180.0" r="13.1" fill="#e67e22" opacity="0.88" />
  <circle cx="595.3" cy="131.7" r="12.6" fill="#3498db" opacity="0.12" />
  <circle cx="595.3" cy="131.7" r="8.6" fill="#3498db" opacity="0.88" />
  <circle cx="502.7" cy="114.2" r="15.3" fill="#3498db" opacity="0.12" />
  <circle cx="502.7" cy="114.2" r="11.3" fill="#3498db" opacity="0.88" />
  <circle cx="585.7" cy="155.2" r="20" fill="#2ecc71" opacity="0.12" />
  <circle cx="585.7" cy="155.2" r="16" fill="#2ecc71" opacity="0.88" />
  <circle cx="673.6" cy="150.7" r="16.2" fill="#3498db" opacity="0.12" />
  <circle cx="673.6" cy="150.7" r="12.2" fill="#3498db" opacity="0.88" />
  <circle cx="625.2" cy="148.9" r="19.8" fill="#7f8c8d" opacity="0.12" />
  <circle cx="625.2" cy="148.9" r="15.8" fill="#7f8c8d" opacity="0.88" />
  <circle cx="682.7" cy="99.5" r="20" fill="#3498db" opacity="0.12" />
  <circle cx="682.7" cy="99.5" r="16" fill="#3498db" opacity="0.88" />
  <circle cx="549.2" cy="135.9" r="16.2" fill="#7f8c8d" opacity="0.12" />
  <circle cx="549.2" cy="135.9" r="12.2" fill="#7f8c8d" opacity="0.88" />
  <circle cx="624.5" cy="139.7" r="18.9" fill="#7f8c8d" opacity="0.12" />
  <circle cx="624.5" cy="139.7" r="14.9" fill="#7f8c8d" opacity="0.88" />
  <circle cx="532.8" cy="113.7" r="13.5" fill="#7f8c8d" opacity="0.12" />
  <circle cx="532.8" cy="113.7" r="9.5" fill="#7f8c8d" opacity="0.88" />
  <circle cx="630.0" cy="117.8" r="18.9" fill="#3498db" opacity="0.12" />
  <circle cx="630.0" cy="117.8" r="14.9" fill="#3498db" opacity="0.88" />
  <circle cx="692.5" cy="126.1" r="20" fill="#7f8c8d" opacity="0.12" />
  <circle cx="692.5" cy="126.1" r="16" fill="#7f8c8d" opacity="0.88" />
  <circle cx="729.8" cy="89.8" r="20" fill="#e74c3c" opacity="0.12" />
  <circle cx="729.8" cy="89.8" r="16" fill="#e74c3c" opacity="0.88" />
  <circle cx="804.8" cy="117.5" r="20" fill="#9b59b6" opacity="0.12" />
  <circle cx="804.8" cy="117.5" r="16" fill="#9b59b6" opacity="0.88" />
  <circle cx="677.7" cy="141.7" r="18.0" fill="#3498db" opacity="0.12" />
  <circle cx="677.7" cy="141.7" r="14.0" fill="#3498db" opacity="0.88" />
  <circle cx="662.7" cy="159.1" r="18.0" fill="#3498db" opacity="0.12" />
  <circle cx="662.7" cy="159.1" r="14.0" fill="#3498db" opacity="0.88" />
  <circle cx="666.8" cy="243.4" r="14.4" fill="#e74c3c" opacity="0.12" />
  <circle cx="666.8" cy="243.4" r="10.4" fill="#e74c3c" opacity="0.88" />
  <circle cx="50.0" cy="274.5" r="16.2" fill="#3498db" opacity="0.12" />
  <circle cx="50.0" cy="274.5" r="12.2" fill="#3498db" opacity="0.88" />
  <circle cx="704.5" cy="201.1" r="14.4" fill="#e74c3c" opacity="0.12" />
  <circle cx="704.5" cy="201.1" r="10.4" fill="#e74c3c" opacity="0.88" />
  <circle cx="326.0" cy="471.2" r="16.2" fill="#3498db" opacity="0.12" />
  <circle cx="326.0" cy="471.2" r="12.2" fill="#3498db" opacity="0.88" />
  <circle cx="354.8" cy="470.7" r="15.3" fill="#3498db" opacity="0.12" />
  <circle cx="354.8" cy="470.7" r="11.3" fill="#3498db" opacity="0.88" />
  <circle cx="613.1" cy="54.8" r="9.9" fill="#3498db" opacity="0.12" />
  <circle cx="613.1" cy="54.8" r="5.9" fill="#3498db" opacity="0.88" />
  <circle cx="800.3" cy="133.9" r="16.2" fill="#9b59b6" opacity="0.12" />
  <circle cx="800.3" cy="133.9" r="12.2" fill="#9b59b6" opacity="0.88" />
  <circle cx="747.4" cy="122.8" r="19.8" fill="#9b59b6" opacity="0.12" />
  <circle cx="747.4" cy="122.8" r="15.8" fill="#9b59b6" opacity="0.88" />
  <circle cx="737.1" cy="108.5" r="12.6" fill="#9b59b6" opacity="0.12" />
  <circle cx="737.1" cy="108.5" r="8.6" fill="#9b59b6" opacity="0.88" />
  <circle cx="766.6" cy="178.1" r="9" fill="#2ecc71" opacity="0.12" />
  <circle cx="766.6" cy="178.1" r="5" fill="#2ecc71" opacity="0.88" />
  <circle cx="759.9" cy="189.4" r="9.9" fill="#7f8c8d" opacity="0.12" />
  <circle cx="759.9" cy="189.4" r="5.9" fill="#7f8c8d" opacity="0.88" />
  <circle cx="785.5" cy="107.5" r="15.3" fill="#e67e22" opacity="0.12" />
  <circle cx="785.5" cy="107.5" r="11.3" fill="#e67e22" opacity="0.88" />
  <circle cx="726.8" cy="119.5" r="20" fill="#2ecc71" opacity="0.12" />
  <circle cx="726.8" cy="119.5" r="16" fill="#2ecc71" opacity="0.88" />
  <circle cx="512.8" cy="50.0" r="10.8" fill="#9b59b6" opacity="0.12" />
  <circle cx="512.8" cy="50.0" r="6.8" fill="#9b59b6" opacity="0.88" />
  <circle cx="173.2" cy="413.1" r="9" fill="#7f8c8d" opacity="0.12" />
  <circle cx="173.2" cy="413.1" r="5" fill="#7f8c8d" opacity="0.88" />
  <circle cx="740.3" cy="135.8" r="16.2" fill="#3498db" opacity="0.12" />
  <circle cx="740.3" cy="135.8" r="12.2" fill="#3498db" opacity="0.88" />
  <circle cx="729.1" cy="144.2" r="17.1" fill="#7f8c8d" opacity="0.12" />
  <circle cx="729.1" cy="144.2" r="13.1" fill="#7f8c8d" opacity="0.88" />
  <circle cx="732.5" cy="177.0" r="13.5" fill="#7f8c8d" opacity="0.12" />
  <circle cx="732.5" cy="177.0" r="9.5" fill="#7f8c8d" opacity="0.88" />
  <circle cx="771.7" cy="479.4" r="9" fill="#7f8c8d" opacity="0.12" />
  <circle cx="771.7" cy="479.4" r="5" fill="#7f8c8d" opacity="0.88" />
  <circle cx="729.6" cy="169.0" r="11.7" fill="#7f8c8d" opacity="0.12" />
  <circle cx="729.6" cy="169.0" r="7.7" fill="#7f8c8d" opacity="0.88" />
  <circle cx="748.5" cy="143.4" r="13.5" fill="#7f8c8d" opacity="0.12" />
  <circle cx="748.5" cy="143.4" r="9.5" fill="#7f8c8d" opacity="0.88" />
  <circle cx="772.0" cy="132.8" r="19.8" fill="#2ecc71" opacity="0.12" />
  <circle cx="772.0" cy="132.8" r="15.8" fill="#2ecc71" opacity="0.88" />
  <circle cx="738.9" cy="151.7" r="11.7" fill="#7f8c8d" opacity="0.12" />
  <circle cx="738.9" cy="151.7" r="7.7" fill="#7f8c8d" opacity="0.88" />
  <circle cx="94.5" cy="117.5" r="11.7" fill="#7f8c8d" opacity="0.12" />
  <circle cx="94.5" cy="117.5" r="7.7" fill="#7f8c8d" opacity="0.88" />
  <circle cx="775.8" cy="225.2" r="11.7" fill="#3498db" opacity="0.12" />
  <circle cx="775.8" cy="225.2" r="7.7" fill="#3498db" opacity="0.88" />
  <circle cx="781.9" cy="185.5" r="9.9" fill="#7f8c8d" opacity="0.12" />
  <circle cx="781.9" cy="185.5" r="5.9" fill="#7f8c8d" opacity="0.88" />
  <circle cx="503.5" cy="238.9" r="10.8" fill="#e67e22" opacity="0.12" />
  <circle cx="503.5" cy="238.9" r="6.8" fill="#e67e22" opacity="0.88" />
  <circle cx="519.8" cy="212.8" r="10.8" fill="#e67e22" opacity="0.12" />
  <circle cx="519.8" cy="212.8" r="6.8" fill="#e67e22" opacity="0.88" />
  <circle cx="760.7" cy="164.3" r="14.4" fill="#7f8c8d" opacity="0.12" />
  <circle cx="760.7" cy="164.3" r="10.4" fill="#7f8c8d" opacity="0.88" />
  <circle cx="565.6" cy="233.9" r="15.3" fill="#e67e22" opacity="0.12" />
  <circle cx="565.6" cy="233.9" r="11.3" fill="#e67e22" opacity="0.88" />
  <circle cx="65.0" cy="132.5" r="9.9" fill="#7f8c8d" opacity="0.12" />
  <circle cx="65.0" cy="132.5" r="5.9" fill="#7f8c8d" opacity="0.88" />
  <circle cx="771.0" cy="121.3" r="10.8" fill="#7f8c8d" opacity="0.12" />
  <circle cx="771.0" cy="121.3" r="6.8" fill="#7f8c8d" opacity="0.88" />
  <circle cx="800.8" cy="167.2" r="10.8" fill="#7f8c8d" opacity="0.12" />
  <circle cx="800.8" cy="167.2" r="6.8" fill="#7f8c8d" opacity="0.88" />
  <circle cx="887.5" cy="183.3" r="9" fill="#2ecc71" opacity="0.12" />
  <circle cx="887.5" cy="183.3" r="5" fill="#2ecc71" opacity="0.88" />
  <circle cx="910.0" cy="197.7" r="11.7" fill="#2ecc71" opacity="0.12" />
  <circle cx="910.0" cy="197.7" r="7.7" fill="#2ecc71" opacity="0.88" />
  <circle cx="749.8" cy="197.0" r="9.9" fill="#e74c3c" opacity="0.12" />
  <circle cx="749.8" cy="197.0" r="5.9" fill="#e74c3c" opacity="0.88" />
  <circle cx="719.2" cy="237.1" r="14.4" fill="#e74c3c" opacity="0.12" />
  <circle cx="719.2" cy="237.1" r="10.4" fill="#e74c3c" opacity="0.88" />
  <circle cx="718.0" cy="165.9" r="9.9" fill="#7f8c8d" opacity="0.12" />
  <circle cx="718.0" cy="165.9" r="5.9" fill="#7f8c8d" opacity="0.88" />
  <circle cx="618.0" cy="500.0" r="9" fill="#7f8c8d" opacity="0.12" />
  <circle cx="618.0" cy="500.0" r="5" fill="#7f8c8d" opacity="0.88" />
  <rect x="680.9" y="125.4" width="124.4" height="15" fill="#0d1117" opacity="0.75" rx="2" />
  <text x="681.9" y="136.4" font-family="system-ui, -apple-system, sans-serif" font-size="12" fill="#e6edf3" text-anchor="start">tinyland-huskycat</text>
  <rect x="674.7" y="178.9" width="45.2" height="15" fill="#0d1117" opacity="0.75" rx="2" />
  <text x="675.7" y="189.9" font-family="system-ui, -apple-system, sans-serif" font-size="12" fill="#e6edf3" text-anchor="start">XoxdWM</text>
  <rect x="611.4" y="111.2" width="74.0" height="15" fill="#0d1117" opacity="0.75" rx="2" />
  <text x="612.4" y="122.2" font-family="system-ui, -apple-system, sans-serif" font-size="12" fill="#e6edf3" text-anchor="start">tummycrypt</text>
  <rect x="699.4" y="70.2" width="110.0" height="15" fill="#0d1117" opacity="0.75" rx="2" />
  <text x="700.4" y="81.2" font-family="system-ui, -apple-system, sans-serif" font-size="12" fill="#e6edf3" text-anchor="start">hiberpower-ntfs</text>
  <rect x="605.9" y="144.7" width="16.4" height="15" fill="#0d1117" opacity="0.75" rx="2" />
  <text x="606.9" y="155.7" font-family="system-ui, -apple-system, sans-serif" font-size="12" fill="#e6edf3" text-anchor="start">pp</text>
  <rect x="516.0" y="79.5" width="117.2" height="15" fill="#0d1117" opacity="0.75" rx="2" />
  <text x="517.0" y="90.5" font-family="system-ui, -apple-system, sans-serif" font-size="12" fill="#e6edf3" text-anchor="start">tinyland-cleanup</text>
  <rect x="603.7" y="165.7" width="59.6" height="15" fill="#0d1117" opacity="0.75" rx="2" />
  <text x="604.7" y="176.7" font-family="system-ui, -apple-system, sans-serif" font-size="12" fill="#e6edf3" text-anchor="start">gnucashr</text>
  <rect x="687.8" y="103.6" width="66.8" height="15" fill="#0d1117" opacity="0.75" rx="2" />
  <text x="688.8" y="114.6" font-family="system-ui, -apple-system, sans-serif" font-size="12" fill="#e6edf3" text-anchor="start">betterkvm</text>
  <rect x="643.0" y="142.8" width="66.8" height="15" fill="#0d1117" opacity="0.75" rx="2" />
  <text x="644.0" y="153.8" font-family="system-ui, -apple-system, sans-serif" font-size="12" fill="#e6edf3" text-anchor="start">outbot-ci</text>
  <rect x="700.7" y="-3.1" width="117.2" height="15" fill="#0d1117" opacity="0.75" rx="2" />
  <text x="701.7" y="7.9" font-family="system-ui, -apple-system, sans-serif" font-size="12" fill="#e6edf3" text-anchor="start">GloriousFlywheel</text>
  <rect x="563.4" y="194.2" width="131.6" height="15" fill="#0d1117" opacity="0.75" rx="2" />
  <text x="564.4" y="205.2" font-family="system-ui, -apple-system, sans-serif" font-size="12" fill="#e6edf3" text-anchor="start">aperture-bootstrap</text>
  <rect x="641.4" y="55.5" width="81.2" height="15" fill="#0d1117" opacity="0.75" rx="2" />
  <text x="642.4" y="66.5" font-family="system-ui, -apple-system, sans-serif" font-size="12" fill="#e6edf3" text-anchor="start">tailnet-acl</text>
  <rect x="544.3" y="94.4" width="88.4" height="15" fill="#0d1117" opacity="0.75" rx="2" />
  <text x="545.3" y="105.4" font-family="system-ui, -apple-system, sans-serif" font-size="12" fill="#e6edf3" text-anchor="start">waifu-mirror</text>
  <rect x="646.9" y="95.3" width="102.8" height="15" fill="#0d1117" opacity="0.75" rx="2" />
  <text x="647.9" y="106.3" font-family="system-ui, -apple-system, sans-serif" font-size="12" fill="#e6edf3" text-anchor="start">tinyland-infra</text>
  <rect x="710.5" y="239.1" width="52.4" height="15" fill="#0d1117" opacity="0.75" rx="2" />
  <text x="711.5" y="250.1" font-family="system-ui, -apple-system, sans-serif" font-size="12" fill="#e6edf3" text-anchor="start">LA-Mesh</text>
  <rect x="747.8" y="91.3" width="131.6" height="15" fill="#0d1117" opacity="0.75" rx="2" />
  <text x="748.8" y="102.3" font-family="system-ui, -apple-system, sans-serif" font-size="12" fill="#e6edf3" text-anchor="start">pixelwise-research</text>
  <rect x="691.2" y="11.5" width="95.6" height="15" fill="#0d1117" opacity="0.75" rx="2" />
  <text x="785.8" y="22.5" font-family="system-ui, -apple-system, sans-serif" font-size="12" fill="#e6edf3" text-anchor="end">GIS_Shortcuts</text>
  <rect x="693.7" y="212.8" width="138.8" height="15" fill="#0d1117" opacity="0.75" rx="2" />
  <text x="694.7" y="223.8" font-family="system-ui, -apple-system, sans-serif" font-size="12" fill="#e6edf3" text-anchor="start">Ansible-DAG-Harness</text>
  <rect x="678.7" y="38.7" width="95.6" height="15" fill="#0d1117" opacity="0.75" rx="2" />
  <text x="679.7" y="49.7" font-family="system-ui, -apple-system, sans-serif" font-size="12" fill="#e6edf3" text-anchor="start">DarwinNicUtil</text>
  <rect x="679.2" y="319.8" width="66.8" height="15" fill="#0d1117" opacity="0.75" rx="2" />
  <text x="680.2" y="330.8" font-family="system-ui, -apple-system, sans-serif" font-size="12" fill="#e6edf3" text-anchor="start">quickchpl</text>
  <rect x="64.2" y="267.7" width="131.6" height="15" fill="#0d1117" opacity="0.75" rx="2" />
  <text x="65.2" y="278.7" font-family="system-ui, -apple-system, sans-serif" font-size="12" fill="#e6edf3" text-anchor="start">tinyscale-mikrotik</text>
  <rect x="716.9" y="290.8" width="59.6" height="15" fill="#0d1117" opacity="0.75" rx="2" />
  <text x="717.9" y="301.8" font-family="system-ui, -apple-system, sans-serif" font-size="12" fill="#e6edf3" text-anchor="start">aoc-2025</text>
  <rect x="340.2" y="472.7" width="66.8" height="15" fill="#0d1117" opacity="0.75" rx="2" />
  <text x="341.2" y="483.7" font-family="system-ui, -apple-system, sans-serif" font-size="12" fill="#e6edf3" text-anchor="start">searchies</text>
  <rect x="368.1" y="455.7" width="59.6" height="15" fill="#0d1117" opacity="0.75" rx="2" />
  <text x="369.1" y="466.7" font-family="system-ui, -apple-system, sans-serif" font-size="12" fill="#e6edf3" text-anchor="start">ts-caddy</text>
  <rect x="621.0" y="23.7" width="66.8" height="15" fill="#0d1117" opacity="0.75" rx="2" />
  <text x="622.0" y="34.7" font-family="system-ui, -apple-system, sans-serif" font-size="12" fill="#e6edf3" text-anchor="start">HCI-notes</text>
  <rect x="697.7" y="157.3" width="88.4" height="15" fill="#0d1117" opacity="0.75" rx="2" />
  <text x="785.1" y="168.3" font-family="system-ui, -apple-system, sans-serif" font-size="12" fill="#e6edf3" text-anchor="end">FastPhotoAPI</text>
  <rect x="765.2" y="173.6" width="81.2" height="15" fill="#0d1117" opacity="0.75" rx="2" />
  <text x="766.2" y="184.6" font-family="system-ui, -apple-system, sans-serif" font-size="12" fill="#e6edf3" text-anchor="start">timberbuddy</text>
  <rect x="747.7" y="151.8" width="81.2" height="15" fill="#0d1117" opacity="0.75" rx="2" />
  <text x="748.7" y="162.8" font-family="system-ui, -apple-system, sans-serif" font-size="12" fill="#e6edf3" text-anchor="start">tetrahedron</text>
  <rect x="773.6" y="41.5" width="95.6" height="15" fill="#0d1117" opacity="0.75" rx="2" />
  <text x="774.6" y="52.5" font-family="system-ui, -apple-system, sans-serif" font-size="12" fill="#e6edf3" text-anchor="start">AccuWixReport</text>
  <rect x="767.8" y="240.8" width="95.6" height="15" fill="#0d1117" opacity="0.75" rx="2" />
  <text x="768.8" y="251.8" font-family="system-ui, -apple-system, sans-serif" font-size="12" fill="#e6edf3" text-anchor="start">Jess-AOC-2023</text>
  <rect x="798.8" y="9.7" width="81.2" height="15" fill="#0d1117" opacity="0.75" rx="2" />
  <text x="799.8" y="20.7" font-family="system-ui, -apple-system, sans-serif" font-size="12" fill="#e6edf3" text-anchor="start">TurkeyProbe</text>
  <rect x="744.8" y="76.4" width="153.2" height="15" fill="#0d1117" opacity="0.75" rx="2" />
  <text x="745.8" y="87.4" font-family="system-ui, -apple-system, sans-serif" font-size="12" fill="#e6edf3" text-anchor="start">MerlinAI-Interpreters</text>
  <rect x="521.6" y="8.6" width="110.0" height="15" fill="#0d1117" opacity="0.75" rx="2" />
  <text x="522.6" y="19.6" font-family="system-ui, -apple-system, sans-serif" font-size="12" fill="#e6edf3" text-anchor="start">IntroTypeScript</text>
  <rect x="180.2" y="406.3" width="110.0" height="15" fill="#0d1117" opacity="0.75" rx="2" />
  <text x="181.2" y="417.3" font-family="system-ui, -apple-system, sans-serif" font-size="12" fill="#e6edf3" text-anchor="start">IG-3DP-Profiles</text>
  <rect x="754.5" y="164.3" width="66.8" height="15" fill="#0d1117" opacity="0.75" rx="2" />
  <text x="755.5" y="175.3" font-family="system-ui, -apple-system, sans-serif" font-size="12" fill="#e6edf3" text-anchor="start">DLA-Flask</text>
  <rect x="744.2" y="56.8" width="38.0" height="15" fill="#0d1117" opacity="0.75" rx="2" />
  <text x="745.2" y="67.8" font-family="system-ui, -apple-system, sans-serif" font-size="12" fill="#e6edf3" text-anchor="start">USBoN</text>
  <rect x="744.0" y="123.0" width="203.6" height="15" fill="#0d1117" opacity="0.75" rx="2" />
  <text x="745.0" y="134.0" font-family="system-ui, -apple-system, sans-serif" font-size="12" fill="#e6edf3" text-anchor="start">chrome-remote-desktop-budgie</text>
  <rect x="778.7" y="472.6" width="124.4" height="15" fill="#0d1117" opacity="0.75" rx="2" />
  <text x="779.7" y="483.6" font-family="system-ui, -apple-system, sans-serif" font-size="12" fill="#e6edf3" text-anchor="start">OminousBeepingApp</text>
  <rect x="739.3" y="209.5" width="138.8" height="15" fill="#0d1117" opacity="0.75" rx="2" />
  <text x="740.3" y="220.5" font-family="system-ui, -apple-system, sans-serif" font-size="12" fill="#e6edf3" text-anchor="start">mo-image-identifier</text>
  <rect x="760.0" y="134.8" width="196.4" height="15" fill="#0d1117" opacity="0.75" rx="2" />
  <text x="761.0" y="145.8" font-family="system-ui, -apple-system, sans-serif" font-size="12" fill="#e6edf3" text-anchor="start">squirrel-leaflet-annotation</text>
  <rect x="789.8" y="55.8" width="74.0" height="15" fill="#0d1117" opacity="0.75" rx="2" />
  <text x="790.8" y="66.8" font-family="system-ui, -apple-system, sans-serif" font-size="12" fill="#e6edf3" text-anchor="start">Shiny-Apps</text>
  <rect x="748.6" y="200.0" width="138.8" height="15" fill="#0d1117" opacity="0.75" rx="2" />
  <text x="749.6" y="211.0" font-family="system-ui, -apple-system, sans-serif" font-size="12" fill="#e6edf3" text-anchor="start">bbox-jest-puppeteer</text>
  <rect x="104.2" y="110.7" width="88.4" height="15" fill="#0d1117" opacity="0.75" rx="2" />
  <text x="105.2" y="121.7" font-family="system-ui, -apple-system, sans-serif" font-size="12" fill="#e6edf3" text-anchor="start">DoverDisplay</text>
  <rect x="785.5" y="289.1" width="81.2" height="15" fill="#0d1117" opacity="0.75" rx="2" />
  <text x="786.5" y="300.1" font-family="system-ui, -apple-system, sans-serif" font-size="12" fill="#e6edf3" text-anchor="start">LeafletSync</text>
  <rect x="789.8" y="247.3" width="167.6" height="15" fill="#0d1117" opacity="0.75" rx="2" />
  <text x="790.8" y="258.3" font-family="system-ui, -apple-system, sans-serif" font-size="12" fill="#e6edf3" text-anchor="start">misc-roi-distance-notes</text>
  <rect x="512.3" y="236.2" width="138.8" height="15" fill="#0d1117" opacity="0.75" rx="2" />
  <text x="513.3" y="247.2" font-family="system-ui, -apple-system, sans-serif" font-size="12" fill="#e6edf3" text-anchor="start">Arduino_Coil_Winder</text>
  <rect x="528.6" y="206.0" width="30.8" height="15" fill="#0d1117" opacity="0.75" rx="2" />
  <text x="529.6" y="217.0" font-family="system-ui, -apple-system, sans-serif" font-size="12" fill="#e6edf3" text-anchor="start">momo</text>
  <rect x="773.1" y="106.0" width="38.0" height="15" fill="#0d1117" opacity="0.75" rx="2" />
  <text x="774.1" y="117.0" font-family="system-ui, -apple-system, sans-serif" font-size="12" fill="#e6edf3" text-anchor="start">clipi</text>
  <rect x="578.9" y="219.2" width="110.0" height="15" fill="#0d1117" opacity="0.75" rx="2" />
  <text x="579.9" y="230.2" font-family="system-ui, -apple-system, sans-serif" font-size="12" fill="#e6edf3" text-anchor="start">AeroTaz5_hotfix</text>
  <rect x="72.9" y="125.7" width="110.0" height="15" fill="#0d1117" opacity="0.75" rx="2" />
  <text x="73.9" y="136.7" font-family="system-ui, -apple-system, sans-serif" font-size="12" fill="#e6edf3" text-anchor="start">Funmat-HT-Notes</text>
  <rect x="779.8" y="26.7" width="81.2" height="15" fill="#0d1117" opacity="0.75" rx="2" />
  <text x="780.8" y="37.7" font-family="system-ui, -apple-system, sans-serif" font-size="12" fill="#e6edf3" text-anchor="start">static-site</text>
  <rect x="696.4" y="276.7" width="95.6" height="15" fill="#0d1117" opacity="0.75" rx="2" />
  <text x="791.0" y="287.7" font-family="system-ui, -apple-system, sans-serif" font-size="12" fill="#e6edf3" text-anchor="end">Flask-Manager</text>
  <rect x="770.5" y="259.7" width="110.0" height="15" fill="#0d1117" opacity="0.75" rx="2" />
  <text x="879.5" y="270.7" font-family="system-ui, -apple-system, sans-serif" font-size="12" fill="#e6edf3" text-anchor="end">FieldProcessing</text>
  <rect x="819.1" y="107.2" width="81.2" height="15" fill="#0d1117" opacity="0.75" rx="2" />
  <text x="899.3" y="118.2" font-family="system-ui, -apple-system, sans-serif" font-size="12" fill="#e6edf3" text-anchor="end">rJDKmanager</text>
  <rect x="757.7" y="223.8" width="59.6" height="15" fill="#0d1117" opacity="0.75" rx="2" />
  <text x="758.7" y="234.8" font-family="system-ui, -apple-system, sans-serif" font-size="12" fill="#e6edf3" text-anchor="start">tagnotes</text>
  <rect x="731.6" y="304.9" width="81.2" height="15" fill="#0d1117" opacity="0.75" rx="2" />
  <text x="732.6" y="315.9" font-family="system-ui, -apple-system, sans-serif" font-size="12" fill="#e6edf3" text-anchor="start">ChapelTests</text>
  <rect x="725.9" y="183.0" width="88.4" height="15" fill="#0d1117" opacity="0.75" rx="2" />
  <text x="726.9" y="194.0" font-family="system-ui, -apple-system, sans-serif" font-size="12" fill="#e6edf3" text-anchor="start">Xfinity-WiFi</text>
  <rect x="625.0" y="493.2" width="66.8" height="15" fill="#0d1117" opacity="0.75" rx="2" />
  <text x="626.0" y="504.2" font-family="system-ui, -apple-system, sans-serif" font-size="12" fill="#e6edf3" text-anchor="start">home-wiki</text>
  <rect x="793" y="36" width="155" height="120" rx="6" fill="#161b22" stroke="#30363d" stroke-width="1" opacity="0.95" />
  <circle cx="810" cy="52" r="5" fill="#e74c3c" opacity="0.88" />
  <text x="820" y="56" font-family="system-ui, -apple-system, sans-serif" font-size="10" fill="#e6edf3">Languages &amp; Compilers</text>
  <circle cx="810" cy="69" r="5" fill="#3498db" opacity="0.88" />
  <text x="820" y="73" font-family="system-ui, -apple-system, sans-serif" font-size="10" fill="#e6edf3">Infrastructure &amp; DevOps</text>
  <circle cx="810" cy="86" r="5" fill="#e67e22" opacity="0.88" />
  <text x="820" y="90" font-family="system-ui, -apple-system, sans-serif" font-size="10" fill="#e6edf3">Hardware &amp; Maker</text>
  <circle cx="810" cy="103" r="5" fill="#2ecc71" opacity="0.88" />
  <text x="820" y="107" font-family="system-ui, -apple-system, sans-serif" font-size="10" fill="#e6edf3">ML &amp; Data</text>
  <circle cx="810" cy="120" r="5" fill="#9b59b6" opacity="0.88" />
  <text x="820" y="124" font-family="system-ui, -apple-system, sans-serif" font-size="10" fill="#e6edf3">Web &amp; Apps</text>
  <circle cx="810" cy="137" r="5" fill="#7f8c8d" opacity="0.88" />
  <text x="820" y="141" font-family="system-ui, -apple-system, sans-serif" font-size="10" fill="#e6edf3">Other</text>
  <text x="870" y="150" font-family="system-ui, -apple-system, sans-serif" font-size="8" fill="#8b949e" text-anchor="middle">58 repos · 231 edges</text>
</svg>