<svg xmlns="http://www.w3.org/2000/svg" width="300" height="177" viewBox="0 0 300 177">
  <style>
    .title { font: 600 18px "Segoe UI", Ubuntu, Sans-Serif; fill: #2f80ed; }
    .lang-name { font: 400 11px "Segoe UI", Ubuntu, Sans-Serif; fill: #434d58; }
  </style>
  <rect x="0.5" y="0.5" rx="4.5" width="299" height="176" fill="#fffefe" stroke="#e4e2e2" />
  <text x="25" y="33" class="title" fill="#2f80ed" font-size="18" font-weight="600" font-family="'Segoe UI', Ubuntu, Sans-Serif">Most Used Languages</text>
  <defs>
    <clipPath id="bar-clip">
      <rect x="25" y="50" width="250" height="8" rx="5" />
    </clipPath>
  </defs>
  <g clip-path="url(#bar-clip)">
    <rect x="25.0" y="50" width="62.7" height="8" fill="#f34b7d" />
    <rect x="87.7" y="50" width="51.3" height="8" fill="#3178c6" />
    <rect x="139.0" y="50" width="48.3" height="8" fill="#3572A5" />
    <rect x="187.3" y="50" width="27.1" height="8" fill="#00ADD8" />
    <rect x="214.4" y="50" width="20.5" height="8" fill="#dea584" />
    <rect x="234.9" y="50" width="19.4" height="8" fill="#555555" />
    <rect x="254.3" y="50" width="14.9" height="8" fill="#c065db" />
    <rect x="269.3" y="50" width="5.7" height="8" fill="#198CE7" />
  </g>
  <circle cx="30" cy="78" r="5" fill="#f34b7d" />
  <text x="40" y="82" class="lang-name" fill="#434d58" font-size="11" font-family="'Segoe UI', Ubuntu, Sans-Serif">C++ 25.1%</text>
  <circle cx="155" cy="78" r="5" fill="#3178c6" />
  <text x="165" y="82" class="lang-name" fill="#434d58" font-size="11" font-family="'Segoe UI', Ubuntu, Sans-Serif">TypeScript 20.5%</text>
  <circle cx="30" cy="98" r="5" fill="#3572A5" />
  <text x="40" y="102" class="lang-name" fill="#434d58" font-size="11" font-family="'Segoe UI', Ubuntu, Sans-Serif">Python 19.3%</text>
  <circle cx="155" cy="98" r="5" fill="#00ADD8" />
  <text x="165" y="102" class="lang-name" fill="#434d58" font-size="11" font-family="'Segoe UI', Ubuntu, Sans-Serif">Go 10.9%</text>
  <circle cx="30" cy="118" r="5" fill="#dea584" />
  <text x="40" y="122" class="lang-name" fill="#434d58" font-size="11" font-family="'Segoe UI', Ubuntu, Sans-Serif">Rust 8.2%</text>
  <circle cx="155" cy="118" r="5" fill="#555555" />
  <text x="165" y="122" class="lang-name" fill="#434d58" font-size="11" font-family="'Segoe UI', Ubuntu, Sans-Serif">C 7.8%</text>
  <circle cx="30" cy="138" r="5" fill="#c065db" />
  <text x="40" y="142" class="lang-name" fill="#434d58" font-size="11" font-family="'Segoe UI', Ubuntu, Sans-Serif">Emacs Lisp 6.0%</text>
  <circle cx="155" cy="138" r="5" fill="#198CE7" />
  <text x="165" y="142" class="lang-name" fill="#434d58" font-size="11" font-family="'Segoe UI', Ubuntu, Sans-Serif">R 2.3%</text>
</svg>