<svg xmlns="http://www.w3.org/2000/svg" width="300" height="177" viewBox="0 0 300 177">
  <style>
    .title { font: 600 18px "Segoe UI", Ubuntu, Sans-Serif; fill: #2f80ed; }
    .lang-name { font: 400 11px "Segoe UI", Ubuntu, Sans-Serif; fill: #434d58; }
  </style>
  <rect x="0.5" y="0.5" rx="4.5" width="299" height="176" fill="#fffefe" stroke="#e4e2e2" />
  <text x="25" y="33" class="title" fill="#2f80ed" font-size="18" font-weight="600" font-family="'Segoe UI', Ubuntu, Sans-Serif">Most Used Languages</text>
  <defs>
    <clipPath id="bar-clip">
      <rect x="25" y="50" width="250" height="8" rx="5" />
    </clipPath>
  </defs>
  <g clip-path="url(#bar-clip)">
    <rect x="25.0" y="50" width="61.1" height="8" fill="#f34b7d" />
    <rect x="86.1" y="50" width="51.7" height="8" fill="#3178c6" />
    <rect x="137.8" y="50" width="47.2" height="8" fill="#3572A5" />
    <rect x="185.0" y="50" width="26.4" height="8" fill="#00ADD8" />
    <rect x="211.5" y="50" width="24.3" height="8" fill="#dea584" />
    <rect x="235.8" y="50" width="18.9" height="8" fill="#555555" />
    <rect x="254.7" y="50" width="14.5" height="8" fill="#c065db" />
    <rect x="269.2" y="50" width="5.8" height="8" fill="#89e051" />
  </g>
  <circle cx="30" cy="78" r="5" fill="#f34b7d" />
  <text x="40" y="82" class="lang-name" fill="#434d58" font-size="11" font-family="'Segoe UI', Ubuntu, Sans-Serif">C++ 24.4%</text>
  <circle cx="155" cy="78" r="5" fill="#3178c6" />
  <text x="165" y="82" class="lang-name" fill="#434d58" font-size="11" font-family="'Segoe UI', Ubuntu, Sans-Serif">TypeScript 20.7%</text>
  <circle cx="30" cy="98" r="5" fill="#3572A5" />
  <text x="40" y="102" class="lang-name" fill="#434d58" font-size="11" font-family="'Segoe UI', Ubuntu, Sans-Serif">Python 18.9%</text>
  <circle cx="155" cy="98" r="5" fill="#00ADD8" />
  <text x="165" y="102" class="lang-name" fill="#434d58" font-size="11" font-family="'Segoe UI', Ubuntu, Sans-Serif">Go 10.6%</text>
  <circle cx="30" cy="118" r="5" fill="#dea584" />
  <text x="40" y="122" class="lang-name" fill="#434d58" font-size="11" font-family="'Segoe UI', Ubuntu, Sans-Serif">Rust 9.7%</text>
  <circle cx="155" cy="118" r="5" fill="#555555" />
  <text x="165" y="122" class="lang-name" fill="#434d58" font-size="11" font-family="'Segoe UI', Ubuntu, Sans-Serif">C 7.6%</text>
  <circle cx="30" cy="138" r="5" fill="#c065db" />
  <text x="40" y="142" class="lang-name" fill="#434d58" font-size="11" font-family="'Segoe UI', Ubuntu, Sans-Serif">Emacs Lisp 5.8%</text>
  <circle cx="155" cy="138" r="5" fill="#89e051" />
  <text x="165" y="142" class="lang-name" fill="#434d58" font-size="11" font-family="'Segoe UI', Ubuntu, Sans-Serif">Shell 2.3%</text>
</svg>